<?xml version="1.0" encoding="utf-8"?>
<!-- Generator: Adobe Illustrator 16.0.0, SVG Export Plug-In . SVG Version: 6.00 Build 0)  -->
<!DOCTYPE svg PUBLIC "-//W3C//DTD SVG 1.1//EN" "http://www.w3.org/Graphics/SVG/1.1/DTD/svg11.dtd">
<svg version="1.1"
	 id="svg2" xmlns:dc="http://purl.org/dc/elements/1.1/" xmlns:cc="http://creativecommons.org/ns#" xmlns:svg="http://www.w3.org/2000/svg" xmlns:rdf="http://www.w3.org/1999/02/22-rdf-syntax-ns#" xmlns:sodipodi="http://sodipodi.sourceforge.net/DTD/sodipodi-0.dtd" xmlns:inkscape="http://www.inkscape.org/namespaces/inkscape" inkscape:version="0.47 r22583" sodipodi:docname="ZZ.svg"
	 xmlns="http://www.w3.org/2000/svg" xmlns:xlink="http://www.w3.org/1999/xlink" x="0px" y="0px" width="836px" height="444px"
	 viewBox="0 0 836 444" enable-background="new 0 0 836 444" xml:space="preserve">
<sodipodi:namedview  id="namedview8" showgrid="false" pagecolor="#ffffff" inkscape:cx="426.06567" gridtolerance="10" inkscape:zoom="0.63366196" objecttolerance="10" bordercolor="#666666" inkscape:cy="91.463549" borderopacity="1" guidetolerance="10" inkscape:current-layer="g3361" inkscape:window-maximized="1" inkscape:window-y="-8" inkscape:pageopacity="0" inkscape:window-height="1004" inkscape:pageshadow="2" inkscape:window-x="-8" inkscape:window-width="1280">
	</sodipodi:namedview>
<defs>
	
	
		<inkscape:perspective  id="perspective12" inkscape:vp_z="1000.0001 : 263.35367 : 1" sodipodi:type="inkscape:persp3d" inkscape:vp_x="0 : 263.35367 : 1" inkscape:vp_y="0 : 1000 : 0" inkscape:persp3d-origin="500.00006 : 175.56911 : 1">
		</inkscape:perspective>
</defs>
<g id="g3361" transform="translate(-905.22505,-299.6625)">
	<path id="rect2371" fill="#CC0C0A" stroke="#CC0C0A" stroke-width="3.8" stroke-linejoin="round" d="M1484.529,324.927
		l-0.399,3.357l-1.174,3.146l2.16,9.062l-0.587,2.958l-0.798,3.169l0.397,2.56l-0.188,2.348l-1.198,3.757l0.799,2.559l1.386,2.559
		l-1.196,2.559h-1.175l-2.16-1.174l-5.142-0.798h-5.729l-0.986,7.302l-6.104,6.504l-1.386,5.329l0.376,6.902l-1.363,4.719
		l-2.957-0.188l-1.011-3.146h-3.146l-0.588-2.371l-1.783-0.986l-1.973,1.573l-1.973,1.972l-2.56-1.174l-2.582-1.198l-2.348-2.747
		l-3.969,0.986v4.319l-1.763,3.944l-2.37-0.188l-2.184,2.559l-2.958,3.146l-2.959-1.972l-2.559-0.775l-2.561-0.399l-2.979-0.188
		l-3.147-1.784l-12.044-0.188l-3.546-1.972l-0.21-1.573l-1.973-1.784v-1.785l2.958-1.361v-2.372l-2.747-1.784l-2.771-4.132
		l-3.944-0.399l-7.7-6.292l-2.771-0.211l-2.559-0.399l-0.799,3.169l-0.774,1.972l-1.785,2.16l4.156,3.357l-1.597,2.348l2.185,9.674
		l-2.373,2.747v3.17l-3.145,2.958l-2.583,0.399l-0.4,4.907l-1.36,1.784l-1.783-0.798l-2.959-1.761l-1.198-1.385l-0.774-1.573
		l-3.169-0.211l-1.762-1.362l-1.384,0.188l-2.373,0.798l-1.572-1.573l-2.582-1.785l-2.959,0.798l-2.771,1.174l-1.972,1.572v2.161
		l0.985,2.77l1.385,3.545l-1.972,2.958l-0.588,2.372v2.371l0.188,2.748v2.958l-0.587,1.972l-0.775,1.972l-0.61,2.371l-1.972,2.348
		l-2.746,2.958l-2.982,3.357l-4.319,3.146l-2.371,0.799l-7.7,0.188l-3.358,1.596l-1.972,1.761l-2.184,0.211l-1.176,1.173
		l-1.572,0.986h-2.959l-2.583,0.398l-0.772,1.972l-1.973,3.334l-0.986,1.785l-2.583,0.587l-3.146,0.586h-3.568l-2.371,1.386v2.559
		l-0.376,2.559l-3.169,1.596l-1.385,1.972l0.211,2.348l-2.771-0.375l-1.972,0.985l1.385,5.119l1.974,4.344l4.93,2.934l2.559,2.372
		l0.799,2.771v2.747l1.386,1.784l1.385,1.573l3.146,1.174l4.555,6.715l4.931,7.888l-3.569,7.49l-2.958,3.356l0.213,4.319
		l-1.974,4.155l1.362,1.974h6.715l2.959-2.582l4.343,4.343l1.598,3.944l2.348,4.344l-2.559,2.746l-0.188,5.143h-1.973l-0.797,1.973
		l1.782,1.973l-1.782,2.559l-0.188,2.16c0,0,1.173,2.37,2.159,2.37c0.988,0-0.397,3.335-0.397,3.335l-2.561,0.986l-1.385,3.17
		l-2.16-2.771l-2.771,1.785l-7.489-4.531l-0.21-1.783l-4.743-4.133h-3.146l-2.559-5.33l1.362-4.343l2.583-0.377l-1.386-2.771
		l-4.931-2.371l0.188-3.146l-3.357-1.783l-1.972,0.609l-4.133-0.212l-3.17,1.573l-3.356-0.188l-3.357,5.705l-2.559-0.774
		l-2.958,2.16l-6.128-5.119l-1.973-4.344l-6.715,1.785l-3.944-1.195l-6.902,2.369l-1.573-3.732l2.16-2.959l-0.986-1.385
		l-3.545,2.771l-4.155,2.348l2.582,6.316l0.375,6.903l-4.343,0.984l-11.246-1.386l-1.385,0.985l-2.56-0.985l-14.792,3.944
		l-0.799,3.146l-6.503-1.174l-10.471,0.986l-3.545-1.385l-4.555,3.942v5.329l-2.747,3.146l-6.526,0.799l-5.917-1.387l-5.142,6.316
		l2.372,0.586l-0.588,2.958l-5.729-0.21l-4.531,4.154l-0.587,2.35l-2.958,2.37l-3.358-0.587l2.16-3.545l-1.972-1.573l-2.771,0.586
		l-4.132,1.174l-4.743,5.119l-5.728-0.587l-4.344,1.198l-4.531-2.56l1.972-2.771l-6.903-8.874l-4.155,0.397l-1.174-2.158
		l4.343-2.959l-3.569-3.17l-6.902,2.771h-3.944l-0.798-2.56l-3.944,0.188l-2.747-3.355l-5.541,0.211l-3.147-1.784l-3.169,2.959
		l-0.188,2.37h-5.33l-4.155-2.771l0.797-2.56l-0.211-1.76l-5.33,1.571l2.583,3.146l-1.972,2.957l1.385,2.561l-1.197,2.371
		l3.545,1.973l0.986,7.678l-4.32,5.33l-0.399,2.957l-1.973-0.187l-2.771,2.957l0.986,1.362l-5.729,7.301h-2.771l-2.747,2.77
		l-4.343,1.762l-2.958-0.586l-3.146,1.361l-0.024,0.023v-2.184l1.385-1.762l2.559-0.587l0.799-1.974l-0.799-3.356l2.372-4.343
		l-0.986-3.146l-4.343-1.197l-2.559,3.357l-3.757-0.587l-2.16,2.371l-0.399-5.729l-2.183-1.761l3.357-2.183l-0.587-3.734
		l-1.574-2.184l-2.958-0.986v-2.934h-1.573l-2.771,1.947l-0.986-1.361v-3.357l-3.169-2.158l-1.174-2.959l-4.532,2.159l-2.183-2.771
		l-2.372,1.973l-3.944-2.35l0.188-3.756l-1.761-2.159l-4.343,0.188l-1.785,4.155l-2.372,4.318L967,566.002l-4.343-0.376
		l-1.362,4.532l0.986,1.971l2.958,3.545l5.518,1.762l-1.174,4.742l2.958,3.545v3.358l-3.357,1.174l-2.771,0.399l-2.559,5.916
		l-2.958,3.545l-2.77,4.72l3.545,3.356l-1.386,2.184l2.77,3.146l-0.398,5.518l1.784,1.783l2.771,3.334l0.587,2.561l0.188,3.756
		l-1.973,5.329l3.569,0.588l3.357-0.799l7.889,3.945h3.146l3.757,2.183l4.343,0.188l2.559,3.944l-1.573,2.959v1.761l0.188,3.944
		l2.372,0.399l2.371,3.756l4.344-0.399l1.972,1.573h2.183l4.344,3.756l0.188,1.762l3.17,0.188l2.559,2.089l4.742,0.093l3.545-2.769
		l4.132-1.175l0.211-3.944l1.174-4.132l5.33,0.986l1.597-0.61l-0.61-2.349l2.371-1.974l2.184-5.916l1.573,0.188l1.785-0.586
		l4.531,2.957l0.587,2.56l5.142,4.133l-2.372,6.128l0.587,2.159l3.945,2.771l6.715,0.376l5.916-2.937l5.542,0.188l2.958,2.959
		l4.531,1.174l0.587,2.37l-2.747,3.546l2.559,0.587l2.958-1.362l1.973,2.349l4.343,0.399l2.958,1.973l7.513-1.785l6.104,1.386
		l1.198-4.32l3.733-3.356v-5.729l2.583-2.559l-0.611-5.118l7.912-9.273l7.302-0.588l7.701-2.56l4.532,0.774l2.559,1.785l3.944-0.985
		l4.344-5.705h2.371l3.357,2.958l7.513-3.169l10.049,2.956l2.183,2.16h3.757l0.375-2.56l5.94-0.587l11.646-6.689l11.435-2.959
		l3.169-3.545l9.86-2.185l3.171,2.56l-3.569,6.902l-6.315,1.572v7.302l2.958,4.345l0.399,2.957l5.917,3.734l4.156-0.399l1.385,1.386
		l3.358,6.127l-1.598,7.678l3.969,1.572c0,0,3.154-0.385,3.943-0.188c0.79,0.196,2.56,8.077,2.56,8.077l4.343,2.559l13.805,6.315
		l4.743,0.587l9.485,0.587l6.104-0.188l1.974,0.985l8.5,4.531l10.072-0.212l10.847,0.611l9.087,0.586l8.475,4.344l7.912-0.399
		l8.663-3.356l3.568,2.371l5.519-1.783l2.958,2.37l3.169-0.798l3.146,2.959l3.358-1.973l10.259,3.756l8.688,0.8l4.741-2.771
		l6.717-0.188l7.301,4.905l5.916-0.375l6.525,0.774l4.321,6.315l6.715-0.985l6.315-0.986l2.771,1.386l3.942-1.386l7.303-1.572
		l2.371,2.56l2.371,1.572l2.771,1.197l1.762-1.784l5.729,5.329l1.785-2.958v-5.143l7.489-2.159l1.784-2.959l2.56-0.398l2.184-5.307
		l8.076-1.783l4.344-15.566l5.729-0.587l2.372-3.356l3.944,4.132l1.196-1.972l2.159-4.345l6.903-1.572l7.701-1.362l4.155,1.574
		l8.286-0.799l9.862-1.385h3.756l1.974,1.972l2.559,2.371l4.555-0.587l3.146-2.561v-2.958v-2.559l5.518-2.371l3.169,1.174
		l0.587-1.385l1.198-3.546h2.746l2.371,1.385h1.972l3.358-0.774l4.155-2.958l5.917-1.598l10.847,4.345l1.973-0.773l4.155,5.306
		h1.784v-5.118l-1.784-1.572l-0.398-2.371l-2.371-0.4l-1.762-2.746l-0.609-5.142v-5.706l-1.573-2.56l3.169-0.798l3.146-2.159
		l3.756-2.959l3.758-0.985l3.732-5.729l1.973-2.56l0.798-3.146l3.545-0.4l0.799-1.762l0.799-2.582l1.972-1.972l0.774-2.348
		l0.399-2.372l1.385,1.174h1.572l3.358-1.361l2.559,0.774l2.372-1.384l2.957,1.783l1.785-1.387l1.572,0.399l3.757-0.188l0.985-0.986
		l-0.985-1.385l-2.771-0.799h-3.355l0.609-2.16l4.931-2.183l1.386-2.747h-2.958l-2.185-3.756l1.783-1.973l1.573-1.762l1.175-0.799
		l0.986-2.158l-1.362-1.785l-2.583,0.211l-3.545,2.559l-0.986-3.544l1.176-1.573l-1.176-2.184h-1.571l-1.387-2.957l1.387-2.162
		l0.187-5.916l-0.187-3.73l1.571-2.771l-0.188-4.93l-2.771-0.588l0.587-5.518l-1.174-3.758l0.985-1.971h1.761l2.771,2.77l2.372-2.77
		l4.529-0.188l6.527-6.104l2.371-2.957l-0.986-2.56l-0.798-2.958l2.771-1.199l2.158-1.76l-0.187-3.357l-4.345-2.771l-0.398-5.517
		l-3.943-3.334l-3.357,1.361l-7.701-2.957l-2.77,0.984l-6.903-2.746l1.973-2.958h2.561l1.995-3.358l4.719-2.56l-1.385-3.544
		l0.984-2.161h4.345l3.17-1.596l3.146,2.37l3.357-0.188l0.609,1.385h1.762l1.571,0.963l1.199,3.17l2.56,1.386l7.301,1.972
		l2.372-6.902l2.371,3.733l14.017-4.132l5.729-0.188l-2.37-3.944l0.188-5.917l-2.159-2.372l-0.212-1.784l0.986-2.16l-1.174-2.16
		l-4.932-3.544v-1.198l4.531-0.986l3.358-3.944l-0.4-6.104l0.987-3.357l-0.776-2.16l4.532-6.503l-1.573-1.973l-5.729-0.211
		l-0.986-4.531l-0.188-4.531l-0.609-2.958l-2.561-3.146h-1.782l-2.373-0.798l-2.56-2.748l-2.159-0.399l-1.198-4.132l-0.773-2.958
		l-1.197-3.169v-4.531l-2.958-0.775l-0.799-1.198l-2.16-2.746l-0.797-3.546l-5.119-2.771l-1.197-3.545l1.386-1.784l-0.188-10.049
		l2.371-5.118l2.371-4.344l2.747-4.719l-1.973-5.518v-2.958l-0.985-3.357l-3.357-10.636l-2.959-3.569l-4.132,2.372h-5.729
		l-2.771-3.146l-4.344-0.587l-0.587,1.761l-1.973,0.986l-0.799-2.559v-3.358l-2.958-2.747l-4.133,1.972l-7.301-3.945l-2.982,1.973
		l-3.943-0.986l-3.146,8.875l-4.343,3.146l-1.786-1.573h-1.783l-1.572,2.371l-1.386-1.385h-0.985l-6.505,0.586l-7.113-1.385
		l-1.972,1.573h-4.344l-13.618-7.677l-1.971-3.146l-11.059-5.729h-5.33l-0.375,1.385l-1.01,1.972l-7.092-0.586l-0.985-1.385
		l-2.372-1.573l-3.356-1.784l-4.931-0.587l-5.729-1.174l-3.757-5.142h-4.719l-7.702-3.733l-3.567,1.386l-3.146-2.184l-1.384,6.104
		l-4.532-0.188l-2.959,2.371l-2.979-0.399l1.995-3.545l-2.582-3.944h-6.904l-1.572-1.573L1484.529,324.927L1484.529,324.927z"/>
	<path id="rect2373" fill="#FFFFFF" d="M1329.245,438.187l-0.259,0.281l-4.318,3.146l-2.372,0.799l-7.7,0.188l-3.358,1.596
		l-1.972,1.761l-2.183,0.211l-1.177,1.173l-1.571,0.986h-2.959l-2.583,0.398l-0.773,1.972l-1.973,3.334l-0.986,1.785l-2.583,0.587
		l-3.145,0.586h-3.569l-2.371,1.386v2.559l-0.376,2.559l-3.169,1.596l-1.385,1.972l0.211,2.348l-2.771-0.375l-1.972,0.985
		l1.385,5.119l1.974,4.344l4.93,2.934l2.559,2.372l0.8,2.771v2.747l1.385,1.784l1.385,1.573l3.147,1.174l4.554,6.715l4.931,7.888
		l-3.568,7.49l-2.958,3.356l0.212,4.319l-1.974,4.155l1.362,1.974h6.715l2.959-2.582l4.343,4.343l1.598,3.944l2.348,4.344
		l-2.559,2.746l-0.188,5.143h-1.973l-0.797,1.973l1.783,1.973l-1.783,2.559l-0.188,2.16c0,0,1.173,2.37,2.159,2.37
		c0.988,0-0.397,3.335-0.397,3.335l-2.561,0.986l-1.385,3.17l-2.16-2.771l-2.771,1.785l-7.49-4.531l-0.21-1.783l-4.743-4.133h-3.146
		l-2.559-5.33l1.362-4.343l2.583-0.377l-1.385-2.771l-4.932-2.371l0.188-3.146l-3.357-1.783l-1.972,0.609l-4.132-0.212l-3.171,1.573
		l-3.356-0.188l-3.357,5.705l-2.559-0.774l-2.958,2.16l-6.128-5.119l-1.973-4.344l-6.715,1.785l-3.943-1.195l-6.903,2.369
		l-1.573-3.732l2.16-2.959l-0.986-1.385l-3.545,2.771l-4.154,2.348l2.582,6.316l0.375,6.903l-4.344,0.984l-11.246-1.386
		l-1.385,0.985l-2.56-0.985l-14.792,3.944l-0.798,3.146l-6.504-1.174l-10.471,0.986l-3.545-1.385l-4.555,3.942v5.329l-2.747,3.146
		l-6.526,0.799l-5.917-1.387l-5.142,6.316l2.372,0.586l-0.587,2.958l-5.729-0.21l-4.531,4.154l-0.587,2.35l-2.958,2.37l-3.357-0.587
		l2.159-3.545l-1.972-1.573l-2.77,0.586l-4.133,1.174l-4.742,5.119l-5.729-0.587l-4.344,1.198l-4.531-2.56l1.972-2.771l-6.903-8.874
		l-4.155,0.397l-1.174-2.158l4.343-2.959l-3.569-3.17l-6.902,2.771h-3.944l-0.798-2.56l-3.944,0.188l-2.747-3.355l-5.541,0.211
		l-3.147-1.784l-3.169,2.959l-0.188,2.37h-5.33l-4.155-2.771l0.797-2.56l-0.211-1.76l-5.33,1.571l2.583,3.146l-1.972,2.957
		l1.385,2.561l-1.197,2.371l3.545,1.973l0.986,7.678l-4.32,5.33l-0.399,2.957l-1.973-0.187l-2.771,2.957l0.986,1.362l-5.729,7.301
		h-2.771l-2.747,2.77l-4.343,1.762l-2.958-0.586l-3.146,1.361l-0.024,0.023v-2.184l1.385-1.762l2.559-0.587l0.799-1.974
		l-0.799-3.356l2.372-4.343l-0.986-3.146l-4.343-1.197l-2.559,3.357l-3.757-0.587l-2.16,2.371l-0.399-5.729l-2.183-1.761
		l3.357-2.183l-0.587-3.734l-1.574-2.184l-2.958-0.986v-2.934h-1.573l-2.771,1.947l-0.986-1.361v-3.357l-3.169-2.158l-1.174-2.959
		l-4.532,2.159l-2.183-2.771l-2.372,1.973l-3.944-2.35l0.188-3.756l-1.761-2.159l-4.343,0.188l-1.785,4.155l-2.372,4.318
		L967,566.002l-4.343-0.376l-1.362,4.532l0.986,1.971l2.958,3.545l5.518,1.762l-1.174,4.742l2.958,3.545v3.358l-3.357,1.174
		l-2.771,0.399l-2.559,5.916l-2.958,3.545l-2.77,4.72l0.328,0.305h694.296l2.911-1.291l1.387-2.747h-2.958l-2.185-3.756l1.783-1.973
		l1.573-1.762l1.175-0.799l0.986-2.158l-1.362-1.785l-2.583,0.212l-3.545,2.558l-0.986-3.544l1.175-1.573l-1.175-2.184h-1.572
		l-1.386-2.957l1.386-2.162l0.188-5.916l-0.188-3.73l1.572-2.771l-0.188-4.93l-2.771-0.588l0.587-5.518l-1.174-3.758l0.985-1.971
		h1.761l2.771,2.77l2.372-2.77l4.53-0.188l6.527-6.104l2.371-2.957l-0.986-2.56l-0.798-2.958l2.771-1.199l2.159-1.76l-0.187-3.357
		l-4.346-2.771l-0.397-5.517l-3.944-3.334l-3.356,1.361l-7.701-2.957l-2.771,0.984l-6.902-2.746l1.973-2.958h2.561l1.994-3.358
		l4.72-2.56l-1.386-3.544l0.985-2.161h4.344l3.17-1.596l3.146,2.371l3.357-0.188l0.609,1.385h1.761l1.572,0.963l1.199,3.17
		l2.559,1.386l7.302,1.972l2.371-6.902l2.371,3.733l14.018-4.132l5.729-0.188l-2.371-3.944l0.188-5.917l-2.159-2.372l-0.212-1.784
		l0.985-2.16l-1.174-2.16l-4.931-3.544v-1.198l4.531-0.986l3.357-3.944l-0.399-6.104l0.986-3.357l-0.775-2.16l4.532-6.503
		l-1.573-1.973l-5.729-0.211l-0.985-4.531l-0.188-4.531l-0.609-2.958l-2.303-2.84h-366.54V438.187z"/>
	<path id="path1316" fill="none" d="M1022.3,604.44l3.13-1.367l2.96,0.592l4.342-1.774l2.764-2.761h2.763l5.724-7.294l-0.987-1.379
		l2.763-2.957l1.974,0.196l0.395-2.957l4.342-5.322l-0.987-7.688l-3.553-1.973l1.184-2.364l-1.382-2.563l1.974-2.956l-2.565-3.153
		l5.329-1.577l0.198,1.773l-0.79,2.562l4.145,2.761h5.33l0.197-2.367l3.159-2.956l3.158,1.774l5.526-0.197l2.764,3.352l3.947-0.197
		l0.79,2.563h3.948l6.907-2.761l3.553,3.152l-4.342,2.957l1.184,2.169l4.145-0.396l6.909,8.871l-1.974,2.761l4.54,2.563l4.342-1.185
		l5.725,0.591l4.736-5.124l4.146-1.183l2.763-0.592l1.975,1.576l-2.171,3.549l3.355,0.591l2.96-2.364l0.592-2.365l4.54-4.141
		l5.725,0.197l0.592-2.957l-2.368-0.59l5.132-6.311l5.921,1.379l6.513-0.788l2.765-3.153v-5.322l4.54-3.941l3.553,1.381
		l10.461-0.986l6.513,1.182l0.79-3.152l14.803-3.942l2.566,0.985l1.382-0.985l11.25,1.381l4.343-0.986l-0.396-6.899l-2.565-6.307
		l4.146-2.367l3.552-2.758l0.987,1.379l-2.171,2.957l1.58,3.744l6.907-2.365l3.948,1.184l6.711-1.773l1.975,4.338l6.119,5.125
		l2.961-2.168l2.564,0.787l3.355-5.717l3.354,0.197l3.159-1.576l4.146,0.195l1.974-0.592l3.355,1.774l-0.197,3.154l4.935,2.366
		l1.381,2.76l-2.565,0.393l-1.381,4.338l2.565,5.323h3.158l4.737,4.14l0.197,1.773l7.5,4.534l2.765-1.775l2.171,2.761l1.381-3.154
		l2.566-0.985c0,0,1.381-3.351,0.394-3.351c-0.984,0-2.17-2.366-2.17-2.366l0.197-2.167l1.775-2.562l-1.775-1.972l0.79-1.971h1.973
		l0.197-5.126l2.567-2.76l-2.369-4.338l-1.579-3.94l-4.343-4.339l-2.96,2.562h-6.712l-1.381-1.972l1.974-4.14l-0.198-4.336
		l2.961-3.352l3.553-7.491l-4.934-7.885l-4.54-6.702l-3.158-1.182l-1.381-1.577l-1.381-1.774v-2.76l-0.79-2.759l-2.566-2.366
		l-4.935-2.956l-1.975-4.337l-1.382-5.125l1.975-0.986l2.764,0.395l-0.197-2.366l1.381-1.971l3.158-1.577l0.396-2.562v-2.563
		l2.368-1.38h3.553l3.158-0.591l2.565-0.591l0.987-1.774l1.974-3.351l0.789-1.972l2.567-0.395h2.96l1.578-0.986l1.185-1.182
		l2.171-0.197l1.976-1.774l3.354-1.578l7.697-0.197l2.369-0.788l4.342-3.154l2.96-3.351l2.765-2.957l1.974-2.366l0.593-2.366
		l0.788-1.971l0.594-1.972v-2.957l-0.199-2.759v-2.366l0.595-2.365l1.974-2.958l-1.382-3.548l-0.986-2.759v-2.169l1.975-1.577
		l2.764-1.183l2.96-0.788l2.565,1.774l1.578,1.577l2.367-0.789l1.384-0.197l1.777,1.38l3.158,0.197l0.789,1.577l1.184,1.38
		l2.959,1.774l1.777,0.789l1.382-1.774l0.396-4.928l2.564-0.395l3.159-2.957v-3.154l2.366-2.76l-2.169-9.659l1.578-2.365
		l-4.146-3.352l1.776-2.168l0.791-1.971l0.789-3.154l2.566,0.395l2.763,0.197l7.696,6.308l3.949,0.394l2.763,4.14l2.763,1.775v2.365
		l-2.961,1.38v1.774l1.974,1.774l0.198,1.577l3.553,1.972l12.04,0.197l3.157,1.774l2.961,0.197l2.564,0.394l2.566,0.789l2.962,1.972
		l2.961-3.154l2.17-2.562l2.369,0.197l1.775-3.942v-4.336l3.947-0.985l2.369,2.759l2.566,1.183l2.564,1.183l1.973-1.971l1.976-1.577
		l1.775,0.986l0.592,2.366h3.158l0.987,3.154l2.96,0.197l1.382-4.731l-0.395-6.9l1.383-5.322l6.118-6.504l0.985-7.294h5.725
		l5.132,0.789l2.171,1.183h1.186l1.185-2.562l-1.383-2.562l-0.789-2.562l1.184-3.746l0.199-2.365l-0.396-2.563l0.79-3.154
		l0.592-2.956l-2.171-9.068l1.185-3.155l0.396-3.35l7.104,0.394l1.579,1.577h6.908l2.566,3.942l-1.975,3.548l2.96,0.395l2.961-2.366
		l4.54,0.197l1.381-6.111l3.158,2.168l3.553-1.38l7.698,3.745h4.738l3.749,5.125l5.725,1.182l4.936,0.592l3.354,1.774l2.369,1.577
		l0.988,1.379l7.104,0.591l0.987-1.971l0.396-1.38h5.329l11.054,5.717l1.973,3.154l13.619,7.688h4.343l1.976-1.577l7.104,1.379
		l6.515-0.591h0.986l1.384,1.38l1.577-2.365h1.776l1.776,1.577l4.342-3.153l3.16-8.871l3.947,0.986l2.959-1.972l7.303,3.942
		l4.146-1.97l2.962,2.759v3.351l0.789,2.563l1.974-0.986l0.592-1.774l4.342,0.592l2.765,3.154h5.725l4.145-2.366l2.963,3.548
		l3.354,10.645l0.987,3.352v2.957l1.974,5.52l-2.764,4.731l-2.367,4.336l-2.371,5.125l0.199,10.054l-1.383,1.774l1.184,3.549
		l5.134,2.76l0.789,3.548l2.171,2.76l0.789,1.183l2.962,0.789v4.534l1.184,3.154l0.79,2.957l1.185,4.14l2.172,0.394l2.564,2.76
		l2.368,0.789h1.776l2.566,3.154l0.592,2.958l0.198,4.533l0.986,4.534l5.723,0.197l1.58,1.971l-4.54,6.505l0.789,2.168l-0.986,3.351
		l0.396,6.111l-3.355,3.942l-4.538,0.986v1.183l4.935,3.547l1.184,2.168l-0.986,2.168l0.196,1.774l2.172,2.365l-0.197,5.914
		l2.368,3.942l-5.723,0.196l-14.014,4.14l-2.37-3.744l-2.368,6.898l-7.304-1.971l-2.564-1.38l-1.185-3.154l-1.578-0.985h-1.777
		l-0.592-1.381l-3.355,0.197l-3.157-2.365l-3.158,1.577h-4.342l-0.987,2.168l1.382,3.548l-4.738,2.563l-1.974,3.351h-2.564
		l-1.974,2.957l6.907,2.76l2.764-0.986l7.697,2.958l3.354-1.38l3.947,3.351l0.396,5.521l4.342,2.761l0.197,3.351l-2.173,1.774
		l-2.763,1.184l0.79,2.955l0.987,2.563l-2.368,2.957l-6.514,6.109l-4.541,0.197l-2.367,2.76l-2.764-2.76h-1.777l-0.985,1.971
		l1.185,3.747l-0.594,5.519l2.765,0.592l0.197,4.928l-1.578,2.76l0.194,3.747l-0.194,5.912l-1.384,2.17l1.384,2.956h1.578
		l1.185,2.168l-1.185,1.577l0.986,3.549l3.555-2.562l2.563-0.196l1.383,1.773l-0.987,2.168l-1.185,0.789l-1.579,1.773l-1.774,1.971
		l2.169,3.746h2.963l-1.383,2.76l-4.935,2.168l-0.593,2.17h3.355l2.764,0.789l0.984,1.378l-0.984,0.987l-3.751,0.195l-1.578-0.395
		l-1.777,1.38l-2.96-1.773l-2.369,1.38l-2.564-0.787l-3.355,1.379h-1.58l-1.38-1.184l-0.396,2.366l-0.789,2.365l-1.974,1.972
		l-0.789,2.562l-0.79,1.772l-3.556,0.396l-0.789,3.154l-1.974,2.562l-3.749,5.716l-3.751,0.983l-3.75,2.957l-3.158,2.17
		l-3.156,0.787l1.578,2.564v5.717l0.593,5.124l1.774,2.762l2.369,0.394l0.396,2.365l1.775,1.576v5.126h-1.775l-4.146-5.322
		l-1.974,0.788l-10.856-4.337l-5.922,1.578l-4.144,2.956l-3.356,0.787h-1.975l-2.367-1.378h-2.763l-1.186,3.548l-0.592,1.38
		l-3.159-1.185l-5.524,2.366v2.563v2.957l-3.158,2.562l-4.54,0.592l-2.566-2.365l-1.973-1.972h-3.751l-9.869,1.379l-8.289,0.788
		l-4.146-1.575l-7.698,1.381l-6.908,1.576l-2.17,4.335l-1.186,1.974l-3.948-4.142l-2.368,3.353l-5.723,0.592l-4.344,15.573
		l-8.094,1.773l-2.17,5.322l-2.566,0.395l-1.774,2.956l-7.501,2.169v5.126l-1.775,2.957l-5.725-5.322l-1.776,1.772l-2.764-1.184
		l-2.368-1.575l-2.368-2.564l-7.304,1.578l-3.946,1.379l-2.766-1.379l-6.313,0.986l-6.712,0.985l-4.343-6.31l-6.515-0.789
		l-5.92,0.396l-7.304-4.93l-6.711,0.197l-4.736,2.759l-8.686-0.788l-10.265-3.743l-3.354,1.971l-3.159-2.958l-3.157,0.788
		l-2.962-2.364l-5.525,1.773l-3.553-2.365l-8.685,3.352l-7.896,0.396l-8.487-4.337l-9.078-0.592l-10.855-0.592l-10.067,0.196
		l-8.485-4.533l-1.976-0.984l-6.118,0.195l-9.474-0.592l-4.737-0.591l-13.815-6.309l-4.343-2.562c0,0-1.775-7.884-2.565-8.083
		c-0.79-0.196-3.947,0.199-3.947,0.199l-3.947-1.579l1.579-7.688l-3.354-6.11l-1.382-1.38l-4.146,0.396l-5.92-3.746l-0.396-2.957
		l-2.961-4.337v-7.294l6.316-1.576l3.553-6.897l-3.158-2.563l-9.868,2.168l-3.158,3.549l-11.448,2.957l-11.646,6.703l-5.921,0.59
		l-0.396,2.563h-3.75l-2.171-2.17l-10.066-2.956l-7.501,3.154l-3.354-2.956h-2.369l-4.342,5.715l-3.947,0.985l-2.566-1.772
		l-4.54-0.788l-7.698,2.562l-7.303,0.591l-7.895,9.266l0.592,5.125l-2.566,2.563v5.716l-3.75,3.352l-1.185,4.336l-6.119-1.379
		l-7.5,1.773l-2.961-1.974l-4.342-0.393l-1.974-2.365l-2.959,1.38l-2.566-0.593l2.763-3.548l-0.592-2.365l-4.54-1.183l-2.961-2.956
		l-5.526-0.198l-5.921,2.957l-6.71-0.394l-3.947-2.761l-0.593-2.17l2.369-6.109l-5.132-4.139l-0.592-2.563l-4.54-2.957l-1.776,0.592
		l-1.58-0.196l-2.171,5.914l-2.368,1.973l0.592,2.364l-1.579,0.593l-5.329-0.987l-1.184,4.14l-0.198,3.943l-4.145,1.182
		l-3.553,2.762l-4.729-0.079l-2.574-2.09l-3.158-0.197l-0.198-1.774l-4.342-3.744h-2.171l-1.974-1.577l-4.342,0.395l-2.369-3.745
		l-2.369-0.395l-0.197-3.943v-1.773l1.579-2.957l-2.565-3.941l-4.342-0.197l-3.75-2.168h-3.159l-7.895-3.943l-3.355,0.789
		l-3.554-0.59l1.974-5.322l-0.197-3.746l-0.592-2.562l-2.764-3.352l-1.776-1.774l0.395-5.521l-2.763-3.154l1.381-2.167l-3.553-3.351
		l2.764-4.731l2.96-3.548l2.566-5.914l2.763-0.395l3.355-1.185v-3.351l-2.96-3.549l1.185-4.73l-5.527-1.773l-2.96-3.549
		l-0.987-1.973l1.382-4.532l4.342,0.394l10.659-0.591l2.369-4.337l1.776-4.141l4.342-0.197l1.777,2.169l-0.197,3.745l3.948,2.366
		l2.368-1.972l2.171,2.76l4.54-2.168l1.184,2.955l3.158,2.17v3.352l0.986,1.38l2.764-1.972h1.579v2.958l2.961,0.983l1.579,2.17
		l0.592,3.746l-3.355,2.168l2.171,1.771l0.395,5.718l2.171-2.364l3.75,0.59l2.566-3.351l4.343,1.183l0.987,3.154l-2.369,4.336
		l0.79,3.353l-0.79,1.971l-2.565,0.591l-1.381,1.776v2.168L1022.3,604.44L1022.3,604.44z"/>
</g>
</svg>
