<?xml version="1.0" encoding="UTF-8" standalone="no"?>
<svg xmlns="http://www.w3.org/2000/svg"
   xmlns:dc="http://purl.org/dc/elements/1.1/"
   xmlns:cc="http://web.resource.org/cc/"
   xmlns:rdf="http://www.w3.org/1999/02/22-rdf-syntax-ns#"
   xmlns:xlink="http://www.w3.org/1999/xlink"
   width="794" height="710" viewBox="0 0 794 710">
  <metadata>
    <rdf:RDF>
      <cc:Work rdf:about="">
        <dc:format>image/svg+xml</dc:format>
        <dc:type rdf:resource="http://purl.org/dc/dcmitype/StillImage" />
      </cc:Work>
    </rdf:RDF>
  </metadata>
  <defs>
    <polygon id="5star" style="fill:#ffffff"
       points="0,-9 2.351141,-3.236068 8.5595086,-2.7811529 3.8042261,1.236068 5.2900673,7.2811529 0,4 -5.2900673,7.2811529 -3.8042261,1.236068 -8.5595086,-2.7811529 -2.351141,-3.236068 0,-9"/>
    <polygon id="7star" style="fill:#ffffff"
       points="0,-9 1.735535,-3.6038755 7.0364833,-5.6114082 3.8997116,-0.89008374 8.7743512,2.0026884 3.1273259,2.4939592 3.9049537,8.1087198 0,4 -3.9049537,8.1087198 -3.1273259,2.4939592 -8.7743512,2.0026884 -3.8997116,-0.89008374 -7.0364833,-5.6114082 -1.735535,-3.6038755 0,-9"/>
    <clipPath id="Field"><rect height="30" width="60"/></clipPath>
    <clipPath id="t"><path d="M30,15 h30 v15 z v15 h-30 z h-30 v-15 z v-15 h30 z"/></clipPath>
    <g id="UnionJack">
    <rect height="30" width="60" fill="#002b7f"/>
    <path d="M0,0 L60,30 M60,0 L0,30" stroke="#ffffff" stroke-width="6"/>
    <path d="M0,0 L60,30 M60,0 L0,30" clip-path="url(#t)" stroke="#cf142b" stroke-width="4"/>
    <path d="M30,0 v30 M0,15 h60" stroke="#ffffff" stroke-width="10"/>
    <path d="M30,0 v30 M0,15 h60" stroke="#cf142b" stroke-width="6"/>
    </g>
    <path id="Map-outline" d="M196.11,3.727
C196.868,4.488,199.301,5.356,201.513,5.661
C204.111,6.017,205.539,6.649,205.539,7.447
C205.539,8.534,207.292,11.761,209.291,14.354
C215.062,21.827,217.638,31.445,215.939,39.157
C215.488,41.194,215.744,42.346,216.924,43.612
C220.511,47.464,222.014,54.268,221.726,65.343
C221.413,77.378,220.703,78.875,215.933,77.604
C213.557,76.97,213.063,76.428,213.187,74.594
C213.295,72.996,212.726,72.076,211.201,71.383
C210.028,70.846,209.067,69.837,209.067,69.136
C209.067,68.437,207.915,67.612,206.512,67.304
C205.107,66.994,203.259,65.971,202.404,65.027
C201.551,64.085,200.367,63.314,199.776,63.314
C199.182,63.314,198.236,62.758,197.674,62.084
C196.034,60.106,191.238,59.658,186.611,61.053
C184.263,61.757,181.172,62.1,179.737,61.814
C178.261,61.52,176.877,61.703,176.545,62.24
C176.224,62.758,174.379,63.314,172.444,63.47
C167.737,63.851,166.946,64.806,166.671,70.436
C166.442,75.074,166.747,76.62,168.684,80.677
C169.892,83.21,169.067,85.142,166.22,86.437
C164.327,87.3,163.776,87.26,163.185,86.21
C162.789,85.504,161.637,83.974,160.625,82.806
C159.373,81.365,158.782,79.474,158.782,76.903
C158.782,74.823,158.386,72.875,157.9,72.575
C156.26,71.561,156.899,67.59,158.782,67.099
C159.754,66.843,160.547,66.287,160.547,65.858
C160.547,65.429,161.64,65.076,162.972,65.073
L165.398,65.07L162.417,62.275L159.435,59.48
L159.894,52.121
C160.148,48.074,160.835,44.181,161.424,43.471
C162.012,42.762,162.6,39.891,162.732,37.088
C163.088,29.521,164.046,26.127,165.738,26.451
C166.523,26.599,167.292,27.616,167.445,28.709
C167.602,29.804,168.098,30.47,168.549,30.193
C169.644,29.515,169.598,25.625,168.487,24.94
C166.973,24.004,167.518,21.077,169.393,20.073
C170.378,19.547,170.95,18.738,170.664,18.276
C170.378,17.812,170.41,15.649,170.739,13.469
C171.298,9.727,171.492,9.503,174.101,9.53
C175.622,9.543,177.613,10.121,178.522,10.812
C179.996,11.926,180.352,11.853,181.73,10.15
C182.583,9.096,183.09,7.736,182.855,7.126
C182.105,5.17,184.736,3.592,189.8,2.961
C193.692,2.472,195.017,2.634,196.11,3.727Z
M235.531,19.647
C235.531,20.373,235.93,20.969,236.413,20.969
C236.898,20.969,237.295,21.762,237.295,22.733
C237.295,23.712,236.707,24.498,235.973,24.498
C235.236,24.498,234.648,23.712,234.648,22.733
C234.648,21.762,234.252,20.969,233.766,20.969
C233.283,20.969,232.884,20.373,232.884,19.647
C232.884,18.918,233.48,18.322,234.208,18.322
C234.937,18.322,235.531,18.918,235.531,19.647Z
M235.312,27.581
C237.651,30.239,235.771,31.922,233.264,29.413
C232.571,28.72,232.002,27.727,232.002,27.206
C232.002,25.868,234.003,26.095,235.312,27.581Z
M231.419,81.184
C232.509,81.98,233.046,83.958,233.326,88.182
L233.715,94.069L230.593,95.1
C226.002,96.616,224.72,94.668,225.395,87.203
C225.678,84.09,226.112,81.211,226.36,80.809
C227.032,79.722,229.687,79.919,231.419,81.184Z
M223.886,81.133
C225.298,82.544,225.238,85.369,223.798,85.369
C222.163,85.369,220.536,83.521,220.536,81.662
C220.536,79.849,222.319,79.566,223.886,81.133Z
M224.051,86.912
C224.011,89.1,222.799,91.544,221.755,91.544
C220.401,91.544,220.317,91.126,221.092,88.234
C221.572,86.44,224.081,85.32,224.051,86.912Z
M175.393,92.113
C175.223,93.001,174.357,93.867,173.469,94.04
C172.304,94.263,171.94,93.902,172.167,92.737
C172.336,91.849,173.202,90.983,174.09,90.81
C175.255,90.586,175.617,90.948,175.393,92.113Z
M191.324,100.285
C191.998,100.711,192.594,102.292,192.648,103.798
C192.746,106.514,193.617,107.458,194.256,105.54
C194.728,104.119,198.481,105.476,198.481,107.067
C198.481,107.78,199.174,108.619,200.024,108.932
C200.874,109.247,202.361,110.372,203.332,111.43
C204.303,112.49,206.318,113.763,207.81,114.26
C209.305,114.756,211.644,116.202,213.011,117.468
C214.379,118.735,216.373,119.771,217.439,119.771
C219.524,119.771,222.3,117.273,222.3,115.396
C222.3,114.761,223.336,113.353,224.601,112.266
C226.601,110.548,227.769,110.313,233.45,110.491
C238.754,110.656,240.381,111.055,242.01,112.587
C243.119,113.628,244.398,114.484,244.851,114.489
C245.305,114.494,247.023,115.884,248.669,117.575
C251.906,120.91,253.174,121.404,253.174,119.332
C253.174,118.603,253.771,118.007,254.499,118.007
C255.227,118.007,255.821,118.573,255.821,119.261
C255.821,119.949,257.013,120.775,258.467,121.096
C259.924,121.414,261.114,122.043,261.114,122.488
C261.114,122.936,261.91,123.3,262.878,123.3
C263.849,123.3,264.643,122.904,264.643,122.418
C264.643,121.935,266.428,121.536,268.614,121.536
C272.205,121.536,272.582,121.735,272.582,123.635
C272.582,126.351,274.517,128.07,275.957,126.632
C276.75,125.836,276.993,126.006,276.993,127.358
C276.993,128.855,277.463,129.068,280.082,128.76
C281.971,128.542,283.169,128.782,283.169,129.381
C283.169,129.918,283.603,130.358,284.129,130.358
C285.389,130.358,288.394,133.986,288.432,135.551
C288.448,136.223,289.355,137.701,290.448,138.837
C294.017,142.549,295.519,144.459,295.519,145.282
C295.519,145.727,295.983,146.245,296.552,146.434
C298.231,146.995,298.277,156.103,296.606,157.957
C295.303,159.405,295.347,160.012,297.154,165.626
C298.511,169.84,299.652,171.894,300.848,172.274
C301.959,172.627,302.577,173.612,302.577,175.031
C302.577,177.289,304.371,179.76,306.011,179.76
C306.516,179.76,307.352,180.553,307.87,181.525
C308.636,182.96,309.718,183.289,313.635,183.289
C316.287,183.289,318.456,182.893,318.456,182.407
C318.456,181.921,319.052,181.525,319.778,181.525
C320.668,181.525,321.103,180.637,321.103,178.824
C321.103,176.779,321.478,176.159,322.646,176.278
C326.329,176.652,329.016,176.132,330.365,174.783
C331.635,173.512,332.412,173.466,336.621,174.408
C339.262,174.999,342.596,175.225,344.032,174.91
C345.769,174.529,347.307,174.802,348.623,175.724
C349.716,176.49,351.313,177.114,352.177,177.114
C353.037,177.114,353.744,177.71,353.744,178.438
C353.744,179.164,353.148,179.76,352.419,179.76
C351.691,179.76,351.097,180.143,351.097,180.607
C351.097,182.456,347.132,185.053,344.315,185.053
C342.408,185.053,341.393,185.48,341.393,186.281
C341.393,187.608,337.438,188.968,336.06,188.115
C335.595,187.83,335.218,187.986,335.218,188.464
C335.218,188.938,333.035,189.278,330.365,189.216
C327.219,189.141,325.514,188.728,325.514,188.035
C325.514,187.447,325.983,186.81,326.555,186.618
C327.961,186.149,326.782,183.289,325.182,183.289
C324.416,183.289,324.068,183.899,324.302,184.832
C324.559,185.852,323.828,186.861,322.15,187.802
C319.255,189.424,317.9,193.835,319.419,196.673
C320.105,197.955,320.083,199.134,319.344,200.917
C318.634,202.63,318.596,203.89,319.217,205.028
C319.711,205.929,320.399,207.858,320.75,209.312
C321.265,211.46,321.459,211.627,321.772,210.195
C321.982,209.226,322.514,208.055,322.954,207.594
C323.391,207.133,323.75,206.016,323.75,205.112
C323.75,204.208,324.629,200.949,325.703,197.871
L327.656,192.276L336.297,191.655
C343.481,191.143,345.305,191.277,347.104,192.456
C348.297,193.236,350.078,193.875,351.065,193.875
C353.59,193.875,353.302,196.039,350.615,197.264
C347.679,198.599,347.083,198.559,345.424,196.897
C343.945,195.421,343.597,195.807,342.969,199.611
C342.726,201.084,341.995,201.375,338.507,201.375
C334.765,201.375,334.333,201.58,334.333,203.358
C334.336,204.451,334.732,205.344,335.218,205.344
C336.599,205.344,336.249,209.73,334.746,211.233
C334.001,211.978,333.615,213.283,333.885,214.136
C334.495,216.057,330.254,224.42,327.691,226.354
C326.01,227.623,325.897,228.167,326.677,231.238
C327.302,233.709,327.259,235.163,326.525,236.339
C325.892,237.354,325.84,237.985,326.388,237.985
C326.879,237.985,327.278,237.683,327.278,237.311
C327.278,236.941,328.171,236.248,329.264,235.767
C330.559,235.198,331.543,233.674,332.102,231.367
C332.571,229.427,333.464,227.315,334.085,226.673
C334.708,226.033,335.218,224.895,335.218,224.145
C335.218,223.201,335.779,222.928,337.039,223.258
C338.194,223.56,340.258,222.791,342.68,221.156
C344.782,219.737,346.94,218.577,347.474,218.577
C348.011,218.577,348.451,217.98,348.451,217.252
C348.451,216.526,348.82,215.93,349.274,215.93
C350.612,215.93,351.478,212.258,351.197,207.769
C350.987,204.416,351.216,203.58,352.338,203.58
C353.156,203.58,353.744,204.319,353.744,205.344
C353.744,206.525,354.332,207.108,355.524,207.108
C357.024,207.108,357.211,206.722,356.711,204.683
C356.385,203.347,355.789,202.039,355.384,201.772
C354.982,201.505,354.394,200.002,354.081,198.435
L353.512,195.583L357.375,196.15
C364.786,197.237,368.299,198.804,368.318,201.035
C368.331,202.479,369.292,203.574,371.625,204.804
C373.983,206.045,374.917,207.116,374.917,208.587
C374.917,210.019,374.406,210.637,373.225,210.637
C370.929,210.637,370.608,212.107,372.016,216.192
C373.23,219.712,375.035,222.105,376.479,222.105
C376.924,222.105,378.224,224.86,379.371,228.224
C381.551,234.629,382.916,235.8,387.019,234.769
C388.635,234.365,389.031,234.629,389.031,236.118
C389.031,237.135,389.825,238.465,390.796,239.072
C392.153,239.919,392.56,241.128,392.56,244.311
C392.56,247.676,392.889,248.555,394.325,249.011
C395.45,249.37,396.089,250.346,396.089,251.717
C396.089,253.522,396.515,253.865,398.787,253.865
C400.376,253.865,401.258,253.497,400.934,252.974
C400.109,251.636,401.331,248.571,402.693,248.571
C403.349,248.571,404.147,249.761,404.469,251.218
C404.787,252.672,405.416,253.865,405.861,253.865
C406.308,253.865,406.673,254.458,406.673,255.186
C406.673,255.915,407.193,256.511,407.824,256.511
C408.458,256.511,410.344,257.523,412.017,258.758
C414.499,260.595,415.106,260.757,415.341,259.64
C415.651,258.148,419.023,257.717,419.023,259.168
C419.023,259.713,420.388,259.84,422.552,259.495
C424.556,259.174,426.081,259.287,426.081,259.756
C426.081,260.52,431.477,264.739,436.667,268.033
C440.128,270.232,442.921,270.672,444.345,269.25
C445.276,268.319,448.135,267.947,455.037,267.861
C471.054,267.661,479.012,266.79,479.012,265.236
C479.012,264.804,479.616,264.451,480.356,264.451
C481.092,264.451,483.267,263.412,485.185,262.141
C487.103,260.871,489.278,260.067,490.017,260.35
C490.818,260.657,491.363,260.38,491.363,259.665
C491.363,258.34,493.232,257.393,495.847,257.393
C496.778,257.393,497.538,256.997,497.538,256.511
C497.538,256.025,499.125,255.629,501.067,255.629
C503.007,255.629,504.596,255.232,504.596,254.747
C504.596,254.261,505.589,253.865,506.8,253.865
C508.014,253.865,509.007,253.368,509.007,252.761
C509.007,251.927,511.807,251.698,520.526,251.827
C530.303,251.97,532.278,251.768,533.581,250.503
C538.2,246.014,542.177,243.278,544.081,243.278
C545.333,243.278,547.265,242.172,548.705,240.631
C550.065,239.175,551.57,237.985,552.051,237.985
C552.533,237.985,553.14,237.427,553.402,236.744
C553.664,236.061,555.196,235.23,556.804,234.893
C562.64,233.677,564.774,231.192,567.282,222.694
C567.952,220.427,568.807,218.577,569.187,218.577
C569.565,218.577,569.875,218.07,569.875,217.449
C569.875,215.857,573.107,213.283,575.106,213.283
C576.031,213.283,576.919,212.917,577.081,212.466
C577.639,210.918,581.913,210.448,583.256,211.792
C584.354,212.89,585.42,212.911,590.662,211.94
C594.077,211.306,602.141,210.864,608.913,210.942
C615.584,211.017,621.042,210.78,621.042,210.416
C621.042,210.052,621.665,209.755,622.429,209.755
C623.192,209.755,624.447,209.124,625.219,208.352
C626.122,207.448,627.668,207.071,629.567,207.292
C631.186,207.48,632.511,207.319,632.511,206.93
C632.511,206.544,633.441,206.226,634.583,206.226
C635.721,206.226,637.542,205.452,638.632,204.508
C639.722,203.563,641.063,202.641,641.613,202.457
C642.164,202.274,642.517,200.863,642.401,199.322
C642.282,197.782,642.59,196.522,643.083,196.522
C643.577,196.522,643.979,195.969,643.979,195.294
C643.979,193.387,648.328,192.664,650.106,194.275
C652.005,195.993,652.801,196.004,652.801,194.318
C652.801,193.589,653.198,192.993,653.683,192.993
C654.169,192.993,654.565,192.262,654.565,191.372
C654.565,190.479,655.558,189.294,656.77,188.744
C658.275,188.059,658.976,187.031,658.976,185.515
C658.976,184.125,659.473,183.289,660.298,183.289
C661.027,183.289,661.623,182.893,661.623,182.407
C661.623,181.921,662.616,181.525,663.827,181.525
C665.2,181.525,666.034,181.026,666.034,180.203
C666.034,179.283,666.957,178.878,669.047,178.878
C670.707,178.878,672.212,178.425,672.398,177.869
C672.649,177.116,673.534,177.125,675.895,177.902
C678.22,178.67,680.573,178.703,684.781,178.031
C690.673,177.09,698.675,177.648,698.675,179
C698.675,179.418,699.269,179.76,699.997,179.76
C700.725,179.76,701.322,180.119,701.322,180.562
C701.322,181.001,702.115,181.152,703.086,180.899
C704.268,180.589,704.85,180.872,704.85,181.757
C704.85,182.482,706.14,183.602,707.715,184.244
C709.294,184.886,711.039,186.017,711.598,186.753
C712.229,187.587,714.223,188.14,716.891,188.221
C719.243,188.293,721.404,188.404,721.69,188.466
C722.847,188.722,724.496,193.762,725.176,199.125
C726.142,206.776,724.393,210.017,721.08,206.704
C720.374,205.997,719.208,205.643,718.491,205.918
C716.076,206.847,715.499,212.917,716.764,224.078
C717.409,229.757,717.53,229.994,719.524,229.495
C721.21,229.071,721.612,229.32,721.612,230.782
C721.612,231.777,720.751,233.194,719.699,233.93
C718.202,234.979,717.822,236.072,717.938,238.997
C718.089,242.898,721.175,248.552,723.155,248.563
C723.762,248.569,724.259,249.515,724.259,250.667
C724.259,251.822,724.852,253.26,725.58,253.865
C726.309,254.469,726.905,255.507,726.905,256.177
C726.905,256.845,727.302,257.393,727.787,257.393
C728.27,257.393,728.669,257.987,728.669,258.715
C728.669,259.443,729.082,260.04,729.592,260.04
C730.712,260.04,734.823,268.63,734.834,270.996
C734.839,271.929,735.457,273.37,736.21,274.201
C737.049,275.129,737.777,278.218,738.096,282.21
C738.711,289.899,740.017,292.891,744.641,297.208
C746.642,299.077,748.075,301.233,748.075,302.377
C748.075,303.575,749.931,306.194,752.834,309.097
C758.062,314.325,758.402,314.94,759.619,321.323
C760.471,325.799,763.326,330.782,767.688,335.412
C769.032,336.839,770.13,338.525,770.13,339.162
C770.13,339.796,770.926,340.316,771.894,340.316
C772.865,340.316,773.661,340.616,773.661,340.977
C773.664,341.342,774.832,342.423,776.262,343.381
C777.692,344.339,779.086,346.025,779.364,347.131
C779.642,348.234,780.457,349.138,781.175,349.138
C781.892,349.138,782.48,349.883,782.48,350.792
C782.48,351.701,783.824,353.911,785.461,355.699
C788.24,358.734,790.129,364.23,789.012,366.037
C787.895,367.845,785.979,366.431,783.441,361.931
C781.514,358.519,780.166,357.078,778.895,357.078
C777.16,357.078,777.147,357.175,778.536,359.53
C779.645,361.405,779.799,362.703,779.192,365.042
C778.385,368.158,775.423,369.922,775.423,367.287
C775.423,366.526,775.026,365.9,774.541,365.9
C774.055,365.9,773.658,365.347,773.658,364.672
C773.658,363.34,771.81,362.371,769.272,362.371
C768.303,362.371,767.456,361.502,767.122,360.167
C766.461,357.534,764.836,357.221,764.836,359.725
C764.836,360.696,765.209,361.489,765.659,361.489
C766.113,361.489,766.736,362.282,767.044,363.253
C767.351,364.224,768.001,365.018,768.489,365.018
C769.841,365.018,771.894,367.37,771.894,368.919
C771.894,369.677,773.027,371.306,774.408,372.536
C775.793,373.769,777.457,376.395,778.11,378.372
C778.763,380.349,779.815,382.165,780.449,382.408
C781.801,382.928,785.127,390.086,785.127,392.476
C785.127,393.385,785.723,394.13,786.451,394.13
C787.177,394.13,787.773,394.494,787.773,394.939
C787.773,396.75,786.63,398.541,785.475,398.541
C784.703,398.541,784.245,399.507,784.245,401.136
C784.245,402.561,783.837,403.982,783.335,404.29
C782.81,404.616,782.664,406.122,782.993,407.873
C783.438,410.247,783.271,410.892,782.202,410.892
C781.455,410.892,780.676,410.395,780.468,409.788
C780.257,409.181,780.244,409.48,780.435,410.449
C780.63,411.42,780.999,413.603,781.258,415.302
C781.827,418.999,784.393,424.982,785.418,424.996
C786.303,425.007,785.262,430.319,784.091,431.775
C783.632,432.347,783.087,434.53,782.88,436.629
C782.675,438.728,782.046,441.555,781.485,442.917
C780.632,444.981,780.014,445.345,777.724,445.122
C775.188,444.876,775.002,444.628,775.226,441.849
C775.501,438.442,773.877,432.706,772.822,433.359
C772.439,433.594,771.87,435.401,771.554,437.376
C771.239,439.348,770.529,441.838,769.976,442.909
C769.426,443.978,768.708,445.451,768.384,446.179
C768.058,446.905,764.648,449.403,760.801,451.729
C756.956,454.051,753.649,456.42,753.454,456.987
C753.257,457.556,751.838,459.226,750.301,460.702
C748.763,462.175,747.26,464.042,746.963,464.848
C746.667,465.657,745.337,466.847,744.007,467.495
C741.241,468.844,740.195,470.878,742.269,470.878
C743.076,470.878,743.664,471.622,743.664,472.642
C743.664,473.937,743.076,474.406,741.46,474.406
C740.154,474.406,739.253,473.902,739.253,473.168
C739.253,472.362,738.638,472.086,737.5,472.386
C736.148,472.739,735.865,473.333,736.275,474.96
C736.906,477.477,735.317,479.7,732.889,479.7
C731.891,479.7,730.952,480.452,730.688,481.464
C730.434,482.435,729.851,483.229,729.39,483.229
C727.685,483.229,725.141,481.362,725.141,480.11
C725.141,479.333,724.291,478.817,723.007,478.817
C721.836,478.817,720.73,478.38,720.552,477.844
C719.907,475.909,712.52,478.904,709.048,482.508
C706.99,484.645,704.087,486.471,701.343,487.359
C697.313,488.659,696.989,488.967,697.496,490.993
C698.09,493.354,698.359,493.324,692.583,491.53
C691.38,491.155,690.735,491.538,690.309,492.881
C689.284,496.119,685.358,499.289,681.784,499.766
C678.881,500.157,678.309,499.944,677.68,498.239
C677.038,496.504,676.787,496.418,675.66,497.549
C674.95,498.258,672.886,499.116,671.076,499.456
C668.187,499.998,667.89,500.279,668.672,501.738
C669.967,504.161,669.762,506.166,668.216,506.166
C667.429,506.166,666.652,505.073,666.342,503.519
C666.05,502.065,665.654,500.872,665.457,500.872
C665.262,500.872,662.341,502.237,658.963,503.907
C652.305,507.199,644.861,512.913,644.861,514.734
C644.861,515.36,644.513,515.87,644.09,515.87
C643.666,515.87,643.075,517.083,642.779,518.567
C642.482,520.051,641.637,521.867,640.904,522.601
C640.067,523.437,639.765,524.729,640.097,526.054
C640.437,527.406,640.119,528.676,639.218,529.58
C638.44,530.357,637.804,531.56,637.804,532.253
C637.804,532.947,637.307,533.516,636.7,533.516
C636.096,533.519,633.889,535.31,631.798,537.498
C628.359,541.1,628.129,541.607,629.373,542.851
C630.989,544.467,630.946,544.202,631.159,553.804
C631.297,560.127,631.038,561.717,629.492,563.948
C628.483,565.404,627.361,566.726,626.996,566.888
C626.635,567.05,626.335,567.576,626.335,568.054
C626.335,569.397,623.975,571.448,622.429,571.448
C621.544,571.448,621.042,572.233,621.042,573.619
C621.042,576.279,617.727,579.546,615.377,579.201
C614.265,579.037,613.386,577.925,612.908,576.08
C612.498,574.477,611.597,573.212,610.871,573.212
C610.03,573.212,609.574,572.316,609.574,570.657
C609.574,569.084,608.735,567.306,607.383,566.025
C606.18,564.884,605.187,563.254,605.179,562.404
C605.171,561.554,604.766,560.861,604.281,560.861
C603.795,560.861,603.398,562.615,603.398,564.757
C603.398,567.088,602.956,568.804,602.298,569.025
C601.437,569.313,601.461,569.718,602.406,570.862
C603.069,571.669,604.073,572.33,604.634,572.33
C605.991,572.33,608.691,575.545,608.691,577.161
C608.691,577.866,607.874,578.88,606.87,579.417
C605.449,580.178,605.168,580.933,605.594,582.865
C606.45,586.763,605.675,586.828,590.829,584.052
C588.501,583.615,588.401,583.744,588.401,587.227
C588.401,589.221,588.781,590.856,589.243,590.856
C589.726,590.856,589.877,592.639,589.599,595.045
C589.132,599.084,589.216,599.278,591.892,600.433
C593.53,601.137,594.56,602.17,594.404,602.945
C594.08,604.528,588.193,606.703,584.171,606.722
C581.352,606.732,581.281,606.822,581.821,609.708
C582.331,612.422,582.164,612.732,579.9,613.302
C578.379,613.685,577.297,613.558,577.103,612.975
C576.93,612.455,576.261,612.028,575.619,612.028
C573.941,612.028,575.039,615.517,577.41,617.723
C578.476,618.713,579.63,620.815,579.976,622.393
C580.553,625.029,580.426,625.258,578.4,625.258
C577.189,625.258,576.067,624.921,575.905,624.511
C575.743,624.098,573.925,623.54,571.861,623.27
C568.194,622.793,568.111,622.836,568.111,625.364
C568.111,627.304,567.528,628.21,565.756,629.017
C564.28,629.691,563.287,629.767,563.095,629.219
C562.289,626.918,561.113,625.93,559.777,626.443
C558.652,626.875,558.45,627.679,558.887,630.007
C559.667,634.164,558.126,636.727,554.848,636.727
C553.41,636.727,552.234,636.33,552.234,635.845
C552.234,634.183,549.706,634.962,549.121,636.808
C548.703,638.124,548.025,638.521,546.757,638.189
C545.605,637.887,544.224,638.481,542.832,639.873
C541.65,641.054,540.318,642.02,539.873,642.02
C538.351,642.02,532.826,639.05,532.826,638.232
C532.826,637.784,531.803,637.677,530.552,637.99
C528.774,638.435,527.897,638.073,526.518,636.32
C525.55,635.089,524.387,634.08,523.934,634.08
C523.48,634.08,520.764,631.701,517.899,628.787
C515.031,625.876,512.282,623.497,511.788,623.497
C511.294,623.497,510.636,622.701,510.329,621.732
C509.768,619.957,506.36,619.199,506.36,620.85
C506.36,622.029,503.161,621.97,500.873,620.745
C498.774,619.62,485.187,619.116,485.187,620.162
C485.187,620.54,484.532,620.85,483.733,620.85
C482.676,620.85,483.032,621.568,485.05,623.497
C486.572,624.951,488.217,626.141,488.708,626.141
C489.197,626.141,489.599,626.737,489.599,627.465
C489.599,628.194,489.24,628.787,488.8,628.787
C488.36,628.787,488.196,629.537,488.436,630.454
C488.673,631.369,488.438,632.386,487.91,632.71
C487.384,633.036,486.952,634.075,486.952,635.016
C486.952,636.133,486.345,636.727,485.209,636.727
C484.003,636.727,482.916,637.936,481.68,640.649
C480.698,642.805,479.894,644.971,479.894,645.46
C479.894,645.948,479.433,647.359,478.872,648.595
C477.836,650.866,475.025,651.668,474.423,649.863
C474.218,649.25,473.654,649.418,472.918,650.305
C471.922,651.503,471.947,651.724,473.066,651.724
C474.027,651.724,474.407,652.736,474.445,655.372
C474.496,659.151,473.085,661.428,470.695,661.428
C469.815,661.428,469.308,662.213,469.308,663.576
C469.308,664.935,468.671,665.923,467.568,666.273
C465.404,666.959,462.094,671.046,462.79,672.171
C463.624,673.525,461.317,678.087,459.51,678.662
C456.326,679.671,458.495,682.601,462.429,682.601
C463.942,682.601,464.897,683.073,464.897,683.823
C464.897,684.492,465.79,685.283,466.883,685.574
C470.217,686.467,470.932,686.224,470.447,684.365
C470.047,682.841,470.42,682.601,473.174,682.601
C476.83,682.601,476.937,682.997,475.052,689.354
C474.116,692.499,473.099,694.069,471.523,694.787
C470.304,695.343,469.308,696.373,469.308,697.08
C469.308,699.025,466.003,699.71,464.39,698.1
C463.629,697.339,462.439,696.716,461.746,696.716
C461.053,696.716,460.486,696.33,460.486,695.855
C460.486,694.644,455.08,695.793,453.229,697.396
C451.343,699.031,446.474,698.399,443.336,696.114
C440.83,694.288,440.161,689.658,442.403,689.658
C443.128,689.658,443.725,689.262,443.725,688.776
C443.725,688.291,444.321,687.894,445.049,687.894
C445.775,687.894,446.371,687.387,446.371,686.766
C446.371,685.523,449.441,682.601,450.75,682.601
C451.206,682.601,451.894,682.064,452.282,681.408
C452.671,680.75,453.583,679.989,454.311,679.711
C455.039,679.436,454.343,679.18,452.768,679.142
C451.189,679.105,449.9,679.468,449.9,679.954
C449.9,680.44,449.107,680.836,448.135,680.836
C447.024,680.836,446.371,680.248,446.371,679.25
C446.371,678.376,445.896,677.184,445.314,676.603
C443.93,675.22,438.682,675.233,438.221,676.622
C437.943,677.448,437.118,677.472,434.665,676.72
C431.301,675.686,429.734,676.539,428.482,680.092
C428.198,680.896,426.752,681.818,425.269,682.145
C422.66,682.717,420.607,684.365,422.501,684.365
C423.016,684.365,423.434,685.345,423.434,686.542
C423.434,688.177,423.788,688.585,424.848,688.18
C425.625,687.88,426.61,688.191,427.039,688.868
C427.597,689.747,427.823,689.785,427.832,688.997
C427.851,687.567,432.059,687.567,433.473,688.997
C434.072,689.604,434.838,690.832,435.178,691.728
C435.518,692.623,436.608,693.567,437.601,693.826
C440.004,694.455,439.543,697.746,436.888,698.909
C435.796,699.389,434.903,700.274,434.903,700.879
C434.903,701.672,433.799,701.823,430.905,701.426
C427.907,701.016,426.151,701.286,423.882,702.508
C422.22,703.404,420.631,703.911,420.356,703.633
C420.078,703.358,419.612,701.092,419.315,698.599
C418.964,695.631,418.365,694.069,417.577,694.069
C416.919,694.069,416.377,694.466,416.377,694.951
C416.377,696.376,412.565,695.907,410.568,694.237
C409.557,693.389,408.453,691.601,408.116,690.26
C407.431,687.533,406.095,687.864,404.876,691.067
C403.883,693.683,400.497,694.015,400.497,691.496
C400.497,688.865,399.548,687.012,398.199,687.012
C397.521,687.012,396.971,687.408,396.971,687.894
C396.971,689.615,392.447,688.744,390.103,686.572
C388.794,685.358,387.224,684.365,386.614,684.365
C386.002,684.365,385.503,683.968,385.503,683.483
C385.503,682.169,376.907,682.377,376.427,683.704
C376.109,684.581,375.634,684.576,374.11,683.672
C372.92,682.968,371.029,682.755,369.14,683.108
C365.835,683.729,365.326,682.925,367.163,679.984
C367.751,679.043,367.972,678.012,367.654,677.693
C366.623,676.663,361.684,679.442,361.684,681.052
C361.684,682.822,361.042,682.908,350.024,682.625
C343.368,682.452,342.016,682.676,339.979,684.279
C336.696,686.861,334.336,686.712,334.336,683.926
C334.336,682.552,333.837,681.718,333.011,681.718
C331.414,681.718,331.244,679.423,332.792,678.713
C333.397,678.435,333.057,678.411,332.034,678.659
C329.221,679.345,327.068,678.211,327.564,676.304
C327.802,675.4,327.634,674.661,327.195,674.661
C325.284,674.661,326.696,671.683,330.413,667.855
C334.136,664.026,334.39,663.476,333.864,660.371
C333.416,657.708,333.575,657.017,334.641,657.017
C335.38,657.017,336.489,655.631,337.101,653.934
C338.428,650.262,341.172,649.024,342.861,651.333
C343.498,652.204,344.312,652.628,344.666,652.274
C345.022,651.919,344.728,651.26,344.013,650.812
C342.885,650.1,342.909,649.649,344.218,647.332
C345.667,644.764,345.658,644.667,343.999,644.667
C343.05,644.667,342.275,644.073,342.275,643.345
C342.275,642.616,341.879,642.02,341.393,642.02
C340.908,642.02,340.511,642.573,340.511,643.245
C340.511,645.147,334.605,645.945,332.93,644.27
C332.177,643.517,331.236,642.902,330.839,642.902
C329.566,642.902,328.854,638.273,330.016,637.553
C330.826,637.053,330.731,636.524,329.625,635.421
C327.796,633.592,327.645,628.787,329.42,628.787
C330.114,628.787,331.303,629.413,332.067,630.174
C332.83,630.937,333.454,631.137,333.454,630.616
C333.454,630.096,334.446,629.669,335.658,629.669
C336.872,629.669,337.865,630.069,337.865,630.552
C337.865,631.037,339.105,631.434,340.622,631.434
H343.382L342.971,635.715L342.559,639.997
L345.283,639.023
C348.456,637.892,349.298,636.953,349.325,634.523
C349.336,633.535,350.412,632.149,351.764,631.374
C353.096,630.614,354.78,628.828,355.508,627.403
C356.237,625.981,357.745,623.888,358.862,622.75
C361.131,620.432,361.036,619.067,358.514,617.761
C353.129,614.977,343.117,607.995,342.72,606.749
C342.343,605.562,341.237,605.335,336.78,605.529
C332.323,605.726,331.012,605.456,329.73,604.083
C328.867,603.155,328.16,601.984,328.16,601.477
C328.16,600.973,327.518,600.56,326.733,600.56
C325.689,600.56,325.419,599.969,325.73,598.353
C325.962,597.142,325.908,596.146,325.611,596.146
C325.314,596.146,323.919,595.153,322.509,593.942
C321.1,592.728,319.036,591.738,317.922,591.738
C316.017,591.738,311.399,588.325,311.399,586.917
C311.399,586.067,306.292,581.313,304.144,580.164
C303.222,579.67,301.201,579.233,299.655,579.196
C298.109,579.158,295.535,578.432,293.941,577.585
C290.207,575.602,287.415,576.212,288.079,578.864
C288.769,581.618,286.107,583.644,280.161,584.891
C275.895,585.786,275.005,585.749,274.312,584.651
C273.052,582.662,273.313,580.27,274.789,580.27
C275.515,580.27,276.111,579.873,276.111,579.387
C276.111,578.902,276.907,578.505,277.875,578.505
C278.847,578.505,279.64,578.108,279.64,577.623
C279.64,577.137,280.606,576.741,281.782,576.741
C282.961,576.741,284.52,576.145,285.249,575.416
C285.977,574.69,287.097,574.081,287.739,574.067
C288.473,574.051,288.332,573.706,287.358,573.142
C286.511,572.645,285.815,571.439,285.815,570.457
C285.815,568.345,284.485,566.88,280.857,565.002
C279.389,564.244,277.673,563.003,277.042,562.242
C276.411,561.482,275.151,560.861,274.239,560.861
C273.33,560.861,272.582,560.465,272.582,559.979
C272.582,559.493,271.989,559.097,271.26,559.097
C270.532,559.097,269.936,558.646,269.936,558.093
C269.936,556.407,262.49,557.939,257.685,560.618
C254.078,562.628,253.19,563.613,252.718,566.125
C251.974,570.077,249.891,574.078,247.425,576.298
C246.346,577.27,244.741,580.445,243.861,583.356
C242.979,586.267,241.835,588.978,241.32,589.377
C240.675,589.879,240.726,590.246,241.487,590.553
C242.796,591.085,242.976,593.502,241.706,593.502
C241.223,593.502,240.823,594.579,240.823,595.898
C240.823,599.108,238.19,605.853,236.936,605.853
C235.814,605.853,233.728,613.62,234.748,613.995
C235.649,614.324,235.992,626.071,235.182,628.89
C234.637,630.784,234.845,631.28,236.348,631.674
C237.702,632.027,238.177,632.861,238.177,634.882
C238.177,636.476,237.718,637.612,237.076,637.612
C236.453,637.615,235.93,638.804,235.873,640.353
C235.819,641.858,235.422,643.345,234.991,643.658
C234.179,644.246,232.533,647.478,231.67,650.181
C231.349,651.185,231.64,651.724,232.501,651.724
C234.953,651.724,234.934,654.346,232.466,656.634
C230.002,658.917,229.976,661.428,232.417,661.428
C233.329,661.428,233.766,662.286,233.766,664.075
C233.766,665.532,233.343,666.721,232.822,666.721
C230.82,666.721,228.953,669.721,229.034,672.816
C229.104,675.527,228.721,676.175,226.368,677.308
C224.445,678.236,223.539,679.358,223.344,681.058
C223.19,682.39,222.694,683.483,222.241,683.483
C221.788,683.483,221.415,684.179,221.413,685.026
C221.402,688.156,219.535,693.187,218.383,693.187
C217.73,693.187,216.967,693.783,216.686,694.512
C216.389,695.289,216.675,695.834,217.379,695.834
C219.114,695.834,219.492,697.447,218.99,702.678
L218.545,707.302H214.687
C211.593,707.302,210.832,706.995,210.832,705.748
C210.832,704.893,209.944,703.8,208.857,703.32
C207.772,702.843,206.488,701.259,206.003,699.805
C205.517,698.348,204.875,696.959,204.578,696.716
C203.542,695.871,201.937,692.278,202.112,691.193
C202.209,690.592,201.983,689.399,201.608,688.544
C201.211,687.632,201.376,686.451,202.012,685.684
C202.733,684.818,202.895,683.054,202.498,680.405
C202.034,677.31,201.532,676.426,200.243,676.426
C199.331,676.426,198.338,676.822,198.039,677.308
C197.739,677.793,196.129,678.19,194.459,678.19
C191.496,678.19,191.424,678.104,191.424,674.599
C191.424,672.57,192.004,670.426,192.754,669.676
C193.943,668.486,193.906,668.089,192.422,665.988
C191.505,664.693,190.469,661.539,190.121,658.981
C189.772,656.421,188.931,653.769,188.248,653.089
C187.568,652.407,187.013,650.831,187.013,649.582
C187.013,647.75,187.436,647.313,189.217,647.313
C190.547,647.313,191.424,646.811,191.424,646.045
C191.424,645.209,190.595,644.834,188.998,644.942
C187.064,645.074,186.513,644.688,186.279,643.034
C185.718,639.079,186.862,636.727,189.349,636.727
C191.518,636.727,191.623,636.535,191.116,633.422
C190.822,631.604,189.978,629.675,189.238,629.135
C187.738,628.037,187.406,625.258,188.777,625.258
C190.164,625.258,189.813,623.586,188.024,621.668
C186.681,620.227,185.971,620.071,184.053,620.799
C182.769,621.287,181.719,622.094,181.719,622.59
C181.719,623.089,180.786,623.497,179.647,623.497
C177.419,623.497,173.78,626.157,173.78,627.789
C173.78,628.339,173.184,628.787,172.455,628.787
C170.869,628.787,170.653,626.154,172.237,626.114
C174.549,626.054,169.795,623.497,167.37,623.497
C165.425,623.497,164.898,623.133,165.122,621.951
C165.284,621.104,166.307,620.281,167.391,620.127
C170.081,619.742,169.938,616.981,167.162,615.716
C165.951,615.163,164.958,614.197,164.958,613.569
C164.958,612.943,163.568,611.68,161.869,610.766
C160.172,609.851,158.782,608.769,158.782,608.359
C158.782,607.952,158.186,607.617,157.458,607.617
C156.635,607.617,156.136,606.784,156.136,605.41
C156.136,604.199,156.576,603.206,157.113,603.206
C157.711,603.206,157.879,602.362,157.547,601.035
C157.248,599.842,157.547,597.282,158.213,595.348
L159.425,591.832L156.678,591.562
C154.601,591.36,153.862,590.812,153.648,589.31
C153.435,587.818,153.805,587.327,155.14,587.327
C157.614,587.327,157.976,586.348,156.913,582.506
C156.314,580.329,156.295,578.875,156.859,578.308
C158.41,576.76,156.33,572.233,152.194,568.156
C148.488,564.503,147.106,561.743,148.987,561.743
C149.799,561.743,147.519,553.588,145.428,549.021
C144.503,547,144.484,546.366,145.339,546.08
C145.941,545.88,146.432,544.361,146.432,542.702
C146.432,541.046,146.828,539.689,147.314,539.689
C148.733,539.689,148.342,537.781,145.949,533.073
C144.7,530.613,143.909,527.856,144.163,526.844
C144.414,525.843,144.201,523.521,143.694,521.681
L142.771,518.335L138.867,518.921
C134.974,519.506,134.963,519.501,134.963,516.806
C134.963,514.693,134.58,514.105,133.199,514.105
C132.023,514.105,131.435,513.517,131.435,512.341
C131.435,511.154,130.846,510.576,129.632,510.576
C128.642,510.576,127.353,510.19,126.767,509.719
C122.564,506.338,120.848,504.444,120.848,503.182
C120.848,502.043,120.333,501.852,118.507,502.31
C116.432,502.831,116.222,502.683,116.659,501.002
C117.061,499.467,116.767,499.108,115.11,499.108
C113.92,499.108,112.134,497.999,110.837,496.458
C109.601,494.991,108.363,494.203,108.058,494.694
C107.281,495.954,104.972,495.792,104.966,494.479
C104.964,493.871,103.979,492.183,102.778,490.729
C100.617,488.109,100.588,488.104,100.032,490.067
C99.724,491.157,98.92,492.05,98.251,492.05
C96.792,492.05,96.727,491.198,97.947,487.99
C98.607,486.253,98.581,485.408,97.852,484.958
C97.207,484.559,97.067,483.307,97.464,481.497
C97.952,479.271,98.448,478.753,99.765,479.098
C100.687,479.338,101.427,479.276,101.41,478.958
C101.359,477.9,98.087,474.406,97.148,474.406
C96.643,474.406,95.316,473.495,94.202,472.38
C92.632,470.81,92.162,469.321,92.114,465.744
C92.079,463.208,91.582,460.667,91.01,460.094
C90.384,459.469,89.972,456.199,89.972,451.844
C89.972,446.659,89.618,444.334,88.709,443.581
C87.662,442.712,87.398,443.033,87.166,445.459
C86.958,447.617,86.413,448.451,85.078,448.642
C82.925,448.95,79.385,446.12,79.385,444.088
C79.385,443.298,78.792,442.65,78.063,442.65
C77.335,442.65,76.739,443.047,76.739,443.532
C76.739,444.954,74.564,444.547,72.716,442.774
C68.06,438.315,67.035,436.443,67.035,432.375
C67.035,429.547,66.573,427.95,65.537,427.192
C64.194,426.21,64.164,425.716,65.238,422.463
C65.896,420.466,66.87,418.818,67.399,418.804
C67.928,418.788,67.663,418.373,66.816,417.879
C65.966,417.383,65.27,416.298,65.27,415.467
C65.27,414.636,64.391,413.565,63.314,413.085
C62.006,412.502,61.121,411.051,60.641,408.701
C59.732,404.26,59.098,403.656,55.334,403.656
C52.334,403.656,52.261,403.567,51.225,398.673
C49.752,391.718,48.746,389.409,46.601,388.068
C45.174,387.177,44.594,387.153,44.092,387.968
C43.232,389.357,39.689,388.232,39.689,386.571
C39.689,385.877,40.283,385.308,41.011,385.308
C43.413,385.308,42.706,378.863,40.01,376.165
C37.671,373.826,36.161,373.206,36.161,374.579
C36.161,374.986,35.138,375.787,33.886,376.357
C31.982,377.223,31.704,377.797,32.163,379.885
C32.761,382.618,30.922,384.973,28.814,384.164
C27.552,383.681,26.939,375.604,28.164,375.604
C28.531,375.604,29.767,374.792,30.911,373.799
C32.931,372.048,33.625,368.204,33.606,358.842
C33.603,357.628,34.056,355.249,34.615,353.549
C35.171,351.852,35.53,349.802,35.411,348.992
C35.289,348.183,35.783,346.109,36.506,344.379
C37.28,342.523,37.48,341.029,36.989,340.726
C35.807,339.995,35.958,332.592,37.162,332.19
C38.443,331.764,36.215,327.966,34.685,327.966
C34.105,327.966,33.355,327.094,33.018,326.031
C32.082,323.08,31.874,312.594,32.74,312.038
C33.163,311.768,33.771,308.393,34.092,304.538
C34.674,297.531,36.849,291.61,39.649,289.4
C40.574,288.669,40.658,288.316,39.908,288.297
C38.351,288.256,38.53,285.623,40.089,285.623
C41.243,285.623,43.199,280.789,43.213,277.902
C43.216,277.295,43.615,276.801,44.101,276.801
C44.583,276.801,44.983,276.205,44.983,275.477
C44.983,274.748,44.386,274.155,43.658,274.155
C41.937,274.155,41.988,273.14,43.879,269.819
C44.729,268.327,46.073,267.105,46.866,267.103
C47.659,267.1,48.957,266.104,49.752,264.89
C50.548,263.679,50.791,262.686,50.295,262.686
C49.798,262.686,49.394,262.09,49.394,261.362
C49.394,260.633,49.76,260.04,50.211,260.04
C50.662,260.04,51.52,257.854,52.116,255.186
C52.712,252.518,53.562,250.336,54.004,250.336
C54.444,250.336,54.568,249.594,54.282,248.687
C53.362,245.792,55.782,241.462,61.574,235.632
C63.665,233.531,65.125,231.402,64.817,230.906
C63.746,229.171,66.5,224.655,68.928,224.161
C70.625,223.816,71.403,222.993,71.769,221.156
C72.144,219.275,72.908,218.496,74.729,218.126
C80.203,217.017,81.571,216.2,84.328,212.401
C85.911,210.219,87.236,207.937,87.268,207.329
C87.301,206.722,87.886,206.226,88.572,206.226
C89.359,206.226,90.028,204.847,90.39,202.476
C91.253,196.824,92.51,194.207,94.884,193.125
C96.128,192.562,97.029,191.399,97.029,190.365
C97.029,189.386,97.606,188.582,98.311,188.582
C99.468,188.582,101.424,183.75,101.435,180.864
C101.437,180.257,102.136,179.715,102.983,179.658
C104.454,179.561,104.454,179.536,102.983,179.153
C101.103,178.66,100.911,175.349,102.765,175.349
C103.49,175.349,104.087,174.753,104.087,174.027
C104.087,173.248,104.901,172.698,106.072,172.689
C107.292,172.678,108.813,171.591,110.017,169.87
C111.096,168.327,111.884,166.973,111.768,166.857
L113.351,164.483L114.889,162.198
C116.208,160.236,116.238,159.872,115.11,159.626
C113.13,159.198,113.524,156.823,115.571,156.823
C116.974,156.823,117.252,156.403,116.872,154.841
C116.548,153.505,117.09,152.051,118.528,150.397
C119.748,148.994,120.487,147.251,120.25,146.337
C120.017,145.458,120.39,144.176,121.072,143.493
C122.917,141.648,123.616,137.852,122.605,135.187
C121.229,131.572,123.117,126.235,126.028,125.504
C128.046,124.997,128.138,124.824,126.792,124.072
C124.477,122.777,124.898,120.654,127.466,120.654
C128.677,120.654,129.67,121.088,129.67,121.614
C129.67,122.968,136.714,121.676,138.374,120.02
C139.415,118.976,141.033,118.835,146.364,119.323
C150.039,119.661,154.698,120.238,156.713,120.608
C159.489,121.115,161.202,120.888,163.771,119.674
C165.638,118.789,167.564,118.056,168.052,118.039
C168.543,118.021,169.439,117.214,170.046,116.245
C170.653,115.274,171.503,114.481,171.935,114.481
C172.366,114.481,174.068,113.189,175.717,111.613
C179.302,108.182,182.437,105.659,183.114,105.659
C184.239,105.659,185.801,103.35,185.432,102.241
C184.692,100.023,188.774,98.669,191.324,100.285Z
M209.286,123.964
C209.059,124.646,209.426,124.873,210.246,124.557
C210.978,124.277,212.399,124.49,213.408,125.03
C214.628,125.682,215.243,125.704,215.243,125.097
C215.243,124.595,214.646,124.182,213.918,124.182
C213.19,124.182,212.596,123.759,212.596,123.235
C212.596,121.954,209.747,122.58,209.286,123.964Z
M389.914,249.453
C389.914,249.939,390.31,250.336,390.796,250.336
C391.279,250.336,391.678,249.939,391.678,249.453
C391.678,248.968,391.279,248.571,390.796,248.571
C390.31,248.571,389.914,248.968,389.914,249.453Z
M770.016,349.378
C771.452,350.813,772.272,349.47,770.882,347.959
C770.224,347.247,769.547,347.058,769.369,347.538
C769.194,348.019,769.485,348.847,770.016,349.378Z
M763.782,354.21
C764.038,355.545,764.419,356.128,764.626,355.505
C765.001,354.383,764.329,351.785,763.663,351.785
C763.474,351.785,763.528,352.877,763.782,354.21Z
M196.717,667.603
C196.717,668.089,197.137,668.486,197.65,668.486
C198.163,668.486,198.338,668.089,198.039,667.603
C197.739,667.118,197.318,666.721,197.105,666.721
C196.892,666.721,196.717,667.118,196.717,667.603Z
M313.163,174.91
C313.163,175.792,312.281,176.232,310.517,176.232
C308.752,176.232,307.87,175.792,307.87,174.91
C307.87,174.027,308.752,173.585,310.517,173.585
C312.281,173.585,313.163,174.027,313.163,174.91Z
M361.095,176.82
C362.434,178.161,361.554,179.76,359.477,179.76
C357.861,179.76,357.273,179.291,357.273,177.996
C357.273,176.275,359.779,175.503,361.095,176.82Z
M351.979,188.582
C351.979,189.759,351.391,190.347,350.215,190.347
C349.039,190.347,348.451,189.759,348.451,188.582
C348.451,187.406,349.039,186.818,350.215,186.818
C351.391,186.818,351.979,187.406,351.979,188.582Z
M385.967,225.41
C385.209,228.435,385.014,228.621,383.334,227.976
C381.556,227.293,381.577,224.21,383.369,223.522
C386.007,222.51,386.59,222.934,385.967,225.41Z
M787.239,374.32
C787.868,380.444,787.558,381.779,785.515,381.779
C784.523,381.779,784.245,380.336,784.245,375.162
C784.245,370.168,784.539,368.546,785.448,368.546
C786.279,368.546,786.829,370.324,787.239,374.32Z
M2.637,383.983
C2.637,384.712,2.041,385.308,1.313,385.308
C0.587,385.308,-0.009,384.712,-0.009,383.983
C-0.009,383.258,0.587,382.661,1.313,382.661
C2.041,382.661,2.637,383.258,2.637,383.983Z
M44.983,403.834
C44.983,404.813,44.395,405.598,43.658,405.598
C42.924,405.598,42.336,404.813,42.336,403.834
C42.336,402.852,42.924,402.07,43.658,402.07
C44.395,402.07,44.983,402.852,44.983,403.834Z
M791.302,407.802
C791.302,409.567,790.863,410.009,789.098,410.009
C786.632,410.009,786.255,408.755,788.151,406.858
C790.048,404.962,791.302,405.337,791.302,407.802Z
M36.161,411.331
C36.161,412.154,35.327,412.656,33.954,412.656
C32.581,412.656,31.75,412.154,31.75,411.331
C31.75,410.509,32.581,410.009,33.954,410.009
C35.327,410.009,36.161,410.509,36.161,411.331Z
M35.573,432.652
C36.911,433.99,36.031,435.593,33.954,435.593
C32.338,435.593,31.75,435.121,31.75,433.828
C31.75,432.107,34.256,431.336,35.573,432.652Z
M76.739,451.472
C76.739,451.955,77.335,452.354,78.063,452.354
C78.986,452.354,79.385,453.285,79.385,455.441
C79.385,459.261,77.691,459.496,75.606,455.967
C73.741,452.808,73.663,450.59,75.417,450.59
C76.145,450.59,76.739,450.987,76.739,451.472Z
M55.569,456.323
C55.569,458.786,53.429,459.364,52.574,457.132
C51.679,454.802,51.959,454.119,53.804,454.119
C55.097,454.119,55.569,454.707,55.569,456.323Z
M39.101,462.644
C40.601,464.147,39.584,465.69,37.27,465.423
C34.094,465.056,33.309,462.056,36.39,462.056
C37.555,462.056,38.778,462.323,39.101,462.644Z
M759.544,467.174
C759.544,469.41,757.52,473.511,756.414,473.519
C754.976,473.53,753.368,471.576,753.368,469.82
C753.368,468.946,753.767,468.231,754.25,468.231
C754.736,468.231,755.132,467.638,755.132,466.909
C755.132,466.086,755.966,465.585,757.339,465.585
C758.874,465.585,759.544,466.068,759.544,467.174Z
M756.015,476.613
C756.015,477.987,755.516,478.817,754.693,478.817
C753.87,478.817,753.368,477.987,753.368,476.613
C753.368,475.24,753.87,474.406,754.693,474.406
C755.516,474.406,756.015,475.24,756.015,476.613Z
M748.957,477.935
C748.957,479.112,748.369,479.7,747.193,479.7
C746.016,479.7,745.429,479.112,745.429,477.935
C745.429,476.759,746.016,476.171,747.193,476.171
C748.369,476.171,748.957,476.759,748.957,477.935Z
M75.857,483.671
C75.857,485.042,75.358,485.875,74.535,485.875
C73.712,485.875,73.21,485.042,73.21,483.671
C73.21,482.298,73.712,481.464,74.535,481.464
C75.358,481.464,75.857,482.298,75.857,483.671Z
M142.021,522.992
C142.021,525.252,139.102,524.996,138.659,522.698
C138.454,521.637,138.929,521.163,140.192,521.163
C141.454,521.163,142.021,521.729,142.021,522.992Z
M80.562,528.808
C81.776,530.022,81.088,531.749,79.385,531.749
C78.209,531.749,77.621,531.161,77.621,529.985
C77.621,528.285,79.348,527.594,80.562,528.808Z
M86.224,552.622
C87.684,553.213,87.646,556.45,86.178,556.45
C84.703,556.45,82.914,554.662,82.914,553.186
C82.914,552.026,84.204,551.807,86.224,552.622Z
M145.55,561.301
C145.55,562.029,144.953,562.625,144.225,562.625
C143.499,562.625,142.903,562.029,142.903,561.301
C142.903,560.575,143.499,559.979,144.225,559.979
C144.953,559.979,145.55,560.575,145.55,561.301Z
M282.742,567.962
C283.819,571.358,278.793,574.226,277.53,570.935
C276.683,568.725,276.894,567.919,278.318,567.919
C279.044,567.919,279.64,567.522,279.64,567.037
C279.64,565.391,282.165,566.144,282.742,567.962Z
M124.954,587.804
C125.243,588.554,125.246,589.396,124.965,589.679
C124.075,590.57,121.73,589.205,121.73,587.794
C121.73,586.035,124.277,586.043,124.954,587.804Z
M616.979,595.779
C617.832,598.005,617.624,598.674,615.768,599.667
C613.561,600.848,609.574,599.902,609.574,598.194
C609.574,594.889,615.852,592.841,616.979,595.779Z
M606.301,595.817
C607.817,597.331,606.792,598.795,604.216,598.795
C602.112,598.795,601.572,598.45,601.799,597.25
C602.101,595.671,605.176,594.692,606.301,595.817Z
M157.9,610.191
C157.9,612.001,156.756,613.793,155.599,613.793
C154.879,613.793,154.372,612.884,154.372,611.586
C154.372,609.97,154.841,609.382,156.136,609.382
C157.107,609.382,157.9,609.746,157.9,610.191Z
M356.39,619.086
C356.39,620.065,355.802,620.85,355.066,620.85
C354.332,620.85,353.744,620.065,353.744,619.086
C353.744,618.104,354.332,617.321,355.066,617.321
C355.802,617.321,356.39,618.104,356.39,619.086Z
M185.542,624.964
C186.584,626.008,186.168,628.876,184.773,630.271
C183.754,631.291,182.445,631.48,179.48,631.034
C177.317,630.711,175.544,630.044,175.544,629.553
C175.544,627.919,178.037,626.141,180.333,626.141
C181.579,626.141,182.602,625.744,182.602,625.258
C182.602,624.268,184.638,624.063,185.542,624.964Z
M565.467,633.579
C565.467,635.953,563.381,638.491,561.434,638.491
C560.552,638.491,560.174,637.434,560.174,634.962
C560.174,631.631,560.319,631.434,562.82,631.434
C565.032,631.434,565.467,631.784,565.467,633.579Z
M188.189,632.022
C188.513,632.346,188.777,633.338,188.777,634.229
C188.777,635.365,188.121,635.845,186.57,635.845
C184.301,635.845,183.972,635.249,184.9,632.831
C185.45,631.396,187.145,630.981,188.189,632.022Z
M559.953,640.841
C562.173,641.737,561.099,643.784,558.409,643.784
C556.351,643.784,555.763,643.393,555.763,642.02
C555.763,640.296,557.436,639.824,559.953,640.841Z
M339.478,689.348
C339.308,690.236,338.442,691.102,337.554,691.271
C336.389,691.496,336.025,691.134,336.251,689.968
C336.421,689.081,337.287,688.215,338.175,688.045
C339.34,687.821,339.702,688.183,339.478,689.348Z
M415.759,698.157
C417.146,699.543,416.263,701.127,414.108,701.127
C412.427,701.127,411.915,700.73,412.133,699.595
C412.443,697.987,414.696,697.093,415.759,698.157Z"/>
    <clipPath id="clip1"><use xlink:href="#Map-outline"/></clipPath>
  </defs>
  <use style="fill:#002b7f" xlink:href="#Map-outline"/>
  <g clip-path="url(#clip1)">
    <g transform="translate(-129,35)scale(9,9)">
      <use clip-path="url(#Field)" xlink:href="#UnionJack"/>
    </g>
  <use transform="translate(139,440)scale(9.02,9.02)" xlink:href="#7star"/>
  <use transform="translate(545,271)scale(4.3,4.3)" xlink:href="#7star"/>
  <use transform="translate(682,486)scale(4.3,4.3)" xlink:href="#7star"/>
  <use transform="translate(735,329)scale(2.62,2.62)" xlink:href="#5star"/>
  </g>
</svg>
