<?xml version="1.0"?><svg width="1000" height="823" xmlns="http://www.w3.org/2000/svg">

 <g>
  <title>Layer 1</title>
  <path stroke="black" id="selection_to_path" fill="#007fff" d="m727,1c0,0 5,1 5,1c0,0 -5,-1 -5,-1zm-2,3c0,0 3,2 3,2c0,0 0,-2 0,-2c0,0 -3,0 -3,0zm1,11c0,0 5,-1 5,-1c0,0 1,-6 1,-6c-5,1 -5,2 -6,7zm12,-5c0,0 0,3 0,3c-4,0 -5,0 -6,4c0,0 -7,2 -7,2c2,11 -4,19 -10,28c0,0 -4,10 -4,10c0,0 6,0 6,0c0,0 -6,9 -6,9c0,3 1,5 0,9c-1,2 -4,6 -4,11c0,4 2,5 2,8c0,3 -1,4 -1,9c0,0 1,12 1,12c0,0 -5,14 -5,14c-2,7 -1,11 -5,19c-2,6 -5,7 -7,11c0,0 -3,7 -3,7c-3,6 -12,10 -18,9c-2,-1 -8,-5 -10,-6c-5,-3 -9,-3 -10,-10c0,0 3,-2 3,-2c0,0 -5,0 -5,0c3,-4 4,-5 9,-5c0,0 7,-5 7,-5c0,0 0,-2 0,-2c-9,-3 -14,1 -16,10c0,0 -20,-7 -20,-7c0,0 -9,-10 -9,-10c0,0 -16,-8 -16,-8c2,-4 2,-4 0,-8c0,0 -1,0 -1,0c0,0 -2,2 -2,2c0,0 0,-4 0,-4c0,0 -3,4 -3,4c0,0 -4,0 -4,0c0,0 1,-4 1,-4c0,0 -4,3 -4,3c0,0 -13,-12 -13,-12c0,0 -1,-2 -1,-2c-3,0 -4,0 -6,-2c-5,-6 4,-15 9,-17c0,0 4,-14 4,-14c0,0 -4,2 -4,2c0,0 -1,-6 -1,-6c0,0 8,-3 8,-3c0,0 3,-3 3,-3c0,0 -1,4 -1,4c0,0 9,-7 9,-7c-1,-4 -2,-4 1,-7c0,0 -1,-3 -1,-3c0,0 8,-6 8,-6c0,0 -4,-6 -4,-6c0,0 -5,2 -5,2c0,0 -2,-9 -2,-9c0,0 3,-1 3,-1c-4,0 -9,5 -13,7c0,0 3,1 3,1c0,0 -2,2 -2,2c0,0 4,1 4,1c-2,4 -3,4 -7,5c1,-3 2,-4 0,-6c0,0 1,-3 1,-3c0,0 -8,4 -8,4c0,0 -1,-1 -1,-1c0,0 6,-5 6,-5c0,0 -2,-2 -2,-2c0,0 7,-8 7,-8c0,0 -14,12 -14,12c-7,0 -10,5 -12,-2c0,0 -3,1 -3,1c0,0 -2,-3 -2,-3c-11,4 -5,1 -14,1c-2,-3 -3,-3 -7,-3c0,0 2,-2 2,-2c0,0 0,-1 0,-1c0,0 -12,0 -12,0c1,-2 2,-2 0,-4c0,0 2,-3 2,-3c-4,2 -4,4 -5,5c-3,0 -6,-6 -8,-8c0,0 -6,4 -6,4c0,0 -1,-13 -1,-13c-3,2 -3,2 -4,6c0,0 -3,-2 -3,-2c0,0 -2,2 -2,2c-5,-3 -8,-1 -11,3c3,2 6,4 7,7c0,0 2,-3 2,-3c0,0 5,1 5,1c0,0 -1,-2 -1,-2c3,2 3,2 3,6c0,0 3,1 3,1c0,4 0,9 -6,7c0,0 -1,3 -1,3c0,0 -6,1 -6,1c0,0 -7,0 -7,0c0,0 -7,-1 -7,-1c0,0 -2,-4 -2,-4c0,0 -2,4 -2,4c0,0 -3,-1 -3,-1c0,0 1,-3 1,-3c-4,1 -4,3 -4,7c0,0 -4,3 -4,3c0,0 -5,-2 -5,-2c-1,2 -1,4 -4,3c-2,4 -2,8 -6,9c0,0 -4,5 -4,5c0,0 0,2 0,2c0,0 6,2 6,2c-4,3 -4,4 -9,4c0,0 -3,12 -3,12c0,0 -6,2 -6,2c0,0 -3,9 -3,9c0,0 6,3 6,3c0,0 2,6 2,6c0,0 -4,-2 -4,-2c-2,3 -3,2 -6,1c0,0 -1,3 -1,3c-4,-2 -12,-5 -17,-3c-2,0 -5,4 -7,5c0,0 3,-8 3,-8c0,0 -7,-2 -7,-2c-2,-6 -10,-17 -17,-15c0,0 0,-2 0,-2c0,0 -2,1 -2,1c-3,-4 -5,-4 -9,-2c0,0 -2,9 -2,9c0,0 -3,-4 -3,-4c0,0 3,-1 3,-1c0,0 0,-2 0,-2c0,0 -3,-1 -3,-1c0,0 -1,2 -1,2c0,0 1,1 1,1c0,0 -6,4 -6,4c0,0 -1,-6 -1,-6c0,0 -4,0 -4,0c0,0 -1,5 -1,5c0,0 4,2 4,2c0,0 -3,0 -3,0c0,0 -1,1 -1,1c0,0 -1,2 -1,2c0,0 0,5 0,5c0,0 -5,-9 -5,-9c0,0 -6,10 -6,10c0,0 -3,-4 -3,-4c0,0 -1,5 -1,5c0,0 -1,-4 -1,-4c-5,5 -1,6 -1,14c0,0 -6,-3 -6,-3c0,0 -3,3 -3,3c0,0 3,0 3,0c0,0 -2,6 -2,6c0,0 -5,0 -5,0c0,0 0,-2 0,-2c0,0 -4,0 -4,0c0,0 -1,3 -1,3c0,0 -4,0 -4,0c3,2 3,2 6,0c0,11 -3,2 0,17c0,0 4,-2 4,-2c0,0 -1,4 -1,4c-4,0 -4,1 -5,5c0,0 -4,-3 -4,-3c-3,0 -3,0 -6,-2c0,0 -2,1 -2,1c0,0 0,-2 0,-2c0,0 -7,1 -7,1c0,0 -3,-2 -3,-2c0,0 -1,4 -1,4c0,0 6,3 6,3c-2,2 -6,5 -3,7c0,0 -1,-2 -1,-2c0,0 10,10 10,10c0,0 -5,0 -5,0c0,0 0,9 0,9c0,0 -1,-3 -1,-3c0,0 -1,3 -1,3c-3,-5 -7,-10 -8,-16c0,0 -4,-1 -4,-1c0,0 8,-7 8,-7c0,0 -8,0 -8,0c-4,5 -5,5 -7,11c0,0 -3,3 -3,3c-14,6 -6,16 -8,26c0,0 4,-1 4,-1c0,0 1,4 1,4c0,0 -13,9 -13,9c0,0 0,4 0,4c0,0 -4,1 -4,1c0,8 -6,16 -12,20c-5,4 -23,11 -30,12c-5,1 -7,-2 -11,0c-4,1 -5,5 -8,7c0,0 -18,5 -18,5c0,0 -2,5 -2,5c-7,1 -8,5 -13,0c0,0 -9,3 -9,3c0,0 3,-5 3,-5c0,0 -3,-3 -3,-3c0,0 -2,7 -2,7c0,0 -4,-4 -4,-4c0,0 0,1 0,1c0,0 2,0 2,0c0,0 -4,2 -4,2c0,0 3,1 3,1c-5,7 -6,4 -12,10c-4,3 -9,11 -14,12c0,0 -14,9 -14,9c0,0 -9,17 -9,17c-3,-12 -3,-5 -2,-17c-2,1 -3,2 -5,4c-1,2 -5,16 -5,18c0,4 3,4 3,9c0,0 0,11 0,11c-1,4 -6,9 -5,20c0,6 2,6 5,11c0,0 3,7 3,7c0,0 8,11 8,11c2,2 5,5 6,8c1,3 1,9 0,12c-3,-4 -4,-6 -5,-11c0,0 -3,6 -3,6c-2,-9 0,-6 -8,-16c-3,6 -1,10 3,15c5,5 10,5 4,12c0,0 -7,-14 -7,-14c0,0 -4,1 -4,1c0,0 -6,-12 -6,-12c0,0 -2,0 -2,0c-1,6 2,8 5,13c0,0 6,9 6,9c0,0 7,6 7,6c3,3 5,7 8,10c8,11 3,13 7,20c2,3 6,6 9,9c2,4 2,6 4,9c2,3 5,4 7,11c0,0 2,15 2,15c1,2 5,14 6,16c0,0 9,13 9,13c4,7 9,12 6,20c4,7 1,7 1,13c1,7 5,10 0,17c-1,2 -2,3 -4,3c-1,0 -4,-1 -5,-1c0,9 -1,14 5,21c8,-5 13,4 19,7c0,0 12,4 12,4c4,1 5,-1 11,0c3,-2 5,-1 9,0c0,0 8,-2 8,-2c0,0 8,-4 8,-4c0,0 -2,-3 -2,-3c5,-4 7,-4 9,-10c9,2 7,0 14,-2c0,0 -3,-2 -3,-2c8,-13 11,-8 19,-10c0,0 8,-3 8,-3c9,-1 9,0 16,0c0,0 6,-1 6,-1c-2,3 -2,4 1,6c0,0 -2,-4 -2,-4c0,0 1,0 1,0c0,0 1,2 1,2c0,0 5,-4 5,-4c8,2 10,-3 15,2c0,0 4,-3 4,-3c12,0 11,-13 16,-20c4,-4 8,-3 12,-5c0,0 23,-14 23,-14c4,-2 7,0 11,0c0,0 15,-2 15,-2c0,0 23,-8 23,-8c4,-2 7,-4 11,-5c9,-3 23,-2 32,-2c6,0 8,-2 11,-1c7,0 16,10 20,11c1,1 4,1 5,1c5,-4 8,2 13,4c3,1 7,0 10,0c0,0 -5,5 -5,5c0,0 8,-3 8,-3c0,0 0,7 0,7c5,-1 6,-1 8,3c0,0 -4,1 -4,1c0,0 0,5 0,5c0,0 2,0 2,0c0,0 -1,3 -1,3c0,0 3,4 3,4c0,0 8,0 8,0c1,5 2,5 1,10c8,6 9,11 10,20c0,0 -3,-2 -3,-2c0,0 -2,5 -2,5c0,0 3,-1 3,-1c0,0 6,11 6,11c0,0 5,-3 5,-3c0,0 1,3 1,3c0,0 2,0 2,0c0,0 2,-10 2,-10c0,0 1,-5 1,-5c0,0 10,-8 10,-8c0,0 13,-7 13,-7c0,0 9,-15 9,-15c0,0 4,1 4,1c0,0 2,-6 2,-6c-1,4 0,5 2,9c-8,3 -3,6 -5,10c-1,3 -4,5 -7,9c-2,5 0,5 -5,13c0,0 3,-1 3,-1c0,0 -2,10 -2,10c-8,-3 -9,0 -12,8c0,0 11,-2 11,-2c0,0 6,0 6,0c0,0 3,-6 3,-6c0,0 6,-16 6,-16c4,8 10,19 3,28c-2,2 -4,3 -6,4c0,0 0,2 0,2c9,3 11,-1 15,0c6,3 13,15 15,21c0,2 1,6 1,8c-1,2 -2,3 -4,4c1,6 1,11 7,15c0,0 -1,2 -1,2c4,4 3,7 7,10c4,3 14,3 14,11c0,0 1,1 1,1c0,0 2,1 2,1c0,0 3,-4 3,-4c2,0 14,6 16,7c4,3 11,10 16,11c7,1 17,-12 24,-7c1,1 2,2 3,4c0,0 6,-2 6,-2c0,0 -1,3 -1,3c6,3 11,5 12,12c0,0 4,-2 4,-2c1,3 3,5 1,8c0,0 6,0 6,0c0,0 0,-7 0,-7c12,-1 19,-12 31,-15c12,-3 23,4 30,3c3,-1 9,-3 11,-6c1,-1 1,-2 1,-4c0,0 2,1 2,1c0,-2 0,-6 0,-8c1,-4 5,-14 9,-15c0,-2 -1,-3 0,-5c0,-4 8,-14 11,-17c0,0 8,-4 8,-4c0,0 0,-4 0,-4c0,0 6,-14 6,-14c0,0 7,-5 7,-5c0,0 5,-9 5,-9c0,0 14,-15 14,-15c0,0 6,-2 6,-2c0,0 5,-2 5,-2c1,-3 2,-3 5,-3c0,0 3,-9 3,-9c0,0 11,-14 11,-14c0,0 5,-10 5,-10c0,0 2,-10 2,-10c0,0 4,-7 4,-7c0,0 5,-10 5,-10c0,0 5,-14 5,-14c0,0 8,-10 8,-10c0,0 2,-14 2,-14c0,0 -2,-6 -2,-6c0,0 4,-11 4,-11c0,0 2,-13 2,-13c0,0 -3,2 -3,2c0,0 -2,11 -2,11c-2,-2 -3,-3 -1,-5c0,0 -3,0 -3,0c0,0 -1,-7 -1,-7c0,0 3,1 3,1c2,-12 -1,-17 6,-29c-4,-8 4,-14 7,-20c1,-3 1,-8 1,-11c0,0 -5,3 -5,3c1,6 0,6 -5,9c0,0 1,4 1,4c0,0 -8,-7 -8,-7c0,0 -3,-11 -3,-11c0,0 -6,-6 -6,-6c0,0 -7,-14 -7,-14c0,0 -7,-3 -7,-3c0,0 -1,-12 -1,-12c0,0 -4,-2 -4,-2c0,0 -4,2 -4,2c0,0 -1,-11 -1,-11c0,0 2,-8 2,-8c1,-6 -1,-10 -5,-15c0,0 -3,3 -3,3c0,0 3,1 3,1c0,0 -1,4 -1,4c0,0 -4,-5 -4,-5c0,0 -2,1 -2,1c0,0 -3,-8 -3,-8c0,0 -4,-1 -4,-1c0,0 -1,8 -1,8c0,0 -4,-1 -4,-1c0,0 -3,-7 -3,-7c0,0 0,-2 0,-2c0,0 2,0 2,0c0,0 -3,-7 -3,-7c0,0 2,-6 2,-6c0,0 -4,-1 -4,-1c1,-3 1,-4 0,-7c-1,-9 -4,-6 -7,-10c-2,-3 -3,-5 -4,-8c0,0 2,0 2,0c0,0 0,-1 0,-1c0,0 3,4 3,4c0,0 0,-5 0,-5c0,0 3,4 3,4c0,0 2,0 2,0c0,0 1,-1 1,-1c0,0 -3,-5 -3,-5c0,0 3,-2 3,-2c0,0 -2,1 -2,1c0,0 1,-3 1,-3c0,0 -3,0 -3,0c0,0 -2,-3 -2,-3c0,0 1,6 1,6c0,0 -10,-9 -10,-9c0,0 -3,4 -3,4c-1,-5 -2,-5 -5,-8c0,0 -4,1 -4,1c0,0 0,-5 0,-5c0,0 -1,-1 -1,-1c0,0 -2,0 -2,0c0,0 -2,3 -2,3c-1,-5 -2,-10 -6,-13c-1,4 -5,1 -6,-3c0,0 -3,2 -3,2c0,0 -4,-2 -4,-2c0,0 3,-3 3,-3c-5,1 -12,-2 -12,-8c-1,-2 1,-5 1,-8c0,0 0,-7 0,-7c0,0 -7,1 -7,1c0,0 5,-8 5,-8c-3,-1 -1,-4 -1,-7c0,-3 -3,-13 -4,-16c0,0 3,0 3,0c0,0 0,-2 0,-2c-8,-3 -10,-7 -13,-14c0,0 3,-1 3,-1c0,0 -4,-22 -4,-22c0,0 2,-4 2,-4c-1,-3 0,-4 1,-7c0,0 -17,-12 -17,-12c0,0 -1,-9 -1,-9c0,0 -6,4 -6,4c0,0 0,-4 0,-4c-4,3 -5,7 -9,7c-3,-1 -4,-7 -5,-10c0,0 -2,-7 -2,-7c0,0 1,-8 1,-8c0,-5 -3,-4 0,-14c0,0 -5,0 -5,0c0,0 3,-6 3,-6c0,0 -8,-7 -8,-7c1,-5 1,-5 5,-8c-3,-1 -8,-2 -9,-5c-3,-5 2,-16 -7,-22c2,-3 3,-4 1,-7zm-285,5c0,8 -6,6 -3,14c0,0 -3,-1 -3,-1c0,0 -2,4 -2,4c0,0 16,1 16,1c0,0 8,1 8,1c0,0 11,-6 11,-6c0,0 -1,-3 -1,-3c2,-2 1,-3 0,-6c0,0 -3,-2 -3,-2c0,0 -15,5 -15,5c0,0 -8,-7 -8,-7zm148,0c0,0 -8,11 -8,11c0,0 -9,8 -9,8c6,-3 18,-10 17,-19zm-17,15c0,0 0,1 0,1c0,0 -1,-1 -1,-1c0,0 1,0 1,0zm14,4c0,0 0,1 0,1c0,0 1,-1 1,-1c0,0 -1,0 -1,0zm-16,1c0,0 0,1 0,1c0,0 1,-1 1,-1c0,0 -1,0 -1,0zm-81,5c0,0 0,1 0,1c0,0 -1,-1 -1,-1c0,0 1,0 1,0zm83,30c0,0 -1,2 -1,2c0,0 1,3 1,3c0,0 5,-2 5,-2c0,0 -5,-3 -5,-3zm3,5c0,0 0,1 0,1c0,0 1,-1 1,-1c0,0 -1,0 -1,0zm-3,7c0,0 7,0 7,0c-1,4 0,5 -3,8c0,0 16,3 16,3c0,0 0,-4 0,-4c0,0 -6,0 -6,0c0,0 2,-5 2,-5c0,0 3,-5 3,-5c0,0 -4,2 -4,2c0,0 0,-4 0,-4c-4,0 -5,0 -7,4c0,0 -1,-1 -1,-1c0,0 -2,1 -2,1c0,0 -1,-4 -1,-4c0,0 -4,5 -4,5zm6,-4c0,0 0,1 0,1c0,0 1,-1 1,-1c0,0 -1,0 -1,0zm-259,14c0,0 0,4 0,4c0,0 0,-4 0,-4zm441,3c0,0 0,1 0,1c0,0 1,-1 1,-1c0,0 -1,0 -1,0zm-365,4c0,0 0,1 0,1c0,0 1,-1 1,-1c0,0 -1,0 -1,0zm-81,4c0,0 -2,2 -2,2c0,0 0,1 0,1c0,0 4,0 4,0c0,0 -2,-3 -2,-3zm340,43c0,0 0,1 0,1c0,0 1,-1 1,-1c0,0 -1,0 -1,0zm-10,16c3,-1 4,0 6,-3c0,0 -2,-1 -2,-1c-3,1 -3,1 -4,4zm159,44c-1,4 0,6 4,7c0,0 -4,-7 -4,-7zm-689,35c0,0 -1,5 -1,5c0,0 1,-5 1,-5zm26,5c0,0 0,1 0,1c0,0 -1,-1 -1,-1c0,0 1,0 1,0zm-28,2c-2,4 -3,5 -2,9c3,-3 4,-5 2,-9zm19,2c0,0 0,1 0,1c0,0 1,-1 1,-1c0,0 -1,0 -1,0zm-14,11c0,0 0,1 0,1c0,0 1,-1 1,-1c0,0 -1,0 -1,0zm739,2c0,0 -1,1 -1,1c0,0 4,2 4,2c0,0 0,-2 0,-2c0,0 -3,-1 -3,-1zm14,26c0,0 0,1 0,1c0,0 1,-1 1,-1c0,0 -1,0 -1,0zm9,3c0,0 4,1 4,1c0,0 -4,-1 -4,-1zm-9,7c0,0 0,1 0,1c0,0 1,-1 1,-1c0,0 -1,0 -1,0zm19,30c0,0 0,1 0,1c0,0 1,-1 1,-1c0,0 -1,0 -1,0zm-818,22c0,0 0,13 0,13c1,-4 1,-9 0,-13zm19,22c0,0 2,3 2,3c0,0 -2,-3 -2,-3zm383,129c0,0 0,1 0,1c0,0 1,-1 1,-1c0,0 -1,0 -1,0zm28,9c0,0 0,1 0,1c0,0 1,-1 1,-1c0,0 -1,0 -1,0zm-361,5c0,0 4,0 4,0c0,0 -4,0 -4,0zm376,27c0,0 3,-3 3,-3c0,0 -3,3 -3,3zm-225,5c0,0 0,1 0,1c0,0 1,-1 1,-1c0,0 -1,0 -1,0zm13,0c0,0 0,1 0,1c0,0 1,-1 1,-1c0,0 -1,0 -1,0zm-6,2c0,0 0,1 0,1c0,0 1,-1 1,-1c0,0 -1,0 -1,0zm249,21c0,0 2,4 2,4c0,0 -2,-4 -2,-4zm9,28c0,0 16,0 16,0c0,0 2,-3 2,-3c0,0 10,0 10,0c0,0 -1,-4 -1,-4c0,0 -4,2 -4,2c0,0 -4,-2 -4,-2c0,0 0,-4 0,-4c-4,0 -19,0 -21,4c-1,3 1,5 2,7zm150,61c1,6 3,9 -5,11c0,0 -1,-7 -1,-7c0,0 -4,1 -4,1c0,0 10,-5 10,-5zm-57,4c0,0 0,1 0,1c0,0 1,-1 1,-1c0,0 -1,0 -1,0zm29,34c0,0 -1,13 -1,13c7,-4 7,-7 6,-14c0,0 -5,1 -5,1zm52,5c0,0 0,1 0,1c0,0 1,-1 1,-1c0,0 -1,0 -1,0zm12,1c0,0 -1,1 -1,1c0,0 3,2 3,2c0,0 -2,-3 -2,-3zm12,8c0,0 0,1 0,1c0,0 1,-1 1,-1c0,0 -1,0 -1,0zm-3,1c0,0 -3,4 -3,4c0,0 3,8 3,8c0,0 -2,-1 -2,-1c0,0 -3,3 -3,3c2,1 2,1 4,-1c0,0 3,2 3,2c0,0 -4,2 -4,2c0,0 2,6 2,6c0,0 8,-2 8,-2c-1,-6 -3,-7 0,-13c0,0 -6,-8 -6,-8c0,0 -2,0 -2,0zm-59,5c-3,5 -6,13 -6,19c0,3 2,11 3,13c1,3 3,6 3,8c0,0 -2,15 -2,15c0,0 7,18 7,18c0,0 2,-1 2,-1c0,0 0,7 0,7c8,0 8,3 15,5c0,0 3,-5 3,-5c3,3 6,3 6,-2c0,0 3,-1 3,-1c0,0 -1,-4 -1,-4c0,0 5,-1 5,-1c0,0 -1,6 -1,6c0,0 1,1 1,1c0,0 5,1 5,1c1,-5 2,-7 0,-12c4,0 5,0 6,-4c0,0 -3,1 -3,1c2,-5 2,-8 7,-11c0,0 -2,6 -2,6c5,-2 4,-7 5,-12c1,-6 4,-14 4,-20c0,0 -1,-7 -1,-7c0,0 -5,2 -5,2c0,0 -5,-3 -5,-3c0,0 -4,5 -4,5c-7,-5 -12,0 -18,-1c-5,-1 -15,-9 -19,-13c0,0 -5,0 -5,0c0,0 0,-5 0,-5c0,0 -4,2 -4,2c0,0 5,-7 5,-7c0,0 -4,0 -4,0z"/>
 </g>
</svg>