<?xml version="1.0" encoding="utf-8"?>
<!-- Generator: Adobe Illustrator 16.0.0, SVG Export Plug-In . SVG Version: 6.00 Build 0)  -->
<!DOCTYPE svg PUBLIC "-//W3C//DTD SVG 1.1//EN" "http://www.w3.org/Graphics/SVG/1.1/DTD/svg11.dtd">
<svg version="1.1"
	 id="svg2" xmlns:dc="http://purl.org/dc/elements/1.1/" xmlns:cc="http://creativecommons.org/ns#" xmlns:svg="http://www.w3.org/2000/svg" xmlns:rdf="http://www.w3.org/1999/02/22-rdf-syntax-ns#" xmlns:sodipodi="http://sodipodi.sourceforge.net/DTD/sodipodi-0.dtd" xmlns:inkscape="http://www.inkscape.org/namespaces/inkscape" inkscape:version="0.48.2 r9819" sodipodi:docname="Flag_of_Belgium_(civil).svg"
	 xmlns="http://www.w3.org/2000/svg" xmlns:xlink="http://www.w3.org/1999/xlink" x="0px" y="0px" width="634.468px"
	 height="446.979px" viewBox="0 0 634.468 446.979" enable-background="new 0 0 634.468 446.979" xml:space="preserve">
<sodipodi:namedview  id="namedview10" fit-margin-left="0" showgrid="false" fit-margin-top="0" pagecolor="#ffffff" inkscape:cx="281.72229" gridtolerance="10" inkscape:zoom="0.78666667" objecttolerance="10" bordercolor="#666666" inkscape:cy="360.57673" borderopacity="1" guidetolerance="10" inkscape:current-layer="svg2" inkscape:window-maximized="1" inkscape:window-y="-8" inkscape:pageopacity="0" inkscape:window-height="988" inkscape:pageshadow="2" inkscape:window-x="-8" fit-margin-right="0" fit-margin-bottom="0" inkscape:window-width="1400">
	</sodipodi:namedview>
<g>
	
		<path id="path3771" inkscape:connector-curvature="0" stroke="#000000" stroke-linecap="round" stroke-linejoin="round" stroke-miterlimit="3.9745" d="
		M204.955,259.259c-0.977-0.541-1.566-1.235-1.443-1.704c0.072-0.271-0.162-0.837-0.559-1.356c-0.375-0.492-0.777-1.405-0.895-2.029
		c-0.115-0.624-0.438-1.452-0.715-1.841c-0.275-0.39-0.502-1.027-0.502-1.418c0-0.394-0.217-1.117-0.48-1.609
		c-0.584-1.092-0.436-1.976,0.799-4.713c0.602-1.332,0.793-2.04,0.668-2.485c-0.096-0.343-0.121-1.072-0.057-1.619
		c0.064-0.553-0.064-1.627-0.291-2.402c-0.225-0.773-0.383-1.785-0.352-2.25c0.039-0.574-0.158-1.16-0.615-1.83
		c-0.529-0.781-0.67-1.277-0.67-2.381c0-1.135-0.105-1.495-0.576-1.938c-0.316-0.299-0.689-0.541-0.828-0.541
		c-0.578,0-2.305-1.785-2.473-2.559c-0.197-0.911-2.854-4.061-3.632-4.309c-0.32-0.102-0.831,0.058-1.418,0.441
		c-1.398,0.915-1.747,0.989-2.044,0.434c-0.145-0.27-0.716-0.721-1.271-1.004c-0.958-0.488-1.068-0.496-2.154-0.125
		c-0.629,0.213-1.52,0.39-1.978,0.39s-1.502,0.272-2.319,0.604s-1.853,0.641-2.301,0.685c-0.781,0.079-0.818,0.043-0.893-0.871
		c-0.087-1.066,0.187-1.584,1.918-3.624l1.135-1.336l-0.774-0.692c-0.98-0.875-3.015-1.632-4.942-1.838l-1.496-0.16l-0.954,1.485
		c-0.525,0.816-1.077,1.884-1.226,2.37l-0.271,0.885h-1.579c-0.868,0-1.579,0.094-1.579,0.209c0,0.415-1.299,0.788-2.743,0.788
		c-1.399,0-1.521,0.05-2.396,0.997c-0.508,0.549-1.059,0.996-1.225,0.996s-0.982-0.605-1.812-1.347
		c-0.887-0.791-1.853-1.418-2.337-1.518c-0.455-0.094-2.206-0.915-3.889-1.825c-2.319-1.253-3.308-1.946-4.073-2.854
		c-1.099-1.304-1.051-0.962-0.651-4.671c0.037-0.342,0.154-0.76,0.26-0.926c0.106-0.168,0.016-0.647-0.201-1.066
		c-0.304-0.587-0.338-0.961-0.152-1.639c0.183-0.664,0.149-1.1-0.141-1.793c-0.249-0.595-0.333-1.287-0.239-1.973
		c0.081-0.585,0.037-1.123-0.098-1.206c-0.133-0.083-0.243-0.769-0.243-1.524c0-1.324-0.05-1.428-1.351-2.791
		c-1.5-1.573-2.515-3.711-2.292-4.828c0.082-0.408-0.058-1.108-0.349-1.749c-0.484-1.066-0.635-2.535-0.34-3.304
		c0.085-0.224,0.872-0.73,1.747-1.127c0.875-0.397,1.657-0.896,1.739-1.105c0.085-0.225-0.175-0.79-0.625-1.359
		c-0.524-0.662-0.773-1.25-0.773-1.83c0-1.031-1.649-3.401-2.687-3.861c-0.374-0.165-1.249-0.305-1.947-0.312
		c-1.107-0.01-1.305-0.091-1.554-0.638c-0.157-0.346-0.567-0.756-0.912-0.913c-0.679-0.31-0.749-0.51-0.4-1.16
		c0.242-0.452-0.275-2.036-0.666-2.036c-0.517,0-1.769-1.586-2.016-2.556c-0.188-0.733-0.505-1.212-1.032-1.558
		c-0.923-0.604-2.994-4.147-2.994-5.123c0-0.527-0.215-0.826-0.897-1.248l-0.896-0.555l-2.018,0.461
		c-1.733,0.396-2.249,0.646-3.653,1.777c-0.899,0.723-1.813,1.316-2.032,1.319c-0.219,0.002-1.049-0.222-1.846-0.495
		c-1.919-0.66-2.365-0.635-4.113,0.249c-0.887,0.448-1.869,0.748-2.448,0.748c-0.681,0-1.275,0.224-2.01,0.756
		c-0.574,0.416-1.358,0.819-1.742,0.896c-0.404,0.082-0.872,0.434-1.109,0.834c-0.544,0.922-1.834,1.502-3.333,1.502
		c-1.089,0-1.323,0.104-2.166,0.968c-0.753,0.771-0.935,1.138-0.897,1.808c0.074,1.337,0.03,1.462-0.603,1.703
		c-0.462,0.175-0.662,0.52-0.873,1.501c-0.15,0.701-0.273,1.583-0.273,1.962c0,0.969-0.436,1.408-1.864,1.878
		c-1.208,0.397-1.262,0.394-1.969-0.128c-0.4-0.296-1.218-0.593-1.818-0.661c-1.163-0.131-2.013-0.881-2.749-2.425
		c-0.2-0.419-0.697-0.953-1.106-1.188c-0.724-0.416-0.776-0.409-2.216,0.318c-1.851,0.934-2.28,0.93-3.877-0.039
		c-1.45-0.879-2.099-1.939-2.099-3.434c0-1.645-0.574-2.633-1.729-2.979c-0.804-0.242-1.012-0.423-1.012-0.879
		c0-1.654-1.352-3.677-3.284-4.916c-0.662-0.426-1.203-0.921-1.203-1.102c0-0.182-0.27-0.648-0.599-1.041
		c-0.503-0.598-0.578-0.896-0.467-1.876c0.118-1.052,0.057-1.239-0.629-1.925c-0.792-0.792-1.177-0.872-3.692-0.771
		c-1.088,0.044-1.344-0.036-1.754-0.558c-0.264-0.336-0.85-0.803-1.303-1.036c-0.904-0.467-0.86-0.491-1.938,1.043
		c-0.316,0.449-0.632,0.562-1.595,0.562c-1.285,0-1.266,0.02-1.619-1.728c-0.095-0.47-0.566-1.647-1.046-2.617
		c-0.48-0.969-0.956-1.931-1.055-2.137c-0.1-0.206-0.535-0.409-0.967-0.452c-0.432-0.043-0.785-0.143-0.785-0.22
		c0-0.078,0.252-0.548,0.561-1.043c0.396-0.636,0.575-1.343,0.609-2.397c0.12-3.708-0.058-6.385-0.498-7.478
		c-0.221-0.55-0.406-1.194-0.412-1.435c-0.008-0.326-0.221-0.437-0.842-0.437c-0.457,0-0.907-0.076-0.999-0.168
		c-0.092-0.093,0.73-1.088,1.828-2.213c1.098-1.125,1.996-2.218,1.996-2.431c0-0.211,0.29-0.729,0.644-1.149l0.644-0.767
		l-0.428-1.31c-0.235-0.722-0.814-1.944-1.288-2.72c-0.496-0.813-0.91-1.867-0.979-2.493c-0.234-2.124-0.222-2.106-1.812-2.554
		c-1.874-0.524-2.464-1.008-3.02-2.472c-0.346-0.911-0.389-1.35-0.194-1.983c0.38-1.241-1.071-9.149-2.161-11.772
		c-1.362-3.278-1.532-2.853,1.743-4.364c1.583-0.729,3.522-1.797,4.312-2.371c1.87-1.36,8.009-4.567,11.015-5.754
		c1.302-0.514,3.153-1.455,4.113-2.093c0.959-0.637,3.203-1.926,4.985-2.864c6.839-3.599,20.073-12.235,21.256-13.875
		c0.35-0.483,1.053-0.36,1.053,0.184c0,0.381,1.844,1.417,2.088,1.172c0.299-0.299,0.15-1.2-0.329-1.985l-0.482-0.791l0.716-0.25
		c0.394-0.137,1.538-0.804,2.542-1.481c1.004-0.677,2.722-1.683,3.818-2.234c2.873-1.445,8.416-5.049,10.606-6.896
		c2.368-1.996,5.825-3.749,11.202-5.681c2.262-0.813,4.463-1.683,4.893-1.933c0.428-0.25,1.141-0.533,1.584-0.63
		c0.443-0.098,1.122-0.53,1.509-0.961c0.533-0.595,0.732-0.694,0.822-0.411c0.409,1.29,0.351,1.243,1.168,0.958
		c0.426-0.148,0.908-0.481,1.068-0.739c0.207-0.331,0.586-0.469,1.292-0.471c1.428-0.005,3.295-0.56,4.738-1.408
		c0.72-0.423,3.188-1.288,5.842-2.045c2.528-0.722,4.9-1.53,5.273-1.794c1.118-0.796,1.373-0.638,1.726,1.076
		c0.177,0.857,0.642,2.2,1.031,2.984c1.109,2.229,1.001,2.781-0.896,4.57l-1.606,1.514l0.712,1.246
		c0.688,1.205,0.696,1.257,0.234,1.544c-1.217,0.76,0.026,2.544,4.946,7.096c1.828,1.691,3.082,3.062,3.337,3.647
		c0.346,0.792,0.596,0.991,1.621,1.289c1.786,0.519,6.807,0.36,10.008-0.316c2.519-0.532,2.562-0.553,2.44-1.183
		c-0.398-2.047-1.188-8.031-1.076-8.145c0.074-0.074,0.676,0.141,1.336,0.476l1.202,0.611l1.529-0.754l1.53-0.754l1.169,0.805
		c1.486,1.023,1.893,0.784,1.893-1.116c0-0.83,0.116-1.361,0.312-1.431c0.409-0.146,1.45,0.385,3.375,1.721
		c1.984,1.378,2.877,1.838,3.561,1.838c0.299,0,0.895,0.213,1.322,0.473c0.5,0.305,1.521,0.537,2.875,0.653
		c1.529,0.131,2.547,0.385,3.74,0.931c1.414,0.648,2.016,0.769,4.381,0.876l2.742,0.125l0.762,0.88
		c0.709,0.816,0.818,0.861,1.531,0.613c0.631-0.22,0.902-0.184,1.541,0.205c0.852,0.518,0.898,0.692,0.521,1.977
		c-0.275,0.936-0.355,5.32-0.117,6.274c0.225,0.889,1.666,1.688,3.367,1.865l1.492,0.156v86.069c0,57.713-0.084,86.289-0.252,86.735
		c-0.217,0.567-0.312,0.619-0.641,0.347c-0.215-0.178-0.334-0.526-0.27-0.775c0.135-0.516-0.271-0.579-1.494-0.229
		c-0.525,0.149-1.328,0.108-2.451-0.125c-1.613-0.34-1.693-0.332-2.455,0.207c-0.539,0.385-1.172,0.569-2.01,0.588
		c-1.389,0.027-1.59,0.209-2.602,2.346c-0.457,0.965-0.678,1.903-0.746,3.164l-0.096,1.793l-0.965-0.638
		c-1.248-0.825-1.725-0.645-1.725,0.657C205.828,259.617,205.736,259.691,204.955,259.259L204.955,259.259z"/>
	
		<path id="path3773" inkscape:connector-curvature="0" sodipodi:nodetypes="cssssssscsscsccsscsscssscssccsssssscssscscssssscssssscssscscssssssscssscssssscssssssscscssccccssccsssssssssssssssssscssssssssssssssscccccssssssssssscscsscssssssssscsssssssscssssssssssssscsscsscssssscsssscccccsscc" fill="#FFDA0C" stroke="#FFDA0C" stroke-linecap="round" stroke-linejoin="round" stroke-miterlimit="3.9745" d="
		M393.542,371.47c-1.35-2.361-1.934-2.761-3.701-2.528c-1.451,0.188-1.646,0.129-1.963-0.613c-0.285-0.665-0.623-0.824-1.764-0.829
		c-1.818-0.007-5.053-1.757-5.793-3.135c-0.305-0.564-0.971-1.513-1.482-2.104c-0.816-0.948-1.223-1.106-3.348-1.301
		c-2.48-0.226-4.357,0.327-4.357,1.283c0,0.607-2.807,1.56-4.596,1.558c-0.979-0.003-1.977-0.27-2.631-0.703
		c-1.289-0.854-2.15-0.896-2.58-0.128c-0.18,0.318-0.488,0.479-0.689,0.354c-0.48-0.298,0.73-3.504,1.68-4.454
		c0.83-0.829,0.863-1.275,0.18-2.469c-0.277-0.486-0.508-1.46-0.516-2.167c-0.012-1.062-0.162-1.319-0.875-1.499
		c-0.672-0.169-0.928-0.544-1.162-1.712c-0.25-1.234-0.201-1.537,0.266-1.728c0.312-0.124,0.762-0.875,1-1.668
		c0.236-0.792,0.992-2.499,1.68-3.797l1.25-2.354l-0.436-2.32c-0.365-1.944-0.648-2.521-1.754-3.555
		c-0.725-0.68-1.596-1.788-1.938-2.468c-0.762-1.515-1.479-2.089-2.627-2.108c-1.549-0.026-4.688-1.013-5.311-1.665
		c-0.877-0.925-0.164-3.754,0.984-3.918c1.084-0.152,2.176-2.71,2.174-5.093c0-1.016-0.004-2.4-0.008-3.078
		c-0.002-1.009,0.262-1.464,1.432-2.479c1.676-1.455,1.848-2.56,0.553-3.579c-1.146-0.901-1.281-3.107-0.189-3.107
		c1,0,1.498-1.204,1.553-3.757c0.043-2.078,0.104-2.235,0.848-2.235c0.516,0,0.945,0.317,1.207,0.894
		c0.225,0.492,0.646,0.851,0.939,0.793c0.637-0.121,1.209-2.021,0.768-2.553c-0.172-0.208-0.225-1.37-0.113-2.584
		c0.195-2.158,0.236-2.23,1.959-3.497l1.762-1.292l-1.018-0.912c-0.559-0.503-1.219-1.365-1.469-1.917
		c-0.414-0.921-0.568-0.987-1.812-0.787c-1.725,0.276-4.092-0.532-5.021-1.714c-1.021-1.299-1.916-1.129-2.76,0.525
		c-0.396,0.775-0.893,1.408-1.105,1.408c-0.211,0-1.562,0.734-3.002,1.633c-2.525,1.574-3.646,2.881-3.648,4.256
		c-0.002,1.092-1.34,2.926-2.135,2.926c-0.402,0-1.652,0.509-2.775,1.132c-1.572,0.869-2.277,1.541-3.055,2.907
		c-1.141,2.003-1.887,3.8-2.148,5.178c-0.164,0.861-0.064,0.951,1.307,1.184l1.482,0.251l-0.23,1.444
		c-0.127,0.797-0.621,2.606-1.096,4.023c-0.477,1.418-0.867,3.201-0.867,3.961s-0.199,1.509-0.441,1.665
		c-0.662,0.426-3.352,1.163-5.727,1.571c-1.164,0.199-2.266,0.508-2.451,0.687c-0.184,0.176-1.15,0.319-2.15,0.319
		c-2.551,0-3.885,0.546-4.402,1.799c-0.541,1.309-1.303,1.729-3.131,1.729c-1.268,0-1.525,0.148-2.271,1.32
		c-1.359,2.128-2.328,2.795-4.453,3.063c-1.066,0.134-2.918,0.585-4.111,1.001c-1.781,0.623-2.32,0.683-2.996,0.342
		c-1.283-0.649-5.092-1.52-6.256-1.432c-0.594,0.044-1.338-0.183-1.713-0.523c-0.467-0.419-1.275-0.601-2.686-0.601
		c-1.828,0-2.119-0.108-3.064-1.146c-0.576-0.63-1.162-1.148-1.303-1.152c-0.141-0.006-0.977-0.216-1.855-0.467
		c-1.357-0.388-1.963-0.373-3.988,0.098c-1.312,0.304-3.1,0.553-3.971,0.553c-0.869,0-2.01,0.218-2.533,0.48
		c-0.523,0.266-1.943,0.567-3.156,0.672l-2.203,0.19v-1.123c0-0.996-0.205-1.228-1.803-2.044c-1.457-0.749-2.008-0.864-2.893-0.609
		c-1.738,0.497-1.955-0.148-0.662-1.98c0.621-0.88,1.127-1.729,1.127-1.886c0-0.468-1.246-1.455-1.838-1.455
		c-1.352,0-1.301-3.62,0.088-6.373l1.072-2.122l1.93,0.078c1.65,0.066,2.07-0.055,2.895-0.832c0.529-0.501,1.756-1.371,2.727-1.937
		c2.969-1.727,2.938-3.431-0.115-6.685c-0.691-0.738-1.219-1.485-1.17-1.66c0.047-0.175-0.027-0.571-0.166-0.88
		c-0.141-0.312-0.281-1.637-0.314-2.946c-0.031-1.311-0.156-2.479-0.277-2.601c-0.121-0.119-1.295-0.336-2.613-0.479
		c-2.127-0.232-2.482-0.182-3.184,0.455c-0.756,0.686-2.652,0.978-3.146,0.482c-0.127-0.129-0.049-0.639,0.178-1.133
		c0.225-0.495,0.408-1.285,0.408-1.76c0-0.537,0.479-1.297,1.271-2.023c1.195-1.096,1.25-1.239,0.924-2.421
		c-0.291-1.057-0.211-1.536,0.49-2.983c0.982-2.029,1.014-2.458,0.312-4.139c-0.721-1.727-0.678-1.931,0.439-2.06
		c0.748-0.086,1.172-0.491,1.852-1.774c0.525-0.993,1.52-2.108,2.467-2.769c2.365-1.641,2.82-2.304,2.82-4.102
		c0-1.331-0.191-1.774-1.199-2.781c-0.844-0.845-1.52-1.198-2.283-1.198c-0.799,0-1.246-0.256-1.701-0.97
		c-1.111-1.747-2.107-1.97-3.264-0.728c-1.049,1.127-0.918,2.244,0.35,2.991c1.322,0.781,1.221,1.574-0.256,1.998
		c-1.494,0.429-2.223,0.099-2.223-1.008c0-0.526-0.387-1.269-0.922-1.766c-0.564-0.523-0.84-1.066-0.709-1.407
		c0.117-0.305,0.02-1.271-0.215-2.151c-0.57-2.131-3.4-4.892-4.686-4.569c-0.727,0.184-0.957,0.008-1.57-1.194
		c-0.453-0.89-1.043-1.49-1.6-1.63c-0.531-0.133-0.963-0.554-1.092-1.063c-0.123-0.494-0.701-1.078-1.393-1.406
		c-0.65-0.309-1.287-0.9-1.414-1.319c-0.562-1.853-2.27-2.442-3.072-1.065c-0.156,0.267-0.475,0.482-0.711,0.482
		s-0.988,0.3-1.674,0.669c-0.922,0.492-1.789,0.638-3.328,0.552c-1.852-0.104-2.301,0.018-4.037,1.072
		c-3.086,1.876-6.713,2.439-6.713,1.043c0-0.256-0.248-0.715-0.553-1.02c-0.424-0.422-0.717-0.465-1.252-0.178
		c-0.598,0.319-0.914,0.139-2.195-1.258l-1.496-1.63l-1.834,0.243l-1.834,0.243v-86.021l0.25-86.643l2.432,0.488
		c2.764,0.554,2.916-0.2,4.582-2.571c0.777-1.109,1.26-0.22,0.609,1.124c-0.938,1.934-0.078,2.623,2.844,2.282
		c1.07-0.125,1.484-0.397,2.045-1.348c0.764-1.293,1.359-1.486,2.043-0.662c1.344,1.618,6.301-0.816,8.316-4.083
		c0.465-0.754,3.953-1.733,6.172-1.733c1.586,0,2.213-0.202,3.67-1.183c0.967-0.65,2.814-1.646,4.104-2.213
		c1.818-0.8,3.43-2.017,7.182-5.427c4.49-4.081,12.865-13.354,12.854-14.234c-0.008-0.542-0.377-1.002-1.48-1.848l-0.957-0.733
		l2.543-0.213c1.398-0.117,4.631-0.319,7.182-0.448l4.641-0.235l0.717,1.408c0.934,1.829,2.133,2.3,5.977,2.35
		c2.318,0.03,3.441-0.123,4.549-0.621c1.396-0.627,1.469-0.735,1.428-2.115c-0.037-1.21-0.41-1.928-2.223-4.274
		c-2.58-3.343-4.039-6.083-4.039-7.59c0-0.601-0.158-1.387-0.352-1.747c-0.311-0.581,0.158-0.921,4.141-3.015
		c2.613-1.372,5.105-2.434,5.953-2.536c1.066-0.129,1.582-0.401,1.904-1.004c0.244-0.455,0.576-0.746,0.738-0.646
		c0.273,0.17,5.158-0.358,6.914-0.748c0.76-0.169,0.793-0.078,0.793,2.104c0,4.037,1.426,8.661,2.668,8.661
		c0.297,0,1.002-0.239,1.566-0.532c0.949-0.49,1.395-0.452,5.711,0.491c4.137,0.904,4.951,0.982,6.977,0.671
		c3.301-0.507,3.74-0.755,5.105-2.891c0.678-1.058,1.391-2.022,1.586-2.144c0.195-0.121,0.357-0.46,0.357-0.753
		s0.475-1.224,1.057-2.07c0.582-0.845,1.059-1.859,1.059-2.252c0-0.668,1.609-2.507,2.193-2.507c0.146,0,0.678-0.625,1.184-1.39
		c1.076-1.625,2.359-2.057,3.84-1.289c0.551,0.286,1.598,0.621,2.326,0.744c1.029,0.174,1.416,0.453,1.754,1.268
		c0.238,0.575,0.729,1.205,1.094,1.399c0.52,0.278,0.586,0.498,0.305,1.021c-0.195,0.367-0.355,1.222-0.355,1.9
		c0,0.901-0.182,1.291-0.668,1.445c-1.193,0.378-1.273,2.411-0.176,4.428c0.525,0.966,0.859,1.853,0.744,1.969
		c-0.119,0.118-1.207-0.121-2.418-0.53c-1.213-0.409-2.807-0.744-3.545-0.744c-1.279,0-1.342,0.053-1.336,1.146
		c0.008,1.883,0.381,2.731,1.443,3.281c1.141,0.59,2.346,0.632,9.303,0.324c2.713-0.12,5.238-0.215,5.611-0.21
		c0.371,0.005,1.502,0.824,2.514,1.821c1.072,1.06,2.08,1.764,2.424,1.692c0.938-0.195,11.613-10.225,12.246-11.505
		c0.457-0.93,0.496-1.404,0.195-2.39c-0.359-1.166-0.307-1.3,1.002-2.643l1.383-1.414l0.297,1.16
		c0.475,1.843,1.184,2.393,3.086,2.393c1.629,0,1.693,0.042,2.121,1.322c0.244,0.727,0.703,2.591,1.02,4.142l0.576,2.82
		l-1.338,3.307l-1.34,3.307l2.814,2.974l2.816,2.974v162.311c0,89.271-0.047,162.309-0.102,162.309
		C394.244,372.615,393.904,372.099,393.542,371.47L393.542,371.47z"/>
	
		<path id="path3775" inkscape:connector-curvature="0" sodipodi:nodetypes="cscccscccssssscsscscssssssscsscssscssssscsscssscscssscsccssssssssssscsscssssssssssssssscssssssscsssscsssssssssssssscsssssssscscscscsssssscsssssssscsssscsscsssssssscsscssssssssscssssscsssssssscssscscssscscscsssssscscssssssscssssssccsssssscscccsscsssscsssscscsssssscscsssssssssccssccsscsssssscscc" fill="#F31830" stroke="#F31830" stroke-linecap="round" stroke-linejoin="round" stroke-miterlimit="3.9745" d="
		M442.199,422.076c-0.123-0.124-0.225-0.516-0.225-0.872c0-0.388-0.67-1.065-1.676-1.697c-0.92-0.577-1.465-1.054-1.209-1.057
		c0.857-0.013,3.223-2.269,3.23-3.079c0.006-0.79-2.164-3.273-2.859-3.273c-0.205,0,0.039-0.703,0.543-1.562
		c0.965-1.647,0.943-1.729-0.561-2.091c-0.783-0.188-1.043-0.562-1.516-2.187c-0.312-1.078-0.494-2.229-0.4-2.556
		c0.242-0.853-5.523-5.688-7.658-6.425c-0.904-0.312-2.018-0.919-2.477-1.351c-0.73-0.687-0.945-0.728-1.783-0.348
		c-0.752,0.344-0.908,0.604-0.748,1.25c0.17,0.672,0.064,0.815-0.596,0.815c-0.439,0-1.234,0.229-1.768,0.509
		c-0.881,0.459-1,0.443-1.322-0.156c-0.193-0.362-0.354-0.947-0.352-1.301c0-0.783,1.166-2.774,2.383-4.067l0.9-0.959l-1.307-1.967
		c-0.719-1.082-2.045-2.475-2.947-3.094c-0.904-0.619-2.289-1.711-3.08-2.424c-1.936-1.743-2.973-1.978-3.988-0.896
		c-0.684,0.727-1.07,0.829-2.803,0.75c-1.604-0.075-2.074-0.234-2.318-0.783c-0.275-0.618-0.609-0.678-3.182-0.576l-2.873,0.115
		l-0.014-1.313c-0.021-2.001-0.797-3.579-1.754-3.579c-0.439,0-0.881,0.208-0.979,0.461c-0.117,0.304-0.611,0.411-1.445,0.313
		c-1.254-0.146-1.266-0.165-1.057-1.48c0.172-1.075,0.037-1.594-0.705-2.688l-0.922-1.354V211.039
		c0-141.252-0.309-163.185,0.135-162.817c0.756,0.626,2.451,6.02,2.389,7.629c-0.031,0.792,0.137,1.521,0.387,1.679
		c0.725,0.461,4.016,0.328,6.639-0.269l2.457-0.56l1.727,1.108c2.629,1.688,2.604,1.579,1.357,5.359l-1.107,3.363l0.762,1.069
		c0.953,1.339,2.211,1.683,3.574,0.979c0.799-0.413,2.303-0.537,6.523-0.537h5.488l0.588-1.236c0.393-0.821,0.773-1.181,1.141-1.072
		c1.178,0.352,8.6,1.956,8.654,1.87c1.172-1.84,1.748-2.381,2.531-2.381c1.281,0,4.029-1.646,5.057-3.029
		c0.482-0.65,1.012-1.186,1.176-1.191c0.412-0.014,6.053,3.688,7.689,5.047l1.34,1.112l0.012,3.349
		c0.016,4.313,0.174,4.829,1.746,5.631c1.391,0.71,3.691,3.055,4.295,4.377c0.326,0.716,0.84,0.874,4.654,1.43
		c2.357,0.344,4.525,0.834,4.816,1.09s1.592,0.649,2.893,0.876c1.979,0.344,2.729,0.32,4.604-0.15
		c1.234-0.31,2.494-0.562,2.803-0.562c0.307,0,1.924,0.627,3.592,1.395c2.363,1.086,3.031,1.553,3.031,2.114
		c0,0.397,0.146,0.722,0.326,0.722c0.182,0,0.381,0.357,0.441,0.793c0.094,0.662,0.346,0.801,1.521,0.84
		c1.359,0.045,1.904,0.175,3.613,0.855c1.756,0.7,0.416,3.52-2.018,4.248c-1.465,0.438-1.76,0.973-1.77,3.195
		c-0.004,1.168,0.117,1.334,1.23,1.701c2.084,0.688,1.439,1.764-1.059,1.764c-0.646,0-1.428,0.096-1.732,0.214
		c-0.635,0.243-0.771,2.082-0.18,2.445c0.41,0.255,0.125,2.713-0.443,3.797c-0.266,0.505-0.441,0.553-0.836,0.225
		c-0.742-0.616-2.271-0.12-2.271,0.738c0,0.39-0.477,1.651-1.059,2.804c-1.293,2.563-1.312,3.071-0.139,3.606
		c0.85,0.387,0.902,0.542,0.705,2.019c-0.473,3.528-1.262,5.219-3.082,6.607c-0.943,0.719-1.713,1.445-1.713,1.611
		c0,0.168-0.459,0.973-1.021,1.787c-0.994,1.444-1.004,1.502-0.387,2.265c0.602,0.743,0.703,0.757,2.066,0.274
		c0.92-0.324,1.516-0.38,1.652-0.156c0.289,0.467-0.93,2.996-2.227,4.621c-0.576,0.72-1.24,2.006-1.48,2.859
		c-0.418,1.499-0.498,1.567-2.375,2.018c-1.068,0.257-1.988,0.636-2.043,0.843c-0.742,2.782-1.023,3.51-1.584,4.071
		c-0.385,0.383-0.947,0.582-1.346,0.479c-0.447-0.117-1.146,0.224-2.012,0.983l-1.324,1.164l0.223,2.832
		c0.305,3.873,0.549,4.552,2.059,5.748c0.721,0.57,2.031,1.927,2.918,3.015c1.281,1.573,1.564,2.157,1.389,2.858
		c-0.121,0.485-0.021,1.658,0.221,2.606c0.428,1.67,0.406,1.787-0.691,3.709c-1.156,2.021-1.17,2.44-0.084,3.021
		c0.584,0.312,1.688-0.015,3.729-1.104c0.52-0.277,0.777-0.229,1.096,0.208c0.232,0.315,0.912,0.57,1.525,0.57
		c0.961,0,1.105-0.123,1.105-0.929c0-0.625,0.502-1.43,1.539-2.467c0.848-0.847,1.707-1.54,1.91-1.54
		c0.205,0,0.643,0.708,0.973,1.575c0.52,1.364,0.689,1.528,1.26,1.223c0.549-0.293,0.816-0.119,1.631,1.057
		c1.184,1.713,2.344,1.851,4.623,0.548c0.842-0.481,1.6-0.877,1.682-0.877s0.305,0.405,0.492,0.901l0.342,0.899l1.146-0.826
		c0.631-0.454,1.662-1.004,2.293-1.222c1.092-0.377,1.146-0.354,1.146,0.479c0,0.479,0.16,1.176,0.357,1.543
		c0.508,0.948,3.648,0.846,7.035-0.23c3.207-1.021,3.775-1.039,4.062-0.133c0.258,0.81,0.145,0.783,3.922,0.898
		c2.846,0.086,3.814,0.365,4.846,1.396c0.479,0.479,0.479,0.671-0.002,1.821c-0.771,1.848-0.396,3.506,0.85,3.746
		c0.529,0.104,1.199-0.013,1.49-0.257c0.379-0.317,1.545-0.397,4.121-0.282l3.592,0.16l0.551,1.159
		c0.301,0.638,0.553,1.373,0.557,1.634c0.004,0.262,1.271,1.982,2.814,3.824c1.545,1.842,3.16,4.022,3.588,4.846
		c0.428,0.822,1.08,1.592,1.447,1.707c0.621,0.197,0.6,0.285-0.295,1.22c-0.891,0.928-0.93,1.091-0.52,2.081
		c0.244,0.592,0.566,1.074,0.713,1.074c0.148,0,0.354,0.318,0.453,0.705c0.197,0.752,1.785,1.008,2.189,0.354
		c0.354-0.573,2.33-0.404,4.385,0.377c1.457,0.553,2.326,0.673,3.613,0.495c2.105-0.29,2.207,0.167,0.482,2.181
		c-0.668,0.779-1.314,1.878-1.439,2.442c-0.428,1.937-0.41,1.922-1.475,1.368c-1.285-0.67-1.422-0.654-1.693,0.199
		c-0.271,0.852-3.85,4.457-5.621,5.66c-0.848,0.575-1.174,1.02-1.016,1.377c0.127,0.291,0.271,1.049,0.316,1.684
		c0.102,1.396,0.703,2.195,1.652,2.195c0.594,0,0.672,0.166,0.498,1.036c-0.158,0.793,0.059,1.451,0.926,2.8
		c0.623,0.969,1.309,1.771,1.525,1.782s0.664,0.734,0.998,1.607c0.693,1.817,1.246,1.97,3.256,0.892
		c0.895-0.479,1.43-0.585,1.723-0.342c0.242,0.2,1.059,0.252,1.885,0.12c1.131-0.181,1.613-0.093,2.145,0.388
		c0.461,0.416,1.012,0.559,1.666,0.43c1.668-0.33,6.092,1.161,6.092,2.053c0,0.236-0.225,0.965-0.498,1.619
		c-0.848,2.028-0.41,2.942,2.123,4.424c1.953,1.143,2.252,1.453,2.252,2.348c0,0.566-0.344,1.588-0.766,2.268
		c-0.535,0.869-0.752,1.754-0.725,2.978c0.033,1.453-0.158,2.017-1.168,3.421c-0.666,0.926-1.424,2.193-1.689,2.821l-0.479,1.139
		l3.998,3.974c3.029,3.011,4,4.192,4,4.879c0,0.497,0.096,1.157,0.213,1.465c0.16,0.42-0.01,0.557-0.689,0.557
		c-0.498,0-1.734,0.492-2.75,1.09c-1.588,0.937-1.902,1.017-2.23,0.565c-0.738-1.009-3.064-1.711-4.855-1.465
		c-0.967,0.133-1.674,0.41-1.674,0.664c0,0.236-0.396,0.808-0.883,1.261c-0.484,0.456-0.885,1.078-0.893,1.385
		c-0.008,0.305-0.318,1.19-0.693,1.966c-0.766,1.585-0.893,2.838-0.322,3.189c0.24,0.147,0.021,0.611-0.596,1.255
		c-0.732,0.764-1.303,1.019-2.279,1.019c-0.717,0-1.758,0.236-2.312,0.526c-0.557,0.291-1.273,0.528-1.6,0.529
		c-0.965,0.003-4.201,1.778-4.395,2.411c-0.52,1.691-1.168,2.354-2.477,2.525c-1.105,0.146-1.402,0.362-1.697,1.234
		c-0.197,0.581-0.598,1.256-0.889,1.499c-0.459,0.383-0.344,0.604,0.848,1.634c1.273,1.101,1.387,1.347,1.482,3.259
		c0.059,1.138,0.201,2.472,0.322,2.961c0.211,0.86,0.166,0.889-1.225,0.756c-0.805-0.076-1.668,0.05-1.947,0.281
		c-0.279,0.23-0.824,0.318-1.211,0.195c-0.566-0.18-0.85,0.056-1.428,1.188c-0.602,1.182-0.652,1.565-0.309,2.321
		c0.316,0.692,0.316,1.003,0,1.319c-0.682,0.68-0.471,1.329,0.432,1.329c0.463,0,0.939,0.259,1.062,0.573
		c0.232,0.606-0.34,1.542-0.943,1.542c-0.195,0-0.543,0.254-0.77,0.562c-0.367,0.503-0.533,0.462-1.535-0.382
		c-0.947-0.797-1.061-1.054-0.742-1.653c0.209-0.39,0.283-1.095,0.164-1.563c-0.117-0.472-0.051-1.158,0.146-1.529
		c0.537-1.004-1.072-1.989-3.758-2.298l-2.182-0.251l-0.24,1.274c-0.291,1.547-1.436,2.514-2.209,1.863
		c-0.281-0.236-1.164-0.688-1.963-1.004c-1.316-0.522-1.477-0.723-1.752-2.206c-0.395-2.12-1.23-2.374-3.697-1.126
		c-1.102,0.559-2.379,0.908-3.312,0.908c-2.342,0-3.072,0.703-3.031,2.922c0.018,1.011-0.088,2.665-0.23,3.675l-0.264,1.837
		l-3.129,1.12c-3.297,1.179-4.787,2.295-5.088,3.81c-0.1,0.504-0.432,1.673-0.736,2.6c-0.305,0.926-0.479,1.974-0.387,2.328
		c0.25,0.956-0.365,1.804-1.305,1.804c-0.455,0-1.32,0.461-1.922,1.022c-1.312,1.227-1.436,2.625-0.332,3.799
		c0.783,0.834,0.75,1.104-0.379,2.935c-0.18,0.29-0.508,1.021-0.73,1.624c-0.295,0.803-0.875,1.317-2.17,1.923
		c-0.973,0.456-1.91,1.095-2.084,1.421c-0.344,0.641,0.436,4.274,0.955,4.457c1.67,0.59,1.203,2.191-0.885,3.027
		c-0.973,0.388-1.445,0.811-1.525,1.353c-0.096,0.667-0.344,0.796-1.58,0.826c-0.807,0.02-1.729,0.254-2.051,0.521
		c-1.043,0.864-1.682,2.512-1.473,3.795c0.156,0.976,0.025,1.383-0.668,2.076c-0.562,0.562-0.865,1.266-0.865,2.007
		c0,0.918-0.381,1.52-1.938,3.058c-1.066,1.054-1.938,2.017-1.938,2.144c0,0.451,2.697,2.087,3.441,2.087
		c0.863,0,3.346,2.02,3.16,2.573c-0.064,0.197-0.904,0.375-1.863,0.393l-1.742,0.029l0.094,1.189
		c0.053,0.653-0.043,1.367-0.215,1.585c-0.17,0.22-0.414,0.954-0.543,1.632c-0.127,0.679-0.572,1.493-0.988,1.81l-0.758,0.575
		l0.764,0.97c0.443,0.563,0.775,1.507,0.791,2.246c0.041,1.929,0.83,6.471,1.078,6.222c0.123-0.121,1.211-0.256,2.42-0.297
		l2.201-0.073l1.908,4.047c1.051,2.229,2.24,4.4,2.645,4.832c0.609,0.646,0.695,1.047,0.504,2.325
		c-0.305,2.039-0.039,2.611,1.449,3.103c0.959,0.314,1.424,0.309,2.055-0.028c1.211-0.648,2.424-0.18,3.182,1.224l0.664,1.234
		l-1.074,1.154c-0.684,0.729-1.291,1.956-1.664,3.35c-0.322,1.21-0.586,2.268-0.586,2.352c0,0.086,0.594,0.348,1.32,0.581
		c0.729,0.235,2.168,0.741,3.201,1.123c1.764,0.649,1.863,0.75,1.623,1.625c-0.141,0.516-0.271,1.643-0.293,2.507
		c-0.035,1.459-0.119,1.595-1.184,1.901c-0.82,0.235-1.146,0.539-1.152,1.072c-0.006,0.408-0.318,1.139-0.697,1.624
		c-0.389,0.495-0.691,1.437-0.697,2.147c-0.008,1.134-0.156,1.336-1.396,1.896c-1.584,0.713-1.85,1.172-1.553,2.656
		c0.172,0.863,0.385,1.054,1.184,1.054c0.814,0,1,0.175,1.131,1.073c0.164,1.114,0.143,1.136-6.342,6.086
		c-0.305,0.23-0.652,0.156-1.094-0.244c-0.357-0.323-0.904-0.487-1.219-0.367c-0.367,0.14-1.113-0.245-2.078-1.074
		c-1.238-1.061-1.695-1.255-2.564-1.086c-1.23,0.238-1.938,1.047-1.938,2.213c0,0.454-0.26,1.224-0.576,1.708
		c-0.512,0.78-0.643,0.821-1.146,0.367c-0.312-0.282-1.006-0.621-1.539-0.755c-0.756-0.188-0.969-0.117-0.969,0.324
		c0,0.782-1.33,0.729-3.609-0.143c-2.133-0.812-5.1-1.244-6.381-0.922c-0.977,0.244-3.41,2.441-4.068,3.672
		c-0.287,0.536-0.322,1.157-0.109,1.932c0.316,1.144-0.082,2.728-0.686,2.728c-0.162,0-0.521-0.547-0.803-1.215
		c-0.363-0.874-0.984-1.454-2.207-2.065c-3.369-1.685-4.771-1.609-6.035,0.319c-1.039,1.588-3.516,2.706-5.852,2.64
		c-1.756-0.049-3.033,0.619-3.033,1.59C443.033,422.016,442.515,422.389,442.199,422.076L442.199,422.076z"/>
</g>
</svg>
