<?xml version="1.0" encoding="UTF-8" standalone="no"?>
<!-- Creator: CorelDRAW -->

<svg
   xmlns:dc="http://purl.org/dc/elements/1.1/"
   xmlns:cc="http://creativecommons.org/ns#"
   xmlns:rdf="http://www.w3.org/1999/02/22-rdf-syntax-ns#"
   xmlns:svg="http://www.w3.org/2000/svg"
   xmlns="http://www.w3.org/2000/svg"
   xmlns:sodipodi="http://sodipodi.sourceforge.net/DTD/sodipodi-0.dtd"
   xmlns:inkscape="http://www.inkscape.org/namespaces/inkscape"
   xml:space="preserve"
   width="406.00073"
   height="743.59998"
   shape-rendering="geometricPrecision"
   text-rendering="geometricPrecision"
   image-rendering="optimizeQuality"
   viewBox="0 0 4060.0074 7435.9998"
   id="svg3018"
   sodipodi:version="0.32"
   inkscape:version="0.47 r22583"
   sodipodi:docname="ZZ.svg"
   inkscape:output_extension="org.inkscape.output.svg.inkscape"
   version="1.1"
   style="fill-rule:evenodd"><metadata
   id="metadata3114"><rdf:RDF><cc:Work
       rdf:about=""><dc:format>image/svg+xml</dc:format><dc:type
         rdf:resource="http://purl.org/dc/dcmitype/StillImage" /><dc:title /><dc:date /><dc:creator><cc:Agent><dc:title /></cc:Agent></dc:creator><dc:rights><cc:Agent><dc:title /></cc:Agent></dc:rights><dc:publisher><cc:Agent><dc:title /></cc:Agent></dc:publisher><dc:identifier /><dc:source /><dc:relation /><dc:language /><dc:subject><rdf:Bag /></dc:subject><dc:coverage /><dc:description /><dc:contributor><cc:Agent><dc:title /></cc:Agent></dc:contributor><cc:license
         rdf:resource="" /></cc:Work></rdf:RDF></metadata><defs
   id="defs3112"><inkscape:perspective
     sodipodi:type="inkscape:persp3d"
     inkscape:vp_x="0 : 386.5 : 1"
     inkscape:vp_y="0 : 1000 : 0"
     inkscape:vp_z="600 : 386.5 : 1"
     inkscape:persp3d-origin="300 : 257.66667 : 1"
     id="perspective2779" /><inkscape:perspective
     id="perspective2877"
     inkscape:persp3d-origin="0.5 : 0.33333333 : 1"
     inkscape:vp_z="1 : 0.5 : 1"
     inkscape:vp_y="0 : 1000 : 0"
     inkscape:vp_x="0 : 0.5 : 1"
     sodipodi:type="inkscape:persp3d" /></defs><sodipodi:namedview
   inkscape:window-height="1004"
   inkscape:window-width="1280"
   inkscape:pageshadow="2"
   inkscape:pageopacity="0.0"
   guidetolerance="10.0"
   gridtolerance="10.0"
   objecttolerance="10.0"
   borderopacity="1.0"
   bordercolor="#666666"
   pagecolor="#ffffff"
   id="base"
   inkscape:zoom="1.6184598"
   inkscape:cx="173.76887"
   inkscape:cy="503.36844"
   inkscape:window-x="-8"
   inkscape:window-y="-8"
   inkscape:current-layer="svg3018"
   showgrid="false"
   inkscape:window-maximized="1" />
 
 
<path
   d="m 2920.8212,6873 c -6,10 -18,30 -21,50 -12,-7 -25,-15 -38,-23 -3,9 -5,18 -8,27 -14,-6 -28,-13 -42,-19 1,15 3,31 4,46 -27,-18 -54,-36 -81,-54 -32,-1 -64,-2 -96,-4 0,25 0,49 0,73 -16,-9 -33,-18 -49,-27 -45,-7 -56,5 -35,39 -42,20 -71,11 -88,-27 -17,18 -31,38 -42,61 -54,-2 -105,-22 -154,-61 30,40 57,81 69,127 -38,-13 -72,-36 -100,-69 32,37 49,74 -30,111 -36,-22 -45,-51 -27,-88 -41,7 -60,32 -58,76 -81,-6 -130.0001,6 -111.0001,58 -69,13 -138,25 -207,38 -8,32 -4,64 -54,96 -13,-15 -8,-30 0,-46 -7,14 -22,28 -39,42 -5,-16 -5,-33 0,-50 -70,14 -136,34 -184,77 -36,-5 -71,-10 -107,-15 -11,-22 -22,-44 0,-65 -30,51 -84,112 -117,172 -38,3 -67,5 -106,8 86,-46 157,-96 154,-150 -22,20 -44,39 -66,58 -1,-9 -2,-18 -3,-27 45,-26 48,-40 11,-42 -33,-9 -66,-18 -100,-27 53,-14 51,-28 -4,-42 4,-56 28,-107 73,-154 -56,32 -112,64 -169,96 -10,-22 -3,-40 20,-54 -21,22 -41,31 -62,27 18,-30 45,-61 27,-92 -32,-6 -64,-13 -95.99997,-19 -27,-10 -54,-20 -80,-31 -36,-67 -62,-81 -81,-42 0,-27 0,-54 0,-81 -33,15 -53,45 -61,93 -22,-41 -44,-75 -66,-58 -26,-60 -44,-111 4,-96 -13,-41 -25,-82 -38,-123 10,-10 20,-20 30,-30 -8,-35 -17,-70 -26,-104 41,25 58,1 50,-73 36,-26 45,-51 15,-77 26,-33 15,-66 0,-100 14,-6 42,-4 4,-46 -23,-85 0,-97 69,-34 -16,-30 -31,-59 -46,-88 -14,-63 -28,-126 -42,-189 -52,-27 -62,-66 -31,-119 16,-42 28,-84 19,-119 16,-35 -5,-64 -31,-92 -35,-33 -59,-73 -11,-157 -58,-10 -37,-49 -4,-92 -1,-15 -3,-31 -4,-46 9,-35 35,-52 77,-54 11,-40 23,-79 34,-119 21,4 41,8 62,12 -30,-48 -46,-95 -35,-142 15,12 51,12 108,0 18,70 32,70 42,0 31,10 60.99997,-4 91.99997,-43 37,-11 41,-30 12,-57 -28,-36 -81.99997,-89 -4,-54 -2,-8 -3,-15 -4,-23 3,-39 18,-36 46,8 11,-34 23,-67 35,-100 26,-76 53,-77 80,-4 42,-102 92,-192 192,-203 -13,-93 12,-124 73,-92 -15,-65 20,-118 104,-158 4,-72 50,-136 138,-192 19,-64 38,-128 57,-192 35,-34 69,-50 104,-50 28,-49 56,-46 84,8 40,39 58,27 54,-38 -72,-55 -65,-67 19,-35 0,-53 -21,-98 -65,-134 17,-56 28,-113 27,-169 18,-88 -18,-116 -61,-134 -40,-42 -80,-57 -119,-46 -23,-63 -56,-118 -165,-121 l -70,-248 c -47,29 -149,-217 -7,-322 -3,-80 9,-135 34,-165 -75,-123 -124,-236 -115,-330 36,-11 50,-43 42,-96 -97,-18 -116,-60 -57,-127 -40,-151 -31,-240 50,-242 l -104,-92 c 1,-62 -15,-81 -50,-57 9,-102 -62,-179 -188,-238 -69,0 -110,-24 -123,-73 l -72.99997,-66 -76,-96 -85,-88.00005 -34,-84 42,-38.99999 15,-57 -11,-85 c 47,-68 104,-75 171.99997,-23 l 119,256.99999 46,154.00005 c 31,-16 62,-11 93,15 48,-2 89,17 122,58 l 131,-65 27,-89.00005 c 55,10 104,40.00005 146,92.00005 76,6 127,43 153,112 l 42,-50 c 23,-136.00005 62,-219.00005 135,-184.00005 l 50.0001,-104 -27.0001,-256.99999 30.0001,-142 12,-100 115,-138 c 16,-49 53,-70 111,-62 53,41 91,28 116,-38.000008 l 76,-61 101,-23.9999993 c -18,97.0000073 23,136.0000073 91,148.0000073 22,55 101,89 201,115 l 67,168 c -86,123 -126,214 -120,273 l 53,44 -125,128.99999 92,14 c -5,84 -27,167.00005 -68,250.00005 l 72,235 187,62 c 64,171 131,249 202,264 l -5,134 c -84,145 -155,294 -211,446 l 144,288 c 39,133 85,216 139,249 l 101,370 c -39,-37 -77,-18 -116,9 l 44,53 c -35,31 -44,87 -29,168 -52,56 -50,80 5,72 58,35 53,70 19,105 -77,24 -46,107 33,216 44,-28 81,-17 111,34 15,63 -12,78 -34,86 l -5,62 29,91 115,72 c 36,6 50,33 43,82 50,53 36,114 -43,182 -24,55 -57,96 -96,129 l 163,168 168,106 115,124 c 89,82 131,151 91,197 -25,151 -71,283 -139,398 -103,104 -186,233 -254,379 l -129,221 -43,57 -173,211 -91,154 c -99,62 -186,181 -285,298 z"
   id="path2300"
   style="fill:#ffffff;fill-opacity:1;stroke:#003580;stroke-width:20;stroke-miterlimit:4;stroke-opacity:1;stroke-dasharray:none" /><path
   style="fill:#003580;fill-opacity:1;fill-rule:evenodd;stroke:#003580;stroke-width:10.02867317px;stroke-linecap:butt;stroke-linejoin:miter;stroke-opacity:1"
   d="m 2601.8799,9.8750627 -100.9375,24.0624993 -76.25,60.9375 c -25,66.000008 -62.9376,79.125008 -115.9375,38.125008 -58,-8 -94.9375,12.87499 -110.9375,61.875 l -115,138.125 -11.875,100 -30,141.875 26.875,257.18748 -50,104.0625 c -42.3713,-20.315 -73.2679,-0.857 -96.25,45.625 l 0,2345.00005 c 1.4735,1.474 2.9015,2.8278 4.375,4.375 43,18 78.9376,45.7499 60.9375,133.75 1,56 -10.1876,113.0624 -27.1875,169.0625 44,36 64.9999,81.0625 65,134.0625 -84,-32 -90.7499,-20 -18.75,35 4,65 -14.0624,77.1251 -54.0625,38.125 -10.0797,-19.4394 -20.2328,-32.2631 -30.3125,-38.4375 l 0,3383.125 c 30.7409,-5.5716 61.4465,-11.0831 92.1875,-16.875 -19,-52 29.9374,-63.8124 110.9375,-57.8125 -2,-44 17.125,-69.2501 58.125,-76.25 -18,37 -9.1251,66.125 26.875,88.125 79,-37 61.9999,-73.9377 30,-110.9375 28,33 61.9999,56.0626 100,69.0625 -12,-46 -38.7499,-87.1873 -68.75,-127.1875 49,39 99.7499,58.9374 153.75,60.9375 11,-23 25.1876,-42.9373 42.1875,-60.9375 17,38 45.8124,47.1876 87.8125,27.1875 -21,-34 -10.0001,-46.0627 35,-39.0625 16,9 33.0624,17.8752 49.0625,26.875 0,-24 -10e-5,-47.8124 0,-72.8125 32,2 63.9374,2.7499 95.9375,3.75 0.935,0.623 1.8773,1.2516 2.8125,1.875 l 0,-6691.56253 c -21.2189,-15.03061 -36.7178,-32.26312 -44.6875,-52.1875 -68,-12 -108.9374,-51.125 -90.9375,-148.1250073 z"
   id="rect2526" /><path
   style="fill:#003580;fill-opacity:1;stroke:none"
   d="m 1435.9424,1935.8126 c -3.7615,32.9455 26.1336,55.336 90,67.1875 8,53 -6.1876,84.9374 -42.1875,95.9375 -9,94 39.9999,206.9999 115,330 -25,30 -37.0625,84.9999 -34.0625,165 -53.925,39.8741 -72.576,100.0528 -72.5,157.8125 l 1759.0625,0 c -25.3173,-42.6679 -48.3026,-100.0129 -69.375,-171.875 l -144.0625,-287.8125 c 44.5115,-120.8169 98.7893,-239.726 161.25,-356.25 l -1763.125,0 z"
   id="path3025" /><path
   style="fill:#ffffff;fill-opacity:1;stroke:#003580;stroke-width:20;stroke-miterlimit:4;stroke-opacity:1;stroke-dasharray:none"
   id="path3027"
   d="m 889.82353,7049.0001 c -62,-4 -83,-35 -62,-94 l 52,27 c -38,17 -26,40 10,67 z" /><path
   style="fill:#ffffff;fill-opacity:1;stroke:#003580;stroke-width:20;stroke-miterlimit:4;stroke-opacity:1;stroke-dasharray:none"
   id="path3029"
   d="m 971.82353,7149.0001 c 17,-19 31.99997,-40 30.99997,-64 -25.99997,-20 -52.99997,-30 -83.99997,-17 -17,16 3,29 60,41 -25,9 -12,25 -7,40 z" /><path
   style="fill:#ffffff;fill-opacity:1;stroke:#003580;stroke-width:20;stroke-miterlimit:4;stroke-opacity:1;stroke-dasharray:none"
   id="path3031"
   d="m 813.82353,7178.0001 c 42,-23 33,-31 -27,-26 -9,20 -7,40 -2,60 9,-12 19,-23 29,-34 z" /><path
   style="fill:#ffffff;fill-opacity:1;stroke:#003580;stroke-width:20;stroke-miterlimit:4;stroke-opacity:1;stroke-dasharray:none"
   id="path3033"
   d="m 886.82353,7195.0001 c -22,-20 -35,-41 14,-62 4,21 0,42 -14,62 z" /><path
   style="fill:#ffffff;fill-opacity:1;stroke:#003580;stroke-width:20;stroke-miterlimit:4;stroke-opacity:1;stroke-dasharray:none"
   id="path3035"
   d="m 713.82353,7205.0001 c 37,5 51,-15 42,-57 -48,17 -55,36 -42,57 z" /><path
   style="fill:#ffffff;fill-opacity:1;stroke:#003580;stroke-width:20;stroke-miterlimit:4;stroke-opacity:1;stroke-dasharray:none"
   id="path3037"
   d="m 695.82353,6930.0001 c 10,-22 -1,-40 -32,-53 -10,27 0,45 32,53 z" /><path
   style="fill:#ffffff;fill-opacity:1;stroke:#003580;stroke-width:20;stroke-miterlimit:4;stroke-opacity:1;stroke-dasharray:none"
   id="path3039"
   d="m 1768.8235,3753.0001 c -29,-36 -18,-63 81,-70 13,28 37,26 60,27 -24,9 -47,14 -71,-3 21,48 -2,58 -31,64 4,-14 8,-28 12,-41 -17,24 -34,25 -51,23 z" /><path
   style="fill:#ffffff;fill-opacity:1;stroke:#003580;stroke-width:20;stroke-miterlimit:4;stroke-opacity:1;stroke-dasharray:none"
   id="path3041"
   d="m 147.82353,7018.0001 c 2,30 -12,59 -42,89 -16.000001,-23 -12.000001,-45 -5,-68 -44.000001,29 -56.000001,60 -35.000001,94 16,53 43.000001,74 82.000001,63 19,10 43,41 37,-28 -9,-26 -19,-50 -9,-94 9,34 24,52 47,54 33,3 41,-33 51,-68 -30,-42 -68,-69 -121,-61 4,-14 5,-28 -14,-42 -49.000001,63 -18,60 9,61 z" /><path
   style="fill:#ffffff;fill-opacity:1;stroke:#003580;stroke-width:20;stroke-miterlimit:4;stroke-opacity:1;stroke-dasharray:none"
   id="path3043"
   d="m 18.823529,7154.0001 c -19.9999992,-56 -6,-87 42,-91 -9,36 -23,68 -42,91 z" /><path
   style="fill:#ffffff;fill-opacity:1;stroke:#003580;stroke-width:20;stroke-miterlimit:4;stroke-opacity:1;stroke-dasharray:none"
   id="path3045"
   d="m 182.82353,7214.0001 c 19,29 39,46 58,52 5,-21 0,-42 -14,-63 -23,-11 -34,-1 -44,11 z" /><path
   style="fill:#ffffff;fill-opacity:1;stroke:#003580;stroke-width:20;stroke-miterlimit:4;stroke-opacity:1;stroke-dasharray:none"
   id="path3047"
   d="m 261.82353,7158.0001 c -31,6 -22,28 -7,52 19,-14 31,-29 7,-52 z" /><path
   style="fill:#ffffff;fill-opacity:1;stroke:#003580;stroke-width:20;stroke-miterlimit:4;stroke-opacity:1;stroke-dasharray:none"
   id="path3049"
   d="m 355.82353,7228.0001 c 20,-6 33,1 40,21 -23,5 -36,-2 -40,-21 z" /><path
   style="fill:#ffffff;fill-opacity:1;stroke:#003580;stroke-width:20;stroke-miterlimit:4;stroke-opacity:1;stroke-dasharray:none"
   id="path3057"
   d="m 746.82353,4964.0001 c 17,20 27,37 -21,42 -12,41 -24,45 -36,13 -19,-12 -35,-25 -27,-38 -13,-25 -6,-32 23,-23 1,51 26,42 61,6 z" /><path
   style="fill:#ffffff;fill-opacity:1;stroke:#003580;stroke-width:20;stroke-miterlimit:4;stroke-opacity:1;stroke-dasharray:none"
   id="path3059"
   d="m 709.82353,4914.0001 c 23,-19 41,-14 39,11 -17,21 -30,17 -39,-11 z" /><path
   style="fill:#ffffff;fill-opacity:1;stroke:#003580;stroke-width:20;stroke-miterlimit:4;stroke-opacity:1;stroke-dasharray:none"
   id="path3061"
   d="m 1016.8235,4947.0001 c -27.99997,-23 -51.99997,-26 -64.99997,15 26,8 47,0 64.99997,-15 z" /><ellipse
   style="fill:#ffffff;fill-opacity:1;stroke:#003580;stroke-width:20;stroke-miterlimit:4;stroke-opacity:1;stroke-dasharray:none"
   sodipodi:ry="11"
   sodipodi:rx="7"
   sodipodi:cy="7208"
   sodipodi:cx="1703"
   id="ellipse3063"
   ry="11"
   rx="7"
   cy="7208"
   cx="1703"
   transform="translate(-847.17607,-120.99993)" /><ellipse
   style="fill:#ffffff;fill-opacity:1;stroke:#003580;stroke-width:20;stroke-miterlimit:4;stroke-opacity:1;stroke-dasharray:none"
   sodipodi:ry="7"
   sodipodi:rx="4"
   sodipodi:cy="7433"
   sodipodi:cx="1334"
   id="ellipse3065"
   ry="7"
   rx="4"
   cy="7433"
   cx="1334"
   transform="translate(-847.17607,-120.99993)" /><ellipse
   style="fill:#ffffff;fill-opacity:1;stroke:#003580;stroke-width:20;stroke-miterlimit:4;stroke-opacity:1;stroke-dasharray:none"
   sodipodi:ry="7"
   sodipodi:rx="4"
   sodipodi:cy="7345"
   sodipodi:cx="1175"
   id="ellipse3067"
   ry="7"
   rx="4"
   cy="7345"
   cx="1175"
   transform="translate(-847.17607,-120.99993)" /><ellipse
   style="fill:#ffffff;fill-opacity:1;stroke:#003580;stroke-width:20;stroke-miterlimit:4;stroke-opacity:1;stroke-dasharray:none"
   sodipodi:ry="7"
   sodipodi:rx="4"
   sodipodi:cy="7109"
   sodipodi:cx="1606"
   id="ellipse3071"
   ry="7"
   rx="4"
   cy="7109"
   cx="1606"
   transform="translate(-847.17607,-120.99993)" /><ellipse
   style="fill:#ffffff;fill-opacity:1;stroke:#003580;stroke-width:20;stroke-miterlimit:4;stroke-opacity:1;stroke-dasharray:none"
   sodipodi:ry="7"
   sodipodi:rx="4"
   sodipodi:cy="7133"
   sodipodi:cx="1511"
   id="ellipse3073"
   ry="7"
   rx="4"
   cy="7133"
   cx="1511"
   transform="translate(-847.17607,-120.99993)" /><ellipse
   style="fill:#ffffff;fill-opacity:1;stroke:#003580;stroke-width:20;stroke-miterlimit:4;stroke-opacity:1;stroke-dasharray:none"
   sodipodi:ry="7"
   sodipodi:rx="4"
   sodipodi:cy="7151"
   sodipodi:cx="1297"
   id="ellipse3075"
   ry="7"
   rx="4"
   cy="7151"
   cx="1297"
   transform="translate(-847.17607,-120.99993)" /><ellipse
   style="fill:#ffffff;fill-opacity:1;stroke:#003580;stroke-width:20;stroke-miterlimit:4;stroke-opacity:1;stroke-dasharray:none"
   sodipodi:ry="7"
   sodipodi:rx="4"
   sodipodi:cy="7137"
   sodipodi:cx="1144"
   id="ellipse3077"
   ry="7"
   rx="4"
   cy="7137"
   cx="1144"
   transform="translate(-847.17607,-120.99993)" /><ellipse
   style="fill:#ffffff;fill-opacity:1;stroke:#003580;stroke-width:20;stroke-miterlimit:4;stroke-opacity:1;stroke-dasharray:none"
   sodipodi:ry="7"
   sodipodi:rx="4"
   sodipodi:cy="7299"
   sodipodi:cx="1266"
   id="ellipse3079"
   ry="7"
   rx="4"
   cy="7299"
   cx="1266"
   transform="translate(-847.17607,-120.99993)" /><ellipse
   style="fill:#ffffff;fill-opacity:1;stroke:#003580;stroke-width:20;stroke-miterlimit:4;stroke-opacity:1;stroke-dasharray:none"
   sodipodi:ry="7"
   sodipodi:rx="4"
   sodipodi:cy="7177"
   sodipodi:cx="1363"
   id="ellipse3081"
   ry="7"
   rx="4"
   cy="7177"
   cx="1363"
   transform="translate(-847.17607,-120.99993)" /><ellipse
   style="fill:#ffffff;fill-opacity:1;stroke:#003580;stroke-width:20;stroke-miterlimit:4;stroke-opacity:1;stroke-dasharray:none"
   sodipodi:ry="7"
   sodipodi:rx="4"
   sodipodi:cy="7329"
   sodipodi:cx="1711"
   id="ellipse3083"
   ry="7"
   rx="4"
   cy="7329"
   cx="1711"
   transform="translate(-847.17607,-120.99993)" /><ellipse
   style="fill:#ffffff;fill-opacity:1;stroke:#003580;stroke-width:20;stroke-miterlimit:4;stroke-opacity:1;stroke-dasharray:none"
   sodipodi:ry="19"
   sodipodi:rx="13"
   sodipodi:cy="6962"
   sodipodi:cx="1477"
   id="ellipse3089"
   ry="19"
   rx="13"
   cy="6962"
   cx="1477"
   transform="translate(-847.17607,-120.99993)" /><path
   style="fill:#ffffff;fill-opacity:1;stroke:#003580;stroke-width:20;stroke-miterlimit:4;stroke-opacity:1;stroke-dasharray:none"
   id="path3091"
   d="m 993.82353,7057.0001 c 20.99997,-2 42.99997,-10 63.99997,-22 0,19 -9,39 -26,58 -13,-12 -25,-24 -37.99997,-36 z" /><ellipse
   style="fill:#ffffff;fill-opacity:1;stroke:#003580;stroke-width:20;stroke-miterlimit:4;stroke-opacity:1;stroke-dasharray:none"
   sodipodi:ry="7"
   sodipodi:rx="4"
   sodipodi:cy="7438"
   sodipodi:cx="1370"
   id="ellipse3093"
   ry="7"
   rx="4"
   cy="7438"
   cx="1370"
   transform="translate(-847.17607,-120.99993)" /><ellipse
   style="fill:#ffffff;fill-opacity:1;stroke:#003580;stroke-width:20;stroke-miterlimit:4;stroke-opacity:1;stroke-dasharray:none"
   sodipodi:ry="7"
   sodipodi:rx="4"
   sodipodi:cy="7241"
   sodipodi:cx="1582"
   id="ellipse3095"
   ry="7"
   rx="4"
   cy="7241"
   cx="1582"
   transform="translate(-847.17607,-120.99993)" /><path
   style="fill:#ffffff;fill-opacity:1;stroke:#003580;stroke-width:20;stroke-miterlimit:4;stroke-opacity:1;stroke-dasharray:none"
   id="path3097"
   d="m 642.82353,7160.0001 c 38,5 37,9 28,-33 -44,-7 -40,12 -28,33 z" /><path
   style="fill:#ffffff;fill-opacity:1;stroke:#003580;stroke-width:20;stroke-miterlimit:4;stroke-opacity:1;stroke-dasharray:none"
   id="path3099"
   d="m 642.82353,6934.0001 c 2,-22 21,-39 -10,-52 1,27 -21,44 10,52 z" /><path
   style="fill:#ffffff;fill-opacity:1;stroke:#003580;stroke-width:20;stroke-miterlimit:4;stroke-opacity:1;stroke-dasharray:none"
   id="path3101"
   d="m 1166.8235,4589.0001 c 28,-31 56,-18 85,14 -29,4 -57,-1 -85,-14 z" /><circle
   style="fill:#ffffff;fill-opacity:1;stroke:#003580;stroke-width:20;stroke-miterlimit:4;stroke-opacity:1;stroke-dasharray:none"
   sodipodi:ry="19"
   sodipodi:rx="19"
   sodipodi:cy="4759"
   sodipodi:cx="2036"
   id="circle3103"
   r="19"
   cy="4759"
   cx="2036"
   transform="translate(-847.17607,-120.99993)" /><path
   d="m 2920.8213,6872.9997 c -6,10 -18,30 -21,50 -12,-7 -25,-15 -38,-23 -3,9 -5,18 -8,27 -14,-6 -28,-13 -42,-19 1,15 3,31.0002 4,46.0002 -27,-18 -54,-36.0002 -81,-54.0002 -32,-1 -64,-2 -96,-4 0,25 0,49.0002 0,73.0002 -16,-9 -33,-18 -49,-27 -45,-7 -56,5 -35,39 -42,20 -71.0001,11 -88.0001,-27 -17,18 -31,38 -42,61 -54,-2 -105,-22 -154,-61 30,40 57,81 69,127.0002 -38,-13 -72,-36.0002 -100,-69.0002 32,37 49,74.0002 -30,111.0002 -36,-22 -45,-51 -27,-88.0002 -41,7 -60,32.0002 -58,76.0002 -81,-6 -130.0001,6 -111.0001,58 -69,13 -138,25 -207,38 -8,32 -4,64 -54,96 -13,-15 -8,-30 0,-46 -7,14 -22,28 -39,42 -5,-16 -5,-33 0,-50 -70,14 -136,34 -184,77 -36,-5 -71,-10 -107,-15 -11,-22 -22,-44 0,-65 -30,51 -84,112 -117,172 -38,3 -67,5 -106,8 86,-46 157,-96 154,-150 -22,20 -44,39 -66,58 -1,-9 -2,-18 -3,-27 45,-26 48,-40 11,-42 -33,-9 -66,-18 -100,-27 53,-14 51,-28 -4,-42 4,-56 28,-107 73,-154.0002 -56,32.0002 -112,64.0002 -169,96.0002 -10,-22 -3,-40 20,-54 -21,22 -41,31 -62,27 18,-30 45,-61.0002 27,-92.0002 -32,-6 -64,-13 -95.99997,-19 -27,-10 -54,-20 -80,-31 -36,-67.0002 -62,-81.0002 -81,-42.0002 0,-27 0,-54 0,-81 -33,15 -53,45 -61,93.0002 -22,-41.0002 -44,-75.0002 -66,-58.0002 -26,-60 -44,-111 4,-96 -13,-41 -25,-82 -38,-123 10,-10 20,-20 30,-30 -8,-35 -17,-70 -26,-104 41,25 58,1 50,-73 36,-26 45,-51 15,-77 26,-33 15,-66 0,-100 14,-6 42,-4 4,-46 -23,-85 0,-97 69,-34 -16,-30 -31,-59 -46,-88 -14,-63 -28,-126 -42,-189 -52,-27 -62,-66 -31,-119 16,-42 28,-84 19,-119 16,-35 -5,-64 -31,-92 -35,-33 -59,-73 -11,-157 -58,-10 -37,-49 -4,-92 -1,-15 -3,-31 -4,-46 9,-35 35,-52 77,-54 11,-40 23,-79 34,-119 21,4 41,8 62,12 -30,-48 -46,-95 -35,-142 15,12 51,12 108,0 18,70 32,70 42,0 31,10 60.99997,-4 91.99997,-43 37,-11 41,-30 12,-57 -28,-36 -81.99997,-89 -4,-54 -2,-8 -3,-15 -4,-23 3,-39 18,-36 46,8 11,-34 23,-67 35,-100 26,-76 53,-77 80,-4 42,-102 92,-192 192,-203 -13,-93 12,-124 73,-92 -15,-65 20,-118 104,-158 4,-72 50,-136 138,-192 19,-64 38,-128 57,-192 35,-34 69,-50 104,-50 28,-49 56,-46 84,8 40,39 58,27 54,-38 -72,-55 -65,-67 19,-35 0,-53 -21,-98 -65,-134 17,-56 28,-113 27,-169 18,-88 -18,-116 -61,-134 -40,-42 -80,-57 -119,-46 -23,-63 -56,-118 -165,-121 l -70,-248 c -47,29 -149,-217 -7,-322 -3,-80 9,-135 34,-165 -75,-123 -124,-236 -115,-330 36,-11 50,-43 42,-96 -97,-18 -116,-60 -57,-127 -40,-151 -31,-240 50,-242 l -104,-92 c 1,-62 -15,-81 -50,-57 9,-102 -62,-179 -188,-238 -69,0 -110,-24 -123,-73 l -72.99997,-66 -76,-96 -85,-88.00005 -34,-84 42,-38.99997 15,-57 -11,-85 c 47,-68 104,-75 171.99997,-23 l 119,256.99997 46,154.00005 c 31,-16 62,-11 93,15 48,-2 89,17 122,58 l 131,-65 27,-89.00005 c 55,10 104,40.00005 146,92.00005 76,6 127,43 153,112 l 42,-50 c 23,-136.00005 62,-219.00005 135,-184.00005 l 50.0001,-104 -27.0001,-256.99997 30.0001,-142 12,-100 115,-138 c 16,-49 53,-70 111,-62 53,41 91,28 116,-38.000008 l 76,-61 101.0001,-23.9999993 c -18,97.0000073 23,136.0000073 91,148.0000073 22,55 101,89 201,115 l 67,168 c -86,123 -126,214 -120,273 l 53,44 -125,128.99997 92,14 c -5,84 -27,167.00005 -68,250.00005 l 72,235 187,62 c 64,171 131,249 202,264 l -5,134 c -84,145 -155,294 -211,446 l 144,288 c 39,133 85,216 139,249 l 101,370 c -39,-37 -77,-18 -116,9 l 44,53 c -35,31 -44,87 -29,168 -52,56 -50,80 5,72 58,35 53,70 19,105 -77,24 -46,107 33,216 44,-28 81,-17 111,34 15,63 -12,78 -34,86 l -5,62 29,91 115,72 c 36,6 50,33 43,82 50,53 36,114 -43,182 -24,55 -57,96 -96,129 l 163,168 168,106 115,124 c 89,82 131,151 91,197 -25,151 -71,283 -139,398 -103,104 -186,233 -254,379 l -129,221 -43,57 -173,211 -91,154 c -99,62 -186,181 -285,298 z"
   id="path5491"
   style="fill:none;stroke:none" /><path
   style="fill:#ffffff;fill-opacity:1;stroke:none"
   d=""
   id="path2795" /><path
   style="fill:#ffffff;fill-opacity:1;stroke:none"
   d=""
   id="path2797" /><path
   style="fill:#ffffff;fill-opacity:1;stroke:none"
   d=""
   id="path2434" /><path
   style="fill:#ffffff;fill-opacity:1;stroke:#003580;stroke-width:20;stroke-miterlimit:4;stroke-opacity:1;stroke-dasharray:none"
   id="path3055"
   d="m 1214.8235,7084.0001 c -18,12 -36,26 -50,53 -27,-1 -54,3 -81,16 -14,7 -33,9 -52,12 13,27 39,31 67,31 -56,-4 -83,5 -46,42 -15,0 -31,0 -46,0 -8.99997,33 2,54 58,50 9,-11 18,-22 27,-33 1,11 1,22 2,33 43,-5 81,-23 87,-130 22,-25 35,-49 34,-74 z" /></svg>