<?xml version="1.0" encoding="utf-8"?>
<!-- Generator: Adobe Illustrator 16.0.0, SVG Export Plug-In . SVG Version: 6.00 Build 0)  -->
<!DOCTYPE svg PUBLIC "-//W3C//DTD SVG 1.1//EN" "http://www.w3.org/Graphics/SVG/1.1/DTD/svg11.dtd">
<svg version="1.1"
	 id="svg3018" text-rendering="geometricPrecision" shape-rendering="geometricPrecision" image-rendering="optimizeQuality" xmlns:dc="http://purl.org/dc/elements/1.1/" xmlns:cc="http://creativecommons.org/ns#" xmlns:svg="http://www.w3.org/2000/svg" xmlns:rdf="http://www.w3.org/1999/02/22-rdf-syntax-ns#" xmlns:sodipodi="http://sodipodi.sourceforge.net/DTD/sodipodi-0.dtd" xmlns:inkscape="http://www.inkscape.org/namespaces/inkscape" inkscape:version="0.47 r22583" sodipodi:docname="ZZ.svg" sodipodi:version="0.32" inkscape:output_extension="org.inkscape.output.svg.inkscape"
	 xmlns="http://www.w3.org/2000/svg" xmlns:xlink="http://www.w3.org/1999/xlink" x="0px" y="0px" width="349px" height="456px"
	 viewBox="0 0 349 456" enable-background="new 0 0 349 456" xml:space="preserve">
<defs>
	
	
		<inkscape:perspective  id="perspective2779" inkscape:vp_z="600 : 386.5 : 1" sodipodi:type="inkscape:persp3d" inkscape:vp_x="0 : 386.5 : 1" inkscape:vp_y="0 : 1000 : 0" inkscape:persp3d-origin="300 : 257.66667 : 1">
		</inkscape:perspective>
	
		<inkscape:perspective  id="perspective2877" inkscape:vp_z="1 : 0.5 : 1" sodipodi:type="inkscape:persp3d" inkscape:vp_x="0 : 0.5 : 1" inkscape:vp_y="0 : 1000 : 0" inkscape:persp3d-origin="0.5 : 0.33333333 : 1">
		</inkscape:perspective>
</defs>
<sodipodi:namedview  id="base" showgrid="false" pagecolor="#ffffff" inkscape:cx="173.76887" gridtolerance="10.0" inkscape:zoom="1.6184598" objecttolerance="10.0" bordercolor="#666666" inkscape:cy="503.36844" borderopacity="1.0" guidetolerance="10.0" inkscape:current-layer="svg3018" inkscape:window-maximized="1" inkscape:window-y="-8" inkscape:pageopacity="0.0" inkscape:window-height="1004" inkscape:pageshadow="2" inkscape:window-x="-8" inkscape:window-width="1280">
	</sodipodi:namedview>
<path id="path2795" fill="none" d="M0,0"/>
<path id="path2797" fill="none" d="M0,0"/>
<path id="path2434" fill="none" d="M0,0"/>
<g>
	<path id="path2300" fill="#FFFFFF" stroke="#003580" stroke-width="5" d="M216.1,393.5c-0.32,0.535-0.964,1.604-1.123,2.672
		c-0.642-0.373-1.336-0.801-2.031-1.229c-0.157,0.48-0.267,0.961-0.428,1.441c-0.746-0.32-1.494-0.693-2.242-1.016
		c0.053,0.801,0.16,1.658,0.213,2.457c-1.441-0.961-2.885-1.924-4.327-2.883c-1.71-0.055-3.418-0.109-5.13-0.217
		c0,1.336,0,2.619,0,3.9c-0.854-0.48-1.762-0.961-2.617-1.441c-2.404-0.375-2.991,0.268-1.87,2.084
		c-2.244,1.068-3.794,0.588-4.702-1.443c-0.908,0.963-1.656,2.031-2.244,3.26c-2.885-0.107-5.609-1.176-8.228-3.26
		c1.603,2.139,3.046,4.328,3.686,6.785c-2.028-0.693-3.845-1.924-5.342-3.686c1.71,1.977,2.618,3.953-1.604,5.93
		c-1.922-1.176-2.402-2.725-1.441-4.701c-2.189,0.375-3.205,1.711-3.1,4.061c-4.328-0.318-6.944,0.322-5.931,3.1
		c-3.687,0.695-7.372,1.336-11.06,2.031c-0.428,1.709-0.215,3.42-2.887,5.127c-0.693-0.799-0.426-1.602,0-2.457
		c-0.373,0.75-1.174,1.498-2.082,2.246c-0.268-0.855-0.268-1.764,0-2.672c-3.74,0.748-7.268,1.816-9.832,4.113
		c-1.922-0.268-3.793-0.535-5.717-0.803c-0.588-1.176-1.176-2.352,0-3.473c-1.603,2.725-4.488,5.984-6.25,9.189
		c-2.03,0.16-3.58,0.268-5.664,0.428c4.595-2.457,8.389-5.129,8.229-8.016c-1.176,1.068-2.351,2.084-3.526,3.1
		c-0.054-0.48-0.107-0.961-0.161-1.441c2.404-1.391,2.565-2.139,0.587-2.244c-1.763-0.48-3.526-0.963-5.343-1.441
		c2.832-0.748,2.725-1.498-0.213-2.246c0.213-2.99,1.496-5.715,3.9-8.229c-2.992,1.711-5.984,3.42-9.03,5.131
		c-0.535-1.176-0.16-2.139,1.069-2.887c-1.122,1.176-2.191,1.656-3.312,1.443c0.961-1.605,2.404-3.26,1.442-4.916
		c-1.709-0.32-3.419-0.693-5.129-1.014c-1.442-0.535-2.885-1.07-4.274-1.658c-1.924-3.578-3.313-4.328-4.328-2.244
		c0-1.441,0-2.885,0-4.326c-1.763,0.801-2.832,2.404-3.259,4.969c-1.176-2.191-2.351-4.008-3.526-3.1
		c-1.39-3.205-2.352-5.93,0.213-5.129c-0.695-2.191-1.336-4.381-2.03-6.572c0.534-0.533,1.068-1.068,1.603-1.602
		c-0.428-1.871-0.909-3.74-1.389-5.559c2.19,1.336,3.099,0.053,2.671-3.898c1.923-1.391,2.404-2.727,0.801-4.115
		c1.389-1.762,0.801-3.525,0-5.344c0.749-0.318,2.244-0.215,0.213-2.457c-1.229-4.541,0-5.184,3.688-1.816
		c-0.855-1.604-1.657-3.152-2.458-4.701c-0.748-3.365-1.496-6.732-2.244-10.1c-2.779-1.441-3.313-3.525-1.656-6.357
		c0.854-2.244,1.496-4.486,1.015-6.357c0.855-1.871-0.267-3.418-1.656-4.914c-1.87-1.766-3.152-3.9-0.587-8.391
		c-3.1-0.533-1.978-2.617-0.214-4.916c-0.054-0.801-0.16-1.654-0.214-2.457c0.481-1.869,1.871-2.777,4.114-2.885
		c0.587-2.139,1.229-4.221,1.816-6.357c1.122,0.215,2.191,0.428,3.313,0.641c-1.603-2.564-2.458-5.076-1.87-7.586
		c0.802,0.641,2.725,0.641,5.771,0c0.962,3.74,1.709,3.74,2.244,0c1.656,0.535,3.259-0.215,4.915-2.299
		c1.977-0.586,2.19-1.604,0.641-3.043c-1.496-1.926-4.381-4.758-0.213-2.887c-0.108-0.428-0.161-0.803-0.214-1.23
		c0.16-2.082,0.961-1.922,2.458,0.43c0.587-1.816,1.229-3.58,1.87-5.344c1.389-4.062,2.832-4.115,4.274-0.215
		c2.245-5.449,4.916-10.258,10.259-10.846c-0.695-4.969,0.641-6.625,3.899-4.916c-0.802-3.473,1.069-6.305,5.558-8.441
		c0.213-3.848,2.67-7.266,7.373-10.258c1.016-3.42,2.031-6.84,3.045-10.258c1.871-1.818,3.687-2.672,5.558-2.672
		c1.495-2.62,2.991-2.459,4.488,0.428c2.136,2.084,3.098,1.441,2.884-2.031c-3.848-2.938-3.473-3.58,1.016-1.871
		c0-2.831-1.121-5.235-3.473-7.159c0.908-2.992,1.495-6.038,1.441-9.029c0.961-4.701-0.961-6.197-3.258-7.16
		c-2.139-2.243-4.275-3.045-6.358-2.457c-1.229-3.366-2.992-6.305-8.816-6.465l-3.739-13.25c-2.512,1.549-7.961-11.595-0.375-17.205
		c-0.16-4.273,0.481-7.213,1.817-8.815c-4.008-6.571-6.625-12.61-6.146-17.631c1.925-0.589,2.673-2.298,2.244-5.13
		c-5.183-0.961-6.197-3.205-3.045-6.785c-2.138-8.067-1.656-12.823,2.672-12.93l-5.558-4.916c0.054-3.312-0.801-4.328-2.671-3.045
		c0.48-5.451-3.313-9.564-10.045-12.717c-3.687,0-5.877-1.283-6.572-3.901l-3.901-3.526l-4.06-5.128l-4.542-4.703l-1.816-4.487
		l2.244-2.084l0.801-3.046l-0.588-4.542c2.512-3.633,5.557-4.007,9.19-1.229l6.358,13.731l2.458,8.229
		c1.656-0.855,3.312-0.588,4.969,0.801c2.565-0.106,4.755,0.908,6.52,3.1l7-3.474l1.441-4.755c2.939,0.534,5.557,2.137,7.801,4.916
		c4.061,0.32,6.785,2.297,8.176,5.984l2.243-2.671c1.229-7.267,3.312-11.702,7.214-9.832l2.67-5.557l-1.44-13.731l1.603-7.587
		l0.641-5.343l6.146-7.373c0.854-2.618,2.832-3.74,5.931-3.312c2.832,2.189,4.861,1.497,6.197-2.03l4.062-3.259l5.396-1.282
		c-0.963,5.183,1.229,7.267,4.86,7.908c1.176,2.938,5.396,4.755,10.739,6.144l3.58,8.976c-4.596,6.572-6.732,11.434-6.412,14.586
		l2.832,2.351l-6.68,6.893l4.916,0.748c-0.267,4.488-1.44,8.923-3.635,13.357l3.85,12.557l9.989,3.312
		c3.421,9.136,7.001,13.304,10.793,14.104l-0.267,7.16c-4.488,7.747-8.282,15.709-11.273,23.829l7.693,15.388
		c2.084,7.106,4.542,11.541,7.428,13.305l5.396,19.769c-2.086-1.977-4.115-0.962-6.199,0.48l2.352,2.832
		c-1.869,1.655-2.352,4.647-1.549,8.976c-2.779,2.992-2.672,4.274,0.268,3.848c3.098,1.871,2.83,3.74,1.015,5.609
		c-4.114,1.283-2.458,5.719,1.765,11.542c2.352-1.498,4.326-0.908,5.93,1.816c0.802,3.365-0.642,4.168-1.815,4.596l-0.267,3.312
		l1.549,4.859l6.145,3.85c1.924,0.318,2.672,1.762,2.297,4.381c2.672,2.832,1.924,6.092-2.297,9.725
		c-1.281,2.938-3.045,5.129-5.129,6.893l8.709,8.977l8.976,5.664l6.145,6.625c4.756,4.381,7,8.066,4.863,10.525
		c-1.335,8.066-3.794,15.119-7.427,21.264c-5.504,5.559-9.938,12.449-13.571,20.25l-6.894,11.809l-2.297,3.045l-9.244,11.275
		l-4.861,8.227C226.038,380.891,221.389,387.248,216.1,393.5z"/>
	<path id="rect2526" fill="#003580" stroke="#003580" stroke-width="10.0287" d="M199.059,26.808l-5.394,1.286l-4.075,3.255
		c-1.336,3.526-3.361,4.229-6.193,2.037c-3.099-0.427-5.072,0.688-5.928,3.307l-6.146,7.379l-0.633,5.343l-1.604,7.581l1.436,13.741
		l-2.67,5.56c-2.265-1.084-3.914-0.045-5.144,2.438v125.292c0.079,0.078,0.155,0.15,0.235,0.233
		c2.295,0.962,4.217,2.444,3.254,7.146c0.055,2.992-0.543,6.041-1.451,9.033c2.352,1.924,3.473,4.332,3.473,7.162
		c-4.488-1.707-4.849-1.067-1.003,1.87c0.216,3.475-0.75,4.121-2.887,2.039c-0.54-1.039-1.082-1.725-1.621-2.055v180.76
		c1.644-0.299,3.283-0.594,4.926-0.902c-1.014-2.777,1.601-3.408,5.929-3.09c-0.107-2.35,0.914-3.697,3.104-4.072
		c-0.961,1.979-0.485,3.531,1.437,4.709c4.223-1.979,3.312-3.951,1.604-5.93c1.495,1.766,3.312,2.996,5.342,3.691
		c-0.64-2.459-2.069-4.658-3.674-6.797c2.619,2.084,5.33,3.148,8.215,3.256c0.588-1.229,1.347-2.293,2.255-3.256
		c0.908,2.029,2.447,2.521,4.69,1.453c-1.12-1.816-0.533-2.461,1.87-2.088c0.854,0.48,1.768,0.955,2.621,1.438
		c0-1.281,0-2.555,0-3.891c1.711,0.105,3.418,0.146,5.127,0.199c0.05,0.033,0.102,0.066,0.15,0.102V37.509
		c-1.135-0.803-1.963-1.723-2.389-2.788C200.284,34.081,198.096,31.989,199.059,26.808z"/>
	<path id="path3025" fill="#003580" d="M136.762,129.709c-0.199,1.76,1.396,2.957,4.809,3.589c0.428,2.833-0.33,4.539-2.254,5.126
		c-0.48,5.022,2.138,11.062,6.146,17.632c-1.336,1.604-1.979,4.541-1.819,8.816c-2.882,2.13-3.879,5.346-3.875,8.432h93.987
		c-1.353-2.279-2.581-5.344-3.707-9.183l-7.698-15.378c2.379-6.456,5.278-12.809,8.616-19.034H136.762z"/>
	<path id="path3027" fill="#FFFFFF" stroke="#003580" stroke-width="5" d="M107.584,402.904c-3.313-0.215-4.435-1.871-3.313-5.023
		l2.778,1.443C105.019,400.232,105.66,401.461,107.584,402.904z"/>
	<path id="path3029" fill="#FFFFFF" stroke="#003580" stroke-width="5" d="M111.965,408.246c0.908-1.016,1.709-2.137,1.656-3.418
		c-1.389-1.068-2.832-1.604-4.488-0.908c-0.909,0.854,0.16,1.549,3.206,2.189C111.003,406.59,111.698,407.445,111.965,408.246
		L111.965,408.246z"/>
	<path id="path3031" fill="#FFFFFF" stroke="#003580" stroke-width="5" d="M103.523,409.797c2.245-1.229,1.763-1.656-1.442-1.391
		c-0.481,1.068-0.374,2.139-0.107,3.207C102.455,410.973,102.989,410.385,103.523,409.797z"/>
	<path id="path3033" fill="#FFFFFF" stroke="#003580" stroke-width="5" d="M107.423,410.705c-1.176-1.068-1.87-2.191,0.749-3.312
		C108.385,408.514,108.172,409.637,107.423,410.705z"/>
	<path id="path3035" fill="#FFFFFF" stroke="#003580" stroke-width="5" d="M98.18,411.238c1.977,0.268,2.725-0.801,2.244-3.045
		C97.859,409.102,97.485,410.117,98.18,411.238z"/>
	<path id="path3037" fill="#FFFFFF" stroke="#003580" stroke-width="5" d="M97.219,396.547c0.534-1.176-0.054-2.139-1.71-2.832
		C94.974,395.156,95.508,396.119,97.219,396.547z"/>
	<path id="path3039" fill="#FFFFFF" stroke="#003580" stroke-width="20" d="M154.548,226.799c-1.549-1.923-0.961-3.366,4.328-3.739
		c0.694,1.495,1.976,1.389,3.206,1.442c-1.282,0.481-2.512,0.748-3.795-0.161c1.123,2.564-0.106,3.1-1.656,3.42
		c0.214-0.747,0.428-1.497,0.641-2.189C156.365,226.855,155.457,226.908,154.548,226.799z"/>
	<path id="path3041" fill="#FFFFFF" stroke="#003580" stroke-width="5" d="M67.939,401.248c0.107,1.604-0.641,3.152-2.244,4.756
		c-0.855-1.229-0.641-2.406-0.267-3.633c-2.351,1.549-2.992,3.205-1.87,5.02c0.855,2.832,2.298,3.955,4.381,3.365
		c1.015,0.535,2.298,2.191,1.977-1.494c-0.481-1.391-1.015-2.672-0.481-5.021c0.481,1.814,1.282,2.777,2.511,2.885
		c1.763,0.16,2.19-1.764,2.725-3.633c-1.603-2.244-3.633-3.689-6.465-3.26c0.214-0.748,0.267-1.496-0.748-2.244
		C64.84,401.355,66.497,401.195,67.939,401.248z"/>
	<path id="path3043" fill="#FFFFFF" stroke="#003580" stroke-width="5" d="M61.046,408.514c-1.068-2.992-0.32-4.646,2.245-4.859
		C62.809,405.576,62.062,407.285,61.046,408.514z"/>
	<path id="path3045" fill="#FFFFFF" stroke="#003580" stroke-width="5" d="M69.809,411.721c1.015,1.549,2.084,2.457,3.099,2.777
		c0.267-1.121,0-2.244-0.748-3.365C70.931,410.545,70.343,411.078,69.809,411.721z"/>
	<path id="path3047" fill="#FFFFFF" stroke="#003580" stroke-width="5" d="M74.03,408.729c-1.656,0.32-1.175,1.496-0.374,2.777
		C74.671,410.758,75.313,409.957,74.03,408.729z"/>
	<path id="path3049" fill="#FFFFFF" stroke="#003580" stroke-width="5" d="M79.052,412.467c1.069-0.318,1.763,0.055,2.138,1.123
		C79.96,413.857,79.266,413.482,79.052,412.467z"/>
	<path id="path3057" fill="#FFFFFF" stroke="#003580" stroke-width="7" d="M99.943,291.504c0.908,1.068,1.442,1.977-1.122,2.244
		c-0.641,2.189-1.282,2.404-1.923,0.695c-1.016-0.643-1.87-1.336-1.442-2.033c-0.695-1.334-0.321-1.709,1.229-1.229
		C96.738,293.908,98.073,293.428,99.943,291.504z"/>
	<path id="path3059" fill="#FFFFFF" stroke="#003580" stroke-width="7" d="M97.966,288.832c1.229-1.016,2.191-0.748,2.083,0.588
		C99.142,290.543,98.447,290.328,97.966,288.832z"/>
	<path id="path3061" fill="#FFFFFF" stroke="#003580" stroke-width="7" d="M114.369,290.596c-1.496-1.229-2.778-1.391-3.473,0.803
		C112.286,291.824,113.407,291.398,114.369,290.596z"/>
	
		<ellipse id="ellipse3063" sodipodi:ry="11" sodipodi:rx="7" sodipodi:cy="7208" sodipodi:cx="1703" fill="#FFFFFF" stroke="#003580" stroke-width="5" cx="105.768" cy="404.933" rx="0.374" ry="0.587">
	</ellipse>
	
		<ellipse id="ellipse3065" sodipodi:ry="7" sodipodi:rx="4" sodipodi:cy="7433" sodipodi:cx="1334" fill="#FFFFFF" stroke="#003580" stroke-width="5" cx="86.051" cy="416.956" rx="0.214" ry="0.374">
	</ellipse>
	
		<ellipse id="ellipse3067" sodipodi:ry="7" sodipodi:rx="4" sodipodi:cy="7345" sodipodi:cx="1175" fill="#FFFFFF" stroke="#003580" stroke-width="5" cx="77.556" cy="412.255" rx="0.214" ry="0.374">
	</ellipse>
	
		<ellipse id="ellipse3071" sodipodi:ry="7" sodipodi:rx="4" sodipodi:cy="7109" sodipodi:cx="1606" fill="#FFFFFF" stroke="#003580" stroke-width="5" cx="100.585" cy="399.645" rx="0.214" ry="0.375">
	</ellipse>
	
		<ellipse id="ellipse3073" sodipodi:ry="7" sodipodi:rx="4" sodipodi:cy="7133" sodipodi:cx="1511" fill="#FFFFFF" stroke="#003580" stroke-width="5" cx="95.508" cy="400.926" rx="0.214" ry="0.375">
	</ellipse>
	
		<ellipse id="ellipse3075" sodipodi:ry="7" sodipodi:rx="4" sodipodi:cy="7151" sodipodi:cx="1297" fill="#FFFFFF" stroke="#003580" stroke-width="5" cx="84.075" cy="401.89" rx="0.214" ry="0.374">
	</ellipse>
	
		<ellipse id="ellipse3077" sodipodi:ry="7" sodipodi:rx="4" sodipodi:cy="7137" sodipodi:cx="1144" fill="#FFFFFF" stroke="#003580" stroke-width="5" cx="75.9" cy="401.142" rx="0.213" ry="0.374">
	</ellipse>
	
		<ellipse id="ellipse3079" sodipodi:ry="7" sodipodi:rx="4" sodipodi:cy="7299" sodipodi:cx="1266" fill="#FFFFFF" stroke="#003580" stroke-width="5" cx="82.419" cy="409.795" rx="0.213" ry="0.375">
	</ellipse>
	
		<ellipse id="ellipse3081" sodipodi:ry="7" sodipodi:rx="4" sodipodi:cy="7177" sodipodi:cx="1363" fill="#FFFFFF" stroke="#003580" stroke-width="5" cx="87.601" cy="403.279" rx="0.214" ry="0.375">
	</ellipse>
	
		<ellipse id="ellipse3083" sodipodi:ry="7" sodipodi:rx="4" sodipodi:cy="7329" sodipodi:cx="1711" fill="#FFFFFF" stroke="#003580" stroke-width="5" cx="106.194" cy="411.399" rx="0.214" ry="0.374">
	</ellipse>
	
		<ellipse id="ellipse3089" sodipodi:ry="19" sodipodi:rx="13" sodipodi:cy="6962" sodipodi:cx="1477" fill="#FFFFFF" stroke="#003580" stroke-width="5" cx="93.692" cy="391.791" rx="0.694" ry="1.016">
	</ellipse>
	<path id="path3091" fill="#FFFFFF" stroke="#003580" stroke-width="5" d="M113.141,403.332c1.122-0.107,2.297-0.535,3.419-1.176
		c0,1.016-0.48,2.084-1.389,3.098C114.476,404.613,113.835,403.973,113.141,403.332z"/>
	
		<ellipse id="ellipse3093" sodipodi:ry="7" sodipodi:rx="4" sodipodi:cy="7438" sodipodi:cx="1370" fill="#FFFFFF" stroke="#003580" stroke-width="5" cx="87.975" cy="417.224" rx="0.214" ry="0.374">
	</ellipse>
	
		<ellipse id="ellipse3095" sodipodi:ry="7" sodipodi:rx="4" sodipodi:cy="7241" sodipodi:cx="1582" fill="#FFFFFF" stroke="#003580" stroke-width="5" cx="99.302" cy="406.699" rx="0.214" ry="0.375">
	</ellipse>
	<path id="path3097" fill="#FFFFFF" stroke="#003580" stroke-width="5" d="M94.386,408.834c2.031,0.268,1.978,0.48,1.496-1.762
		C93.532,406.697,93.746,407.713,94.386,408.834z"/>
	<path id="path3099" fill="#FFFFFF" stroke="#003580" stroke-width="5" d="M94.386,396.76c0.107-1.176,1.122-2.084-0.534-2.777
		C93.906,395.424,92.731,396.332,94.386,396.76z"/>
	<path id="path3101" fill="#FFFFFF" stroke="#003580" stroke-width="7" d="M122.384,271.469c1.496-1.656,2.992-0.965,4.541,0.746
		C125.376,272.43,123.88,272.162,122.384,271.469z"/>
	
		<circle id="circle3103" sodipodi:ry="19" sodipodi:rx="19" sodipodi:cy="4759" sodipodi:cx="2036" fill="#FFFFFF" stroke="#003580" stroke-width="7" cx="123.559" cy="274.087" r="1.015">
	</circle>
	<path id="path5491" fill="none" d="M216.1,393.5c-0.32,0.535-0.964,1.604-1.123,2.672c-0.642-0.373-1.336-0.801-2.031-1.229
		c-0.157,0.48-0.267,0.961-0.428,1.441c-0.746-0.32-1.494-0.693-2.242-1.016c0.053,0.801,0.16,1.658,0.213,2.457
		c-1.441-0.961-2.885-1.924-4.327-2.883c-1.71-0.055-3.418-0.109-5.13-0.217c0,1.336,0,2.619,0,3.9
		c-0.854-0.48-1.762-0.961-2.617-1.441c-2.404-0.375-2.991,0.268-1.87,2.084c-2.244,1.068-3.794,0.588-4.702-1.443
		c-0.908,0.963-1.656,2.031-2.244,3.26c-2.885-0.107-5.609-1.176-8.228-3.26c1.603,2.139,3.046,4.328,3.686,6.785
		c-2.028-0.693-3.845-1.924-5.342-3.686c1.71,1.977,2.618,3.953-1.604,5.93c-1.922-1.176-2.402-2.725-1.441-4.701
		c-2.189,0.375-3.205,1.711-3.1,4.061c-4.328-0.318-6.944,0.322-5.931,3.1c-3.687,0.695-7.372,1.336-11.06,2.031
		c-0.428,1.709-0.215,3.42-2.887,5.127c-0.693-0.799-0.426-1.602,0-2.457c-0.373,0.75-1.174,1.498-2.082,2.246
		c-0.268-0.855-0.268-1.764,0-2.672c-3.74,0.748-7.268,1.816-9.832,4.113c-1.922-0.268-3.793-0.535-5.717-0.803
		c-0.588-1.176-1.176-2.352,0-3.473c-1.603,2.725-4.488,5.984-6.25,9.189c-2.03,0.16-3.58,0.268-5.664,0.428
		c4.595-2.457,8.389-5.129,8.229-8.016c-1.176,1.068-2.351,2.084-3.526,3.1c-0.054-0.48-0.107-0.961-0.161-1.441
		c2.404-1.391,2.565-2.139,0.587-2.244c-1.763-0.48-3.526-0.963-5.343-1.441c2.832-0.748,2.725-1.498-0.213-2.246
		c0.213-2.99,1.496-5.715,3.9-8.229c-2.992,1.711-5.984,3.42-9.03,5.131c-0.535-1.176-0.16-2.139,1.069-2.887
		c-1.122,1.176-2.191,1.656-3.312,1.443c0.961-1.605,2.404-3.26,1.442-4.916c-1.709-0.32-3.419-0.693-5.129-1.014
		c-1.442-0.535-2.885-1.07-4.274-1.658c-1.924-3.578-3.313-4.328-4.328-2.244c0-1.441,0-2.885,0-4.326
		c-1.763,0.801-2.832,2.404-3.259,4.969c-1.176-2.191-2.351-4.008-3.526-3.1c-1.39-3.205-2.352-5.93,0.213-5.129
		c-0.695-2.191-1.336-4.381-2.03-6.572c0.534-0.533,1.068-1.068,1.603-1.602c-0.428-1.871-0.909-3.74-1.389-5.559
		c2.19,1.336,3.099,0.053,2.671-3.898c1.923-1.391,2.404-2.727,0.801-4.115c1.389-1.762,0.801-3.525,0-5.344
		c0.749-0.318,2.244-0.215,0.213-2.457c-1.229-4.541,0-5.184,3.688-1.816c-0.855-1.604-1.657-3.152-2.458-4.701
		c-0.748-3.365-1.496-6.732-2.244-10.1c-2.779-1.441-3.313-3.525-1.656-6.357c0.854-2.244,1.496-4.486,1.015-6.357
		c0.855-1.871-0.267-3.418-1.656-4.914c-1.87-1.766-3.152-3.9-0.587-8.391c-3.1-0.533-1.978-2.617-0.214-4.916
		c-0.054-0.801-0.16-1.654-0.214-2.457c0.481-1.869,1.871-2.777,4.114-2.885c0.587-2.139,1.229-4.221,1.816-6.357
		c1.122,0.215,2.191,0.428,3.313,0.641c-1.603-2.564-2.458-5.076-1.87-7.586c0.802,0.641,2.725,0.641,5.771,0
		c0.962,3.74,1.709,3.74,2.244,0c1.656,0.535,3.259-0.215,4.915-2.299c1.977-0.586,2.19-1.604,0.641-3.043
		c-1.496-1.926-4.381-4.758-0.213-2.887c-0.108-0.428-0.161-0.803-0.214-1.23c0.16-2.082,0.961-1.922,2.458,0.43
		c0.587-1.816,1.229-3.58,1.87-5.344c1.389-4.062,2.832-4.115,4.274-0.215c2.245-5.449,4.916-10.258,10.259-10.846
		c-0.695-4.969,0.641-6.625,3.899-4.916c-0.802-3.473,1.069-6.305,5.558-8.441c0.213-3.848,2.67-7.266,7.373-10.258
		c1.016-3.42,2.031-6.84,3.045-10.258c1.871-1.818,3.687-2.672,5.558-2.672c1.495-2.62,2.991-2.459,4.488,0.428
		c2.136,2.084,3.098,1.441,2.884-2.031c-3.848-2.938-3.473-3.58,1.016-1.871c0-2.831-1.121-5.235-3.473-7.159
		c0.908-2.992,1.495-6.038,1.441-9.029c0.961-4.701-0.961-6.197-3.258-7.16c-2.139-2.243-4.275-3.045-6.358-2.457
		c-1.229-3.366-2.992-6.305-8.816-6.465l-3.739-13.25c-2.512,1.549-7.961-11.595-0.375-17.205c-0.16-4.273,0.481-7.213,1.817-8.815
		c-4.008-6.571-6.625-12.61-6.146-17.631c1.925-0.589,2.673-2.298,2.244-5.13c-5.183-0.961-6.197-3.205-3.045-6.785
		c-2.138-8.067-1.656-12.823,2.672-12.93l-5.558-4.916c0.054-3.312-0.801-4.328-2.671-3.045c0.48-5.451-3.313-9.564-10.045-12.717
		c-3.687,0-5.877-1.283-6.572-3.901l-3.901-3.526l-4.06-5.128l-4.542-4.703l-1.816-4.487l2.244-2.084l0.801-3.046l-0.588-4.542
		c2.512-3.633,5.557-4.007,9.19-1.229l6.358,13.731l2.458,8.229c1.656-0.855,3.312-0.588,4.969,0.801
		c2.565-0.106,4.755,0.908,6.52,3.1l7-3.474l1.441-4.755c2.939,0.534,5.557,2.137,7.801,4.916c4.061,0.32,6.785,2.297,8.176,5.984
		l2.243-2.671c1.229-7.267,3.312-11.702,7.214-9.832l2.67-5.557l-1.44-13.731l1.603-7.587l0.641-5.343l6.146-7.373
		c0.854-2.618,2.832-3.74,5.931-3.312c2.832,2.189,4.861,1.497,6.197-2.03l4.062-3.259l5.396-1.282
		c-0.963,5.183,1.229,7.267,4.86,7.908c1.176,2.938,5.396,4.755,10.739,6.144l3.58,8.976c-4.596,6.572-6.732,11.434-6.412,14.586
		l2.832,2.351l-6.68,6.893l4.916,0.748c-0.267,4.488-1.44,8.923-3.635,13.357l3.85,12.557l9.989,3.312
		c3.421,9.136,7.001,13.304,10.793,14.104l-0.267,7.16c-4.488,7.747-8.282,15.709-11.273,23.829l7.693,15.388
		c2.084,7.106,4.542,11.541,7.428,13.305l5.396,19.769c-2.086-1.977-4.115-0.962-6.199,0.48l2.352,2.832
		c-1.869,1.655-2.352,4.647-1.549,8.976c-2.779,2.992-2.672,4.274,0.268,3.848c3.098,1.871,2.83,3.74,1.015,5.609
		c-4.114,1.283-2.458,5.719,1.765,11.542c2.352-1.498,4.326-0.908,5.93,1.816c0.802,3.365-0.642,4.168-1.815,4.596l-0.267,3.312
		l1.549,4.859l6.145,3.85c1.924,0.318,2.672,1.762,2.297,4.381c2.672,2.832,1.924,6.092-2.297,9.725
		c-1.281,2.938-3.045,5.129-5.129,6.893l8.709,8.977l8.976,5.664l6.145,6.625c4.756,4.381,7,8.066,4.863,10.525
		c-1.335,8.066-3.794,15.119-7.427,21.264c-5.504,5.559-9.938,12.449-13.571,20.25l-6.894,11.809l-2.297,3.045l-9.244,11.275
		l-4.861,8.227C226.038,380.891,221.389,387.248,216.1,393.5z"/>
	<path id="path3055" fill="#FFFFFF" stroke="#003580" stroke-width="5" d="M124.948,404.775c-0.962,0.641-1.924,1.389-2.671,2.83
		c-1.443-0.053-2.885,0.16-4.328,0.855c-0.749,0.373-1.764,0.48-2.778,0.641c0.694,1.443,2.083,1.656,3.58,1.656
		c-2.992-0.213-4.435,0.268-2.458,2.244c-0.801,0-1.656,0-2.458,0c-0.481,1.764,0.106,2.885,3.099,2.672
		c0.48-0.588,0.961-1.176,1.442-1.764c0.054,0.588,0.054,1.176,0.107,1.764c2.297-0.268,4.328-1.229,4.649-6.945
		C124.307,407.393,125.002,406.109,124.948,404.775z"/>
</g>
</svg>
