<?xml version="1.0" encoding="utf-8"?>
<!-- Generator: Adobe Illustrator 16.0.0, SVG Export Plug-In . SVG Version: 6.00 Build 0)  -->
<!DOCTYPE svg PUBLIC "-//W3C//DTD SVG 1.1//EN" "http://www.w3.org/Graphics/SVG/1.1/DTD/svg11.dtd">
<svg version="1.1"
	 id="svg2" xmlns:dc="http://purl.org/dc/elements/1.1/" xmlns:cc="http://creativecommons.org/ns#" xmlns:rdf="http://www.w3.org/1999/02/22-rdf-syntax-ns#"
	 xmlns="http://www.w3.org/2000/svg" xmlns:xlink="http://www.w3.org/1999/xlink" x="0px" y="0px" width="329.984px"
	 height="445.479px" viewBox="0 0 329.984 445.479" enable-background="new 0 0 329.984 445.479" xml:space="preserve">
<desc  id="desc4">Flag of Germany</desc>
<g>
	<path id="black_stripe" d="M98.173,35.117l-0.078,0.031l-0.264,0.171l-0.062,0.062l-0.217,0.341l-0.945,2.232l-0.186,0.465
		l-0.761,1.674h-0.017l-0.541,1.411l-0.449,1.286l-0.155,0.714l-0.124,1.007l-0.107,1.178l-0.312,4.541v0.341l0.263,0.635
		l0.156,0.202l0.077-0.015l0.046-0.094l0.016-0.202l0.108-3.875l-0.062-0.108l-0.062-0.232v-0.093l0.078-0.745l0.217-0.682
		l0.124-0.17l1.054-0.682l0.295,0.264l0.062,0.078l0.714,0.402l0.697,0.511l0.232,0.078h0.108l1.349-0.698l0.869-0.728l-0.031-0.031
		l-0.187-0.047l-0.249-0.031l-1.068,0.047l-0.279-0.047l-0.124-0.046l-0.915-0.807l-0.031-0.031l-0.807-0.837l-0.2-2.945
		l0.558-1.116l0.248-0.325l0.481-0.372l0.046-0.032l0.605-0.139l0.635-0.403l0.773-1.519l-0.015-0.031l-0.062-0.046l-1.039-0.434
		l-0.295-0.093L98.173,35.117L98.173,35.117z M104.699,42.681v0.016l-0.744,1.658l-0.186,1.798l0.015,0.093l1.054,1.178l1.117,1.317
		L106,48.818l0.435,0.899l0.387,1.875l1.102,2.852l0.17,0.218l0.572,0.573l0.898,0.418l0.59,0.356l1.473,2.093l3.193,4.526
		l0.619,1.395l0.109,0.387l0.016,0.171l-0.094,0.542l-0.324,0.527l-0.062,0.077l-2.712,2.294l-0.543,0.279l-0.62,0.279l-0.542,0.155
		l-0.683-0.326l-0.651-0.062l-3.286,0.558l-0.263,1.209l0.03,0.264v0.092v0.45l-0.03,0.108l-0.062,0.047l-1.303,0.791l-0.078,0.031
		l-0.279,0.031l-0.619-0.434l-0.031-0.465l-0.449,0.248l-0.046,0.047l-0.108,0.201l-0.17,0.433l-0.108,0.388l-0.125,0.713
		l-0.031,0.373l0.062,0.264l0.265,0.511l0.278,0.186l2.201,1.163l0.201,0.031l0.188-0.031l0.062-0.03l0.061-0.062l0.031-0.047
		l-0.016-0.015l-0.046,0.03h-0.062l-0.25-0.062l-0.03-0.031l0.31-0.372l0.512-0.496l1.209-0.092l0.371-0.016h1.893l0.139,0.046
		l0.092,0.062l0.172,0.233l0.14,0.263l0.062,0.202l0.031,0.294v0.139l-0.078,0.078l0.109,0.031v0.093l-0.031,0.356l-0.154,1.736
		l-0.047,0.201l-0.31,0.682l-0.527,1.116l-0.124,0.294l-0.016,0.077l0.062,0.249l0.495,1.379l0.265,0.497l0.076,0.092l0.543,0.341
		l0.248,0.17l0.635-0.403l0.188-0.139l0.479-0.093l0.125,0.031l0.342,0.108l0.123,0.14l1.597,3.317l0.046,0.17l0.016,0.155v0.124
		l-0.092,0.326l-0.062,0.293l-0.107,0.187l-0.141,0.14l-0.107,0.094l-0.265,0.109l-0.418,0.107l-0.325-0.046l-0.218-0.249
		l-0.231-0.155l-1.24-0.295l-0.465,0.093l-0.588,0.326l-0.744,0.62l0.03,0.108l0.156,0.031l0.17-0.031l1.039,1.643l0.666,1.581
		l0.155,0.543l0.326,0.853l0.465,0.666l0.945,0.76l0.512,0.434l0.187,0.062l0.231,0.016l0.156-0.062l0.728-0.371l0.094-0.017
		l0.124,1.304l-0.418,0.186l-0.402,0.186l0.2,0.604l0.388,0.976l0.248,0.311l-1.068-0.247l-0.264-0.017l-1.039,0.217l-0.14,0.047
		v0.076l-0.03,0.031l-0.141,0.062l-0.82,0.154l-2.512-0.201l-0.775-0.092l-0.371-0.108l-0.311-0.14l-0.455-0.342l-1.395-1.021
		l-0.729-0.885l-0.078-0.153l-0.031-0.156l0.016-0.264l-0.542,0.03l-0.636,0.156l-0.898,0.279l-0.418,0.387l-1.084,1.428
		l-0.512,1.301l-0.262,0.683l-1.877,5.626l-0.03,0.325v0.636l0.016,1.008l0.573,1.487l0.449,1.085l-0.418,0.667l1.363,3.101
		l-1.054-0.885l-0.388-0.062l-0.697-0.124l-0.217,0.016l-0.202,0.016l-0.108-0.016l-1.844-0.837l-0.559-0.31l-0.449-0.668
		l-0.372-0.696l-0.218-0.31l-0.696-0.45l-0.589-0.062l-0.65,0.248l-0.466,0.356l-0.464,0.465l-0.17,0.231l-0.201,0.436l-0.031,0.154
		l-0.14,0.822l-0.233,2.076l1.055,0.186l0.279-0.076l0.773-0.294l0.217,0.124l0.078,0.076l0.124,0.248l0.031,0.109l0.03,0.773
		l-0.108,1.846l-0.062,0.402l-0.172,0.373l-0.355,0.867l-0.232,0.403l-0.279,0.403l-0.34,0.371l-0.094,0.093l-0.248,0.187
		l-0.311,0.155l-0.186,0.015l-0.387-0.047l-0.527-0.123l-0.324-0.141l-0.062-0.077l-0.109-0.202v-0.125l-0.015-0.046l-0.325-0.512
		l-0.604-0.868l-0.496-0.635l-0.342-0.094l-0.449,0.016l-0.092,0.016l-0.403,0.279l-0.202,0.078l-0.388-0.434l-0.31-0.403
		l-0.156-0.341l-0.123-0.325l-0.062-0.265l-0.046-0.465l-0.03-1.022l0.479,0.387l0.465,0.017l0.202-0.047l1.054-0.388l0.449-0.17
		l0.45-0.233l0.14-0.293l0.124-0.435l0.062-0.187l0.031-0.154v-0.047l-1.675-3.922l-0.278-0.543l-0.264-0.388l-0.139-0.185
		l-1.428-0.188l-0.262-0.697l-0.109-0.435l-0.17-1.114l0.045-0.373l0.219-0.311l0.046-0.107l0.017-0.248l-0.125-0.141l-0.48-0.248
		l-1.411-0.217l-1.58-0.186l-3.069,0.278l-1.565,0.466l-0.62,0.062l-0.559-0.017l-0.278-0.076l-0.017-0.078l-0.217-0.016
		l-0.295,0.047l-0.201,0.031l-2.094,0.588l-1.953,0.637l-0.867,0.17l-0.232-0.017l-0.357-0.17l-0.248-0.17l-0.076-0.093
		l-0.295-0.186l-0.187-0.062l-3.688-0.294l-0.822,0.077l-0.62,0.062l-0.667,0.155l-1.395,0.496l-0.543,0.387l-1.349,0.977
		l-0.604,0.59l-2.277,2.371l-0.141,0.435l0.248,0.326l0.821,0.558l0.341,0.201l0.496,0.884l-0.527,0.558l-0.961,0.962l-0.479-0.683
		l-1.673-0.759l-0.775,6.324l-0.062,1.286l-0.479,0.852l-0.047,0.141l0.093,0.248l0.372,0.682l0.14,0.171l0.187,0.124l1.009,0.139
		l3.471,0.108l1.535,0.14l0.435,0.078l0.604,0.141l1.131,0.31l0.17,0.078h-1.426l-0.264,0.093l-0.046,0.046l-0.048,0.124
		l-0.324,1.055l-0.559,2.355l-0.186,2.713l-0.434,1.007l-0.403,0.714l-0.419,1.178l0.016,0.418l0.062,0.404l0.574,0.479
		l-0.155,1.705l0.263,3.44l-0.107,0.573l-0.279,0.868l-0.684,2.092l-2.045,3.1l-1.039,1.41l-0.541,2l-0.279,2.853l-0.202,2.046
		l-0.403,3.564l-0.295,0.418l-0.124,0.108l-0.047,0.017l-0.868-0.232l-0.17-0.093l-0.016-0.03l-0.094-0.125l-0.619-0.217
		l-2.635-0.45l-3.24-0.187l-0.217-0.015l-0.789,0.14l-0.528,0.172l-1.054,0.852l0.217,2l-0.201,2.03l-0.389,1.442l-0.123,0.588
		l-0.17,0.978l-0.031,0.155l1.674,1.209l0.667,0.248l4.806,1.365h0.541l0.45-0.312l0.247-0.542l0.279-0.512l0.311-0.201l0.125,0.107
		l0.045,0.077l0.713,1.38h233.891l-0.17-0.248l0.047-0.388l0.186-1.132l0.047-0.248l0.109-0.232l0.152-0.187l0.143-0.093
		l0.771-0.542l0.373-0.513l0.852-1.487l0.078-0.14l0.062-0.326l-0.109-3.859l-0.076-0.155l-1.146-1.473l-0.217-0.231l-0.867-0.59
		l-0.156-0.078l-0.23-0.046l-0.154-0.062l-0.434-0.217l-0.715-0.342l-0.402-0.201l-0.898-0.604l-0.496-0.326l-1.039-0.992
		l-0.076-0.355l-0.125-0.201l-0.047-0.047l-0.836-1.007l-0.793-0.915l-0.76-0.729l-3.873-2.512l-1.859-0.744l-0.914-0.076
		l-0.344-0.141l-0.076-0.093l-0.188-0.325l-0.029-0.078l-0.018-0.326l0.232-0.542l0.402-0.543l0.371-0.62l0.047-0.649l-0.17-0.341
		l-0.543-1.953l-0.141-0.821l-0.016-0.078l0.123-0.448l0.73-0.699l1.053-0.713l0.404-0.123l0.463-0.248l0.838-0.713l0.605-0.574
		l1.615-1.702l0.123-0.155l0.295-0.48l0.326-1.131l0.277-1.582l0.031-0.263l0.141-1.271l-0.527-0.668l-0.061-0.2l-0.143-0.527
		v-0.108l0.078-0.48l0.154-1.054l0.094-0.062l0.248-0.124l1.209-1.828l0.496-1.07l-0.047-0.247l-0.154-0.45l-0.324-0.062h-0.402
		l-0.527-1.627l0.094-1.007l-0.094-0.325l-1.271-3.644l-0.617-2.449L277,112.151l-0.809-1.115l-0.092-0.078l-0.402-1.054
		l-0.355-0.961l-0.125-0.496v-0.048l0.201-1.41l-0.186-1.875l-0.977-3.163l-0.543-2.836l-0.201-0.558l-0.42-0.373l-0.186-0.078
		l-0.324-0.078l-0.219,0.017l-0.078,0.078l-0.186,0.295l-0.42,0.464l-0.541,0.48l-0.107,0.062l-0.154,0.017l-1.674-0.047
		l-0.514-0.078l-0.645-0.203l-3.363-1.208l-0.199-0.077l-0.781-0.714l-1.002-0.759l-2.896-1.783l-0.1-0.092l-0.287-0.574
		l-0.029-0.202l0.711-1.054l0.9-1.023l0.4-0.436l0.172-0.153l0.188-0.093h0.201l0.078,0.031l0.061-0.031l0.154-0.172l0.201-0.293
		l0.016-0.125l-0.078-0.17l-0.209-0.341l-0.367-0.512l-1.934-2.045l-1.646-3.38l-0.021-2.076l-0.01-0.187l-0.107-0.326l-0.27-0.434
		l-0.326-0.341l-1.916-1.923l-1.75,0.527l-4.387,1.457l-0.156,0.047l-0.463,0.387v0.093l0.34,0.774l0.217,0.326l0.217,0.294
		l0.049,0.124l-0.018,0.031l-0.123,0.078l-0.094,0.031l-0.744-0.139l-0.188-0.078l-0.168-0.155l-0.557-0.915l-0.049-0.14
		l-0.021-0.464l-0.316-0.697l-0.068-0.14l-0.041-0.046l-0.625-0.372h-0.107l-0.107,0.124l-0.264,0.171l-0.154-0.016l-0.094-0.108
		l-0.062-0.326l0.838-0.744l-0.016-0.046l-1.1-0.418h-1.086l-0.141-0.294h-0.094l-0.092-0.047l-0.109-0.202l-0.123-0.294
		l-0.775-1.627l-0.217-0.357l-0.078-0.077l-3.037-1.457h-0.076l-0.344,0.17l-0.865,0.48l-1.242-1.395l-0.854-2.758l-0.076-0.403
		l0.387-0.883l-2.045-2.992l-1.102-0.107l-1.857,0.712l-0.125,0.093l-0.682,0.604l-0.031,0.077l-0.295,0.759v0.481l-0.047,0.217
		l-0.107,0.218l-0.107,0.092l-0.666,0.604l-0.188,0.124l-0.977,0.17l-2.326-1.054l-2.512-0.512l-2.961,1.441l-2.324,1.783
		l-1.564,1.798l-0.232,0.495l0.047,0.419l0.279,0.573l0.094,0.046h0.23l0.621,0.125l0.17,0.077l0.141,0.125v0.108l-0.188,0.093
		l-0.496,0.093l-0.572-0.046l-0.527-0.187l-1.115-0.759l-0.018-0.031l-0.014-1.24l0.154-0.93l1.363-3.208l0.465-0.372l4.434-1.628
		l1.539-0.96l1.611-0.403l0.76-0.046h0.029l0.143,0.078l0.123,0.325l0.219,0.341l0.107,0.093l0.061,0.03l0.512,0.031l1.457-0.046
		l2.107-0.155l0.932-0.248l0.186-0.109l1.271-0.853l0.045-0.047l-0.016-0.093l-0.029-0.062l-0.062-0.031l-0.666-0.078l-0.898,0.031
		l-0.65,0.078l-2.141,0.14l-3.609,0.093l-1.768-0.202l-2.016-0.263l-0.232-0.047l-0.418-0.186l-0.869-0.713l-1.1,1.891l-1.35,2.667
		l-2.092,3.937l-0.295,0.465l-0.232,0.279l-0.309,0.326l-0.266,0.217l-0.232,0.171l-0.572,0.356l-1.736,1.085l-0.807,0.558
		l-0.494,0.45l-0.143,0.232l-0.975,1.876l-0.746,1.689l-1.457-0.201l-2.059-0.311l-3.459,1.38l-0.637,0.201l-0.277,0.078
		l-0.449,0.031l-0.512-0.015l-0.574-0.078l-0.463-0.108l-0.375-0.108l-0.311-0.139l-0.076-0.016l-1.689,0.062l-0.279,0.015
		l-0.264,0.015l-0.107,0.031l-3.752,3.1l-0.867,1.178l-0.311,0.62l-0.062,0.247l0.016,0.264l0.078,0.436l0.029,0.029l0.031-0.015
		l0.854-1.039l0.371-0.466l0.373-0.51l0.295-0.512l0.648-0.651l0.141-0.124h0.125l0.107,0.109l0.312,0.527l0.027,0.124l-0.045,0.573
		l-1.365,2.125l-0.076,0.107l-0.232,0.217l-0.17,0.109l-0.418,0.139l-0.898,0.512l-0.201,0.186l-0.062,0.093l-0.449,0.915
		l-0.277,2.774l-0.172,0.495l-0.729,1.257l-0.387-0.202l-0.668-0.389l-0.293-0.231l-0.062-0.108L187,92.569l-0.619-0.279
		l-1.178-0.512l-0.807,0.187l-0.076,0.14l-0.219,0.155l-0.604,0.403l-0.062,0.031l-0.264,0.031l-0.279-0.093l-0.311-0.155
		l-0.293-0.264l-0.172-0.402l-0.016-0.278l0.107-0.931l-1.674-1.875l-0.17-0.186l-0.143-0.093l-2.447,0.124l-0.324,0.031
		l-1.086,0.248l-0.217,0.062l-0.498,0.217l-1.473,0.868l-2.246,1.55l-0.217-0.016l-0.154-0.015l-0.25-0.125l-0.061-0.388
		l0.061-0.511v-0.094l-0.105-0.264l-0.156-0.201l-0.2-0.17l-0.247-0.125l-0.172-0.016l-0.436,0.109l-0.107,0.015h-0.945
		l-0.217-0.031l-0.264-0.17l-0.125-0.108l-0.201-0.264l-0.187-0.31l-0.294-0.543l-0.343-0.822l-0.062-0.263v-0.139l0.029-0.233
		l0.094-0.294l0.078-0.172l0.124-0.14l1.58-1.674l0.231,0.17l0.156,0.047l1.1,0.201l0.248-0.093l0.248-0.155l0.217-0.186
		l1.303-1.627l1.473-1.364l1.611-1.116l0.326-0.232l1.287-1.054l0.045-0.047l0.016-0.046l-0.371-2.806l-0.311-3.333l-0.062-1.147
		l0.031-0.155l0.217-0.403l0.141-1.767L173,69.645l-0.59,0.155l-1.24,0.962l-0.867,0.774l-0.573,0.682l-0.356,0.356l-0.928,0.744
		l-0.266,0.155l-0.373,0.155l-0.264,0.093l-0.186,0.015l-1.334,0.062l-0.311,0.015l-0.277-0.077l-0.125-0.077l-0.201-0.17
		l-1.001-1.08l-0.071-0.14l0.03-0.03l-0.12-0.264l-0.229-0.356l-0.188-0.155l-0.734-0.481l-0.365-0.202l-6.151-3.083l-0.853-0.233
		l-0.588-0.169l-0.312-0.047l-0.278,0.016l-0.513,0.093l-2.263,1.116l-0.217,0.248l-1.146,2.511l-0.17,0.62l-0.667-0.884l0.062-0.31
		l0.278-0.558l0.604-0.511l-0.373-1.875l-0.076-0.294l0.511-0.791l0.231-0.388l-0.713-0.697l-0.324-0.264l-0.744-0.496l-0.232-0.031
		h-0.248l-0.187,0.031l-1.892,0.372l-2.541,0.604l-0.373,0.125v0.047l-0.944,0.403l-0.142,0.093l-0.34,0.077l-0.992,0.156
		l-0.141-0.047l-0.248-0.139l-0.171-0.201l-0.14-0.233l-0.356-0.697l0.062-0.062l0.141-0.078l0.155-0.031h0.312l0.092,0.124
		l0.108,0.093l0.218-0.062l0.868-0.418l1.271-0.667l0.806-0.449l0.511-0.45l0.311-0.356l0.095-0.124l0.837-1.426l0.016-0.232
		l0.016-2.666l0.076-1.503l0.031-1.07l-1.674-5.254l-0.525-0.976l-0.869-0.589l-0.512-0.325l-0.062,0.046l-0.078,0.155l-0.092,0.248
		l0.046,0.109l-0.807,1.721l-0.045,0.062h-0.045l-0.266-0.032l-0.434-0.124l-0.496-0.264l-2.936-3.315l-1.648-0.681l-2.122-0.868
		l0.516-0.93l0.199-0.326l-1.072-0.387l-0.231,0.046l-2.557,2.278l-0.466,0.202l-0.649,0.188l-0.683,0.278l-0.542-0.232
		l-1.285,0.248l-0.049,0.31l-0.076,0.093l-0.729,0.635l-0.512,0.047l-2.322-0.217l-0.348-0.884l-0.08-0.231l-0.01-0.202l0.109-0.187
		l0.188-0.248l-0.148-0.309l-1.021-0.481l-1.469-0.604l-0.355-0.124l-0.201-0.031l-0.668-0.016l-0.649,0.186l-0.821-0.062
		l-0.434-0.046l-0.341-0.201l-0.218-0.14l0.017-0.093l-0.456-0.326l-1.527-0.713l-0.129-0.046l-0.277-0.078l-1.35-0.125
		l-2.015-0.139l-0.265-0.016l-0.387,0.047l-0.341,0.062l-2.696,0.139l-0.604-0.403l-0.201-0.093l-0.342-0.047l-0.897-0.016
		L104.699,42.681z M101.226,50.555l-0.418,0.155l-0.155,0.062l-0.821-0.046h-0.248l-0.961,0.186l-0.279,0.093l-0.217,0.17
		l-0.264,0.279l-0.201,0.357l-0.264,0.635l-0.031,0.403l0.047,0.217l0.077,0.139l0.093,0.093l1.982,0.977l0.419,0.108l0.481,0.031
		l1.611,0.062l0.219-0.016l0.107-0.046l0.915-1.907l-0.294-1.193l-0.077-0.14l-0.45-0.309l-0.559-0.201l-0.217-0.047l-0.154-0.03
		L101.226,50.555L101.226,50.555z M245.976,52.229l-1.502,0.139l-2.232,0.635h-0.402h-0.016l-0.279,0.171l-0.883,0.713l-0.637,0.744
		l-0.107,0.171l-1.488,3.689l-0.029,0.108l-0.047,0.435h0.062l0.246-0.078l0.109-0.093l1.486-1.426l0.311-0.837l-0.076-0.295
		l-0.123-0.449l-0.018-0.062l0.031-0.062l0.822-1.162l0.512-0.14l0.045,0.015l0.107,0.218l0.08,0.588l-0.018,0.155l-0.062,0.294
		l-0.154,0.496l-0.373,0.667l-0.139,0.186l-0.107,0.279l-0.188,1.007l0.031,0.527l1.379-0.667l1.023-0.589l3.393,1.395l0.078,0.015
		h0.062l0.93-0.124l0.914-0.372l0.062,2.573l-0.062,1.396l-0.076,0.047l-0.172,0.015l-0.836,0.016l-1.334-0.434l-0.355-0.156
		l-1.969-1.162l-0.125-0.125l0.018-0.17l0.154-1.549l-1.551,0.062l-1.643,0.062l-0.543,0.124l-1.645,0.48l-0.449,0.248l0.297,1.318
		l0.23,0.434l0.992-0.046l0.789,0.078l1.24,1.115l-0.418,0.821l-0.123,0.062l-1.117,0.388l-0.572,0.108l-0.621,0.124l-0.572,1.287
		v0.263l0.016,0.078l0.172,0.093l2.635,0.573l0.34,0.062l-0.713,0.45l-2.93,1.426l-0.076,0.109l-0.078,0.201l-0.217,1.208
		l0.014,0.527l0.838,2.465l0.062,0.124l7.688,2.573l0.637-0.48l0.123-0.155l0.078-0.139l0.018-0.062l-0.047-0.294l-0.201-0.465
		l-0.42-0.496l-0.047-0.016h-0.277l-0.078,0.093l-0.047,0.093l0.031,0.124l-0.031,0.062l-0.311,0.279l-0.389,0.187l-0.201,0.015
		l-0.188-0.202l-0.014-0.604l2.074-2.201l1.629-1.565l0.525-0.388l0.156-0.062l4.99-0.604l0.201,0.031l0.695,1.147l0.018,0.047
		v0.232l-0.094,0.217l-0.029,0.062l-0.389,0.295l-0.031,0.03l-0.48,0.233v0.775l1.055-0.279l0.449-0.883l0.605-1.24l-0.344-0.822
		l-0.883-1.426l-0.635-0.511l-0.637-0.45l-0.047,0.078l-0.107,0.046l-0.326,0.046l-0.621,0.031l-0.092-0.016l-0.141-0.093
		l-0.199-0.186l-0.514-0.588l-0.543-1.039l-0.123-0.311l-0.154-0.558l-0.062-0.728l0.062-0.28l0.094-0.17l0.076-0.109l0.047-0.062
		l0.791-0.883l1.037-0.868l0.279-0.155l0.094-0.016l0.311-0.216l0.277-0.574l0.078-0.527l-0.123-1.055l-0.201-0.248l-0.342-0.31
		l-0.697-0.465l-0.125-0.046h-0.23l-0.885,0.078l-0.201,0.031l-1.133,0.232l-0.152,0.062l-1.008,0.326l-1.441,0.264l-0.311-0.031
		l-0.514-0.124l-0.201-0.062l-0.23-0.155l-0.154-0.108l-0.404-0.418l-0.369-0.48l-0.266-0.542l-0.201-0.744l-0.076-0.434
		l0.029-0.154l0.17-0.512l0.172-0.248l0.076-0.047l0.279-0.124l0.186-0.062l0.201-0.015l0.141-0.062l0.201-0.17l0.125-0.248
		l0.17-0.667v-0.031l-0.188-0.248l-0.123-0.14L245.976,52.229z M96.207,52.725l-0.201,0.078l-1.225,1.116l-0.155,0.201l-0.187,0.465
		l-0.016,0.403l-0.062,0.231v0.016v0.108l0.155,0.372l0.604,0.977l0.325,0.496l0.356,0.558l0.092,0.047l0.17,0.031l0.559-0.016
		h0.047l0.588-0.294l0.047-0.062l0.155-0.372l-0.015-0.047l-0.047-0.03l-0.588-0.295l-0.512-0.79l-0.637-1.751l-0.062-0.372
		l0.078-0.248l0.141-0.248l0.511-0.496l-0.046-0.062L96.207,52.725L96.207,52.725z M105.241,55.359l-3.13,1.225l-0.807,0.34
		l-0.076,0.202l0.031,0.078l0.512,0.418l1.146-0.604l1.812-0.45l0.232-0.139l0.17-0.217l0.094-0.311l0.094-0.496L105.241,55.359
		L105.241,55.359z M236.519,57.638l-0.896,5.161l-0.062,0.512l-0.016,0.264l0.047,0.17l0.047,0.264h0.016l0.062,0.155h0.045
		l0.078-0.124l0.094-0.341l0.543-3.022l0.387-1.938l1.148-0.573L236.519,57.638L236.519,57.638z M100.787,59.575l-0.124,0.015
		l-0.108,0.078l0.031,0.093l0.124,0.202l0.093,0.062l0.791,0.588l0.141,0.093h0.434l0.248-0.062l0.062-0.108v-0.217l-0.373-0.574
		l-0.061-0.092l-0.048-0.031l-0.17-0.047l-0.326,0.093L100.787,59.575L100.787,59.575z M105.995,60.924l-0.278,0.046l-1.101,0.341
		l-0.155,0.047l-1.287,0.527l-0.186,0.108l-0.107,0.124l-0.031,0.14l0.016,0.558l0.076,0.248l0.062,0.155l0.124,0.155l0.062,0.046
		l0.342,0.496l0.279,0.248l0.154,0.046l0.326-0.015l0.512-0.107l0.434-0.124l0.109-0.078l0.186-0.187l0.542-1.224l0.294-0.697
		l0.047-0.729l-0.124-0.061L105.995,60.924L105.995,60.924z M176.378,61.978l-0.076,0.031l-0.172,0.124l-0.387,0.449L175.449,63
		l-0.188,0.311l-0.34,0.759l-0.172,0.496l-0.047,0.17l-0.154,1.69l0.062,0.263l0.076,0.109l0.775,0.527l0.123,0.062l0.188,0.031
		l0.031-0.031l-0.031-0.031v0.031h-0.031l-0.201-0.078l-0.467-0.294v-0.311l0.096-0.092l1.146-0.403l0.525,0.17l0.188,0.093
		l0.201,0.077l0.076,0.124l0.141,0.418l-0.047,0.465l-0.076,0.635l2.512,0.465l3.875,0.031h0.029l0.016-0.062l-0.01-0.28L183.121,67
		l-0.506-1.085l-1.566-2.387l-1.598-0.837l-2.697-0.481v0.016l-0.232-0.094l-0.094-0.078L176.378,61.978L176.378,61.978z
		 M239.107,62.303l-0.342,0.078l-0.324,0.232l-0.42,0.542l-0.076,0.187l-0.527,1.224l-0.016,0.341l0.031,0.077l0.076,0.031
		l0.543-0.263l2.107-1.163l0.246-0.202l0.062-0.077l-0.139-0.45l-0.125-0.17l-0.648-0.294l-0.109-0.047L239.107,62.303
		L239.107,62.303z M111.081,62.582l-1.55,1.007l-0.217,0.249v0.14v1.286l0.341,0.264l0.278,0.14l0.388,0.092l1.085,0.109
		l0.449-0.015l0.637-0.527l0.277-0.341l0.031-0.047l0.744-1.147l0.016-0.077l-0.107-0.636l-0.17-0.186l-0.466-0.109l-1.101-0.031
		L111.081,62.582L111.081,62.582z M235.308,64.349l-0.109,0.031l-1.395,0.527l-0.188,0.201l-0.264,0.311l-0.047-0.202l-0.078-0.015
		h-0.107l-0.094,0.031l-0.105,0.078l-0.062,0.062v0.078L233,65.575l0.123,0.108l0.324-0.015l1.613-0.574l0.324-0.279l0.172-0.186
		L235.308,64.349L235.308,64.349z M258.076,77.694l-0.154,0.015l-0.324,0.093l-0.373,0.187l-0.232,0.187l-0.076,0.108l-0.076,0.186
		l0.014,0.666l0.17,0.527l0.109,0.124l0.992,1.1l0.107,0.078l0.248,2.479l1.844,2.869l0.047,0.076l0.094,0.047l0.092,0.017
		l1.891-0.915l0.018-0.016l0.201-0.542l-0.016-0.062l-0.621-0.93l-0.186-0.806v-0.03l0.031-0.062l1.734,0.155l0.76,0.667
		l1.334,1.488l0.123,0.154l0.094,0.201l0.217,0.543l-0.047,2.557l-1.781-0.31l-0.371-0.76l-0.295-0.992l-0.08-0.062l-0.23-0.109
		l-0.371-0.046l-0.932,0.248l-0.061,0.03l-0.062,0.045l-0.188,0.373l-0.094,0.683l0.018,0.124l0.092,0.202l0.154,0.124l0.604,0.744
		l0.188,0.418l0.389,1.146l0.016,0.233l-0.217,0.558l-0.154,0.418l-0.123,0.094l-0.527,0.325l-0.621,0.341l-0.637,0.311
		l-0.201,0.047l-0.201-0.016l-0.123-0.016l-0.389,0.76l0.373,0.356l0.59,0.263l0.697,0.172l0.512-0.047l1.301-0.232l1.365-0.371
		l0.154-0.062l2.061-1.07l3.721-0.387l0.154,0.016l0.107,0.016l0.668-2.992l-1.939-1.58l-2.121-1.953l-2.543-2.403l-0.543-0.325
		l-0.742-0.373l-0.172-0.078l-0.172-0.046l-0.512-0.078l-0.496-0.186l-0.916-0.512l-0.262-0.155l-0.543-0.465l-0.559-0.558
		l-0.387-0.435l-0.109-0.186l-0.867-1.984l-0.248-0.279l-0.123-0.077L258.076,77.694L258.076,77.694z M81.75,78.779l-0.217,0.078
		l-0.263,0.186l-0.031,0.108l0.434,0.806l0.155,0.032l0.356,0.03l0.435-0.759l-0.046-0.294L82,79.028v-0.016L81.75,78.779
		L81.75,78.779z M105.636,85.429l-0.125,0.016l-0.123,0.047l-0.108,0.062l-0.108,0.109l-0.078,0.108l-0.107,0.217l-0.062,0.248
		v0.187l0.248,0.31l0.17,0.17l0.094,0.062l0.14-0.016l0.155-0.094l0.062-1.271v-0.031L105.636,85.429L105.636,85.429z
		 M188.992,87.815l-0.525,0.078l-0.17,0.045l-0.248,0.109l-1.162,0.605l-0.73,0.572l-0.123,0.295l0.031,0.512l0.062,0.326
		l0.123,0.263l0.107,0.139l0.188,0.155l0.17,0.029l1.768,0.328l0.713-1.24l0.355-1.085l0.107-0.605l-0.029-0.248l-0.031-0.093
		l-0.141-0.077L188.992,87.815L188.992,87.815z M80.917,99.053l-0.667,0.031l-0.186,0.078l-0.217,0.187v0.092l0.047,0.062
		l0.512,0.62l0.093-0.513l0.124-0.217l0.062-0.03h0.062l1.907,0.479l0.806,0.295l0.093-0.016l-0.031-0.232l-0.604-0.434
		l-0.109-0.047l-0.31-0.092l-0.884-0.202l-0.325-0.046L80.917,99.053L80.917,99.053z M75.847,99.563l-0.51,0.017l-0.311,0.093
		l-0.124,0.077l-0.14,0.14l-0.311,0.372l-0.124,0.279l-0.017,0.202l0.109,0.201l0.092,0.046l0.248,0.047l0.449-0.621l1.83,0.124
		l1.829-0.341l0.015-0.031l-0.015-0.062l-0.2-0.217l-0.668-0.171l-0.217-0.03l-1.178-0.108L75.847,99.563L75.847,99.563z
		 M84.667,99.844l-0.355,0.435v0.187l0.201,0.837l0.045,0.108l0.109,0.124l0.124,0.076l0.171,0.078h0.047l0.03-0.047l0.017-0.526
		l-0.201-1.054L84.667,99.844L84.667,99.844z M70.827,100.556l-1.69,0.017l-0.201,0.03l-0.311,0.155l-0.107,0.093l-0.356,0.481
		l-0.03,0.14l-0.017,0.355l0.077,0.449l0.171,0.14l0.124,0.031l1.07-1.101l0.139-0.048l1.162-0.108l0.791-0.076h0.109l1.053,0.076
		h0.031v0.031l-0.062,0.062l0.015,0.031l0.387-0.031h0.017l0.015-0.047l-0.015-0.248l-0.062-0.094l-0.17-0.107l-0.203-0.078
		l-0.123-0.031l-0.481-0.062L70.827,100.556L70.827,100.556z M65.909,101.563l-0.125,0.031l-0.728,0.295l-0.047,0.047v0.045
		l0.154,0.248l0.697,0.156l0.791,0.094l0.697,0.029v-0.047l-0.017-0.078l-0.153-0.558l-0.078-0.031l-1.023-0.231H65.909
		L65.909,101.563z M60.064,101.967l-0.264,0.032l-0.465,0.124l-0.697,0.312l-0.187,0.092l-0.155,0.108l-0.062,0.125l0.03,0.093
		l0.125,0.187l0.324,0.263l0.357-0.046l0.992-0.078l3.797-0.479l0.294-0.092l0.45-0.155l0.016-0.078l-0.093-0.248l-0.124-0.062
		l-0.264-0.062l-0.527-0.016L60.064,101.967L60.064,101.967z M54.888,103.75l-3.426,0.341l-1.055,0.094l-0.17,0.047l-0.031,0.078
		l0.031,0.076l0.248,0.172l0.17,0.062h0.062l0.295,0.015l0.016-0.046l0.279-0.078l2.324-0.356l1.752-0.062l0.373-0.015l0.31,0.015
		l0.729,0.046l0.047,0.016l0.03,0.078l0.077-0.109l0.016-0.124l-0.031-0.077l-0.062-0.078l-0.435-0.093H54.888L54.888,103.75z
		 M46.47,106.71l-0.139,0.016l-2.604,0.774l-0.139,0.062l-0.047,0.047l-0.078,0.125l-0.046,0.201l0.093,0.435l0.217,0.325
		l1.287,1.039l0.326,0.045l0.062-0.016v-0.029l-0.062-0.047l-0.062-0.141v-0.154l0.046-0.062l0.201-0.078l0.264-0.016l0.155,0.094
		l0.263,0.542l0.062-0.015l0.264-0.203l0.031-0.045l-0.326-0.402l-0.635-0.574l2.619-0.729l-0.03-0.077l-0.249-0.28l-0.883-0.65
		l-0.326-0.141L46.47,106.71L46.47,106.71z"/>
	<path id="red_stripe" fill="#DD0000" d="M49.349,167.101l0.326,0.094l0.17-0.062l0.047-0.031H49.349L49.349,167.101z
		 M52.062,167.101l1.303,2.496l0.248,0.93l-0.046,1.068l-0.527,0.697l-0.341,0.729l-0.682,1.549L52,174.817l0.062,0.418l0.078,0.389
		l0.295,0.806l0.697,0.775l-1.256,0.744l-3.812,2.37l-0.914,0.992l-0.078,0.403l-0.201,0.806l-0.186,0.188l-0.387,0.372l-0.279,0.03
		l-2.821,0.916l-0.774,1.225l-0.729,1.721l1.192,0.635l2.232,1.906l0.094,0.389l0.045,0.666l-0.016,0.108l-0.124,0.31L43.8,192.69
		l-0.636,0.65l-0.604,0.436l-0.604,0.402l-0.341,0.108h-0.017l-0.713-0.714l-0.154-0.264l-0.248-0.155l-0.311,0.077l-2.853,0.977
		l-1.44,0.559l-0.73,0.387l-0.465,0.248l-2.402-0.031l-1.055-0.449l-0.077-0.016l-0.14,0.465l0.03,0.154l0.527,1.752l-0.218-0.03
		l-0.635-0.356l-0.961-0.836l-1.488-0.962l-0.325-0.217l-0.356-0.171l-0.124-0.016l-2.449-0.107l-0.96,0.636l-2.418,0.325
		l-1.085-0.046l-2.201,0.976l-0.744,1.226l0.728,3.487l0.93,3.1l0.031,0.047l0.17,0.232l1.597,0.729l0.078,2.232l-0.124,0.541
		l1.627,1.86l0.341,0.248l1.271,2.108l0.325,0.682l0.248,1.969v0.312l-0.17,1.131l-0.248,0.774l-0.325,1.582l0.496,1.768
		l-1.163,1.271l-3.58,4.51l-0.589,1.705l0.047,1.596l0.264,0.527l0.248,0.076h0.093h0.217l0.17-0.061l0.187-0.078l0.093-0.093
		l0.062-0.093l0.248-0.17l0.837-0.373l0.527-0.217l0.48,0.42l-0.202,0.093l-1.178,0.495l-0.496,1.426l-3.906,2.619l-3.1,1.009
		l-1.498,0.674l-0.031,0.03l0.016,0.264l0.294,1.488l0.714,1.55l0.434,0.513l1.255-0.295l1.953,0.154l0.264,0.031l0.016,0.062
		l-0.14,0.435l-0.295,0.604l-0.031,0.696l0.062,0.682l1.193,0.436l0.667,0.279l0.388,0.168l-0.031,0.172l-0.062,0.141l-0.17,0.17
		l-0.046,0.107l-0.217,0.729l0.031,0.248l0.124,0.264l0.155,0.188l0.046,0.355l-0.527,1.286l-0.511-0.265l-0.046-0.124l-0.202-0.031
		l-0.511,0.154l-0.497,0.202l-0.108,0.371l-0.806,2.558l1.333,2.217l2.201,1.24l0.093,0.063l0.17,0.154l0.666,1.69l0.062,0.216
		l0.125,0.264l0.48,0.807l0.232,0.326l0.403,0.373l-0.558,0.217l-0.078,0.031l0.434,0.572l1.721,0.45l-0.403,1.783l-1.627,1.55
		l-0.046,0.125l0.031,0.744l0.248,0.79l0.155,0.264l0.976,1.38l0.046,0.015h0.046l0.481-0.199l0.263-0.188l0.062-0.015l0.59-0.017
		l1.271,0.218l0.124,0.107l0.093,0.142l0.558,0.354l0.233,0.372l0.853,1.427l0.093,0.232l0.03,0.557l-0.03,0.341l-0.279,1.241
		l-0.155,0.402l-0.294,0.495l0.062,1.009l1.209,1.426l0.186-0.062l0.233,0.419l0.077,0.248l0.341,0.525l-0.713-0.046l-1.395,0.355
		l-1.101-0.56l-0.465,0.125l-0.217,0.076l-0.589,1.257l-0.187,0.448l-3.704,2.388l-0.078,0.108v0.046l-0.092,0.667l0.155,2.092
		l-1.209,1.022l-1.007,3.551l-0.154,1.503l0.759,3.007l0.574,1.457l0.17,0.372l0.217,0.48l1.659,2.758l0.883,1.023l2.79,1.704
		l1.535,1.535l0.109,0.108l0.542,0.31h1.473l0.403-0.265l0.387,0.265h197.406l1.039-1.938l0.295-0.34l0.139-0.125l0.031-1.736
		l-1.396-2.402l-0.311-0.448l-0.697-0.39l-0.496-0.077l-0.836-0.013l-2.031-1.209l-1.643-1.66l-1.906-0.308l0.154-1.023
		l-0.775-0.791l-0.496-0.388l-0.262-0.062l-0.344,0.107l-0.045-0.03l-0.266-0.31l-0.047-0.095l-0.123-0.619l-0.092-0.774
		l0.014-0.248l0.154-0.479l0.342-0.343l0.096-0.279l0.029-0.186l-0.496-1.039l-0.697-0.853l-0.559-0.589l-0.125-0.108l-1.627-0.867
		l-0.232-1.303l0.217-0.217l0.467-0.109l0.355-0.278l0.031-0.046l0.031-0.093l-0.59-1.315l-0.744-0.716l0.188-0.154l1.35-0.046
		l0.975-0.016l0.232,0.016l0.574,0.65l2.883,4.139l0.107,0.806l-0.092,0.403l-0.096,0.062l-0.262,0.108l-0.031,0.124l0.139,0.277
		l0.402,0.638l0.062,0.077l0.092,0.046l0.48,0.106l0.391,0.048h0.387l0.125-0.095l0.092-0.943l-0.172-0.356l-0.107-0.093
		l-0.107-0.062l-0.078-0.062l-0.076-0.231l0.141-1.364l0.107-0.373l0.945-1.891l1.053-1.534l3.674-4.588l2.201-0.619l2.512-0.326
		l0.541-0.075l1.848-1.025l2.604-1.58l0.031-0.015l0.326,0.17l2.076,1.333l1.439,0.946l0.373,0.123l1.053-0.637l0.188-0.14
		l1.008-1.239l0.109-0.187l0.045-0.188v-0.015l0.016-0.248l-0.076-0.187l-0.062-0.356l0.062-1.022l0.217-1.055l0.016-0.092
		l0.078-0.03l0.295-0.108l2.744-0.248l1.518,0.479l0.744-0.153l0.93-2.248l-0.047-0.341l1.658-1.845l2.916-2.232l1.068,0.109
		l1.922,0.945l0.943-1.226l0.451-0.277l0.912-2.062l0.02-0.062l-0.109-0.465l-0.107-0.246l3.598-2.156l0.494-0.062l3.439-0.448
		h0.078l0.945,0.2l0.154,0.062l0.264,0.202l0.219,0.062h0.061l0.59-0.078l0.295-0.108l1.238-0.82l0.156-0.389l0.031-0.217
		l-0.107-1.563l-0.131-0.238l0.914-0.078l0.404-0.03l4.168-1.332l0.295-0.108l0.543-0.667l0.977-0.525l5.531-2.822l2.621-0.945
		l0.355-1.24l-0.076-0.465l-0.141-0.201l-0.141-0.109l-0.188-0.076l-0.34,0.092l-1.734-0.464l-0.219-0.093l-0.125-0.094l-1.799-1.58
		l-0.045-0.094l0.93-2.898l0.123-0.31l0.188-0.218l0.355-0.031l0.062,0.016l0.107,0.095l0.479,0.556l0.094,0.094l0.092,0.047
		l2.279,0.852h0.078l0.248-0.031l2.354-0.341l0.049-0.713l-0.078-0.325l0.248-0.17l2.635,2.216l0.668,0.636l1.055,3.054l0.402,1.86
		l-0.402,1.209l0.045,0.389l1.008,0.402l2.713,1.022l1.055,0.187l0.23-0.016l0.715-0.062l0.17-0.107l0.078-0.34l0.217-1.21
		l0.172-1.193l0.68-1.364l0.697-0.852l0.76-0.977l0.143-0.248l0.604-1.813l0.355-1.597l0.107-0.543l-0.014-0.03l-0.125-0.124
		l0.34-1.24l0.436-0.604l0.109-0.807l0.959-7.114l0.125-0.589l0.574-1.349l0.014-1.426l-0.326-1.007l-2.416-5.178l0.016-2v-0.2
		l-0.635-1.069l-0.219-0.341l-0.047-0.047l-0.822-0.435l-0.105-0.062l-4.062-1.503l-0.123-0.016l-0.467,0.03l-0.434-0.03
		l-0.436-0.125l-0.525-0.187l-0.217-0.265l-0.639-1.487l0.018-0.077l0.496-0.961l0.465-0.667l0.402-1.333l-0.248-2.093l-0.342-0.697
		l-0.277-0.325l-0.344-0.279l-0.17-0.106l-1.117-0.853l-0.76-0.853l-0.246-0.543l-1.412-3.116l-0.512-0.154l-0.076-0.062
		l-0.107-0.14l-0.402-0.636l-0.031-0.248l-0.016-0.59v-0.029l0.186-0.202l0.838-0.869l0.574-0.479l1.455-2l0.48-1.688l0.094-2.976
		l-0.141-0.295l-0.062-0.03l0.697-1.193l0.188-0.373l0.016-0.062l0.217-1.627l-0.014-0.155l-0.467-0.759l-0.203-0.202l-0.293-0.218
		l-0.217-0.107l-0.311-0.093l-0.355-0.031l-0.107-0.078l-0.248-0.248l-0.156-0.231l-0.199-0.403l-0.156-1.286l0.018-0.171
		l0.061-0.124l0.404-0.511l0.23-0.466l0.031-0.217l0.109-3.178l-0.018-0.109l-0.047-0.092l-0.496-0.697l-0.107-0.141l-0.141-0.107
		l-0.045-0.016l-2.342-0.589l-0.154-0.03l-0.371,0.016l-0.201-0.094l-0.094-0.092l-0.479-0.527l-0.094-0.107l-0.031-0.124
		l-0.744-2.791l-0.172-1.317l-0.123-0.278l-0.355-0.542H52.064L52.062,167.101z"/>
	<path id="gold_stripe" fill="#FFCE00" d="M26.874,299.53l0.388,0.218l0.062,0.015h0.728l0.357-0.231L26.874,299.53L26.874,299.53z
		 M29.153,299.53l0.62,0.419l0.279,2.077l0.016,0.324l-0.744,2.542l-2.883,4.682l-0.604,0.636l-0.124,0.124l-0.139,0.062h-0.249
		l-0.108,0.062l-0.218,0.232l-0.666,0.961l-0.046,0.093v0.046l0.697,1.086l0.015,0.016l-0.666,0.714l-0.124,0.218l-0.031,0.093
		l0.202,3.1l0.248,0.295l0.62,0.031l0.326-0.078l0.17-0.076l0.837-0.172l1.146,0.417l2.139,1.646l0.233,0.186l0.264,0.279
		l0.202,0.311l-0.295,0.077l-0.341,0.278l-0.062,0.124l0.032,0.218l0.774,2.961l0.032,0.094l0.682,1.239l0.17,0.249l0.465,0.571
		l0.14,0.154l0.806,0.45l0.961,0.819l0.637,1.597l0.031,0.095l-0.047,0.897l1.069,0.62l0.233,0.667l-0.713,0.866l0.278,0.668
		l0.573,0.637l2.743,0.494l0.837-0.152l0.465-0.729l0.092-0.216l0.016-0.156l-0.278-0.93l-0.278-0.402l-0.232-0.188l0.078-0.107
		l0.711-0.449l1.984,0.217l0.697,0.201l1.162,0.42l1.085,0.838l0.62,0.944l-0.047,0.265l0.125,0.712l0.326,1.86l0.108,0.249
		l0.14,0.14l0.17,0.062l0.326-0.108l0.805-0.808l0.418-1.271l0.48,0.822l0.635,0.62l0.233,0.14l0.419,0.231l0.107,0.062l0.295-0.341
		l0.341-0.123l0.217-0.062l2.046,0.2l0.713,0.296l0.496,0.372l0.356,0.105l0.171-0.105l2.17-1.737l0.141-0.526l-0.031-0.14
		l0.015-0.247l0.543-0.156l0.993-0.169l1.178-0.202l1.581,0.808l0.093,0.695l-0.093,0.604v0.402l1.038,2.001l0.682,0.604
		l0.465,0.293l2.217,1.365l1.427,0.543l1.922,0.105l0.961-0.044l0.155-0.031l1.689-0.389l2.434,0.357l0.496,0.229l0.666,0.062
		l1.613,0.466l2.465,1.192l0.356,0.355l0.341,0.402l0.047,0.141l0.805,0.371l1.505,0.604l0.418,0.077l0.496-0.016l0.155-0.079
		l1.72,0.218l0.077,0.048l0.078,0.141l0.17,0.265l-0.836,0.278l-0.154,0.046l-0.155,0.076l-0.155,0.156l-1.674,2.635l-0.435,0.806
		l-0.201,0.45l-0.187,0.418l-0.293,0.821l-0.201,0.65l-0.141,0.604l-0.093,0.389l-0.124,0.265l-0.202,0.324l-0.356,0.437
		l-0.387,0.341l-1.721,1.224l-1.24,0.312l-0.201,0.016l-0.231,0.107l-0.078,0.062l-0.077,0.171l-0.357,1.798l-2.371,2.729
		l-0.248,0.188l-0.729,0.418l-0.604,0.247l-0.109,0.108l-0.076,0.107l-1.334,2.604l-0.078,0.218l-0.015,0.155v0.232l0.106,0.542
		l0.033,0.448l-0.017,1.781v0.202l-0.062,0.265l-0.155,0.342l-0.14,0.201l-1.146,2.34l-1.055,2.573l-0.108,0.324l-0.062,0.325
		l-0.047,0.357v0.293l0.047,0.435l0.355,1.938v0.154l-0.046,0.154l-0.077,0.188l-0.078,0.093l-0.093,0.107l-0.248,0.14l-0.837,0.311
		l-0.232,0.171l-0.186,0.232l-0.124,0.247l-0.03,0.17l-0.357,1.83l-0.326,1.146l-0.17,0.526l-0.094,0.218l-1.162,1.58l-1.084,1.427
		l-0.094,0.154l-0.774,1.689l-0.046,0.124l-0.016,0.231l-0.295,1.565l-0.031,0.218l-0.078,2.138l-0.016,0.188l0.047,0.14
		l0.077,0.125l1.054,1.317l0.232,0.387l0.141,0.326l0.154,0.604v0.324l-0.062,0.249l-0.264,0.465l-0.232,0.325l-0.899,1.271
		l-0.897,2.355l-0.078,0.263v0.342l0.046,0.202l0.17,0.466l0.03,0.277l-0.03,0.266l-0.108,0.341l-0.619,1.41l-0.451,1.101
		l-0.045,0.171l-0.031,0.42l0.031,0.2l0.463,1.441l0.078,0.264v0.171l-0.062,0.355l-0.124,0.296l-0.141,0.201l-0.108,0.122
		l-0.791,0.622l-0.062,0.106l-0.047,0.188l0.217,1.409l0.031,0.172l0.078,0.216l0.094,0.154l2.154,2.821l2.883,0.76l0.17,0.479
		l0.093,0.449l-0.017,0.172l-1.24,0.495l-0.231-0.062l-0.124,0.062l0.342,0.559l0.604,0.636l0.076,0.078l0.389,0.153l0.402,0.032
		l0.141-0.017l1.906-0.544l1.334-0.479l0.248-0.141l0.511-0.543l0.093-0.202l0.713-0.696l1.768-0.062l0.109,0.017l0.186,0.078
		l0.078,0.076l0.527,0.775l1.658,0.682l2.062,0.448h0.093l2.293-0.293l0.124-0.048l0.217-0.17l0.094-0.217l0.045-0.419l0.047-0.125
		l0.062-0.107l0.171-0.172l3.084-1.796l0.107-0.048l0.125-0.03l0.248,0.03l1.597,0.311l0.931,0.231l0.278,0.153l0.108,0.109
		l0.016,0.062l-0.094,0.45v0.17l0.078,0.171l0.078,0.107l0.805,0.761l0.125,0.062l0.078,0.03l0.186,0.032l3.301,0.278l0.248-0.047
		l0.915-0.231l0.759-0.249l0.279-0.186l-0.016-0.063l-0.186-0.278l-0.666-0.838l1.859-1.456l0.559,0.123l0.03,0.019l0.636,0.324
		l0.356,0.401l0.062,0.095l0.031,0.141l-0.046,0.076l-0.125,0.047l-0.093,0.355l0.125,0.266l0.511,0.092l0.278-0.248l0.435-0.465
		l0.744-1.534l0.187-0.467v-0.14l-0.744-1.007l-0.17-0.03l-0.125-0.017l-1.271,0.107l-0.294,0.062l-0.667,0.278l-0.217,0.14
		l0.077,0.294l-1.938,0.791l-0.109-0.047l-1.967-1.41l-0.218-0.372v-0.062l0.231-1.009l1.613-2.773l0.572-0.744l0.543-0.435
		l0.729-0.141l1.611-0.342l0.201-0.604l0.372-0.526l1.396,0.278l0.17,1.704l0.279,0.419l0.123,0.062l0.465-0.311l0.109-0.125
		l0.186-0.325l-0.123-0.559l1.146,0.373l0.807,0.696l0.558,0.93l-0.31,0.355l-0.125,0.436l0.498,1.768l0.045,0.154l1.907,0.819
		l0.279,0.11l0.14-0.017l0.495-0.899l2.279,1.985l0.62,0.372h0.109l1.44-0.42l0.62-0.294l0.373-0.232l0.248-0.231l0.217-0.14
		l0.589-0.31l0.573-0.234l0.188-0.045l0.139,0.016l0.884,0.093l0.217,0.031l1.226,0.278l0.248,0.078l0.186,0.106l1.146,0.62
		l1.256,0.511l0.666-0.105l0.791-0.479l-0.201-0.792l-1.271-2.712l-0.821-0.682l-0.154-0.016l-0.264,0.046l-0.062-0.016
		l-1.627-1.115l-0.279-0.187l-0.371-0.31l-1.225-1.271l-0.078-0.124v-0.062l0.124-0.248l0.185-0.312l0.76,0.125l0.141,0.124
		l0.188,0.293l0.123,0.062l1.039,0.666l3.797,2.496l0.312,0.279l0.03,0.046l0.016,0.188l-0.062,0.093l0.078,0.419l0.094,0.248
		l0.264,0.447l0.389,0.391l0.51,0.465l1.334,0.898l1.008,0.542l0.449,0.232l0.125,0.061l0.186,0.018l0.248-0.077l0.264-0.155
		l0.125-0.016l0.65-0.107l0.201-0.016h0.295l0.48,0.14l2.448,0.774l0.279,0.232l0.325,0.448l0.201,0.388l0.062,0.436l0.402,0.931
		l0.714,0.772l0.155,0.095l0.17,0.076l0.42,0.046h1.021l0.078,0.451l0.434,0.277l1.58,0.651l1.893,0.59l1.238-1.706l0.312-0.448
		l0.403-0.311l0.807-0.046l0.077,0.015l0.729,0.449l0.123,0.42l-0.047,0.943l-0.076,0.155l-0.095,0.107l-0.077,0.03l-0.062,0.048
		l-0.077,0.186l0.031,0.108l2.015,0.962l1.659-0.047l0.372-0.154l1.101-0.589l0.108-0.108l-0.095,0.402l-0.014,0.341v0.527
		l1.055,1.782l0.186,0.2l0.078,0.03h0.264l0.436-0.122l1.023,0.418l0.944,1.068l0.435,0.574l0.448,0.773l-0.354,0.561l-0.047,0.046
		l-0.31,0.123l-0.264,0.544l0.774,2.494l2.278-0.729l0.125-0.124l-0.017-0.2l0.017-0.544l0.435-0.324l1.564,0.17l0.079,0.031
		l0.231,0.326l0.03,0.417l-0.015,0.062l-0.372,0.511l-0.312,0.402l-1.303,3.008l-0.124,0.389l-0.108,0.45l0.017,0.263l0.062,0.187
		h0.14l2.217-0.389l1.364-0.511l1.473-0.917l0.744-0.712l2.402-3.068l1.984-2.666l-0.17-1.938l-0.031-0.373l-0.248-0.278
		l-0.326-0.153l-0.2,0.077l-0.093-0.029l-0.094-0.096l-0.326-0.865l-0.062-3.751l0.202-0.327l0.062-0.017l1.084-0.169h0.14
		l0.016,0.388l-0.106,0.513l-0.312,0.371l-0.216,0.326l0.23,0.17l0.977,0.62l1.209,0.248l1.535,0.062l0.154-0.016l0.295-0.729
		v-0.077l0.23-0.466l0.403-0.465l0.604,0.046l2.51,0.419l0.047,0.124l-0.03,0.093l0.017,0.171l0.108,0.312l2.418,0.975l1.161,0.233
		l1.939-0.761l1.084-0.123l0.666,0.976l-0.961,0.744l-0.23,0.218l-0.016,0.683l0.061,0.2l0.248,0.106l0.109,0.017l1.611,0.342
		l1.146,1.192l0.791,0.915l0.045,0.465l-0.141,0.125l-0.295,0.062l-0.029,0.046l-0.078,0.232l0.062,0.604l0.311,0.155l0.59,0.106
		l0.342,0.017l2.619-0.123l1.721-0.854l0.637-0.373l0.184-0.091l1.691-0.667l1.504,0.03l0.076,0.062l0.094,0.187l-0.449,0.418
		l-0.543,0.945l-0.047,0.219l0.078,0.093l0.125,0.015l1.439-0.155l0.094-0.029l0.389-0.232l0.201-0.247l0.154-0.496l0.094-0.187
		l0.277-0.497l2.713-2.4l0.838-0.978l0.092-0.186l0.682-0.776l0.107-0.093l0.125-0.046l0.23,0.293l0.326,0.095l1.723,0.154
		l2.168-0.496l0.125-0.046l0.525-0.573l-0.031-0.699l-0.045-0.124l-0.016-0.092v-0.107l0.061-0.559l0.574-1.224l0.047-0.078
		l0.885-0.574l0.572,0.109l4.836,0.016l1.379,0.248l0.514,0.045l0.107-0.061l0.572-1.022l1.611-0.621l1.922-0.247l1.783,0.216
		l1.41-0.388l0.76,0.437l1.613,0.17l1.844,0.046l0.682-0.154l0.078-0.062l0.062-0.095l0.029-0.14v-0.093l-0.248-0.977l-0.154-0.497
		l-0.572-1.255l0.078-1.721l2.139-2.093l0.246-0.077l0.219,0.295l0.078,0.231l-0.23,0.542l-0.174,0.311l0.574,1.769l2.371-0.899
		l-0.076,0.231l0.107,0.077l0.885,0.342l2.604,0.278l0.062,0.125l0.898,1.209l1.191,1.224l0.465-0.03l2.389-1.225l0.449-0.962
		l0.264-0.372l0.154-0.031l1.938-0.435l0.42-0.093h0.201h0.402l1.922,0.526l0.729,0.218l1.332,2.758l-0.479,0.513l-0.373,0.945
		l-0.047,0.188l0.172,0.495l0.373,0.604l0.34,0.325l3.812,2.59l1.457,0.819l0.402,0.188l1.303,0.525l0.094,0.029l0.092-0.062
		l1.365-1.474v-0.355l-0.078-1.131l-0.031-0.124l-0.154-0.125l-0.154-0.062l-0.152-0.124l-0.08-0.093v-0.078l0.279-2.199
		l0.047-0.343l0.914-1.426l0.637-0.76l0.154-0.155l0.076-0.372l-0.047-0.232l-1.066-2.604l-0.73-0.93l-0.139-0.093l-0.977-0.479
		l-0.25,0.017l-0.076,0.03l-0.109,0.217l0.033,0.062l-0.033,0.078l-0.076,0.107l-0.355,0.247l-0.141,0.079l-0.479,0.03l-1.66-0.125
		l-0.434-0.324l-0.266-0.295l-0.045-0.107l0.014-0.095l1.846-3.703l1.287-2.264l0.031-0.17l-0.031-0.217l-0.094-0.232l-1.395-2.512
		l-1.117-1.752l-0.449-0.65l-0.105-0.093l-0.25-0.107l-1.191-0.218l-0.125-0.125l-0.107-0.231l-0.467-1.797l-0.029-0.125
		l-0.141-0.265l-0.201-0.247l-0.402-0.418l-1.008-0.822l-1.41-1.179l-0.324-0.402l-0.156-0.354l-0.105-0.389l-0.125-0.914v-0.142
		l0.061-0.077l0.248-0.326l1.287-1.053l1.084-0.838l0.078-0.107l0.449-0.543l0.465-1.021l0.047-0.143l0.016-0.339l0.031-0.094
		l0.109-0.155l0.139-0.107l0.094-0.03l1.426-0.233l0.914-0.045l0.172-0.03l0.199-0.094l0.189-0.124l0.17-0.153l1.145-1.333
		l0.109-0.201l0.17-0.358l0.078-0.151l0.17-0.171l0.154-0.109l1.955-1.053l0.277-0.062l0.309,0.016l0.604,0.016l0.373-0.078
		l0.248-0.106l1.395-0.774l2.465-0.03l0.232-0.047l0.17-0.108l1.953-1.287l0.279-0.218l2.51-2.586l0.125-0.142l0.078-0.123
		l0.092-0.248l0.637-2.465l0.047-0.188l-0.016-0.153l-0.062-0.233l-0.387-0.62l-0.016-0.077v-0.187l0.139-0.495l0.125-0.266
		l0.619-1.922l0.029-0.106l-0.34-1.334l-0.031-0.046l-0.387-0.465l0.99-0.312l0.23-0.107l0.545-0.449l0.387-0.435l0.076-0.153
		l0.189-0.809l2.65,1.008l2.494,1.565l0.141,0.109l1.439,0.76l0.715,0.168l0.094-0.076l2.277-3.208l0.668-2.247l-0.016-0.807
		l-0.59-2.838l-0.65-1.132l0.449-0.806l0.342-1.053l0.279-1.102l-0.639-1.316l-2.865-4.23l-0.297-0.016l-0.199,0.199l-0.156,0.077
		l-0.93,0.047h-0.418l-0.188-0.062l-0.559-0.649l-0.34-0.729l-0.373-0.868l-0.512-0.667l-1.256-1.378l-0.094-0.078l-0.139-0.093
		l-1.705-0.063l-0.744,0.28l-0.016,0.449l0.047,0.265l0.061,0.2l0.016,0.45l-0.309,0.062l-0.109-0.017l-2.17-1.458l-0.541-0.354
		l-0.496-2.123l-0.326-1.133l-0.277-0.435l-1.596-1.752l-0.684-0.542l-1.227-0.869l-0.23-0.107l-0.199,0.017l-0.668,0.171
		l-0.355,0.141l-0.311,0.093l-0.869-0.355l-0.418-0.249l-0.527-0.373l-0.449-0.447l-0.029-1.488h-0.188l-0.123-0.062l-0.449-0.374
		l-0.822-0.742l-0.449-0.59l-2.898-3.858l-1.008-1.318l-1.008-0.944l-0.773-0.436l-0.154-0.03l-1.457-0.248l-0.434-0.048
		l-0.277,0.033l0.045,0.355l0.186,0.23l0.096,0.278l-0.062,0.049h-0.34l-2.48-0.357l-0.561-0.187l-0.246-0.125l-0.744-1.363
		l0.092-0.372l-0.152-0.619l-3.396-2.696l-0.852-1.271l0.309-0.402l0.018-0.062v-0.279l-0.047-1.054l-0.078-0.682l-0.047-0.108
		l-0.139-0.232l-0.156-0.016l-0.047,0.047l-0.061,0.218l-0.279-0.03l-0.604-0.219l-0.467-0.295l0.156-0.187l-0.201-0.17
		l-0.467-0.683l-1.363-2.944l-0.387-2.65l-0.201-0.806l-0.094-0.046l-2.201-0.638l-0.25-0.062l-0.092-0.062l-0.092-0.094
		l-0.947-1.316l-0.232-0.372l-0.168-0.682l-0.031-0.124l0.031-0.141l2.107-1.456l0.078-0.342l0.152-1.658l0.279-0.868l0.076-0.153
		H29.151L29.153,299.53z M100.11,408.837l-1.255,0.079l0.107,1.083l0.311,0.266l1.025-0.12l0.355-0.041l-0.061-0.236l-0.356-0.921
		l-0.124-0.11L100.11,408.837z"/>
</g>
</svg>
