<?xml version="1.0" encoding="utf-8"?>
<!-- Generator: Adobe Illustrator 16.0.0, SVG Export Plug-In . SVG Version: 6.00 Build 0)  -->
<!DOCTYPE svg PUBLIC "-//W3C//DTD SVG 1.1//EN" "http://www.w3.org/Graphics/SVG/1.1/DTD/svg11.dtd">
<svg version="1.1"
	 id="svg2" xmlns:dc="http://purl.org/dc/elements/1.1/" xmlns:cc="http://creativecommons.org/ns#" xmlns:svg="http://www.w3.org/2000/svg" xmlns:rdf="http://www.w3.org/1999/02/22-rdf-syntax-ns#" xmlns:sodipodi="http://sodipodi.sourceforge.net/DTD/sodipodi-0.dtd" xmlns:inkscape="http://www.inkscape.org/namespaces/inkscape" inkscape:version="0.47 r22583" sodipodi:docname="Flag-map_of_Greece.svg"
	 xmlns="http://www.w3.org/2000/svg" xmlns:xlink="http://www.w3.org/1999/xlink" x="0px" y="0px" width="473.976px"
	 height="451.477px" viewBox="0 0 473.976 451.477" enable-background="new 0 0 473.976 451.477" xml:space="preserve">
<defs>
	
	
		<inkscape:perspective  id="perspective266" inkscape:vp_z="804 : 414.5 : 1" sodipodi:type="inkscape:persp3d" inkscape:vp_x="0 : 414.5 : 1" inkscape:vp_y="0 : 1000 : 0" inkscape:persp3d-origin="402 : 276.33333 : 1">
		</inkscape:perspective>
</defs>
<sodipodi:namedview  id="namedview260" showgrid="false" pagecolor="#ffffff" inkscape:cx="393.98615" gridtolerance="10" inkscape:zoom="0.91780773" objecttolerance="10" bordercolor="#666666" inkscape:cy="401.50021" borderopacity="1" guidetolerance="10" inkscape:current-layer="svg2" inkscape:window-maximized="1" inkscape:window-y="-4" inkscape:pageopacity="0" inkscape:window-height="979" inkscape:pageshadow="2" inkscape:window-x="-4" inkscape:window-width="1280">
	</sodipodi:namedview>
<g>
	<path id="path6" fill="#0D5EAF" d="M310.225,19.339c6.176,2.494,12.967,3.932,18.455,8.16c1.08,6.146,5.041,13.131,1.006,18.831
		c-1.207,0.731-2.115-0.794-3.266-0.25c-2.307,2.541-4.742,5.057-8.035,5.522c0.473,4.587-0.752,9.185,2.387,13.433
		c-2.229,2.484-4.414,5.096-6.904,7.154c-1.678,3.542-2.344,7.845-6.277,9.793c-0.883,0.369-2.057,1.176-2.762,0l-1.758-5.273
		c-9.676-2.869-20.582-1.234-29.5-6.652c-3.459,0.133-6.703-0.319-9.918-1.131c-2.094-1.068,1.348-4.272-1.129-4.394
		c-2.205,2.416-3.43,6.086-7.406,6.151c-4.723,6.197-13.92,6.061-18.33-0.501l-4.896-0.126c-5.729,3.466-7.803,11.388-15.062,12.554
		c-5.184-0.614-11.449-3.998-16.445-0.878c0.471,3.907,4.756,8.059,8.787,8.536c2.348,2.801,1.172,4.971-1.883,5.899
		c0.287,1.226,0.477,2.575,1.631,3.391c3.09,2.617,3.611-2.479,5.9-2.385c2.391,2.412,4.803,5.492,8.41,6.15
		c3.605,3.948,7.594,7.844,9.166,12.93c-1.938,1.379-4.9,1.955-7.406,1.883c-1.357-1.924-2.229-4.152-3.266-6.276
		c-5.594-3.36-11.117-7.769-17.951-7.657l-2.889,1.633c0.057,1.336,0.959,2.787,2.008,3.766c1.316,0.604,2.348,1.669,3.516,2.51
		c6.926,1.248,12.533,13.271,4.395,16.195l-1.883-0.629l-5.021-2.51c-0.979-5.132-4.043-9.557-7.783-13.308
		c-3.854-0.209-7.859-3.313-11.299-2.51c-1.494,6.548,7.006,12.393,12.805,13.558l6.652,7.407c-0.09,0.478-0.525,0.914-1.004,1.004
		c-3.514-0.084-7.135,0.347-10.418-0.627c-2.553-2.679-5.906-3.649-9.039-5.022c-1.637-4.098-3.225-8.1-2.762-12.805
		c-5.875-3.809-12.83-5.955-18.078-11.046l-2.887-6.653c0.922-2.494,4.365-1.549,5.523-3.516c-0.566-0.979-1.531-1.944-2.512-2.51
		c-2.078,2.251-5.553,2.607-7.154,5.898c-3.277-0.168-4.001,4.324-2.889,6.654v3.516c-1.478,4.189-5.308,7.491-4.017,12.553
		c0.726,2.59,2.201,4.869,4.394,6.654c2.509,6.809,9.975,11.147,9.668,18.955l1.129,3.893c1.639,2.101,3.812,3.216,6.277,3.766
		c4.475,7.085,11.781,12.9,14.311,20.839c1.533-0.194,2.707-2.022,4.395-2.385c1.863,0.981,3.043,2.849,2.512,5.021
		c-1.398,2.893-6.238,2.644-7.533,0c-4.146,3.68-9.41,5.112-15.064,4.521c2.65,4.894-3.754,7.874-7.406,9.917
		c2.965-0.875,7.844-1.031,8.537-4.771l10.293-4.017c2.336,1.583,4.533,3.39,6.529,5.522c1.008,6.467,6.473,11.364,13.057,11.551
		c4.334,5.503,11.289,4.482,17.699,4.394l1.381,1.129c-1.104,4.222,3.361,5.198,4.645,8.411l-2.008,3.013
		c0.98,4.671,1.809,9.341,3.139,13.936c3.438,3.743,8.355,5.298,13.434,4.646c0.883-0.232,1.32,0.656,1.883,1.131l0.502,7.28
		c-1.344,3.863-6.072,5.766-8.914,2.134c-2.715,3.677-6.955-1.723-6.15-4.896c-7.568-2.546-7.201-12.76-12.555-18.078l-12.428-0.626
		l-2.889,0.124c2.516,2.992,6.971,3.488,10.42,4.896c3.27,0.686,6.006,3.088,8.537,5.021c0.174,1.441-0.127,2.738-0.502,4.02
		c-6.488,8.938,4.082,19.777-0.125,28.998c-5.893,1.923-8.375-3.324-10.043-7.783c-6.846,1.436-6.035-8.422-12.303-8.787
		l-1.508-1.005c-0.541-1.15,0.984-2.062,0.252-3.264l-2.887-0.126c-2.697,2.221-5.846,3.664-9.541,3.013
		c-3.645,2.008-7.572,2.993-11.424,4.143c-0.059,0.441,0.502,0.798,0.879,0.88c4.555-1.435,5.725,2.229,7.031,5.523
		c-1.729,2.096-3.467,5.84-0.879,8.41l4.268,2.512c-1.467-3.817,2.207-5.214,5.523-4.771c2.596,2.174,0.801,4.848,0.252,7.281
		c2.641,1.454,5.521,3.444,6.275,6.528c-3.6,4.096-12.236,0.477-13.559,7.03l-1.254,1.255l-2.135,0.88
		c-3.281,0.504-9.787-6.398-4.896-7.909c0.344-0.424,1.191-0.847,0.754-1.506l-5.398-3.14c-2.789-2.151-6.297-1.252-9.416-0.377
		c-0.562,7.215,7.08,12.976,6.527,19.835c0.309,0.431,0.75,0.646,1.256,0.752c3.686,7.749,6.395,15.702,8.16,23.979
		c-2.641,0.095-3.645,2.201-3.012,5.021c2.635,4.121,6.498,7.799,7.406,12.43c-4.287,0.693-8.688,0.593-9.539-4.27
		c-6.232,0.74-5.932-7.592-10.295-9.289l-0.503-1.006c-0.271-2.312-0.044-4.841-1.255-6.776l-7.784,1.506
		c-1.812,3.883-2.808,7.934-4.142,11.927c1.221,3.11,2.876,8.767-0.879,10.419c-0.768-3.974-5.197-4.417-8.034-6.528
		c-0.197-0.386-0.197-0.869,0-1.256c5.075-6.623-1.001-14.696-3.265-21.09c-1.668-0.599-3.942,0.64-5.273-0.752l-0.125-2.889
		c0.906-2.188,0.359-4.558-2.135-5.397c-1.936,0.634-3.992,1.527-5.774,2.512l-0.126,12.428c-1.27,1.521-2.197,3.499-4.018,4.52
		c-2.702-2.551-2.264-8.53-8.034-6.526l-1.382-0.63c-0.274-2.902,0.938-5.763,0.252-8.785c-1.785-2.291-3.566-4.585-4.896-7.155
		c0.062-2.519-0.309-5.118,0.629-7.408l4.896-6.653c-0.25-8.456-7.638-13.234-13.183-18.956l-3.766,0.251
		c-0.217-0.287-0.638-0.447-0.627-0.878c1.175-2.575,0.409-5.966-1.632-7.909c-4.763-0.638-8.29-3.891-6.905-9.163
		c0.09-0.479,0.527-0.913,1.004-1.005c0.91-0.069,1.784-0.041,2.511,0.503c5.188-3.117,9.254-8.361,9.165-14.438
		c2.323-1.484,4.354-0.482,6.778,0c1.746,0.583,3.535,1.745,5.522,1.257l2.512-2.512c2.4-6.041,9.561-6.237,15.064-6.275l2.26,3.264
		c2.826-0.283,3.8,2.394,5.523,4.018c9.133,2.579,19.508,4.425,26.11,12.052c1.3,0.628,2.509,1.405,3.515,2.512
		c1.572-0.071,3.451,1.554,4.77,0c-1.006-1.789-7.707-2.417-3.891-4.896l4.018-2.008c3.666,0.139,9.074,1.898,11.926-0.88
		c-3.771-8.782-17.208-1.593-21.09-10.043l-3.012-3.516c-2.912-0.538-2.467,4.832-5.273,4.771c-1.557-2.711-1.259-6.786-4.771-7.784
		c-1.961-0.364,0.183,3.197-1.883,3.39h-9.039c-3.416-1.101-6.728-2.566-10.043-4.018c-3.098,2.212-7.125,0.894-10.043,3.515
		c-4.059-2.418-7.437,1.737-11.549,2.01l-8.034-4.52c-3.373,1.231-5.946,6.036-9.917,3.893l-2.762-12.806
		c-3.08-0.766-2.627-4.587-3.515-7.03c-4.098-0.459-3.917-4.953-5.022-8.035c-0.386-0.196-0.868-0.196-1.255,0
		c-0.974,0.908-2.268,0.853-3.515,1.006c-1.172,2.295-0.664,4.962-1.757,7.281c-2.122,2.291-5.312,2.364-7.909,3.641l-1.38-1.13
		c-1.227-7.267,3.411-15.787,10.796-17.073l0.753-3.264c3.945-1.635,10.946-3.621,12.93,1.381c0.93-0.836,2.249-1.463,3.39-0.627
		c0.209-1.376,0.209-2.893,0-4.268c-3.755-1.779-10.349-0.108-13.056-4.521c-2.259,0.542-0.146,5.282-2.385,6.401
		c-1.379,0.053-2.715,0.112-3.891-0.627c-0.674-7.508-9.737-10.877-11.299-17.826c-2.142-0.635-4.737-0.248-6.276-2.26l-1.506-3.014
		c-0.45-8.14-8.331-12.956-11.675-19.961l0.125-1.381c3.613-0.479,6.593,2.553,10.294,1.758c4.929-1.127,1.125-11.429,6.277-7.533
		c0.507,0.387,0.947-0.173,1.255-0.501c-0.117-3.487-3.217-6.352-3.39-9.918c-0.011-0.429,0.411-0.59,0.627-0.878
		c3.764-0.095,5.042-8.009,9.542-4.268l1.381,0.125c1.412-0.891,3.335-0.604,4.394-2.135c2.241-7.688,4.73-15.531,9.289-22.346
		c6.494,3.122,12.544-8.853,6.027-12.805l-0.628-1.38c-0.015-2.564-0.094-5.278,1.13-7.407c5.298-1.514,10.344-1.546,15.942-1.129
		c3.347-1.875,8.918-3.65,11.55,0c1.401-0.723,2.269-2.182,3.138-3.391c8.648,2.162,9.863-10.313,17.45-12.177
		c2.724,2.324,5.019-0.358,7.532-1.004c5.785,1.172,15.109,6.638,19.207-0.377l1.381-0.126l1.506,1.005
		c2.721-2.509,1.53-7.612,4.52-10.043c5.318,0.052,10.436,0.81,15.566,1.507c2.609-1.138,3.453-4.578,6.025-6.025
		c1.377,0.294,1.277,2.131,2.51,2.512l5.523-2.009l3.516,0.502c5.693,2.935,11.299-1.737,16.068-4.52
		c2.117-0.377,3.279,3.251,5.398,1.38c0.961-1.879,0.719-4.167,2.26-5.773c1.641-0.509,2.793,1.426,4.393,1.381
		c1.494-0.574,2.109-2.968,4.018-2.511c2.791,5.312,8.109-0.288,12.428,0.628l2.762,7.281c3.24,0.295,5.691,1.646,7.91,4.143
		c6.686-4.802,13.086,2.521,19.457,4.645c0.084,0.793,0.754,1.225,1.258,1.759l2.887,0.125c4.584-1.526,9.746-1.06,14.061-3.515
		c3.008,0.473,5.594-0.52,8.033-2.01h2.008c3.332,3.203,8.221,0.359,11.926-0.627c2.609-3.857,0.539-7.949,0.502-12.303
		c-1.355-2.134-4.275-3.474-4.895-6.151C305.28,22.421,308.606,21.719,310.225,19.339z"/>
	<path id="path8" fill="#FFFFFF" d="M329.307,42.438h-18.578c1.355-3.265-0.316-6.629,0-10.043l-0.504-1.004
		c1.195-3.572-3.455-3.298-4.016-6.026l5.021-4.017c5.115,3.292,11.508,3.204,15.941,7.657l2.637,11.424v1.506
		C329.725,42.188,329.559,42.354,329.307,42.438z"/>
	<path id="path10" fill="#FFFFFF" d="M244.948,42.438h-41.68l0.125-0.376c2.156-0.936,4.025-2.332,6.027-3.516
		c1.793,1.25,3.965,1.814,6.277,1.256c1.588-1.404,0.852-3.816,2.258-5.272h0.754c1.689,1.593,4.104,0.897,5.271-1.005l0.879-0.125
		c0.43-0.011,0.592,0.411,0.879,0.627c0.107,0.507,0.322,0.947,0.752,1.255c3.5,0.666,6.412-2.019,9.793-1.757l3.262,7.282
		C241.37,41.155,243.997,40.373,244.948,42.438z"/>
	<path id="path12" fill="#0D5EAF" d="M203.268,42.438h41.68c1.277,0.251,1.008,2.087,2.008,2.51h2.008l4.018-2.008l1.383,0.125
		c4.07,2.337,8.777,3.501,12.553,6.528l0.252,1.255c0.287,0.217,0.449,0.638,0.879,0.628h3.012c2.908-0.872,5.906-1.418,9.039-1.508
		l7.156-2.385c2.547,1.195,5.02-0.973,7.406-1.632c1.426-0.493,1.939,1.089,3.012,1.507h2.512c3.355-1.522,8.949-0.25,10.168-4.896
		l0.377-0.125h18.58c0.064,0.702,0.053,1.479-0.629,1.882c-3.254-1.903-4.67,2.851-7.281,3.767
		c-0.654,1.069-2.344,1.235-3.264,0.502l-1.254,0.502l-0.125,12.429c0.402,0.746,0.633,1.601,1.379,2.134l0.127,1.381
		c-1.822,2.713-5.082,4.537-6.654,7.406l-0.375,0.126h-20.088c-1.508-0.157-3.23,0.414-4.52-0.503
		c-4.148,0.363-7.643-1.694-11.172-3.391c-2.656-0.254-5.127-0.902-7.908-0.627c-0.586-0.386-1.186-0.527-1.883-0.627
		c-0.219-0.289-0.641-0.451-0.629-0.879c1.004-1.262,0.717-3.904-1.381-3.641l-0.629-0.377c-3.404-0.646-3.414,3.643-5.146,5.398
		c-0.699,0.099-1.295,0.241-1.883,0.627c-0.877-0.188-1.635,0.16-2.135,0.879c-2.098,0.565-2.828,3.861-5.396,3.139h-5.525
		l-1.379-0.126l-2.01-2.009c-0.154-1.021-1.146-1.522-1.758-2.26l-5.9-0.125c-1.564,1.037-4.047,1.289-4.645,3.39l-1.381,1.13
		l-40.549,0.125l-0.125,30.003h-17.576c-0.744,0.217-1.184-0.437-1.633-0.878c-2.34-0.667-2.07-3.512-3.389-5.146l0.125-1.382
		c2.074-1.312,4.73-1.112,6.277-3.263c-1.525-2.275-4.287-3.484-6.025-5.775l-1.381-0.125c-0.973,0.504-0.963,1.881-1.129,2.887
		l-2.763,0.754c-0.729,0.937-1.246,2.001-2.26,2.762c-1.718-0.15-3.45,1.266-3.515,3.014c-1.305,1.766-2.133,4.414-0.502,6.276
		l0.125,0.878l-26.488-0.125l-0.125-44.566c1.244-1.492,3.379,0.373,5.021,0l3.014-2.008c2.252,0.404,4.463,0.95,6.527,2.008
		c3.743-0.119,7.066,1.711,10.922,0.879c1.385-0.498,2.297-1.939,3.139-2.887l2.888,1.883l1.004-1.004
		c1.039-3.482,1.877-6.91,3.265-10.294c2.07-0.049,4.529-0.586,6.402,0.376c3.543-0.174,6.828,1.043,10.42,0.377l4.143-4.394
		l2.01,2.008c3.002-1.077,6.521-3.905,9.666-1.631l1.381,0.627C197.809,44.238,200.346,42.67,203.268,42.438z"/>
	<path id="path14" fill="#FFFFFF" d="M124.934,58.004l0.125,44.566l26.488,0.125l-1.131,3.893c-1.352,1.914-2.35,4.045-3.389,6.15
		l0.125,5.901l0.754,0.753c-0.143,2.701,2.37,4.208,4.018,6.025c-0.054,1.27,0.463,2.26,1.506,3.013
		c0.464,1.704,2.373,2.686,2.637,4.394h-30.631c-0.252,0.084-0.42,0.251-0.502,0.503l0.125,59.655l20.965,0.125l6.527,0.502
		l4.144,3.389l11.298,2.26l1.758,4.27l1.004,1.506l1.758,0.502l4.143-1.882l4.395,2.134l0.25,4.268l2.008,2.51l8.287,1.758
		c1.367,1.596,3.215,3.077,3.264,5.272l3.893,3.642h-43.186c-2.256-1.241-3.533-4.359-6.025-5.021l-0.375,0.125
		c0.041,1.729-1.064,3.307-2.135,4.394l-0.879-1.13c-0.143-3.293-3.747-3.974-5.773-5.774l-0.879-0.125
		c-1.861,0.629-0.555,3.018-1.131,4.395l-1.757,0.502l-6.653-0.376l-9.541-4.019l-0.879,0.125c-1.541,1.473-3.537,1.561-5.65,1.382
		c-1.235,0.563-2.426,1.204-3.514,2.009h-1.004l-2.511-1.003c-2.651,1.101-5.208,2.515-8.035,3.012
		c-3.058-1.106-5.217-4.218-8.536-4.521l-7.03,4.521l-0.879-0.126c-1.095-3.871-1.819-7.738-2.259-11.8l-0.502-1.004
		c-3.088-0.767-2.757-4.548-3.515-7.03l-1.004-1.004c-3.678,0.2-2.5-4.516-3.891-6.652v-1.005l23.475-0.125l0.125-59.655
		c-0.083-0.25-0.25-0.418-0.501-0.502H51.624c-0.427-3.014-2.524-5.539-3.013-8.537c-0.012-0.429,0.41-0.59,0.627-0.879
		c2.174-0.631,2.055-3.739,4.017-4.519l1.381-0.126c2.847,2.092,6.312-0.104,8.914-1.631c1.24-3.066,2.102-6.172,2.636-9.416
		l2.511-5.021l25.986-0.125l0.125-30.506c2.407-1.197,5.077-1.986,7.909-1.381c0.789,0.902,1.289,2.346,2.511,2.762
		c2.011-0.767,2.519-3.047,4.269-4.269c1.703-0.746,3.141,0.735,4.771,0.251l1.004-1.004c0.623-1.981,3.144-2.79,3.767-4.771
		l0.752-0.251C120.565,60.959,122.406,58.592,124.934,58.004z"/>
	<path id="path16" fill="#0D5EAF" d="M94.805,72.064L94.68,102.57l-25.986,0.125l3.139-6.904l3.264,0.754
		c0.883-1.379,2.92-1.51,3.264-3.266c2.528-1.205,4.005-3.784,3.39-6.652c0.749-3.158-0.951-5.488-3.013-7.533v-5.021
		c-0.011-0.429,0.41-0.591,0.628-0.879l1.883-0.125c0.853-0.682,1.962-0.495,3.013-0.502C87.611,70.778,91.471,73.793,94.805,72.064
		z"/>
	<path id="path18" fill="#FFFFFF" d="M225.866,72.567l-0.125,0.878l-3.516,4.52l-5.398,2.637h-1.506
		c-4.621-1.811-9.727-2.442-14.939-1.883l-1.506,1.506c-2.32,4.626,3.436,7.652,6.025,10.796c0.988,0.817,2.443,0.233,3.264,1.255
		c0.197,0.386,0.197,0.869,0,1.256c-1.117,0.366-2.395,0.396-3.264,1.255c-0.441,0.927,0.348,1.77,0.754,2.511
		c0.381,2.062,1.592,4.709,4.143,4.395c1.391,1.096,3.812,0.523,4.143-1.381l0.754-0.502l2.637,2.887h-8.537
		c-1.293,0.243-2.361-0.262-3.516-0.502c-1.135,0.857-2.664,0.384-4.016,0.502h-16.07l0.125-30.003L225.866,72.567z"/>
	<path id="path20" fill="#FFFFFF" d="M248.463,72.567c-1.244,1.84-3.643,0.578-5.4,0.376l-0.125-0.376H248.463z"/>
	<path id="path22" fill="#FFFFFF" d="M311.231,72.567c-0.178,3.174-2.25,6.156-4.895,7.908c-1.443-1.613-0.818-4.161-2.262-5.774
		l-7.908-1.13c-1.285-0.917-3.01-0.346-4.52-0.502c-0.25-0.084-0.418-0.251-0.502-0.502H311.231z"/>
	<path id="path24" fill="#0D5EAF" d="M239.926,77.588l6.902,1.129c1.486,2.031,2.271,4.472,2.637,6.904l-0.877,1.131
		c-0.715,3.242-4.088,3.963-6.654,4.896c-1.939,0.558-2.914-1.292-4.143-2.386c-1.311-0.078-2.924-0.09-3.391-1.631
		c0.24-2.406,1.355-4.75,2.889-6.653c0.467-1.215,1.062-2.705,2.51-3.013L239.926,77.588z"/>
	<path id="path26" fill="#FFFFFF" d="M239.926,79.597c1.197,0.069,2.523-0.279,3.514,0.502c1.43-0.119,3.264,0.711,3.139,2.385
		c1.346,1.401,0.994,3.599-0.5,4.771c-0.107,0.508-0.324,0.947-0.754,1.256l-1.883,0.628c-2.705,1.942-4.311-2.181-6.904-2.136
		L239.926,79.597z"/>
	<path id="path28" fill="#0D5EAF" d="M281.602,93.154c2.783-0.513,4.943,0.958,7.408,1.632l1.006,1.005
		c0,1.506,0.699,3.598-0.504,4.771c-0.791,0.272-1.393,0.731-2.26,0.753l-2.637,0.376c-3.066,0.755-5.02-1.656-6.904-3.64
		c-0.896-2.375,0.533-5.278,3.389-4.395C281.352,93.573,281.52,93.405,281.602,93.154z"/>
	<path id="path30" fill="#FFFFFF" d="M280.098,95.164c2.072,0.18,4.471-0.572,6.15,0.879c1.748-0.217,2.297,1.64,1.758,3.013
		l-3.391,1.13l-2.889-0.628l-2.635-2.888L280.098,95.164z"/>
	<path id="path32" fill="#FFFFFF" d="M185.192,102.695v0.502v3.516c-2.172,0.324-1.752,3.188-3.516,4.018l-12.93-6.654l-1.131-1.381
		H185.192z"/>
	<path id="path34" fill="#4C57A7" d="M201.26,102.695c0.078,0.594-0.672,0.512-1.004,0.502h-15.064v-0.502H201.26z"/>
	<path id="path36" fill="#4C57A7" d="M217.331,102.695c0.25,0.083,0.418,0.25,0.5,0.502h-7.531c-0.477-0.095-1.48,0.297-1.506-0.502
		H217.331z"/>
	<path id="path38" fill="#0D5EAF" d="M200.256,103.197l-1.506,3.014c-0.111,1.67,1.711,2.434,2.133,3.892l0.754,0.251l0.25,0.753
		l0.752,0.251c2.625,2.807,6.609,3.408,9.039,6.527l0.629,3.391c0.77,1.093,0.553,2.618,0.375,3.893
		c-0.66,0.078-1.082,0.541-1.506,1.004c-2.061,0.064-4.01-1.498-5.775-2.512c-0.975-5.217-4.393-9.564-8.283-13.307l-11.928-3.641
		v-3.516H200.256L200.256,103.197z"/>
	<path id="path40" fill="#0D5EAF" d="M217.831,103.197c1.01-0.222,1.467,0.866,2.135,1.38c1.014,0.071,1.865,0.281,2.762,0.755
		l0.25,0.752l0.754,0.25l6.025,8.035v0.752l-3.389,1.131l-1.883-2.638c-0.311-2.844-3.051-4.643-5.523-5.522
		c-0.916-1.101-2.105-1.879-3.516-2.008c-1.416-1.248-3.217-2.074-5.021-2.512l-0.125-0.377h7.531V103.197z"/>
	<path id="path42" fill="#FFFFFF" d="M185.192,117.258v5.522c-0.43,0.013-0.592-0.409-0.879-0.627
		c-0.465-2.41-2.699-4.807-1.006-7.282h0.252L185.192,117.258z"/>
	<path id="path44" fill="#0D5EAF" d="M185.192,122.781v-5.523c1.979,0.836,2.217,3.584,4.395,4.144
		c0.422,0.462,0.846,0.924,1.506,1.004c1.455,1.515,3.479,2.009,5.523,2.009c1.391,1.443,2.73,3.012,3.516,4.771l-2.387,0.125
		c-4.877,0.983-7.412-4.331-11.924-4.646C185.137,124.26,185.125,123.483,185.192,122.781z"/>
	<path id="path46" fill="#0D5EAF" d="M276.583,122.279l1.883,0.628l0.125,1.884c0.387,3.687-5.508,5.658-3.137,9.666l0.125,0.879
		c0.064,0.703,0.053,1.479-0.629,1.883c-2.998,0.666-5.965-1.766-6.025-4.771l-1.254,0.501c-1.762,3.163-4.938,1.158-7.66,1.381
		c-0.428,0.012-0.59-0.41-0.877-0.628c-1.133-2.677-0.797-6.09,0-8.786c0.66-0.08,1.084-0.543,1.506-1.006l6.402-0.627
		c1.834-1.429,3.066,0.652,4.143,1.883l0.879,0.127C273.35,123.981,275.633,123.881,276.583,122.279z"/>
	<path id="path48" fill="#0D5EAF" d="M273.069,132.824h-2.01c-0.123-1.312-1.227-3.486-2.887-2.887
		c-1.359,0.98-2.205,3.207-4.145,2.887l-3.391-0.627c0.066-2.156-0.797-4.964,0.504-6.779l4.896-0.125
		c1.631-1.399,3.379,0.121,3.641,1.883l1.381,0.627c1.945-0.479,3.314-2.723,5.398-2.385v0.754
		C274.639,128,273.202,130.258,273.069,132.824z"/>
	<path id="path50" fill="#0D5EAF" d="M25.509,130.816c2.419-0.345,4.687,1.186,6.026,3.014c-0.718,2.041-1.554,5.387-4.395,5.146
		l-0.501,0.502c-0.395,2.2,2.874,3.2,2.887,5.397c-0.283,2.282,0.4,4.241,0.627,6.402l3.516,1.506
		c3.135,0.473,3.294,4.5,4.896,6.654l-0.126,0.879c-0.333,0.418-0.798,0.787-1.38,0.627c-3.614-2.215-8.05-3.378-11.424-6.15
		l-1.13-1.884c-0.375-3.429-1.619-6.788-4.393-9.163c-1.739-2.957-3.824-5.701-5.147-8.914l0.628-2.888
		C18.483,129.723,22.938,133.637,25.509,130.816z"/>
	<path id="path52" fill="#FFFFFF" d="M34.548,155.924v1.506l-4.645-2.385c-1.016-0.156-2.028-0.489-2.762-1.256l-2.259-7.281
		c-3.035-3.646-5.946-7.367-7.909-11.676l0.125-0.879c1.521-1.119,4.234-0.826,5.9-0.125l4.018-1.005l1.381,0.628
		c0.771,0.475,0.765,1.499,0.502,2.26c-1.214,2.151-4.066,1.392-5.399,3.14c0.417,2.288,2.558,3.809,3.892,5.647
		c0.792,2.476,0.533,5.144,0.753,7.784l6.277,2.763L34.548,155.924z"/>
	<path id="path54" fill="#4C57A7" d="M51.621,132.824h42.682c0.252,0.084,0.42,0.251,0.502,0.503H51.118
		C51.202,133.075,51.37,132.908,51.621,132.824z"/>
	<path id="path56" fill="#4C57A7" d="M156.068,132.824c0.25,0.084,0.418,0.251,0.502,0.503h-31.635
		c0.083-0.251,0.251-0.419,0.502-0.503H156.068z"/>
	<path id="path58" fill="#FFFFFF" d="M273.069,132.824c0.826,0.12,0.506,1.332,0.377,1.883c-1.291,0.653-2.863-0.401-2.387-1.883
		H273.069z"/>
	<path id="path60" fill="#0D5EAF" d="M94.805,133.327l-0.125,59.655l-23.475,0.125c-0.97-0.971-1.962-0.114-3.013,0h-3.014
		c-0.566-0.215-1.263-0.796-1.38-1.381l2.762-1.758c-0.383-2.225,1.208-3.512,3.138-3.892l5.398,0.125
		c1.383,1.244,1.338,4.783,4.018,3.767l0.251-0.754c0.287-0.217,0.449-0.639,0.878-0.627l2.887,1.381l1.004-1.506
		c-0.995-2.76,0.467-6.258-1.506-8.789l-6.402-0.125l-5.398-1.633c-0.851-1.451-1.143-3.498-2.636-4.394l-0.879,0.125
		c-1.479,2.245-1.589,5.058-1.758,7.784l-0.502,0.502c-0.387,0.197-0.868,0.197-1.255,0l-0.627-1.381
		c0.029-1.875-0.884-3.467-2.386-4.646c-1.762-3.649-7.05-5.428-7.281-9.792c-0.442-0.707-0.767-1.486-1.506-2.009
		c-1.652-1.005-3.838-0.367-5.273-1.758c-0.11-0.911-0.953-1.37-1.506-2.009c-0.193-0.834-0.046-1.694-0.627-2.385
		c-0.306-1.66-0.397-3.334-1.13-4.896c-3.321-3.404-6.176-7.096-8.41-11.174l0.125-0.375c2.259,0.494,4.444,1.49,6.904,1.381
		c2.354-2.001,5.971-3.626,5.147-7.407l0.879-0.125c1.32,1.334,3.466-0.347,3.013-2.009h43.688v-0.022H94.805z"/>
	<path id="path62" fill="#0D5EAF" d="M156.57,133.327c1.237,1.125,2.444,2.679,3.39,4.142l2.762,11.299
		c1.062,0.744,2.15,1.445,3.012,2.511l3.266,1.256l1.506,1.507c3.623,5.92,9.199,10.631,12.176,16.947
		c0.201,1.092-0.191,1.956-0.627,2.889c-2.615,1.885-5.527,3.389-8.912,3.138c-1.076,0.233-3.59-0.015-1.883-1.38l1.883,0.877
		c1.543-1.694,3.869-3.043,4.018-5.522c-2.016-2.629-3.75-6.538-7.408-7.155c-1.281-1.606-3.754-0.713-5.523-0.754l-0.502,0.502
		c0.016,2.594-3.377,2.144-4.521,4.018c-0.208,1.71-0.208,3.562,0,5.273l1.005,1.004c4.293-0.246,4.238,4.879,7.281,6.777
		l0.125,1.883l-1.131,1.381l-1.254,0.252l-1.256,1.254c-4.104,1.963-8.602,5.072-12.93,2.135l-5.398,2.134
		c-0.227,1.122-0.312,2.44,0.377,3.39l-20.965-0.127l-0.125-59.654h31.635L156.57,133.327L156.57,133.327z"/>
	<path id="path64" fill="#0D5EAF" d="M34.548,157.43v-1.506C35.29,155.902,35.29,157.45,34.548,157.43z"/>
	<path id="path66" fill="#0D5EAF" d="M316.754,159.94c1.59-0.133,3.23-0.149,4.143,1.382c2.816-0.482,3.791,3.055,2.01,4.77
		l-0.127,0.879l3.641,4.395c0.838,0.169,1.572,0.864,1.885,1.633c2.404,2.767,4.27,5.869,6.025,9.038
		c-0.389,1.607-2.289,0.707-3.391,1.13c-0.668,0.601-0.908,1.461-1.254,2.26l-5.9,0.627c-3.738-1.715-7.805-2.156-11.928-2.637
		c-2.83-1.545-5.236-3.77-7.783-5.773c-2.691-0.803-5.434-1.635-7.783-3.264c-0.139-1.429-0.453-3.151,0.379-4.395
		c-0.008-1.42-0.324-3.059,1.129-3.893c4.186-0.174,7.908-1.56,11.801-2.762c0.961-0.49,0.295-1.768,1.254-2.26l1.381-0.627
		C313.643,160.143,315.831,161.064,316.754,159.94z"/>
	<path id="path68" fill="#FFFFFF" d="M319.264,162.953h-7.029l0.125-0.376l2.889-0.125c1.092-0.77,2.619-0.554,3.893-0.376
		L319.264,162.953z"/>
	<path id="path70" fill="#0D5EAF" d="M319.264,162.953l2.385,0.627c0.275,1.19-1.312,2.061-0.877,3.391
		c1.033,2.792,3.486,5.006,5.9,6.652l4.52,6.528v0.753l-1.256,0.251l-0.502,0.502c-1.197,3.323-5.73,2.714-8.16,1.382l-7.531-1.005
		c-0.586-0.385-1.184-0.528-1.885-0.628c-3.289-2.545-6.371-5.77-10.545-6.527c-0.742-0.551-1.584-0.896-2.51-1.004l-0.504-0.502
		c-0.209-1.543-0.209-3.227,0-4.771l0.504-0.502c4.359-0.898,8.551-2.003,12.805-3.263c0.1-0.701,0.24-1.297,0.627-1.885H319.264
		L319.264,162.953z"/>
	<path id="path72" fill="#FFFFFF" d="M166.11,164.459l4.896,1.633l4.016,5.021v0.753l-1.506,1.508
		c-1.039,0.033-0.639-1.851-1.883-1.382c-1.895,1.345-3.078,3.688-3.641,5.9l-0.377,0.125c-1.797-1.825-2.604-5.56-5.9-5.649
		l-0.502-0.502c-0.209-1.209-0.209-2.557,0-3.766l3.766-1.758L166.11,164.459z"/>
	<path id="path74" fill="#0D5EAF" d="M209.797,165.465l2.385,0.125c2.23,1.963,1.25,5.765-0.754,7.531l-1.254,2.26
		c-1.852,0.668-3.775,2.485-5.775,1.256l-0.627,1.38c0.371,2.229-2.857,3.85-4.52,2.511c-1.236,0.125-2.342-0.023-3.391-0.627
		c-0.217-0.288-0.639-0.45-0.627-0.879c0.135-2.782-1.938-6.458,1.131-8.411l7.781,4.269l0.252-4.269
		c1.75-1.54,2.686-4.467,5.271-4.771L209.797,165.465z"/>
	<path id="path76" fill="#0D5EAF" d="M209.295,167.474l1.883,0.125c0.422,1.625,0.068,3.431-1.256,4.52
		c-0.42,1.446-1.857,2.345-3.139,2.888c-1.023-0.715-0.381-2.726-0.375-3.893L209.295,167.474z"/>
	<path id="path78" fill="#0D5EAF" d="M188.206,171.992c1.576-0.475,2.289,1.335,1.381,2.385c-1.043,0.119-2.537,0.52-3.264-0.502
		L188.206,171.992z"/>
	<path id="path80" fill="#0D5EAF" d="M196.741,173.498c0.879-0.188,1.633,0.162,2.135,0.879l3.264,1.758
		c0.396,1.016-0.379,2.027-1.004,2.762c-1.5,0.371-3.119-0.117-4.27-1.004L196.741,173.498z"/>
	<path id="path82" fill="#0D5EAF" d="M187.702,193.082h-10.545c-2.775-1.816-6.326-0.971-9.039-3.013
		c-1.168-0.252-1.611,0.983-1.633,1.883c-1.543,0.208-3.227,0.208-4.77,0l-0.125-0.377l0.125-0.376l9.291-3.264
		c0.154-1.018,0.488-2.028,1.254-2.762l7.406-2.637h1.006l5.396,5.146C186.295,189.608,186.999,191.323,187.702,193.082z"/>
	<path id="path84" fill="#0D5EAF" d="M233.397,183.039c2.842,0.082,4.549,2.897,6.904,4.144l0.752,3.767
		c2.6,0.994,6.178,2.45,4.771,6.025c-1.994,2.625-5.568,1.326-8.412,1.632c-0.586-0.386-1.182-0.528-1.881-0.627l-1.006-1.005
		c-0.012-1.075,1.566-1.694,1.256-2.762c-1.404-0.846-2.602-2.028-3.766-3.264c-0.209-2.213-0.209-4.566,0-6.779L233.397,183.039z"
		/>
	<path id="path86" fill="#0D5EAF" d="M240.428,193.082h-2.008c-1.916-0.363-3.496-1.748-4.896-3.139
		c-0.002-1.507-0.701-3.598,0.502-4.77c1.582,0.627,2.92,1.91,4.268,3.013L240.428,193.082z"/>
	<path id="path88" fill="#FFFFFF" d="M150.042,189.566c2.871,0.501,6.397,2.126,9.164,0.126h0.752l-1.757,2.008
		c-0.13,0.552-0.45,1.763,0.377,1.884l6.526,0.5h2.01l1.633-1.379l2.887,0.879h2.512c1.02,0.399,1.916,0.998,2.637,1.883
		c6.607,3.49,9.73,11.665,16.82,14.311c0.771,0.475,0.766,1.499,0.502,2.261c-3.268,0.628-6.297-0.26-9.291-1.006l-2.008-2.007
		v-0.753c1.488-2.654-1.553-5.614-4.143-5.649c-1.799-1.662-3.754-0.543-5.523,0.502L171.758,203l-1.506-3.013
		c-0.023-0.866-0.482-1.469-0.754-2.26c-2.971-1.404-6.381-1.046-9.416-2.134c-2.26,0.113-4.771-1.232-5.648-3.391l-0.377-0.125
		c-2.045-0.529-4.219-0.475-6.401-0.628C147.165,189.965,149.736,190.525,150.042,189.566z"/>
	<path id="path90" fill="#0D5EAF" d="M62.166,193.082h-2.009C60.312,191.857,62.011,191.857,62.166,193.082z"/>
	<path id="path92" fill="#FFFFFF" d="M60.157,193.082h2.009l0.879,1.131c-0.771,1.119,0.068,2.795-0.879,3.891
		c0.653,2.859-1.51,6.127-4.519,6.025c-0.586,0.254-1.184,0.821-1.883,0.377c-0.032-1.217-0.34-2.274-0.628-3.391l2.888-5.146
		C58.462,194.865,58.945,193.551,60.157,193.082z"/>
	<path id="path94" fill="#FFFFFF" d="M68.192,193.082c-0.502,0.973-2.675,1.592-3.014,0H68.192z"/>
	<path id="path96" fill="#FFFFFF" d="M187.702,193.082c1.26,1.08,2.762,2.408,4.395,3.14c1.594,2.521,4.391,2.491,7.029,2.51
		l5.65,4.394c2.645,0.276,5.623-0.588,8.033,0.502h1.004l1.004-0.502c0.691,0.582,1.553,0.436,2.387,0.629l0.125,0.879
		c-0.57,3.002,2.725,4.339,4.018,6.526c-1.441,1.521-1.332,4.224-0.502,6.025c-0.273,2.187,0.604,4.036,1.004,6.026h-4.52
		c-1.01-1.757-1.494-4.14-3.641-4.896l-9.918-0.125c-2.035-1.141-4.67-0.083-6.904-0.628l-2.133-2.887l1.883-1.885l-1.004-4.017
		l-0.504-0.501c-2.109-0.159-3.402-2.031-5.271-2.761c-0.43-0.309-0.645-0.75-0.752-1.258c-3.758-3.442-6.965-7.782-11.299-10.293
		c-0.219-0.287-0.639-0.448-0.627-0.879H187.702L187.702,193.082z"/>
	<path id="path98" fill="#FFFFFF" d="M240.428,193.082c1.496-0.127,3.963,1.067,3.389,2.889c-1.453,1.566-3.832,1.18-5.773,1.004
		l-0.502-0.502l1.381-1.883l-0.502-1.506h2.008V193.082z"/>
	<path id="path100" fill="#0D5EAF" d="M303.196,205.133c3.529-1.365,5.242,4.201,8.537,2.01l1.381,1.13
		c-0.441,2.241-0.906,4.724-1.883,6.904c-0.338,3.207,0.516,6.07,1.002,9.038c-1.449,1.928-2.316,4.171-3.139,6.401
		c-2.115,1.343-4.189,2.985-6.904,2.636c-1.037-0.677-2.234-1.654-2.637-2.886c-2.58-1.478-2.793-6.694,1.006-6.276l2.01-1.005
		l0.125-3.389c-1.852-3.383-5.043-5.938-6.529-9.541C296.348,206.25,301.227,207.133,303.196,205.133z"/>
	<path id="path102" fill="#FFFFFF" d="M310.225,223.211h-6.023c1.508-2.761,0.059-5.931-2.387-7.656
		c-0.93-1.656-2.096-3.166-3.516-4.521c-0.203-0.545-0.203-1.21,0-1.757l6.906-2.134c1.59,1.238,3.262,2.624,5.396,2.636
		l0.125,1.381c-0.785,1.543-1.191,3.196-1.004,5.022C308.452,218.426,309.958,220.947,310.225,223.211z"/>
	<path id="path104" fill="#0D5EAF" d="M60.157,208.649c2.698,1.731,2.126,5.615,4.143,7.909l1.255,0.25
		c0.217,0.289,0.639,0.45,0.627,0.88c-0.886,2.167-0.25,6.562-4.017,5.522c-0.251,0.084-0.418,0.252-0.502,0.503l3.139,5.397
		c1.498,1.571,3.443,3.047,3.892,5.146c-0.988,1.972-3.542,2.078-5.021,3.516h-1.507l-3.515-3.014l-7.407-0.627
		c-0.78-1.908,0.931-3.653-0.251-5.273c-0.293-0.25-0.962-0.125-0.878,0.378c0.887,2.646-2.432,3.183-4.018,2.008
		c-1.092,0.201-1.955-0.19-2.887-0.628c-0.519-3.454,1.082-6.486,1.506-9.791c2.373-1.072,4.51-2.562,7.281-2.26
		c1.945-2.017,0.745-5.282,2.762-7.281c2.224,2.087,3.216-1.747,5.272-2.259L60.157,208.649z"/>
	<path id="path106" fill="#FFFFFF" d="M59.655,211.661c0.429-0.011,0.591,0.411,0.879,0.627l1.255,5.273l0.502,0.502
		c1.784-0.355,1.833,2.209,0.753,3.014c-0.546,0.204-1.211,0.204-1.757,0c-1.894-2.354-1.403-5.654-2.511-8.286L59.655,211.661z"/>
	<path id="path108" fill="#FFFFFF" d="M56.642,223.211h-6.026c-0.592-0.419-0.914-0.419-1.506,0h-3.013
		c0.871-1.588,2.636-2.82,4.52-2.511l2.887-0.628c0.899-0.884,1.302-2.115,1.13-3.39l0.628-1.38c1.876,0.835,2.5,3.694,1.381,5.396
		L56.642,223.211L56.642,223.211z"/>
	<path id="path110" fill="#FFFFFF" d="M59.153,222.708C58.206,222.778,59.223,221.763,59.153,222.708z"/>
	<path id="path112" fill="#FFFFFF" d="M59.153,222.708C60.099,222.639,59.083,223.655,59.153,222.708z"/>
	<path id="path114" fill="#0D5EAF" d="M49.11,223.211v0.502c-1.343,1.666,0.434,4.38-1.13,5.9c-1.015,0.494-1.866-0.176-2.762-0.502
		c-0.55-2.103,0.573-3.952,0.879-5.9H49.11z"/>
	<path id="path116" fill="#0D5EAF" d="M56.642,223.211c-0.16,0.582,0.209,1.049,0.627,1.382l2.762,0.753l6.025,8.033v0.755
		l-2.886,1.631c-1.513-0.479-2.512-1.789-3.641-2.886l-6.277-0.252l-0.125-1.382l0.502-1.004l-3.013-7.03H56.642z"/>
	<path id="path118" fill="#0D5EAF" d="M155.565,223.211h43.186l0.877,0.127c4.965,2.65,11.195,3.097,15.189,7.405l-0.125,1.884
		l-2.385,3.642v3.013l0.502,1.004l0.502,6.026c0.01,1.049-0.178,2.157,0.502,3.013c-0.156,1.484,0.461,2.736,1.004,4.018h-7.029
		h-0.502c-1.359-1.242-3.682,0.337-4.896-1.129l-3.264-5.775l-4.771-2.26c-0.436-1.189,0.83-2.104,0.377-3.39
		c-0.09-0.478-0.525-0.914-1.004-1.005l-4.896,0.125l-4.143,2.889l-6.904,0.627c-2.896,2.437-6.594,2.889-10.168,3.39
		c-0.43-0.012-0.592,0.41-0.879,0.628c-0.209,1.209-0.209,2.558,0,3.767c0.699,0.1,1.297,0.241,1.883,0.628
		c0.77-0.628,1.74-0.628,2.51,0c1.34-0.318,2.207,0.239,2.512,1.507H88.277c-0.94-3.142-5.886-2.298-7.533-5.021l0.125-3.391
		l3.264-0.25c2.618-2.802,5.85-4.695,7.282-8.285c0.506-0.108,0.946-0.324,1.256-0.754l0.25-5.271l3.39-0.126
		c1.136,0.467,2.229,1.049,3.515,1.004c3.975,2.829,7.703-1.396,9.164-4.896c1.979-1.879,4.598-3.021,7.407-2.636
		c0.991-0.782,2.315-0.434,3.517-0.502c0.428-0.013,0.59,0.409,0.877,0.627c0.795,3.005,5.002,2.193,5.774,5.272l1.004,1.005
		c3.119,0.893,6.127,1.919,9.416,2.135c6.206,2.791,13.021,4.703,17.7,10.419l4.019,2.511c2.046,0.209,4.231,0.209,6.276,0
		l1.004-3.264c-1.082-0.881-2.391-1.521-3.766-1.759l-0.502-0.754c0.309-0.43,0.75-0.645,1.256-0.753
		c4.781-1.379,12.021,2.676,15.064-3.013c-0.227-0.984-0.963-1.814-1.756-2.511l-0.252-1.256c-3.055-2.211-6.396-3.804-10.42-3.139
		l-7.406-1.632C157.07,225.978,155.857,224.735,155.565,223.211z"/>
	<path id="path120" fill="#0D5EAF" d="M221.848,223.211l1.633,6.402c2.627,2.272,5.846,3.584,8.912,5.146l5.9,0.127l0.502,5.773
		l-2.385,2.637c-2,0.323-3.045-1.696-4.645-2.386l-2.26,1.256c-1.602-0.979-1.754-2.577-1.758-4.271l-1.004-1.003l-2.764-1.256
		l-1.004-1.004l-5.648-11.425h4.52V223.211z"/>
	<path id="path122" fill="#0D5EAF" d="M310.225,223.211c-0.246,1.941-1.947,3.413-2.135,5.398c-1.393,1.547-3.256,2.826-5.396,2.636
		c-0.768-0.312-1.463-1.046-1.633-1.883c-2.188-1.024-1.604-4.556,1.131-3.641l1.381-0.628c0.682-0.404,0.693-1.182,0.629-1.883
		H310.225L310.225,223.211z"/>
	<path id="path124" fill="#0D5EAF" d="M246.956,241.287c5.098-1.662,4.154,6.494,8.914,5.649l1.506,1.006
		c0.252,4.065,2.068,7.572,1.758,11.8c2.916,0.658,5.896,2.453,8.912,1.13l1.381,0.627c1.117,2.05,3.209,4.482,1.633,6.905
		c0.285,1.046-0.396,1.772-1.131,2.384c-1.209,0.21-2.557,0.21-3.766,0l-11.549-9.54l-0.252-2.259l-5.271-5.774
		c-0.488-1.568-2.062-2.513-3.516-3.013l-1.004-1.004l-0.629-5.9C244.282,241.795,246.456,242.559,246.956,241.287z"/>
	<path id="path126" fill="#0D5EAF" d="M61.663,242.795c2.065,0.916,1.868,3.641,3.641,4.896c1.862,0.186,3.57,0.512,5.272,1.254
		l4.144,6.904c-0.912,1.812-3.201,1.971-4.897,2.638c-1.083,1.126,0.088,3.328-1.631,3.892l-4.394-1.131l-7.658-9.916l0.125-4.896
		C57.581,244.483,60.199,244.246,61.663,242.795z"/>
	<path id="path128" fill="#0D5EAF" d="M256.497,253.34h-4.52c-0.43,0.012-0.592-0.41-0.879-0.629
		c-0.891-1.93-2.855-3.338-4.52-4.519c-0.756-1.271-0.791-2.818-0.502-4.27l1.381-0.628c2.559-0.32,2.811,2.888,4.395,4.144
		l0.252,0.754c1.01,0.646,2.105,0.607,3.264,0.752L256.497,253.34z"/>
	<path id="path130" fill="#0D5EAF" d="M71.205,253.34H60.157l-0.376-0.127c-1.009-1.793-2.937-3.396-2.009-5.773
		c1.08-0.79,2.158-1.587,3.39-2.134c0.429-0.013,0.59,0.409,0.879,0.627c0.149,1.269,0.735,2.431,1.757,3.266
		c2.243,0.681,5.619,0.191,6.528,3.013L71.205,253.34z"/>
	<path id="path132" fill="#0D5EAF" d="M340.356,250.829c2.697-0.144,5.098,0.739,7.531,1.507l5.9,0.125l1.004,1.006
		c0.143,2.214,2.174,3.945,1.506,6.275l-1.381,0.125c-4.5-0.496-7.463,3.627-11.549,4.521c-3.293-0.462-5.996-4.878-9.541-3.016
		l-1.508,0.503c-0.701,0.066-1.477,0.055-1.883-0.628c-0.479-2.055-0.02-4.032,1.006-5.772c2.957-1.35,5.537-3.76,8.787-4.27
		L340.356,250.829z"/>
	<path id="path134" fill="#101F8A" d="M343.87,253.34h-4.018l0.125-0.377c1.209-0.209,2.557-0.209,3.768,0L343.87,253.34z"/>
	<path id="path136" fill="#FFFFFF" d="M71.205,253.34l0.878,2.385c-1.265,0.521-2.429,0.986-3.766,1.256
		c-0.473,0.896-0.682,1.748-0.753,2.762c-0.289,0.219-0.45,0.639-0.878,0.628c-3.317-1.012-4.597-4.474-6.529-7.029L71.205,253.34
		L71.205,253.34z"/>
	<path id="path138" fill="#FFFFFF" d="M173.641,253.34c0.445,0.689,0.742,1.552,0.377,2.385c-0.631,0.188-1.381,0.054-1.756,0.753
		l0.375,2.386c-0.127,2.461-0.385,6.397,2.889,6.653l5.775,3.767h0.752c1.648-1.367-0.271-3.235,0.127-4.896
		c0.168-1.239,2.602-1.566,2.635-0.125l-0.25,2.008c-0.744,1.09-0.332,2.755-0.252,4.017c0.645,1.027,1.662,1.203,2.762,1.256
		c0.949,1.007,2.227,1.906,2.512,3.265c-2.045,0.8-4.191,0.995-6.404,1.13l-4.895,2.134l-1.76,3.768
		c-1.01,0.497-2.104,0.925-3.264,0.503c-0.311-1.481-2.092-2.054-2.637-3.392c1.299-1.217,2.734-2.409,2.512-4.52l-1.131-1.381
		l-8.41-4.143l-6.025,0.502l-2.889,0.125c-0.217,0.288-0.639,0.448-0.627,0.879l1.131,7.406c1.628,1.229,1.133,3.544,2.762,4.771
		l0.125,0.878h-52.727c-0.285-1.196,1.283-1.514,1.508-2.51c-0.008-1.051,0.178-2.16-0.502-3.014c0.087-1,0.087-2.062-0.879-2.637
		c-0.293-1.47-0.926-2.929-2.01-4.019c-1.572-3.713-5.373-5.653-8.033-8.534l-0.252-0.754l-2.008-2.01l-1.004-0.502
		c-0.793-0.418-1.395,0.926-2.261,0.251c-0.166-2.274-0.468-4.442-1.631-6.401H173.641z"/>
	<path id="path140" fill="#FFFFFF" d="M214.817,253.34v1.003c0.941,1.714,0.441,3.993,0.379,5.9l-0.504,0.503
		c-4.678,1.651-5.061-3.854-6.777-6.528l-0.125-0.878H214.817z"/>
	<path id="path142" fill="#FFFFFF" d="M256.497,253.34l0.502,2.51c0.682,0.761,0.744,2.257-0.502,2.513
		c-0.898-0.5-1.863-1.345-2.135-2.387l-2.385-2.636H256.497L256.497,253.34z"/>
	<path id="path144" fill="#FFFFFF" d="M339.852,253.34h4.02c1.734,0.114,3.432,0.379,5.02,1.003l0.879-0.125
		c2.15-1.615,4.793,1.34,4.02,3.515c-3.873,0.34-6.801,3.153-10.045,5.023l-7.406-3.894c-1.264,0.092-2.512,0.422-3.641,0.879
		l-0.754-0.502c0.34-3.367,4.619-4.129,7.031-5.773L339.852,253.34z"/>
	<path id="path146" fill="#0D5EAF" d="M320.268,258.863l2.387,0.126c0.197,0.387,0.197,0.869,0,1.255l-7.029,8.033
		c-2.824,1.451-6.062,1.806-8.41,4.145l-4.396-0.127c-0.217-0.285-0.639-0.447-0.627-0.878c-0.117-3.897,2.408-6.97,4.645-9.918
		l1.006-0.501c2.127-0.234,4.447-0.311,6.402,0.375l5.898-2.133L320.268,258.863z"/>
	<path id="path148" fill="#0D5EAF" d="M227.372,260.37c2.049,0,5.895-0.679,5.523,2.511c-1.297,2.832-4.076,4.745-5.648,7.406
		l-1.004,0.501c-0.938-0.246-1.498-1.314-1.508-2.259c-0.729-0.857-0.9-1.917-1.004-3.013c-0.875-0.876-0.41-2.568,1.004-2.261
		c0.809-0.847,1.113-2.324,2.512-2.51L227.372,260.37z"/>
	<path id="path150" fill="#FFFFFF" d="M259.008,261.876h1.002c0.621,0.358,1.234,0.669,2.01,0.503
		c1.713,1.098,3.992,0.113,5.9,0.628c1.385,1.445,2.547,4.021,1.004,5.773l-1.381,0.629L259.008,261.876z"/>
	<path id="path152" fill="#FFFFFF" d="M317.758,262.379C317.688,261.433,318.706,262.449,317.758,262.379z"/>
	<path id="path154" fill="#FFFFFF" d="M227.875,262.379l2.887,0.125c-0.268,1.807-2.525,2.538-3.014,4.269l-1.004,1.006
		c-0.885-0.046-0.979-1.19-0.877-1.884L227.875,262.379z"/>
	<path id="path156" fill="#FFFFFF" d="M317.758,262.379l-0.125,0.879l-3.516,4.017c-3.115,0.4-5.926,1.72-8.41,3.642
		c-0.582,0.159-1.049-0.209-1.381-0.628c-0.15-2.883,2.137-5.196,4.016-7.28c2.721-0.668,5.52,1.487,7.91-0.629H317.758
		L317.758,262.379z"/>
	<path id="path158" fill="#0D5EAF" d="M255.493,269.911l0.879,0.126l3.012,3.013l0.502,4.268c-1.961,2.262-4.807,3.919-7.781,3.517
		l-1.131-1.884C251.651,275.634,253.233,272.527,255.493,269.911z"/>
	<path id="path160" fill="#0D5EAF" d="M272.565,270.413h1.006c1.395,1.028,3.311,0.16,4.895,0.627
		c0.887,1.285,3.037,2.176,3.014,3.768l-1.004,1.003l-7.783,2.01l-0.502-0.503C272.153,275.083,271.584,272.448,272.565,270.413z"/>
	<path id="path162" fill="#0D5EAF" d="M230.887,271.417c1.482-0.307,2.688,1.154,3.137,2.387c2.631,1.638,2.596,5.79,0.502,7.782
		c-0.078,0.658-0.543,1.082-1.004,1.507l-0.25,0.754l-1.383,0.628l-3.389-1.131c-0.26-2.364,0.176-4.868-1.129-6.904
		L230.887,271.417z"/>
	<path id="path164" fill="#FFFFFF" d="M255.995,272.422c1.57,0.739,2.406,2.724,1.883,4.394c-1.203,1.356-3.072,2.099-4.771,2.009
		l-0.125-0.879C253.959,276.047,254.397,273.973,255.995,272.422z"/>
	<path id="path166" fill="#FFFFFF" d="M274.071,272.924h3.014c0.729-0.211,1.812,0.607,1.381,1.38l-3.891,1.131
		C273.038,275.094,273.975,273.854,274.071,272.924z"/>
	<path id="path168" fill="#FFFFFF" d="M230.887,274.43c1.9-0.266,3.314,1.896,3.514,3.516c-0.861,1.562-1.52,3.503-3.012,4.521
		c-0.43,0.012-0.592-0.411-0.879-0.628l-0.125-2.889c-0.727-1.056-0.875-2.854,0.377-3.641L230.887,274.43z"/>
	<path id="path170" fill="#0D5EAF" d="M105.35,283.468h52.726l0.377,0.126c0.718,2.612,3.782,5.105,2.134,7.91l0.125,1.883
		c0.799,0.346,1.662,0.588,2.26,1.255c2.781,4.473,3.471,9.717,5.65,14.437c-0.043,1.285,0.539,2.379,1.004,3.517v1.003h-12.051
		l-0.627-2.888l-1.382-0.627c-0.728,0.544-1.603,0.572-2.511,0.501c-1.144,0.992-2.873,0.013-4.016,1.005
		c-1.236-0.123-2.342,0.024-3.391,0.629l-0.627,1.38h-9.039c-0.43,0.013-0.592-0.41-0.878-0.628l-2.261-6.777
		c-1.322-1.596-3.477-0.923-5.272-1.257c-0.138-1.427-0.452-3.15,0.377-4.394c-0.663-2.255-2.433-3.633-4.521-4.52
		c-2.629,1.181-5.527,1.864-7.908,3.641l-0.125,5.398v4.519c-0.238,1.311,0.697,3.479-1.006,4.018h-1.506
		c0.086-1.466-0.809-2.768-1.631-3.891c-1.765-0.361-3.412-0.729-5.272-0.755l-0.125-1.883c0.911-1.553,0.46-3.651,0.377-5.396
		l-4.771-6.779c-0.209-2.213-0.209-4.566,0-6.779L105.35,283.468z"/>
	<path id="path172" fill="#0D5EAF" d="M341.36,286.482c2.967-0.584,6.457,1.799,6.025,5.021c0.582,0.688,0.434,1.551,0.627,2.384
		c1.461,0.642,2.98,1.188,4.02,2.511c1.316,0.383,2.357,1.212,3.264,2.26c0.174,1.944,0.562,4.32-1.004,5.775l-4.396,0.124
		c-0.938,0.619-2.598,0.928-3.389-0.124c-0.479-2.266,1.33-4.73-0.125-6.905l-0.127-0.879l-4.52-3.013l-0.754-0.25l-2.133-4.896
		C339.096,287.108,340.805,287.249,341.36,286.482z"/>
	<path id="path174" fill="#0D5EAF" d="M234.401,286.983c1.674-0.228,3.141,0.688,4.395,1.632c-0.066,2.157,0.797,4.965-0.502,6.779
		c-2.676,0.488-5.236-0.121-7.783-0.502C228.075,291.258,232.608,289.297,234.401,286.983z"/>
	<path id="path176" fill="#0D5EAF" d="M282.608,288.49c2.105-0.382,3.365,1.569,4.896,2.637l0.125,7.405
		c-0.838,2.563-2.201,5.448-4.896,6.655l-1.131,0.878h-2.01c-1.846-1.104-2.539-3.476-3.137-5.397l-2.26-4.27l-0.127-1.381
		c-0.012-0.43,0.41-0.591,0.629-0.879l1.256-0.251c2.045-1.887,4.107-3.741,6.527-5.021L282.608,288.49z"/>
	<path id="path178" fill="#0D5EAF" d="M341.36,288.49c1.43-0.138,2.895,0.046,3.893,1.13l0.502,4.269l-0.377,0.125
		C343.254,292.903,341.167,291.115,341.36,288.49z"/>
	<path id="path180" fill="#0D5EAF" d="M235.407,288.992c0.676,0.458,1.805,0.538,2.008,1.506l-0.627,2.89
		c-1.521-0.063-4.133,0.925-4.896-0.88c0.855-1.191,1.979-2.598,3.393-3.14L235.407,288.992z"/>
	<path id="path182" fill="#0D5EAF" d="M283.11,290.498c1.125-0.192,1.615,1.067,2.387,1.633c-0.031,2.621,0.838,5.797-0.754,8.034
		c0.016,1.171-0.844,2.261-2.008,2.512c-0.727,0.747-1.436,1.729-2.637,1.381l-0.379-0.125l-3.137-7.909
		C278.196,293.629,281.235,292.469,283.11,290.498z"/>
	<path id="path184" fill="#0D5EAF" d="M268.045,292.004l4.896,0.629l-0.504,8.284c-0.832,1.021-1.992,1.609-3.262,1.759
		c-1.75,1.233-3.781,0.881-5.525-0.251l-1.004-1.006c-0.176-1.272-0.391-2.798,0.377-3.892c-0.047-2.57,2.014-4.749,4.52-5.021
		C267.793,292.422,267.961,292.257,268.045,292.004z"/>
	<path id="path186" fill="#0D5EAF" d="M267.543,294.013l3.391,0.126c0.357,1.971,0.133,3.971-0.504,5.773
		c-1.123,0.823-2.424,1.72-3.893,1.633c-1.961-0.274-2.67-2.606-1.631-4.143c0.018-1.391,1.248-2.587,2.512-3.014L267.543,294.013z"
		/>
	<path id="path188" fill="#0D5EAF" d="M348.389,296.523l4.896,2.638c0.1,0.699,0.242,1.297,0.629,1.882l-0.629,1.383
		c-1.527,0.435-3.104,0.963-4.771,0.502c-0.512-1.838,2.029-4.066,0-5.523L348.389,296.523z"/>
	<path id="path190" fill="#0D5EAF" d="M242.938,297.026c1-0.087,2.062-0.087,2.637,0.878c2.389,0.848,2.613,3.804,3.891,5.649
		c-0.666,2.2-2.891,3.178-4.518,4.521c-0.582,0.159-1.049-0.208-1.381-0.628l-2.637-7.909c0.457-0.828,0.699-2.04,1.883-2.134
		L242.938,297.026z"/>
	<path id="path192" fill="#0D5EAF" d="M243.44,299.035c2.385,0.373,5.264,4.683,2.01,6.026l-0.881-0.127
		c-0.43-1.695-0.947-3.299-1.631-4.896L243.44,299.035z"/>
	<path id="path194" fill="#0D5EAF" d="M305.708,301.545c1.449-0.354,2.664,1.041,2.635,2.387c1.352,0.865,0.875,2.691,0.754,4.016
		l-1.006,1.005l-2.006,1.004c-3.607,0.562-5.727,4.385-9.416,4.646c-0.814,0.583-1.914,0.665-2.889,0.376
		c-0.779-1.016-1.324-2.447-1.004-3.766l3.768-1.76c0.809-1.372,1.85-2.641,3.514-3.012L305.708,301.545z"/>
	<path id="path196" fill="#0D5EAF" d="M305.206,304.057l1.381,0.126c0.326,0.894,0.996,1.745,0.502,2.761
		c-1.592,1.189-3.484,1.895-5.273,2.764c-1.154,1.137-2.418,2.267-4.018,2.511c-0.857,0.579-1.918,1.216-3.012,0.752v-0.752
		l3.262-1.255l0.504-0.505c0.623-2.501,3.971-2.554,4.771-4.77l0.502-0.501C304.424,305.061,305.088,304.723,305.206,304.057z"/>
	<path id="path198" fill="#0D5EAF" d="M359.94,304.057h8.031c1.529,0.561,2.771,2.315,2.889,3.891l-1.004,1.005
		c-3.172,1.163-7.432,1.484-9.039,5.021l-1.004,1.005l-6.275,0.25l-1.004,1.005l-0.125,0.879c0.742,2.637-2.639,3.946-4.396,2.888
		l-0.25-1.256c-1.502-2.054-1.387-5.896,1.129-7.156l1.381-1.13l0.252-0.751c2.656-2.492,5.766-4.529,9.289-5.272L359.94,304.057z"
		/>
	<path id="path200" fill="#0D5EAF" d="M351.903,313.597h-2.51c0.268-0.674,1.246-0.799,1.883-1.129
		c0.666-0.602,0.91-1.462,1.256-2.261l5.523-3.515c2.799-0.507,5.377-1.521,8.41-1.13l1.883,1.13
		c-2.062,2.68-7.17,1.594-8.535,5.271l-1.006,1.005L351.903,313.597z"/>
	<path id="path202" fill="#0D5EAF" d="M239.926,307.069c1.236-0.096,2.318,1.312,2.006,2.511c0.885,1.169,0.539,2.714-0.125,3.892
		l-3.264,2.262l0.754,5.271c-1.584,1.363-3.84,1.139-5.9,1.131l-6.025,0.502c-0.43,0.013-0.59-0.41-0.879-0.627
		c-0.301-2.696-0.471-5.73,1.508-7.784c1.51-0.413,3.02-0.016,4.393,0.378c0.896-1.161,2.447-0.653,3.391-1.634
		c0.283-1.191-0.492-2.3-0.879-3.39l1.129-1.381l3.766-0.753L239.926,307.069z"/>
	<path id="path204" fill="#0D5EAF" d="M237.415,309.58h1.006c3.055-0.53,2.121,3.521,0,4.018l-0.377-0.126
		C237.766,312.16,237.149,311.023,237.415,309.58z"/>
	<path id="path206" fill="#0D5EAF" d="M271.561,312.091h1.004l6.404,3.642c0.207,1.208,0.207,2.556,0,3.766l-2.889,3.642
		c-2.729-0.73-3.807-3.94-5.902-5.65c0.037-1.604-1.006-4.562,1.258-5.021L271.561,312.091z"/>
	<path id="path208" fill="#FFFFFF" d="M114.389,313.597c-0.106,1.076-1.399,1.076-1.506,0H114.389z"/>
	<path id="path210" fill="#FFFFFF" d="M145.02,313.597l-4.018,13.057l1.506,3.013l-0.125,1.883h-0.754l-5.021-3.012l0.878-1.382
		c-0.24-3.673,1.947-7.999-1.004-11.047l-0.502-2.512H145.02z"/>
	<path id="path212" fill="#FFFFFF" d="M169.625,313.597c0.502-0.083,0.627,0.586,0.377,0.88l-1.758,0.251
		c-0.867,0.888-1.596,2.311-0.629,3.39v4.52l0.629,1.382c1.627,1.923,4.287,3.355,4.52,6.023l0.752,1.507
		c-0.594,0.917-1.861,0.686-2.76,0.504c-1.314-1.151-0.947-3.118-2.26-4.27c-1.4-0.467-2.752-0.688-4.27-0.754
		c-2.16-2.732-2.797-6.763-6.025-8.535l-0.627-4.896L169.625,313.597L169.625,313.597z"/>
	<path id="path214" fill="#FFFFFF" d="M349.395,313.597h2.51l-2.135,4.395l-1.381-2.385L349.395,313.597z"/>
	<path id="path216" fill="#FFFFFF" d="M272.063,314.1c2.018,0.607,4.4,1.521,5.523,3.515c-0.4,0.884-0.807,1.763-1.633,2.386
		c-0.387,0.196-0.867,0.196-1.254,0l-2.512-3.013L272.063,314.1z"/>
	<path id="path218" fill="#FFFFFF" d="M229.381,315.104l2.51,2.009l1.381-0.125c0.707-1.031,1.402-2.558,3.014-1.759
		c0.967,1.264,0.299,2.984,1.004,4.27L236.788,320l-1.883,0.125c-1.586,1.202-3.938-0.197-5.523,1.004l-0.375-0.125
		c-1.014-1.241-1.096-3.924,0.25-5.021L229.381,315.104z"/>
	<path id="path220" fill="#0D5EAF" d="M323.784,318.619c2.391,1.215,4.781,3.45,5.523,6.025c-0.473,2.331-3.035,1.953-4.896,2.134
		c-1.223,1.421-0.727,4.039-3.139,4.396c-1.061-0.486-2.389-1.063-2.635-2.386c-1.1-1.13-2.41-2.13-2.889-3.641
		c0.881-1.325,1.064-3.274,2.637-3.894l3.768,2.261L323.784,318.619z"/>
	<path id="path222" fill="#FFFFFF" d="M324.288,321.633c1.219,0.048,2.898,1.559,2.385,2.886c-0.711,0.208-1.551,0.208-2.262,0
		L324.288,321.633z"/>
	<path id="path224" fill="#FFFFFF" d="M318.762,323.64c2.129,0.562,3.297,2.837,2.887,4.896c-1.125,0.207-2.156-1.286-2.51-2.261
		C318.112,325.684,318.047,324.474,318.762,323.64z"/>
	<path id="path226" fill="#0D5EAF" d="M278.088,330.168l2.387,0.126c1.156,1.229,2.619,2.269,3.139,3.892
		c0.109,2.282,0.141,4.496-1.131,6.401l-1.004,0.503l-0.879-0.377h-1.006c-2.162,0.802-6.588-2.971-3.137-4.143
		c0.217-0.287,0.637-0.45,0.627-0.879c0.684-1.692-2.266-4.096,0.377-4.645C277.678,330.759,278.098,330.598,278.088,330.168z"/>
	<path id="path228" fill="#0D5EAF" d="M404.127,331.173l6.402,0.125c0.711,4.66-2.184,8.471-3.014,12.806
		c-1.873,2.745-3.129,5.715-2.887,9.164L404,354.648c-0.699,0.099-1.297,0.24-1.883,0.626c-0.775,0.166-1.391-0.144-2.01-0.5
		c-4.072,1.879-5.518,6.492-8.66,9.414l-1.885,0.125c-1.762-0.979-3.928-1.713-5.02-3.515c1.037-2.502,2.404-4.906,3.014-7.531
		c-0.211-2.591-4.129-2.8-4.018-5.523c0.607-1.659,2.9-0.876,3.891-2.135l1.004-2.009l0.754-2.763
		c3.957-3.94,8.557-7.141,13.811-8.786L404.127,331.173z"/>
	<path id="path230" fill="#FFFFFF" d="M278.59,331.674c1.152,0.406,2.064,1.197,2.889,2.135c0.207,1.543,0.207,3.228,0,4.771
		l-1.381,0.628l-1.004-0.504l-0.879-0.124c-0.316-1.793,1.973-3.597,0.375-5.396V331.674z"/>
	<path id="path232" fill="#FFFFFF" d="M405.633,343.727h-15.566l1.131-2.385l5.523-4.521l7.908-3.641l3.893,0.125l0.125,1.382
		C407.514,337.662,406.51,340.68,405.633,343.727z"/>
	<path id="path234" fill="#0D5EAF" d="M162.092,335.691l2.385,0.126l7.658,7.909c-0.109,2.054-2.609,3.236-2.008,5.522
		c-0.385,0.587-0.529,1.184-0.629,1.884l-1.883,0.127c-2.354-1.047-5.172-1.36-6.904-3.643l-0.125-2.889
		C159.168,341.701,160.594,338.354,162.092,335.691z"/>
	<path id="path236" fill="#FFFFFF" d="M169.625,343.727h-7.533c-0.008-2.06-0.234-4.316,1.131-5.9
		C165.756,338.98,167.768,341.638,169.625,343.727z"/>
	<path id="path238" fill="#0D5EAF" d="M169.625,343.727l-1.633,5.396l-0.377,0.126c-1.736-0.866-5.051-0.746-5.146-3.39
		c-0.674-0.5-0.264-1.439-0.375-2.134L169.625,343.727L169.625,343.727z"/>
	<path id="path240" fill="#0D5EAF" d="M405.633,343.727l-0.627,1.381c-3.363,1.684-0.607,5.845-3.014,8.035l-4.771,0.751
		c-0.43,0.309-0.645,0.75-0.752,1.256c-2.463,2.151-3.568,5.394-6.402,7.155l-2.887-1.631c0.02-2.252,1.252-4.477,2.385-6.402
		c0.738-2.661-1.943-3.923-3.391-5.649v-0.25c2.178-0.561,3.752-2.477,3.893-4.646H405.633z"/>
	<path id="path242" fill="#0D5EAF" d="M355.922,389.422l1.004-4.521l-1.381-4.394c0.965-1.201,0.926-2.768,1.381-4.145l2.637-8.912
		c1.4-1.377,4.223-1.708,5.773-0.504c0.365,0.834,0.064,1.696-0.377,2.387c0.309,2.864-1.174,5.207-1.004,8.033
		c-1.021,1.903-0.584,4.63,0.879,6.153c0.1,0.698,0.242,1.296,0.629,1.882l0.5,3.014c-0.354,1.515-2.047,1.228-2.887,2.136
		c-0.215,1.154,0.025,2.771-1.131,3.388C359.44,393.47,358.014,390.76,355.922,389.422z"/>
	<path id="path244" fill="#0D5EAF" d="M362.45,373.854h-3.014c1.277-1.758,0.49-6.307,3.893-5.397l0.125,0.88
		c-0.992,1.144-0.014,2.874-1.004,4.017V373.854z"/>
	<path id="path246" fill="#FFFFFF" d="M362.45,373.854v1.508c-0.545,0.728-0.572,1.603-0.504,2.51
		c-1.818,2.987,1.354,5.65,1.508,8.537l0.502,1.005c-0.469,1.552-2.98,1.062-3.141,2.888l-0.375,0.125
		c-1.953-0.432-3.4-2.545-1.633-4.144l0.125-0.879c-0.385-0.586-0.527-1.184-0.625-1.882c-0.996-1.269-1.533-3.65,0-4.772
		l1.129-4.896H362.45z"/>
	<path id="path248" fill="#0D5EAF" d="M200.256,375.863c1.162-0.295,1.395,0.982,1.883,1.632l1.758,6.276
		c2.854,1.304,6.297,0.325,9.414,0.629l4.646-3.391l2.258-0.501c0.979,1.399,3.566,1.464,3.641,3.389
		c-0.605,1.868-3.068,1.968-3.891,3.391c0.289,0.219,0.451,0.638,0.879,0.627c0.775-0.163,1.389,0.146,2.008,0.503
		c3.299-0.096,2.785,4.226,3.643,6.402c5.895,0.11,11.875-0.308,16.947-3.391h17.072c1.811,0.763,1.656,2.943,2.637,4.395
		c5.5,1.51,11.957-0.546,16.947,2.637c5.203-0.385,10.65-2.787,15.943-0.879c1.996,3.107-1.232,6.543-0.752,9.791
		c0.287,0.22,0.447,0.639,0.877,0.627c4.25-0.182,6.83-4.412,10.547-6.025l7.906,1.382c1.836-1.675,2.232-4.599,4.521-5.772
		c1.57,0.616,1.756,2.566,2.635,3.892l-0.502,10.545c0.012,0.428-0.41,0.591-0.625,0.879l-5.902,3.64
		c-2.686-0.138-5.568,0.391-8.033-0.502c-4.404,1.149-9.416,0.186-14.062,0.502c-11.648,2.483-23.654,3.746-35.65,5.021
		l-1.004,0.502h-3.518l-1.004,0.503h-4.518c-0.43,0.01-0.592-0.411-0.879-0.629l-0.252-8.786c-0.287-0.218-0.449-0.64-0.879-0.629
		c-0.775,0.165-1.391-0.144-2.01-0.501c-3.523,0.386-6.061-2.198-9.037-3.515c-5.434-0.651-10.887-1.222-16.57-1.006
		c-7.246-3.148-15.732-2.007-23.602-3.014l-5.9-3.64l3.014-18.83c0.773-1.073,2.133-1.452,3.264-1.507
		c2.012,1.167,0.475,3.691,1.756,5.271c0.377,0.574,1.127,0.854,1.758,0.503c0.219-0.288,0.639-0.449,0.629-0.879
		c-0.498-2.696-2.928-8.531,1.506-9.039C200.006,376.283,200.172,376.114,200.256,375.863z"/>
	<path id="path250" fill="#FFFFFF" d="M293.655,403.983h-80.846h-2.512c-4.658-1.593-9.998-0.825-15.064-1.004l-5.396-3.139
		l2.385-15.44c-0.012-0.429,0.41-0.592,0.627-0.878c1.818,0.873-0.074,5.427,3.391,4.393l1.004,0.503
		c0.973-0.115,2.256,0.385,2.887-0.629l-0.754-9.289l0.377-0.125c1.221,0.14,0.732,1.531,1.381,2.135
		c0.66,1.809,0.689,3.929,2.26,5.271c0.699,0.101,1.297,0.243,1.885,0.629c4.012-0.246,8.811,1.048,11.674-2.386
		c0.66-0.08,1.084-0.543,1.506-1.004l1.256-0.502l1.004,0.502c0.721,2.925-5.031,2.276-4.268,5.271
		c1.854,1.094,4.15,1.236,6.275,1.758c1.811,1.599,1.355,4.214,2.262,6.276l1.381,0.628l11.549-1.005l6.025-2.51h15.564
		c1.779,0.896,1.229,3.42,3.139,4.394c5.867,0.823,12.27-0.45,17.451,2.637c4.895-0.307,9.58-2.716,14.438-1.382
		C294.893,400.742,294.458,402.813,293.655,403.983z"/>
	<path id="path252" fill="#0D5EAF" d="M355.922,389.422c0.033,1.562-0.855,3.013-1.883,4.143c-0.672,1.832-2.672,3.193-4.646,2.889
		c-1.145,0.654-2.195,1.333-3.389,0.376l-0.252-0.755c-1.947-2.073,0.055-4.658,1.256-6.525l4.895-0.127
		C353.125,388.409,354.645,389.125,355.922,389.422z"/>
	<path id="path254" fill="#FFFFFF" d="M348.891,390.929l4.395,0.124c-0.018,1.195-1.176,2.318-2.008,3.265l-1.383,0.126
		c-0.811,0.578-2.223,0.888-2.887-0.126c-0.326-1.168,0.479-2.779,1.758-3.014L348.891,390.929z"/>
	<path id="path256" fill="#FFFFFF" d="M319.766,403.983h-3.012c0.574-0.943,1.344-1.766,1.631-2.886
		C320.368,400.262,319.657,402.897,319.766,403.983z"/>
	<path id="path258" fill="#0D5EAF" d="M293.655,403.983c0.238,1.721-1.049,3.144-0.377,4.896c0.666,1.064,2.074,0.299,2.887,1.131
		l1.006-0.503c3.303,0.293,5.111-3.067,7.908-4.143l1.256-1.256c0.975-0.289,2.074-0.208,2.887,0.376
		c0.908-0.069,1.783-0.043,2.512,0.503l2.512,0.501c1.115,0.294,2.123-0.538,2.512-1.506h3.012
		c-0.432,2.826,1.217,6.553-1.633,8.411l-3.891,2.134h-21.092c-2.73,0.888-5.783,1.428-8.535,1.005l-1.508,1.004h-2.01l-1.002,0.502
		h-2.512l-1.004,0.504h-2.512l-1.002,0.5l-19.084,2.01l-1.004,0.503h-3.516l-1.004,0.503l-0.377-0.127
		c-0.59-3.035,0.625-6.481-0.752-9.288l-6.404-1.633l-7.029-3.517c-5.795,0.022-11.162-1.42-17.072-1.005l-4.018-1.506
		L293.655,403.983L293.655,403.983z"/>
</g>
</svg>
