<?xml version="1.0" encoding="utf-8"?>
<!-- Generator: Adobe Illustrator 16.0.0, SVG Export Plug-In . SVG Version: 6.00 Build 0)  -->
<!DOCTYPE svg PUBLIC "-//W3C//DTD SVG 1.1//EN" "http://www.w3.org/Graphics/SVG/1.1/DTD/svg11.dtd">
<svg version="1.1"
	 id="svg2" xmlns:dc="http://purl.org/dc/elements/1.1/" xmlns:cc="http://creativecommons.org/ns#" xmlns:svg="http://www.w3.org/2000/svg" xmlns:rdf="http://www.w3.org/1999/02/22-rdf-syntax-ns#" xmlns:sodipodi="http://sodipodi.sourceforge.net/DTD/sodipodi-0.dtd" xmlns:inkscape="http://www.inkscape.org/namespaces/inkscape" inkscape:version="0.91 r13725" sodipodi:docname="Flag_of_Iceland.svg"
	 xmlns="http://www.w3.org/2000/svg" xmlns:xlink="http://www.w3.org/1999/xlink" x="0px" y="0px" width="709.465px"
	 height="469.477px" viewBox="0 0 709.465 469.477" enable-background="new 0 0 709.465 469.477" xml:space="preserve">
<sodipodi:namedview  id="namedview10" fit-margin-left="0" showgrid="false" fit-margin-top="0" pagecolor="#ffffff" inkscape:cx="487.96114" gridtolerance="10" inkscape:zoom="0.63" objecttolerance="10" bordercolor="#666666" inkscape:cy="350.92554" borderopacity="1" guidetolerance="10" inkscape:current-layer="svg2" inkscape:window-maximized="1" inkscape:window-y="-8" inkscape:pageopacity="0" inkscape:window-height="837" inkscape:pageshadow="2" inkscape:window-x="-8" fit-margin-right="0" fit-margin-bottom="0" inkscape:window-width="1600">
	</sodipodi:namedview>
<g>
	<path id="path4" inkscape:connector-curvature="0" fill="#003897" d="M397.913,28.247l-0.552,0.156l0.329,1.246l-0.817,0.347
		l0.234,0.877l-0.087,0.784l1.006,0.734l0.704,0.871l0.435-0.031l0.579-1.658l-0.167-1.199l-0.638-1.192L397.913,28.247z
		 M498.543,31.921l-0.31,0.044l-0.552,0.801l-1.002,3.357l-0.814,0.556l-0.389-1.363l0.44-0.51l-0.236-0.047l-0.588-0.115
		l-0.427,0.739l0.188,0.595l-0.442,1.604l-0.556,0.114l0.185,0.509l0.755,0.081l-0.044,0.317l-1.186,0.085l-0.657,0.521
		l-0.794-0.193l-1.183,0.057l-0.119-0.427l1.487-0.215l0.445-0.452l-1.399,0.124l-1.152-0.434l-0.219-1.084l-0.174-0.322
		l-0.635-1.193l-0.569-0.116l0.166,1.23l-0.571-0.116l-0.525-0.952l-0.601,0.951l-1.438,0.531l-0.171,0.702l0.581,1.005l0.135,0.656
		l-0.839-0.419l-0.163-0.654l-0.039-0.811l-0.128-0.419l0.367-1.199l-0.438-1.59l-0.784-0.019l-2.43,1.275l-0.646,1.761l0.133,0.597
		l-0.31,1.23l-0.759-0.745l0.425-0.741l-0.204-1.833l-0.487-0.261l-0.683,0.091l-0.112,0.29l-0.539,1.356l-0.862,1.224l-0.52,1.239
		l0.479,0.666l1.328,0.766l-0.044,1.845l0.661,1.118l1.364,3.442l-0.857,0.763l0.339,1.42l0.288,1.197l-0.459,1.175l0.836,1.483
		l-0.453,1.78l0.426,0.869l0.984,0.325l0.471,0.609l-0.146,2.799l0.941,1.191l-0.035,0.463l0.944,0.728l0.368,1.236l0.174,0.581
		l0.785,1.254l0.05,0.833l-0.609,1.239l-0.072,1.962l-0.853,1.829l-0.851,0.792l-0.175,0.181l-0.473,2.471l-0.989,2.096
		l-0.729-0.337l-2.407,1.594l0.479,0.752l-0.087,0.119l-1.26,0.094l-0.938,0.679l-0.653-0.45l-1.105,0.604l-0.953,0.051l0.073-0.291
		l3.652-1.403l0.356-0.738l3.557-2.027l-0.057-0.428l-0.081,0.036l-3.29,1.491l-1.991,1.803l-1.98,0.479l-4.288,1.988l0.091,0.486
		l1.225-0.701l1.031-0.258l-0.432,0.484l-0.414,0.8l0.241,0.419l-0.901,0.827l-1.643-0.084l-1.082,0.923l-0.098,1.877l-0.345,1.345
		l-0.244,0.042l-0.244-1.627l-0.078-0.514l-1.229-0.883l2.757-1.303l0.555-0.492l-0.417-0.265l-2.363,1.196l-1.795,0.402
		l-4.098,0.967l-1.728,0.013l-0.297,0.227l-0.067,0.774l-0.459,0.054l0.077,0.688l1.178,0.567l-0.588,0.436l-0.881-0.265
		l-0.889,0.081l0.192-1.74l-0.509-0.691l1.216-0.243l-0.982-0.403l0.053-1.96l-1.146-1l-0.365-1.273l0.117-2.369l-1.121-1.95
		l-1.781-1.254l-0.593-0.42l-1.892,0.372L449.05,73.6l-0.783-0.125l-0.58,0.244l-0.53,0.227l-1.406-0.635l-0.22,0.416l0.432,0.839
		l-0.479,0.664l-0.803,0.451l-0.492,0.03l-1.479-0.771l-1.138,0.532l-1.031,1.13l-0.229,0.678l-1.017,0.494l-0.771,1.289l0.095,1.29
		l0.758,0.643l-0.032,0.544l-0.011,0.151l-0.502,1.156l0.25,0.802l0.233,0.752l-1.668,1.662l-0.654,1.165l-2.679,0.431l-0.212,0.475
		l0.774,0.9l-0.354,0.6l-0.896,0.405l0.41,0.953l-0.481,1.356l0.982,1.666l-0.262,0.593l-1.708,1.838l-0.165,1.077l0.441,0.577
		l-1.177,1.516l-0.84,1.497l0.923,1.089l0.121,0.141l-0.152,0.008l0.065,0.892l0.066,0.887l-0.36,0.802l-0.271-0.24l0.144-0.961
		l-0.285-1.334l-0.729-0.73l-0.192-1.341l-1.946,0.675l-1.837,0.038l-1.567,0.323l-1.096-0.202l-1.991,0.021l-1.406-0.307
		l-0.104,0.243l0.312,0.272l-0.547,0.129l-0.122,0.111l-0.89-0.721l-0.641-1.107l-0.794-0.725l-0.494-0.425l-0.641-3.386
		l-0.919-0.743l-0.432-1.124l-0.538-0.567l-0.314-0.872l-0.663-0.587l-0.946-1.402l-3.115-1.911l-0.479-0.572l-0.23-0.935
		l-0.036-0.036l-0.67-0.662l-1.933,0.14l-0.483-0.253l-0.353-0.147l-1.242-1.553l-0.042-1.612l-1.513-0.726l-1.285-0.942
		l-1.138-0.291l-0.758-0.896l-2.263,0.312l-0.748,0.633l-2.098,0.764l-0.558-0.736l0.558-0.678l-0.283-0.411l-1.53-0.865
		l-0.828,0.064l-0.3,0.455l0.039,0.804l-0.317,0.229l-1.119-1.792l-1.109-0.636l-1.521,0.291l-1.604-0.626l-1.029,0.346
		l-0.533,0.181l-1.069-0.176l-0.817,0.873l-1.307,2.294l-0.151,1.052l0.402,2.709l-0.211,1.055l0.826,3.974l0.028,1.594l0.019,0.969
		l0.807,1.754l0.546,1.947l-0.086,1.765l1.981,3.91l2.497,3.555l0.137,0.543l0.147,0.588l-0.992,1.26l0.381,0.836l-0.152,0.012
		l1.562,1.723l0.299,0.613l1.036,0.293l0.5-0.24l-0.131-1.144l0.472-0.556l0.447-0.148l0.16,0.418l-0.462,0.67l0.934,0.534
		l0.531,1.63l0.138,0.424l0.586,0.069l0.655-0.222l-0.447,1.562l0.866,1.52l0.219,1.828l1.062,1.679l-0.457,1.446l0.147,0.998
		l0.781,0.576l-0.751,0.144l-0.317,0.573l0.197,1.224l-0.188,0.935l-0.953,1.748l-0.49,1.393l0.245,2.49l-0.414,1.906l0.373,1.5
		l1.043,1.534l1.409,4.353l0.2,0.625l-0.038,2.053l-0.5,0.527l-0.661,1.531l-0.358-1.051l-0.676-0.812l0.052-2.224l-0.205-0.964
		l0.254-1.289l-0.905-0.995l-1.469-1.53l-0.59-1.192l-1.359-1.31l-0.112-0.942l0.3-1.437l-0.039-1.843l0.495-0.96l-0.717-2.279
		l-1.332-1.973l-0.409-2.217l0.085-2.488l-0.284-1.311l-0.127-0.59l-1.646-0.994l-0.788,0.091l-0.815-0.571l-0.761-4.381
		l-1.067-0.98l-1.268-3.159l-1.08-1.099l-0.994-0.121l-1.511-0.426l-1.617,0.448l-1.889-1.172l-0.996-1.13l-1.863-0.223
		l-0.785-0.201l-0.76-0.219l-0.45-0.541l0.972-4.811l0.056-0.266l0.01-2.165l-0.595-1.076l-0.161-2.037l-0.482-2.152l-0.932-1.683
		l-0.826-0.565l-0.958-0.007l-3.954,1.94l-0.229-0.203l0.415-1.449l2.358-2.148l0.34-1.542l-3.416-4.619l-1.143-0.597l-1.938,0.137
		l-1.524,0.533l-0.928,1.265l-0.651,1.846l-0.638-0.101l-0.276-0.4l0.022-0.693l1.617-4.27l-0.001-0.951l-1.471-1.375l-1.247-0.382
		l-2.328-0.318l-0.104,0.184l0.572,1.365l-0.177,1.025l-1.196,1.029l0.264,0.467l-0.011,0.809l-1.955,2.396l-0.669,0.116l0.8-1.572
		l-0.306-1.473l0.243-0.658l-0.071-1.321l-0.59-0.611l-1.171-0.534l-1.45,0.071l-1.229,0.717l-1.424,1.514l-1.38,0.726l-0.206,0.109
		l-1.804,2.011l-0.667,2.467l-0.359,1.323l-0.385,2.807l1.085,0.334l0.706,2.622l1.419,2.065l-2.378-1.199l-1.068-1.954
		l-1.354-0.539l0.931-0.548l0.156-0.562l-2.43,0.396l0.497,1.197l-0.178,0.94l-0.603,0.431l-0.76,0.128l-1.365-1.519l-0.921,0.057
		l-0.663-0.719l-1.772,1.032l-0.976,0.12l-0.617-0.287l-0.547,0.08l-1.483,0.285l-0.66-0.109l-0.546,0.369l-1.207-0.578
		l-0.474,0.189l-0.581,1.183l-2.329,1.553l-1.188,1.531l0.057,1.352l0.512,1.279l0.672,0.772l0.746,1.461l0.126,1.432l-0.463,0.824
		l-1.44,0.893l-0.014-0.113l-2.607,0.889l-0.271,1.153l-0.336,0.582l0.045,1.499l0.981,1.087l1.176,0.638l0.764,1.244l0.623,1.02
		l-0.011,1.012l0.744,1.539l0.849,0.676l0.008,0.923l0.38,1.495l1.479,3.182l0.354,1.457l-0.834,1.736l0.197,3.766l-0.851,1.729
		l-0.908,3.987l0.223,1.193l0.062,0.282l-0.613-0.026l0.082,0.338l-0.773,0.019l-0.395,0.847l-0.169-0.156l-0.229-0.151
		l-0.377,0.183l-0.273-0.291l0.622-1.274l1.315-1.343l-0.451-0.215l-2.138,1.363l-1.185-0.809l-0.525-1.707l-0.718-0.971
		l-0.723-0.188l-0.673,0.816l0.478,2.463l0.023,0.117l-0.076,0.477l-0.728,0.438l-0.456-0.181l0.169-0.394l-0.296-0.75l-0.989,0.158
		l-0.702-0.278l-1.672,0.052l-1.17-1.275l-0.29-0.312l-0.167-0.937l-0.148-4.002l-0.231-0.959l-0.65-0.629l-0.262-1.545
		l-0.136-0.802v65.327h325.285l0.463-0.318l0.201-0.634l1.005-1.017l-0.339-0.828l-0.692-0.598l-1.94-0.123l-1.236-0.992
		l-2.066-0.465l-0.275-0.656l0.107-0.33l0.123-0.362l0.533-0.267l3.708,0.361l0.507-0.121l0.901,0.451l1.068-0.699l1.312-0.014
		l1.005-1.07l-0.187-0.717l1.084-2.308l-1.237-1.14l0.698-0.636l1.408-1.28l0.043-1.724l-0.575-0.685l0.323-0.637l-0.13-0.83
		l-0.603-0.543l-0.037-0.545l0.507-0.522l1.582-0.586l0.268-0.405l-0.074-5.027l-0.405-0.469l-1.936-2.243l-0.395-0.054
		l-0.502,0.609l-0.183,0.002l0.31-2.129l-0.73-0.972l-0.544-0.11l-1.44,0.244l-0.517-0.34l-1.242,1.996l-0.505,0.522l-0.496,1.241
		l-0.838,0.382l-1.091-0.763l-0.311-0.601l0.222-3.997l-0.581-0.855l-1.029-0.332l-0.479,0.119l-0.58-0.453l-1.017,0.386
		l-0.367-0.255l-0.158-0.686l1.56-0.594l0.342-1.469l-0.285-1.118l-0.123-0.115l-1.16-1.078l-2.657-0.138l-1.854,1.087l-1.07,1.049
		l-0.604-0.146l-1.765-0.914l-1.938-0.459l-3.134-1.36l-7.351-5.092l-0.73-0.519l-0.037-0.315l-0.035-0.259l-2.874-1.5l-2.478-2.625
		l-0.736-1.737l-0.427-0.165l-0.207,0.291l0.423,1.229l-0.701-0.218l-0.144-0.974l0.453-1.331l1.192-1.493l0.37-0.465l1.011-2.434
		l-0.049-0.804l0.8-1.021l-0.151-1.35l-0.311-0.279l-1.127-0.123l-1.962,0.525l-1.283-0.289l-0.808,0.533l-1.546,0.205l-1.582,1.125
		l-0.242,0.098l-3.126,1.242l-1.356,0.375l-3.062,0.102l-1.168,0.544l-0.652,0.562l-0.004-0.172l-1.216,0.029l-3.939,2.226
		l-0.007-0.144l-1.957,0.481l-1.345,1.231l-0.584,0.144l-0.561-0.445l-1.009-1.295l1.014-1.752l0.168-0.293l0.019-0.433l2.408-2.679
		l1.158-2.014l-0.135-0.428l-0.66,0.247l-4.688,4.782l-0.806,0.482l-0.674-0.27l-0.509-0.704l0.798-0.712l1.183-0.062l0.849-0.973
		l0.979-0.773l-0.09-1.002l0.48-0.187l0.057-1.123l0.269-0.18l0.844,0.868l0.085-0.289l-0.485-1.023l-0.006-1.178l0.818-1.958
		l0.373-0.892l0.503-0.559l2.139-0.833l0.382-0.499l0.148-1.182l0.408-0.672l3.513-3.019l1.685-3.231l0.256-1.248l0.771-3.75
		l-0.073-2.299l-0.086-2.586l-2.034-1.591l-0.785-4.034l-0.258-0.454l-0.77-1.16l-0.931-0.323l-2.062-1.185l-0.947,0.111
		l-2.982,1.946l-0.552,1.049l-0.166,0.866l-0.071,0.377l-1.05,0.861l-1.904,0.463l-0.484-0.455l-0.859-1.932l-0.879-0.581
		l-2.047,0.26l-1.291-0.05l-1.08-0.556l-0.933-0.478l-0.424-0.217l-0.894-0.032l-1.972,0.662l-0.563-0.298l0.251-0.728l1.381-1.881
		l-0.093-0.976l-0.151-1.605l0.316-0.643l-0.048-0.517l-1.755,0.024l-1.615,0.423l-1.169-0.055l-0.31-0.015l-0.589-0.958
		l-1.06-0.612l-0.261-0.152l0.104-1.296l1.968-1.816l2.086-0.324l1.914-0.747l0.532-0.454l1.023-0.916l1.039-0.261l0.734-1.055
		l0.482-0.388l2.352-1.884l0.293-0.235l0.914-1.289l0.35-1.622l-0.539-2.314l-0.634-0.87l-0.783-1.822l-1.591-1.306l-0.36-0.12
		l-1.143-0.383l0.124-0.895l1.019-0.54l0.533-0.283l0.734-1.17l2.038-1.122l2.464-0.614l0.813-0.684l0.439,0.133l0.788-0.539
		l0.867-0.108l1.281-1.675l1.188-0.834l1.291-0.404l0.308-0.098l0.421-0.499l1.69-0.56l1.436-0.812l1.207-0.2l2.827-1.132
		l0.758-0.678l1.24-0.145l1.445-0.606l1.325-1.64l-0.254-0.194l-1.746,0.635l-0.688,0.251l-2.521-0.085l-2.604,1.354l-3.003,0.449
		l-1.479-0.595l-2.57-1.749l-1.02-0.689l-1.129-0.344l-0.964,0.053l-3.536,1.362l-1.552,0.991l-0.872,0.888l-0.533,0.821
		l-0.624,0.383l-0.769,1.583l-0.531,1.771l-1.274,0.784l-0.3,1.247l-0.955,1.091l-1.146,0.897l-0.875-0.175l-0.205,0.324
		l0.649,0.842l-1.091,1.614l-0.958,0.322l-0.902,0.306l-2.461,0.452l-2.666,0.748l-1.822,0.201l-1.519-0.896l-0.559-0.011
		l-1.243,0.675l-0.586,1.52l-0.312,0.812l0.494,1.536l0.053,2.156l0.955,2.238l-0.92,2.535l-2.105,1.308l0.986,0.024l-0.082,1.785
		l-0.741,0.772l-0.393-0.617l0.05-0.979l-1.659-0.755l-1.542-2.873l-0.799-0.632l-0.411-0.273l0.004,0.115l-1.146-0.072
		l-0.886-0.487l-0.308-0.604l-1.311-2.559l-0.438-0.099l0.063,0.775l-1.258-0.471l-0.609,0.201l-0.036-1.585l-0.397-0.59
		l-0.468-0.068l-0.293,0.384l-0.584,0.051l-0.794,0.951l-0.656-0.148l-0.705-0.547l-2.176,0.429l-0.085-0.134l-0.65-1.045
		l0.253-1.91l0.444-1.111l0.155-0.005l-0.169-0.942l-0.854-0.369l-0.959,0.67l-0.501,0.139l-1.339-2.367l-0.497-0.038l-0.084,0.838
		l-1.504-1.22l0.464-0.436l1.43,0.085l2.648-2.435l1.562-3.831l-0.726-2.907l0.138-1.788l0.412-0.506l-0.313-0.859l-0.902-1.222
		l-0.087-0.515l-1.664-0.081L518.7,48.34l-0.769,0.867l-0.757-0.758l0.323-1.124l0.449-0.335l-0.023-0.488l-1.247,0.273
		l-1.165,0.776l-0.5-0.066l0.122-1.299l-0.543-0.236l-0.427,0.189l-0.607,1.204l-0.757-0.456l-0.452,0.307l-0.274-1.111l0.788-1.069
		l-0.453-0.326l-1.164-0.181l0.724-1.152l-0.167-0.858l0.823-0.351l-0.789-0.772l0.498-1.287l0.643-0.288l0.041-1.065l1.365-0.202
		l-0.75-0.629l-0.887-0.194l0.14-0.125l0.399-0.357l-0.847-0.021l-0.438-0.644l-0.796-0.282l-0.466,0.089l0.423-0.922l-0.347-0.647
		l-0.585,0.169l-0.029,0.662l-0.286-0.102l-0.188-1.202l-1.519-0.883l-0.635-1.411l-0.381-0.042l-0.728,1.069l-1.252-0.002
		l-0.202,0.326l0.894,0.911l-0.608-0.042l-0.899-0.064l-0.391-0.845l-1.271-0.346l-0.635-0.72l-2.042-0.109l-0.006-0.115
		l-0.758,0.496l-0.564-0.033L498.543,31.921L498.543,31.921z M486.375,34.948l-0.151,0.613l0.22-0.011l0.283-0.503L486.375,34.948z
		 M131.412,40.069l-1.316,0.252l-0.622,0.022l-1.452,0.051l-0.519,0.28l0.175,0.818l0.875,0.482l0.752,0.877l0.99,0.06l1.115,1.321
		l1.599,1.394l-0.18,0.783l-0.191,0.903l-0.567-0.005l-0.821-1.451l0.338-0.778l-1.252-1.214l-1.185-0.085l-0.643-0.431
		l-1.004,0.935l-1.293,0.192l-1.358-0.176l-1.677,0.164l-0.427,0.442l-0.027,0.383l0.899,1.91l0.112,0.239l-0.099,0.334
		l-0.639-0.398l-0.726-1.258l-2.986-2.058l-1.893,0.724l-0.129,0.338l2.66,3.24l1.167,1.776l1.344,0.006l0.412,0.004l0.743,0.576
		l-0.134,1.97l-0.068,1.003l-2.074,1.271l-0.879,1.053l-0.912,0.034l-1.754-1.192l-0.859-0.045l-1.458-0.944l-0.908-0.193
		l-0.206-0.045l-0.344,0.723l-0.046,0.795l0.962,1.513l2.187,1.677l3.203,1.843l1.523,0.879l2.205,0.921l1.636-0.159l0.773,0.292
		l0.751-0.2l0.338-0.4l1.955-1.223L130.684,60l0.849-1.087l0.277-1.846l3.909-2.32l1.038-1.463l0.185-0.027l-0.111,1.005
		l-0.406,0.933l-0.884,0.64l-1.185,0.857l-0.299,0.452l0.389,0.436l-0.468,2.02l0.19,0.379l0.79,0.203l1.435-0.24l1.116-0.671
		l0.934-0.56l1.405-1.339l1.853-2.599l0.532-1.123l4.271-0.413l0.008,0.61l-1.172,0.692l-1.249,0.239l-1.105,0.537l-0.213,0.409
		l0.205,0.62l-1.054,2.53l-1.51,2.197l0.169,0.996l0.785,0.379l0.887,0.045l0.884,0.775l1.999-0.057l1.014,0.216l0.774,0.167
		l0.729-0.134l0.96-1.01l2.266-1.836l0.995-1.567l-0.02-1.311l0.688,0.605l0.924-0.102l-0.484,1.436l1.193,0.878l-1.195,0.431
		l-0.02-0.115l-1.15,1.386l-0.99,0.839l-1.587,0.257l-1.083,1.957l3.692,0.723l2.507,0.195l1.883-0.963l0.082-0.041l1.249-0.091
		l1.613-0.023l0.145,0.504l-0.168,0.315l-0.841,0.188l-1.273,0.284l-2.3,1.053l-3.688,0.786l-0.44,0.732l-1.685-0.719l-0.586,0.986
		l0.09,0.541l1.389,1.196l0.253,0.953l-0.44,0.557l-0.834-0.695l-0.634-0.985l-1.234-0.839l0.16-1.1l-1.388-0.614l-0.917,0.685
		l-1.109,0.103l-1.959-0.095l-1.469-1.647l-0.784-0.555l-0.844-0.546l-5.453,0.744l-0.881,0.887l-0.637,0.125l-0.348,0.341l0.2,0.61
		l0.12,0.334l-3.407,0.04l-1.286,0.716l-0.448,0.475l-0.6,1.779l1.285,3.068l0.434,0.424l0.552,0.541l0.744,0.727l0.413,0.755
		l2.513,1.72l0.867-0.042l0.816,1.479l0.442,0.401l2.487-0.047l1.539,1.896l1.929-0.397l1.18,0.97l0.411,0.338l0.961-0.023
		l0.799,1.047l1.563,0.034l1.534,0.552l0.736,0.443l0.292,0.174l0.552,1.637l1.688,0.424l1.311,1.15l1.32,0.653l0.917,0.101
		l1.696-0.648l3.029-1.828l0.739,0.103l-0.311,1l-1.493,1.142l-1.808,0.725l-0.997,1.305l0.104,2.046l-0.102,0.629l-0.671,0.066
		l-0.044,1.053l0.454,1.07l0.772,0.354l1.864,2.119l0.998,2.328l0.377,1.564l0.377,3.27l0.618,1.542l0.253,1.185l0.595,0.233
		l0.546,1.29l0.752,0.666l-0.635,0.012l-1.224-0.084l-0.863,0.965l-0.051,1.781l-0.461,1.725l-1.316,1.959l0.01,1.394l-0.308,0.569
		l-1.029,0.875l-0.834-0.025l-1.259,2.479l-2.234,1.574l-2.183,2.062l-0.677-0.017l3.38-3.26l0.421-0.553l1.573-1.304l1.322-3.418
		l1.726-3.039l-0.089-1.121l0.753-2.2l-0.565-2.575l-0.146-0.667l-0.398,0.783l0.096,1.731l0.259,0.834l-0.148,0.603l-0.94,0.831
		l0.167-1.971l-0.438-1.737l0.569-1.625l-0.233-0.489l-1.031-1.016l-0.761-0.297l-0.072,0.504l0.151-0.021l0.397,1.105l-0.123,0.192
		l-1.433-1.016l-0.231-0.837l0.393-1.192l-0.447-1.594l-0.098-0.086l-0.951-0.837l-0.446,0.121l-0.233,0.646l0.24,0.895l-0.599,1.25
		l0.274,1.297l-0.479,1.031l-1.102,1.207l0.166,1.75l-0.533,1.82l-0.812,0.12l-0.344,2.406l-0.2,0.213l-1.033,1.101l-0.055,2.452
		l-1.3,2.575l-0.324,0.279l-0.617,0.054l-0.301-0.208l1.09-1.79l0.371-2.963l1.354-2.438l0.065-1.289l0.956-1.127l0.179-2.093
		l0.551-1.155l-0.103-4.552l0.609-1.368l-0.138-0.271l-0.736,0.048l-0.637-0.866l-0.884-3.451l-0.492-0.538l-0.107,0.021
		l-1.096,0.213l-0.619-0.55l-0.365-0.325l-0.731-1.958l0.123-1.851l-0.269-0.309l-0.906,1.267l-0.71-0.536l-0.753,0.142l-0.091,0.51
		l-1.092-1.267l-1.013-0.287l-1.208,5.881l0.376,3.146l-0.841,2.54l0.146,1.313l0.092,0.834l-0.431,1.84l-0.551,1.129l-1.054,0.709
		l-0.57,2.298l-0.323,0.456l-0.502-0.014l0.403-2.388l1.37-4.511l0.157-3.633l0.524-1.852l-0.383-0.382l-0.327-0.327l-0.909,0.311
		l-0.019-0.114l-1.122,1.418l-1.008,3.731l-0.908,0.662l-0.299,0.598l-0.695,0.104l-0.47,0.333l-0.899,1.794l-1.257,0.426
		l-0.231,0.645l-0.894,1.271l-0.31-0.145l0.291-1.047l1.505-1.768l1.715-2.009l1.227-1.696l1.359-3.289l0.643-2.775l0.472-0.506
		l-0.357-0.82l-0.153-1.258l-0.395-0.495l-0.698-0.448l0.07,0.575l0.092,0.74l-0.129,1.241l-0.475,1.032l-1.793,2.394l0.237,1.188
		l0.038,2.032l-0.307,0.017l-0.349-0.588l-0.347-1.839l0.122-0.923l0.887-2.053l0.053-0.549l0.103-1.076l-0.868-1.616l-0.036-0.751
		l-0.431-0.693l-0.515,0.253l-0.266,2.426l-0.737,1.48l-1.129,1.19l-1.334,1.977l-0.823,0.62l-0.796,1.666l-0.407-0.199
		l-0.973,0.991l-0.795-0.11l2.219-2.93l0.529-1.421l0.83-0.94l0.696-0.282l0.893-1.125l0.267-2.225l0.087-4.699l-0.163-0.408
		l-0.491-1.211l-1.346-0.757l-0.693-1.293l-0.698,0.104l-0.34,0.373l-2.429,2.846l-3.355,3.468l-0.361-1.588l-0.033-0.187
		l-0.052-0.295l0.203-0.265l2.127-0.648l0.315-0.512l0.622-4.085l-0.852-1.124l-0.654-1.763l-2.681-1.921l-2.057-0.499l-0.779,0.005
		l-0.969-2.27l-0.932-1.021l-0.766,0.09l-0.669-0.596l-4.589-1.326l-0.714,0.2l-3.785-1.184l-0.889,0.162l-0.263,0.049l-0.359,1.282
		l-0.033,0.849l-1.179,0.071L95.265,77.3l-0.589,1.055l-0.979,0.624l-0.278,0.365l-0.447,0.625l-1.095,0.67l-0.165,0.64l0.233,0.749
		l0.458,0.453l1.036-0.312l0.786,0.372l0.76-0.122l0.913,0.379l1.206-0.075l1.003,0.191l1.557,1.007l1.095,1.897l1.916,1.197
		l1.917,1.202l0.093,0.685l-0.586,0.034l-0.917-0.934l-1.219-0.362l-2.131-2.112l-1.496-1.192l-0.79-0.05L95,83.349l-0.895,0.231
		l-0.625,0.882l-0.143,0.204l-2.266,0.246l-0.81-0.162l-0.921,0.088l-0.59,0.359l-0.155,0.842l2.19,3.234l2.278,0.685l0.888,0.762
		l1.003,1.561l0.063,0.035l1.424,0.777l0.258,1.241l0.373-0.001l0.112-0.921l0.443-0.129l0.753,0.375l2.292,1.824l1.744,1.56
		l0.71,2.744l1.656,1.604l0.365,0.113l-0.349,0.147l-0.812-0.368l-0.669,0.077l-0.413-0.401l-0.678-0.65l-0.922-0.467l0.549-0.407
		l-0.411-2.268l0.07-0.478l-0.449-0.075l-0.439,0.157l-0.485,0.922l-1.75-1.587l-4.773-0.754l-1.573-0.988l-2.124-1.333
		l-1.721-0.539l-2.039-0.078l-0.229-0.226l-0.375-0.347l-2.719-0.87l-0.564,0.15l-0.856,0.927l-1.773,3.501l0.724,1.865
		l-0.039,1.115l0.781,1.184l1.045,0.764l0.592,1.113l0.364,0.685l1.495,1.683l1.155,0.367l0.621,1.005l2.917,2.531l1.502,0.749
		l0.812,0.714l0.361,1.456l0.596,0.722l1.689,0.759l2.086,0.938l1.543-0.539l1.209,0.361l0.819,0.423l0.789,0.95l-0.113,1.42
		l2.576,0.578l2.049,0.054l2.162,0.823l0.995,0.604l1.328,0.346l1.525,0.955l-0.02-0.113l1.468-0.084l1.425,1.088l-2.032,0.025
		l-0.976-0.458l-0.88,0.08l-1.216-0.771l-1.332-0.022l-1.228-0.829l-0.633-0.047l-0.369-0.025l-0.747,0.319l-1.923-0.766
		l-1.402-0.045l-1.772-1.089l-1.927-2.108l-0.935,0.644l-1.211-0.037l-1.217,0.283l-1.503,0.912l-2.498-1.986l-0.536-1.225
		l-0.2-0.078l-4.7-1.808l-0.773-0.661l-2.432-0.738l-2.188,0.565l-1.259,0.558l-0.763,0.885l-0.513,1.226l-0.127,1.305l0.346,1.841
		l1.251,2.388l0.15,0.666l0.379,1.669l0.352,0.73l2.07,1.99l0.877,1.145l2.215,2.896l0.876,0.409l2.451-0.081l-0.026-0.141
		l3.09,1.738l3.823,1.217l0.514-0.053l2.113-0.506l2.079,0.034l3.652,0.116l1.834-0.584l1.772-0.037l1.417-0.029l1.471-0.553
		l3.425-2.053l1.004-0.244l0.459,0.425l0.72,0.626l-0.239,0.461l-0.952,0.178l-1.757,0.859l-0.485,0.57l0.071,0.571l1.135,1.046
		l0.265-0.008l-0.509,0.891l-3.54-0.551l-3.03,0.246l-0.971,0.942l-0.093,0.103l-0.061,0.067l-3.311,0.731l-1.043-0.502
		l-1.749-0.158l-1.288,0.705l-1.358,0.307l-1.022,0.807l0.155,1.199l1.194,1.178l0.973,0.455l0.806,1.064l0.581,0.04l0.32,0.018
		l0.983,1.038l0.772,0.196l1.099-0.029l1.204,0.74l1.828-0.409l0.995-0.799l1.372,0.307l0.84-0.453l1.467-0.377l0.787,0.107
		l-0.275,0.713l-1.387,0.131l-0.813,0.944l0.049,0.165l-0.885-0.031l-1.859,0.41l-0.929,0.82l-1.35,0.156l-0.927,0.471l0.555,1.222
		l1.169,1.591l-0.046,0.387l-0.605,0.252l-0.309,0.127l-0.903-0.263l-2.807-2.173l-0.445,0.248l0.249,2.229l-0.524-0.172
		l-0.478-1.644l-0.508-0.267l-1.1,1.722l-0.771,1.669l-0.775,0.797l-0.812,0.251l-0.404-0.372l-0.207-0.639l0.35-0.436l-0.227-1.771
		l1.167-0.832l0.231-0.416l-0.422-1.827l-1.591-3.034l-1.335,0.856l0.093-0.338L92,139.296l-0.142-1.289l-1.036-0.791l-3.71-1.814
		l-3.403-1.277l-2.844-1.572l-0.762,0.039l-0.843-0.559l-2.224-2.021l-1.647-0.397l-0.748-0.049l-0.962-0.685l-1.026-1.199
		l-0.867-0.672l-1.302-0.244l-0.292-0.228l-1.417-1.092l-1.38-0.118l-2.19-1.118l-0.95,0.192l-0.692,0.584l-0.071,0.598
		l-0.601,0.891l-0.125,0.635l0.925,1.77l-0.166,1.211l-0.168,1.241l0.993,2.136l1.005,1.23l0.455,2.727l2.037,2.31l1.788,1.333
		l0.557,0.154l1.258,0.354l0.832,0.503l0.184,0.319l1.62,0.456l0.326,0.302l2.865,2.663l0.383,1.074l0.521-0.495l2.29,1.601
		l1.185,1.964l-1.128-0.485l-1.018-1.201l-4.545-1.864l-1.225-1.288l-0.187-0.197l-0.728-0.285l-1.629-0.016l-1.003-0.136
		l-2.052-0.279l-2.632-0.778l-0.315,0.289l0.152,0.965l1.32,1.615l2.181,3.715l0.032,0.053l1.313,0.763l0.476,0.276l0.901,1.219
		l0.756,0.604l0.54,0.93l2.226,1.93l0.398,1.158l0.916,0.984l1.021-0.26l0.95,0.51l0.89-0.148l2.035,0.076l-0.277,0.359
		l-0.799,0.133l-2.106,1.492l-0.867,0.262l-2.046-0.997l-0.669-0.646l-1.157-1.116l-0.604-1.269l0.063-0.479l-0.62-0.537
		l-2.026-0.381l-2.379-0.445l-2.512-1.824l-1.433-0.775l-0.893-0.481l-0.127-0.826l-1.069-1.599l-0.867-0.522l-0.565-0.086
		l-0.377-0.056l-0.763-0.116l-1.186-0.905l-5.499-2.256l-0.437,0.28l-0.268,2.413l-1.118,0.255l-1.615,2.417l0.397,0.973
		l0.246,0.608l-0.362,0.97l0.409,1.477l-0.284,0.396l-0.752,1.044l-2.293,0.96l-1.651,0.322l-0.669,0.646l0.119,0.916l-0.675,1.083
		l-1.139,0.438l-1.789,1.312l-0.07,0.167l-0.325,0.781l0.229,0.543l0.566,0.207l1.967,0.714l1.57,0.072l2.118-0.262l3.658-0.821
		l1.265,0.069l1.448-0.254l1.005,0.146l1.157-0.173l0.762-0.805l0.906-0.031l2.838,0.283l1.115,0.888l0.179,0.089l5.007,2.49
		l2.937,2.007l0.253-0.276l-1.1-1.156l0.865-0.584l0.913-0.011l0.289,0.187l0.785,0.506l1.952,0.34l-0.25,0.45l-0.615,0.133
		l0.022,0.44l0.082,1.584l-0.508,0.379l-1.241-1.42l-0.025,0.354l1.134,1.675l0.02,2.886l0.462,0.359l1.013-0.115l1.691,0.267
		l1.554,0.845l1.284-0.128l0.351-0.144l1.148-0.461l1.975-0.332l4.379-0.646l0.031,0.17l0.951-1.295l0.468-1.944l0.4-0.475
		l1.38-0.783l0.713-2.451l0.591,0.748l0.427-0.021l1.412-0.076l1.411-0.786l0.904,0.289l1.571-0.578l3.218-0.903l0.021,0.113
		l1.193-1.33l2.582-0.388l0.422-0.708l-0.281-0.393l-0.735-0.203l-0.635-0.479l1.561,0.039l-0.699-1.197l0.251-0.127l1.239,1.141
		l0.199,1.133l0.549,0.699l0.746,0.345l0.282,0.131l1.146,0.106l1.961,0.59l3.721-0.125l2.045-2.072l0.63-1.992l-1.205-1.674
		l-0.115-1.917l1.476-3.228l0.853-0.563l0.874-0.952l0.247,0.545l-0.676,1.213l0.58,2.82l1.341,0.169l1.554-0.184l0.77,0.401
		l0.472,0.976l2.529-0.537l1.272-1.302l1.084-1.731l0.187-0.299l-0.01-0.787l0.6-0.963l-0.243-1.243l0.521-1.973l0.422-0.387
		l0.12-0.017l0.508,2.455l0.498,0.593l0.19,2.037l0.328,0.678l0.866-0.481l1.564-1.577l0.815-0.416l0.575-1.484l-0.312-2.773
		l-0.119,0.018l0.292-0.625l0.773,1.512l1.419,0.455l0.957,0.785l0.129,1.319l-2.882,3.024l-0.304,1.094l-0.493,0.511l-0.333,0.925
		l-0.687,0.454l0.087,0.336l1.316,0.032l0.565,0.607l-1.025,0.103l-0.324,0.253l1.058,0.684l0.86-0.684l1.312-0.17l2.003,2.344
		l-0.877,0.948l0.497,0.483l0.862-0.543l1.881,1.119l0.011-0.707l-0.625-2.012l-0.022-0.072l0.102-1.963l-0.784-2.531l-0.005-1.86
		l-1.116-7.047l0.641-0.037l1.126,1.257l0.859,0.395l1.526-1.856l0.531,0.007l0.1,0.481l-0.303,1.12l-0.816,1.17l-1.266,2.486
		l0.646,1.504l-0.002,1.832l0.227,0.551l0.078,0.188l0.832,0.982l0.492,2.427l0.62,0.81l1.526,0.034l0.524-0.339l0.314-0.861
		l-0.146-2.015l1.095-3.362l-0.477-2.302l-0.4-1.93l0.408-1.427l0.315,0.069l0.135,2.685l0.681,1.557l-0.146,3.948l0.259,1.591
		l0.542,1.083l0.846-0.038l0.072-0.077l1.17-1.269l0.947-3.744l-0.819-2.613l0.4-1.66l-0.727-2.219l0.21-0.582l1.128,1.112
		l0.308,0.769l0.005,0.521l0.014,2.037l0.986,1.947l0.489,2.082l0.062,0.73l0.269,3.204l-0.322,1.208l0.253,1.387l0.385,0.322
		l1.018,0.084l0.997-0.611l1.241-1.17l0.637-0.206l0.679-0.506l-0.719-1.262l0.005-1.105l-0.64-0.952l0.028-0.537l1.513,1.416
		l0.491,1.73l0.697,0.191l0.412-0.67l0.412-0.088l0.825-1.514l1.73-0.803l0.643-1.516l0.403-0.146l0.542,1.694l-0.568,0.256
		l-0.454,0.792l-2.238,1.427l0.3,0.741l0.678,0.629l3.116-0.101l2.704-1.373l0.979-1.127l1.068-2.33l0.866-1.414l0.735-1.194
		l0.894-0.33l1.233-1.479l0.692-0.027l-0.737,1.312l-1.396,1.211l-0.608,0.986l0.027,1.157l-0.606,1.672l-0.182,0.501l-0.658,0.85
		l-1.094,0.387l-0.154,0.574l-1.352,1.471l-1.866,0.121l-1.242,0.41l-3.028,0.463l-1.305,0.771l-1.56,2.027l0.034,0.604l0.112,1.088
		l0.629,0.52l2.977,0.792l0.028,0.75l0.579,0.208l1.662,1.125l-0.074,1.261l0.725-0.396l0.301,0.566l0.893-0.098l0.202,0.254
		l0.667,0.841l0.595-0.259l0.319,0.304l0.589-0.112l1.345-1.674l0.113,0.129l0.083-0.824l-0.118,0.016l1.333-2.164l1.34-1.525
		l0.3-1.203l0.54-0.629l0.15-2.955l-0.092-0.364l-0.298-1.177l0.517-0.393l0.704,0.424l0.575,2.155l0.845,1.942l0.792,0.617
		l-0.22,1.133l0.084,0.945l1.503,0.109l-0.031-1.593l0.318-1.091l-0.417-1.538l1.446,0.321l0.872-0.971l0.357,0.074l0.073,1.673
		l1.732,3.215l1.196,0.91l0.16,0.442l-2.264,2.461l0.275,0.3l0.712-0.785l1.255-0.116l1.385-0.654l1.276-0.008l0.721-0.006
		l1.552,0.454l0.408,0.326l0.965,0.765l0.848,0.204l0.897-0.268l2.539-1.882l1.123,0.227l0.764-0.568l0.665,0.5l0.018,0.021
		l-0.061,0.044l-1.146,0.814l-1.613,1.783l-1.776,1.081l-0.25,0.152l-0.58-0.241l-5.056,1.186l-0.022-0.145l-1.728-0.227
		l-0.738,1.322l-1.264,0.638l1.126,2.013l-0.679,0.365l-1.212-2.241l-0.492-0.049l0.196,0.496l0.146-0.021l-0.57,1.618l-0.68,0.501
		l-1.461,0.117l-0.018-0.115l-0.855,0.935l-0.655,0.062l-0.336,0.772l-2.595,1.98l-1.207,0.792l-1.836,2.009l-1.668,0.899
		l-2.991,1.33l-0.358,0.009l-1.142,0.032l-0.246,0.229h44.926v-17.207l-1.124,0.252l-0.21-0.203l0.331-0.652l1.003-0.46v-13.569
		l-0.008,0.008l-1.169,0.53l-0.25-0.258l-0.212-0.204l0.302-1.288l0.867-1.157l0.471-0.244v-7.389l-0.403-0.176l-1.818-0.344
		l-1.931,0.717l-0.793-0.158l-1.428,0.448l-3.778-1.214l-0.512,0.037l-0.978-1.207l0.17-0.662l-0.281-0.538l0.097-0.593l-0.526-1.7
		l-0.273-0.196l-1.024-0.732l0.348-0.947l0.599-0.08l0.68-1.396l-0.073-1.123l-0.552-1.232l-0.385-1.369l-0.18,0.021l-1.31-1.188
		l-1.008-0.391l-0.938-1.151l-1.962-0.202l0.237-0.467l2.259-0.068l0.338-0.91l0.439,0.166l0.868,0.955l1.229,0.566l0.598,0.734
		l0.332,1.608l0.731,0.601l0.323,1.351l1.039,1.015l1.213,1.186l1.129,2.083l0.14,0.084l0.095,0.06l1.01-1.031l0.463,0.664
		l1.804,0.635l1.208-0.301l1.253,0.648l1.552-0.2v-8.823l-1.084-0.297l0.217-0.979l0.578-0.452l0.29-0.079V104.9l-1.188,0.498
		l-1.619-0.313l-1.807,0.521l-0.835,0.568l-0.483,0.328l-1.813,0.467l-0.288-1.529l-0.351-0.164l-0.247-0.234l0.433-0.306
		l3.308-0.808l2.182-1.121l1.589,0.086l1.12-0.637v-5.181l-0.589,0.15l-0.418,0.518l-1.346,0.319l-1.533-1.167l-1.107-1.222
		l0.193-0.576l-0.854-2.009l0.886-0.084l1.225,0.741l0.505,0.051l0.225-0.58l-0.323-1.351l-0.572-1.012l-0.895-1.584l-0.554-0.596
		l-1.465-0.045l-1.324,0.49l-0.951-0.135l-0.597,0.368l-0.116,0.681l1.039,3.232l-0.507,2.415l-1.756,1.303l-0.353-0.062
		l-0.506-0.088l2.001-2.784l-0.206-1.367l-1.631-1.585l-0.523,0.039l-1.85,1.353l-0.827-0.798l-0.245-1.42l-0.309-0.192l-0.34-1.476
		l0.809-2.214l0.011-1.365l-0.638-0.322l-1.426-0.134l2.255-3.836l-0.061-0.398l-1.005-0.884l-0.959-0.366l-0.365-0.562l0.069-0.765
		l1.127-0.786l-0.095-0.423l-1.563,0.176l-2.617-0.817l-2.502-0.534l-0.24-0.06l-0.752-1.44l-1.372-0.396l-0.253-0.634l-0.486-0.516
		l-0.507-0.049l-3.442,2.147l-0.494-0.166l0.884-1.135l2.409-1.37l1.094-1.598l-0.155-0.793l-1.143-0.515l-0.669-1.683l-0.094-1.411
		l-0.88-0.229l-1.936,1.219l-1.808-0.113l-0.246-0.015l-0.626,0.431l-0.677,0.036l-0.637-0.668l-0.011-2.439l0.219-0.99
		l-0.312-0.189l-0.827,1.1l-0.504,1.752l-1.125,0.997l-0.594,0.982l-0.509-0.25l0.487-1.257l-0.216-1.948l-0.54-0.042l-1.529,1.401
		l-0.957,0.48l-1.198,0.136l-0.537-0.418l0.232-1.281l0.785-1.157l0.273-1.607l-1.296-1.041l-0.146-0.706l0.316-1.148l0.422-0.495
		l1.19-0.601l0.388-1.1l-1.73,0.56l-0.586-0.124l-0.646-0.695l-0.004-0.812l1.056-1.222l-0.931-0.511l-1.238-0.265l0.033-0.964
		l-0.269-0.689l-1.517-0.431l-1.787-1.118l-1.161-0.361l-0.061-0.228l-0.35-1.314l-1.508-2.464l0.173-1.245l-0.272-1.067
		l-0.645-1.044l0.141-0.484l-0.97-0.708l-0.524,0.073l-1.409-1.256l-0.531-0.159l-0.391,0.317l-0.123,0.772l1.413,1.664l0.035,0.252
		l0.247,1.831l-0.28,1.348l-0.859,0.702l-0.801-0.265l-0.577-1.577l-1.688-1.041l-0.441-1.131l-1.871-2.118l-1.63-0.669l-1.347,0.25
		l-0.319,0.541l0.324,2.106l-0.246,0.589l-0.904,0.448l-0.201,0.279l-1.561,2.157l-1.783,0.083l-1.271-0.603l-0.866-2.289
		l-4.141-0.765l-0.353-0.763l-0.961-0.994l-0.641-0.052L131.412,40.069L131.412,40.069z M174.307,180.998l0.354-0.851l-0.318-0.303
		l-0.371,0.139l-0.021,0.467L174.307,180.998z M447.701,63.681l-0.401,0.025l-0.034,0.376l0.459-0.085L447.701,63.681z
		 M407.221,77.34l-1.559,0.227l-0.587,1.514l0.508,0.511l1.515-0.023l0.604-1.282l-0.037-0.834L407.221,77.34L407.221,77.34z
		 M143.455,86.295l0.16,0.762l0.327-0.454L143.455,86.295z M142.576,91.806l0.302,0.886l0.407-0.176l-0.019-0.667L142.576,91.806
		L142.576,91.806z M134.549,92.495l-0.31,0.918l0.314,0.565l0.196-0.117l0.111-0.802L134.549,92.495z M375.261,95.361l0.181,1.283
		l1.039,1.906l0.117,1.606l-0.295,1.121l0.497,0.709l1.337,0.845l1.013-0.312l0.244-1.375l-3.25-5.565L375.261,95.361z
		 M313.388,95.375l-0.426,0.332l0.114,0.739l0.583,1.07l0.29,0.115l0.459,1.892l0.292,0.403l0.383-0.15l-0.178-2.96l-0.854-0.465
		l-0.344-0.86L313.388,95.375z M208.34,96.67l-0.412,0.142l0.153,0.414l0.296-0.095L208.34,96.67L208.34,96.67z M154.555,102.896
		l-0.028,0.585l0.432,0.374l0.154-0.197L154.555,102.896L154.555,102.896z M306.982,105.955l-0.317,0.41v1.185l0.238,0.121
		l0.709-0.246l0.408-0.476l-0.103-0.624L306.982,105.955z M209.784,128.267l-0.253,0.101l0.046,0.313l0.207-0.09V128.267
		L209.784,128.267z M395.214,141.284l-0.571,0.419l0.284,0.468l0.43,0.082l0.117-0.412L395.214,141.284z M622.969,145.666
		l-0.459,0.314l0.066,0.545l0.485,0.194l0.154-0.903L622.969,145.666z M149.494,158.003l-0.811,0.062l0.152,0.558l0.525-0.134
		L149.494,158.003z M132.442,158.899l-0.207,0.033l-0.038,0.5l0.359,0.148l0.25-0.329L132.442,158.899z M151.449,160.681
		l-0.544,0.777l0.764-0.547L151.449,160.681z M135.148,162.707l-0.609,0.355l0.473,0.103L135.148,162.707z M147.179,165.644
		l-0.854,0.156l-1.571,1.543l0.438,1.388l1.464-0.886l0.993-0.236l0.24-0.385l-0.026-0.547l-0.796-0.405L147.179,165.644
		L147.179,165.644z M143.593,168.416l-0.431,0.153l-0.115,0.598l0.501-0.277L143.593,168.416L143.593,168.416z M141.209,170.897
		l-0.503,0.076l0.383,0.67L141.209,170.897z M137.445,171.058l-0.498,0.104l-0.073,0.478l0.373,0.234l0.247-0.154L137.445,171.058
		L137.445,171.058z M170.136,171.581l-0.332,0.6l0.123,0.012l0.312-0.133L170.136,171.581z M139.211,171.839l-0.588,0.293
		l0.114,0.504l0.45-0.388L139.211,171.839L139.211,171.839z M139.96,172.336l-0.177,0.578l0.512-0.019l-0.011-0.436L139.96,172.336
		L139.96,172.336z M142.155,172.413l-0.45,0.213l0.274,0.57l0.194-0.117L142.155,172.413z M126.232,172.745l-0.11,0.6l0.28-0.131
		L126.232,172.745z M121.79,173.203l-0.217,0.325l0.521,0.209l0.022-0.411L121.79,173.203L121.79,173.203z M143.889,174.304
		l-0.384,0.438l0.256,0.455l0.211-0.379L143.889,174.304z M127.447,174.915l-0.869,0.602l0.025,0.142l1.026-0.015l0.294-0.598
		L127.447,174.915L127.447,174.915z M144.515,175.171l-0.081,0.623l0.118-0.018l0.316-0.105l0.014-0.468L144.515,175.171
		L144.515,175.171z M130.072,177.566l-1.441,0.251l0.042,0.255l0.684,0.099l0.93-0.229L130.072,177.566L130.072,177.566z
		 M134.863,177.792l-0.54,0.024l-0.432,1.229l0.979-0.847L134.863,177.792L134.863,177.792z M166.243,178.265l-0.484,0.188
		l0.522,0.448l0.218-0.353L166.243,178.265z M167.654,178.586l-0.485,0.187l0.269,0.367l0.224-0.117L167.654,178.586z
		 M165.024,179.168l-0.394,0.376l0.023,0.346l0.47-0.271L165.024,179.168z M145.968,179.462l-0.666,0.187l-0.495,0.858l0.169,0.295
		l1.125-0.517L145.968,179.462z M165.716,180.114l-0.562,0.08l-0.167,0.285l0.627,0.144L165.716,180.114L165.716,180.114z
		 M164.857,185.06l-0.23,0.267l0.432,0.257l0.215-0.177L164.857,185.06L164.857,185.06z M153.311,186.046l-0.745,0.252h0.73
		L153.311,186.046z M163.438,283.179l-0.097,0.099l0.174,0.381l0.34-0.08l-0.045-0.398L163.438,283.179L163.438,283.179z
		 M166.753,283.179l0.17,0.959l1.323,0.037l-0.316,1.006l-1.956,4.092l0.039,0.716l0.014,0.206l0.219-0.091l1.34-1.97l0.209,0.025
		l-0.098,0.916l0.622,0.053l-0.006,1.714l0.539,0.677l0.173-0.024l0.247,0.485l0.554,0.383l0.561,0.032l1.331-0.862l-0.072,0.504
		l-0.76,0.575l-0.534,0.922l0.426,0.11l1.584-1.495l0.641-0.603l0.584-0.203l-0.09,0.77l0.273,0.076l0.707,0.043l0.449-0.328
		l0.234-3.34l-0.277-0.891l0.889-1.088l0.833-0.497l-0.346-1.169l0.183-1.13l0.197-0.611L166.753,283.179L166.753,283.179z
		 M177.809,283.179l-0.324,0.549l0.526,1.982l1.273-0.881l1.613,0.03l0.978-1.683h-4.066V283.179z M183.741,283.179l-0.397,0.604
		l0.103,0.507l0.544-0.279l0.429-0.832H183.741z M191.937,283.179l0.074,0.073l0.361,0.065l0.11,0.563l-0.406,0.231l-0.287-0.163
		l-0.791,0.198l-0.953-0.329l-1.133,0.614l-2.035,0.731l-0.933-0.391l-1.292,1.576l-1.14,0.396l-0.486,0.679l-0.319,0.017
		l-0.422-0.49l-0.258,0.037l-1.289,2.968l-0.306,1.293l0.222,0.724l-0.619,0.757l-0.042,2.5l-0.902,0.8l0.07-2.101l-0.599,0.288
		l-0.189,2.088l0.302,1.67l-0.557,0.369l-0.856,2.302l0.789,1.204l0.337,0.518l1.625,1.36l0.371-0.055l-0.28-1.32l0.426-0.471
		l0.741-0.104l0.542,0.124l0.768-0.722l0.82,0.23l-0.017-0.113l0.623-0.118l1.033,1.303l1.542-0.801l0.338,0.473l0.171,0.238
		l-0.993,0.281l-0.184,0.458l0.143,0.776l-0.713,0.331l-0.864,0.207l-0.652-0.688l-0.394,0.085l-0.312,0.858l-0.427,0.061
		l-0.505-0.478l-1.277,0.416l-0.843-0.197l-0.046,0.877l-0.932,0.977l-0.434,0.714l-0.233-0.5l-0.367-0.121l-1.207,2.468
		l-0.734,0.137l-0.346,0.807l-0.589,0.145l-0.526,1.149l-0.839,0.414l0.327,0.646l0.874-0.562l0.797,0.086l0.827,0.489l0.924,0.968
		l1.92,0.04l0.896-0.099l2.245-0.24l0.503,0.273l0.668-0.589l1.018-0.175l1.936-1.872l1.803-0.983l0.732-0.974l0.841-0.613
		l1.033-2.118l1.587-0.585l0.07-0.024l0.678-1.173l1.919-1.628l0.159-0.311l0.929-0.219l1.444-1.304l2.862-0.542l0.816,0.845
		l2.164,0.715l0.682-0.123l0.955,0.189l1.676-0.489l0.303,0.006l2.03,0.053l0.353,0.258v-18.336h-17.85V283.179z M306.664,283.179
		v129.4l1.112,0.438l0.639,0.484l0.917-0.152l0.529,0.784l0.735-0.143l0.232-0.044l0.646,0.571l0.829,0.115l2.219,1.266l2.521,1.148
		l1.084,0.731l2.141,0.885l1.5,0.98l1.052-0.38l2.67,1.052l0.519,0.396l2.136,1.833l0.765,0.069l2.287,1.341l0.555-0.083
		l0.261,0.699l0.736,0.393l1.687,0.299l1.831,0.983l0.765,0.07l0.696-0.384l-0.086-0.343l-0.437-0.159l-0.254-0.643l-0.602-0.753
		l0.03-0.583l0.85,0.064l1.155,0.532l0.781,0.383l1.148,0.903l-0.339,0.292l-1.417,0.166l-0.028,0.322l3.381,0.431l0.561-1.27
		l3.935-0.312l0.795,0.419l1.24,0.183l0.324,0.05l2.476,1.046l4.286,0.883l2.267,0.258l2.132-0.019l1.099-0.271l0.704-0.67
		l4.143-1.495l2.283-0.575l1.261-0.717l2.032-0.232l1.651-0.779l3.195-0.898l1.666-0.467l4.481-1.618l2.72-0.079l1.6-0.42
		l0.06-0.323l-1.715-0.005l-0.626-0.439l-0.579-1.678l-0.217-0.631l-1.018-0.408l0.742,1.937l-0.42,0.383l-1.014-1.45l-0.479-1.088
		l-0.56-0.329l-1.092-1.356l-0.599-0.44l-0.633-0.181l-0.306-0.312l-1.939,0.166l-0.595-0.164l0.628-0.603l1.544-0.421l0.683,0.089
		l0.928,0.703l0.782,1.006l1.192-0.244l0.718,0.547l-0.081-1.41l-0.358-0.636l-0.573-0.474l0.104-1.194l-0.757-0.66l-2.75-0.058
		l-1.36-1.683l-0.385-0.227l-1.266,0.224l-0.406-0.266l1.099-0.433l1.266-0.049l1.401,1.677l1.194-0.592l0.766,0.051l1.019,0.437
		l0.159-0.505l-0.453-1.09l-0.169-1.084l0.276-0.806l0.336,0.319l0.296,1.624l0.448,1.063l0.175,1.863l0.423,0.748l0.811,0.653
		l0.176-1.401l-0.68-1.477l-0.517-0.479l0.105-0.269l0.129-0.328l0.396,0.372l0.648,1.075l0.646,3.272l-0.17,1.05l-0.059,0.355
		l0.051,1.01l0.146,0.076l0.94-3.492l-0.899-1.431l-0.309-1.42l-0.574-1.227l-2.576-3.723l-1.451-0.516l-0.625-1.451l-0.609-0.587
		l1.043,0.105l1.18,1.243l1.714,0.957l2.73,3.912l0.668,2.086l0.5,2.477l-0.706,2.167l-0.147,0.217l-0.333,0.488l-0.159,0.854
		l0.092,0.831l0.378,0.894l0.628,0.847l1.918,0.827l2.081-1.846l0.519,0.188l1.109-0.955l3.888-1.972l0.584-0.295l2.828-2.101
		l1.406-1.18l1.698-1.811l1.923-2.632l1.294-3.672l0.58-1.646l0.895-1.715l1.273-1.542l-0.304-0.296l-1.366,1.838l-1.617,1.047
		l-2.699-0.978l-1.224-0.918l-0.026-0.347l1.293,0.682l1.663,0.336l1.215,0.021l0.805-0.232l2.365-2.463l0.875-2.002l1.463-2.412
		l0.261-0.195l-0.087-0.259l1.021-0.366l0.568-1.17l0.156-0.588l-0.154-0.597l0.89-0.644l0.311,0.341l3.042-2.233l2.514-1.394
		l1.162-0.4l0.062-1.001l0.028-0.469l0.656-0.553l0.581-0.559l-0.562,1.743l0.104,0.282l0.587-0.128l2.236-1.313l2.843-0.747
		l-0.186-0.681l0.3-0.166l0.269,0.618l1.271-0.411l0.155-0.295l2-0.657l0.651-0.017l1.107-0.422l0.321,0.122l2.32-0.531l0.604-0.3
		l0.899-1.478l0.347-0.138l-0.004-0.193l0.13,0.187l-0.105,0.909l-0.016,0.745l0.627-0.418l1.6-0.28l1.806-0.054l0.632-0.019
		l2.456,0.314l0.233,0.03l3.022-0.223l3.569,0.232l0.979-0.114l1.259,0.045l1.658-0.111l1.458-0.347l1.264,0.125l1.109-0.27
		l0.829-0.889l0.51-1.012l-0.126-1.205l0.236-1.315l-0.271-3.39l-0.298-2.062l0.375-0.397l0.018-1.155l0.422-0.572l0.977,1.125
		l0.593,2.882l0.575,0.601l0.145,1.03l0.521,1.181l0.461,0.61l0.36-0.049l0.464-0.63l-0.011,1.986l0.608,2.245l0.507-1.589
		l0.086-1.015l-0.159-1.811l0.487-1.473l0.553,0.774l-0.037,2.369l0.27,0.736l0.351-0.31l0.291-0.912l0.404-2.969l0.646-0.151
		l0.141-0.558l0.312,0.011l1.117-0.872l2.141,0.139l0.265-0.36l-0.627-0.022l-0.931-0.379l0.015-0.289l1.402,0.208l0.786,0.303
		l0.297-0.112l1.161-0.258l1.524-0.749l2.022-1.583l1.215-0.702l0.924-0.856l0.342-0.538l1.26-0.963l0.073-0.129l0.658-1.151
		l0.14-0.612l1.293-0.936l0.602,0.083l-0.483,1.123l-2.407,2.494l-1.369,1.026l-2.903,3.218l-0.469,0.683l-0.271,0.398l-0.406,0.368
		l-0.645,0.179l-0.503,1.239l0.222,0.395l0.597,0.023l0.678-0.645l1.601-2.542l3.136-3.69l0.953-0.282l1.042-1.538l1.712-2.532
		l0.549-0.402l1.229-1.625l1.091-1.009l-0.174-0.625l0.232-0.475l0.428-0.021l1.203-1.043l0.831-1.081l0.381-0.942l-0.211-0.249
		l-1.764,1.88l-0.045-0.315l0.359-0.797l0.677-0.785l-0.369,0.04l0.077-0.141l-0.43-1.491h0.634h2.281l-1.006,0.81l0.385,0.24
		l2.284-1.05l0.508-1.051l0.14-0.354l2.22-1.062l2.646-2.205l0.165-0.639l0.38-0.451l0.442,0.352l1.52-1.541l2.171-2.779
		l1.203-1.009l0.835-1.045l4.087-3.442l0.293-0.57l0.192-0.614l4.517-2.974l0.095-0.006l0.707,0.016l1.888-0.632l0.482-0.05
		l1.442-0.956l2.878-0.871l1.421-0.177l0.501-0.338l0.532-0.942l-0.449-0.469l-0.947,1.245l-1.468,0.443l-2.427,0.732l-0.021-0.486
		l0.324-0.446l1.698-0.391l0.96-0.932l0.395-0.82l0.925-0.415l0.562-0.972l1.003-0.646l0.361-0.906l0.022-0.805l0.498-0.289
		l0.123,0.028l0.185,0.312l-0.399,0.736l0.108,0.511l0.826,0.053l1.93-0.539l0.792-0.422l0.916-0.483l0.917-0.007l0.665-0.545
		l1.288-0.052l0.308-0.931l0.479-0.136l0.531,0.409l1.605,0.053l0.16-0.322l-0.446-0.414l0.646-0.34l0.849,0.958l0.13-0.882
		l-0.809-0.699l0.2-0.168l0.977,0.768l0.581-0.568l0.916-0.034l0.273-0.299l-0.411-0.243l-2.584-0.102l-0.774-0.773l-0.347-0.762
		l0.369-0.818l1.629,1.258l0.279,0.565l0.604,0.031l1.747-0.813l0.171-0.753l0.426-0.132l0.562,0.438l0.494-0.62l0.383,0.271
		l0.312-0.846l-0.68-0.576l-0.583-0.237l-0.042-0.343l1.456-0.227l0.283-0.814v-2.328l-0.619-0.408l-0.326,0.474l-0.232-0.05
		l-0.357-1.91l-0.296-0.221l0.174-0.725l0.145-0.005l0.819,1.923l0.752,0.145l-0.116-2.541l-0.037-0.813l-1.351-1.684l-0.509-1.812
		l0.136-0.98l0.858,1.082l1.744,2.157l0.097-1.04l0.393,0.426l0.104,0.475l0.759,1.036l0.048,1.242l0.685,0.683l0.123,1.03
		l-0.269,1.302l-1.421,1.202l0.771-0.145l0.301,0.393l-0.114,0.78l2.479,1.145l0.796-1.033l-0.528-1.159l-0.895-0.857l-0.174-0.913
		l0.487,0.323l-0.164-0.437l-0.066-0.175l0.155-0.599l-0.163-0.87l0.308-0.304l0.271,0.307l0.274,1.254l0.345-0.328l0.296,2.174
		l0.447,0.871l0.294,0.566l1.018,0.368l-0.323,1.445l0.854-1.007l0.315,0.048l0.211-0.575l0.131-0.355l0.448-0.302l-0.089,0.749
		l0.638,0.15l-0.106,0.263l-0.936,0.348l0.008,0.172l0.662,0.064l-0.41,0.588l-0.139,1.813l-0.535,0.248l0.219,1.342l0.385,0.391
		l0.398-0.129l-0.04-0.314l0.46-0.791l0.437,0.188l0.438-0.617l-0.022-0.662l-1.093-0.939l0.72-0.77l0.174,0.2l0.334,0.386
		l0.36-0.357l0.643,0.322l0.196,0.741l0.732-0.399l0.321,0.191l0.694-0.684l0.216-1.3l1.956,0.136l1.932,1.201l1.894,2.757
		l-0.496,0.59l-0.688-0.063l-0.081,0.203l0.45,0.438l1.17,0.057l0.453-0.281l0.476-0.293l0.575-0.909l0.855-0.082l-0.705,1.314
		l0.25,0.709l-0.192,0.207l-0.724-0.235l-0.158,0.464l-0.377-0.154l-0.871-0.353l-0.6,0.075l-0.743-0.562l-3.489-0.104l-1.966,0.447
		l-2.015,0.461l-1.039,0.581l0.004,0.144l1.46-0.021l1.358-0.505l1.197-0.184l3.439,0.116l0.897,0.26l1.202-0.009l0.841,0.318
		l0.323-0.021l1.441-0.081l0.435-0.023l0.261-0.279l0.185-0.195l-0.603-0.985l0.952-1.638l0.751,0.179l0.27-1.529l0.979-0.835
		l1.08-0.29l-0.72-1.099l0.214-0.553l-0.248-0.566l-0.925,0.773l-0.351-0.248l-0.479,0.273l-0.519-0.043l-0.449-0.589l-0.602,0.018
		l0.087-0.334l0.276-0.297l0.248-1.141l0.559-0.302l0.461-0.965l1.047-0.487l1.141-3.311l0.289,0.107l-0.339,1.571l-0.147,0.906
		l-0.427,0.72l-0.627,1.068l-0.274,1.359l0.253,0.768l0.295-0.67l0.13-1.497l0.931-1.539l1.451-1.602l1.822-1.491l1.612-1.029
		l2.154-1.027l-0.213-0.482l-0.462-0.186l-0.209-0.083l0.615-0.757l0.396-0.161l0.613-0.766l0.543-0.156l0.841-0.854l0.521,0.07
		l0.034-0.833l-0.114,0.004l0.491-1.02l0.026-1.177l0.785-0.854l0.847,0.467l1.068,0.032l1.058-0.372l0.722-0.019l1.057,0.689
		l0.551,0.16l0.449,0.679l1.248,0.344l0.849,0.583l-3.352,0.234l-0.358,0.025l-2.764,1.248l-2.231,0.518l-2.241,1.236l-0.491,1.021
		l1.466-1.16l2.708-1.047l1.656-0.383l4.502-1.037l1.787,0.074l0.577-1.162l0.242-1.902l1.557-1.385l-0.041-0.46l-0.591-0.589
		l0.024-1.465l0.517-1.263l1.59-3.869l0.038-0.806l-0.686-0.932l0.777-2.659l0.726-0.978h-0.521l-0.389,0.521l-1,1.831l-0.073-0.716
		l0.998-1.638h-0.526l-0.186,0.251l-0.612-0.186l-0.809,0.16l-0.273-0.227H306.664V283.179z M160.732,283.842l-0.515,0.077
		l-0.982,1.047l0.032,1.737l0.2-0.03l0.588-1.134l0.969-0.551l0.107-0.452L160.732,283.842L160.732,283.842z M165.904,284.348
		l0.034,0.431l0.323,0.389l0.019,0.52l0.302-0.132l0.144-0.603L165.904,284.348L165.904,284.348z M164.431,285.642l-0.276,0.302
		l0.221,1.07l0.343-0.051l0.083-0.798L164.431,285.642L164.431,285.642z M163.806,287.127l-0.529,0.748l0.601-0.09l0.141-0.428
		L163.806,287.127z M166.702,290.617l-0.313,0.047l-0.201,0.986l0.339,0.124L166.702,290.617L166.702,290.617z M167.682,291.692
		l-0.204,0.203l1.114,1.199l0.284,0.004l-0.32-0.841L167.682,291.692L167.682,291.692z M166.961,295.049l-0.568,0.695l0.586,0.203
		l0.375-0.608L166.961,295.049z M165.469,295.416l-0.832,0.095l0.493,0.565l0.44-0.183L165.469,295.416z M162.354,296.606
		l-0.381,0.173l0.084,0.365l0.826,0.254l0.051-0.24L162.354,296.606z M202.199,303.173l0.001,0.842l-0.437,0.205l-0.478-0.311
		l-0.527,0.11l-0.291,0.061l-0.682,0.937l-1.341,0.593l-1.263,1.133l0.363,1.137l1.822-0.052l0.405,0.38l-0.253,0.498l-0.708,0.128
		l-0.789-0.238l-0.836,0.233l-0.149-0.093l-0.391-0.236l-1.127,0.243l-1.011-0.786l-0.426,0.061l-4.217,5.846l-0.933,0.566
		l-2.442,3.392l-0.255,0.215l0.033,1.444l-0.392,0.896l-0.517,0.05l-0.084,0.01l-0.246,0.295l0.629,0.549l-0.859,0.267l-0.316,0.423
		l0.617,0.464l0.266-0.357l0.446,0.083l0.955-0.194l0.057-0.618l1.412-0.232l1.183,0.383l0.341,1.574l-0.229,1.25l-0.68,0.506
		l0.333,0.299l1.318-0.478l1.359,0.692l0.508,0.259l2.57-0.826l0.834,0.605l-0.688,0.648l-0.792-0.092l-0.021-0.143l-0.7,0.766
		l-0.59-0.293l-0.626,0.263l-0.186,0.314l0.561,0.906l-0.83,1.076l0.304,0.305l0.352-0.369l0.594,0.118l1.803-0.922l0.773,0.302
		l1.026,0.401l-0.017,0.294l-1.119,0.242l0.019,0.144l-0.618-0.087l-0.695,0.39l-1.014,0.172l-0.126,0.335l0.331,0.506l-0.731,0.539
		l-1.264,0.236l-0.197-0.175l0.314-0.625l-0.096-0.682l-1.152-0.995l-0.989,0.344l-0.239,0.963l1.624,1.07l-0.103,0.282
		l-0.042,0.116l-0.448,0.093l-0.699,0.159l0.033,0.227l0.504,0.306l-0.039,0.525l-0.586,0.145l-0.129,0.713l1.586,0.816l0.024,0.171
		l-0.707,0.101l-1.213-0.231l-0.383,0.549l-0.278-0.339l0.079-1.257l-0.521-1.229l-0.545,0.019l-0.913-0.939l-0.666,0.184
		l-0.185,0.925l-1.126,0.19l-0.034-0.105l-0.173-0.53l-0.882,0.476l-0.493-0.623l0.282-0.854l-0.289-0.189l-0.668,0.968
		l-0.644,0.325l-0.775-0.178l-0.887-0.944l-0.974-0.35l-0.297,0.536l-0.617,0.321l-0.022,0.642l0.916-0.25l1.098,0.421l1.193,0.868
		l0.819,1.343l0.239,0.39l0.629,0.576l2.053,0.66l0.024,0.169l-0.411,0.35l-1.254-0.105l-0.195,0.434l0.25,0.341l1.289,0.364
		l0.058,0.397l-0.431,0.207l-0.818-0.086l0.106,0.739l-1.205,0.232l-0.298-0.479l-1.591,0.349l-0.914-0.359l-0.147-0.414l0.71-0.246
		l0.743-0.257l0.144-0.397l0.815,0.664l0.08-0.647l-0.454-0.949l-0.757,0.342l-0.47,0.533l-0.652-0.137l0.662-0.793l-0.158-0.296
		l-1.94,1.123l0.042,0.551l-0.34,0.365l-0.008,0.679l-0.407,0.173l-0.125,0.388l0.328,0.021l0.548-0.286l0.707-0.141l0.331,0.501
		l-0.482,0.245l1.07,1.236l1.302,0.445l0.797,0.755l0.17-0.022l0.742,0.963l-1.312,0.075l-0.694,0.36l-0.758-0.671l-1.249,2.096
		l-0.92,0.193l-0.512,0.628l-0.43-0.778l-0.164,0.023l-1.327,0.196l-0.435-0.227l-0.713,0.629l-1.397,0.468l-0.313,1.005
		l-1.553,1.536l-1.009,0.182l-0.222,0.438l-1.416-0.455l-1.661-1.521l-1.418,0.128l-1.199,0.934l-1.99,1.554l-0.767,0.057
		l-0.397-0.346l-1.036,0.36l-0.979,1.18l-0.884,0.535l-0.142,0.635l0.06,1.242l-0.109,0.354l-0.068,0.226l-1.339,0.312l-2.218-0.202
		l-2.868-1.123l-0.435,0.179l-1.075,0.944l-0.13-0.504l0.106-0.657l-0.313-1.381l0.871-0.558l-0.875-3.64l-0.865-1.142l-0.577-0.201
		l-0.289-0.563l-0.706-0.472l-0.908-1.601l-0.773-0.344l-0.763-0.84l0.113-0.017l-0.413-0.807l-2.289-0.831l-0.646,1.104
		l-0.195,0.336l-0.299,1.588l0.156,0.819l-0.317,0.92l0.293,1.146l-0.251,0.417l0.282,1.989l-0.34,2.136l-2.743,2.33l-0.076,0.271
		l0.248,0.314l-0.486,0.422l0.4,0.756l0.709-0.078l0.226,0.753l0.871,1.035l0.594,0.115l0.44,0.459l0.516-0.021l1.3,0.418
		l0.865-0.257l0.515-0.152l0.29,0.802l-0.208,0.353l-2.845,0.628l0.008,0.843l-0.417,0.703l-0.091,1.149l-1.062,2.374l-0.707,0.077
		l-0.447,1.467l0.162,1.111l0.267,0.457l0.111-0.223l0.598,0.552l0.339,0.562l0.418,0.691l0.455,0.367l-0.346,0.985l-0.079,1.032
		l-0.536,0.458l-0.497,0.92l-0.573,0.407l-0.146,0.372l0.167,0.557l0.913,1.348l0.488,0.016l0.267,1.038l0.689-0.273l0.719-0.287
		l2.014-1.729l1.093-0.367l0.275,0.055l0.728,0.147l0.796,0.55l1.949,0.411l1.556,0.062l1.87-2.169l1.589,0.494l0.601-0.613
		l1.746-0.837l0.312,0.188l-0.306,0.479l0.154,0.474l0.95,0.443l0.309-0.453l-0.111-0.595l0.111-0.832l0.594-0.057l2.273-1.99
		l0.53-0.106l1.557,0.885l0.232,0.433l0.698,0.48l1.558-0.136l0.84,0.695l3.317,0.777l0.851,0.166l0.356,0.07l0.579-0.576
		l0.937-0.279l0.967-0.049l1.598,0.59l1.891-0.004l0.185-0.033l2.47-0.454l0.529-0.336l1.02,0.353l1.098-0.354l1.078,0.142
		l1.25-0.085l0.769-0.594l3.749-1.189l0.517-0.421l0.49-1.286l0.402-0.433l1.257,0.41l2.041,0.044l1.891,2.855l1.474,1.774
		l0.155,0.187l1.556,0.751l3.354-1.058l0.798-0.688l1.623-0.069l5.077-1.48l0.583,0.021v-64.462l-1.11,0.118l-1.269-0.784
		l-0.196-1.22l-1.179,0.51l-0.016-0.114l-0.62,0.144l-0.475,0.56l-1.106-0.022l-0.596-0.729l0.285-0.88l-0.355-0.674
		L202.199,303.173L202.199,303.173z M209.784,303.444l-1.377,0.501l0.271,0.485l1.106,0.164L209.784,303.444L209.784,303.444z
		 M541.772,305.365l-0.194,0.181l0.497,0.827l0.342,0.032l-0.295-0.938L541.772,305.365z M543.002,306.7l-0.186,0.379l0.617,1.155
		l-0.003,2.242l0.188,1.197l0.285,0.063l0.267,0.061l0.185,0.31l0.475-0.333l-0.478-2.107l0.219-0.268l0.695,1.756l0.248-0.354
		l-0.117-0.827l-0.734-1.239L543.002,306.7L543.002,306.7z M175.089,308.393l-0.097,0.333l0.585,0.029l0.052-0.238L175.089,308.393
		L175.089,308.393z M548.979,315.388l-0.569,0.938l0.74-0.197L548.979,315.388z M536.346,318.066l-0.078,0.294l0.544,0.696
		l0.396-0.102L536.346,318.066z M542.378,318.441l-0.172,0.009l-0.24,0.497l0.725,0.146L542.378,318.441z M540.773,319.193
		l-0.666,0.569l0.549,0.152l0.625-0.139l0.162-0.266L540.773,319.193z M542.647,319.495l-0.654,0.11l-0.464,0.649l-0.97,0.096
		l-1.039,0.584l-0.184-0.251l-0.907,0.206l-0.992,0.83l-0.902,0.536l-0.973,0.039l-2.147,0.715l-3.238,0.65l-2.446,1.077
		l-2.127,0.462l-1.118,1.85l0.806-0.428l0.184-0.17l0.975-0.913l2.317-0.701l1.851-0.966l5.999-1.043l0.801-0.75l2.664-0.613
		l1.086-0.248l4.501,0.121l5.145,0.479l1.942,0.65l0.072-0.376l-1.728-1.29l-0.366,0.155l-0.522,0.223l-6.284-0.468l-0.447-0.5
		l-1.09-0.017L542.647,319.495L542.647,319.495z M552.531,320.205l-0.737,0.197l-0.071,0.436l0.769-0.143L552.531,320.205z
		 M524.79,325.608l-0.668,0.432l0.211,0.249l0.358-0.331L524.79,325.608z M191.104,327.454l0.073,0.921l0.419-0.292l-0.061-0.428
		L191.104,327.454z M183.812,328.938l-0.069,0.53l1.063,0.774l0.038-0.353L183.812,328.938z M187.628,328.996l-0.798,0.261
		l0.408,0.637l0.089,0.828l0.864,0.806l0.538-0.078l-0.07-0.687l-0.756-1.052L187.628,328.996z M459.869,368.429l1.214,3.275
		l-0.251-1.891L459.869,368.429z M459.734,369.044l-0.24,0.274l-0.019,0.664l0.021,0.376l0.315,0.5l0.175-1.397L459.734,369.044
		L459.734,369.044z M461.501,371.075l0.123,1.667l0.347,0.065L461.501,371.075z M460.535,371.104l-0.197,0.011l0.362,1.855
		l0.391,0.38L460.535,371.104L460.535,371.104z M474.981,372.205l-2.255,1.915l-1.798,1.95l-0.676,0.47l-0.229,0.158l-0.618,0.095
		l-0.133,0.181l4.098-0.348l0.281-1.633l0.447-0.142l1.052-2.626L474.981,372.205L474.981,372.205z M459.894,374.289l-0.077,0.609
		l0.168,0.943l0.291,0.099l-0.086-1.496L459.894,374.289z M468.575,377.015l-2.975,0.42l0.05,0.23l0.331,0.01l1.146-0.118
		L468.575,377.015L468.575,377.015z M461.573,377.278l-1.245,0.103l0.244,0.305l1.628,0.163l-0.104-0.342L461.573,377.278z
		 M382.683,413.392l0.324,1.623l0.232,0.096l0.089-0.296l-0.19-1.026L382.683,413.392z"/>
	<path id="path6" inkscape:connector-curvature="0" fill="#FFFFFF" stroke="#003897" d="M284.079,84.527l-0.766,0.08l-0.684,0.738
		l-0.186-0.109v125.282h353.965l1.061-0.969l-0.151-0.401l-1.634-0.731l-1.423,0.156l-1.337,0.652l-0.567,0.275l-0.578-0.646
		l1.177-0.73l0.552-0.864l2.934-0.088l1.119-0.699l0.466-0.895l0.397-1.843l0.407-0.864l-0.25-1.378l-0.718-0.481l-1.246,0.011
		l-0.767,0.61l-0.205,0.01l-0.744,0.029l-1.218-0.22l-1.894,0.738l-2.257-0.147l-2.205-0.837l-1.667-0.354l-2.521,0.175
		l-1.686,0.512l-1.274,0.044l-0.389,0.142l-1.119,0.397l-0.334-0.655l2.131-0.488l0.707-0.327l1.304-0.133l1.117-0.847l2.704,0.281
		l2.94-0.033l1.722,0.239l1.167-0.547l0.461-0.215l1.424-0.188l1.692,0.188l2.011-1.055l0.912-0.897l0.759-1.673l1.089-1.273
		l0.405-1.182l1.15-1.13l-0.392-0.63l-1.435-1.098l-0.125-0.096l-1.705-0.76l-2.366-1.417l-0.984-0.222l-1.271,1.133l-1.369,0.16
		l-1.007,0.383l-2.755-1.12l-2.619,0.116l-0.651,0.39l-1.121,0.668l-2.167,0.545l-0.856,0.5l-1.101,0.072l-1.607,2.174l-0.423-0.509
		l0.158-1.352l0.58-1.015l0.767-0.558l1.904-0.053l2.067-1.205l1.59-1.545l0.564-0.121l3.549,0.131l1.106,0.246l0.313-0.043
		l0.371-0.052l0.897-0.614H306.664V120.97l-0.541-3.193l-1.812-2.186l-0.279-1.101l-0.367-0.512l-1.343,0.31l-1.598-0.818
		l-1.565-1.573l-0.885,0.032l-1.054,0.732l-0.495-1.351l-0.182-1.543l-0.526-1.36l-0.826-0.752l-1.061-0.643l-1.443-2.566
		l0.113-0.359l1.12-0.666l-0.633-0.658l-0.271-0.722l-0.183,0.019l-0.564-0.87l-0.069-1.349l-0.329-0.689l-2.165-1.596l-0.2-1.395
		l-0.145-0.342l-0.283-0.654l-0.699-0.418l0.121-0.793l-0.283-1.33l-1.186-1.872l0.079-1.137l-1.196-0.421l-0.752-0.618l-0.277-0.23
		l-0.759-2.146L284.079,84.527L284.079,84.527z M213.283,96.186l-0.954,0.035l-1.257,0.529l-1.288,0.328v5.181l0.134-0.076
		l1.421-0.209l1.083-0.631l4.548-0.168l0.067-0.047l0.241-0.167l-0.065-0.89l-0.53-0.89l-2.681-1.868l0.122-0.015l-0.175-0.789
		L213.283,96.186L213.283,96.186z M212.522,104.173l-1.134,0.059l-1.604,0.67v22.927l3.544-0.962l1.123-0.725l1.479-1.232
		l2.472-3.763l0.284-2.327l0.73-1.339l-1.452-0.919l-0.555-0.655l-1.425,0.178l0.562-1.054l1.497-0.215l0.19-0.026l0.966-0.991
		l0.201-1.619l-0.363-0.826l-0.229-2.695l-1.092-1.168l-1.158-0.549l-1.765,0.164l-1.963,0.713l-0.017-0.114l-2.609,0.581
		l-0.357-0.841l2.532-0.612l1.23-0.883l0.503-0.789l-0.308-0.424L212.522,104.173L212.522,104.173z M306.664,106.365l-0.458,0.595
		l0.173,0.443l0.285,0.146V106.365z M209.965,128.197l-0.181,0.071v0.324l0.081-0.035L209.965,128.197L209.965,128.197z
		 M211.861,128.591l-0.963,0.965l-0.741,0.182l-0.373-0.102v8.822l0.639-0.083l0.759-1.315l1.032-0.685l1.521-2.399l0.57-0.072
		l0.888-0.534l0.818-1.019l-0.364-0.619l-2.662-1.285L211.861,128.591z M213.761,128.812l-0.547,0.242l0.444,0.32L213.761,128.812z
		 M212.888,138.522l-0.627,0.109l-0.174,0.486l0.725-0.27L212.888,138.522z M209.784,144.457v7.388l0.124-0.063l2.196-2.517
		l0.751-1.779l-0.122-0.592l-0.179-0.875l-1.126-0.842L209.784,144.457z M214.071,148.548l-0.587,0.568l0.333-0.016L214.071,148.548
		z M216.21,149.462l-1.656,0.329l-2.205,1.181l-1.375,2.297l-1.188,1.19v13.569l0.588-0.27l2.854-2.925l0.363-0.858l1.262-1.146
		l0.923-1.16l0.776-0.974l1.263-2.017l0.674-2.551l-0.469-6.144l-0.849-0.414L216.21,149.462z M217.942,164.345l-0.916,0.377
		l-3.173,2.41l-1.035,0.6l-1.295,0.255l-1.31,1.011l-0.431,0.096v17.205h-44.926l-0.307,0.286l-2.331,1.093l-1.153,0.139
		l-0.913,0.336l-0.232,0.439l0.282,0.83l-0.35,1.215l-0.675,0.891l-0.556-0.102l-0.07-0.629l-0.503-0.131l-0.77,1.219l-0.934,0.573
		l0.253,0.457l-0.011,1.076l-0.875,0.739l-0.657,0.277l-0.837,0.351l-0.489-0.247l-0.546,0.168l-0.393,0.929l-0.933,0.751
		l-0.684,2.688l-1.274,1.238l-0.562,0.984l0.392,0.203l1.056-0.913l0.572-0.173l2.973,0.75l0.519,0.441l-0.606,0.529l-1.09-0.447
		l-0.937,1.476l-0.615,0.47l-0.863,0.04l-0.806-0.54l-0.539-0.363l-0.675,0.102l0.27,0.744l-0.304,0.539l0.903,0.767l1.621-0.183
		l1.858,0.188l0.637,0.604l0.452,0.02l0.482,0.396l0.351-0.809l0.92-0.252l1.079-0.015l0.18-1.13l0.846-0.153l0.854,1.617
		l0.47,0.891l2.165,1.019l0.899,0.771l0.482,0.016l1.618,0.782l0.815,0.812l0.744,0.357l1.023-0.353l0.588,0.321l1.342-0.222
		l0.489,0.351h0.704l0.379-0.055l0.475,0.055h10.074l2.323-1.586l2.148-2.25l1.514-1.104l1.035-1.507l0.487,0.253l0.201-0.871
		l-0.257-1.328l0.618-0.694l0.163-1.328l0.425-0.375l1.484-0.153l0.998-0.103l1.251,0.351l0.155-0.167l0.759,1.089l0.332,2.274
		l0.275,0.861l0.146-0.02l-0.725,2.42L194,206.781l-0.594,2.083l-0.866,1.657h41.464v-35.125l-0.969-2.429l-0.927-3.507
		l-0.981-1.442l-0.037-0.006l-0.864-0.172l-0.471,0.318l-0.619,1.006l0.457,3.565l-0.203,1.62l1.136,7.938l0.068,0.487l-0.359,2.45
		l-1.307,3.437l0.141,0.822l0.305,0.253l-1.013,1.169l-0.432,1.677l0.461,1.188l0.611,0.532l0.421,2.437l0.047,0.16l0.994,3.332
		l0.079,2.8l0.329,2.014l-0.663,0.756l-0.276-0.328l-0.546-0.588l-0.159-2.351l-0.093-2.832l-1.998-4.123l-0.071-1.409l-1.054-1.873
		l-0.532-0.941l0.151-0.657l-0.66-0.871l-0.083-1.266l-0.887-0.757l-0.261-2.045l0.294-1.578l0.562-3.002l-0.589-3.403l0.4-1.472
		l-0.252-1.619l-0.989-1.469l0.604-1.758l-0.148-0.852l-0.972,0.181l-0.417-0.614l-1.159-1.158l-0.901-1.478l-0.563-1l-0.471-1.651
		L217.942,164.345L217.942,164.345z M152.565,186.298l-0.172,0.06l0.033,0.198l0.501,0.303l0.358-0.401l0.01-0.159H152.565
		L152.565,186.298z M133.459,190.458l-0.732,0.318l-0.409,0.439l0.782,0.172l0.807-0.59L133.459,190.458z M147.961,191.23
		l-0.35,0.633l0.48-0.013L147.961,191.23z M153.248,191.519l-0.453,0.185l0.396,0.407l0.283-0.303L153.248,191.519z M155.37,192.369
		l-0.552,0.69l0.47,0.311l0.246-0.152l0.076-0.478L155.37,192.369z M148.591,200.96l-1.763,0.614l-0.362,0.55l0.08,0.309
		l0.778-0.205l1.232-0.738L148.591,200.96z M136.57,201.675l-0.5,0.252l0.023,0.143l0.561,0.118L136.57,201.675L136.57,201.675z
		 M151.677,202.419l-0.849,0.331l-0.19,0.492l0.885,0.101l0.371-0.314L151.677,202.419z M145.412,202.659l-1.064,0.48l-1.303,1.039
		l-0.102,1.033l0.416,0.344l0.4-0.118l-0.117-0.912l1.18-1.052l0.813,0.021l0.178-0.201l-0.052-0.516L145.412,202.659
		L145.412,202.659z M147.942,204.401l-0.468,0.07l0.068,0.426l0.466,0.104L147.942,204.401z M644.273,204.696l-0.535,0.146
		l-1.166,2.223l-1.356,0.843l-0.453,2.187l-0.16,0.424h3.648l-0.013-0.092l-0.26-1.705l0.623-3.711L644.273,204.696z
		 M142.699,206.123l-0.436,0.646l-0.537,0.199l0.048,0.486l1.386-0.327l0.002-0.728L142.699,206.123L142.699,206.123z
		 M152.527,206.246l-1.45,0.13l0.236,0.543l1.389,0.437L152.527,206.246z M135.709,207.218l-0.564,0.407l0.61,0.052L135.709,207.218
		L135.709,207.218z M149.303,207.656l-0.053,0.416l1.527,0.558l0.009-0.322l-0.636-0.604L149.303,207.656L149.303,207.656z
		 M155.835,208.023l-0.495,0.102l0.021,0.316l0.939,0.442L155.835,208.023L155.835,208.023z M148.391,209.073l-0.694,0.714
		l0.13,0.445l0.608-0.7l0.501-0.047L148.391,209.073z M140.709,209.564l-0.584,0.09l-0.091,0.362l0.435,0.283l0.308-0.137
		L140.709,209.564z M146.137,209.964l-0.354,0.555h0.751l0.058-0.331L146.137,209.964z M78.611,258.958l0.034,0.037l0.643,0.123
		l1.104,1.032l1.571-1.146l1.458,0.043l0.211-0.091L78.611,258.958L78.611,258.958z M155.906,258.958l0.76,0.947l0.514,0.273
		l1.038-0.155l-0.338-0.474l-0.898-0.271l-0.247-0.321H155.906L155.906,258.958z M160.88,258.958l-0.045,1.023l-0.311,1.615
		l-0.773,0.145l-0.932,2.171l-0.95,0.723l-1.422,0.71l0.416,0.777l-0.18,0.729l-0.073,0.298l0.342,0.124l4.871-4.126l-0.596,1.104
		l-0.47,0.972l1.429,0.485l0.64,0.718l-1.696,0.076l-0.305,0.31l-1.189,2.79l0.133,0.3l1.307-0.688l0.58,0.524l-0.067,0.327
		l-2.248,0.48l-0.456,0.099l0.022,0.142l-2.22-1.235l-0.742-0.614l-0.518-1.056l-0.581-0.145l0.065,1.181l3.482,2.354l-0.11,0.626
		l0.747,1.225l0.405,1.103l1.302-0.312l0.023,0.043l0.219,0.388l-0.935,0.809l0.045,1.821l-0.375,0.812l0.719,0.3l-0.351,0.953
		l1.183,2.175l0.538-0.312l0.643,0.369l0.373-0.058l0.77-1.1l0.947-0.521l0.589,0.407l1.239-1.491l0.378-0.025l-0.185,0.724
		l-0.083,0.112l-0.55,0.734l0.102,0.479l0.778,0.495l-0.825,0.934l0.044,0.486l1.086-0.564l0.392,0.463l-0.083,0.42l-0.516,0.077
		l-0.166,0.257l0.016,0.086h9.884l0.185-0.573l1.061-1.143l-0.015-0.186l-0.058-0.703l0.849-0.992l0.344-0.052l0.021,0.928
		l-0.695,1.842l-0.518,0.879h4.067l0.495-0.853l0.745-0.104l0.757-0.631l0.525,0.593l-0.344,0.521l-0.312,0.475h0.679l0.46-0.892
		l0.377-0.227l0.368-0.896l0.454-0.499l0.738,0.446l0.783-0.256l-0.624-0.869l0.105-0.276l0.763-0.195l1.377-0.803l0.587-0.604
		l1.177,0.038l1.394-0.282l0.422,0.484l-0.788,0.844l-0.744,1.961l-0.742,0.74l-1.287,0.413l0.14,0.357l1.659-0.06l0.183-0.142
		l0.712,0.714h17.848v18.336l0.812,0.598l0.204,0.64l-0.483,0.499l-0.532,0.193v1.15l0.107,0.018l0.958-0.652l0.375-0.858
		l1.178-0.74l0.97-0.131l1.524,0.316l0.02,0.144l-0.28,0.138l-0.484,0.224l-1.354,0.301l-0.966,0.797l-0.571,1.119l-0.585,1.037
		l-0.892,0.096v64.462l1.555,0.06l0.97,0.037l1.361-0.09l0.799-0.249l0.179-0.398l-0.857-1.809l0.434-0.897l3.659-1.663l0.477-0.089
		l4.317,1.384l0.156,0.052l0.028-0.236l-0.719-0.723l-1.992-0.821l-1.234-0.715l-1.11-1.34l-0.561-1.031l0.001-0.531l0.242-0.049
		l0.082,0.017l0.16,0.03l0.071-0.344l0.057-0.062l0.197-0.152l0.414,0.012l0.169,0.003l0.174,0.017l0.117,0.062l0.517-0.42
		l0.427-0.701l0.787-0.873l1.406-0.934l1.074-0.135l1.116,0.438l0.934-0.246l0.665-0.03l0.302,0.329l0.583,0.071l0.833,0.478
		l-0.602,1.18l-1.401-1.131l-0.985-0.08l-1.769,0.543l-0.434,0.433l-0.02,0.321l-0.311,0.272l-0.06,0.44l0.699,0.552l0.7,2.903
		l-0.367,1.672l0.33,0.599l0.751,0.282l1.767,1.112l1.847,2.005l3.141,1.843l3.146,0.867V258.958H160.88z M282.445,258.958V410.53
		l2.784-0.229l-0.22-0.908l0.463-1.64l0.368,0.017l-0.263,1.538l0.273,0.723l0.314,0.314l0.894-0.391l2.304-0.389l0.138-0.022
		l1.353,0.229l1.058-0.144l1.702,0.339l2.681-0.039l1.931,0.125l4.25,1.26l1.849,0.152l0.724,0.475l1.619,0.64V283.179h283.009
		l-0.642-0.527l-0.736-0.471l-0.185-0.543l0.386-0.812l-0.066-0.372l-0.848-0.268l-0.597,0.531l-0.563-0.562l-0.206-1.346
		l-0.294-0.165l-0.192-0.712l0.427-0.413l0.938-0.265l0.667-0.492l0.562,0.477l1.078-1.059l0.834-0.249l0.703,0.24l-0.026,0.252
		l-0.064,0.669l0.666,0.102l0.627-0.561l0.753-0.046l0.849,0.298l1.011-0.222l0.218-0.724l0.593-0.731l0.107-3.019l-1.192-0.031
		l-0.108-0.975l-0.562-0.562l-1.039,0.366l-1.038-0.866l-0.338-0.8l0.351-1.239l1.716,0.047l0.838-0.334l1.773,0.021l1.24,0.806
		l1.862,0.105l0.617,0.246l0.188,0.655l1.501,0.832l1.66,0.17l1.125-0.394l-0.036-0.374l-0.665,0.185l0.007,0.175l-0.768-0.476
		v-0.145l0.666-0.214l0.623-0.815l-0.3-0.339l-0.079-1.118l-0.291-0.052l-0.453,0.583l-0.675-0.218l-0.601-0.908l-2.177-1.191
		l-0.408-1.427l-1.179-0.552l-1.686-2.492l0.301-1.905H282.445V258.958z M598.919,258.958l1.227,2.962l0.086,0.212l0.783-0.217
		l1.271,0.865l0.938,0.27l1.244,1.067l0.493-0.123l0.768,0.562l1.298-0.827l0.882,0.473l0.239-0.06l0.396-0.097l0.715-0.789
		l1.157-0.507l1.537-0.226l1.072-0.449l0.619,0.392l0.487-0.466l0.696-0.098l0.369-0.666l1.014-0.447l0.845-0.1l1.862-1.731H598.919
		z M158.689,260.214l-0.314,0.629l0.144,0.355l0.374-0.056l0.074-0.477L158.689,260.214z M157.528,260.708l-0.558,0.402l0.538,0.239
		L157.528,260.708z M158.409,263.365l-0.637,0.065l-0.614,0.789l1.104-0.484L158.409,263.365z M610.229,264.018l0.155,0.628
		l0.407-0.064l-0.008-0.432L610.229,264.018z M156.589,264.16l-0.581,0.058l-0.354,0.373l-0.021,0.439l0.548-0.084l0.325-0.368
		L156.589,264.16z M601,271.395l0.312,1.027l-0.193,0.55l-1.688,1.125l0.004,0.2l0.668,0.017l1.322-0.658l0.789-1.279l-0.53-0.393
		l-0.188-0.54L601,271.395L601,271.395L601,271.395z M600.165,271.813l-0.451,0.697l0.49-0.239L600.165,271.813L600.165,271.813z
		 M150.576,274.104l0.103,0.651l0.37,0.118l0.114-0.395L150.576,274.104z M159.273,274.505l-0.61,0.234l-0.193,0.466l0.46,0.312
		L159.273,274.505z M599.282,275.42l-0.292,0.007l-1.478,1.438l-0.889,0.508l-1.218,1.63l-1.021,2.152l-0.992,0.883l-0.852,1.144
		h0.522l0.229-0.31l1.646-1.614l0.234-1.212l0.906-1.513l1.58-1.412l1.413-0.46l0.539-0.643L599.282,275.42L599.282,275.42z
		 M608.576,275.79l-0.572,0.385l0.484,1.112l1.067-0.307l0.099-1.034L608.576,275.79z M158.024,276.115l-0.005,1.307l0.465-0.795
		L158.024,276.115L158.024,276.115z M588.696,279.47l-0.347,0.011l0.603,0.934l0.043,0.66l0.63-0.39l0.021-0.374l-0.947-0.841
		H588.696L588.696,279.47z M164.16,280.193l-0.464,0.795l0.498-0.188L164.16,280.193z M159.445,280.984l-0.625,0.123l1.167,1.306
		l1.361,0.087l0.169-0.809l-1.125-0.066L159.445,280.984z M164.866,282.151l-0.464,0.212l0.072,0.481l0.387,0.235l0.359-0.142
		L164.866,282.151z M592.015,282.554l-0.461,0.625h0.525l0.175-0.285L592.015,282.554z M163.771,282.837l-0.334,0.342h0.372
		L163.771,282.837z M222.876,358.45l-0.797,0.275l-0.929,0.843l2.073-0.64L222.876,358.45z"/>
	<path id="path8" inkscape:connector-curvature="0" fill="#D72828" stroke="#D72828" stroke-width="1.2" d="M280.263,83.488
		l-0.863,0.035l-0.982,0.829l-0.862,1.279l-0.329,0.094l-0.958,1.001l-1.01,0.106l-1.366-0.283l-2.002,0.335l-1.982,2.187
		l-0.48,0.109l0.021,0.173l-0.702-0.155l0.049-0.353l-0.321-0.341l-2.262-0.008l-0.304,0.527l0.868,2.188l-0.097,0.938l-0.524,1.709
		l-0.079,1.31l-0.306,0.784l-0.531,1.365l0.146,0.417l0.334-0.037l0.093-0.01l0.804,0.979l0.037,1.012l0.774,1.242l0.354,1.813
		l-0.192,0.427l0.176,1.139l-0.325,1.078l1.167,2.418l0.263,1.592l1.236,2.963l1.931,4.642l-0.366,1.487l0.477,1.104l-0.645,0.738
		l-0.438,1.148l0.595,0.598l0.36,1.408l0.604,0.426l0.309,0.747l-0.082,0.817l0.744,1.114l0.292,0.64l0.219,0.48l0.474,3.564
		l-0.062,2.728l-0.478,1.063l-0.2,1.354l-0.828,0.931l-0.487,1.963l0.651,2.068l-0.046,0.613l-0.226,0.271l-0.727,0.877l-0.87,4.264
		l-2.64,2.959l-0.238,0.519l0.459,1.25l-0.241,0.983l0.731,1.249l-0.92,1.376l0.117,1.777l0.023,1.16l-0.395,0.129l-0.28-0.778
		l0.051-3.013l-0.162-0.562l0.364-0.967l-0.221-2.494l-0.45-0.441l-0.054-0.428l-0.902,0.074l-1.152,0.97l-1.776,0.117l-0.468,1.327
		l-1.039,0.044l-0.169,0.007l-0.836-0.367l-1.656,1.061l0.02,0.142l0.708,0.092l0.713,0.353l0.715-0.574l1.499-0.143l0.984,0.35
		l0.702,0.76l0.482,1.42l0.874,0.684l0.045,0.603l-1.505,3.472l-0.303,0.698l-0.051,1.047l-1.021,0.907l-0.475,0.422l-1.617,0.128
		l-0.788-0.487l-0.727-1.189l-1.146-1.864l0.444-1.036l-0.401-0.533l-1.161,0.164l-0.542-0.689l0.765-1.594l0.251-3.967l-1.53-1.039
		l-1.358,0.304l-0.307,0.673l0.145,0.275l0.297,0.57l-0.557,0.615l0.132,0.562l0.661,0.416l0.062,1.672l-0.418,0.51l-0.355,0.072
		l-0.77-0.348l-0.195-0.089l-0.2-1.075l0.438-3.412l0.409-1.291l-0.038-1.936l0.262-1.043l-0.021-3.674l-0.158-0.735l0.448-1.963
		l0.478-1.012l-0.131-0.302l-1.375,0.188l-0.457-1.395l-0.843-0.625l-0.578,0.242l0.018,0.836l-0.533,0.354l-0.743-1.012
		l-0.908,1.205l-0.66,0.312l-1.413,1.991l-0.668,0.279l-0.4,0.168l-0.556,1.063l-0.731,1.406l-0.557,0.384l-0.742-0.316
		l-0.487,0.232l-2.499,2.705l-0.808,0.328l-2.77,3.812l-0.272,3.164l-1.236,3.069l-0.491,1.226l0.026,1.764l-0.512,3.162
		l0.228,3.043l0.56,1.467l-0.072,1.023l1.14,3.728l0.634,2.079l0.869,2.068l0.611,1.805l1.09,1.635l-0.212,0.547l-0.549,0.066
		l-0.157-0.965l-1.188,0.349l-1.702-0.573l-2.266-5.688v35.125h-41.464l-0.162,0.311l-0.872,0.585l0.229,1.767l-0.531,0.857
		l-1.86,1.357l-0.565,1.035l0.293,0.975l0.568,0.224l1.236,0.487l0.483,2.283l-0.371,0.718l-0.068,0.765l-0.643,0.494l-0.413,0.436
		l-0.463-0.719l-4.408,0.207l-1.712,0.315l-0.868,0.161l-1.036-0.754l-1.993,0.225l-2.025-0.99l-2.815-0.269l-0.46,0.503l-0.3-0.018
		l-1.045-0.604l-0.681,1.608l-0.441,0.031l-0.76-0.877l-0.929,0.163l-0.257,0.271l-0.391-0.41l-1.568-0.13l-0.214-0.018
		l-0.103-1.062l-2.853-0.894l-1.286,0.188l-0.54-0.996l-1.039-0.342l-0.386-0.555l-1.323,0.516l-0.339-0.066l-0.309,0.475
		l-1.883,0.022l-1.307,0.804l-1.769,0.524l-2.264-0.534l-0.768,0.057l-1.441-0.424l-1.836,1.409l0.278,1.392l-0.376,0.048
		l-1.112-0.616l-0.289,0.627l-0.825,0.819l0.166,0.847l-0.592,1.139l0.167,0.434l0.14,0.363l1.601,2.354l0.191,0.278l0.374,1.225
		l-0.304-0.042l-1.199-1.911l-1.523-1.135l-0.896,0.165l-1.16-0.899l-0.12-0.398l-0.133-0.436l-0.001-0.931l-0.887-0.503
		l0.308-0.309l0.302-1.096l-0.525-0.298l-0.667,0.858l-0.728-0.062l-0.455,0.508l-0.033,0.002l-0.729,0.084l-0.478-0.188
		l0.158-0.313l0.57-0.177l0.786-0.672l0.935-0.317l0.245-0.881l0.706-0.806l-0.022-0.142l-1.004,0.065l0.305-1.063l0.808-0.183
		l-0.768-0.493l-0.542-0.761l-1.104,0.749l-0.084-0.51l0.659-0.74l-0.121-0.562l-0.577-0.232l-0.712,0.516l-0.358,0.26l-0.636,1.231
		l-2.086,0.961l-0.581,1.923l-0.603,0.15l-0.273-0.568l-1.969,0.74l-0.308,0.485l0.151,0.385l4.629,0.358l-0.511,0.721l-0.077,0.039
		l-1.981,1.062l-1.077,1.143h-0.035l-0.603-0.499l-0.731,0.086l-0.502,0.413l-1.021,0.842l-0.718,0.17l-0.456,0.857l-0.94,0.091
		l-0.19-1.515l-0.29-0.445l-0.191-0.293l-1.169-0.746l-1.738-0.047l-0.399,0.33l-0.909,0.756l-0.292,0.242l-0.991,1.205
		l-0.625,2.863l0.298,0.358l1.93,0.307l0.51,0.56l0.216,1.654l-0.492,2.055l-0.354,0.203l-0.212-0.373l0.344-2.039l0.091-0.532
		l-0.649-0.858l-1.01,0.016l-1.013-0.713l-1.232-0.239l-0.176,0.552l-0.546-0.234l-0.121,0.342l0.631,4.121l-0.105,1.5l-0.329,0.168
		l-0.519-0.965l-0.656-0.012l-0.12-1.059l-0.231-0.342l-0.64-0.944l-0.426,0.302l-0.825-1.177l0.906-1.164l0.331-1.219l0.944-0.064
		l-0.352-1.194l0.676-1.649l1.559-1.667l0.136-0.146l-0.071-0.25l-2.887-0.472l-0.452-0.237l-0.73-0.389l-1.536-0.423l-1.004,0.948
		l-0.697,0.969l-0.462,0.645l-0.227,1.114l0.739,2.063l-0.016,1.312l0.647,1.177l-0.562,3.002l-0.542,0.672l-0.232,0.021
		l-0.733,0.075l-0.663-0.562l-0.42-0.019l-1.241,0.755l-0.87-0.559l-0.011-0.756l0.802-0.711l-0.363-1.078l-0.498-0.297
		l-0.609,0.099l-0.444,0.538l0.47,0.652l-0.383,0.383l-0.636,0.104l-0.421-0.368v-0.206l-0.001-0.492l0.787-1.322l-0.336-1.432
		l-1.215-0.646l-0.09,0.334l-0.827,0.571l-0.853-0.092l0.948,2.553l-1.73-0.182l0.43-0.623l-0.136-0.27l-0.512-0.032l-1.429,0.527
		l-1.19,0.02l-0.167-0.045l-1.305-0.352l-0.753,0.126l-0.721,0.82l-1.115,2.659l-1.039,0.874l-1.316,0.309l-0.841-0.385
		l-0.651,0.021l-1.194,2.184l-1.148,0.922l-0.667-0.236l-0.969,0.076l-0.438,0.046l-1.522-0.354l-1.035-0.787l-2.867-0.705
		l-1.662-1.787l-0.396,0.127l1.038,1.455l-0.552-0.08l-1.335-1.288l0.017-0.409l0.598-0.162l-0.254-0.249l-0.58-0.571l-0.818,0.756
		l-0.766-0.278l-0.705,0.063l-1.658,1.219l-0.674-0.262l-0.54,0.152l-0.676,1.195l-1.064,0.535l-0.543,1.115l-0.549,0.096
		l-0.763,1.037l-0.69-0.024l-0.948,0.517l-1.002-0.584l-0.541,0.303l0.556,3.343l1.179,2.216l0.638,2.193l0.361,0.346l0.519-0.092
		l0.193-0.732l0.607,0.066l-0.184,1.113l1.664,3.797l0.708,1.002l0.058,0.084l0.875,2.211l0.04,1.041l1.38,0.258l0.707,0.636
		l0.772,0.012l0.311,0.413l0.894,0.194l0.48,0.516h5.021l1.22-0.51l1.16-0.487l1.722,0.698l1.776-0.506l-0.304-0.881l-0.171,0.026
		l0.961-1.27l0.368-0.938l-0.665-1.183l-0.111-0.201l0.154-0.638l1.903-2.333l2.128-1.231l0.869-0.293l1.165,0.213l0.708,0.496
		l-2.629,0.233l-0.876,0.411l0.039,0.227l2.861-0.185l1.07-0.068l1.526,0.416l1.302,0.956l0.686,0.05l1.512-0.479l1.074-0.645
		l0.288-0.746l-0.042-1.449l0.969-0.742l1.829-0.417l2.88,0.2l1.233,0.088l3.867,1.642l1.245,0.179l1.888,0.83l2.393,0.487
		l1.668-0.122l1.507,0.518l1.343-0.478l0.079-0.166l2.343,0.131l1.179,0.861l1.211-0.017l4.231-0.928l0.936,0.846l1.034,0.121
		l0.655,0.078l1.579,0.424l1.701,1.189l1.649,0.879l0.084-0.217l-1.134-0.986l-2.714-1.79l-0.056-0.34l0.785-0.269l0.807,0.226
		l2.309-0.735l0.362,0.032l0.627,0.05l0.579,0.463l0.733,0.149l0.139,1.054l-0.381,0.58l0.722,0.442l0.474-0.363l0.879,0.505
		l-0.302,0.891l-0.481,0.131l-2.064-0.7l-0.391,0.322l1.89,1.278h0.207l0.383-0.002l1.547-1.053l2.286,0.438l0.781-0.293
		l-0.022-0.144l-1.499-0.497l-0.027-0.172l2.817-2.578l0.736-0.4l0.478,0.596l1.43,0.627l0.423-0.325l0.008-0.696l0.211-0.424
		l0.373,0.051l0.545,0.006l0.225-0.068l0.2-0.457l0.204-0.314l0.14-0.039l0.184,0.362l-0.016,0.358l-0.317,0.172l-0.394,0.148
		l-0.09,0.352l0.032,0.385l1.147,0.147l0.568-0.726l0.141-1.182l0.84-0.883l0.76-0.055l0.243,0.227l-1.069,0.738l0.137,0.503
		l-0.662,2.017l-1.296,0.979l-0.297,0.566l0.901-0.259l0.994-0.285l-0.083,0.795l-0.798,0.382l0.309,1.029l-1.033,0.387l0.022,0.145
		l1.112,0.501l0.938-0.81l0.954-0.143l0.348,0.354l0.577-0.084l0.41-0.41l0.394,0.058l1.03,0.749l1.338,0.439l0.266,0.772
		l-0.126,0.715l-1.139,0.46l-0.475,0.361l-0.021,0.468h73.125v114.167l0.49,0.135l0.14,0.185l0.47,0.612l0.568,0.22l0.605-0.189
		l0.697,0.088l1.54,1.438l1.053,0.685l0.461,0.03l0.414,0.618l4.011,2.821l0.381-0.163l-0.364-0.681l3.539-1.705l1.154-1.124
		l0.687-2.229l0.664,0.063l0.105-0.823l1.124-1.149l0.727-0.222l-1.161,2.652l-0.329,1.111l0.104,0.423l-0.641,1.382l-0.246,1.336
		l-0.297,0.565l-0.614,0.937l-2.008,0.387l-0.771-0.256l-0.7,0.346l3.235,2.107l1.661,1.312l3.688,3.192l2.467,2.143l0.965,1.25
		l0.834,0.339l1.215,0.96l2.415,2.302l0.798,1.066l2.146,2.218l0.429,0.038l0.46-1.242l0.358,0.16l0.504,0.466l-0.242,0.375
		l-0.436-0.095l-0.205,0.459l0.545,0.836l0.972,1.107l0.77,0.549l0.729,0.99l0.296-0.15l-0.467-1.164l1.288,0.373l0.615,0.714
		l-0.103,0.36l-0.354,0.128l-0.798-0.054l0.248,0.724l8.063,6.833l1.51,0.892l0.721,0.426l2.067,0.32l0.24-0.021V258.958h314.098
		l0.033-0.197l-0.3-0.281l-0.875,0.047l-0.139-1.029l-0.627-0.592l-0.728,0.044l-1.402-1.317l-0.006-0.287l-0.16-0.545l0.916-0.793
		l-0.603-0.851l-0.104-0.657l-1.364-0.89l-0.071-0.269l0.23-0.369l0.731,0.015l0.712,0.442l0.701-0.072l0.418,0.395l0.229,1.145
		l1.762,1.686l0.496,1.526l1.038,0.54l0.416,1.801l1.062,0.495l0.006,0.017h19.999l0.207-0.191l-1.872-2.155l-0.193-1.118
		l-0.772-0.966l-0.529-0.279l0.759-1.905l1.221-0.393l0.543-0.784l0.91,0.304l0.375-0.522l1.06,0.646l3.062-0.471l1.157-0.849
		l1.154,0.934l0.789,0.021l0.693-0.699l-0.072-0.977l-0.444-0.566l-1.228,0.042l-0.154-0.136l-0.615-0.545l-0.646-0.049
		l-0.391-0.625l-1.146-0.562v-0.144l-1.769-0.666l-0.119-0.285l0.35-0.635l1.046-0.046l1.47,0.47l0.881,0.074l0.89,0.822l0.621,0.27
		l1.114,0.484l0.645-0.064l1.035-1.562l1.511-0.906l0.694-0.756l0.308-1.296l0.406-0.405l-0.3-0.572l-0.735-0.219l0.08-0.692
		l-1.354-0.358l-0.888-0.68l-0.586-0.021l-1.667-1.646l-2.796-0.712l-2.701-0.021l-1.388-0.67l-2.092-0.343l-1.255-1.332
		l-0.345-1.258l0.287-0.493l0.589,0.077l2.878,1.854l2.648,0.252l2.876-0.238l0.346-0.406l0.681,0.337l0.301,0.427l1.595,0.758
		l0.588,0.079l0.3,0.396l1.059,0.104l0.185-0.144l0.485-0.381l1.179,0.478l3.108-0.465l0.373-0.692l0.219-1.695l-0.036-0.745
		l-0.357-0.343l-0.316,0.521l-2.005-0.584l-1.41,0.13l-1.564-0.527l-0.906-1.211l-0.736-0.981l-3.083-1.888l-0.148-0.086
		l0.166-0.748l-0.534-0.367l-0.248-0.916l-1.28-0.959l-0.104-0.157l-0.526-0.783l-0.475-0.166l-2.087,0.431l-0.978-0.444
		l-1.24-0.069l-2.845-0.934v0.115l-2.784,0.229l-0.278,0.021l-1.447-0.205l-1.53,0.142l-3.026-0.954l-0.008-0.217l-0.043-0.959
		l1.002-0.02l2.604,0.442l2.21-0.123v0.115l1.062,0.069l1.749-1.321l0.908-0.3l2.929,0.357l0.462-0.639l-1.177-1.649l-0.584-1.034
		l-0.539-0.959l0.229-0.408l0.698,0.191l0.104,0.027l0.72,0.795l0.802,0.275l0.906,1.223l0.685,0.421l2.16,0.431l1.396,0.645
		l2.384,1.722l2.095,2.446l0.253,1.088l0.155,0.664l0.058,0.254l0.774,0.68l1.151,0.42l3.622-0.154l0.414,0.229l0.912,0.02
		l2.025-0.563l2.052-1.166l0.224-0.38l0.186-0.312l-0.039-1.119l-1.02-1.916l0.673-0.609l2.087-0.766l1.876-1.592l0.554-1.066
		l0.881-0.926l0.277-0.771l0.127-0.352l-0.149-0.457l-1.102-0.684l-0.649-0.108l-0.133-1.867l0.545-2.218l-0.006-0.037h-3.649
		l-0.447,1.189l-0.831,1.058l-0.192,0.245l-0.053,0.688l-0.822,0.523l-0.047-1.81l-0.363-0.743l-0.384-0.082l-1.857,0.533
		l-0.387,0.004l-0.092-0.43l1.285-1.178h-353.97V85.236l-1.052-0.625L280.263,83.488L280.263,83.488z M265.864,149.319l-2.84,0.845
		l-4.462,0.485l0.653,0.59l4.808-0.639l2.271-0.715l0.181-0.059l0.358-0.327L265.864,149.319L265.864,149.319z M255.079,149.548
		l0.32,0.6l0.449,0.18l0.094-0.212L255.079,149.548z M257.252,149.902l-0.688,0.312l0.03,0.229l1.232-0.085l0.043-0.151
		L257.252,149.902L257.252,149.902z M263.728,153.786l-1.234,0.316l0.251,0.32l1.191-0.427L263.728,153.786z M263.653,155.851
		l-1.354,0.562l-0.947,0.166l-0.417,0.308l-0.548-0.021l-1.446,0.542l-0.084,0.299l0.307,0.254l1.356-0.533l0.771,0.113l0.305-0.468
		l2.032-0.698L263.653,155.851L263.653,155.851z M145.783,210.519l-0.077,0.119l0.046,0.662l0.428,0.053l0.272-0.36l0.082-0.474
		H145.783L145.783,210.519z M169.501,210.519l0.117,0.084l0.587-0.084H169.501z M171.059,210.519l1.208,0.138l0.176,0.819
		l0.337,0.242l0.503,0.362l0.861-0.037l0.662,0.228l0.644-0.295l3.166-0.217l1.149-0.308l1.368-0.935h-10.074V210.519z
		 M164.607,211.474l-0.205,0.027l-0.297,0.598l0.459-0.125L164.607,211.474z M135.505,211.64l-0.214,0.703l0.604-0.151l-0.066-0.397
		L135.505,211.64z M151.468,213.729l-0.674,0.274l0.148,0.559l0.94-0.11l0.16-0.313L151.468,213.729z M154.644,214.127l-0.9,0.745
		l-1.301,0.28l-0.514,0.338l0.461,0.658l0.641-0.3l2.056-0.043L154.644,214.127z M127.222,214.265l-0.739,0.231l0.187,0.407
		l0.484-0.339L127.222,214.265L127.222,214.265z M110.538,214.615l-0.505,0.199l0.189,0.581l0.262-0.217L110.538,214.615
		L110.538,214.615z M138.256,214.912l-0.748,0.931l0.673,0.273l0.24-0.734L138.256,214.912L138.256,214.912z M159.142,215.554
		l-0.234,0.035l0.279,0.832l0.602-0.353L159.142,215.554z M109.611,215.669l-0.588,0.065l0.523,0.614L109.611,215.669z
		 M153.723,216.444l-0.522,0.105l0.063,0.396l0.483,0.22l0.997-0.118l0.027-0.207L153.723,216.444L153.723,216.444z
		 M132.951,216.689l-0.018,0.614l0.411,0.139l0.191-0.115L132.951,216.689z M152.02,217.017l-0.945,0.257l-0.475,0.77l1.284-0.19
		l0.263-0.795L152.02,217.017L152.02,217.017z M123.923,222.64l-0.662,0.859l0.602-0.152L123.923,222.64L123.923,222.64z
		 M132.251,223.517l0.02,0.666l0.577-0.119l-0.025-0.52L132.251,223.517L132.251,223.517z M644.374,226.099l0.004,0.717
		l-0.319,0.634l0.476,0.543l0.341-1.64L644.374,226.099L644.374,226.099z M635.528,231.282l-0.379,0.119l-0.229,0.604l0.591,0.227
		l0.146-0.146L635.528,231.282z M638.54,235.535l0.036,0.748l0.354,0.197l0.263-0.203l0.082-0.575L638.54,235.535z M635.27,237.691
		l-0.467,0.147l-0.108,0.776l0.176-0.001L635.27,237.691L635.27,237.691z M631.82,244.16l-0.111,0.404l0.501,0.253l0.024-0.52
		L631.82,244.16z M149.339,252.701l-0.08,0.622l0.6,0.055l0.081-0.244L149.339,252.701z M153.134,253.728l-0.395,0.871l0.362-0.144
		l0.164-0.459L153.134,253.728z M154.084,254.89l-0.458,0.649l-0.489,0.277l0.026,0.171l0.573,0.263l2.17,2.707h0.828l-2.12-2.753
		l-0.305-1.202L154.084,254.89L154.084,254.89z M275.75,420.069l-1.195,0.282l-1.01,0.312l-1.32,0.557l0.034,0.605l0.282,0.258
		l0.055,0.747l0.761,2.642l0.422,0.795l-0.753,0.578l0.245,0.055l0.359,0.079l0.828-0.675l0.299-1.688l0.75-0.085l0.626-1.261
		l0.981-0.838l-0.02-0.367l-0.434-1.046l-0.514-0.063l-1.515,0.314l-0.038-0.175l0.151-0.277l0.403-0.104l0.66,0.023l0.253-0.237
		l0.433,0.088L275.75,420.069L275.75,420.069z M257.644,436.927l-0.85,0.782l-0.172,1.175v1.563l0.852,0.782l0.851-1.174l0.17-1.173
		L257.644,436.927z"/>
</g>
</svg>
