<?xml version="1.0" encoding="UTF-8" standalone="no"?>
<!-- Created with Inkscape (http://www.inkscape.org/) -->
<svg
   xmlns:svg="http://www.w3.org/2000/svg"
   xmlns="http://www.w3.org/2000/svg"
   version="1.0"
   width="485.75949"
   height="343.65576"
   id="svg4335">
  <defs
     id="defs4337" />
  <g
     transform="translate(-68.79605,-70.52211)"
     id="layer1">
    <path
       d="M 232.79024,413.67833 C 232.44419,413.11841 232.64834,412.35914 233.2439,411.99106 C 234.78138,411.04085 235.77337,412.34241 234.48988,413.6259 C 233.7717,414.34408 233.21236,414.36133 232.79024,413.67833 z M 300.05121,402.78051 C 298.24911,401.54763 295.18144,400.02444 293.23417,399.39564 C 291.2869,398.76683 287.89368,397.21818 285.69368,395.95418 C 279.4966,392.39368 267.68883,389.69968 260.8471,390.28532 L 255.00051,390.78578 L 246.8471,382.72914 C 236.71185,372.71419 219.71119,358.8688 216.58603,358.08444 C 215.29875,357.76135 212.59606,356.37765 210.58005,355.00955 C 206.64387,352.33839 201.19368,351.6518 201.19368,353.8271 C 201.19368,354.67454 198.51492,355.58221 193.55364,356.41585 L 185.91359,357.6996 L 183.51317,355.11085 C 180.74247,352.12278 179.91118,351.95264 178.19368,354.0221 C 176.65248,355.87913 162.60311,356.1214 158.73219,354.35769 C 156.83737,353.49436 155.59704,353.48153 153.93514,354.30808 C 150.16391,356.1837 138.00347,357.60913 136.4899,356.35298 C 135.54621,355.56978 135.47039,354.89361 136.22441,353.98507 C 136.80487,353.28566 137.02632,351.65786 136.71651,350.36775 C 136.37931,348.96355 136.89135,346.82348 137.99229,345.03569 C 139.7966,342.10572 139.79226,342.01719 137.76251,340.35082 C 135.99371,338.89868 135.87496,338.35483 136.94368,336.6008 C 137.63118,335.47244 138.19368,332.99469 138.19368,331.09469 C 138.19368,329.19468 138.68025,327.33942 139.27494,326.97188 C 140.8497,325.99862 146.11609,331.44048 147.02924,334.98454 C 148.05946,338.98292 151.80232,339.69215 154.31285,336.3647 C 155.73343,334.48187 156.96532,334.0407 160.58958,334.11687 C 163.51584,334.17837 165.28,333.73955 165.61487,332.86687 C 165.89869,332.12725 167.30579,331.5221 168.74175,331.5221 C 171.10343,331.5221 171.2917,331.24488 170.71459,328.6173 C 169.98138,325.27902 171.53384,323.72959 173.76038,325.57745 C 174.99447,326.60166 175.13933,326.4917 174.63494,324.91354 C 174.04373,323.06377 174.06455,323.0639 175.58001,324.91942 C 177.2706,326.98937 176.88176,328.5221 174.66605,328.5221 C 173.88989,328.5221 173.49047,329.13194 173.77721,329.87918 C 174.10761,330.7402 173.09091,331.68649 170.99583,332.46796 C 169.17965,333.14539 166.52875,334.31727 165.10495,335.07215 C 163.30265,336.02769 162.19834,336.12676 161.46985,335.39827 C 160.23979,334.16821 154.74595,336.64052 153.91865,338.79643 C 153.57518,339.69151 152.22106,340.00695 149.89027,339.73484 C 146.82093,339.37652 146.30069,338.90606 145.75455,335.99488 C 144.47151,329.15567 139.22569,326.14641 139.32164,332.30466 C 139.34493,333.79925 139.04821,336.2596 138.66225,337.7721 C 138.06136,340.12695 138.26466,340.5221 140.0771,340.5221 C 142.49476,340.5221 142.95237,343.01699 140.69368,343.88373 C 139.86868,344.20031 139.19368,345.11095 139.19368,345.90738 C 139.19368,346.70381 138.63118,347.54475 137.94368,347.77615 C 136.96917,348.10414 136.99616,348.56329 138.06613,349.85948 C 139.14663,351.16844 139.1815,351.83185 138.23004,352.9783 C 136.86529,354.62271 137.76809,356.90316 139.38759,355.90225 C 139.96824,355.5434 142.41411,355.11803 144.82287,354.957 C 147.23162,354.79597 150.57702,353.97848 152.25708,353.14036 C 154.66907,351.9371 155.8779,351.85302 158.00271,352.74071 C 161.09601,354.03302 177.22112,353.79064 178.64368,352.43045 C 180.30489,350.84207 182.55582,351.44458 184.65612,354.03982 C 186.49416,356.31101 187.03575,356.45789 190.18708,355.53982 C 192.10845,354.98007 194.8728,354.5221 196.33009,354.5221 C 197.78738,354.5221 199.23872,353.8471 199.55531,353.0221 C 200.4919,350.58137 207.1747,351.14517 211.40849,354.0221 C 213.43199,355.3971 215.75993,356.5221 216.58171,356.5221 C 218.77684,356.5221 237.50987,371.803 246.30249,380.76592 L 253.91131,388.5221 L 261.19468,388.5221 C 269.02553,388.5221 279.51026,391.12759 287.19368,394.98294 C 289.66868,396.22484 294.65228,398.72588 298.26835,400.54081 C 303.55506,403.19425 305.57886,403.72128 308.59925,403.23114 C 310.66518,402.89588 314.70943,403.09432 317.58647,403.67212 C 322.39518,404.63784 323.78118,404.42366 334.75557,401.01898 C 353.3127,395.26183 359.40784,391.32736 363.26827,382.61373 C 366.5905,375.11492 373.50966,367.91003 379.20578,366.01808 C 381.94912,365.10689 384.19368,364.04396 384.19368,363.65602 C 384.19368,362.85241 383.94585,362.8799 398.69368,362.04735 C 414.06924,361.17935 419.66404,359.96795 420.93955,357.2306 C 424.23633,350.15547 451.01454,320.5221 454.11121,320.5221 C 454.73309,320.5221 457.42283,319.02188 460.08841,317.18828 C 462.75399,315.35469 467.01814,313.2712 469.5643,312.55832 C 473.36079,311.49537 474.19368,310.84639 474.19368,308.95116 C 474.19368,305.71988 475.7069,305.07474 483.51617,304.97665 C 489.47578,304.9018 490.56468,305.17829 492.12562,307.16271 L 493.91258,309.43446 L 495.05313,306.93123 C 495.68043,305.55445 496.19368,303.60648 496.19368,302.60241 C 496.19368,300.05515 504.25502,292.88717 508.0595,292.05157 C 511.89638,291.20885 513.1195,289.12126 513.44483,282.86005 C 513.663,278.66127 513.4471,278.06782 511.69368,278.04646 C 508.90819,278.01253 508.1205,271.58231 510.88032,271.40675 C 511.87767,271.34331 513.36132,271.23081 514.17732,271.15675 C 516.90898,270.90883 516.53015,267.64465 513.68691,266.93104 C 512.12294,266.53851 511.41396,265.90182 511.94712,265.36866 C 513.12871,264.18707 518.04614,263.91976 521.19368,264.86602 C 523.47629,265.55224 523.51977,265.51253 521.69368,264.40934 C 520.59368,263.74479 519.01868,262.30848 518.19368,261.21753 C 517.36868,260.12657 515.67258,258.14475 514.42457,256.81347 C 513.17656,255.48219 512.38647,254.01917 512.66882,253.56232 C 512.95118,253.10546 512.48126,252.46269 511.62455,252.13395 C 510.76785,251.8052 510.34775,251.08183 510.69099,250.52646 C 511.72414,248.85478 515.7851,251.7362 520.52116,257.50137 C 522.11544,259.44207 522.9449,259.63926 527.02116,259.04659 C 533.21009,258.14675 534.69032,256.70622 533.07315,253.15691 C 531.68584,250.1121 532.51569,248.73042 536.1524,248.03005 C 539.38246,247.408 539.69625,246.81638 537.21399,246.02855 C 536.04227,245.65666 535.26929,244.82807 535.49626,244.18724 C 535.89702,243.05574 537.27612,242.89338 540.03674,243.65269 C 540.77542,243.85587 541.89048,243.2467 542.51466,242.299 C 544.07313,239.93271 540.89792,237.59626 536.06612,237.5539 C 532.88191,237.52599 529.14633,235.23612 530.33912,234.04332 C 530.57587,233.80658 533.87043,234.05201 537.66038,234.58873 C 542.29792,235.24549 544.88513,235.23065 545.57243,234.54335 C 546.26743,233.84835 545.96365,233.5221 544.62152,233.5221 C 543.53684,233.5221 540.88714,232.06952 538.73331,230.29415 C 535.33992,227.49704 533.90809,227.01484 528.00547,226.68131 C 524.25898,226.46961 521.19368,225.89719 521.19368,225.40925 C 521.19368,224.92132 522.34826,224.5221 523.75942,224.5221 C 527.32223,224.5221 530.46203,222.6638 529.80262,220.94541 C 529.50223,220.16259 529.63737,219.5221 530.10294,219.5221 C 532.2162,219.5221 538.01692,222.61807 540.43584,225.03699 C 542.61809,227.21924 543.65893,227.57882 546.18644,227.02369 C 548.57569,226.49892 549.14322,225.93847 548.69987,224.5416 C 548.31327,223.32352 549.03147,222.03216 550.91045,220.56687 C 552.73808,219.14161 553.2645,218.2177 552.44368,217.87592 C 551.75618,217.58965 551.16322,216.38043 551.126,215.18877 L 551.05832,213.0221 L 549.97319,215.2721 C 548.86448,217.57097 547.19368,218.32237 547.19368,216.5221 C 547.19368,215.9721 546.49212,215.5221 545.63466,215.5221 C 544.7772,215.5221 544.35376,215.0721 544.69368,214.5221 C 545.0336,213.9721 544.33006,213.5221 543.13025,213.5221 C 541.30456,213.5221 541.15182,213.27747 542.19368,212.0221 C 542.87837,211.1971 544.05847,210.5221 544.81612,210.5221 C 545.57378,210.5221 546.19372,209.7346 546.19377,208.7721 C 546.19385,207.20729 545.37372,207.08198 538.44377,207.58792 C 530.25917,208.18547 528.84156,207.97579 531.20219,206.51684 C 533.61746,205.02412 539.95061,204.30524 544.2647,205.0341 L 548.33572,205.72189 L 547.69414,209.51937 C 546.90705,214.17812 548.77949,215.89984 549.90585,211.55305 C 551.04201,207.16849 552.60909,207.38969 553.22874,212.0221 C 553.52302,214.2221 554.07709,216.52799 554.46,217.14629 C 554.84291,217.7646 554.03964,219.47528 552.67494,220.94782 C 551.31025,222.42035 550.19368,224.45381 550.19368,225.46663 C 550.19368,229.62254 543.00681,229.60407 539.11528,225.43817 C 536.63382,222.78176 535.78108,222.44979 532.96407,223.04352 C 527.84238,224.123 527.26261,225.5221 531.93698,225.5221 C 534.73893,225.5221 536.5033,226.09427 537.38698,227.28948 C 539.26106,229.82427 543.78347,232.5221 546.1585,232.5221 C 548.25135,232.5221 548.60183,233.2949 547.64264,235.79452 C 547.1982,236.95271 546.11989,237.0539 542.06879,236.31759 C 539.30624,235.81548 536.51671,235.62056 535.86983,235.88444 C 535.22295,236.14831 535.72853,236.39973 536.99334,236.44315 C 539.69091,236.53576 545.19368,239.19964 545.19368,240.41292 C 545.19368,240.87463 544.34951,242.32557 543.31775,243.63724 C 542.28599,244.94891 541.38599,246.4721 541.31775,247.0221 C 541.24951,247.5721 539.95618,248.39525 538.44368,248.85133 C 532.59962,250.61353 532.85205,250.35176 534.52892,252.91098 C 535.97595,255.11944 535.92823,255.42285 533.8228,257.4008 C 532.58089,258.56751 530.89628,259.5221 530.07923,259.5221 C 529.26218,259.5221 528.08663,260.02915 527.4669,260.64888 C 525.68628,262.4295 521.64041,260.84282 517.57067,256.76785 C 515.51315,254.70769 514.58662,253.95753 515.5117,255.10084 C 516.43679,256.24415 517.19368,257.57982 517.19368,258.069 C 517.19368,259.44899 522.34735,263.54516 523.3241,262.9415 C 523.80237,262.64591 524.19368,263.33062 524.19368,264.46308 C 524.19368,265.59554 523.71712,266.5221 523.13466,266.5221 C 522.5522,266.5221 522.32462,266.92495 522.62892,267.41732 C 522.93322,267.90968 522.48126,268.58151 521.62455,268.91025 C 520.76785,269.239 520.31548,269.91016 520.61929,270.40173 C 520.92309,270.8933 520.47194,271.8762 519.61673,272.58596 C 517.56286,274.29052 515.29907,278.74936 515.28197,281.12385 C 515.25251,285.21454 514.2985,290.81137 513.51661,291.4806 C 513.064,291.86799 510.85411,292.70702 508.60574,293.34511 C 503.81647,294.70431 496.79048,301.02899 497.63243,303.22309 C 498.38612,305.18717 495.17185,310.51991 493.22807,310.5303 C 488.27413,310.55679 473.08771,312.81828 469.35608,314.0852 C 463.14475,316.194 450.48029,323.9963 445.33695,328.88287 C 439.6701,334.26683 425.43712,351.86287 422.47503,357.14676 C 419.76607,361.97912 418.57737,362.30729 399.69368,363.43621 C 379.44064,364.64698 371.68866,368.87609 364.70914,382.5221 C 362.88063,386.0971 360.10413,390.20769 358.53913,391.65674 C 355.19624,394.75197 346.42152,399.5221 344.0707,399.5221 C 343.1693,399.5221 339.34072,400.74904 335.56274,402.24864 C 329.37119,404.70626 327.44274,404.9775 316.01072,404.99864 C 304.49171,405.01995 303.02707,404.81638 300.05121,402.78051 z M 480.27547,309.5221 C 481.34843,309.5221 482.19368,308.83321 482.19368,307.95874 C 482.19368,305.54494 475.8208,306.43828 475.35045,308.91801 C 475.07948,310.34655 475.40577,310.65469 476.67404,310.16801 C 477.59981,309.81276 479.22045,309.5221 480.27547,309.5221 z M 490.87304,308.17607 C 491.71946,307.32965 490.19496,305.5221 488.63466,305.5221 C 487.84212,305.5221 487.19368,305.9721 487.19368,306.5221 C 487.19368,307.0721 486.56682,307.5221 485.80067,307.5221 C 485.03451,307.5221 484.16988,308.14173 483.87927,308.89906 C 483.45953,309.99287 484.07074,310.11367 486.8515,309.48651 C 488.77685,309.05227 490.58654,308.46258 490.87304,308.17607 z M 515.80163,274.7721 C 517.76673,272.1834 517.51406,271.82146 514.09237,272.32366 C 511.87437,272.64919 511.37594,273.02709 512.34237,273.65047 C 513.45943,274.371 513.43365,274.6928 512.19368,275.50679 C 510.93143,276.3354 510.9932,276.4939 512.58344,276.50679 C 513.6228,276.51521 515.07099,275.7346 515.80163,274.7721 z M 520.17837,266.7721 C 520.18679,266.0846 519.29368,265.5221 518.19368,265.5221 C 515.86181,265.5221 515.76988,265.87063 517.40932,268.49578 C 518.64859,270.48017 520.14435,269.54909 520.17837,266.7721 z M 248.19835,402.03437 C 247.00492,398.89541 247.5976,397.5221 250.14571,397.5221 C 252.81376,397.5221 253.24375,399.74204 251.09071,402.40094 L 249.21732,404.71447 L 248.19835,402.03437 z M 250.65097,399.453 C 249.79374,398.06596 249.19368,398.32459 249.19368,400.08112 C 249.19368,400.93858 249.65102,401.35748 250.20999,401.01202 C 250.76896,400.66656 250.96741,399.965 250.65097,399.453 z M 179.19368,324.12604 C 179.19368,323.25862 178.15235,322.74733 176.44368,322.77581 C 171.3482,322.86073 173.73601,325.59336 174.17897,324.3377 C 174.66254,322.96691 176.15284,321.4369 176.06891,320.97937 C 175.7743,319.37342 178.22277,321.37819 177.8026,320.69833 C 177.44975,320.12741 177.6184,319.37764 178.17737,319.03218 C 178.73634,318.68672 179.19368,318.7842 179.19368,319.2488 C 179.19368,319.7134 180.02633,320.09353 181.04402,320.09353 C 182.32802,320.09353 182.75144,319.54697 182.42739,318.30781 C 182.17056,317.32567 181.5629,316.5221 181.07705,316.5221 C 180.5912,316.5221 180.19368,315.88923 180.19368,315.11572 C 180.19368,314.20167 179.49354,313.89243 178.19368,314.23235 C 175.72464,314.87802 175.61574,313.2341 177.94368,310.45824 C 181.92996,305.70494 185.73683,302.03778 186.44168,302.2721 C 186.85528,302.4096 187.19368,302.14433 187.19368,301.68262 C 187.19368,300.29783 192.28412,298.41603 194.29964,299.05573 C 195.33152,299.38324 196.74231,299.29602 197.43473,298.86193 C 199.42704,297.61289 191.00641,296.57597 188.69368,297.78555 C 187.59368,298.36086 184.66868,300.60684 182.19368,302.77662 C 178.11635,306.35113 177.28985,306.67635 173.39428,306.23916 C 171.02961,305.97377 168.82393,305.48569 168.49277,305.15452 C 168.1616,304.82336 169.08383,303.35922 170.54216,301.90089 C 173.41932,299.02373 173.75903,297.98954 172.153,296.99696 C 169.637,295.44198 175.36448,284.14347 179.71534,282.07885 C 181.50875,281.22782 183.23592,279.8544 183.5535,279.02681 C 184.42784,276.74833 182.82423,277.22201 180.19738,280.01816 C 178.90768,281.39099 177.64718,282.30894 177.39629,282.05804 C 176.37807,281.03982 171.19368,284.69766 171.19368,286.43428 C 171.19368,287.73412 170.29628,288.42681 168.21694,288.73199 C 164.34059,289.30092 162.94368,288.34828 162.94368,285.13583 C 162.94368,283.69828 162.57577,282.5221 162.1261,282.5221 C 161.67643,282.5221 161.47684,281.64806 161.68257,280.57978 C 161.93699,279.2587 161.61898,278.8054 160.6883,279.16254 C 159.93571,279.45133 159.54241,280.26731 159.81429,280.97582 C 160.08617,281.68433 159.62639,282.52581 158.79255,282.84579 C 157.51595,283.33566 157.34172,282.48673 157.6895,277.47132 C 158.04303,272.37298 157.79648,271.22996 155.97775,269.53556 C 153.98342,267.67755 153.95552,267.44274 155.52333,265.71033 C 157.59161,263.42491 157.65781,261.15218 155.70335,259.53012 C 154.76025,258.74742 154.43286,257.41729 154.81175,255.90768 C 155.33067,253.84016 155.05486,253.5221 152.74307,253.5221 C 151.27599,253.5221 150.32196,253.92064 150.62301,254.40775 C 151.69474,256.14185 146.30468,256.18263 142.53088,254.46898 C 140.42042,253.51064 135.99368,252.45494 132.69368,252.12298 C 129.39368,251.79102 124.89368,250.86477 122.69368,250.06465 C 117.50324,248.17693 114.54736,248.15803 113.83746,250.00801 C 113.40369,251.1384 112.2416,251.35389 108.98047,250.90863 C 104.91101,250.353 104.63599,250.47706 103.55585,253.35566 C 102.59673,255.91174 101.81144,256.43779 98.555853,256.70505 C 92.782433,257.179 89.630713,254.91623 86.718143,248.20619 C 83.670153,241.18416 83.492323,238.5221 86.071233,238.5221 C 87.103893,238.5221 88.472353,237.89125 89.112253,237.12021 C 90.955693,234.89901 95.400643,234.14054 96.374643,235.88098 C 98.265273,239.25934 105.26212,238.69188 108.67371,234.8835 C 109.23469,234.25727 111.33509,233.45802 113.34126,233.1074 C 116.53551,232.54913 117.2462,232.81493 119.05958,235.246 L 121.13032,238.0221 L 121.162,234.4721 C 121.19819,230.41664 122.65174,228.5221 125.72701,228.5221 C 128.5611,228.5221 129.43162,229.53047 128.0425,231.20426 C 127.4189,231.95565 127.22858,232.89033 127.61957,233.28133 C 128.01056,233.67232 129.11231,232.95571 130.06789,231.68887 C 131.33163,230.01348 132.60798,229.47229 134.74949,229.70381 C 137.04701,229.95219 137.66317,229.63772 137.55479,228.2721 C 137.4784,227.3096 138.03709,226.5221 138.79632,226.5221 C 139.55555,226.5221 140.73879,225.6221 141.42575,224.5221 C 143.66063,220.94349 146.99085,222.80069 147.4095,227.85911 L 147.62756,230.4939 L 150.83288,227.38719 C 152.5958,225.67849 153.80003,223.65984 153.50895,222.90129 C 152.80936,221.0782 155.60611,221.10919 157.12669,222.94138 C 158.05713,224.06249 157.92529,224.58131 156.49913,225.41097 C 155.04752,226.25544 154.99746,226.46724 156.24368,226.49169 C 157.09618,226.50842 158.30009,226.01569 158.91903,225.39675 C 159.75282,224.56296 161.16479,224.81215 164.36903,226.3586 C 166.74759,227.50656 169.59368,228.46139 170.69368,228.48046 C 171.79368,228.49952 175.84368,228.79744 179.69368,229.14249 C 186.67027,229.76775 186.68761,229.76308 184.87854,227.74525 C 183.67952,226.40788 183.42979,225.49421 184.14283,225.05353 C 185.74858,224.06112 189.19368,216.90498 189.19368,214.56194 C 189.19368,213.41542 188.53678,212.5221 187.69368,212.5221 C 186.86868,212.5221 186.19368,213.17548 186.19368,213.97406 C 186.19368,214.77264 184.15544,216.82836 181.66426,218.54234 C 177.47835,221.42233 176.71617,221.60635 171.61421,220.9689 C 168.57787,220.58954 165.53262,219.71818 164.84699,219.03256 C 163.26441,217.44997 159.14234,216.04125 157.21166,216.42317 C 156.39655,216.58441 152.91188,216.79576 154.50942,215.95699 C 154.59335,215.91292 154.59882,216.14099 154.51815,215.87582 C 154.27802,215.08654 152.76964,215.90391 153.4742,215.10189 C 155.67117,212.601 153.99915,216.26536 154.33907,215.71536 C 154.67899,215.16536 153.83516,215.5221 153.2527,215.5221 C 152.67024,215.5221 152.19368,214.86122 152.19368,214.05348 C 152.19368,212.00012 153.52434,210.03362 152.36876,212.62337 C 151.79801,213.90249 152.43551,212.07161 153.01447,211.58506 C 153.42487,211.24015 152.57816,212.0549 152.9364,211.40951 C 153.50043,210.39338 154.62782,209.51042 155.19368,208.0221 C 155.71645,206.6471 156.73329,205.5221 157.45332,205.5221 C 158.17335,205.5221 159.55574,204.17919 160.52531,202.53785 C 161.49487,200.8965 162.60439,199.62032 162.99092,199.70188 C 164.87875,200.10024 170.07529,197.92636 173.33758,195.37354 C 175.34173,193.80525 177.27305,192.5221 177.6294,192.5221 C 177.98575,192.5221 179.24334,191.6221 180.42405,190.5221 C 181.69447,189.33853 184.02463,188.49622 186.13224,188.45871 C 189.401,188.40054 189.4987,188.31728 187.32104,187.44557 C 185.84054,186.85293 183.67848,186.84646 181.57104,187.42835 C 177.84654,188.45673 177.44596,188.12696 179.6917,185.88123 C 180.90668,184.66625 180.96218,183.97121 179.98544,182.20265 C 178.93246,180.29603 178.73506,180.24194 178.4141,181.7721 C 177.96606,183.90812 176.19368,184.10768 176.19368,182.0221 C 176.19368,181.1971 175.79182,180.5221 175.30067,180.5221 C 174.16449,180.5221 173.07586,183.25995 173.99986,183.7936 C 174.38146,184.01399 174.13118,184.05719 173.44368,183.88959 C 172.75618,183.72199 172.19368,184.21919 172.19368,184.99447 C 172.19368,185.76975 171.7181,186.69799 171.13684,187.05723 C 169.4511,188.09908 165.19368,186.62755 165.19368,185.00305 C 165.19368,184.18853 164.54524,183.5221 163.7527,183.5221 C 161.37608,183.5221 160.88304,181.52283 162.75071,179.45909 C 164.16123,177.90048 164.21943,177.5221 163.04867,177.5221 C 162.24842,177.5221 161.09289,178.02289 160.48081,178.63497 C 158.85927,180.25651 157.19368,178.80583 157.19368,175.77195 C 157.19368,173.31887 157.10197,173.26526 155.84538,174.98375 C 155.10382,175.99789 153.97882,176.50734 153.34538,176.11586 C 152.71195,175.72437 152.19368,175.90718 152.19368,176.5221 C 152.19368,177.13702 151.77056,177.37863 151.25341,177.05901 C 150.67353,176.70063 150.7127,175.33169 151.35559,173.48748 C 151.92895,171.84276 152.1687,169.8994 151.88839,169.1689 C 151.60807,168.43841 151.76288,167.21915 152.2324,166.45944 C 153.28022,164.76404 153.91878,166.19277 154.49511,171.5221 C 154.77307,174.09242 154.91612,173.62759 155.03364,169.7721 C 155.12166,166.8846 155.62634,164.5221 156.15514,164.5221 C 157.41461,164.5221 159.48873,172.28583 158.86572,174.66822 C 158.59937,175.68676 158.78919,176.77211 159.28756,177.08012 C 159.78593,177.38813 160.19368,176.71358 160.19368,175.58112 C 160.19368,173.41124 161.63851,172.81479 162.70696,174.5436 C 163.07609,175.14085 164.10314,174.6217 165.1799,173.2936 C 167.33051,170.64099 169.19016,171.69683 167.40427,174.55651 C 166.32056,176.29179 166.45079,176.47842 168.62003,176.29889 C 169.95623,176.1883 170.88026,175.82399 170.67341,175.48931 C 170.10508,174.56973 174.01598,168.5221 175.17898,168.5221 C 175.73707,168.5221 176.19368,168.9721 176.19368,169.5221 C 176.19368,170.0721 175.77858,170.5221 175.27123,170.5221 C 174.76389,170.5221 173.82816,172.09962 173.19183,174.02769 C 172.20271,177.02476 171.39363,177.69476 167.61428,178.64641 C 165.18295,179.25863 163.20618,180.04361 163.22146,180.39081 C 163.26084,181.28574 169.1302,186.94283 169.49634,186.43877 C 171.67228,183.44319 173.19368,180.20008 173.19368,178.55728 C 173.19368,177.4149 173.8517,176.5221 174.69368,176.5221 C 175.51868,176.5221 176.19368,177.18298 176.19368,177.99072 C 176.19368,178.83197 176.78604,179.23202 177.58037,178.92721 C 179.12052,178.3362 183.56022,183.82222 182.44462,184.93783 C 182.06513,185.31732 182.53416,185.32868 183.4869,184.96308 C 184.43964,184.59748 185.84538,184.81807 186.61076,185.45328 C 187.39918,186.10761 189.12745,186.32584 190.59803,185.95675 C 192.02564,185.59844 193.19368,185.70704 193.19368,186.19808 C 193.19368,187.61592 187.62744,190.5221 184.91183,190.5221 C 183.55154,190.5221 181.87837,191.1971 181.19368,192.0221 C 180.50899,192.8471 179.32889,193.5221 178.57124,193.5221 C 177.81358,193.5221 177.19368,193.9721 177.19368,194.5221 C 177.19368,195.0721 176.69614,195.5221 176.08804,195.5221 C 175.47993,195.5221 173.64541,196.6471 172.01131,198.0221 C 170.37722,199.3971 168.21028,200.5221 167.1959,200.5221 C 166.18152,200.5221 163.27705,202.59662 160.74152,205.13215 C 157.07339,208.80029 156.36716,210.0262 157.28502,211.13215 C 158.18919,212.22161 158.08782,212.5221 156.81613,212.5221 C 155.92378,212.5221 155.19368,213.0043 155.19368,213.59367 C 155.19368,214.18303 156.21836,214.53095 157.47076,214.36683 C 158.72315,214.20272 161.08565,215.00877 162.72076,216.15807 C 164.35586,217.30737 167.96669,218.82158 170.74482,219.52299 C 175.57072,220.7414 175.98318,220.68007 179.99482,218.14764 C 182.49834,216.56723 184.19368,214.73775 184.19368,213.61654 C 184.19368,211.62021 186.71475,210.10807 188.354,211.12118 C 190.73963,212.59559 190.98788,216.04652 188.95832,219.5221 C 187.83422,221.4471 186.86482,224.78885 186.80409,226.94821 L 186.69368,230.87433 L 179.69368,230.56444 C 175.84368,230.39401 171.56868,230.20225 170.19368,230.13833 C 168.81868,230.0744 166.57839,229.23274 165.21526,228.26796 C 163.26989,226.89109 161.66092,226.65654 157.73437,227.17742 C 151.99876,227.93827 149.77437,229.62563 150.69271,232.51903 C 151.05773,233.66913 150.87393,234.5221 150.26107,234.5221 C 149.674,234.5221 149.19368,234.0721 149.19368,233.5221 C 149.19368,232.9721 148.56682,232.5221 147.80067,232.5221 C 147.03451,232.5221 146.14864,231.8471 145.83205,231.0221 C 145.07908,229.05987 142.30457,229.12121 138.1539,231.19183 C 135.76163,232.38525 134.69561,232.52788 134.41693,231.69183 C 133.90024,230.14177 131.47047,230.19172 130.94666,231.76317 C 130.71913,232.44576 131.11251,233.58378 131.82083,234.29211 C 133.10559,235.57687 132.67563,238.5221 131.20332,238.5221 C 130.77631,238.5221 130.08597,237.5096 129.66922,236.2721 C 128.93853,234.10235 128.89633,234.12019 128.48617,236.7721 C 127.98852,239.98964 126.68851,240.31521 125.22886,237.58784 C 124.00949,235.30942 123.89528,234.21983 124.94368,234.86712 C 125.35618,235.12181 125.75858,234.24836 125.83789,232.92614 C 125.9713,230.70228 125.34461,230.13846 123.44368,230.7721 C 123.03118,230.9096 122.69368,232.5971 122.69368,234.5221 C 122.69368,237.34959 122.2776,238.08137 120.52826,238.33057 C 119.08108,238.53672 118.2474,238.0392 118.01478,236.83057 C 117.74676,235.43798 116.69247,235.00778 113.4302,234.95983 C 110.5907,234.91809 109.19368,235.32586 109.19368,236.19641 C 109.19368,236.91078 107.53549,238.1881 105.50881,239.0349 C 102.18069,240.42547 101.50299,240.42223 98.508813,239.0014 C 96.685493,238.13618 95.193683,237.06178 95.193683,236.61385 C 95.193683,235.07389 90.132253,236.76837 89.128193,238.64447 C 88.575513,239.67717 87.478273,240.5221 86.689883,240.5221 C 85.104493,240.5221 85.290623,241.38588 88.446113,248.67224 C 90.710073,253.89998 93.171633,255.47379 97.979403,254.76739 C 100.32213,254.42317 101.69274,253.4577 102.75508,251.40336 C 104.29519,248.42511 107.27713,247.65706 110.17822,249.49139 C 111.22066,250.1505 112.26592,249.86341 113.68808,248.52736 C 115.67963,246.6564 115.83833,246.65905 123.20354,248.68607 C 127.32312,249.81985 133.91888,250.81827 137.86079,250.90479 C 143.05148,251.01872 145.54883,251.53353 146.91694,252.77166 C 148.64026,254.33124 148.94489,254.34232 150.38928,252.89792 C 152.40047,250.88674 158.64102,251.91397 157.79562,254.11705 C 157.49908,254.88983 157.82733,255.5221 158.52507,255.5221 C 161.25229,255.5221 162.15661,257.69311 160.6461,260.6141 C 159.6876,262.46765 159.55019,263.6244 160.23802,264.04951 C 161.43268,264.78785 160.46097,268.66843 158.8089,269.75679 C 158.05393,270.25415 158.13973,270.49642 159.07452,270.50679 C 160.09297,270.51808 160.30616,271.44155 159.88684,274.02551 C 159.35153,277.32425 159.45818,277.49382 161.71248,276.92803 C 163.67746,276.43485 164.22095,276.78257 164.7443,278.86778 C 165.09502,280.26514 165.08591,281.88746 164.72407,282.47294 C 164.00383,283.6383 165.87115,285.90639 168.21154,286.70888 C 169.2655,287.07027 170.12702,285.8889 171.19368,282.6196 C 172.01868,280.09097 173.14063,278.2471 173.68689,278.5221 C 174.23316,278.7971 174.55733,279.55676 174.40726,280.21024 C 174.10193,281.53983 179.72122,279.09558 180.73282,277.45878 C 181.05121,276.9436 182.42599,276.5221 183.78788,276.5221 C 185.82235,276.5221 186.10349,276.83427 185.36399,278.2721 C 184.86896,279.2346 184.64064,280.50962 184.8566,281.10548 C 185.07257,281.70135 183.41606,282.73811 181.17547,283.40941 C 178.28449,284.27557 176.79194,285.41276 176.03496,287.32603 C 175.44827,288.80887 174.31854,291.2596 173.52443,292.7721 C 172.16613,295.35921 172.42008,296.00435 174.62921,295.57868 C 175.14375,295.47953 176.60625,295.65982 177.87921,295.97931 C 181.03952,296.7725 180.89552,299.5221 177.69368,299.5221 C 174.77515,299.5221 170.53728,303.2657 171.90618,304.6346 C 173.50368,306.2321 178.71209,304.45459 182.2704,301.09753 C 187.93985,295.74874 189.33261,295.31361 196.68534,296.59403 C 200.26493,297.21739 203.19368,298.12084 203.19368,298.6017 C 203.19368,300.11834 198.34362,302.7328 197.03288,301.92272 C 196.34607,301.49825 194.54254,301.01503 193.02504,300.8489 C 190.92449,300.61894 190.4022,300.90192 190.8368,302.03447 C 191.26012,303.13763 190.66844,303.5221 188.54742,303.5221 C 185.92701,303.5221 182.07682,306.49215 179.84441,310.23563 C 178.98847,311.67094 182.52113,315.5221 184.69368,315.5221 C 186.50999,315.5221 186.68485,317.15724 184.94368,317.85982 C 184.19694,318.16114 184.39824,318.39599 185.44368,318.44315 C 187.57145,318.53914 187.8099,320.5221 185.69368,320.5221 C 184.86868,320.5221 184.19368,320.9721 184.19368,321.5221 C 184.19368,322.0721 183.5328,322.5221 182.72506,322.5221 C 181.83047,322.5221 181.48143,323.10839 181.83205,324.0221 C 182.19654,324.97194 181.81826,325.5221 180.80067,325.5221 C 179.91682,325.5221 179.19368,324.89387 179.19368,324.12604 z M 177.19368,297.46308 C 177.19368,296.88062 176.74368,296.68218 176.19368,297.0221 C 175.64368,297.36202 175.19368,297.83858 175.19368,298.08112 C 175.19368,298.32366 175.64368,298.5221 176.19368,298.5221 C 176.74368,298.5221 177.19368,298.04554 177.19368,297.46308 z M 158.60958,266.88066 C 159.13625,265.50818 158.98992,265.44632 157.71657,266.5031 C 155.98133,267.94323 155.80073,268.5221 157.08669,268.5221 C 157.57785,268.5221 158.26315,267.78345 158.60958,266.88066 z M 159.0794,257.45147 C 157.47464,256.45968 156.74418,256.98578 157.66264,258.47188 C 158.03072,259.06744 158.79883,259.26613 159.36954,258.91341 C 160.04141,258.49817 159.93913,257.98282 159.0794,257.45147 z M 145.19368,226.55157 C 145.19368,226.08269 144.40618,225.84982 143.44368,226.03407 C 142.48118,226.21833 141.46868,226.4104 141.19368,226.4609 C 140.91868,226.5114 141.34719,226.96614 142.14593,227.47143 C 143.67846,228.44091 145.19368,227.98359 145.19368,226.55157 z M 526.88753,270.88262 C 526.53582,270.53091 526.49191,269.84857 526.78996,269.36631 C 527.42915,268.33209 529.19368,269.22386 529.19368,270.58112 C 529.19368,271.65621 527.83832,271.83341 526.88753,270.88262 z M 216.87701,218.8721 C 216.50118,218.49627 216.19368,216.77044 216.19368,215.03693 C 216.19368,213.30343 215.54073,209.66593 214.74269,206.9536 C 213.94465,204.24128 213.19646,199.3221 213.08006,196.0221 C 212.95695,192.53224 212.17173,188.87744 211.20314,187.28602 C 209.68657,184.79426 209.36623,184.6798 207.61577,186.00422 C 206.55862,186.80407 204.68168,187.4728 203.44479,187.4903 C 201.40407,187.51916 201.56606,187.14068 205.19479,183.40152 C 208.46467,180.03213 209.19368,178.5737 209.19368,175.40152 C 209.19368,170.85343 208.17277,170.55348 204.85849,174.12779 C 203.18704,175.93036 202.21763,176.36987 201.71325,175.55376 C 201.30738,174.89706 201.91727,173.38078 203.08891,172.13362 C 206.15237,168.87271 205.72449,167.5221 201.62794,167.5221 C 199.66678,167.5221 197.24354,167.08397 196.24297,166.54848 C 194.27246,165.49389 192.75775,161.31364 193.09832,157.86995 C 193.22408,156.59836 192.39122,155.07344 191.06276,154.14295 C 189.82613,153.27678 189.10374,152.27871 189.45744,151.925 C 190.52895,150.85349 195.19368,152.46468 195.19368,153.90629 C 195.19368,156.31558 199.27417,160.5221 201.61127,160.5221 C 202.86111,160.5221 204.67253,159.65046 205.63665,158.58511 C 207.48572,156.54192 207.01694,154.5221 204.69368,154.5221 C 201.77416,154.5221 202.26529,152.51902 205.51804,151.15993 C 207.79343,150.20922 209.28242,148.7063 210.00634,146.62967 C 210.80854,144.32847 210.79176,143.5221 209.94166,143.5221 C 209.10659,143.5221 209.12077,143.19502 209.99368,142.3221 C 210.65368,141.6621 211.19368,140.0871 211.19368,138.8221 C 211.19368,136.8602 210.67919,136.5221 207.69368,136.5221 C 205.76775,136.5221 204.19368,136.01615 204.19368,135.3971 C 204.19368,134.68822 203.11752,134.48735 201.28413,134.85402 C 199.27289,135.25626 198.20577,134.99601 197.82781,134.01105 C 197.16933,132.29508 197.66468,131.96083 202.19368,131.06505 C 208.90468,129.73771 209.40197,129.47801 208.14132,127.95903 C 207.27508,126.91527 206.49056,126.82805 205.02475,127.61252 C 203.61617,128.36637 202.66239,128.32607 201.62976,127.46906 C 199.96446,126.08699 199.69275,122.52211 201.2527,122.52211 C 201.83516,122.52211 202.0336,122.07211 201.69368,121.52211 C 200.53271,119.64363 198.35638,120.42829 198.90532,122.52744 C 199.43856,124.56654 197.72163,127.52211 196.00385,127.52211 C 195.48413,127.52211 195.34455,126.62211 195.69368,125.52211 C 196.13588,124.12888 195.87338,123.52211 194.82846,123.52211 C 193.2051,123.52211 191.70034,120.12938 192.64544,118.60016 C 192.96492,118.08324 192.74711,117.36415 192.16143,117.00218 C 191.41346,116.53991 191.4257,115.94748 192.20253,115.01145 C 193.45998,113.49631 191.5581,109.52211 189.57558,109.52211 C 188.95022,109.52211 187.88198,108.85146 187.2017,108.03178 C 186.40964,107.0774 185.01703,106.74284 183.32926,107.10147 L 180.69368,107.66149 L 182.81943,105.78212 C 184.47138,104.32164 184.69427,103.58173 183.81943,102.46243 C 182.64569,100.96071 178.82599,100.55647 177.58031,101.80215 C 176.3445,103.03796 174.9538,102.58961 175.51187,101.1353 C 175.8776,100.18223 175.47611,99.896997 174.2282,100.22334 C 172.74642,100.61083 172.45467,100.16035 172.64235,97.774637 C 172.76884,96.166677 173.19619,94.327057 173.59202,93.686597 C 173.98785,93.046127 173.88394,92.522107 173.36111,92.522107 C 172.83827,92.522107 172.12814,91.397107 171.78304,90.022107 C 171.43793,88.647107 170.54536,87.522107 169.79953,87.522107 C 169.05371,87.522107 167.77349,86.138727 166.95461,84.447927 C 165.48885,81.421457 165.45483,81.409817 164.76241,83.697927 C 164.24793,85.398027 163.90186,85.630497 163.47356,84.563657 C 162.52063,82.190007 158.19368,77.920417 158.19368,79.353757 C 158.19368,80.910537 155.76346,83.522107 154.3148,83.522107 C 153.75284,83.522107 152.9332,82.948807 152.49337,82.248107 C 151.69721,80.979717 146.7482,77.522107 145.72886,77.522107 C 145.43451,77.522107 145.19368,78.197107 145.19368,79.022107 C 145.19368,80.371867 142.95551,80.958317 138.44368,80.790757 C 136.52007,80.719317 136.96169,82.327587 139.19368,83.522107 C 141.75609,84.893477 141.73075,86.617777 139.11526,88.857227 C 137.46635,90.269067 136.73807,90.388877 135.59109,89.436967 C 134.79593,88.777047 133.90531,88.477147 133.61194,88.770517 C 132.77275,89.609717 138.78841,93.522107 140.91794,93.522107 C 141.97148,93.522107 144.34556,92.172107 146.19368,90.522107 C 150.77157,86.434967 153.27643,86.563217 149.53869,90.693367 C 147.98793,92.406947 148.00931,92.522107 149.87818,92.522107 C 151.03519,92.522107 152.35094,91.472387 153.01173,90.022107 C 154.15387,87.515377 156.56951,86.703157 157.6557,88.460647 C 157.97472,88.976847 157.61023,89.764347 156.84571,90.210647 C 156.08118,90.656957 155.13492,92.055017 154.7429,93.317447 C 154.0757,95.466027 154.28199,95.597917 157.96936,95.380347 C 161.22606,95.188187 161.82645,94.833807 161.4345,93.335017 C 161.17375,92.337917 161.4254,91.522107 161.99372,91.522107 C 164.00353,91.522107 163.91162,94.052977 161.8164,96.404937 L 159.69368,98.787767 L 163.3657,98.124257 C 168.47961,97.200207 169.18944,99.176897 164.22385,100.51399 C 161.85042,101.15309 160.19368,102.19998 160.19368,103.06066 C 160.19368,104.86947 158.57035,104.97056 157.49337,103.2288 C 157.05354,102.51748 154.74324,101.30793 152.35936,100.54092 C 148.96674,99.449327 147.61177,99.404427 146.12293,100.33423 C 145.07677,100.98756 143.53971,101.52211 142.70725,101.52211 C 140.8425,101.52211 140.83054,101.92081 142.59329,105.32177 C 143.45613,106.9865 146.52423,109.31804 150.59329,111.40121 C 154.2235,113.25972 157.19368,115.18336 157.19368,115.67597 C 157.19368,117.20558 162.29186,118.68552 163.65733,117.55229 C 164.32853,116.99524 165.19407,116.85583 165.58074,117.24251 C 165.96741,117.62918 165.25423,118.72214 163.99589,119.67131 C 161.87822,121.26867 161.80541,121.64351 163.01722,124.70959 C 165.13576,130.06983 166.96117,137.5221 166.1556,137.5221 C 165.74579,137.5221 165.15335,138.54666 164.83906,139.7989 C 164.52477,141.05113 162.77705,143.75113 160.95525,145.7989 C 156.92497,150.32904 153.83552,150.9249 157.60508,146.44503 C 160.47277,143.03697 161.52945,139.92661 161.02656,136.37382 C 160.46837,132.43034 157.93602,133.7013 156.1705,138.81103 C 154.30724,144.20364 152.19368,147.05307 152.19368,144.17244 C 152.19368,143.21013 152.80441,141.20763 153.55086,139.72244 C 156.21557,134.42058 156.34221,130.55869 153.98869,126.37118 C 150.98196,121.02142 148.85704,121.62292 148.11969,128.03253 C 147.50146,133.40668 145.45642,138.5221 143.92618,138.5221 C 143.40562,138.5221 143.28436,137.7346 143.65672,136.7721 C 144.02908,135.8096 144.5636,133.67211 144.84453,132.02211 L 145.35532,129.02211 L 142.2033,132.36758 C 140.46969,134.20759 138.78154,135.4433 138.45187,135.11364 C 138.12219,134.78396 138.80852,133.49655 139.97704,132.25271 C 141.39085,130.74779 141.81343,129.52489 141.24017,128.59734 C 140.76637,127.83072 140.60163,126.48767 140.87408,125.6128 C 141.14653,124.73792 140.22648,125.25961 138.82953,126.77211 C 135.19815,130.70386 133.45735,130.17628 136.57499,126.08884 C 139.03187,122.86771 140.04143,117.7032 138.51301,116.17478 C 138.13864,115.80041 136.56834,116.70511 135.02344,118.18521 C 131.89262,121.18473 129.85784,120.65568 132.65167,117.56854 C 135.06691,114.89972 133.99823,110.76215 130.67845,109.92894 C 129.31183,109.58593 128.19368,108.73368 128.19368,108.03503 C 128.19368,106.18456 122.92756,104.29982 119.88844,105.06259 C 115.80513,106.08744 114.6135,108.15968 117.6668,108.92601 C 119.05659,109.27483 120.19368,110.00165 120.19368,110.54117 C 120.19368,111.08069 121.13118,112.45961 122.27701,113.60545 C 125.53532,116.86375 123.80056,116.96367 120.25151,113.72211 C 118.00808,111.67305 116.35975,110.95887 114.63494,111.28859 C 113.29225,111.54526 112.19368,112.11229 112.19368,112.54866 C 112.19368,112.98502 114.40411,115.29506 117.10575,117.68208 C 122.32649,122.29484 124.55265,126.52211 121.76107,126.52211 C 120.899,126.52211 120.19368,125.89938 120.19368,125.13825 C 120.19368,123.81977 108.89889,117.52211 106.53421,117.52211 C 104.75719,117.52211 104.31695,119.86029 105.55668,122.71391 C 107.12789,126.33053 113.86549,133.52211 115.6826,133.52211 C 116.50437,133.52211 117.73879,134.42211 118.42575,135.5221 C 119.11271,136.6221 120.17239,137.5221 120.78059,137.5221 C 122.31032,137.5221 128.02677,140.44302 128.73282,141.58543 C 129.91152,143.49262 126.83152,142.7686 117.69368,138.99046 C 116.59368,138.53565 114.88711,138.07974 113.9013,137.97732 C 112.9155,137.87491 111.1155,136.86394 109.9013,135.73074 C 107.03539,133.05599 102.23591,131.78708 102.08299,133.66371 C 101.61505,139.4063 104.34135,144.51287 109.22286,147.03719 C 112.5126,148.73838 124.32877,149.05535 127.19873,147.5194 C 129.80445,146.12486 130.70658,147.95174 128.77442,150.71029 C 127.56047,152.44345 126.04405,152.97177 121.52636,153.23551 C 118.38424,153.41894 115.56148,153.8222 115.25355,154.13164 C 113.93504,155.45662 119.39363,158.43211 122.13648,157.88354 C 126.20112,157.07061 126.95968,159.26206 122.97932,160.31849 C 120.67251,160.93074 119.78405,161.69911 119.99701,162.89767 C 120.23432,164.2332 119.70272,164.52477 117.55491,164.23714 C 116.04492,164.03493 114.61067,163.27308 114.3677,162.54415 C 114.05924,161.61878 114.56989,161.38722 116.0598,161.77684 C 119.03505,162.55488 118.81333,160.23266 115.60615,157.02548 C 111.95852,153.37785 113.71533,151.5221 120.81613,151.5221 C 123.77378,151.5221 126.19368,151.1689 126.19368,150.73722 C 126.19368,150.30553 123.32268,150.11723 119.81369,150.31877 C 109.4965,150.91132 102.39074,146.07093 100.80534,137.3704 C 100.32088,134.7117 100.563,133.29565 101.69575,132.1629 C 103.4815,130.37715 105.3713,130.84077 109.87696,134.17 C 115.05441,137.99559 115.6973,136.86138 111.09097,132.0282 C 104.62529,125.24407 102.57032,121.18565 104.00573,118.03528 C 104.9829,115.89062 105.61611,115.58595 107.93223,116.14602 C 109.45103,116.51328 111.81868,117.57492 113.19368,118.50522 C 118.58872,122.15539 119.44892,121.42385 114.89386,117.05932 C 110.0529,112.42088 109.61179,110.52211 113.37514,110.52211 C 114.99267,110.52211 115.19677,110.23077 114.31966,109.17391 C 113.02972,107.61962 114.85479,105.69343 119.49212,103.71484 C 121.783,102.73741 122.84805,102.80914 125.36433,104.11036 C 129.86684,106.4387 135.19368,112.12946 135.19368,114.61123 C 135.19368,116.46042 135.41784,116.58097 136.76989,115.45886 C 138.07619,114.37473 138.50168,114.39658 139.25458,115.58642 C 139.75424,116.37605 140.16995,117.61676 140.17837,118.34354 C 140.19989,120.20104 142.47153,122.26283 143.95261,121.76914 C 144.6352,121.54161 145.19368,120.62795 145.19368,119.73878 C 145.19368,118.40545 145.41275,118.35433 146.44368,119.44711 C 147.44368,120.50711 147.44368,120.86378 146.44368,121.23045 C 145.01686,121.75362 144.75071,125.13031 146.07193,125.94687 C 146.55496,126.2454 147.21871,125.14696 147.54693,123.50588 C 148.02019,121.13954 148.66618,120.52211 150.66868,120.52211 C 152.49042,120.52211 153.19368,121.05594 153.19368,122.43878 C 153.19368,123.49295 153.72518,124.53261 154.37479,124.74915 C 155.02439,124.96569 156.11516,126.69069 156.79871,128.58248 C 157.48226,130.47428 158.07576,131.23461 158.1176,130.27211 C 158.19785,128.4261 160.19368,127.76183 160.19368,129.58113 C 160.19368,130.16359 160.65483,130.35514 161.21846,130.0068 C 161.78208,129.65846 162.17188,129.7444 162.08468,130.19778 C 161.75523,131.91052 163.46949,137.46968 164.18981,137.0245 C 165.35971,136.30146 163.37593,127.38098 161.61172,125.43155 C 160.3789,124.0693 160.27497,123.23874 161.136,121.62988 C 162.09276,119.84217 161.90418,119.48756 159.70294,118.93508 C 158.3088,118.58517 156.73212,117.56161 156.1992,116.6605 C 155.40576,115.31885 155.06848,115.26785 154.33698,116.37888 C 153.32201,117.92043 151.66666,116.18386 152.64387,114.60271 C 152.9564,114.09703 151.65545,113.16955 149.75287,112.54165 C 146.09761,111.3353 140.19368,105.44693 140.19368,103.00764 C 140.19368,102.21296 142.04482,100.61838 144.30732,99.464137 C 148.4175,97.367277 148.42473,97.367157 152.93108,99.317827 C 155.41165,100.39161 158.39801,101.00754 159.56744,100.68657 C 161.35704,100.19539 161.41661,100.0454 159.94368,99.739227 C 158.98118,99.539157 158.19368,98.763347 158.19368,98.015207 C 158.19368,97.267067 156.95618,96.512567 155.44368,96.338537 C 153.42317,96.106047 152.7757,95.540157 153.00287,94.205247 C 153.2627,92.678427 152.99383,92.558697 151.31861,93.455247 C 148.46182,94.984157 147.1981,94.776407 147.16327,92.772107 C 147.13565,91.182277 147.04529,91.172057 146.17604,92.660497 C 144.37282,95.748207 140.28826,95.859657 136.06979,92.936257 C 132.41824,90.405727 131.40572,88.643397 132.80149,87.247637 C 133.13579,86.913337 134.24956,87.164567 135.27653,87.805927 C 138.60235,89.882937 139.62059,87.359987 137.14791,83.169107 L 134.99613,79.522107 L 139.56352,79.522107 C 143.06579,79.522107 144.00573,79.195897 143.59412,78.123267 C 143.29889,77.353897 143.54622,76.422267 144.14374,76.052977 C 145.43526,75.254767 151.79421,78.985887 153.09072,81.302607 C 153.85557,82.669327 154.25394,82.716987 155.5969,81.602427 C 156.47513,80.873567 157.19368,79.657327 157.19368,78.899667 C 157.19368,76.856977 159.2413,77.226557 162.02738,79.772107 L 164.48999,82.022107 L 164.58084,82.353667 C 163.9536,79.808637 163.70514,80.976267 166.42077,82.429637 C 167.64988,83.087437 167.38694,82.584927 168.19368,82.489907 C 170.19899,82.253715 168.79991,85.579747 170.19368,86.022107 C 171.29368,86.371237 172.19368,87.301567 172.19368,88.089497 C 172.19368,88.877437 172.67024,89.522107 173.2527,89.522107 C 173.83516,89.522107 174.0336,89.972107 173.69368,90.522107 C 173.35376,91.072107 173.80376,91.522107 174.69368,91.522107 C 175.5836,91.522107 176.01771,91.997817 175.65837,92.579247 C 175.29903,93.160667 174.88156,94.761137 174.73065,96.135847 C 174.53611,97.908107 174.8545,98.482507 175.82498,98.110097 C 176.57776,97.821227 177.22921,98.133257 177.27263,98.803497 C 177.33254,99.728217 177.47322,99.720657 177.85596,98.772107 C 178.56515,97.014557 180.19368,97.213227 180.19368,99.057297 C 180.19368,100.27163 180.6029,100.37347 182.15169,99.544587 C 184.30845,98.390317 185.33941,99.604737 186.56805,104.74681 C 187.04522,106.74387 188.08362,107.69554 190.45638,108.31038 C 192.2369,108.77176 193.69368,109.64564 193.69368,110.25235 C 193.69368,110.85905 194.01535,111.67712 194.4085,112.07026 C 194.80165,112.46341 194.77548,113.51341 194.35035,114.4036 C 193.92523,115.29378 193.82856,117.56785 194.13554,119.45709 C 194.65853,122.67573 194.7994,122.78595 196.37225,121.20709 C 198.79781,118.77227 201.69292,119.12766 203.01173,122.02211 C 203.95789,124.09871 203.89039,124.52211 202.61322,124.52211 C 201.76756,124.52211 201.37004,124.99846 201.72986,125.58066 C 202.09024,126.16376 203.60376,126.37132 205.09961,126.04278 C 207.06416,125.61129 208.30939,125.9925 209.60237,127.42122 C 211.89872,129.95866 210.91067,131.49176 206.88466,131.63812 C 204.7944,131.7141 204.3692,131.92571 205.652,132.25156 C 210.42971,133.46517 212.19368,135.60016 212.19368,140.16923 C 212.19368,145.42768 210.09592,150.9166 207.53738,152.35272 C 205.80466,153.32531 205.79902,153.42818 207.44368,154.06184 C 209.75817,154.95356 209.65715,156.79269 207.17005,159.04349 C 205.62564,160.44116 205.44803,161.06496 206.42005,161.67763 C 207.12712,162.12331 205.56137,162.32584 202.9002,162.13293 C 199.75727,161.9051 197.65776,161.17145 196.80285,160.00228 C 195.06819,157.63 193.8859,159.58238 195.10901,162.79939 C 195.86376,164.78455 196.92303,165.3442 200.73984,165.77441 C 205.11504,166.26756 207.66454,167.95121 206.61287,169.65286 C 206.366,170.0523 207.18319,170.52378 208.42885,170.70061 C 211.80119,171.17931 211.96344,176.1087 208.76213,180.8261 L 206.23516,184.54979 L 208.71442,183.92754 C 210.58373,183.45837 211.19368,183.70099 211.19368,184.91369 C 211.19368,185.79832 211.60878,186.5221 212.11613,186.5221 C 213.73069,186.5221 215.19941,192.85027 214.94229,198.69897 C 214.69912,204.23046 215.44259,206.60929 216.94368,205.10267 C 217.35618,204.68865 217.69644,200.45115 217.69982,195.686 C 217.70477,188.70125 217.99316,187.0221 219.18784,187.0221 C 220.07028,187.0221 221.43757,189.15812 222.56792,192.30255 C 224.97845,199.00825 225.45788,198.63517 223.57259,191.52075 C 222.35126,186.91183 222.32149,185.07142 223.38865,180.1468 C 224.46141,175.19635 225.53905,173.34675 230.23459,168.3968 C 237.58325,160.64999 239.88534,160.61982 239.75081,168.2721 C 239.69646,171.36393 239.87389,171.5221 243.39663,171.5221 C 249.6826,171.5221 251.77494,169.94422 253.14108,164.17359 C 254.62142,157.92061 254.08057,153.09274 249.81932,134.52211 C 247.74528,125.48342 248.21967,121.74007 251.66575,119.95223 C 253.18185,119.16566 255.2443,118.52211 256.24897,118.52211 C 257.25364,118.52211 258.31646,118.13246 258.6108,117.65622 C 258.90513,117.17998 260.18705,116.98935 261.45951,117.2326 C 263.74911,117.67028 265.00941,119.67342 267.30416,126.52211 C 267.94916,128.44711 269.13225,130.78126 269.93325,131.7091 C 270.73424,132.63694 271.11638,133.83816 270.78245,134.37848 C 270.44852,134.9188 270.85443,136.04 271.68449,136.87006 C 272.51454,137.70011 273.19368,139.08639 273.19368,139.95068 C 273.19368,140.81496 273.53118,141.47344 273.94368,141.41395 C 274.35618,141.35447 275.65133,141.61761 276.82178,141.99871 C 279.29301,142.80333 280.91492,145.92667 281.82858,151.64032 C 282.48118,155.72146 284.76518,157.83347 286.13288,155.62048 C 286.6791,154.73668 287.20309,154.82851 288.1544,155.97477 C 290.4238,158.70923 291.9976,157.68055 293.05425,152.7721 C 293.99999,148.37885 293.82976,147.50832 290.78761,141.18124 L 287.49843,134.34039 L 289.84605,133.27073 C 292.42705,132.09475 292.66952,131.27975 291.23553,128.60032 C 289.81518,125.94636 294.14689,122.54874 299.20344,122.3506 C 303.30162,122.19002 305.48025,120.59188 306.59259,116.93028 C 306.94209,115.77977 308.35128,113.78323 309.72411,112.49353 C 311.65001,110.68423 312.49125,110.41968 313.40692,111.33536 C 315.02787,112.95631 316.19368,112.82527 316.19368,111.02211 C 316.19368,108.94457 317.81934,109.14778 320.19368,111.52211 C 321.29368,112.62211 322.75618,113.5302 323.44368,113.54008 C 324.13118,113.54996 326.19188,115.84869 328.02301,118.64836 C 330.64206,122.65269 331.37849,124.85508 331.47487,128.97167 L 331.59739,134.20469 L 335.76818,135.43616 C 339.71907,136.60272 342.19368,139.44972 342.19368,142.82861 C 342.19368,143.49543 343.05573,144.57937 344.10935,145.23737 C 345.53093,146.12516 346.20476,148.11201 346.72186,152.94064 C 347.10512,156.51945 348.04569,160.25183 348.81202,161.23483 C 350.04912,162.82171 350.09127,162.70306 349.18797,160.17664 C 348.47257,158.17576 348.51807,156.17142 349.34127,153.42383 C 350.26305,150.34719 350.23148,148.66666 349.19275,145.51929 C 348.4672,143.32084 347.31873,141.5221 346.64061,141.5221 C 345.38965,141.5221 343.72093,138.71464 344.0635,137.18638 C 344.16653,136.72673 343.3468,134.88789 342.24186,133.10007 C 341.13693,131.31225 339.76741,126.56745 339.1985,122.55608 C 337.88286,113.27963 338.67655,112.00777 345.1549,113.01113 C 347.65123,113.39776 350.92122,113.82297 352.42155,113.95603 C 356.17426,114.28884 367.19368,124.60593 367.19368,127.78665 C 367.19368,130.04386 371.6471,131.80107 375.32207,130.99391 C 378.23313,130.35454 379.75198,127.64733 379.32097,123.86625 C 379.18581,122.68053 379.96529,120.88053 381.05315,119.86625 C 382.14102,118.85198 383.18017,116.44711 383.36238,114.52211 C 383.59728,112.04054 384.34838,110.73488 385.94368,110.03499 C 387.18118,109.49207 388.19368,108.70456 388.19368,108.28499 C 388.19368,107.01793 393.87197,107.42955 394.99084,108.77771 C 395.56397,109.46828 396.34285,111.26829 396.72169,112.77771 C 397.6529,116.48794 401.45354,116.42932 409.06444,112.58735 C 414.91975,109.6316 418.20643,106.1048 418.17862,102.8073 C 418.16114,100.73401 415.88411,93.879207 414.87902,92.874117 C 414.50208,92.497177 414.19368,90.532917 414.19368,88.509087 C 414.19368,86.485247 413.51233,83.463597 412.67958,81.794297 C 411.84682,80.124987 411.42938,78.071467 411.75193,77.230907 C 412.57917,75.075157 416.40093,74.349797 420.11331,75.643937 C 422.94592,76.631387 423.49708,76.486247 425.48184,74.230177 C 427.31827,72.142706 428.42076,71.77211 431.97754,72.046677 C 437.66068,72.48539 441.39439,75.864017 440.06374,79.363877 C 439.55443,80.703457 439.26418,81.925937 439.41873,82.080497 C 439.57328,82.235047 441.93373,83.239017 444.66417,84.311547 C 450.60417,86.644797 452.32316,90.437267 449.7213,95.468697 C 447.82537,99.135027 447.82273,99.522107 449.69368,99.522107 C 450.55272,99.522107 451.19368,100.42305 451.19368,101.63052 C 451.19368,103.33362 451.63754,103.62753 453.5026,103.15943 C 455.25224,102.7203 456.71206,103.45462 459.52929,106.19099 C 461.57407,108.17708 463.57255,109.47347 463.97037,109.07185 C 464.36819,108.67024 464.69368,106.24882 464.69368,103.69092 L 464.69368,99.040187 L 468.80496,98.482357 C 473.11939,97.896957 478.14234,93.718497 478.24901,90.626087 C 478.27944,89.743897 479.66011,87.949987 481.31717,86.639607 C 483.951,84.556807 484.62683,84.415967 486.68969,85.519977 C 488.92135,86.714327 490.69884,86.611797 495.94368,84.986217 C 499.26026,83.958277 498.75178,86.182147 495.25703,87.989357 C 492.19655,89.571987 489.87012,89.226777 486.99742,86.763757 C 485.49662,85.476997 484.94925,85.559977 482.24742,87.483847 C 480.56786,88.679797 479.19368,90.493127 479.19368,91.513477 C 479.19368,95.109397 474.43799,99.362927 469.60768,100.08728 L 465.10713,100.76218 L 465.76222,105.13062 C 466.63497,110.95052 464.74009,111.65487 459.13453,107.59423 C 456.76179,105.87542 453.63816,104.52211 452.04364,104.52211 C 450.47616,104.52211 449.19368,103.99505 449.19368,103.35086 C 449.19368,102.70666 448.44894,101.35666 447.53869,100.35086 C 445.99749,98.647847 446.00204,98.391347 447.60491,96.620207 C 448.75801,95.346047 449.22174,93.464077 449.00989,90.918327 C 448.70312,87.231767 448.54445,87.086927 443.69368,86.065387 L 438.69368,85.012427 L 438.13998,80.197607 C 437.55591,75.118647 435.66309,72.887647 433.47722,74.701757 C 432.56216,75.461197 432.19368,75.444767 432.19368,74.644557 C 432.19368,72.705157 429.38667,73.420037 426.78459,76.022107 C 424.22248,78.584217 421.19368,79.360317 421.19368,77.454727 C 421.19368,76.842407 420.34099,76.657967 419.19368,77.022107 C 418.09368,77.371237 417.19368,77.218687 417.19368,76.683117 C 417.19368,76.147547 416.29368,75.944707 415.19368,76.232367 C 412.88633,76.835747 412.87139,76.911567 414.16869,81.434967 C 414.70494,83.304767 415.40717,86.676807 415.72921,88.928367 C 416.05124,91.179927 417.10613,94.597107 418.07341,96.522107 C 421.48271,103.30705 418.30742,109.14127 408.23244,114.60373 C 400.87243,118.59418 397.29138,118.28603 395.6631,113.52211 C 394.52639,110.19643 394.25265,110.03235 390.16673,110.22767 C 385.4155,110.4548 383.9818,111.82973 384.85759,115.31917 C 385.24215,116.85139 384.76615,118.37409 383.44828,119.82748 C 382.35378,121.03453 381.20129,123.71421 380.88719,125.78233 C 380.09997,130.96566 378.213,132.52211 372.71622,132.52211 C 368.29535,132.52211 368.01902,132.35041 366.31514,128.54466 C 364.65313,124.83245 359.9844,119.52211 358.3827,119.52211 C 357.99334,119.52211 357.12734,118.64553 356.45824,117.57414 C 355.54113,116.10561 354.23699,115.66623 351.15948,115.78896 C 348.72739,115.88594 346.75189,115.42532 346.27237,114.64944 C 345.82969,113.93317 344.39339,113.499 343.08059,113.68462 C 340.90573,113.99213 340.68716,114.51074 340.62031,119.52211 C 340.53508,125.91172 341.42845,129.72179 343.87311,133.39481 C 344.83487,134.83983 345.49717,136.8096 345.34487,137.7721 C 345.19128,138.74276 345.69633,139.5221 346.47895,139.5221 C 349.09451,139.5221 351.2065,146.49588 351.02166,154.5221 C 350.92666,158.6471 351.20396,163.2596 351.63788,164.7721 C 352.6981,168.46762 350.50426,168.4692 349.09933,164.77393 C 348.52466,163.26244 347.37024,161.26969 346.53394,160.34559 C 345.63833,159.35595 345.27267,157.84859 345.64422,156.67792 C 345.99117,155.58479 345.80673,154.40099 345.23436,154.04724 C 344.66198,153.69349 344.19368,151.63062 344.19368,149.46308 C 344.19368,147.08071 343.75246,145.62098 343.07804,145.7721 C 342.46444,145.9096 341.24645,144.1096 340.37139,141.7721 C 339.34013,139.01736 338.17019,137.5221 337.04604,137.5221 C 336.09216,137.5221 335.0336,137.0721 334.69368,136.5221 C 334.35376,135.9721 333.2022,135.5221 332.13466,135.5221 C 330.44017,135.5221 330.19174,134.79191 330.17837,129.77211 C 330.15977,122.78834 329.09606,120.52832 326.74573,122.47892 C 324.60389,124.25648 323.46019,122.92627 325.00439,120.4536 C 326.5428,117.99022 324.92181,114.30547 322.67843,115.16634 C 321.86182,115.4797 321.19368,116.13795 321.19368,116.6291 C 321.19368,117.12026 320.50285,117.52211 319.6585,117.52211 C 318.40712,117.52211 318.33181,117.13253 319.25114,115.41476 C 320.10345,113.82219 320.08151,113.02827 319.16132,112.16476 C 318.24575,111.30558 317.83108,111.32889 317.48981,112.25873 C 317.24018,112.93888 316.1864,114.51388 315.14808,115.75873 L 313.26022,118.02211 L 313.22695,115.27211 C 313.20865,113.75961 312.77634,112.52211 312.26626,112.52211 C 310.92131,112.52211 307.19368,117.52365 307.19368,119.32823 C 307.19368,122.51757 304.28907,124.3446 300.10982,123.78404 C 294.69795,123.05816 292.12705,125.33669 292.91052,130.16463 C 293.38969,133.11743 293.15412,133.7197 291.33377,134.19573 C 288.82875,134.85081 288.71796,135.31314 290.55553,137.44336 C 294.83484,142.40418 295.81886,156.02606 292.06718,158.36903 C 290.99201,159.04048 289.56813,159.23883 288.903,158.80981 C 288.23788,158.38078 286.34368,158.02803 284.69368,158.02593 C 282.09008,158.02261 281.65678,157.6257 281.41445,155.0221 C 281.26087,153.3721 280.42843,150.08936 279.56457,147.72712 C 278.318,144.31839 277.39549,143.31247 275.0938,142.85213 C 273.49873,142.53311 272.19368,141.68982 272.19368,140.97814 C 272.19368,140.26647 271.54168,138.41022 270.74479,136.85314 C 269.94791,135.29607 269.05077,133.34711 268.75116,132.52211 C 268.45155,131.69711 267.78035,130.34711 267.25961,129.52211 C 266.73886,128.69711 266.06234,126.89711 265.75622,125.52211 C 265.4501,124.14711 264.3362,121.91329 263.28089,120.55805 C 261.61519,118.41895 261.05431,118.24642 259.02791,119.24982 C 257.74408,119.88552 255.27853,120.6822 253.54891,121.02022 C 250.97308,121.52361 250.32161,122.19715 249.94793,124.74313 C 249.69702,126.45272 249.85115,129.01487 250.29044,130.43679 C 251.08432,133.00649 253.06746,142.28643 254.04844,148.0221 C 254.81169,152.48473 254.70923,164.62676 253.88184,167.766 C 253.00475,171.09377 247.40736,173.75666 242.21037,173.31856 C 238.84255,173.03465 238.68066,172.84219 238.38618,168.7721 C 238.20813,166.31123 237.57667,164.52698 236.88618,164.53369 C 234.31948,164.55864 226.48563,174.04237 224.91832,179.0221 C 223.36593,183.95442 223.41766,185.00824 225.71594,195.2721 C 226.29775,197.8704 226.12808,198.5221 224.86978,198.5221 C 223.82944,198.5221 222.6853,196.57392 221.49478,192.77529 L 219.69368,187.02849 L 218.93546,196.52529 C 218.06476,207.43094 218.07058,206.53642 218.8292,212.86409 C 219.37503,217.41694 218.40554,220.40063 216.87701,218.8721 z M 162.57524,141.97017 C 162.91673,141.08024 162.74909,140.67884 162.18223,141.02918 C 161.63853,141.36521 161.19368,142.06358 161.19368,142.58112 C 161.19368,144.01955 161.91045,143.70258 162.57524,141.97017 z M 140.19368,216.5221 C 140.19368,215.9721 140.64368,215.5221 141.19368,215.5221 C 141.74368,215.5221 142.19368,215.9721 142.19368,216.5221 C 142.19368,217.0721 141.74368,217.5221 141.19368,217.5221 C 140.64368,217.5221 140.19368,217.0721 140.19368,216.5221 z M 545.38669,202.7721 C 548.11421,199.59633 548.19018,197.84153 545.65025,196.68427 C 543.99236,195.92888 543.06735,195.91749 542.61653,196.64693 C 542.25982,197.2241 541.00625,197.44428 539.83082,197.13621 C 537.5148,196.52921 531.19368,198.42235 531.19368,199.72299 C 531.19368,200.1625 530.74368,200.5221 530.19368,200.5221 C 529.64368,200.5221 529.19368,199.8838 529.19368,199.10366 C 529.19368,197.36914 535.19102,193.5221 537.89505,193.5221 C 541.28756,193.5221 541.35564,192.20956 538.03555,190.81356 C 534.41378,189.29073 535.10367,187.84928 539.69368,187.34905 C 542.54711,187.03807 542.69706,186.79071 542.76296,182.28616 C 542.80106,179.68139 543.13856,177.24389 543.51296,176.86949 C 544.82221,175.56024 544.17628,172.95168 542.10333,171.17677 C 540.1307,169.48775 539.94214,169.48384 538.75504,171.1073 C 537.25953,173.15254 535.19368,172.19877 535.19368,169.46308 C 535.19368,168.36734 534.51113,167.5221 533.62629,167.5221 C 532.51398,167.5221 532.24321,166.94142 532.69368,165.5221 C 533.18873,163.96234 532.87338,163.5221 531.26107,163.5221 C 530.124,163.5221 529.19368,163.96085 529.19368,164.4971 C 529.19368,167.41512 517.98421,162.3389 511.89523,156.66347 C 509.46888,154.40191 509.18145,153.55394 509.73355,150.28609 C 510.30121,146.92615 510.17081,146.58812 508.532,147.1716 C 507.52092,147.53157 506.01868,148.3757 505.19368,149.04744 C 504.36868,149.71917 502.05183,150.5626 500.04513,150.92172 C 498.03842,151.28084 495.31036,152.42908 493.98277,153.47337 C 490.57375,156.15489 488.3326,154.70737 490.05171,150.93435 C 490.93297,149.00018 490.97944,148.00773 490.21098,147.53279 C 488.76461,146.63889 489.96345,143.60541 492.98161,140.5221 C 497.72529,135.67604 498.54334,128.92394 495.0949,123.07927 C 492.6052,118.85955 491.7782,118.70039 489.60172,122.02211 C 488.02371,124.43047 485.19368,125.46483 485.19368,123.63323 C 485.19368,123.14434 484.63118,122.76523 483.94368,122.79076 C 483.25618,122.81629 481.30912,122.76629 479.61687,122.67965 C 476.78937,122.53488 476.5759,122.27799 476.98226,119.50922 C 477.3248,117.1754 477.09648,116.62218 475.96929,117.05473 C 475.16894,117.36185 473.89411,116.86608 473.13633,115.95301 C 471.93504,114.50554 472.07463,114.05687 474.22611,112.45042 C 483.10304,105.82227 483.58245,104.94987 480.64918,100.76204 C 478.70642,97.988367 480.12723,94.827877 483.72254,93.925507 C 485.08167,93.584397 486.19368,92.919907 486.19368,92.448887 C 486.19368,91.424987 490.16845,89.163547 490.82106,89.816157 C 491.0719,90.066997 488.78336,91.927517 485.73541,93.950627 C 479.79603,97.892967 479.36675,98.590937 481.69368,100.52211 C 482.51868,101.2068 483.19368,102.80238 483.19368,104.06783 C 483.19368,107.05065 478.89923,112.12822 475.69663,112.93202 C 472.25888,113.79484 472.54179,115.52211 476.12086,115.52211 C 478.74276,115.52211 479.01118,115.8134 478.69458,118.31502 C 478.37774,120.81855 478.66853,121.13288 481.50109,121.34872 C 483.23907,121.48114 485.0959,122.02433 485.62737,122.55581 C 486.93249,123.86092 488.19368,123.77568 488.19368,122.38236 C 488.19368,121.00756 491.19655,118.59816 492.96512,118.55392 C 493.66441,118.53643 494.78025,119.75961 495.44476,121.27211 C 496.10928,122.78461 497.11213,124.3432 497.67333,124.73564 C 499.44904,125.97738 498.8366,133.89606 496.71967,137.06608 C 495.63397,138.6919 494.73397,140.34023 494.71967,140.72906 C 494.70538,141.11788 493.79368,142.10297 492.69368,142.91815 C 491.03172,144.14978 490.8933,144.72767 491.8747,146.33718 C 492.81466,147.87872 492.74282,148.72079 491.5227,150.46274 C 489.32501,153.60038 490.55132,154.08222 494.50911,151.63617 C 496.39046,150.47343 498.66576,149.5221 499.56534,149.5221 C 500.46491,149.5221 502.88013,148.6221 504.9325,147.5221 C 506.98486,146.4221 509.50701,145.5221 510.53728,145.5221 C 512.38201,145.5221 512.42397,146.89023 510.7261,151.6792 C 510.09178,153.46835 511.77544,155.45038 517.19368,159.29294 C 522.32392,162.93126 527.51404,164.33104 529.56445,162.62935 C 530.3211,162.00138 531.61127,161.74511 532.43148,162.05986 C 534.03492,162.67516 536.19368,166.69711 536.19368,169.06915 C 536.19368,170.9728 537.81918,170.94042 538.55531,169.0221 C 539.17776,167.40001 542.19368,166.92634 542.19368,168.45067 C 542.19368,168.96139 542.9489,170.13446 543.87194,171.0575 C 545.53834,172.72391 546.41129,177.5221 545.04805,177.5221 C 544.65664,177.5221 544.47065,179.53042 544.63474,181.98502 C 544.85538,185.28544 544.46364,186.8728 543.13083,188.07898 C 542.13958,188.97605 541.51848,190.23023 541.75061,190.86606 C 542.4062,192.66176 540.93156,194.29571 538.19043,194.81085 C 536.81722,195.06892 537.94368,195.12955 540.69368,194.94559 C 543.96578,194.72669 546.36298,195.11298 547.63042,196.06339 C 549.48079,197.45091 549.49266,197.67192 547.8966,201.01889 C 546.97779,202.94566 545.69901,204.5221 545.05487,204.5221 C 544.28639,204.5221 544.40048,203.92039 545.38669,202.7721 z M 166.19368,194.58112 C 166.19368,193.99866 166.64368,193.5221 167.19368,193.5221 C 167.74368,193.5221 168.19368,193.72054 168.19368,193.96308 C 168.19368,194.20562 167.74368,194.68218 167.19368,195.0221 C 166.64368,195.36202 166.19368,195.16358 166.19368,194.58112 z M 141.69368,191.5221 C 142.0336,190.9721 143.07266,190.52899 144.0027,190.53741 C 145.45997,190.55061 145.48637,190.6867 144.19368,191.5221 C 142.23531,192.7877 140.9115,192.7877 141.69368,191.5221 z M 144.19368,187.0221 C 144.87837,186.1971 145.88857,185.5221 146.43857,185.5221 C 146.9964,185.5221 146.88811,186.18536 146.19368,187.0221 C 145.50899,187.8471 144.49879,188.5221 143.94879,188.5221 C 143.39096,188.5221 143.49925,187.85884 144.19368,187.0221 z M 92.549573,184.00716 C 92.229843,183.17394 92.201993,181.59832 92.487703,180.50578 C 92.773403,179.41324 92.615873,178.76117 92.137623,179.05675 C 91.659373,179.35232 89.460283,178.45294 87.250753,177.05813 C 83.960253,174.98092 81.993533,174.5221 76.380223,174.5221 C 72.610963,174.5221 69.251153,174.24623 68.913983,173.90907 C 68.033913,173.029 72.317163,167.5221 73.881743,167.5221 C 74.603313,167.5221 75.193683,166.6772 75.193683,165.64454 C 75.193683,164.61189 75.868683,163.20679 76.693683,162.5221 C 77.518683,161.83741 78.193683,160.65731 78.193683,159.89966 C 78.193683,159.142 78.531183,158.52378 78.943683,158.52584 C 80.213653,158.53217 86.409643,162.57583 88.096973,164.49951 C 90.321343,167.03545 95.193683,169.96024 95.193683,168.75955 C 95.193683,168.21364 94.489013,167.18216 93.627743,166.46738 C 91.620133,164.80121 88.870003,159.51245 89.620803,158.76165 C 89.936823,158.44563 91.851943,158.69547 93.876623,159.31686 L 97.557853,160.44667 L 94.002443,157.516 C 89.859573,154.10109 87.396143,146.88083 89.214623,143.48298 C 90.490013,141.09989 91.175713,141.39489 100.92158,148.51945 C 112.91285,157.28548 112.59368,156.9492 112.59368,160.81731 C 112.59368,162.78389 113.01206,164.13435 113.52341,163.81831 C 114.03476,163.50228 114.24476,163.86885 113.99008,164.6329 C 113.28619,166.74457 111.70545,165.34675 111.60305,162.5221 C 111.43775,157.96239 110.1217,155.98881 105.3845,153.19657 C 102.80455,151.67588 98.746203,148.87703 96.365943,146.9769 C 91.657633,143.2183 90.646643,142.87094 89.948903,144.7721 C 89.121723,147.02593 92.613403,155.93663 94.740213,156.99942 C 95.865803,157.5619 98.238693,159.51075 100.01331,161.33021 C 103.85762,165.27167 103.23183,167.88556 99.333993,164.16772 C 96.875873,161.82311 91.331813,159.05063 90.588293,159.79416 C 89.793123,160.58933 97.494873,170.12386 99.685413,171.0561 L 102.11506,172.0901 L 99.962893,173.43416 C 98.033443,174.63912 97.576803,174.50625 95.550173,172.15015 C 94.306863,170.70472 92.887063,169.5221 92.395053,169.5221 C 91.903043,169.5221 89.942453,168.00896 88.038183,166.15956 C 83.130793,161.39356 80.432683,160.07886 78.629763,161.57515 C 77.839913,162.23066 77.193683,163.57508 77.193683,164.56276 C 77.193683,167.33011 76.109923,169.5221 74.741683,169.5221 C 74.060773,169.5221 72.656583,170.45811 71.621273,171.60212 L 69.738883,173.68213 L 75.840403,173.43311 C 80.217793,173.25446 83.657153,173.82555 88.011983,175.45415 C 93.514173,177.51183 94.110653,178.01879 94.387863,180.87315 C 94.676283,183.84294 94.921383,184.01823 98.695773,183.95411 C 101.5894,183.90495 103.49939,183.14328 105.59179,181.20411 C 107.18346,179.729 109.50821,178.5221 110.75791,178.5221 C 114.07189,178.5221 116.19368,177.50449 116.19368,175.91511 C 116.19368,174.09627 118.17132,174.12838 119.58344,175.97015 C 120.19407,176.76658 122.04368,177.55408 123.69368,177.72015 C 126.50592,178.0032 126.67828,177.82224 126.44755,174.82872 C 126.31218,173.07237 126.64968,171.35831 127.19755,171.01971 C 128.4347,170.2551 128.51165,176.47172 127.28893,178.40222 C 126.63887,179.42858 125.22735,179.60428 121.78226,179.08765 C 115.95181,178.21332 106.70687,180.69468 105.18246,183.54307 C 104.32428,185.14659 103.08045,185.5221 98.627113,185.5221 C 94.639993,185.5221 92.971293,185.10614 92.549573,184.00716 z M 98.193683,172.14454 C 98.193683,171.93689 97.508383,171.19824 96.670793,170.5031 C 95.397443,169.44632 95.251113,169.50818 95.777783,170.88066 C 96.315673,172.28239 98.193683,173.26488 98.193683,172.14454 z M 150.69368,184.5221 C 151.0336,183.9721 151.76171,183.5221 152.31171,183.5221 C 152.86171,183.5221 153.0336,183.9721 152.69368,184.5221 C 152.35376,185.0721 151.62565,185.5221 151.07565,185.5221 C 150.52565,185.5221 150.35376,185.0721 150.69368,184.5221 z M 133.19368,183.58112 C 133.19368,182.99866 133.64368,182.5221 134.19368,182.5221 C 134.74368,182.5221 135.19368,182.72054 135.19368,182.96308 C 135.19368,183.20562 134.74368,183.68218 134.19368,184.0221 C 133.64368,184.36202 133.19368,184.16358 133.19368,183.58112 z M 145.43745,178.85336 C 144.74652,178.57721 144.43558,177.93971 144.74647,177.43669 C 145.05735,176.93367 144.4333,176.5221 143.35969,176.5221 C 140.86474,176.5221 139.87619,174.03048 141.75312,172.47277 C 142.54543,171.81521 143.19368,170.81257 143.19368,170.24467 C 143.19368,169.67677 142.29368,170.02661 141.19368,171.0221 C 139.26021,172.77187 139.19319,172.76871 139.17894,170.92709 C 139.16676,169.35324 138.93909,169.45667 137.86919,171.5221 C 136.87978,173.43213 135.88207,173.96983 133.64137,173.80063 C 130.68127,173.57709 127.87348,170.98271 128.51353,169.06254 C 128.96981,167.69372 130.76877,168.63599 130.4392,170.07117 C 130.29923,170.68066 131.341,171.79817 132.75423,172.55451 C 134.95797,173.73391 135.45467,173.72272 136.2434,172.47589 C 136.74921,171.6763 137.16995,170.03616 137.17837,168.83112 C 137.20069,165.63693 138.87452,165.11431 139.61632,168.06991 C 140.40021,171.19318 142.19368,170.33778 142.19368,166.84064 C 142.19368,164.67542 142.42669,164.47059 143.69368,165.5221 C 144.62674,166.29647 145.19368,166.36803 145.19368,165.71143 C 145.19368,165.13087 146.56531,164.69486 148.24175,164.74253 C 150.66042,164.8113 151.1372,165.15884 150.55074,166.42565 C 150.14425,167.3037 149.88958,169.8221 149.98481,172.0221 C 150.11384,175.00308 149.90043,175.63997 149.1471,174.5221 C 148.3708,173.37013 148.20092,173.69383 148.41497,175.91721 C 148.69614,178.83789 147.74515,179.77567 145.43745,178.85336 z M 146.75012,171.89094 C 146.22414,169.79529 145.85355,169.5595 144.65248,170.55629 C 142.72364,172.15709 142.81111,173.51953 144.94368,175.09197 C 147.01213,176.61714 147.65182,175.4836 146.75012,171.89094 z M 147.85596,167.2721 C 147.57855,166.5846 147.35157,167.1471 147.35157,168.5221 C 147.35157,169.8971 147.57855,170.4596 147.85596,169.7721 C 148.13337,169.0846 148.13337,167.9596 147.85596,167.2721 z M 145.19368,167.96308 C 145.19368,167.72054 144.74368,167.5221 144.19368,167.5221 C 143.64368,167.5221 143.19368,167.99866 143.19368,168.58112 C 143.19368,169.16358 143.64368,169.36202 144.19368,169.0221 C 144.74368,168.68218 145.19368,168.20562 145.19368,167.96308 z M 335.75823,132.27211 C 335.55325,131.58461 335.1315,130.23461 334.821,129.27211 C 334.5105,128.30961 334.53022,127.52211 334.86482,127.52211 C 335.80237,127.52211 338.1262,130.87002 338.16188,132.27211 C 338.17937,132.95961 337.72956,133.52211 337.1623,133.52211 C 336.59503,133.52211 335.9632,132.95961 335.75823,132.27211 z M 286.19368,129.52211 C 286.19368,127.65545 286.46035,127.38878 287.39368,128.32211 C 288.32701,129.25545 288.32701,129.78878 287.39368,130.72211 C 286.46035,131.65545 286.19368,131.38878 286.19368,129.52211 z M 357.19368,113.10545 C 357.19368,112.23461 357.90618,111.52211 358.77701,111.52211 C 359.64785,111.52211 360.18222,112.05649 359.96451,112.70961 C 359.34644,114.56384 357.19368,114.87137 357.19368,113.10545 z M 350.86035,74.855447 C 349.87551,73.870607 350.05041,70.522111 351.08669,70.522111 C 351.97986,70.522111 353.19368,72.873597 353.19368,74.603897 C 353.19368,75.673337 351.82571,75.820807 350.86035,74.855447 z "
       style="fill:black"
       id="path5409" />
  </g>
</svg>
