<?xml version="1.0" encoding="utf-8"?>
<!-- Generator: Adobe Illustrator 16.0.0, SVG Export Plug-In . SVG Version: 6.00 Build 0)  -->
<!DOCTYPE svg PUBLIC "-//W3C//DTD SVG 1.1//EN" "http://www.w3.org/Graphics/SVG/1.1/DTD/svg11.dtd">
<svg version="1.1"
	 id="svg2" xmlns:dc="http://purl.org/dc/elements/1.1/" xmlns:cc="http://creativecommons.org/ns#" xmlns:svg="http://www.w3.org/2000/svg" xmlns:rdf="http://www.w3.org/1999/02/22-rdf-syntax-ns#" xmlns:sodipodi="http://sodipodi.sourceforge.net/DTD/sodipodi-0.dtd" xmlns:inkscape="http://www.inkscape.org/namespaces/inkscape" inkscape:version="0.91 r13725" sodipodi:docname="Flag-map_of_Luxembourg.svg"
	 xmlns="http://www.w3.org/2000/svg" xmlns:xlink="http://www.w3.org/1999/xlink" x="0px" y="0px" width="405.279px" height="440px"
	 viewBox="0 0 405.279 440" enable-background="new 0 0 405.279 440" xml:space="preserve">
<sodipodi:namedview  id="namedview10" fit-margin-left="0" showgrid="false" fit-margin-top="0" pagecolor="#ffffff" inkscape:cx="383.53304" gridtolerance="10" inkscape:zoom="0.84429329" objecttolerance="10" bordercolor="#666666" inkscape:cy="317.85391" borderopacity="1" guidetolerance="10" inkscape:current-layer="svg2" inkscape:window-maximized="1" inkscape:window-y="-8" inkscape:pageopacity="0" inkscape:window-height="837" inkscape:pageshadow="2" inkscape:window-x="-8" fit-margin-right="0" fit-margin-bottom="0" inkscape:window-width="1600">
	</sodipodi:namedview>
<g>
	<path id="rect8" inkscape:connector-curvature="0" fill="#FFFFFF" stroke="#00A1DE" stroke-width="1.5" stroke-miterlimit="1" d="
		M81.816,150.766c0.158,0.729,0.429,1.596,0.301,2.267c-0.084,0.442-0.451,0.962-0.745,1.303c-0.649,0.752-2.071,1.208-2.606,2.047
		c-0.524,0.822-0.574,2.204-0.744,3.165c-0.245,1.385-0.56,3.91-0.56,4.655s0.931,0.536,0.931,0.931
		c0,0.553-0.865,0.964-1.303,1.303c-0.614,0.474-1.618,0.83-2.232,1.303c-1.001,0.771-2.046,2.125-2.979,2.979
		c-0.966,0.883-2.643,1.691-3.351,2.792c-0.344,0.536-0.819,1.468-0.559,2.048c0.306,0.685,1.613,0.696,2.234,1.116
		c0.557,0.377,1.102,1.138,1.676,1.489c0.92,0.562,2.329,0.955,3.35,1.303c0.937,0.319,2.251,0.551,3.165,0.932
		c1.177,0.489,2.731,1.25,3.724,2.047c0.463,0.373,0.871,1.082,1.302,1.49c0.463,0.437,1.361,0.75,1.676,1.303
		c0.223,0.392,0.452,1.125,0.186,1.488c-0.37,0.504-1.959-0.246-2.047,0.373c-0.07,0.494,1.144,0.383,1.489,0.744
		c0.38,0.397,1.021,1.199,0.745,1.676c-0.282,0.484-1.368-0.082-1.861,0.187c-0.628,0.341-0.776,1.924-1.489,1.86
		c-0.697-0.062-0.418-2.033-1.118-2.047c-0.325-0.008-0.282,0.756-0.558,0.931c-0.522,0.327-1.475,0.413-2.048,0.187
		c-0.625-0.248-0.863-1.429-1.489-1.676c-0.573-0.227-1.545-0.174-2.047,0.186c-0.447,0.32-0.846,1.136-0.745,1.677
		c0.086,0.465,0.935,0.68,1.116,1.118c0.192,0.463,0.055,1.174,0,1.674c-0.056,0.512-0.499,1.177-0.371,1.676
		c0.146,0.575,1.128,0.921,1.302,1.489c0.132,0.431,0.075,1.122-0.186,1.489c-0.216,0.307-0.758,0.449-1.116,0.559
		c-0.862,0.261-2.283-0.199-2.979,0.373c-0.273,0.224-0.568,0.822-0.373,1.115c0.403,0.606,1.726-0.035,2.419,0.187
		c0.621,0.198,1.568,0.537,1.863,1.118c0.279,0.55,0.269,1.631-0.187,2.047c-0.206,0.188-0.663,0.081-0.931,0
		c-0.386-0.117-0.714-0.766-1.116-0.744c-0.436,0.023-0.999,0.512-1.118,0.932c-0.193,0.68,0.49,1.576,0.745,2.233
		c0.199,0.513,1.062,1.226,0.744,1.675c-0.39,0.547-1.564-0.117-2.232-0.187c-0.448-0.047-1.134-0.461-1.49-0.187
		c-0.669,0.517-0.521,1.961-0.373,2.793c0.189,1.057,1.274,2.168,1.676,3.164c0.152,0.377,0.268,0.91,0.373,1.303
		c0.119,0.445,0.549,1.063,0.373,1.49c-0.125,0.301-0.755,0.283-0.931,0.558c-0.273,0.426-0.267,1.176-0.187,1.676
		c0.106,0.667,0.462,1.562,0.931,2.047c0.26,0.269,0.864,0.284,1.118,0.56c0.204,0.222,0.396,0.632,0.373,0.931
		c-0.026,0.325-0.495,0.61-0.56,0.932c-0.64,3.149-0.462,8.058,1.49,10.609c0.258,0.338,0.881,0.508,1.303,0.56
		c0.674,0.08,1.58-0.189,2.234-0.373c0.579-0.162,1.291-0.554,1.861-0.744c0.604-0.203,1.412-0.605,2.047-0.558
		c0.549,0.041,1.194,0.479,1.676,0.743c0.353,0.193,0.724,0.833,1.116,0.745c0.636-0.144,0.627-1.435,1.118-1.861
		c0.321-0.278,0.882-0.616,1.303-0.56c0.354,0.048,0.712,0.462,0.931,0.744c0.336,0.436,0.683,1.13,0.744,1.677
		c0.063,0.565-0.517,1.31-0.373,1.86c0.13,0.498,0.792,0.904,1.118,1.304c0.402,0.493,1.051,1.09,1.303,1.675
		c0.291,0.675,0.066,1.753,0.373,2.421c0.215,0.47,0.819,0.883,1.116,1.304c0.259,0.368,0.566,0.889,0.745,1.303
		c0.302,0.697,0.534,1.688,0.744,2.421c0.239,0.833,0.287,2.056,0.745,2.792c0.313,0.504,1.126,0.833,1.489,1.303
		c0.611,0.791,0.96,2.131,1.49,2.979c0.486,0.775,1.339,1.668,1.861,2.42c0.301,0.434,0.531,1.146,0.931,1.49
		c0.323,0.276,1.004,0.256,1.303,0.558c0.511,0.516,0.695,1.548,0.931,2.233c0.207,0.603,0.782,1.451,0.558,2.049
		c-0.282,0.754-1.829,0.793-2.234,1.488c-0.394,0.678-0.089,1.828-0.187,2.606c-0.078,0.618-0.229,1.438-0.371,2.048
		c-0.092,0.395-0.338,0.896-0.373,1.303c-0.042,0.504-0.202,1.35,0.186,1.676c0.686,0.575,2.142-0.504,2.979-0.188
		c0.665,0.252,1.039,1.357,1.675,1.676c0.706,0.354,1.835,0.543,2.606,0.373c1.104-0.242,2.16-1.529,3.165-2.049
		c1.068-0.553,2.524-1.596,3.723-1.488c0.524,0.047,1.078,0.604,1.49,0.932c0.556,0.441,1.272,1.09,1.674,1.676
		c0.312,0.453,0.631,1.136,0.745,1.675c0.116,0.546-0.233,1.354,0,1.862c0.215,0.468,0.918,0.773,1.303,1.115
		c0.681,0.604,1.687,1.321,2.234,2.047c0.226,0.3,0.585,0.744,0.558,1.117c-0.062,0.881-1.094,1.756-1.676,2.42
		c-0.547,0.625-1.481,1.254-2.047,1.861c-0.677,0.729-1.488,1.785-2.048,2.605c-0.502,0.736-1.049,1.688-1.521,2.552h210.919
		c0.526-0.331,1.202-0.601,1.698-0.875c1.794-0.994,4.227-2.251,5.957-3.353c0.81-0.516,1.903-1.205,2.605-1.86
		c0.579-0.542,1.166-1.438,1.674-2.048c0.608-0.73,1.323-1.805,2.05-2.42c0.494-0.422,1.25-0.892,1.86-1.116
		c0.318-0.118,0.896,0.073,1.116-0.187c0.216-0.256,0.068-0.789,0-1.117c-0.114-0.537-0.601-1.146-0.744-1.677
		c-0.132-0.487-0.484-1.266-0.187-1.674c0.335-0.46,1.309-0.233,1.86-0.373c0.564-0.141,1.402-0.198,1.862-0.558
		c0.258-0.2,0.555-0.605,0.559-0.932c0.005-0.451-0.423-0.99-0.744-1.304c-0.683-0.661-2.143-0.798-2.792-1.487
		c-0.55-0.582-0.975-1.636-1.116-2.422c-0.142-0.771,0.157-1.822,0.186-2.604c0.021-0.56,0-1.306,0-1.863v-2.419
		c0-0.67-0.106-1.572,0-2.232c0.085-0.523,0.279-1.227,0.559-1.677c0.54-0.874,1.635-1.76,2.421-2.42
		c0.521-0.438,1.393-0.81,1.86-1.303c0.362-0.384,0.785-0.982,0.932-1.489c0.153-0.537,0.11-1.314,0-1.861
		c-0.171-0.832-0.713-1.857-1.117-2.605c-0.385-0.708-1.461-1.43-1.489-2.234c-0.016-0.449,0.496-0.928,0.745-1.303
		c0.508-0.764,1.746-1.512,1.861-2.42c0.054-0.422-0.287-0.977-0.56-1.303c-0.388-0.465-1.191-0.754-1.675-1.117
		c-0.76-0.572-2.329-1.102-2.421-2.049c-0.034-0.355,0.467-0.705,0.745-0.931c0.582-0.471,1.618-0.688,2.232-1.116
		c0.941-0.652,2.105-1.688,2.794-2.605c0.298-0.4,0.529-1.038,0.743-1.489c0.291-0.608,0.581-1.471,0.933-2.048
		c0.328-0.545,1.307-1.038,1.303-1.675c-0.003-0.358-0.515-0.659-0.745-0.933c-0.434-0.515-0.875-1.398-1.489-1.675
		c-0.254-0.112-0.673-0.106-0.931,0c-0.438,0.183-0.877,0.708-1.117,1.116c-0.412,0.701-0.358,1.891-0.744,2.605
		c-0.242,0.453-0.648,1.09-1.116,1.305c-0.509,0.232-1.367,0.258-1.861,0c-0.604-0.314-0.938-1.288-1.304-1.862
		c-0.419-0.651-0.787-1.653-1.304-2.233c-0.371-0.416-0.96-0.94-1.488-1.116c-0.583-0.194-1.437,0.06-2.048,0
		c-0.566-0.058-1.384-0.062-1.861-0.372c-0.403-0.262-0.684-0.893-0.932-1.303c-0.259-0.429-0.406-1.123-0.743-1.49
		c-0.575-0.628-1.664-1.098-2.421-1.489c-0.379-0.196-0.88-0.597-1.303-0.558c-0.602,0.055-1.22,0.721-1.676,1.115
		c-0.568,0.492-1.175,1.301-1.676,1.861c-0.448,0.501-0.956,1.268-1.489,1.676c-0.297,0.229-0.765,0.432-1.117,0.56
		c-0.701,0.251-1.68,0.475-2.42,0.56c-1.165,0.133-2.737,0.059-3.908,0c-0.561-0.027-1.452,0.195-1.861-0.188
		c-0.248-0.232,0.028-0.854-0.187-1.116c-0.492-0.603-1.679-0.696-2.42-0.931c-0.438-0.14-1.051-0.234-1.49-0.373
		c-0.741-0.234-1.687-0.674-2.419-0.932c-1.218-0.427-2.962-0.688-4.096-1.303c-0.697-0.378-1.495-1.105-2.047-1.676
		c-0.831-0.859-1.826-2.129-2.421-3.165c-0.513-0.89-0.709-2.328-1.304-3.165c-0.391-0.549-1.194-1.018-1.674-1.489
		c-0.707-0.692-1.305-1.86-2.234-2.419c-0.932-0.559-1.211-1.671-1.676-2.421c-0.305-0.488-0.496-1.299-0.932-1.675
		c-0.361-0.312-1.023-0.456-1.488-0.559c-0.767-0.166-1.822-0.158-2.605-0.187c-0.782-0.028-1.855-0.22-2.607,0
		c-0.699,0.204-1.559,0.763-2.047,1.303c-0.502,0.556-0.83,1.542-1.117,2.234c-0.271,0.653-0.488,1.575-0.744,2.233
		c-0.197,0.514-0.282,1.375-0.744,1.674c-0.702,0.457-1.984,0.224-2.793,0c-0.627-0.174-1.5-0.573-1.86-1.115
		c-0.438-0.658-0.315-1.819-0.372-2.607c-0.052-0.724-0.023-1.693,0-2.419c0.027-0.896,0.449-2.124,0.186-2.979
		c-0.188-0.607-0.963-1.135-1.303-1.674c-0.4-0.634-0.842-1.537-1.117-2.233c-0.215-0.542-0.287-1.345-0.559-1.861
		c-0.332-0.633-0.873-1.498-1.488-1.86c-1.414-0.836-4.183,0.174-5.397-0.932c-0.474-0.428-0.188-1.531-0.56-2.048
		c-0.354-0.49-1.26-0.679-1.676-1.117c-0.449-0.471-0.551-1.54-1.117-1.86c-0.389-0.221-1.051-0.088-1.488,0
		c-0.713,0.143-1.514,1.009-2.233,0.931c-0.679-0.073-1.34-0.865-1.86-1.304c-1.271-1.065-2.811-2.668-3.91-3.909
		c-0.66-0.744-1.625-1.706-2.047-2.606c-0.341-0.724,0.08-2.124-0.56-2.605c-0.67-0.506-2.015,0.505-2.791,0.187
		c-0.623-0.255-1.067-1.151-1.49-1.676c-0.477-0.591-1.095-1.397-1.489-2.047c-0.26-0.427-0.531-1.037-0.744-1.489
		c-0.234-0.498-0.521-1.173-0.744-1.676c-0.225-0.503-1.045-1.215-0.744-1.676c0.15-0.234,0.662,0.08,0.93,0
		c0.387-0.117,0.91-0.399,1.118-0.744c0.289-0.481,0.287-1.311,0.187-1.862c-0.113-0.614-0.586-1.342-0.932-1.86
		c-0.285-0.431-0.688-1.022-1.117-1.305c-0.49-0.318-1.361-0.259-1.861-0.558c-0.475-0.284-1.364-0.755-1.303-1.304
		c0.062-0.523,1.127-0.55,1.489-0.932c0.396-0.417,0.843-1.105,0.931-1.674c0.088-0.562-0.315-1.294-0.373-1.861
		c-0.055-0.556,0-1.304,0-1.863c0-0.502,0.125-1.188,0-1.674c-0.141-0.552-0.502-1.192-0.867-1.709H81.816L81.816,150.766z"/>
	<path id="rect4" inkscape:connector-curvature="0" fill="#00A1DE" d="M115.802,287.881c-0.4,0.669-0.796,1.375-1.109,1.973
		c-0.43,0.817-1.05,1.901-1.303,2.791c-0.261,0.92-0.416,2.211-0.371,3.166c0.038,0.797-0.005,2.039,0.558,2.604
		c1.088,1.097,3.605,0.511,5.026,1.117c0.741,0.314,1.487,1.188,2.234,1.489c0.579,0.232,1.44,0.224,2.047,0.371
		c0.738,0.18,1.701,0.504,2.421,0.744c0.62,0.209,1.42,0.562,2.047,0.746c0.495,0.145,1.211,0.148,1.676,0.372
		c0.323,0.153,0.776,0.422,0.931,0.743c0.315,0.654,0.097,1.701,0,2.422c-0.084,0.631-0.355,1.443-0.558,2.047
		c-0.287,0.855-0.947,1.906-1.118,2.792c-0.147,0.769-0.051,1.825,0,2.606c0.056,0.844,0.242,1.957,0.373,2.792
		c0.097,0.616,0.525,1.441,0.372,2.048c-0.087,0.347-0.476,0.695-0.745,0.932c-0.49,0.428-1.215,1.195-1.861,1.116
		c-0.392-0.05-0.581-0.748-0.931-0.931c-0.553-0.291-1.447-0.541-2.048-0.373c-0.647,0.182-1.227,0.985-1.674,1.488
		c-0.453,0.51-1.32,1.182-1.303,1.862c0.016,0.637,1.375,1.042,1.303,1.675c-0.088,0.788-1.576,1.038-2.048,1.677
		c-0.611,0.823-1.137,2.15-1.303,3.163c-0.135,0.829,0.159,1.953,0.187,2.793c0.026,0.78,0.209,1.854,0,2.605
		c-0.087,0.314-0.293,0.741-0.558,0.931c-0.883,0.63-2.567,0.26-3.537,0.744c-0.531,0.267-1.024,0.935-1.489,1.304
		c-0.97,0.771-2.429,1.593-3.352,2.422c-0.559,0.502-1.377,1.172-1.676,1.86c-0.267,0.616-0.313,1.573-0.186,2.233
		c0.118,0.612,0.549,1.367,0.931,1.861c0.363,0.47,0.933,1.094,1.489,1.304c0.836,0.312,2.209,0.453,2.979,0
		c0.496-0.292,0.435-1.385,0.931-1.676c0.481-0.284,1.353-0.231,1.861,0c0.541,0.245,1.094,0.933,1.303,1.487
		c0.177,0.472,0.279,1.258,0,1.676c-0.403,0.604-1.831,0.326-2.234,0.932c-0.155,0.231-0.119,0.678,0,0.931
		c0.185,0.396,0.845,0.589,1.116,0.932c0.31,0.392,0.745,0.988,0.745,1.488c0,0.374-0.297,0.85-0.558,1.117
		c-0.574,0.592-1.794,0.767-2.419,1.304c-0.423,0.364-0.904,0.974-1.118,1.488c-0.151,0.365,0.079,1.011-0.186,1.304
		c-0.309,0.343-1.051,0.233-1.49,0.372c-0.742,0.235-1.756,0.524-2.419,0.932c-0.641,0.393-1.683,0.943-1.862,1.675
		c-0.113,0.464,0.503,1.016,0.559,1.49c0.052,0.446,0.034,1.097-0.186,1.488c-0.349,0.624-1.209,1.194-1.861,1.488
		c-1.188,0.536-2.997,0.963-4.282,0.745c-0.567-0.096-1.104-0.854-1.674-0.931c-0.913-0.12-2.099,0.472-2.979,0.743
		c-1.081,0.332-3.212,0.221-3.537,1.304c-0.378,1.263,1.944,2.396,2.606,3.537c0.276,0.477,0.343,1.301,0.745,1.676
		c0.478,0.444,1.401,0.846,2.047,0.744c0.629-0.101,1.088-1.058,1.676-1.303c1.196-0.499,3.138-1.168,4.281-0.56
		c0.551,0.293,0.708,1.278,0.931,1.861c0.228,0.596,0.475,1.417,0.56,2.048c0.082,0.607,0.141,1.449,0,2.048
		c-0.115,0.486-0.521,1.043-0.745,1.49c-0.279,0.558-0.762,1.259-0.931,1.86c-0.181,0.646-0.373,1.587-0.187,2.233
		c0.232,0.805,1.04,1.689,1.676,2.234c0.721,0.616,2.188,0.755,2.792,1.487c0.483,0.586,0.222,1.869,0.745,2.42
		c0.45,0.474,1.496,0.395,2.047,0.745c0.399,0.254,0.817,0.749,1.118,1.116c0.766,0.935,1.367,2.51,2.234,3.353
		c0.378,0.366,0.982,0.783,1.489,0.931c0.537,0.153,1.303,0.016,1.861,0c1.007-0.028,2.356-0.34,3.352-0.188
		c0.472,0.072,1.047,0.381,1.489,0.561c0.509,0.208,1.131,0.669,1.676,0.744c0.782,0.107,1.899-0.021,2.605-0.372
		c0.565-0.283,0.992-1.102,1.49-1.489c0.514-0.4,1.218-1.021,1.862-1.116c1.139-0.17,2.643,0.531,3.723,0.931
		c0.703,0.261,1.527,0.868,2.234,1.116c0.754,0.266,1.81,0.475,2.605,0.56c1,0.104,2.346,0,3.352,0c0.95,0,2.227-0.145,3.165,0
		c0.925,0.14,2.148,0.497,2.978,0.93c0.564,0.296,1.108,1.016,1.676,1.304c0.725,0.367,1.98,0.227,2.606,0.745
		c0.288,0.238,0.677,0.761,0.558,1.116c-0.158,0.474-1.128,0.399-1.489,0.745c-0.416,0.396-1.12,1.132-0.931,1.676
		c0.238,0.686,1.661,0.485,2.234,0.931c0.44,0.345,1.047,0.936,1.116,1.489c0.09,0.72-0.365,1.777-0.931,2.233
		c-0.486,0.392-1.753-0.179-2.048,0.373c-0.201,0.374,0.366,0.924,0.56,1.303c0.296,0.579,0.85,1.268,1.116,1.861
		c0.383,0.854,0.581,2.108,0.931,2.978c0.28,0.695,0.373,2.154,1.118,2.234c0.355,0.037,0.48-0.689,0.744-0.932
		c0.297-0.271,0.719-0.689,1.118-0.744c0.525-0.069,1.365,0.13,1.674,0.56c0.294,0.407,0.139,1.189,0,1.675
		c-0.145,0.506-0.435,1.312-0.931,1.489c-0.333,0.12-0.782-0.487-1.116-0.372c-0.762,0.261-1.498,1.428-1.489,2.232
		c0.008,0.683,0.64,1.704,1.303,1.862c1.604,0.38,3.562-1.562,4.839-2.606c0.338-0.275,0.516-0.98,0.931-1.116
		c0.438-0.144,1.081,0.162,1.49,0.373c0.847,0.434,1.496,1.818,2.419,2.047c0.5,0.123,1.178-0.241,1.676-0.372
		c0.735-0.195,1.686-0.551,2.419-0.744c0.498-0.131,1.168-0.455,1.676-0.373c0.322,0.052,0.928,0.232,0.931,0.56
		c0.005,0.525-1.235,0.47-1.49,0.931c-0.352,0.635-0.514,1.906,0,2.42c0.79,0.79,2.61-0.08,3.724,0
		c0.788,0.056,1.939,0.798,2.605,0.372c0.491-0.314,0.343-1.319,0.558-1.861c0.368-0.93,1.132-2.046,1.49-2.978
		c0.375-0.976,0.299-2.521,0.931-3.353c0.592-0.776,1.862-1.376,2.792-1.676c0.64-0.207,1.562-0.206,2.234-0.186
		c0.79,0.021,1.829,0.232,2.606,0.372c0.787,0.141,1.982,0.058,2.605,0.559c0.525,0.423,0.546,1.494,0.931,2.048
		c0.629,0.908,1.757,1.897,2.606,2.605c0.678,0.565,1.577,1.412,2.419,1.676c0.64,0.2,1.76,0.474,2.234,0
		c0.632-0.633,0.049-2.087,0-2.979c-0.056-1.01-0.351-2.338-0.371-3.35c-0.015-0.783-0.004-1.847,0.186-2.605
		c0.133-0.534,0.293-1.361,0.745-1.676c0.782-0.541,2.214-0.203,3.165-0.187c0.617,0.009,1.491,0.453,2.046,0.187
		c0.545-0.261,0.854-1.133,1.119-1.676c0.311-0.635,0.492-1.573,0.743-2.232c0.302-0.797,0.925-1.778,1.118-2.606
		c0.23-0.979-0.003-2.361,0.186-3.351c0.134-0.693,0.082-1.995,0.746-2.233c0.991-0.357,1.931,1.736,2.978,1.861
		c0.524,0.062,1.269-0.896,1.676-0.56c0.651,0.538-1.049,2.285-0.373,2.792c0.882,0.659,2.443-0.864,3.353-1.489
		c0.586-0.401,1.018-1.402,1.676-1.676c0.516-0.213,1.309,0.089,1.861,0c0.348-0.057,1.002-0.038,1.117-0.372
		c0.195-0.57-0.734-1.208-1.117-1.675c-0.451-0.55-1.455-1.001-1.676-1.676c-0.229-0.698-0.097-1.854,0.371-2.419
		c0.528-0.642,1.84-0.614,2.606-0.931c0.969-0.4,2.133-1.302,3.163-1.49c0.718-0.132,1.705,0.05,2.421,0.187
		c0.745,0.143,1.67,0.631,2.421,0.744c1.38,0.207,3.257,0,4.652,0c1.229,0,2.945,0.433,4.097,0c0.555-0.21,0.944-1.062,1.487-1.304
		c0.875-0.389,2.215-0.271,3.166-0.371c0.612-0.063,1.432-0.225,2.047-0.188c0.8,0.049,1.865,0.858,2.605,0.559
		c0.373-0.15,0.543-0.769,0.745-1.116c0.188-0.324,0.208-0.983,0.558-1.116c0.562-0.213,1.39,0.373,1.861,0.744
		c0.379,0.297,0.495,1.102,0.932,1.303c0.609,0.282,1.597-0.397,2.233-0.186c0.638,0.212,1.091,1.157,1.677,1.489
		c0.967,0.549,2.465,0.812,3.537,1.115c0.664,0.188,1.621,0.238,2.233,0.561c0.524,0.273,1.267,0.751,1.489,1.302
		c0.252,0.623-0.439,1.61-0.187,2.234c0.224,0.55,1.093,0.86,1.488,1.303c0.454,0.508,0.815,1.384,1.303,1.861
		c0.433,0.422,1.259,0.68,1.675,1.117c0.225,0.235,0.446,0.625,0.561,0.932c0.117,0.316,0.145,0.779,0.186,1.116
		c0.088,0.722-0.168,1.784,0.188,2.421c0.369,0.662,1.352,1.184,2.048,1.488c0.521,0.229,1.312,0.52,1.86,0.372
		c0.573-0.153,0.912-1.163,1.488-1.304c0.447-0.107,1.164,0.047,1.49,0.373s-0.064,1.341,0.371,1.488
		c0.338,0.113,0.574-0.729,0.932-0.745c0.805-0.034,1.754,0.844,2.233,1.49c0.346,0.468,0.327,1.327,0.56,1.86
		c0.309,0.712,0.606,1.892,1.303,2.234c0.809,0.398,2.096-0.549,2.979-0.373c0.441,0.088,0.891,0.566,1.305,0.744
		c0.534,0.229,1.295,0.418,1.86,0.56c0.828,0.207,2.01,0.213,2.792,0.559c0.95,0.419,1.896,1.521,2.792,2.047
		c0.582,0.341,1.412,1.156,2.049,0.932c0.353-0.125,0.498-0.747,0.558-1.117c0.127-0.778-0.295-1.819-0.371-2.605
		c-0.101-1.002-0.123-2.345-0.187-3.351c-0.051-0.781-0.204-1.822-0.188-2.605c0.033-1.461,0.476-3.381,0.561-4.841
		c0.038-0.669,0.119-1.573,0-2.232c-0.171-0.938-1.025-2.03-1.117-2.979c-0.1-1.015,0.499-2.333,0.559-3.351
		c0.062-1.115-0.008-2.62-0.187-3.725c-0.167-1.029-0.684-2.337-0.931-3.351c-0.258-1.055-0.363-2.522-0.745-3.536
		c-0.36-0.961-1.414-1.986-1.675-2.979c-0.227-0.864-0.301-2.137,0-2.979c0.267-0.748,1.182-1.426,1.675-2.048
		c0.569-0.718,1.289-1.705,1.86-2.421c0.545-0.682,1.274-1.59,1.863-2.233c0.639-0.7,1.653-1.481,2.232-2.232
		c0.473-0.615,1.102-1.484,1.303-2.232c0.292-1.078,0.516-2.734,0-3.726c-0.314-0.604-1.351-0.85-1.861-1.302
		c-0.562-0.499-1.062-1.428-1.674-1.862c-0.938-0.667-2.602-0.818-3.537-1.489c-0.547-0.392-1.213-1.062-1.49-1.676
		c-0.186-0.409-0.317-1.058-0.186-1.488c0.174-0.567,0.973-0.995,1.303-1.488c0.278-0.415,0.308-1.25,0.746-1.489
		c0.889-0.483,2.369,0.118,3.351,0.371c0.702,0.182,1.511,1.003,2.233,0.933c0.399-0.039,0.865-0.43,1.115-0.744
		c0.297-0.375,0.66-1.022,0.561-1.489c-0.151-0.694-1.174-1.173-1.676-1.677c-0.279-0.278-0.725-0.595-0.932-0.931
		c-0.277-0.45-0.508-1.146-0.559-1.676c-0.079-0.842,0.058-2.007,0.371-2.792c0.283-0.705,0.933-1.531,1.49-2.047
		c0.625-0.579,1.6-1.258,2.42-1.49c0.807-0.228,2.043,0.374,2.791,0c0.5-0.249,0.793-1.035,1.118-1.488
		c0.632-0.881,1.354-2.146,2.047-2.979c0.605-0.729,1.579-1.547,2.234-2.232c0.572-0.601,1.243-1.494,1.861-2.049
		c0.563-0.508,1.612-0.866,2.048-1.488c0.466-0.667,0.512-1.826,0.744-2.605c0.216-0.729,0.504-1.7,0.745-2.42
		c1.406-4.224,3.769-9.691,5.024-13.961c0.21-0.715,0.534-1.676,0.56-2.42c0.011-0.34,0.054-0.879-0.187-1.118
		c-0.48-0.479-1.562-0.265-2.234-0.372c-0.725-0.117-1.868,0.113-2.419-0.371c-0.306-0.27-0.337-0.898-0.373-1.305
		c-0.05-0.56-0.019-1.338,0.187-1.86c0.304-0.78,1.072-1.653,1.676-2.233c0.637-0.613,1.767-1.082,2.42-1.676
		c0.704-0.64,1.501-1.642,2.048-2.42c0.965-1.371,1.854-3.452,2.792-4.84c0.559-0.824,1.288-1.965,2.048-2.607
		c0.534-0.451,1.437-0.775,2.049-1.115c0.264-0.147,0.597-0.326,0.886-0.482H115.802L115.802,287.881z"/>
	<path id="rect6" inkscape:connector-curvature="0" fill="#ED2939" d="M170.912,16.364c-0.917-0.044-1.743,1.633-2.608,2.08
		c-0.47,0.244-1.18,0.37-1.676,0.558c-0.795,0.302-1.799,0.846-2.605,1.118c-0.654,0.221-1.549,0.465-2.234,0.558
		c-2.104,0.287-4.959,0.007-7.074,0.186c-0.787,0.066-1.84,0.177-2.605,0.373c-0.462,0.118-1.136,0.238-1.49,0.558
		c-0.464,0.418-0.767,1.259-0.931,1.862c-0.22,0.81-0.184,1.953-0.186,2.792c-0.002,0.895-0.005,2.104,0.186,2.979
		c0.166,0.76,0.843,1.646,0.931,2.419c0.044,0.392-0.032,0.939-0.186,1.303c-0.356,0.844-1.477,1.59-1.862,2.421
		c-0.335,0.726-0.377,1.826-0.558,2.605c-0.156,0.673-0.498,1.546-0.559,2.234c-0.075,0.836,0.043,1.965,0.187,2.792
		c0.14,0.801,1.143,1.897,0.744,2.606c-0.625,1.109-2.852,0.842-4.096,1.118c-1.936,0.429-4.637,0.479-6.515,1.116
		c-1.136,0.385-2.495,1.269-3.537,1.861c-1.024,0.582-2.419,1.676-3.35,2.048c-0.931,0.372-1.567,1.037-2.234,1.489
		c-0.898,0.608-2.313,1.191-2.979,2.047c-0.694,0.893-0.989,2.451-1.302,3.537c-0.3,1.042-0.559,2.792-0.745,3.537
		c-0.186,0.745-1.309,2.155-1.676,3.165c-0.273,0.751-0.54,1.807-0.558,2.606c-0.023,1.019,0.44,2.337,0.558,3.35
		c0.097,0.834,0.426,1.987,0.187,2.792c-0.159,0.535-0.659,1.17-1.118,1.489c-0.813,0.564-2.239,0.581-3.165,0.931
		c-0.865,0.327-1.997,0.832-2.792,1.303c-0.894,0.529-2.162,1.223-2.792,2.048c-0.473,0.618-0.747,1.664-0.931,2.42
		c-0.24,0.982-0.55,2.355-0.373,3.352c0.109,0.614,0.477,1.433,0.931,1.861c0.31,0.292,0.962,0.304,1.303,0.558
		c0.699,0.521,1.485,1.447,1.861,2.234c0.246,0.514,0.356,1.292,0.373,1.861c0.011,0.395,0.003,0.957-0.187,1.303
		c-0.248,0.451-0.997,0.701-1.302,1.116c-0.252,0.343-0.302,0.965-0.56,1.303c-0.433,0.569-1.475,0.887-1.861,1.489
		c-0.249,0.388-0.416,1.032-0.373,1.49c0.075,0.796,1.152,1.621,1.118,2.419c-0.02,0.45-0.443,0.969-0.745,1.303
		c-0.322,0.356-1.033,0.534-1.303,0.931c-0.259,0.38-0.163,1.078-0.372,1.489c-0.197,0.389-0.574,0.866-0.931,1.118
		c-0.923,0.652-2.466,0.939-3.537,1.302c-0.719,0.243-1.678,0.585-2.421,0.745c-0.88,0.189-2.168-0.023-2.978,0.373
		c-0.638,0.312-1.42,1.012-1.676,1.676c-0.402,1.043,0.131,2.605,0.187,3.723c0.056,1.117-0.154,2.657,0.186,3.723
		c0.221,0.694,0.848,1.479,1.303,2.047c0.445,0.554,1.157,1.19,1.676,1.675c0.434,0.406,1.018,0.942,1.489,1.303
		c0.479,0.367,1.333,0.619,1.675,1.118c0.291,0.425,0.372,1.16,0.372,1.675c0,1.03-0.248,2.449-0.744,3.352
		c-0.304,0.554-0.967,1.134-1.49,1.489c-0.352,0.238-0.928,0.355-1.302,0.558c-1.062,0.575-2.228,1.79-3.352,2.234
		c-0.632,0.25-1.663,0.003-2.234,0.373c-0.507,0.328-0.917,1.105-1.116,1.676c-0.222,0.635-0.052,1.574-0.187,2.231
		c-0.106,0.52-0.128,1.366-0.558,1.676c-0.362,0.261-1.062,0.129-1.489,0c-0.771-0.233-1.439-1.36-2.234-1.489
		c-0.628-0.102-1.603,0.103-2.048,0.558c-0.322,0.329-0.008,1.206-0.372,1.489c-0.44,0.344-1.312,0.105-1.861,0
		c-0.59-0.113-1.262-0.769-1.863-0.744c-0.499,0.021-1.226,0.319-1.489,0.744c-0.234,0.38,0.171,1.077,0,1.49
		c-0.151,0.365-0.768,0.57-0.931,0.931c-0.347,0.765-0.046,1.964-0.186,2.792c-0.105,0.628-0.53,1.411-0.56,2.047
		c-0.044,0.963,0.408,2.212,0.56,3.165c0.08,0.503,0.262,1.115,0.349,1.697h160.549c-0.229-0.597-0.629-1.242-0.992-1.697
		c-0.371-0.463-1.393-0.718-1.489-1.303c-0.076-0.444,0.446-0.964,0.743-1.302c0.369-0.418,1.449-0.562,1.49-1.117
		c0.027-0.396-0.574-0.766-0.932-0.932c-0.609-0.283-1.58-0.031-2.234-0.186c-0.586-0.139-1.345-0.438-1.861-0.745
		c-0.375-0.224-0.686-0.862-1.115-0.931c-0.594-0.094-1.49,0.271-1.861,0.744c-0.486,0.621,0.338,2.259-0.371,2.605
		c-0.404,0.198-1.015-0.398-1.305-0.744c-0.421-0.5-0.597-1.412-0.745-2.049c-0.114-0.492-0.139-1.172-0.187-1.676
		c-0.067-0.725-0.133-1.693-0.188-2.419c-0.058-0.782,0.035-1.854-0.186-2.606c-0.197-0.671-0.465-1.791-1.115-2.047
		c-0.658-0.259-1.68,0.308-2.234,0.745c-0.414,0.326-0.854,0.967-0.931,1.489c-0.093,0.63,0.313,1.459,0.558,2.047
		c0.174,0.416,0.504,0.923,0.744,1.303c0.365,0.576,1.324,1.18,1.303,1.862c-0.021,0.714-0.801,1.668-1.487,1.86
		c-0.63,0.178-1.581-0.285-2.048-0.744c-0.555-0.545-0.754-1.662-0.93-2.42c-0.142-0.602,0.127-1.518-0.188-2.047
		c-0.311-0.52-1.314-0.633-1.676-1.118c-0.455-0.609-0.536-1.689-0.744-2.419c-0.301-1.055-0.975-2.441-0.932-3.537
		c0.047-1.183,0.875-2.62,1.305-3.723c0.307-0.793,1.494-1.845,1.115-2.606c-0.513-1.032-2.621-0.598-3.724-0.931
		c-0.795-0.241-1.953-0.42-2.604-0.931c-0.795-0.62-1.025-2.232-1.862-2.792c-0.237-0.158-0.649-0.142-0.931-0.186
		c-0.5-0.078-1.23,0.052-1.676-0.187c-0.77-0.413-1.634-1.392-1.861-2.234c-0.09-0.328-0.115-0.962,0.188-1.116
		c0.889-0.453,2.075,1.918,2.979,1.489c0.464-0.221,0.266-1.17,0.371-1.674c0.117-0.557,0.262-1.304,0.373-1.863
		s0.47-1.3,0.373-1.861c-0.057-0.321-0.285-0.756-0.561-0.931c-0.475-0.301-1.331-0.002-1.861-0.186
		c-0.688-0.238-1.629-0.707-2.047-1.303c-0.295-0.422-0.455-1.167-0.373-1.676c0.053-0.322,0.358-0.674,0.56-0.931
		c0.34-0.436,0.891-0.935,1.303-1.303c0.533-0.477,1.729-0.787,1.862-1.489c0.084-0.443-0.414-0.997-0.744-1.303
		c-0.952-0.884-2.983-0.952-3.91-1.861c-0.535-0.525-0.991-1.496-1.117-2.234c-0.076-0.443,0.088-1.05,0.188-1.489
		c0.195-0.861,0.789-1.92,0.931-2.792c0.072-0.441,0.127-1.061,0-1.489c-0.378-1.277-1.628-2.652-2.419-3.724
		c-0.518-0.702-1.667-1.382-1.861-2.232c-0.103-0.449,0.234-1.051,0.371-1.49c0.143-0.456,0.551-1.012,0.561-1.489
		c0.007-0.354-0.022-1.071-0.373-1.118c-0.399-0.053-0.473,0.82-0.745,1.118c-0.241,0.263-0.574,0.765-0.931,0.745
		c-0.709-0.04-1.403-1.02-1.677-1.676c-0.214-0.516-0.162-1.327,0-1.861c0.117-0.386,0.358-1.006,0.745-1.118
		c0.528-0.153,1.174,0.967,1.676,0.745c0.485-0.213,0.547-1.146,0.559-1.676c0.009-0.406-0.536-0.931-0.373-1.303
		c0.252-0.572,1.42-0.489,1.861-0.931c0.354-0.353,0.791-0.991,0.744-1.489c-0.025-0.278-0.285-0.681-0.558-0.745
		c-0.972-0.229-2.063,1.893-2.979,1.49c-0.371-0.164-0.406-0.898-0.373-1.303c0.108-1.294,1.498-2.663,1.861-3.91
		c0.126-0.432,0.253-1.044,0.188-1.489c-0.082-0.544-0.676-1.13-0.745-1.676c-0.042-0.337-0.021-0.847,0.187-1.116
		c0.411-0.536,1.428-0.666,2.047-0.931c0.553-0.236,1.484-0.277,1.862-0.745c0.213-0.265,0.291-0.793,0.187-1.116
		c-0.119-0.376-0.694-0.615-0.932-0.931c-0.419-0.56-1.027-1.354-1.117-2.048c-0.058-0.457,0.021-1.193,0.373-1.489
		c0.602-0.504,1.975,0.275,2.606-0.187c0.243-0.178,0.452-0.642,0.371-0.931c-0.15-0.538-1.239-0.617-1.488-1.117
		c-0.2-0.399-0.082-1.049,0-1.489c0.142-0.765,1.188-1.687,0.931-2.421c-0.257-0.732-1.941-0.584-2.233-1.303
		c-0.394-0.967,0.336-2.493,0.931-3.35c0.434-0.624,1.667-0.832,2.048-1.489c0.509-0.875,1.048-2.598,0.373-3.352
		c-0.521-0.583-1.885,0.299-2.606,0c-0.584-0.242-1.055-1.029-1.489-1.489c-0.461-0.49-0.929-1.304-1.49-1.675
		c-0.737-0.486-2.296-0.202-2.792-0.932c-0.565-0.833-0.186-2.416,0.188-3.351c0.543-1.361,3.07-2.26,3.164-3.723
		c0.086-1.329-2.209-2.408-2.42-3.723c-0.174-1.083,1.33-2.516,0.931-3.537c-0.531-1.356-2.852-1.849-4.095-2.606
		c-0.663-0.404-1.462-1.224-2.234-1.303c-0.351-0.037-0.766,0.33-1.116,0.373c-0.667,0.08-1.589,0.005-2.234-0.186
		c-0.791-0.235-1.61-1.146-2.419-1.304c-0.497-0.096-1.261-0.104-1.676,0.186c-0.41,0.285-0.661,0.998-0.745,1.49
		c-0.152,0.888,0.347,2.078,0.373,2.978c0.024,0.839-0.066,1.96-0.186,2.792c-0.073,0.509,0.056,1.391-0.373,1.676
		c-0.52,0.345-1.435-0.493-2.048-0.373c-0.715,0.14-1.396,0.978-2.047,1.303c-0.427,0.213-1.012,0.543-1.489,0.558
		c-1.342,0.042-3.029-0.821-4.282-1.303c-0.979-0.377-2.265-0.948-3.165-1.489c-0.957-0.576-2.315-1.335-2.978-2.234
		c-0.493-0.668-0.762-1.794-0.931-2.606c-0.171-0.822-0.018-1.97-0.187-2.792c-0.406-1.973-0.31-5.736-2.234-6.33
		C171.035,16.377,170.974,16.367,170.912,16.364z"/>
</g>
</svg>
