<?xml version="1.0" encoding="utf-8"?>
<!-- Generator: Adobe Illustrator 16.0.0, SVG Export Plug-In . SVG Version: 6.00 Build 0)  -->
<!DOCTYPE svg PUBLIC "-//W3C//DTD SVG 1.1//EN" "http://www.w3.org/Graphics/SVG/1.1/DTD/svg11.dtd">
<svg version="1.1"
	 id="svg2" xmlns:dc="http://purl.org/dc/elements/1.1/" xmlns:cc="http://creativecommons.org/ns#" xmlns:svg="http://www.w3.org/2000/svg" xmlns:rdf="http://www.w3.org/1999/02/22-rdf-syntax-ns#" xmlns:sodipodi="http://sodipodi.sourceforge.net/DTD/sodipodi-0.dtd" xmlns:inkscape="http://www.inkscape.org/namespaces/inkscape" inkscape:version="0.47 r22583" sodipodi:docname="ZZ2.svg"
	 xmlns="http://www.w3.org/2000/svg" xmlns:xlink="http://www.w3.org/1999/xlink" x="0px" y="0px" width="489px" height="442px"
	 viewBox="0 0 489 442" enable-background="new 0 0 489 442" xml:space="preserve">
<defs>
	
	
		<inkscape:perspective  id="perspective14" inkscape:vp_z="750 : 300 : 1" sodipodi:type="inkscape:persp3d" inkscape:vp_x="0 : 300 : 1" inkscape:vp_y="0 : 1000 : 0" inkscape:persp3d-origin="375 : 200 : 1">
		</inkscape:perspective>
	
		<inkscape:perspective  id="perspective2856" inkscape:vp_z="1 : 0.5 : 1" sodipodi:type="inkscape:persp3d" inkscape:vp_x="0 : 0.5 : 1" inkscape:vp_y="0 : 1000 : 0" inkscape:persp3d-origin="0.5 : 0.33333333 : 1">
		</inkscape:perspective>
	
		<inkscape:perspective  id="perspective2838" inkscape:vp_z="1 : 0.5 : 1" sodipodi:type="inkscape:persp3d" inkscape:vp_x="0 : 0.5 : 1" inkscape:vp_y="0 : 1000 : 0" inkscape:persp3d-origin="0.5 : 0.33333333 : 1">
		</inkscape:perspective>
</defs>
<sodipodi:namedview  id="namedview8" showgrid="false" pagecolor="#ffffff" inkscape:cx="-88.729191" gridtolerance="10" inkscape:zoom="0.39333333" objecttolerance="10" bordercolor="#666666" inkscape:cy="81.300327" borderopacity="1" guidetolerance="10" inkscape:current-layer="svg2" inkscape:window-maximized="1" inkscape:window-y="-8" inkscape:pageopacity="0" inkscape:window-height="1004" inkscape:pageshadow="2" inkscape:window-x="-8" inkscape:window-width="1280">
	</sodipodi:namedview>
<g>
	<path id="rect4" fill="#CE1126" stroke="#CE1126" stroke-width="1.7" d="M389.464,10.407l-1.46,5.97l5.08,6.097
		c0,0-11.624,13.783-15.241,16.046c-3.609,2.256-8.256,1.461-8.256,1.461l-21.783,9.822l-5.862,0.444l-5.886,4.53
		c0,0-2.244,1.802-4.954,1.354c-2.71-0.454-8.256-1.249-8.256-1.249l-3.493,11.177l-6.668,3.048c0,0-4.838,16.034-6.646,16.936
		c-1.803,0.907-6.099,3.493-6.099,4.848c0,1.354-1.812,17.692-2.836,19.433c-1.131,1.917-4.848,6.882-5.524,8.128
		c-0.866,1.585-1.578,9.59-2.032,10.944c-0.454,1.355-11.516,11.072-11.516,11.072l-5.42,7.896l-4.637,3.832l-8.679,11.409
		l-2.942-0.909l-7.896,8.595l-13.888-10.5l-7.45,4.402l-8.807,9.252l-0.127,3.154c0,0-7.433,8.138-9.695,9.039
		c-2.256,0.906-15.58,13.547-15.58,13.547l-9.272-3.153c0,0-1.247,0.666-1.694,2.921c-0.454,2.256,6.097,4.402,6.097,4.402
		s-2.806,3.515-5.97,4.869c-0.486,0.209-1.218,0.701-2.074,1.377h124.325l-1.334-4.318c0,0,4.509-13.207,5.524-16.702
		c1.017-3.496,1.926-14.353,1.926-14.353s12.515-21.104,14.776-24.261c2.256-3.163,11.304-16.724,11.304-16.724
		s-0.465-9.926,0.891-11.728c1.354-1.809,5.207-2.159,5.207-2.159l3.261-3.599l-0.445-0.804l-2.138,2.371l-3.048,0.127l-0.233-9.271
		c0,0,0.233-2.247,2.942-4.509c2.71-2.256,9.136-5.525,10.268-4.509c2.554,2.296,2.139,3.726,2.139,3.726l-2.478,2.815l1.46,1.588
		l6.33-6.436l-1.122-1.355l-1.588,1.355l-2.265-2.159c0,0,0.446-5.074,3.387-8.129c2.818-2.933,11.305-4.276,11.305-4.276l3.6,2.244
		v2.709l-4.511,2.032l1.018,2.032l4.848-2.138l0.91-4.17l4.063-2.709l-1.799-2.265l-2.266,2.371l-3.387-4.975
		c0,0,2.604-3.048,5.312-4.403c2.459-1.226,4.614-1.228,4.614-1.228l7.451,14.099l11.178,4.742l8.7-4.509l-3.154-45.281l7.219-3.726
		l-2.371-4.064l-5.862,3.62l-2.159-7.452l3.958-12.193l-6.773-10.055c0,0-1.461,0.678-4.171,0.678S389.464,10.407,389.464,10.407z"
		/>
	<path id="rect6" fill="#FFFFFF" stroke="#CE1126" stroke-width="1.7" d="M179.999,210.602
		c-4.702,3.705-13.739,13.062-13.739,13.062s-18.873,14.821-21.338,16.258c-2.709,1.578-28.006,26.651-29.022,29.699
		c-0.569,1.692,2.498,5.524,2.498,5.524l-0.678,4.403v4.636l2.583,8.234l-0.551,5.314v7.684c0,1.803-4.064,3.154-4.064,3.154
		s-7.24-0.447-8.594,0c-0.854,0.283-7.802,4.373-12.829,7.367c-2.947,1.746-5.229,3.133-5.229,3.133L74.81,337.127
		c0,0,13.154,11.264,27.583,23.646c16.881,14.475,35.495,30.487,36.876,31.795c1.995,1.894,18.982,18.374,22.756,21.254h1.757
		c5.604-3.505,28.112-27.117,28.112-27.117l32.621-20.788l-1.355-3.493l-3.493,1.461l-0.572,2.604c0,0-7.781,5.071-9.589,5.524
		c-1.802,0.454-4.859-3.829-6.668-5.631c-1.809-1.809-2.71-7.24-2.71-8.595v-1.354l0.783-3.388l-0.105-6.435l-1.016,0.231
		l-0.783,5.146l-0.678,2.074l-5.546-0.213l-0.445-7.917l-1.799-0.212l-0.466,8.002l-11.622,0.34l-0.445-5.525l-5.885,0.232
		l0.466-13.549l5.187-0.231l6.774,4.741l0.677-1.121l-7.557-5.886l-13.548,1.248l-0.127-2.604l7.346-5.188l-0.106-1.46l-7.113,5.187
		l0.339-1.46l6.774-5.419l1.355,0.443l1.799-1.461l1.926,1.8l0.466-1.504l-1.609-0.974l0.042-0.084l0.529-1.271l1.672,0.128
		l0.931,1.673l1.566-0.784l-0.105,3.832h2.265v-3.154l8.002,14.67l4.191-0.338c0,0,4.519-5.253,6.774-5.312
		c4.064-0.115,4.064,10.396,5.419,11.304c1.355,0.901,2.976-1.602,3.599-0.91c0.901,1.016-0.889,16.702-0.889,16.702l2.71-0.339
		l1.799-13.653h8.129l3.62-0.445l2.032-2.158l2.814-0.105l3.727-3.959l2.71-0.105v-2.71l2.265-3.152h2.922l5.207-3.854
		c0,0-0.447-3.378,1.354-3.831c1.809-0.446,4.403,2.709,4.403,2.709l4.74,0.783l7.113-7.112l1.355-2.244l0.889-4.402l6.329-9.145
		l0.784-10.057l38.949-49.344l-2.477-2.922l-25.509,33.404l-2.942-1.121l-4.742,0.442l-5.863-4.274l-0.91-6.774l-3.281,0.106
		l1.693,17.041l-2.814,1.016l-1.016-2.814h-0.911l0.233,3.387l-2.14,0.57l-1.017-3.387l-1.144,0.551l0.679,3.387l-2.922,0.679
		l-0.91-6.541l-1.461,0.231l1.017,6.881l-4.742,0.91l-2.03-10.162l-1.355,0.679l1.461,9.928l-4.637,1.927l-2.031-10.056
		l-1.461,0.783l1.926,9.717l-5.08,1.122l-2.266-7.79l1.693-0.551l-1.461-2.837l-3.957,1.017l0.338,3.281l1.588-0.444l1.799,8.234
		l-6.773,1.588l-1.799-7.579l-1.482,0.467l1.482,7.662l-1.249,0.572l-1.926-6.774l-1.016,0.34l1.355,6.668l-2.138,0.551
		l-8.701-18.164l2.604-0.338l3.726,8.68l0.677-0.445l-2.709-7.006l0.233-9.02l1.905-0.338l1.926,13.314l1.122-0.105l-0.783-14.015
		l2.371,0.127l1.927,13.21h1.46l-2.815-31.499h-2.032l1.228,14.775l-2.921,0.466c0,0-1.69-16.663-1.08-20.132l-1.969,6.352
		l0.783,13.653l-1.016,0.339l-0.445-6.097l-4.297-3.493c0,0,3.048-16.933,4.403-17.379c1.355-0.454,27.33-3.515,28.684-3.515
		c1.354,0,6.647,1.48,6.647,1.48l0.677,5.758l1.693-0.127l-0.444-8.912c0,0,0.242-0.045,0.636-0.105
		c2.047-0.276,8.385-1.043,8.954,0c0.888,1.634,1.248,17.041,1.248,17.041l3.388-0.231l-1.121-18.733l20.533-3.154l2.032,14.775
		l4.064-0.783l-1.122-20.09l4.741-0.465l5.42-8.574l-0.127-0.424H179.999L179.999,210.602z"/>
</g>
<g id="g2883" transform="matrix(7.8794709,0,0,8.1414045,134.52119,393.37577)">
	<g id="use2885">
	</g>
	<g id="use2887">
	</g>
	<g id="g2889">
		<g id="use2891">
		</g>
		<g id="use2893" transform="matrix(-0.809017,-0.5877853,0.5877853,-0.809017,-3,-5.1961524)">
		</g>
		<g id="use2895" transform="matrix(-0.809017,0.5877853,-0.5877853,-0.809017,-5.1961524,-3)">
		</g>
		<g id="use2897" transform="matrix(0.309017,0.9510565,-0.9510565,0.309017,-5.1961524,3)">
		</g>
		<g id="use2899" transform="matrix(0.309017,0.9510565,-0.9510565,0.309017,-3,5.1961524)">
		</g>
	</g>
	<g id="g2901" transform="scale(-1,1)">
		<g id="use2903">
		</g>
		<g id="use2905" transform="matrix(-0.809017,-0.5877853,0.5877853,-0.809017,-3,-5.1961524)">
		</g>
		<g id="use2907" transform="matrix(-0.809017,0.5877853,-0.5877853,-0.809017,-5.1961524,-3)">
		</g>
		<g id="use2909" transform="matrix(0.309017,0.9510565,-0.9510565,0.309017,-5.1961524,3)">
		</g>
		<g id="use2911" transform="matrix(0.309017,0.9510565,-0.9510565,0.309017,-3,5.1961524)">
		</g>
	</g>
</g>
</svg>
