<?xml version="1.0" encoding="utf-8"?>
<!-- Generator: Adobe Illustrator 16.0.0, SVG Export Plug-In . SVG Version: 6.00 Build 0)  -->
<!DOCTYPE svg PUBLIC "-//W3C//DTD SVG 1.1//EN" "http://www.w3.org/Graphics/SVG/1.1/DTD/svg11.dtd">
<svg version="1.1"
	 id="svg2" xmlns:dc="http://purl.org/dc/elements/1.1/" xmlns:cc="http://creativecommons.org/ns#" xmlns:svg="http://www.w3.org/2000/svg" xmlns:rdf="http://www.w3.org/1999/02/22-rdf-syntax-ns#" xmlns:sodipodi="http://sodipodi.sourceforge.net/DTD/sodipodi-0.dtd" xmlns:inkscape="http://www.inkscape.org/namespaces/inkscape" inkscape:version="0.47 r22583" sodipodi:docname="Flag_of_Kazakh_SSR.svg"
	 xmlns="http://www.w3.org/2000/svg" xmlns:xlink="http://www.w3.org/1999/xlink" x="0px" y="0px" width="440px" height="431px"
	 viewBox="0 0 440 431" enable-background="new 0 0 440 431" xml:space="preserve">
<defs>
	
	
		<inkscape:perspective  id="perspective20" inkscape:vp_z="1100 : 400 : 1" sodipodi:type="inkscape:persp3d" inkscape:vp_x="0 : 400 : 1" inkscape:vp_y="0 : 1000 : 0" inkscape:persp3d-origin="550 : 266.66667 : 1">
		</inkscape:perspective>
	
		<inkscape:perspective  id="perspective3671" inkscape:vp_z="1 : 0.5 : 1" sodipodi:type="inkscape:persp3d" inkscape:vp_x="0 : 0.5 : 1" inkscape:vp_y="0 : 1000 : 0" inkscape:persp3d-origin="0.5 : 0.33333333 : 1">
		</inkscape:perspective>
	
		<inkscape:perspective  id="perspective2827" inkscape:vp_z="1 : 0.5 : 1" sodipodi:type="inkscape:persp3d" inkscape:vp_x="0 : 0.5 : 1" inkscape:vp_y="0 : 1000 : 0" inkscape:persp3d-origin="0.5 : 0.33333333 : 1">
		</inkscape:perspective>
	
		<inkscape:perspective  id="perspective2841" inkscape:vp_z="1 : 0.5 : 1" sodipodi:type="inkscape:persp3d" inkscape:vp_x="0 : 0.5 : 1" inkscape:vp_y="0 : 1000 : 0" inkscape:persp3d-origin="0.5 : 0.33333333 : 1">
		</inkscape:perspective>
	
		<inkscape:perspective  id="perspective2854" inkscape:vp_z="1 : 0.5 : 1" sodipodi:type="inkscape:persp3d" inkscape:vp_x="0 : 0.5 : 1" inkscape:vp_y="0 : 1000 : 0" inkscape:persp3d-origin="0.5 : 0.33333333 : 1">
		</inkscape:perspective>
	
		<inkscape:perspective  id="perspective2827-1" inkscape:vp_z="1 : 0.5 : 1" sodipodi:type="inkscape:persp3d" inkscape:vp_x="0 : 0.5 : 1" inkscape:vp_y="0 : 1000 : 0" inkscape:persp3d-origin="0.5 : 0.33333333 : 1">
		</inkscape:perspective>
	
		<inkscape:perspective  id="perspective2840" inkscape:vp_z="1 : 0.5 : 1" sodipodi:type="inkscape:persp3d" inkscape:vp_x="0 : 0.5 : 1" inkscape:vp_y="0 : 1000 : 0" inkscape:persp3d-origin="0.5 : 0.33333333 : 1">
		</inkscape:perspective>
	
		<inkscape:perspective  id="perspective2842" inkscape:vp_z="1 : 0.5 : 1" sodipodi:type="inkscape:persp3d" inkscape:vp_x="0 : 0.5 : 1" inkscape:vp_y="0 : 1000 : 0" inkscape:persp3d-origin="0.5 : 0.33333333 : 1">
		</inkscape:perspective>
	
		<inkscape:perspective  id="perspective2855" inkscape:vp_z="1 : 0.5 : 1" sodipodi:type="inkscape:persp3d" inkscape:vp_x="0 : 0.5 : 1" inkscape:vp_y="0 : 1000 : 0" inkscape:persp3d-origin="0.5 : 0.33333333 : 1">
		</inkscape:perspective>
	
		<inkscape:perspective  id="perspective2868" inkscape:vp_z="1 : 0.5 : 1" sodipodi:type="inkscape:persp3d" inkscape:vp_x="0 : 0.5 : 1" inkscape:vp_y="0 : 1000 : 0" inkscape:persp3d-origin="0.5 : 0.33333333 : 1">
		</inkscape:perspective>
	
		<inkscape:perspective  id="perspective2896" inkscape:vp_z="1 : 0.5 : 1" sodipodi:type="inkscape:persp3d" inkscape:vp_x="0 : 0.5 : 1" inkscape:vp_y="0 : 1000 : 0" inkscape:persp3d-origin="0.5 : 0.33333333 : 1">
		</inkscape:perspective>
	
		<inkscape:perspective  id="perspective2909" inkscape:vp_z="1 : 0.5 : 1" sodipodi:type="inkscape:persp3d" inkscape:vp_x="0 : 0.5 : 1" inkscape:vp_y="0 : 1000 : 0" inkscape:persp3d-origin="0.5 : 0.33333333 : 1">
		</inkscape:perspective>
	
		<inkscape:perspective  id="perspective3605" inkscape:vp_z="1 : 0.5 : 1" sodipodi:type="inkscape:persp3d" inkscape:vp_x="0 : 0.5 : 1" inkscape:vp_y="0 : 1000 : 0" inkscape:persp3d-origin="0.5 : 0.33333333 : 1">
		</inkscape:perspective>
</defs>
<sodipodi:namedview  id="namedview14" showgrid="false" pagecolor="#ffffff" inkscape:cx="278.68635" gridtolerance="10" inkscape:zoom="1.4142136" objecttolerance="10" bordercolor="#666666" inkscape:cy="336.84099" borderopacity="1" guidetolerance="10" inkscape:current-layer="svg2" inkscape:window-maximized="1" inkscape:window-y="-8" inkscape:pageopacity="0" inkscape:window-height="1004" inkscape:pageshadow="2" inkscape:window-x="-8" inkscape:window-width="1280">
	</sodipodi:namedview>
<g>
	<path id="rect4" fill="#C50B1E" stroke="#C50B1E" stroke-width="0.7" d="M350.66,22.994c-0.895,0.085-1.072,0.51-0.801,1.552
		c0.225,0.854,0.055,1.552-0.363,1.552c-1.332,0-2.982,2.174-2.982,3.929c0,1.315,0.35,1.6,1.553,1.285
		c2.225-0.582,2.674,0.713,0.896,2.619c-0.965,1.036-1.727,3.307-2.062,6.209c-0.293,2.521-0.844,4.583-1.213,4.583
		c-0.367,0-1.408,0.786-2.328,1.746l-1.674,1.747l0.535-4.463c0.365-3.055,0.27-4.462-0.316-4.462c-0.471,0-0.121-0.992,0.777-2.207
		c1.281-1.735,1.508-2.816,1.09-5.045c-0.309-1.646-0.975-2.837-1.6-2.837c-1.549,0-4.148,2.817-5.434,5.894
		c-0.607,1.457-1.494,2.644-1.965,2.644c-0.508,0-0.691,0.846-0.461,2.061c0.447,2.339-1.334,7.152-3.129,8.464
		c-0.779,0.569-1.029,1.513-0.727,2.667c0.549,2.105-1.176,5.812-3.031,6.524c-1.605,0.616-1.773,0.457-2.037-1.916
		c-0.184-1.647,0.057-1.842,1.914-1.625c1.498,0.175,2.135-0.122,2.135-0.946c0-0.646-0.283-1.337-0.631-1.552
		c-0.348-0.215-0.596-2.291-0.557-4.608c0.061-3.73,0.338-4.44,2.498-6.257c2.818-2.372,4.326-7.923,2.473-9.119
		c-0.875-0.565-0.869-0.797,0.098-1.431c0.641-0.42,1.775-0.77,2.521-0.776c0.748-0.006,1.357-0.548,1.357-1.188
		c0-0.64-0.521-1.164-1.164-1.164c-0.641,0-1.162-0.479-1.162-1.067s-1.07-1.51-2.402-2.061c-2.234-0.926-2.545-0.863-3.879,0.873
		c-1.697,2.208-1.805,3.169-0.535,4.438c0.725,0.724,0.725,0.921,0,0.921c-0.512,0-0.945,0.708-0.945,1.552
		c0,1.356-0.227,1.412-1.939,0.631c-1.066-0.486-1.939-1.188-1.939-1.577c0-0.388-0.787-0.598-1.746-0.461
		c-1.35,0.192-1.705,0.724-1.602,2.304c0.105,1.622-0.17,1.965-1.285,1.673c-1.738-0.454-2.615,0.838-1.965,2.886
		c0.312,0.985,1.174,1.528,2.377,1.528c1.055,0,1.893,0.467,1.893,1.043c0,0.567-0.756,1.004-1.697,0.97
		c-2.553-0.091-3.82,3.781-1.746,5.336c1.393,1.043,1.299,1.082-1.285,0.679c-2.457-0.382-2.994-0.137-4.439,1.892
		c-0.904,1.271-1.998,3.218-2.426,4.341c-0.426,1.123-1.092,2.038-1.479,2.038c-1.014,0-0.971,6.476,0.049,7.105
		c0.586,0.362,0.482,0.9-0.363,1.746c-1.672,1.672-1.725,1.625-1.795-1.552c-0.033-1.529-0.424-2.99-0.848-3.274
		c-1.121-0.75-1.902-3.25-1.021-3.25c0.414,0,0.816-1.135,0.873-2.522c0.078-1.824,0.193-2.039,0.439-0.776
		c0.531,2.771,2.279,2.059,4.098-1.698c1.928-3.98,1.83-7.668-0.193-8.052c-0.748-0.142-1.357,0.209-1.357,0.776
		c0,0.567-1.018,1.489-2.256,2.038c-1.283,0.568-2.443,1.822-2.717,2.91c-0.35,1.394-1.002,1.892-2.426,1.892
		c-2.51,0-3.43,2.205-1.504,3.614c0.791,0.579,1.061,1.043,0.582,1.043c-0.477,0-1.041,0.611-1.236,1.358
		c-0.281,1.076-0.365,1.021-0.438-0.291c-0.055-1.017-0.771-1.847-1.842-2.134c-2.914-0.781-3.496-0.565-4.002,1.455
		c-0.586,2.33-1.982,2.543-2.547,0.388c-0.457-1.748-1.219-1.917-3.396-0.752c-1.705,0.913-2.027,3.08-0.461,3.08
		c0.57,0,1.965,1.048,3.104,2.329c1.258,1.409,2.855,2.328,4.025,2.328c1.064,0,1.916,0.349,1.916,0.776
		c0,0.427-0.371,0.776-0.848,0.776c-0.846,0-0.719,1.101,0.51,4.27c0.33,0.854-0.881-0.106-2.693-2.134
		c-2.209-2.47-3.91-3.686-5.166-3.686c-2.006,0-2.467,1.438-0.943,2.958c0.723,0.724,0.637,0.922-0.391,0.922
		c-0.725,0-1.334-0.524-1.334-1.164c0-0.64-0.521-1.165-1.164-1.165c-0.703,0-1.164,0.737-1.164,1.843
		c0,1.005-0.873,2.753-1.939,3.905c-1.066,1.151-1.939,2.93-1.939,3.929c0,1-0.523,2.01-1.164,2.256
		c-0.641,0.246-1.164,1.178-1.164,2.085c0,1.876-2.307,6.16-3.322,6.16c-0.371,0,0.059-1.157,0.945-2.595
		c0.889-1.438,1.631-3.795,1.65-5.238c0.018-1.443,0.523-4.04,1.139-5.748c2.422-6.721,0.756-8.61-3.42-3.856
		c-2.803,3.193-3.393,7.759-1.066,8.367c1.109,0.29,1.066,0.387-0.242,0.461c-1.031,0.058-2.07,1.076-2.936,2.886
		c-1.953,4.098-2.355,2.737-0.461-1.552c1.936-4.373,1.771-8.5-0.34-8.9c-0.963-0.183-2.793,1.169-5.432,3.978
		c-2.189,2.33-4.764,4.641-5.725,5.141c-2.152,1.123-2.207,2.717-0.193,4.729c1.504,1.504,1.5,1.552,0.049,2.328
		c-1.234,0.661-1.516,0.502-1.723-0.946c-0.283-1.984-2.838-2.83-3.832-1.261c-0.363,0.576-0.672,2.353-0.68,3.953
		c-0.01,2.508-0.27,2.911-1.793,2.911c-4.637,0-7.398,6.157-3.469,7.736c1.338,0.538,1.428,0.714,0.389,0.752
		c-0.748,0.027-1.359,0.548-1.359,1.14c0,0.592-1.223,1.644-2.717,2.353c-1.492,0.709-2.73,1.718-2.764,2.231
		c-0.045,0.688-0.172,0.667-0.461-0.049c-0.611-1.513-2.254-1.135-4.898,1.091c-3.291,2.769-3.014,5.376,0.559,5.214
		c1.387-0.063,2.521,0.199,2.521,0.582c0,1.267,3.791,0.706,4.607-0.679c0.68-1.153,0.902-1.194,1.527-0.243
		c0.537,0.821,0.291,1.35-0.945,1.964c-1.242,0.617-1.791,1.763-2.086,4.317l-0.412,3.468l-0.582-3.371
		c-0.502-2.859-0.842-3.321-2.135-2.983c-0.842,0.221-1.527,0.072-1.527-0.315c0-0.387-1.223-0.704-2.717-0.704
		c-3.365,0-3.467,1.153-0.389,4.438c2.391,2.549,2.791,3.322,1.697,3.322c-0.346,0-1.654-1.382-2.91-3.08
		c-1.256-1.698-2.904-3.094-3.686-3.104c-1.199-0.016-1.334,0.37-0.873,2.498c0.299,1.387,0.811,2.638,1.139,2.765
		c0.33,0.127,0.412,0.913,0.193,1.746c-0.322,1.234,0.031,1.526,1.844,1.577c1.223,0.034,1.729,0.244,1.115,0.485
		c-0.609,0.241-1.92,1.333-2.91,2.401l-1.818,1.94l-0.121-2.255c-0.074-1.236-0.055-3.565,0.051-5.166
		c0.225-3.496-1.748-4.082-3.18-0.946c-0.602,1.32-1.067,1.668-1.455,1.043c-0.413-0.67-1.313-0.729-3.178-0.194
		c-2.918,0.838-4.069,3.396-1.526,3.396c0.858,0,1.801,0.387,2.086,0.849c0.284,0.461,1.356,0.62,2.377,0.364
		c1.047-0.263,1.842-0.107,1.842,0.339c0,0.435-1.242,0.776-2.764,0.776s-3.442,0.359-4.269,0.801
		c-1.182,0.632-1.505,0.549-1.505-0.388c0-3.826-5.889,2.111-6.038,6.087c-0.104,2.765,1.389,3.949,2.57,2.037
		c0.777-1.259,6.55-3.977,7.373-3.468c0.412,0.255,0.752,1,0.752,1.649c0,0.878-0.547,1.061-2.135,0.728
		c-3.135-0.659-4.35,0.419-3.711,3.323c0.584,2.652,2.9,3.764,5.894,2.813c1.155-0.367,1.524-0.267,1.164,0.315
		c-0.292,0.472-1.056,0.849-1.722,0.849c-0.87,0-1.115,0.542-0.85,1.94c0.495,2.593-0.314,2.453-1.965-0.34
		c-0.74-1.254-2.041-2.497-2.886-2.765s-1.552-0.989-1.552-1.601c0-1.364-0.633-1.396-3.323-0.146
		c-2.472,1.148-2.729,2.585-0.558,3.153c1.574,0.412,2.199,2.085,0.775,2.085c-0.427,0-0.775-0.349-0.775-0.776
		c0-0.427-0.699-0.776-1.553-0.776s-1.552,0.349-1.552,0.776c0,0.427-0.349,0.776-0.776,0.776c-0.427,0-0.775-0.523-0.775-1.164
		c0-0.64-0.523-1.164-1.164-1.164c-1.447,0-1.6,4.131-0.194,5.263c1.681,1.354,5.991,1.937,7.154,0.97
		c0.843-0.699,1.44-0.547,2.692,0.703c0.881,0.882,2.3,1.601,3.152,1.601c0.854,0,1.553,0.299,1.553,0.655
		c0,1.412-1.063,1.566-3.201,0.461c-1.232-0.638-4.071-1.242-6.307-1.334c-2.234-0.093-4.283-0.467-4.56-0.849
		c-0.816-1.126-3.007,0.124-3.007,1.722c0,0.983,0.957,1.836,2.886,2.571l2.886,1.091l-4.438,0.073
		c-3.258,0.047-4.438-0.219-4.438-0.995c0-0.581-0.721-1.067-1.625-1.067c-1.251,0-1.565,0.366-1.261,1.528
		c0.276,1.055-0.071,1.674-1.14,2.013c-1.163,0.369-1.415,0.897-1.019,2.158c0.29,0.919,0.527,2.361,0.509,3.201
		c-0.017,0.841,0.383,1.808,0.897,2.134c0.638,0.405,0.49,0.599-0.437,0.606c-0.994,0.009-1.358-0.624-1.358-2.328
		c0-1.383-0.191-2.01-0.825-2.231v18.408c4.541,0.445,5.241,0.73,1.795,0.825c-0.744,0.021-1.33,0.048-1.795,0.121v17.001h9.046
		c0.294-2.039,0.584-4.418,0.752-6.306l0.461-5.19l2.522,0.412c1.805,0.293,3.705-0.171,6.621-1.649
		c4.25-2.153,4.388-2.541,2.691-6.96c-0.289-0.752-0.059-1.246,0.582-1.261c1.768-0.043,4.278-2.613,6.088-6.233
		c0.946-1.891,3.245-5.006,5.117-6.937c4.311-4.446,5.137-8.612,2.789-14.042c-1.656-3.833-1.439-4.854,1.115-5.651
		c1.104-0.344,2.297-2.186,3.711-5.723c1.686-4.214,2.824-5.812,5.918-8.198l3.832-2.934l1.697,1.576
		c2.707,2.523,4.439,2.733,6.158,0.752c1.734-1.997,2-2.97,2.621-9.992c0.477-5.386,2.17-8.493,3.08-5.626
		c0.359,1.138,1.451,1.717,4.074,2.11c1.971,0.295,5.812,1.616,8.537,2.959l4.945,2.449l1.893-2.304
		c2.203-2.696,2.438-4.131,0.752-4.778c-1.045-0.401-1.006-0.683,0.314-2.11c0.945-1.021,1.721-3.344,2.062-6.136
		c0.496-4.046,0.389-4.698-1.213-6.402l-1.795-1.916h2.668c1.463-0.006,3.156-0.322,3.76-0.703c0.711-0.45,1.475-0.322,2.184,0.388
		c0.602,0.602,1.639,1.092,2.305,1.092c0.965,0,1.133-0.625,0.799-3.104c-0.336-2.511-0.143-3.307,1.092-4.171
		c2.252-1.577,4.322-0.683,6.232,2.716c0.932,1.657,1.98,3.007,2.328,3.007c0.35,0,0.631,0.542,0.631,1.188s0.32,1.781,0.703,2.522
		c0.385,0.741,1.312,2.818,2.062,4.632c1.041,2.523,1.77,3.298,3.129,3.298c0.977,0,1.992,0.349,2.256,0.776
		c0.264,0.427,1.334,0.776,2.375,0.776c1.043,0,1.893,0.349,1.893,0.776c0,1.22,2.123,0.906,2.621-0.388
		c0.244-0.64,1.328-1.164,2.398-1.164c1.418,0,2.082-0.498,2.428-1.867c0.604-2.413,2.42-3.163,3.029-1.237
		c0.479,1.503,1.127,1.812,5.725,2.74c1.631,0.329,2.768,1.097,3.008,2.013c0.211,0.808,0.898,1.455,1.527,1.455
		c1.578,0,4.043-3.126,4.074-5.166c0.045-2.922,0.92-4.159,3.734-5.335l2.74-1.14l-0.484-7.179
		c-0.611-9.084,0.785-18.058,3.104-19.936c0.889-0.719,2.188-2.409,2.887-3.759c1.111-2.15,1.543-2.398,3.59-1.989
		c1.791,0.358,2.684,0.08,3.783-1.188c0.787-0.909,1.652-1.649,1.939-1.649s1.609-0.786,2.936-1.746
		c1.928-1.398,2.479-1.516,2.789-0.631c0.66,1.891,6.574,7.033,8.076,7.033c0.783,0,1.404,0.35,1.404,0.776
		c0,0.426,0.719,0.776,1.576,0.776c1.074,0,2.061,1.046,3.178,3.347l1.625,3.371l-2.014,3.978
		c-2.697,5.323-2.723,9.641-0.072,11.059c1.73,0.925,2.078,0.865,3.08-0.46c0.621-0.822,1.127-2.814,1.141-4.414
		c0.02-2.312,0.662-3.548,3.057-6.015c1.658-1.708,3.352-3.104,3.783-3.104c0.914,0,1.723-1.817,1.723-3.88
		c0-1.924,1.367-2.687,2.764-1.528c0.885,0.733,1.623,0.73,3.443-0.024c2.68-1.109,2.832-1.995,1.02-5.796
		c-1.441-3.027-4.83-3.974-4.947-1.383c-0.039,0.856-0.357,0.568-0.85-0.776c-1.258-3.447-2.861-2.635-3.443,1.746
		c-0.281,2.134-0.783,3.88-1.115,3.88s-0.418-0.698-0.193-1.552c0.309-1.172,0.014-1.552-1.164-1.552
		c-0.857,0-1.742,0.524-1.988,1.165c-0.996,2.596-1.771,0.948-0.971-2.062c0.645-2.409,0.637-3.32-0.023-3.541
		c-0.488-0.163-0.732-0.915-0.533-1.673c0.303-1.163-0.512-1.547-5.166-2.425c-3.037-0.573-5.719-1.37-5.967-1.771
		c-0.248-0.402,0.191-0.52,0.994-0.291c7.166,2.041,14.473,0.852,16.492-2.667c1.24-2.161,3.82-3.808,5.967-3.808
		c0.729,0,1.113-0.792,1.113-2.256c0-3.225-0.721-4.729-2.303-4.729c-0.756,0-1.84-0.536-2.4-1.213
		c-0.672-0.809-1.75-1.1-3.129-0.824c-1.797,0.359-2.02,0.207-1.674-1.116c0.441-1.687-1.729-4.608-3.42-4.608
		c-0.574,0-1.043,0.524-1.043,1.164s-0.35,1.164-0.775,1.164s-0.775-0.524-0.775-1.164c0-1.555-1.875-1.461-3.201,0.146
		c-0.953,1.155-1.107,1.013-1.455-1.358c-0.344-2.345-0.674-2.689-2.982-2.91c-1.834-0.175-3.137,0.227-4.365,1.382
		c-1.555,1.46-1.752,2.378-1.723,8.222c0.021,4.121-0.312,6.935-0.896,7.518c-0.725,0.724-0.801,0.366-0.412-1.576
		c0.441-2.207,0.293-2.498-1.213-2.498h-1.697l1.602-2.037c2.158-2.745,2.023-3.608-0.729-4.826c-2.809-1.244-3.021-2.45-0.438-2.45
		c1.338,0,2.236-0.711,3.104-2.449c1.809-3.623,1.6-4.804-0.727-4.22c-1.615,0.406-1.941,0.212-1.941-1.164
		c0-1.469-0.303-1.593-2.717-1.14c-1.695,0.318-2.715,0.215-2.715-0.292c0-0.446-0.723-0.824-1.625-0.824
		C350.939,22.994,350.789,22.982,350.66,22.994L350.66,22.994z M321.68,25.322c-1.035,0-1.553,0.517-1.553,1.552
		c0,1.035,0.518,1.552,1.553,1.552c1.033,0,1.551-0.518,1.551-1.552C323.23,25.839,322.713,25.322,321.68,25.322z M315.18,27.65
		c-0.998,0-1.988,2.204-2.014,4.462c-0.008,0.534,0.676,0.97,1.527,0.97c1.258,0,1.553-0.517,1.553-2.716
		C316.246,28.572,315.889,27.65,315.18,27.65z M307.662,34.635c-1.023,0-3.059,1.972-3.059,2.959c0,0.398-0.873,0.543-1.938,0.339
		c-1.617-0.309-1.939-0.051-1.99,1.479c-0.033,1.01-0.244,1.382-0.461,0.849c-0.463-1.152-2.594-1.311-2.594-0.194
		c0,0.427-1.049,0.776-2.328,0.776c-1.812,0-2.328,0.345-2.328,1.552c0,0.862,0.518,1.552,1.164,1.552
		c0.645,0,1.164,0.69,1.164,1.552c0,1.213,0.525,1.552,2.377,1.552c3.219,0,6.477-1.81,8.852-4.923
		C308.52,39.509,309.258,34.635,307.662,34.635z M312.391,37.74c-0.145-0.019-0.299,0.001-0.461,0.024
		c-0.645,0.09-1.352,0.516-1.602,1.164c-0.246,0.644,0.131,2.389,0.85,3.905c1.742,3.671,3.816,3.361,4.146-0.63
		c0.186-2.217-0.045-2.911-0.971-2.911c-0.666,0-1.213-0.349-1.213-0.776C313.143,38.055,312.822,37.794,312.391,37.74
		L312.391,37.74z M274.727,51.709c-0.727,0-1.164,0.733-1.164,1.94s0.438,1.94,1.164,1.94c0.725,0,1.164-0.733,1.164-1.94
		S275.449,51.709,274.727,51.709z M267.377,53.334c-0.512,0.106-0.801,0.608-0.801,1.479c0,0.854-0.35,1.552-0.775,1.552
		c-1.621,0-0.684,2.771,1.357,4.002c2.404,1.451,3.422,1.648,5.189,0.97c1.896-0.728,1.453-2.938-1.115-5.626
		c-1.498-1.568-2.777-2.376-3.613-2.376C267.539,53.334,267.449,53.319,267.377,53.334z M263.086,54.813
		c-0.646,0-1.164,0.69-1.164,1.552c0,0.863,0.518,1.552,1.164,1.552c0.645,0,1.162-0.689,1.162-1.552
		C264.248,55.503,263.732,54.813,263.086,54.813z M279.553,54.813c-2.371,0-3.662,1.392-3.662,3.977
		c0,1.363,0.482,2.246,1.357,2.474c2.133,0.557,3.094,0.58,4.414,0.072c1.342-0.514,1.689-2.643,0.438-2.643
		c-0.428,0-0.777-0.874-0.777-1.94C281.322,55.246,280.939,54.813,279.553,54.813L279.553,54.813z M259.033,58.669
		c-1.26-0.037-2.986,0.829-3.176,2.159c-0.258,1.801,1.617,2.51,2.57,0.97c0.264-0.427,0.865-0.776,1.334-0.776
		c0.467,0,0.27,0.65-0.438,1.431c-1.529,1.691-1.645,2.956-0.314,3.493c0.533,0.215,0.162,0.427-0.85,0.46
		c-1.391,0.046-1.764,0.397-1.479,1.479c0.42,1.609-1.605,3.226-4.051,3.226c-1.918,0-2.098,2.08-0.221,2.571
		c0.836,0.218,0.537,0.405-0.773,0.461c-1.998,0.084-2.814,1.454-1.604,2.667c1.961,1.96,7.717-1.025,9.945-5.166
		c0.842-1.564,1.857-2.862,2.279-2.862c0.42,0,1.561-0.96,2.521-2.134c1.381-1.688,1.748-1.85,1.771-0.776
		c0.031,1.562,2.359,1.836,3.758,0.437c1.279-1.279,1.164-3.735-0.17-3.735c-0.6,0-2.574-0.786-4.391-1.746
		c-2.406-1.274-3.371-1.484-3.611-0.776c-0.473,1.382-1.771,1.206-1.771-0.243C260.367,59.037,259.791,58.691,259.033,58.669z
		 M380.564,59.47c-1.162,0.097-1.455,0.592-1.455,2.013c0,1.625,0.324,1.948,1.746,1.747c1.121-0.16,1.854-0.891,2.014-2.013
		c0.201-1.422-0.123-1.746-1.746-1.746C380.918,59.47,380.73,59.456,380.564,59.47z M278.607,65.678
		c-0.646,0-1.164,0.69-1.164,1.552c0,0.862,0.518,1.552,1.164,1.552s1.164-0.69,1.164-1.552
		C279.771,66.368,279.254,65.678,278.607,65.678z M246.109,74.215c-1.518,0-5.143,3.386-5.143,4.802c0,0.684-0.74,1.436-1.648,1.673
		c-1.287,0.337-1.557,0.853-1.262,2.401c0.297,1.556,0.062,1.988-1.066,1.988c-1.834,0-1.928,2.311-0.098,2.377
		c1.041,0.038,0.951,0.214-0.389,0.752c-1.953,0.786-2.389,3.08-0.582,3.08c0.641,0,1.164,0.349,1.164,0.776
		c0,0.427,0.523,0.776,1.164,0.776s1.164-0.5,1.164-1.116c0-1.678,3.125-3.541,5.941-3.541c2.395,0,2.533-0.162,3.395-4.317
		c0.764-3.665,0.689-4.72-0.387-6.985C247.666,75.416,246.662,74.215,246.109,74.215z M227.166,81.976
		c-1.307,0-6.414,5.341-8.487,8.876c-1.308,2.228-1.224,4.317,0.17,4.317c1.317,0,1.562,1.215,0.388,1.94
		c-0.427,0.264-0.775,1.698-0.775,3.177c0,2.155-0.387,2.829-1.939,3.419c-1.068,0.406-1.941,1.232-1.941,1.819
		c0,1.497,1.63,6.146,2.572,7.348c1.273,1.627,3.168,0.725,4.607-2.183c1.641-3.316,4.09-5.426,6.305-5.433
		c2.771-0.008,6.088-7.639,3.396-7.809c-0.777-0.049-0.777-0.147,0-0.461c2.021-0.816,0.527-4.923-1.795-4.923
		c-0.506,0-1.121,0.611-1.357,1.358c-0.236,0.747-1.07,2.328-1.844,3.517c-0.896,1.377-1.107,2.363-0.607,2.716
		c0.482,0.339,0.105,1.228-0.969,2.279c-1.027,1.005-1.771,1.326-1.771,0.752c0-0.54,0.346-1.314,0.752-1.722
		c0.408-0.408,0.846-2.306,0.973-4.196c0.205-3.088,0.021-3.476-1.725-3.978c-1.855-0.535-1.852-0.556-0.17-0.63
		c1.359-0.06,2.193-1.085,3.689-4.462C228.936,82.496,228.977,81.976,227.166,81.976z M215.308,90.512
		c-0.823,0-1.504,0.524-1.504,1.164c0,0.647-0.69,1.165-1.552,1.165c-0.862,0-1.553,0.517-1.553,1.164
		c0,0.641,0.688,1.164,1.528,1.164c1.067,0,1.39,0.371,1.067,1.212c-0.295,0.769-0.922,1.024-1.723,0.679
		c-0.691-0.298-2.162-0.705-3.273-0.897c-1.827-0.316-2.077-0.076-2.521,2.62c-0.271,1.64-0.478,3.419-0.486,3.953
		c-0.012,1.526,2.203,1.132,3.275-0.582c0.533-0.854,1.664-1.513,2.521-1.479c1.135,0.044,1.234,0.18,0.388,0.509
		c-1.722,0.669-3.052,2.676-3.08,4.656c-0.02,1.352,0.414,1.746,1.916,1.746c1.535,0,1.94-0.381,1.94-1.867
		c0-1.457,0.523-2.005,2.328-2.401c2.363-0.519,2.916-2.064,2.475-6.985c-0.078-0.854-0.166-2.512-0.193-3.687
		C216.823,91.073,216.413,90.512,215.308,90.512z M240.652,95.169c-1.26,0-5.895,4.174-5.895,5.312c0,0.496,0.514,0.896,1.141,0.896
		c1.506,0,6.621-2.453,6.621-3.177C242.52,96.817,241.514,95.169,240.652,95.169z M228.355,106.058
		c-1.721,0.046-4.641,3.021-4.172,4.244c0.494,1.289,0.846,1.363,3.396,0.679c1.299-0.348,1.746-1.027,1.746-2.692
		C229.324,107.003,228.912,106.044,228.355,106.058z M209.075,108.581c-2.028,0.105-3.092,0.618-4.317,1.94
		c-0.993,1.071-1.819,1.557-1.819,1.067c0-0.499-1.191-0.897-2.716-0.897c-1.494,0-2.716,0.301-2.716,0.655
		s-0.786,0.616-1.746,0.582c-1.511-0.053-1.782,0.371-1.989,3.226c-0.153,2.116,0.104,3.298,0.679,3.298
		c2.004,0,6.045-2.537,6.572-4.123l0.559-1.698l0.363,1.747c0.392,1.987,2.858,2.356,4.826,0.729
		c1.919-1.588,5.481-2.925,5.481-2.062c0,0.417,0.524,0.752,1.163,0.752c1.223,0,1.602-2.809,0.582-4.366
		c-0.312-0.479-2.112-0.853-4-0.849C209.663,108.581,209.364,108.566,209.075,108.581z M192.122,115.469
		c-0.602,0.042-1.705,0.433-2.838,1.043c-0.394,0.212-0.778,0.438-1.14,0.703v5.408c0.573-0.73,1.36-1.402,2.062-1.722
		c1.8-0.82,3.334-4.354,2.328-5.36C192.464,115.47,192.323,115.454,192.122,115.469L192.122,115.469z M111.75,255.526
		c0.32,0.183,0.81,0.312,1.358,0.316c1.312,0.008,1.493,0.187,0.679,0.703c-0.596,0.377-0.901,1.2-0.655,1.842
		c0.282,0.735-0.097,1.306-1.043,1.553c-1.227,0.32-1.504-0.021-1.504-1.867c0-1.241-0.312-2.256-0.703-2.256
		c-1.68,0-3.178,1.049-3.201,2.232c-0.03,1.549-1.775,3.977-2.862,3.977c-0.435,0-1.219,0.527-1.746,1.164
		c-0.528,0.635-1.295,0.951-1.698,0.703c-1.149-0.709-4.535,0.395-4.535,1.479c0,1.125,2.735,3.638,3.953,3.638
		c0.452,0,0.301,0.523-0.34,1.164c-1.853,1.854-2.534,1.405-3.783-2.521c-1.077-3.383-1.424-3.741-4.317-4.365
		c-4.286-0.926-7.155-0.125-7.155,1.988c0,1.557-0.073,1.57-1.406,0.363c-0.781-0.705-2.178-1.285-3.104-1.285
		c-1.354,0-1.698,0.457-1.698,2.328c0,1.315,0.422,2.371,0.97,2.4c1.739,0.098-2.074,1.375-4.269,1.432
		c-1.291,0.033-2.134,0.479-2.134,1.141c0,1.184,7.055,2.549,8.513,1.648c0.446-0.275,0.8,0.098,0.8,0.824
		c0,1.15,0.599,1.248,4.657,0.824c3.819-0.398,4.656-0.268,4.656,0.68c0,0.633-0.523,1.141-1.164,1.141
		c-0.64,0-1.164,0.348-1.164,0.775c0,1.131-2.433,0.959-6.306-0.462c-8.359-3.065-17.753-4.209-17.753-2.157
		c0,0.617,0.786,1.433,1.746,1.818c1.338,0.537,1.429,0.714,0.388,0.752c-0.747,0.026-1.358,0.571-1.358,1.213
		c0,0.848,0.887,1.163,3.226,1.163c3.327,0,5.238,1.454,5.287,4.003c0.014,0.713,1.055,1.656,2.353,2.109
		c1.281,0.445,2.329,1.234,2.329,1.771c0,0.754-0.197,0.771-0.922,0.047c-1.31-1.311-3.735-1.174-3.735,0.22
		c0,0.64-0.349,1.164-0.776,1.164c-1.115,0-0.959,2.12,0.194,2.644c0.534,0.241,0.272,0.356-0.582,0.242
		c-1.068-0.145-1.468-0.697-1.285-1.746c0.146-0.838,0.582-1.629,0.97-1.771c0.99-0.362,0.893-3.557-0.194-5.94
		c-0.873-1.916-1.141-1.989-5.603-1.576c-2.571,0.236-5.47,0.957-6.451,1.601c-2.131,1.396-2.38,4.592-0.437,5.725
		c1.45,0.844,0.303,1.118-1.601,0.389c-0.68-0.263-0.961-1.046-0.728-1.94c0.292-1.114-0.018-1.504-1.164-1.504
		c-0.85,0-2.697-0.229-4.099-0.509c-2.329-0.467-2.51-0.366-2.11,1.164c0.359,1.371,0.1,1.672-1.431,1.672
		c-1.027,0-1.867,0.351-1.867,0.776c0,0.427-0.524,0.776-1.164,0.776c-2.562,0-0.944,2.289,2.522,3.564
		c2.028,0.745,4.033,1.656,4.438,2.014c0.405,0.355,1.453,0.65,2.328,0.654c0.875,0.002,2.563,0.49,3.759,1.115
		c1.196,0.623,3.376,1.098,4.85,1.043c1.474-0.057,2.919,0.129,3.202,0.412c0.283,0.282-1.264,0.51-3.444,0.51
		c-2.18,0-4.199-0.35-4.462-0.775c-0.264-0.428-1.248-0.786-2.183-0.801c-0.935-0.016-3.094-0.703-4.802-1.527
		c-1.707-0.825-3.656-1.514-4.341-1.528s-2.202-0.905-3.371-1.987c-1.399-1.299-2.639-1.813-3.613-1.504
		c-2.381,0.754-1.79,3.207,1.042,4.315l2.522,0.995l-2.183,0.291c-2.862,0.404-3.557,2.361-1.431,3.977
		c2.134,1.621,1.505,4.754-0.946,4.754c-3.984,0-4.268,6.813-0.461,10.891c2.051,2.193,2.293,2.257,7.252,1.794
		c3.622-0.339,5.141-0.214,5.141,0.413c0,0.486,0.672,0.873,1.479,0.873c0.808,0,1.67,0.522,1.916,1.164
		c0.246,0.64,1.146,1.164,2.013,1.164c0.884,0,1.576-0.513,1.576-1.164c0-0.642,0.524-1.164,1.164-1.164
		c0.641,0,1.164-0.637,1.164-1.407c0-1.761,2.035-4.586,2.765-3.855c0.299,0.298-0.036,1.104-0.728,1.794
		c-0.691,0.691-1.261,1.573-1.261,1.965c0,1.316,2.658,3.832,4.05,3.832c0.759,0,1.383,0.393,1.383,0.85
		c0,0.456,0.786,0.719,1.746,0.582c1.425-0.203,1.808-0.821,2.013-3.348c0.282-3.457,1.252-5.068,3.104-5.068
		c0.931,0,0.809,0.307-0.485,1.213c-2.46,1.725-2.443,6.339,0.024,6.742c1.038,0.17,0.121,0.513-2.255,0.873
		c-4.195,0.637-4.757,1.313-4.996,5.918c-0.075,1.434-0.189,1.586-0.461,0.533c-0.276-1.07-0.851-1.323-2.255-0.971
		c-2.497,0.626-2.372-0.174,0.17-1.14c1.665-0.634,1.931-1.112,1.528-2.718c-0.517-2.058-3.048-5.021-4.292-5.021
		c-0.406,0-1.017,0.472-1.358,1.043c-1.048,1.757-3.909,2.032-5.287,0.511c-1.493-1.65-8.179-3.52-8.852-2.475
		c-1.124,1.743-3.627,1.643-5.821-0.243c-3.777-3.245-5.124-2.278-4.85,3.493c0.125,2.648,0.196,2.727,3.226,2.619
		c2.99-0.107,3.026-0.084,0.97,0.729c-2.028,0.799-3.007,2.86-1.358,2.86c0.427,0,0.776,0.338,0.776,0.752
		c0,1.34-2.15-0.019-2.571-1.625c-0.579-2.213-3.933-1.685-4.268,0.679c-0.167,1.176,0.151,1.748,0.97,1.748
		c0.67,0,1.213,0.314,1.213,0.702s-0.699,0.538-1.552,0.315c-2.234-0.586-2.067,2.363,0.194,3.419
		c3.344,1.561,6.224,1.172,8.052-1.115c0.968-1.211,1.983-1.846,2.352-1.455c0.359,0.378,0.218,0.827-0.315,1.019
		c-0.534,0.19-0.97,0.654-0.97,1.02c0,0.363-0.351,1.571-0.776,2.691c-0.733,1.928-0.864,1.97-2.498,0.824
		c-2.32-1.625-3.077-1.494-4.729,0.776c-1.924,2.642-1.119,8.876,1.14,8.876c0.818,0,1.694-0.523,1.94-1.164
		c0.666-1.736,1.755-1.406,1.286,0.389c-0.223,0.854-0.049,1.553,0.388,1.553c0.534,0,0.512,0.891-0.049,2.716
		c-0.458,1.493-0.596,2.969-0.291,3.274c0.981,0.979,3.192-1.024,3.444-3.129c0.148-1.236,1.217-2.732,2.716-3.783
		c1.36-0.952,2.935-2.342,3.493-3.104c0.84-1.151,2.104-1.392,7.373-1.334c5.44,0.062,5.989,0.183,3.759,0.825
		c-1.823,0.523-2.865,1.434-3.468,3.031c-1.145,3.031-2.223,2.966-1.164-0.073c0.454-1.304,0.62-2.558,0.388-2.788
		c-0.91-0.911-4.932,0.686-7.446,2.958c-2.272,2.056-2.511,2.593-1.722,3.856c0.83,1.328,0.727,1.438-1.043,0.994
		c-1.594-0.399-1.964-0.216-1.964,1.019c0,1.771-2.042,3.792-4.244,4.196c-2.048,0.375-2.382,2.468-0.655,4.194
		c0.992,0.991,1.124,1.468,0.437,1.698c-0.53,0.176-0.97,0.825-0.97,1.431c0,1.705-1.186,1.288-2.304-0.801
		c-0.708-1.321-1.933-2.034-4.099-2.399c-3.57-0.604-4.534,0.264-4.341,3.903c0.261,4.943-0.137,7.373-1.164,7.373
		c-1.086,0-2.837,3.149-2.837,5.093c0,0.62,0.48,1.115,1.067,1.115s2.159,0.219,3.493,0.485c1.916,0.383,2.425,0.239,2.425-0.752
		c0-0.69-0.699-1.698-1.552-2.231c-1.595-0.996-2.162-3.71-0.776-3.71c0.427,0,0.776,0.534,0.776,1.188
		c0,1.621,2.329,2.404,3.177,1.065c0.49-0.773,0.694-0.813,0.703-0.121c0.007,0.533,0.915,0.971,2.013,0.971
		c1.707,0,1.96-0.294,1.747-2.062c-0.137-1.137,0.128-2.19,0.606-2.352c0.549-0.187,0.724,0.427,0.485,1.673
		c-0.268,1.402-0.028,1.965,0.8,1.965c2.924,0,1.237,5.785-2.328,8.003c-0.549,0.341-0.987,1.738-0.995,3.104
		c-0.008,1.364-0.269,2.101-0.582,1.648c-0.858-1.234-4.282-3.443-5.335-3.443c-1.944,0-3.413,12.591-1.916,16.442
		c1.068,2.749,8.975,10.57,10.986,10.865c2.332,0.341,2.808,1.926,0.776,2.569c-1.953,0.619-2.075,2.587-0.243,3.979
		c1.897,1.44,3.299,1.312,3.371-0.291c0.048-1.07,0.153-1.101,0.509-0.193c0.788,2.009,4.16,4.335,7.931,5.48
		c2.86,0.868,5.457,0.845,5.457-0.049c0-0.428,1.223-0.775,2.716-0.775s2.716-0.328,2.716-0.728c0-0.4,1.175-0.521,2.595-0.291
		c1.777,0.288,2.951,0.03,3.808-0.825c0.684-0.684,1.89-1.258,2.667-1.261c0.778-0.003,2.273-1.273,3.323-2.813
		c1.049-1.541,3.057-3.332,4.462-4.002c1.405-0.67,2.546-1.51,2.546-1.867s0.873-1.001,1.94-1.406
		c1.067-0.405,1.94-1.266,1.94-1.915c0-0.651,0.35-1.188,0.776-1.188c0.426,0,0.776-0.687,0.776-1.528
		c0-1.188,0.957-1.802,4.269-2.765c2.348-0.683,4.269-1.577,4.269-1.988c0-0.412-0.548-1.615-1.237-2.668s-0.938-1.916-0.534-1.916
		c0.72,0,1.992,2.159,2.862,4.875c0.364,1.138,1.005,1.281,3.759,0.873c3.517-0.521,4.524-1.394,6.767-5.748
		c1.781-3.459,2.816-9.312,1.649-9.312c-0.465,0-0.849-0.288-0.849-0.655c0-0.368,0.873-0.52,1.94-0.314
		c2.066,0.396,2.019,0.595,2.28-7.543c0.072-2.265,3.478-4.467,4.462-2.887c0.37,0.594-0.045,1.09-1.14,1.358
		c-1.946,0.478-2.646,2.748-2.789,9.021c-0.05,2.216-0.436,4.266-0.873,4.535c-1.012,0.625-0.092,8.308,1.091,9.095
		c0.471,0.312,1.984,0.352,3.371,0.098c1.843-0.338,2.522-0.172,2.522,0.605c0,0.585,0.635,1.458,1.407,1.94
		c0.772,0.48,1.843,2.341,2.376,4.122c1.263,4.215,2.767,3.913,5.869-1.141c1.268-2.063,1.869-3.309,2.159-5.142V259.14
		c-0.097-0.073-0.17-0.137-0.17-0.217c0-1.399-3.059-0.812-4.05,0.774c-0.533,0.854-1.49,1.537-2.134,1.504
		c-0.796-0.043-0.878-0.194-0.218-0.461c1.307-0.526,1.225-2.74-0.169-4.584c-0.137-0.181-0.266-0.401-0.388-0.631L111.75,255.526
		L111.75,255.526z M123.148,255.526c0.911,1.002,1.971,1.844,2.619,1.844c0.521,0,1.134-0.482,1.358-1.066
		c0.097-0.252,0.375-0.524,0.751-0.776L123.148,255.526L123.148,255.526z"/>
	<path id="rect6" fill="#FFFFFF" stroke="#C50B1E" stroke-width="0.7" stroke-linejoin="round" d="M188.145,117.215
		c-2.272,1.669-3.832,4.31-3.832,6.645c0,2.195,2.187,2.014,3.226-0.267c0.142-0.311,0.355-0.651,0.606-0.97V117.215
		L188.145,117.215z M182.421,127.837c-0.125-0.005-0.259,0.016-0.412,0.024c-0.175,0.009-0.368,0.024-0.582,0.048
		c-1.283,0.148-2.246,0.781-2.401,1.601c-0.2,1.055,0.282,1.358,2.134,1.358c1.894,0,2.377-0.328,2.377-1.601
		C183.537,128.28,183.301,127.875,182.421,127.837L182.421,127.837z M187.393,157.256c-1.142,0-2.004,1.015-3.128,3.638
		c-1.875,4.374-1.484,6.042,1.237,5.36c1.192-0.299,1.916-0.145,1.916,0.388c0,0.475-0.698,1.038-1.552,1.261
		c-0.854,0.223-1.573,0.802-1.601,1.286c-0.027,0.484-0.366,0.087-0.752-0.873c-1.042-2.592-3.369-2.314-2.862,0.339
		c0.235,1.227-0.039,2.514-0.679,3.153c-2.346,2.346-1.27,3.147,4.923,3.662c1.347,0.112,2.278,0.196,3.25,0.291v-18.408
		C187.943,157.282,187.693,157.256,187.393,157.256L187.393,157.256z M176.358,173.553c-0.644,0-1.603,0.524-2.134,1.164
		c-0.255,0.307-0.593,0.568-0.946,0.776v8.973c0.964-0.472,1.722-1.16,1.722-1.576c0-1.493,1.165-0.778,2.134,1.311
		c1.28,2.756,1.239,4.001-0.073,2.207c-0.75-1.027-1.591-1.301-3.007-0.946c-0.285,0.071-0.538,0.171-0.776,0.291v23.403h21.341
		c0.352-1.045,0.689-2.582,0.873-4.171c0.295-2.56,0.863-6.402,1.262-8.537c0.134-0.722,0.287-1.701,0.438-2.741h-9.047v-17.001
		c-1.131,0.179-1.527,0.565-1.576,1.31c-0.082,1.234-0.129,1.237-0.461-0.048c-0.31-1.197-0.857-1.341-3.589-0.897
		c-1.777,0.289-3.572,0.854-3.978,1.237c-1.412,1.333-1.869,0.662-1.431-2.037C177.45,174.171,177.262,173.553,176.358,173.553
		L176.358,173.553z M125.598,240.054c-0.216,0.66-0.103,1.416,0.509,1.795c1.458,0.899,0.377,2.059-2.425,2.619
		c-3.083,0.615-4.56,1.809-4.56,3.687c0,1.56,2.632,2.069,3.492,0.679c0.264-0.428,1.248-0.736,2.183-0.703
		c1.139,0.041,1.313,0.199,0.534,0.485c-1.921,0.706-3.88,2.712-3.88,3.978c0,0.729,0.771,1.916,1.698,2.935h4.729
		c0.501-0.334,1.178-0.634,1.868-0.8c1.208-0.295,3.667-1.243,5.481-2.11c3.687-1.761,4.507-4.245,1.552-4.705
		c-1.426-0.222-1.177-0.469,1.358-1.334c1.708-0.583,3.946-1.726,4.972-2.521c0.131-0.104,0.258-0.178,0.388-0.268v-3.734h-17.899
		V240.054z M173.278,240.054v6.451c0.222,0.053,0.436,0.105,0.679,0.17c2.074,0.536,3.984,1.264,4.244,1.625
		c0.26,0.36,1.454,0.553,2.667,0.411c2.749-0.319,4.487-3.237,5.263-8.657H173.278z M108.742,242.624
		c-0.595,0-1.283,0.524-1.528,1.165c-0.28,0.729-1.48,1.164-3.201,1.164c-3.261,0-3.841,2.024-0.8,2.789
		c2.417,0.606,2.566,2.651,0.194,2.667c-2.479,0.018-3.977,1.168-3.419,2.619c0.375,0.977,1.63,1.236,5.917,1.236
		c3.121,0,5.457,0.332,5.457,0.776c0,0.185,0.147,0.349,0.388,0.484h9.725c-0.439-0.82-0.765-1.868-0.776-2.619
		c-0.028-1.994-2.127-2.406-2.837-0.558c-0.596,1.555-3.208,0.765-5.481-1.674c-0.94-1.008-2.25-1.844-2.91-1.844
		c-1.349,0-1.624-1.206-0.437-1.939C110.224,246.156,109.986,242.624,108.742,242.624z M143.496,245.269
		c-0.191,0.301-0.315,0.629-0.315,0.896c0,0.619-0.699,1.116-1.552,1.116c-0.854,0-1.544,0.261-1.552,0.582
		c-0.008,0.318-0.228,1.367-0.485,2.328c-0.379,1.412-0.157,1.746,1.188,1.746c1.226,0,1.791-0.61,2.134-2.328
		c0.144-0.719,0.353-1.278,0.582-1.674V245.269z M143.496,251.452c-0.735,0.762-1.729,1.262-2.789,1.262
		c-4.51,0-8.954,3.062-5.917,4.074c0.511,0.17,0.693,0.869,0.412,1.602c-0.357,0.931-1.416,1.31-3.638,1.31
		c-1.389,0-2.554-0.245-2.959-0.558v138.603c0.195-1.231,0.249-2.72,0.267-4.947c0.046-5.685,0.231-6.415,2.134-8.317
		c1.146-1.146,2.085-2.94,2.085-4.002c0-2.196,1.228-3.229,3.493-2.936c0.985,0.127,2.739-1.02,4.753-3.129
		c0.941-0.984,1.619-1.785,2.158-2.619L143.496,251.452L143.496,251.452z"/>
	<path id="rect10" fill="#002868" stroke="#002868" stroke-width="0.7" d="M173.278,175.493c-0.384,0.227-0.785,0.388-1.091,0.388
		c-0.588,0-1.067,0.65-1.067,1.431c0,0.782-0.873,1.878-1.94,2.449c-1.912,1.023-2.671,3.104-1.14,3.104
		c0.482,0,0.596,1.201,0.291,3.104c-0.406,2.541-0.27,3.104,0.752,3.104c0.687,0,1.443-0.83,1.698-1.843s1.318-2.22,2.353-2.692
		c0.05-0.021,0.096-0.048,0.146-0.072v-8.973H173.278z M173.278,185.752c-1.461,0.741-2.077,2.472-2.231,6.039
		c-0.057,1.321-0.259,1.741-0.46,0.97c-0.434-1.66-3.215-1.801-3.832-0.193c-0.479,1.248-0.271,1.833,1.94,5.457
		c0.94,1.541,1.222,2.863,0.825,3.88c-0.6,1.536-0.617,1.521-0.728-0.024c-0.162-2.264-2.646-6.17-4.099-6.451
		c-1.031-0.199-1.215,0.476-1.14,3.783c0.069,3.016-0.238,4.209-1.213,4.754c-2.133,1.193-1.563,2.959,0.946,2.959
		c1.758,0,2.31,0.422,2.595,1.916c0.229,1.201-0.049,2.058-0.752,2.327c-1.59,0.61-1.596,0.605-1.188-1.528
		c0.504-2.638-1.502-2.562-3.613,0.121c-1.521,1.935-1.625,1.955-1.625,0.389c0-1.416-0.452-1.674-3.104-1.674
		c-2.587,0-3.104,0.259-3.104,1.552c0,1.075,0.538,1.583,1.747,1.625c0.96,0.034,1.31,0.246,0.776,0.461
		c-0.534,0.215-0.97,0.828-0.97,1.382c0,0.555-0.698,1.208-1.552,1.432c-2.488,0.65-4.656-0.271-4.656-1.965
		c0-1.298-0.346-1.467-2.134-1.019c-2.238,0.562-4.074,1.799-4.074,2.716c0,1.29,7.187,4.059,9.75,3.759
		c1.467-0.171,2.667-0.026,2.667,0.315c0,0.341-0.349,0.605-0.776,0.605c-1.653,0-0.704,2.35,0.97,2.401
		c1.657,0.052,1.667,0.085,0.194,0.679c-1.72,0.693-3.492-0.337-3.492-2.013c0-1.222-1.411-1.354-3.056-0.315
		c-1.52,0.963,0.063,4.495,2.401,5.36c1.438,0.531,1.489,0.692,0.388,1.115c-0.708,0.271-1.285,0.975-1.285,1.575
		c0,0.602-0.47,1.519-1.067,2.015c-0.859,0.712-1.424,0.455-2.716-1.188c-0.897-1.142-1.649-2.547-1.649-3.129
		c0-1.625-1.688-1.259-4.196,0.897c-5.457,4.692-11.326,10.504-11.326,11.229c0,0.434-0.535,0.775-1.188,0.775
		c-0.807,0-1.417,0.602-1.649,1.311H143.5v3.734c0.889-0.613,1.721-0.947,1.94-0.729c0.251,0.252-0.154,0.795-0.897,1.214
		c-0.421,0.235-0.792,0.598-1.043,0.993v2.668c0.568-0.98,1.242-0.898,1.213,0.703c-0.02,1.07-0.493,2.067-1.213,2.812v120.341
		c1.067-1.647,1.572-3.461,2.353-7.324c1.375-6.809,1.296-7.85-1.503-20.663c-0.317-1.451,0.075-1.721,3.153-2.183
		c3.372-0.506,3.605-0.718,5.432-4.851c1.049-2.373,1.892-4.805,1.892-5.408c0-1.975-3.105-7.251-4.269-7.251
		c-1.331,0-5.467-7.74-4.511-8.44c0.357-0.262,1.613-3.303,2.813-6.767c2.176-6.28,2.179-6.315,1.019-12.417
		c-1.041-5.475-1.039-6.316,0.024-7.955c0.679-1.046,1.028-2.711,0.8-3.88c-0.274-1.403,0.09-2.604,1.188-3.783
		c1.5-1.612,1.549-2.003,0.63-6.33c-0.81-3.817-0.802-5.034,0.073-7.009c0.582-1.316,1.327-2.401,1.649-2.401
		s0.582-1.157,0.582-2.571c0-2.477,2.788-6.47,8.343-11.979c0.96-0.953,1.746-2.012,1.746-2.353c0-0.342,1.196-1.055,2.644-1.576
		c1.918-0.694,3.209-0.743,5.724-0.146v-6.451h12.854c0.053-0.367,0.127-0.701,0.17-1.092c0.516-4.621,0.461-4.871-1.334-5.553
		c-4.642-1.766-4.515-3.273,0.946-10.575c1.597-2.134,3.864-5.626,5.021-7.761c1.156-2.135,2.525-4.229,3.056-4.656
		c0.201-0.162,0.416-0.623,0.63-1.261h-21.341v-23.4H173.278z"/>
</g>
</svg>
