<?xml version="1.0" encoding="UTF-8" standalone="no"?>
<svg
   xmlns:dc="http://purl.org/dc/elements/1.1/"
   xmlns:cc="http://creativecommons.org/ns#"
   xmlns:rdf="http://www.w3.org/1999/02/22-rdf-syntax-ns#"
   xmlns:svg="http://www.w3.org/2000/svg"
   xmlns="http://www.w3.org/2000/svg"
   xmlns:sodipodi="http://sodipodi.sourceforge.net/DTD/sodipodi-0.dtd"
   xmlns:inkscape="http://www.inkscape.org/namespaces/inkscape"
   version="1.1"
   width="479.56403"
   height="515.59003"
   id="svg2"
   inkscape:version="0.47 r22583"
   sodipodi:docname="Flag_of_Kazakh_SSR.svg">
  <metadata
     id="metadata18">
    <rdf:RDF>
      <cc:Work
         rdf:about="">
        <dc:format>image/svg+xml</dc:format>
        <dc:type
           rdf:resource="http://purl.org/dc/dcmitype/StillImage" />
      </cc:Work>
    </rdf:RDF>
  </metadata>
  <defs
     id="defs16">
    <inkscape:perspective
       sodipodi:type="inkscape:persp3d"
       inkscape:vp_x="0 : 400 : 1"
       inkscape:vp_y="0 : 1000 : 0"
       inkscape:vp_z="1100 : 400 : 1"
       inkscape:persp3d-origin="550 : 266.66667 : 1"
       id="perspective20" />
    <inkscape:perspective
       id="perspective3671"
       inkscape:persp3d-origin="0.5 : 0.33333333 : 1"
       inkscape:vp_z="1 : 0.5 : 1"
       inkscape:vp_y="0 : 1000 : 0"
       inkscape:vp_x="0 : 0.5 : 1"
       sodipodi:type="inkscape:persp3d" />
    <inkscape:perspective
       id="perspective2827"
       inkscape:persp3d-origin="0.5 : 0.33333333 : 1"
       inkscape:vp_z="1 : 0.5 : 1"
       inkscape:vp_y="0 : 1000 : 0"
       inkscape:vp_x="0 : 0.5 : 1"
       sodipodi:type="inkscape:persp3d" />
    <inkscape:perspective
       id="perspective2841"
       inkscape:persp3d-origin="0.5 : 0.33333333 : 1"
       inkscape:vp_z="1 : 0.5 : 1"
       inkscape:vp_y="0 : 1000 : 0"
       inkscape:vp_x="0 : 0.5 : 1"
       sodipodi:type="inkscape:persp3d" />
    <inkscape:perspective
       id="perspective2854"
       inkscape:persp3d-origin="0.5 : 0.33333333 : 1"
       inkscape:vp_z="1 : 0.5 : 1"
       inkscape:vp_y="0 : 1000 : 0"
       inkscape:vp_x="0 : 0.5 : 1"
       sodipodi:type="inkscape:persp3d" />
    <inkscape:perspective
       id="perspective2827-1"
       inkscape:persp3d-origin="0.5 : 0.33333333 : 1"
       inkscape:vp_z="1 : 0.5 : 1"
       inkscape:vp_y="0 : 1000 : 0"
       inkscape:vp_x="0 : 0.5 : 1"
       sodipodi:type="inkscape:persp3d" />
    <inkscape:perspective
       id="perspective2840"
       inkscape:persp3d-origin="0.5 : 0.33333333 : 1"
       inkscape:vp_z="1 : 0.5 : 1"
       inkscape:vp_y="0 : 1000 : 0"
       inkscape:vp_x="0 : 0.5 : 1"
       sodipodi:type="inkscape:persp3d" />
    <inkscape:perspective
       id="perspective2842"
       inkscape:persp3d-origin="0.5 : 0.33333333 : 1"
       inkscape:vp_z="1 : 0.5 : 1"
       inkscape:vp_y="0 : 1000 : 0"
       inkscape:vp_x="0 : 0.5 : 1"
       sodipodi:type="inkscape:persp3d" />
    <inkscape:perspective
       id="perspective2855"
       inkscape:persp3d-origin="0.5 : 0.33333333 : 1"
       inkscape:vp_z="1 : 0.5 : 1"
       inkscape:vp_y="0 : 1000 : 0"
       inkscape:vp_x="0 : 0.5 : 1"
       sodipodi:type="inkscape:persp3d" />
    <inkscape:perspective
       id="perspective2868"
       inkscape:persp3d-origin="0.5 : 0.33333333 : 1"
       inkscape:vp_z="1 : 0.5 : 1"
       inkscape:vp_y="0 : 1000 : 0"
       inkscape:vp_x="0 : 0.5 : 1"
       sodipodi:type="inkscape:persp3d" />
    <inkscape:perspective
       id="perspective2896"
       inkscape:persp3d-origin="0.5 : 0.33333333 : 1"
       inkscape:vp_z="1 : 0.5 : 1"
       inkscape:vp_y="0 : 1000 : 0"
       inkscape:vp_x="0 : 0.5 : 1"
       sodipodi:type="inkscape:persp3d" />
    <inkscape:perspective
       id="perspective2909"
       inkscape:persp3d-origin="0.5 : 0.33333333 : 1"
       inkscape:vp_z="1 : 0.5 : 1"
       inkscape:vp_y="0 : 1000 : 0"
       inkscape:vp_x="0 : 0.5 : 1"
       sodipodi:type="inkscape:persp3d" />
    <inkscape:perspective
       id="perspective3605"
       inkscape:persp3d-origin="0.5 : 0.33333333 : 1"
       inkscape:vp_z="1 : 0.5 : 1"
       inkscape:vp_y="0 : 1000 : 0"
       inkscape:vp_x="0 : 0.5 : 1"
       sodipodi:type="inkscape:persp3d" />
  </defs>
  <sodipodi:namedview
     pagecolor="#ffffff"
     bordercolor="#666666"
     borderopacity="1"
     objecttolerance="10"
     gridtolerance="10"
     guidetolerance="10"
     inkscape:pageopacity="0"
     inkscape:pageshadow="2"
     inkscape:window-width="1280"
     inkscape:window-height="1004"
     id="namedview14"
     showgrid="false"
     inkscape:zoom="1.4142136"
     inkscape:cx="278.68635"
     inkscape:cy="336.84099"
     inkscape:window-x="-8"
     inkscape:window-y="-8"
     inkscape:window-maximized="1"
     inkscape:current-layer="svg2" />
  <path
     style="fill:#c50b1e;fill-opacity:1;stroke:#c50b1e;stroke-width:0.69999999;stroke-miterlimit:4;stroke-opacity:1;stroke-dasharray:none"
     d="m 423.6944,0.35697777 c -1.15383,0.11003 -1.38247,0.65705003 -1.03125,2.00000003 0.2876,1.1 0.069,2 -0.46875,2 -1.7182,0 -3.84375,2.80221 -3.84375,5.0625 0,1.6953502 0.4511,2.0612902 2,1.6562502 2.8655,-0.74934 3.44505,0.91842 1.15625,3.375 -1.2434,1.33466 -2.22235,4.2612 -2.65625,8 -0.377,3.24774 -1.0879,5.90625 -1.5625,5.90625 -0.4746,0 -1.8153,1.0125 -3,2.25 l -2.15625,2.25 0.6875,-5.75 c 0.4703,-3.93678 0.34815,-5.75 -0.40625,-5.75 -0.6061,0 -0.1573,-1.27845 1,-2.84375 1.6532,-2.23604 1.94485,-3.62914 1.40625,-6.5 -0.3982,-2.1221102 -1.256,-3.6562502 -2.0625,-3.6562502 -1.9954,0 -5.3435,3.6294902 -7,7.5937502 -0.7841,1.87679 -1.92455,3.40625 -2.53125,3.40625 -0.6538,0 -0.89305,1.09004 -0.59375,2.65625 0.5761,3.01319 -1.71895,9.21545 -4.03125,10.90625 -1.0035,0.73366 -1.3267,1.94913 -0.9375,3.4375 0.7092,2.71191 -1.51245,7.48772 -3.90625,8.40625 -2.068,0.79361 -2.2844,0.58817 -2.625,-2.46875 -0.2363,-2.12235 0.0749,-2.37366 2.46875,-2.09375 1.9296,0.22563 2.75,-0.15741 2.75,-1.21875 0,-0.8319 -0.3641,-1.72285 -0.8125,-2 -0.4485,-0.27716 -0.76775,-2.95171 -0.71875,-5.9375 0.0779,-4.80669 0.43675,-5.72165 3.21875,-8.0625 3.6323,-3.05637 5.5773,-10.20884 3.1875,-11.75 -1.128,-0.72739 -1.1202,-1.02636 0.125,-1.8437502 0.825,-0.54158 2.2875,-0.992 3.25,-1 0.9625,-0.008 1.75,-0.70625 1.75,-1.53125 0,-0.825 -0.675,-1.5 -1.5,-1.5 -0.825,0 -1.5,-0.61673 -1.5,-1.375 0,-0.75827 -1.37905,-1.94604 -3.09375,-2.65625 -2.8806,-1.19322003 -3.2809,-1.11117003 -5,1.125 -2.1866,2.84461 -2.3224,4.08395 -0.6875,5.71875 0.9333,0.93333 0.9333,1.1875 0,1.1875 -0.6601,0 -1.21875,0.9117902 -1.21875,2.0000002 0,1.74755 -0.2919,1.81858 -2.5,0.8125 -1.375,-0.6265 -2.5,-1.53128 -2.5,-2.03125 0,-0.4999502 -1.0125,-0.7700602 -2.25,-0.5937502 -1.7385,0.24769 -2.1959,0.9327002 -2.0625,2.9687502 0.1369,2.08975 -0.22085,2.53157 -1.65625,2.15625 -2.2393,-0.58563 -3.36885,1.07968 -2.53125,3.71875 0.4028,1.26923 1.5118,1.96875 3.0625,1.96875 1.3569,0 2.4375,0.60221 2.4375,1.34375 0,0.73117 -0.9736,1.2937 -2.1875,1.25 -3.287,-0.11825 -4.9239,4.87169 -2.25,6.875 1.7936,1.34376 1.67265,1.39361 -1.65625,0.875 -3.1661,-0.4933 -3.85735,-0.17668 -5.71875,2.4375 -1.1658,1.63723 -2.5749,4.14692 -3.125,5.59375 -0.5501,1.44684 -1.40735,2.625 -1.90625,2.625 -1.3066,0 -1.251,8.34412 0.0625,9.15625 0.7553,0.46676 0.62075,1.16045 -0.46875,2.25 -2.1551,2.15504 -2.2225,2.0941 -2.3125,-2 -0.043,-1.97015 -0.54685,-3.85302 -1.09375,-4.21875 -1.444,-0.96567 -2.451,-4.1875 -1.3125,-4.1875 0.5328,0 1.05,-1.4625 1.125,-3.25 0.099,-2.35026 0.249,-2.6271 0.5625,-1 0.6876,3.57014 2.93815,2.65278 5.28125,-2.1875 2.4829,-5.12911 2.3584,-9.88033 -0.25,-10.375 -0.9625,-0.18254 -1.75,0.26894 -1.75,1 0,0.73107 -1.31025,1.91857 -2.90625,2.625 -1.6543,0.73227 -3.148,2.34768 -3.5,3.75 -0.4509,1.79641 -1.2901,2.4375 -3.125,2.4375 -3.2335,0 -4.4201,2.8409 -1.9375,4.65625 1.0196,0.74546 1.3649,1.34375 0.75,1.34375 -0.6148,0 -1.34225,0.7875 -1.59375,1.75 -0.3623,1.38636 -0.4705,1.31507 -0.5625,-0.375 -0.071,-1.31033 -0.993,-2.37965 -2.375,-2.75 -3.7554,-1.0064 -4.50275,-0.72872 -5.15625,1.875 -0.7534,3.00142 -2.55505,3.27721 -3.28125,0.5 -0.589,-2.25244 -1.5708,-2.46952 -4.375,-0.96875 -2.1974,1.17598 -2.61325,3.96875 -0.59375,3.96875 0.734,0 2.5298,1.35 4,3 1.6179,1.81585 3.6791,3 5.1875,3 1.3708,0 2.46875,0.45 2.46875,1 0,0.55 -0.47945,1 -1.09375,1 -1.0878,0 -0.92455,1.41763 0.65625,5.5 0.4259,1.1 -1.13345,-0.1375 -3.46875,-2.75 -2.8455,-3.18332 -5.03775,-4.75 -6.65625,-4.75 -2.5862,0 -3.17835,1.85286 -1.21875,3.8125 0.9333,0.93333 0.8223,1.1875 -0.5,1.1875 -0.935,0 -1.71875,-0.675 -1.71875,-1.5 0,-0.825 -0.675,-1.5 -1.5,-1.5 -0.9085,0 -1.5,0.94924 -1.5,2.375 0,1.29468 -1.125,3.5476 -2.5,5.03125 -1.375,1.48365 -2.5,3.77468 -2.5,5.0625 0,1.28782 -0.675,2.58966 -1.5,2.90625 -0.825,0.31658 -1.5,1.5176 -1.5,2.6875 0,2.41716 -2.97245,7.9375 -4.28125,7.9375 -0.4763,0 0.0739,-1.49133 1.21875,-3.34375 1.1448,-1.85242 2.101,-4.88992 2.125,-6.75 0.024,-1.86009 0.67635,-5.20625 1.46875,-7.40625 3.1203,-8.66069 0.97265,-11.09502 -4.40625,-4.96875 -3.6125,4.11443 -4.3723,9.99798 -1.375,10.78125 1.4302,0.37376 1.375,0.49895 -0.3125,0.59375 -1.3291,0.0747 -2.66875,1.38606 -3.78125,3.71875 -2.5178,5.28004 -3.03845,3.5267 -0.59375,-2 2.4926,-5.63502 2.2808,-10.95325 -0.4375,-11.46875 -1.2408,-0.23531 -3.6001,1.50608 -7,5.125 -2.8206,3.00228 -6.1375,5.97972 -7.375,6.625 -2.7745,1.44672 -2.8431,3.50064 -0.25,6.09375 1.9374,1.9379 1.933,1.99922 0.0625,3 -1.5905,0.85123 -1.95255,0.64699 -2.21875,-1.21875 -0.3649,-2.55703 -3.6566,-3.64615 -4.9375,-1.625 -0.4699,0.74161 -0.865,3.03125 -0.875,5.09375 -0.0129,3.23115 -0.3502,3.75 -2.3125,3.75 -5.9748,0 -9.53075,7.93409 -4.46875,9.96875 1.7239,0.69292 1.8408,0.92015 0.5,0.96875 -0.9625,0.0349 -1.75,0.70642 -1.75,1.46875 0,0.76233 -1.575,2.11777 -3.5,3.031252 -1.925,0.91347 -3.5195,2.2133 -3.5625,2.875 -0.058,0.8876 -0.22155,0.85972 -0.59375,-0.0625 -0.7866,-1.94946 -2.9034,-1.46217 -6.3125,1.40625 -4.2392,3.56718 -3.88315,6.92753 0.71875,6.71875 1.7875,-0.0811 3.25,0.25641 3.25,0.75 0,1.63242 4.8864,0.90849 5.9375,-0.875 0.8758,-1.48594 1.16495,-1.53811 1.96875,-0.3125 0.6938,1.0574 0.37715,1.73987 -1.21875,2.53125 -1.6018,0.79426 -2.3091,2.2713 -2.6875,5.5625 l -0.53125,4.46875 -0.75,-4.34375 c -0.6461,-3.68408 -1.0844,-4.27932 -2.75,-3.84375 -1.084,0.28345 -1.96875,0.0923 -1.96875,-0.40625 0,-0.49851 -1.575,-0.90625 -3.5,-0.90625 -4.3355,0 -4.4674,1.48593 -0.5,5.71875 3.0781,3.28404 3.5968,4.28125 2.1875,4.28125 -0.4445,0 -2.132,-1.78175 -3.75,-3.96875 -1.618,-2.187 -3.7438,-3.987 -4.75,-4 -1.5435,-0.0199 -1.7165,0.47675 -1.125,3.21875 0.3856,1.7875 1.04415,3.39863 1.46875,3.5625 0.4249,0.16387 0.5308,1.17637 0.25,2.25 -0.4157,1.58975 0.04,1.96695 2.375,2.03125 1.5768,0.0434 2.2245,0.31444 1.4375,0.625 -0.787,0.31057 -2.4745,1.71742 -3.75,3.09375 l -2.34375,2.5 -0.15625,-2.90625 c -0.0965,-1.59281 -0.0704,-4.59375 0.0625,-6.65625 0.2914,-4.50435 -2.25255,-5.25985 -4.09375,-1.21875 -0.7748,1.70044 -1.3772,2.14931 -1.875,1.34375 -0.5337,-0.86352 -1.69345,-0.93839 -4.09375,-0.25 -3.7628,1.07918 -5.24535,4.375 -1.96875,4.375 1.1079,0 2.32,0.49918 2.6875,1.09375 0.3674,0.59456 1.7475,0.79879 3.0625,0.46875 1.3496,-0.33874 2.375,-0.13775 2.375,0.4375 0,0.56048 -1.6014,1 -3.5625,1 -1.9612,0 -4.4362,0.4619 -5.5,1.03125 -1.5219,0.81451 -1.9375,0.70792 -1.9375,-0.5 0,-4.93024 -7.58855,2.72026 -7.78125,7.84375 -0.134,3.56305 1.7901,5.08843 3.3125,2.625 1.0027,-1.62213 8.4397,-5.12405 9.5,-4.46875 0.5312,0.32826 0.96875,1.28876 0.96875,2.125 0,1.13204 -0.7025,1.36761 -2.75,0.9375 -4.0393,-0.84851 -5.60295,0.5401 -4.78125,4.28125 0.7507,3.41759 3.73565,4.8495 7.59375,3.625 1.489,-0.47274 1.9638,-0.3442 1.5,0.40625 -0.3763,0.60892 -1.36205,1.09375 -2.21875,1.09375 -1.1218,0 -1.43805,0.69883 -1.09375,2.5 0.6388,3.34195 -0.40585,3.16048 -2.53125,-0.4375 -0.9549,-1.61653 -2.63005,-3.21697 -3.71875,-3.5625 -1.0887,-0.34554 -2,-1.27456 -2,-2.0625 0,-1.75772 -0.81395,-1.79773 -4.28125,-0.1875 -3.1847,1.47901 -3.51645,3.33088 -0.71875,4.0625 2.0294,0.5307 2.8336,2.6875 1,2.6875 -0.55,0 -1,-0.45 -1,-1 0,-0.55 -0.9,-1 -2,-1 -1.1,0 -2,0.45 -2,1 0,0.55 -0.45,1 -1,1 -0.55,0 -1,-0.675 -1,-1.5 0,-0.825 -0.675,-1.5 -1.5,-1.5 -1.8649,0 -2.0609,5.32243 -0.25,6.78125 2.1656,1.74459 7.71965,2.49419 9.21875,1.25 1.0858,-0.90114 1.85665,-0.70587 3.46875,0.90625 1.1368,1.1368 2.9625,2.0625 4.0625,2.0625 1.1,0 2,0.38542 2,0.84375 0,1.81864 -1.371,2.0179 -4.125,0.59375 -1.5886,-0.82148 -5.2458,-1.59966 -8.125,-1.71875 -2.8792,-0.11908 -5.518,-0.6011 -5.875,-1.09375 -1.0516,-1.45123 -3.875,0.15891 -3.875,2.21875 0,1.26719 1.23405,2.36679 3.71875,3.3125 l 3.71875,1.40625 -5.71875,0.0937 c -4.1976,0.0607 -5.7188,-0.28148 -5.7188,-1.28125 0,-0.74894 -0.9294,-1.375 -2.0937,-1.375 -1.612,0 -2.0163,0.47225 -1.625,1.96875 0.3558,1.36011 -0.092,2.15691 -1.4687,2.59375 -1.4988,0.47571 -1.8233,1.15816 -1.3126,2.78125 0.3728,1.18448 0.6793,3.04194 0.6563,4.125 -0.022,1.08305 0.4938,2.32897 1.1563,2.75 0.8215,0.52221 0.6313,0.77085 -0.5626,0.78125 -1.2812,0.0112 -1.75,-0.80369 -1.75,-3 0,-1.78193 -0.2464,-2.59012 -1.0624,-2.875 l 0,23.71875 c 5.8512,0.57391 6.7527,0.9413 2.3124,1.0625 -0.9581,0.0262 -1.7129,0.0615 -2.3124,0.15625 l 0,21.90625 11.6562,0 c 0.37862,-2.62714 0.75236,-5.69321 0.96875,-8.125 l 0.59375,-6.6875 3.25,0.53125 c 2.3259,0.37742 4.77425,-0.22122 8.53125,-2.125 5.4753,-2.77457 5.65425,-3.27371 3.46875,-8.96875 -0.372,-0.96945 -0.076,-1.6048 0.75,-1.625 2.2767,-0.0558 5.51135,-3.36756 7.84375,-8.03125 1.2188,-2.43699 4.18235,-6.45037 6.59375,-8.9375 5.5543,-5.72859 6.61725,-11.09732 3.59375,-18.09375 -2.1349,-4.94009 -1.8547,-6.25509 1.4375,-7.28125 1.422,-0.44322 2.95925,-2.81714 4.78125,-7.375 2.1707,-5.42972 3.6398,-7.49083 7.625,-10.5625 l 4.9375,-3.78125 2.1875,2.03125 c 3.49,3.25131 5.723,3.52199 7.9375,0.96875 2.2318,-2.57336 2.5752,-3.82717 3.375,-12.875 0.6133,-6.93981 2.79655,-10.94332 3.96875,-7.25 0.4652,1.46566 1.8703,2.21194 5.25,2.71875 2.5401,0.38092 7.4919,2.08259 11,3.8125 l 6.375,3.15625 2.4375,-2.96875 c 2.8384,-3.47368 3.13925,-5.32337 0.96875,-6.15625 -1.3469,-0.51684 -1.29745,-0.87973 0.40625,-2.71875 1.2183,-1.31509 2.21605,-4.30866 2.65625,-7.90625 0.6381,-5.214342 0.5001,-6.054432 -1.5625,-8.250002 l -2.3125,-2.46875 3.4375,0 c 1.8833,-0.008 4.06705,-0.41459 4.84375,-0.90625 0.9163,-0.58003 1.8981,-0.41439 2.8125,0.5 0.7751,0.77509 2.11065,1.40625 2.96875,1.40625 1.2436,0 1.45985,-0.80447 1.03125,-4 -0.434,-3.23575 -0.18425,-4.2609 1.40625,-5.375 2.9007,-2.0317 5.56935,-0.88026 8.03125,3.5 1.2002,2.13559 2.5513,3.875 3,3.875 0.4487,0 0.8125,0.69879 0.8125,1.53125 0,0.83246 0.41285,2.29496 0.90625,3.25 0.4937,0.95504 1.69125,3.63125 2.65625,5.968752 1.3422,3.25128 2.28015,4.25 4.03125,4.25 1.259,0 2.56635,0.45 2.90625,1 0.3399,0.55 1.7199,1 3.0625,1 1.3425,0 2.4375,0.45 2.4375,1 0,1.57224 2.7351,1.16741 3.375,-0.5 0.3166,-0.825 1.71205,-1.5 3.09375,-1.5 1.8259,0 2.6821,-0.64194 3.125,-2.40625 0.7804,-3.10906 3.11865,-4.075252 3.90625,-1.59375 0.6146,1.93637 1.4509,2.33502 7.375,3.53125 2.1013,0.42432 3.5663,1.4133 3.875,2.59375 0.2724,1.04164 1.15855,1.875 1.96875,1.875 2.0328,0 5.21,-4.02819 5.25,-6.65625 0.0579,-3.765412 1.1842,-5.358972 4.8125,-6.875002 l 3.53125,-1.46875 -0.625,-9.25 c -0.7879,-11.70531 1.0115,-23.26755 4,-25.6875 1.144,-0.92638 2.81935,-3.10421 3.71875,-4.84375 1.4327,-2.7703 1.9893,-3.08964 4.625,-2.5625 2.309,0.4618 3.4582,0.1025 4.875,-1.53125 1.0157,-1.17103 2.1298,-2.125 2.5,-2.125 0.3704,0 2.07465,-1.0125 3.78125,-2.25 2.4849,-1.80192 3.19485,-1.95351 3.59375,-0.8125 0.8521,2.436 8.47255,9.0625 10.40625,9.0625 1.0105,0 1.8125,0.45 1.8125,1 0,0.55 0.92425,1 2.03125,1 1.3825,0 2.65355,1.34814 4.09375,4.3125 l 2.09375,4.34375 -2.59375,5.125 c -3.4762,6.85956 -3.50945,12.42185 -0.0937,14.25 2.2275,1.19215 2.67695,1.11371 3.96875,-0.59375 0.8011,-1.05887 1.45075,-3.62563 1.46875,-5.6875 0.025,-2.97809 0.8528,-4.57148 3.9375,-7.75 2.1357,-2.20062 4.3196,-4 4.875,-4 1.1772,0 2.21875,-2.34166 2.21875,-5 0,-2.47935 1.7632,-3.46204 3.5625,-1.96875 1.1384,0.94483 2.0901,0.94105 4.4375,-0.0312 3.4507,-1.42932 3.6483,-2.57069 1.3125,-7.46875 -1.8597,-3.89988 -6.2243,-5.12021 -6.375,-1.78125 -0.05,1.10254 -0.46105,0.73256 -1.09375,-1 -1.6223,-4.44156 -3.6885,-3.39526 -4.4375,2.25 -0.3648,2.75 -1.01,5 -1.4375,5 -0.4277,0 -0.5378,-0.9 -0.25,-2 0.3949,-1.51003 0.017,-2 -1.5,-2 -1.1053,0 -2.2458,0.675 -2.5625,1.5 -1.284,3.34517 -2.2841,1.22151 -1.25,-2.65625 0.8279,-3.10349 0.82055,-4.27828 -0.0312,-4.5625 -0.6295,-0.20985 -0.9433,-1.17823 -0.6875,-2.15625 0.3919,-1.49854 -0.65895,-1.9934 -6.65625,-3.125 -3.914,-0.73854 -7.3687,-1.76526 -7.6875,-2.28125 -0.3199,-0.51762 0.24655,-0.66968 1.28125,-0.375 9.2327,2.62956 18.6474,1.09731 21.25,-3.4375 1.5981,-2.78456 4.9238,-4.90625 7.6875,-4.90625 0.9387,0 1.4375,-1.02096 1.4375,-2.90625 0,-4.15592 -0.92915,-6.09375 -2.96875,-6.09375 -0.9737,0 -2.36975,-0.69009 -3.09375,-1.5625 -0.8656,-1.0429 -2.25565,-1.41759 -4.03125,-1.0625 -2.316,0.46321 -2.60185,0.26651 -2.15625,-1.4375 0.5685,-2.17394 -2.22735,-5.9375 -4.40625,-5.9375 -0.7398,0 -1.34375,0.675 -1.34375,1.5 0,0.825 -0.45,1.5 -1,1.5 -0.55,0 -1,-0.675 -1,-1.5 0,-2.0033 -2.4157,-1.8831 -4.125,0.1875 -1.2289,1.48866 -1.4273,1.30565 -1.875,-1.75 -0.4428,-3.0217002 -0.86895,-3.4653002 -3.84375,-3.7500002 -2.362,-0.22607 -4.0402,0.29252 -5.625,1.7812502 -2.0026,1.88151 -2.25775,3.0638 -2.21875,10.59375 0.027,5.30974 -0.40465,8.936 -1.15625,9.6875 -0.9323,0.93239 -1.03175,0.47117 -0.53125,-2.03125 0.5688,-2.84384 0.3791,-3.21875 -1.5625,-3.21875 l -2.1875,0 2.0625,-2.625 c 2.7822,-3.53705 2.608,-4.64936 -0.9375,-6.21875 -3.6197,-1.60221 -3.8915,-3.15625 -0.5625,-3.15625 1.7234,0 2.8827,-0.91661 4,-3.15625 2.3289,-4.6684302 2.0591,-6.1896002 -0.9375,-5.4375002 -2.0807,0.52222 -2.5,0.27302 -2.5,-1.5 0,-1.89308 -0.3898,-2.05222 -3.5,-1.46875 -2.1866,0.41021 -3.5,0.27805 -3.5,-0.375 0,-0.57492003 -0.92945,-1.06250003 -2.09375,-1.06250003 -0.20309,0 -0.39767,-0.0157 -0.5625,0 z M 386.35065,3.3569778 c -1.3333,0 -2,0.66667 -2,2 0,1.33333 0.6667,2 2,2 1.3333,0 2,-0.66667 2,-2 0,-1.33333 -0.6667,-2 -2,-2 z m -8.375,3 c -1.2856,0 -2.56175,2.83991 -2.59375,5.7500002 -0.01,0.6875 0.86875,1.25 1.96875,1.25 1.619,0 2,-0.66667 2,-3.5000002 0,-2.3133 -0.4607,-3.5 -1.375,-3.5 z m -9.6875,9.0000002 c -1.3183,0 -3.9375,2.54077 -3.9375,3.8125 0,0.513 -1.125,0.70035 -2.5,0.4375 -2.0828,-0.39815 -2.4965,-0.0654 -2.5625,1.90625 -0.043,1.30162 -0.31635,1.78125 -0.59375,1.09375 -0.5989,-1.48421 -3.34375,-1.68935 -3.34375,-0.25 0,0.55 -1.35,1 -3,1 -2.3333,0 -3,0.44444 -3,2 0,1.11111 0.6667,2 1.5,2 0.8333,0 1.5,0.88889 1.5,2 0,1.56279 0.6795,2 3.0625,2 4.1495,0 8.34605,-2.33154 11.40625,-6.34375 2.5751,-3.37628 3.52645,-9.65625 1.46875,-9.65625 z m 6.09375,4 c -0.1854,-0.0236 -0.3862,0.002 -0.59375,0.0312 -0.8302,0.11584 -1.7419,0.66459 -2.0625,1.5 -0.3183,0.82946 0.16705,3.0783 1.09375,5.03125 2.2448,4.73065 4.91715,4.33062 5.34375,-0.8125 0.2369,-2.85621 -0.059,-3.75 -1.25,-3.75 -0.8582,0 -1.5625,-0.45 -1.5625,-1 0,-0.59301 -0.41255,-0.92915 -0.96875,-1 z m -48.53125,18 c -0.9333,0 -1.5,0.94444 -1.5,2.5 0,1.55556 0.5667,2.5 1.5,2.5 0.9333,0 1.5,-0.94444 1.5,-2.5 0,-1.55556 -0.5667,-2.5 -1.5,-2.5 z m -9.46875,2.09375 c -0.65845,0.13661 -1.03125,0.78304 -1.03125,1.90625 0,1.1 -0.45,2 -1,2 -2.0908,0 -0.8798,3.56916 1.75,5.15625 3.098,1.86971 4.4094,2.12419 6.6875,1.25 2.4429,-0.93745 1.8722,-3.78668 -1.4375,-7.25 -1.9309,-2.02052 -3.57825,-3.06221 -4.65625,-3.0625 -0.10481,-3e-5 -0.21844,-0.0195 -0.3125,0 z m -5.53125,1.90625 c -0.8333,0 -1.5,0.88889 -1.5,2 0,1.11111 0.6667,2 1.5,2 0.8333,0 1.5,-0.88889 1.5,-2 0,-1.11111 -0.6667,-2 -1.5,-2 z m 21.21875,0 c -3.0543,0 -4.71875,1.7935 -4.71875,5.125 0,1.75595 0.623,2.89299 1.75,3.1875 2.7466,0.71773 3.9854,0.74695 5.6875,0.0937 1.7277,-0.66299 2.1765,-3.40625 0.5625,-3.40625 -0.55,0 -1,-1.125 -1,-2.5 0,-1.94203 -0.49455,-2.5 -2.28125,-2.5 z m -26.4375,4.96875 c -1.625,-0.047 -3.85045,1.06774 -4.09375,2.78125 -0.3297,2.32119 2.0865,3.23367 3.3125,1.25 0.3399,-0.55 1.11605,-1 1.71875,-1 0.6027,0 0.3479,0.83794 -0.5625,1.84375 -1.9716,2.17865 -2.12015,3.80844 -0.40625,4.5 0.6875,0.27741 0.20805,0.55035 -1.09375,0.59375 -1.7906,0.0597 -2.27105,0.51141 -1.90625,1.90625 0.5422,2.07325 -2.06515,4.15625 -5.21875,4.15625 -2.4707,0 -2.70165,2.68 -0.28125,3.3125 1.0766,0.28137 0.6919,0.52235 -1,0.59375 -2.5733,0.10855 -3.626,1.87404 -2.0625,3.4375 2.5253,2.52536 9.9395,-1.32152 12.8125,-6.65625 1.0853,-2.01535 2.3957,-3.6875 2.9375,-3.6875 0.5418,0 2.0116,-1.2375 3.25,-2.75 1.7804,-2.17449 2.25325,-2.38377 2.28125,-1 0.0409,2.0128 3.04065,2.36554 4.84375,0.5625 1.6474,-1.6474 1.49925,-4.8125 -0.21875,-4.8125 -0.773,0 -3.31765,-1.0125 -5.65625,-2.25 -3.1037,-1.64232 -4.34535,-1.9124 -4.65625,-1 -0.6065,1.78076 -2.28125,1.5532 -2.28125,-0.3125 0,-0.99508 -0.74355,-1.44055 -1.71875,-1.46875 z m 156.59375,1.03125 c -1.49786,0.12451 -1.875,0.76261 -1.875,2.59375 0,2.09274 0.4175,2.51026 2.25,2.25 1.4459,-0.20536 2.38845,-1.14779 2.59375,-2.59375 0.2602,-1.83248 -0.1573,-2.25 -2.25,-2.25 -0.26159,0 -0.50477,-0.0178 -0.71875,0 z m -131.375,8 c -0.8333,0 -1.5,0.88889 -1.5,2 0,1.11111 0.6667,2 1.5,2 0.8333,0 1.5,-0.88889 1.5,-2 0,-1.11111 -0.6667,-2 -1.5,-2 z m -41.875,11 c -1.9557,0 -6.625,4.36304 -6.625,6.1875 0,0.88084 -0.9546,1.85017 -2.125,2.15625 -1.658,0.4336 -2.0063,1.09903 -1.625,3.09375 0.3833,2.00517 0.083,2.5625 -1.375,2.5625 -2.361,0 -2.4829,2.9771 -0.125,3.0625 1.3408,0.0486 1.2239,0.27583 -0.5,0.96875 -2.5176,1.01195 -3.0764,3.96875 -0.75,3.96875 0.825,0 1.5,0.45 1.5,1 0,0.55 0.675,1 1.5,1 0.825,0 1.5,-0.64368 1.5,-1.4375 0,-2.16177 4.02635,-4.5625 7.65625,-4.5625 3.0862,0 3.2636,-0.2084 4.375,-5.5625 0.9805,-4.72283 0.8847,-6.08223 -0.5,-9 -0.8969,-1.8903 -2.19265,-3.4375 -2.90625,-3.4375 z m -24.40625,10 c -1.684,0 -8.2669,6.88272 -10.9375,11.4375 -1.6829,2.87043 -1.57485,5.5625 0.21875,5.5625 1.6982,0 2.0113,1.56593 0.5,2.5 -0.55,0.33992 -1,2.18759 -1,4.09375 0,2.776652 -0.4971,3.644742 -2.5,4.406252 -1.375,0.52277 -2.5,1.58721 -2.5,2.34375 0,1.92939 2.0988,7.91961 3.3125,9.46875 1.6426,2.09662 4.0833,0.93338 5.9375,-2.8125 2.1153,-4.27335 5.2699,-6.992 8.125,-7 3.568,-0.0105 7.8429,-9.843472 4.375,-10.062502 -1,-0.0632 -1,-0.19024 0,-0.59375 2.6059,-1.05151 0.6805,-6.34375 -2.3125,-6.34375 -0.6509,0 -1.4448,0.7875 -1.75,1.75 -0.3053,0.9625 -1.3786,2.99961 -2.375,4.53125 -1.1545,1.77464 -1.42675,3.04423 -0.78125,3.5 0.6199,0.43758 0.1348,1.582742 -1.25,2.937502 -1.3231,1.2946 -2.28125,1.70792 -2.28125,0.96875 0,-0.69535 0.44395,-1.69393 0.96875,-2.21875 0.5247,-0.52481 1.0872,-2.971402 1.25,-5.406252 0.2659,-3.97954 0.029,-4.47857 -2.21875,-5.125 -2.3952,-0.68895 -2.38635,-0.717 -0.21875,-0.8125 1.7508,-0.0771 2.8255,-1.39823 4.75,-5.75 2.9651,-6.70461 3.0171,-7.375 0.6875,-7.375 z m -15.28125,11 c -1.0632,0 -1.9375,0.675 -1.9375,1.5 0,0.83333 -0.8889,1.5 -2,1.5 -1.1111,0 -2,0.66667 -2,1.5 0,0.82536 0.88555,1.5 1.96875,1.5 1.375,0 1.7914,0.47758 1.375,1.5625 -0.3802,0.99071 -1.18765,1.31957 -2.21875,0.875 -0.8915,-0.38439 -2.78635,-0.90838 -4.21875,-1.15625 -2.3536,-0.40733 -2.6762,-0.0976 -3.25,3.375 -0.349,2.113152 -0.615,4.406252 -0.625,5.093752 -0.017,1.96722 2.83905,1.45929 4.21875,-0.75 0.6869,-1.1 2.1448,-1.94965 3.25,-1.90625 1.463,0.0575 1.5921,0.23159 0.5,0.65625 -2.2187,0.86274 -3.93275,3.4485 -3.96875,6 -0.025,1.74181 0.53335,2.25 2.46875,2.25 1.9781,0 2.5,-0.49101 2.5,-2.40625 0,-1.87641 0.6744,-2.58296 3,-3.09375 3.0439,-0.66855 3.7573,-2.65936 3.1875,-9.000002 -0.099,-1.1 -0.214,-3.2375 -0.25,-4.75 -0.048,-2.02905 -0.5737,-2.75 -2,-2.75 z m 32.65625,6 c -1.6227,0 -7.59375,5.37823 -7.59375,6.843752 0,0.63844 0.66245,1.15625 1.46875,1.15625 1.9416,0 8.53125,-3.160182 8.53125,-4.093752 0,-1.78273 -1.29585,-3.90625 -2.40625,-3.90625 z m -15.84375,14.031252 c -2.2182,0.059 -5.98,3.89212 -5.375,5.46875 0.6372,1.66052 1.088,1.75587 4.375,0.875 1.6737,-0.44853 2.25,-1.32392 2.25,-3.46875 0,-1.65777 -0.5313,-2.8941 -1.25,-2.875 z m -24.84375,3.25 c -2.61362,0.13582 -3.98374,0.79641 -5.5625,2.5 -1.2792,1.38 -2.34375,2.00532 -2.34375,1.375 0,-0.64307 -1.536,-1.15625 -3.5,-1.15625 -1.925,0 -3.5,0.38758 -3.5,0.84375 0,0.45617 -1.0125,0.7937 -2.25,0.75 -1.94725,-0.0687 -2.29635,0.47802 -2.56245,4.15625 -0.1974,2.72708 0.133,4.25 0.875,4.25 2.58264,0 7.789,-3.26848 8.4687,-5.3125 l 0.71875,-2.1875 0.46875,2.25 c 0.5036,2.55983 3.68245,3.03664 6.21875,0.9375 2.4719,-2.04585 7.0625,-3.76907 7.0625,-2.65625 0,0.53821 0.675,0.96875 1.5,0.96875 1.575,0 2.0629,-3.61907 0.75,-5.625 -0.4041,-0.61736 -2.72295,-1.09875 -5.15625,-1.09375 -0.42901,8.8e-4 -0.81413,-0.0194 -1.1875,0 z m -21.8437,8.875 c -0.7755,0.0537 -2.1968,0.55784 -3.6563,1.34375 -0.5081,0.27364 -1.0025,0.56371 -1.4687,0.90625 l 0,6.96875 c 0.7388,-0.94108 1.7523,-1.80687 2.6562,-2.21875 2.3194,-1.05677 4.2964,-5.60979 3,-6.90625 -0.091,-0.0907 -0.2727,-0.11175 -0.5312,-0.0937 z M 115.8506,299.98198 c 0.4133,0.23545 1.0437,0.40168 1.75,0.40625 1.6915,0.0115 1.9243,0.24189 0.875,0.90625 -0.7678,0.48607 -1.1607,1.54869 -0.8437,2.375 0.3639,0.94835 -0.1249,1.68129 -1.3437,2 -1.5807,0.41336 -1.9376,-0.0269 -1.9376,-2.40625 0,-1.59851 -0.4012,-2.90625 -0.9062,-2.90625 -2.1645,0 -4.095,1.35122 -4.125,2.875 -0.039,1.99684 -2.2873,5.125 -3.6875,5.125 -0.5595,0 -1.5704,0.68106 -2.25,1.5 -0.6797,0.81895 -1.6686,1.22697 -2.1875,0.90625 -1.4801,-0.91476 -5.8438,0.50861 -5.8438,1.90625 0,1.45185 3.5247,4.6875 5.0938,4.6875 0.583,0 0.3875,0.675 -0.4375,1.5 -2.3883,2.3883 -3.2646,1.81065 -4.875,-3.25 -1.3872,-4.35929 -1.8353,-4.82041 -5.5625,-5.625 -5.5221,-1.19206 -9.2188,-0.15941 -9.2188,2.5625 0,2.00592 -0.095,2.02299 -1.8124,0.46875 -1.0058,-0.91025 -2.8059,-1.65625 -4,-1.65625 -1.7458,0 -2.1876,0.58779 -2.1876,3 0,1.69585 0.5435,3.05405 1.25,3.09375 2.2408,0.12598 -2.6729,1.77155 -5.5,1.84375 -1.6629,0.0425 -2.75,0.61846 -2.75,1.46875 0,1.52491 9.0903,3.28596 10.9688,2.125 0.5753,-0.35558 1.0312,0.12669 1.0312,1.0625 0,1.48259 0.7719,1.60895 6,1.0625 4.9209,-0.51432 6,-0.34261 6,0.875 0,0.81657 -0.6749,1.46875 -1.5,1.46875 -0.825,0 -1.5,0.45 -1.5,1 0,1.45865 -3.1348,1.23636 -8.125,-0.59375 -10.7708,-3.95016 -22.875,-5.42396 -22.875,-2.78125 0,0.79531 1.0126,1.84633 2.25,2.34375 1.7239,0.69292 1.8408,0.92015 0.5,0.96875 -0.9625,0.0349 -1.75,0.7375 -1.75,1.5625 0,1.09177 1.1432,1.5 4.1563,1.5 4.2873,0 6.7495,1.87373 6.8125,5.15625 0.018,0.92102 1.359,2.13576 3.0312,2.71875 1.6501,0.57519 3,1.59264 3,2.28125 0,0.97379 -0.2541,0.99583 -1.1874,0.0625 -1.6888,-1.68884 -4.8126,-1.51314 -4.8126,0.28125 0,0.825 -0.45,1.5 -1,1.5 -1.4359,0 -1.2354,2.73399 0.25,3.40625 0.6876,0.3115 0.35,0.46024 -0.75,0.3125 -1.3759,-0.1848 -1.8912,-0.89898 -1.6562,-2.25 0.1879,-1.08006 0.7504,-2.09792 1.25,-2.28125 1.2755,-0.46806 1.1504,-4.58273 -0.25,-7.65625 -1.1245,-2.46802 -1.4699,-2.56273 -7.2188,-2.03125 -3.3133,0.30632 -7.0489,1.23456 -8.3124,2.0625 -2.7455,1.79891 -3.0663,5.91664 -0.5626,7.375 1.868,1.088 0.3907,1.44138 -2.0624,0.5 -0.8766,-0.33653 -1.2392,-1.34639 -0.9376,-2.5 0.3754,-1.43546 -0.023,-1.9375 -1.5,-1.9375 -1.0953,0 -3.4758,-0.29517 -5.2812,-0.65625 -3.0006,-0.60013 -3.2342,-0.47129 -2.7188,1.5 0.4623,1.76747 0.1286,2.15625 -1.8437,2.15625 -1.3235,0 -2.4063,0.45 -2.4063,1 0,0.55 -0.6749,1 -1.5,1 -3.3005,0 -1.2161,2.95022 3.25,4.59375 2.6126,0.96139 5.1963,2.13466 5.7188,2.59375 0.5225,0.4591 1.8725,0.84075 3,0.84375 1.1275,0.003 3.3028,0.63371 4.8438,1.4375 1.541,0.80379 4.3511,1.41515 6.25,1.34375 1.8989,-0.0714 3.7608,0.16704 4.125,0.53125 0.3641,0.36421 -1.6284,0.65625 -4.4376,0.65625 -2.8091,0 -5.41,-0.45 -5.75,-1 -0.3398,-0.55 -1.6074,-1.01255 -2.8124,-1.03125 -1.205,-0.0187 -3.9875,-0.90607 -6.1876,-1.96875 -2.1999,-1.06268 -4.7115,-1.95005 -5.5937,-1.96875 -0.8822,-0.0187 -2.8375,-1.16659 -4.3437,-2.5625 -1.8033,-1.6713 -3.4002,-2.33616 -4.6563,-1.9375 -3.068,0.97374 -2.3057,4.1331 1.3437,5.5625 l 3.25,1.28125 -2.8124,0.375 c -3.6881,0.52124 -4.5833,3.0428 -1.8438,5.125 2.7489,2.08928 1.9389,6.125 -1.2188,6.125 -5.1336,0 -5.4989,8.78017 -0.5937,14.03125 2.6425,2.82881 2.9544,2.90915 9.3437,2.3125 4.6668,-0.43579 6.625,-0.27527 6.625,0.53125 0,0.62953 0.8652,1.125 1.9063,1.125 1.0412,0 2.1521,0.675 2.4687,1.5 0.3166,0.825 1.4766,1.5 2.5938,1.5 1.139,0 2.0312,-0.65894 2.0312,-1.5 0,-0.825 0.675,-1.5 1.5,-1.5 0.8251,0 1.5,-0.81762 1.5,-1.8125 0,-2.26784 2.6214,-5.9098 3.5626,-4.96875 0.3853,0.38545 -0.047,1.42202 -0.9376,2.3125 -0.8904,0.89048 -1.625,2.02682 -1.625,2.53125 0,1.69686 3.425,4.9375 5.2188,4.9375 0.9778,0 1.7812,0.5055 1.7812,1.09375 0,0.58825 1.0126,0.92575 2.25,0.75 1.836,-0.26075 2.329,-1.05885 2.5938,-4.3125 0.3625,-4.45348 1.6132,-6.53125 4,-6.53125 1.2002,0 1.0421,0.39484 -0.625,1.5625 -3.1712,2.22103 -3.1483,8.16742 0.031,8.6875 1.337,0.21867 0.1564,0.66024 -2.9062,1.125 -5.4049,0.82023 -6.1299,1.69356 -6.4375,7.625 -0.096,1.84827 -0.2433,2.04476 -0.5937,0.6875 -0.3559,-1.37882 -1.0962,-1.70432 -2.9063,-1.25 -3.2178,0.80761 -3.0567,-0.22338 0.2187,-1.46875 2.1456,-0.81572 2.4878,-1.43212 1.9688,-3.5 -0.6653,-2.65081 -3.9273,-6.46875 -5.5312,-6.46875 -0.5227,0 -1.3101,0.60646 -1.75,1.34375 -1.35,2.26301 -5.0365,2.61872 -6.8126,0.65625 -1.9237,-2.1258 -10.5385,-4.53393 -11.4062,-3.1875 -1.4475,2.24606 -4.6735,2.11624 -7.5,-0.3125 -4.8667,-4.18178 -6.6022,-2.9377 -6.25,4.5 0.1617,3.4149 0.2535,3.51391 4.1562,3.375 3.853,-0.13714 3.8989,-0.10799 1.25,0.9375 -2.613,1.03136 -3.875,3.6875 -1.75,3.6875 0.55,0 1,0.43601 1,0.96875 0,1.72664 -2.7708,-0.0226 -3.3124,-2.09375 -0.7456,-2.85129 -5.0678,-2.16899 -5.5,0.875 -0.2149,1.51338 0.1943,2.25 1.25,2.25 0.8632,0 1.5624,0.40774 1.5624,0.90625 0,0.49855 -0.9,0.69391 -2,0.40625 -2.8787,-0.75285 -2.6631,3.04614 0.25,4.40625 4.3084,2.01149 8.0191,1.51021 10.375,-1.4375 1.2471,-1.56015 2.556,-2.37707 3.0313,-1.875 0.4618,0.4878 0.2813,1.06696 -0.4063,1.3125 -0.6874,0.24553 -1.25,0.84414 -1.25,1.3125 0,0.46837 -0.4513,2.02579 -1,3.46875 -0.9441,2.48359 -1.1124,2.53782 -3.2187,1.0625 -2.9898,-2.09414 -3.9637,-1.9258 -6.0937,1 -2.4788,3.40501 -1.4424,11.4375 1.4687,11.4375 1.0548,0 2.1834,-0.675 2.5,-1.5 0.8582,-2.23653 2.2613,-1.81323 1.6563,0.5 -0.2877,1.1 -0.063,2 0.5,2 0.6882,0 0.6594,1.14788 -0.063,3.5 -0.5905,1.92453 -0.7684,3.82523 -0.375,4.21875 1.2637,1.26364 4.1132,-1.31979 4.4376,-4.03125 0.1907,-1.59334 1.5677,-3.5215 3.5,-4.875 1.7521,-1.22727 3.7814,-3.01499 4.5,-4 1.0825,-1.48378 2.7119,-1.79345 9.5,-1.71875 7.0099,0.0772 7.7169,0.23563 4.8437,1.0625 -2.3486,0.67587 -3.6917,1.84786 -4.4687,3.90625 -1.475,3.90737 -2.8649,3.8214 -1.5,-0.0937 0.585,-1.67807 0.7992,-3.29448 0.5,-3.59375 -1.1726,-1.17265 -6.3539,0.8831 -9.5938,3.8125 -2.9277,2.64708 -3.2354,3.34075 -2.2188,4.96875 1.07,1.71312 0.9367,1.8536 -1.3437,1.28125 -2.0537,-0.51543 -2.5313,-0.27679 -2.5313,1.3125 0,2.28239 -2.6313,4.88583 -5.4687,5.40625 -2.6383,0.48389 -3.0695,3.18042 -0.8437,5.40625 1.2782,1.27823 1.4483,1.89225 0.5624,2.1875 -0.6826,0.22753 -1.25,1.06459 -1.25,1.84375 0,2.19731 -1.528,1.66073 -2.9687,-1.03125 -0.9114,-1.70291 -2.4907,-2.62231 -5.2813,-3.09375 -4.6006,-0.77729 -5.8417,0.34077 -5.5937,5.03125 0.3367,6.37022 -0.1765,9.5 -1.5,9.5 -1.3998,0 -3.65630001,4.05888 -3.65630001,6.5625 0,0.79912 0.6188,1.4375 1.37500001,1.4375 0.7564,0 2.7814,0.28125 4.5,0.625 2.4691,0.4938 3.125,0.30843 3.125,-0.96875 0,-0.88909 -0.9,-2.18804 -2,-2.875 -2.0553,-1.28366 -2.7862,-4.78125 -1,-4.78125 0.55,0 1,0.68899 1,1.53125 0,2.08934 3.0017,3.09966 4.0938,1.375 0.6317,-0.99765 0.8953,-1.04974 0.9062,-0.15625 0.01,0.6875 1.1794,1.25 2.5938,1.25 2.199,0 2.5249,-0.37952 2.25,-2.65625 -0.1769,-1.46451 0.1659,-2.82397 0.7812,-3.03125 0.7071,-0.23826 0.932,0.55074 0.625,2.15625 -0.3452,1.80652 -0.036,2.53125 1.0313,2.53125 3.7678,0 1.5947,7.45523 -3,10.3125 -0.7073,0.43983 -1.2713,2.23983 -1.2813,4 -0.01,1.76017 -0.3459,2.70688 -0.75,2.125 -1.1052,-1.59173 -5.517,-4.4375 -6.875,-4.4375 -2.5046,0 -4.3968,16.2239 -2.4687,21.1875 1.376,3.5424 11.5639,13.62084 14.1563,14 3.0047,0.43947 3.6181,2.48153 1,3.3125 -2.5154,0.79832 -2.6737,3.33267 -0.3126,5.125 2.4445,1.85553 4.2508,1.69035 4.3438,-0.375 0.062,-1.37894 0.1979,-1.41788 0.6562,-0.25 1.0159,2.58791 5.3606,5.58646 10.2188,7.0625 3.6854,1.11971 7.0312,1.08812 7.0312,-0.0625 0,-0.55 1.5751,-1 3.5,-1 1.925,0 3.5,-0.42208 3.5,-0.9375 0,-0.51542 1.5145,-0.67185 3.3438,-0.375 2.2902,0.37166 3.8028,0.041 4.9062,-1.0625 0.8815,-0.88143 2.4358,-1.621 3.4376,-1.625 1.0018,-0.004 2.9293,-1.64032 4.2812,-3.625 1.3518,-1.98467 3.9393,-4.29281 5.75,-5.15625 1.8106,-0.86343 3.2812,-1.94451 3.2812,-2.40625 0,-0.46175 1.125,-1.28973 2.5,-1.8125 1.375,-0.52277 2.5,-1.63014 2.5,-2.46875 0,-0.83861 0.4501,-1.53125 1,-1.53125 0.55,0 1,-0.88411 1,-1.96875 0,-1.52991 1.2332,-2.3221 5.5,-3.5625 3.0251,-0.87939 5.5,-2.03218 5.5,-2.5625 0,-0.53033 -0.7055,-2.08185 -1.5937,-3.4375 -0.8883,-1.35565 -1.2078,-2.46875 -0.6875,-2.46875 0.9278,0 2.5674,2.78298 3.6875,6.28125 0.4692,1.46551 1.2957,1.6517 4.8437,1.125 4.5308,-0.67258 5.8298,-1.7946 8.7188,-7.40625 2.2943,-4.45653 3.6285,-12 2.125,-12 -0.5984,0 -1.0938,-0.37002 -1.0938,-0.84375 0,-0.47375 1.125,-0.6691 2.5,-0.40625 2.6622,0.50891 2.6017,0.76694 2.9376,-9.71875 0.093,-2.91807 4.4809,-5.75437 5.75,-3.71875 0.4768,0.76476 -0.058,1.40356 -1.4688,1.75 -2.5077,0.61573 -3.4095,3.5413 -3.5938,11.625 -0.065,2.85504 -0.5614,5.49547 -1.125,5.84375 -1.3037,0.80581 -0.1184,10.7045 1.4063,11.71875 0.6064,0.40341 2.5563,0.45212 4.3437,0.125 2.3753,-0.43468 3.25,-0.22056 3.25,0.78125 0,0.75391 0.818,1.87885 1.8126,2.5 0.9945,0.62115 2.3748,3.01725 3.0624,5.3125 1.6271,5.43071 3.5655,5.04102 7.5626,-1.46875 1.6333,-2.66026 2.4084,-4.26382 2.7812,-6.625 l 0,-178.59375 c -0.1246,-0.096 -0.2188,-0.17529 -0.2188,-0.28125 0,-1.8023 -3.9406,-1.04658 -5.2187,1 -0.687,1.1 -1.9198,1.9809 -2.75,1.9375 -1.0265,-0.0537 -1.1312,-0.25075 -0.2813,-0.59375 1.6841,-0.67952 1.5785,-3.53027 -0.2187,-5.90625 -0.1761,-0.23289 -0.3419,-0.51722 -0.5,-0.8125 l -12.5313,0 z m 14.6876,0 c 1.1734,1.29096 2.5394,2.375 3.375,2.375 0.6702,0 1.4606,-0.62077 1.75,-1.375 0.1242,-0.32368 0.4837,-0.67562 0.9687,-1 l -6.0937,0 z"
     id="rect4" />
  <path
     style="fill:#ffffff;stroke:#c50b1e;stroke-width:0.69999999;stroke-linejoin:round;stroke-miterlimit:4;stroke-opacity:1;stroke-dasharray:none"
     d="m 214.2882,121.76323 c -2.9277,2.15086 -4.9376,5.55362 -4.9376,8.5625 0,2.82773 2.8178,2.59415 4.1563,-0.34375 0.1822,-0.39983 0.4582,-0.83856 0.7813,-1.25 l 0,-6.96875 z m -7.375,13.6875 c -0.1619,-0.007 -0.3337,0.0209 -0.5313,0.0312 -0.2256,0.0118 -0.4742,0.0307 -0.75,0.0625 -1.6533,0.19084 -2.8936,1.00702 -3.0937,2.0625 -0.2578,1.35905 0.3632,1.75 2.75,1.75 2.4396,0 3.0624,-0.42219 3.0624,-2.0625 0,-1.27323 -0.3043,-1.79493 -1.4374,-1.84375 z m 6.4062,37.90625 c -1.4713,0 -2.5826,1.3079 -4.0312,4.6875 -2.4159,5.63592 -1.9123,7.78624 1.5937,6.90625 1.5365,-0.38563 2.4687,-0.1864 2.4687,0.5 0,0.61197 -0.8999,1.33734 -2,1.625 -1.1,0.28766 -2.0275,1.0329 -2.0624,1.65625 -0.035,0.62335 -0.4714,0.1125 -0.9688,-1.125 -1.3424,-3.3397 -4.3411,-2.98178 -3.6875,0.4375 0.3023,1.58068 -0.051,3.23858 -0.875,4.0625 -3.0225,3.02257 -1.6354,4.05536 6.3437,4.71875 1.7349,0.14423 2.935,0.25215 4.1876,0.375 l 0,-23.71875 c -0.2606,-0.0909 -0.5828,-0.125 -0.9688,-0.125 z m -14.2188,21 c -0.8296,0 -2.0652,0.675 -2.75,1.5 -0.3281,0.39534 -0.7635,0.73132 -1.2187,1 l 0,11.5625 c 1.2421,-0.60829 2.2187,-1.49675 2.2187,-2.03125 0,-1.92528 1.5,-1.00401 2.75,1.6875 1.6487,3.55062 1.5967,5.15524 -0.094,2.84375 -0.9671,-1.32257 -2.0507,-1.67662 -3.875,-1.21875 -0.3676,0.0923 -0.6931,0.21931 -1,0.375 l 0,30.15625 27.5,0 c 0.45306,-1.34716 0.88916,-3.32703 1.125,-5.375 0.3799,-3.29809 1.112,-8.25 1.625,-11 0.17332,-0.92857 0.36948,-2.19192 0.5625,-3.53125 l -11.6562,0 0,-21.90625 c -1.458,0.23046 -1.9675,0.72804 -2.0313,1.6875 -0.1052,1.5898 -0.1656,1.59374 -0.5937,-0.0625 -0.3989,-1.54228 -1.1038,-1.72816 -4.625,-1.15625 -2.2895,0.37183 -4.6025,1.10036 -5.125,1.59375 -1.8198,1.71784 -2.4082,0.85244 -1.8438,-2.625 0.4389,-2.70413 0.1966,-3.5 -0.9688,-3.5 z m -65.4062,85.6875 c -0.2781,0.85109 -0.1321,1.82528 0.6562,2.3125 1.8789,1.16119 0.4865,2.65271 -3.125,3.375 -3.9731,0.79465 -5.875,2.3303 -5.875,4.75 0,2.01013 3.3914,2.66891 4.5,0.875 0.34,-0.55 1.6076,-0.94965 2.8126,-0.90625 1.4665,0.0528 1.6916,0.25581 0.6874,0.625 -2.4763,0.91052 -5,3.49427 -5,5.125 0,0.94016 0.994,2.46823 2.1876,3.78125 l 6.0937,0 c 0.6451,-0.43149 1.5175,-0.81545 2.4063,-1.03125 1.557,-0.37805 4.7249,-1.60195 7.0624,-2.71875 4.7509,-2.26979 5.807,-5.47084 2,-6.0625 -1.8373,-0.28558 -1.5164,-0.60381 1.75,-1.71875 2.2,-0.75091 5.0848,-2.22229 6.4063,-3.25 0.1687,-0.13122 0.3324,-0.22815 0.5,-0.34375 l 0,-4.8125 -23.0625,0 z m 61.4375,0 0,8.3125 c 0.2866,0.0681 0.5617,0.13758 0.875,0.21875 2.6725,0.6923 5.1341,1.62809 5.4687,2.09375 0.3347,0.46565 1.8741,0.71279 3.4376,0.53125 3.5418,-0.41128 5.7811,-4.17093 6.7812,-11.15625 l -16.5625,0 z m -83.1563,3.3125 c -0.766,0 -1.6521,0.675 -1.9687,1.5 -0.3613,0.94149 -1.9085,1.5 -4.125,1.5 -4.2015,0 -4.95,2.61018 -1.0313,3.59375 3.1151,0.78184 3.3066,3.4167 0.25,3.4375 -3.1939,0.0217 -5.1241,1.50413 -4.4062,3.375 0.4827,1.25786 2.1003,1.59375 7.625,1.59375 4.0209,0 7.0312,0.42815 7.0312,1 0,0.23608 0.1892,0.44792 0.5,0.625 l 12.5313,0 c -0.5665,-1.05835 -0.9859,-2.40744 -1,-3.375 -0.036,-2.56891 -2.7417,-3.10168 -3.6563,-0.71875 -0.7687,2.0033 -4.1331,0.9843 -7.0624,-2.15625 -1.2112,-1.29856 -2.8987,-2.375 -3.75,-2.375 -1.7372,0 -2.0924,-1.55442 -0.5626,-2.5 1.5347,-0.94846 1.2274,-5.5 -0.375,-5.5 z m 44.7813,3.40625 c -0.2463,0.38933 -0.4063,0.81076 -0.4063,1.15625 0,0.79767 -0.9,1.4375 -2,1.4375 -1.0999,0 -1.99,0.3375 -2,0.75 -0.01,0.4125 -0.2933,1.7625 -0.625,3 -0.4879,1.82063 -0.2017,2.25 1.5313,2.25 1.5797,0 2.3074,-0.78731 2.75,-3 0.1852,-0.92598 0.4542,-1.64576 0.75,-2.15625 l 0,-3.4375 z m 0,7.96875 c -0.9479,0.98174 -2.2284,1.625 -3.5937,1.625 -5.8111,0 -11.5374,3.94584 -7.625,5.25 0.6588,0.21958 0.8932,1.11894 0.5312,2.0625 -0.4605,1.19998 -1.8251,1.6875 -4.6875,1.6875 -1.7901,0 -3.2905,-0.3163 -3.8125,-0.71875 l 0,178.59375 c 0.2508,-1.58858 0.3204,-3.50426 0.3438,-6.375 0.059,-7.32483 0.2972,-8.26611 2.75,-10.71875 1.4767,-1.47685 2.6874,-3.78871 2.6874,-5.15625 0,-2.82917 1.5814,-4.1577 4.5,-3.78125 1.2691,0.16368 3.5293,-1.31409 6.125,-4.03125 1.2135,-1.27021 2.086,-2.30074 2.7813,-3.375 l 0,-155.0625 z"
     id="rect6" />
  <path
     style="fill:#002868;fill-opacity:1;stroke:#002868;stroke-width:0.69999999;stroke-miterlimit:4;stroke-opacity:1;stroke-dasharray:none"
     d="m 195.1319,196.85698 c -0.4948,0.29201 -1.0117,0.5 -1.4063,0.5 -0.7577,0 -1.375,0.83669 -1.375,1.84375 0,1.00706 -1.125,2.42037 -2.5,3.15625 -2.4632,1.31825 -3.4413,4 -1.4687,4 0.6205,0 0.7673,1.54742 0.375,4 -0.5235,3.27413 -0.3481,4 0.9687,4 0.8849,0 1.8597,-1.06901 2.1876,-2.375 0.3278,-1.30599 1.6985,-2.86154 3.0312,-3.46875 0.065,-0.0295 0.1241,-0.0627 0.1875,-0.0937 l 0,-11.5625 z m 0,13.21875 c -1.8825,0.95484 -2.6764,3.18497 -2.875,7.78125 -0.074,1.70215 -0.3343,2.24292 -0.5937,1.25 -0.559,-2.13922 -4.1429,-2.32084 -4.9376,-0.25 -0.6169,1.60797 -0.3492,2.36247 2.5,7.03125 1.2112,1.98472 1.5742,3.68985 1.0626,5 -0.7727,1.97907 -0.7948,1.9595 -0.9376,-0.0312 -0.209,-2.91773 -3.4097,-7.94987 -5.2812,-8.3125 -1.3291,-0.25751 -1.5657,0.61227 -1.4688,4.875 0.089,3.88467 -0.3067,5.42226 -1.5624,6.125 -2.7482,1.53802 -2.0147,3.8125 1.2187,3.8125 2.2658,0 2.9758,0.5436 3.3437,2.46875 0.2961,1.54854 -0.063,2.65229 -0.9687,3 -2.0492,0.7864 -2.0566,0.77947 -1.5313,-1.96875 0.6498,-3.39873 -1.936,-3.30211 -4.6562,0.15625 -1.9602,2.49184 -2.0938,2.51898 -2.0938,0.5 0,-1.824 -0.5824,-2.15625 -4,-2.15625 -3.3333,0 -4,0.33333 -4,2 0,1.38402 0.693,2.03915 2.25,2.09375 1.2375,0.0434 1.6876,0.31634 1,0.59375 -0.6874,0.27741 -1.25,1.06623 -1.25,1.78125 0,0.71502 -0.9,1.55609 -2,1.84375 -3.2061,0.83842 -6,-0.34904 -6,-2.53125 0,-1.67252 -0.4454,-1.8909 -2.75,-1.3125 -2.884,0.72384 -5.25,2.31792 -5.25,3.5 0,1.66202 9.2609,5.22921 12.5626,4.84375 1.89,-0.22064 3.4374,-0.0333 3.4374,0.40625 0,0.43956 -0.45,0.78125 -1,0.78125 -2.1297,0 -0.9072,3.02635 1.25,3.09375 2.1356,0.0667 2.1483,0.10991 0.25,0.875 -2.217,0.89363 -4.5,-0.43435 -4.5,-2.59375 0,-1.57384 -1.8185,-1.74694 -3.9374,-0.40625 -1.9593,1.23962 0.081,5.79175 3.0937,6.90625 1.8541,0.68583 1.9195,0.89276 0.5,1.4375 -0.9132,0.35045 -1.6563,1.25633 -1.6563,2.03125 0,0.77492 -0.6061,1.95571 -1.375,2.59375 -1.1071,0.91893 -1.8348,0.5857 -3.5,-1.53125 -1.1561,-1.46987 -2.125,-3.28042 -2.125,-4.03125 0,-2.09336 -2.1747,-1.62291 -5.4062,1.15625 -7.0317,6.04713 -14.5938,13.53617 -14.5938,14.46875 0,0.5578 -0.689,1 -1.5312,1 -1.04,0 -1.8268,0.77491 -2.125,1.6875 l 23.0625,0 0,4.8125 c 1.145,-0.78979 2.2174,-1.2201 2.5,-0.9375 0.324,0.32395 -0.1982,1.02642 -1.1563,1.5625 -0.543,0.30389 -1.0213,0.77168 -1.3437,1.28125 l 0,3.4375 c 0.7321,-1.26336 1.6002,-1.15848 1.5625,0.90625 -0.025,1.37989 -0.6348,2.66422 -1.5625,3.625 l 0,155.0625 c 1.375,-2.12437 2.0258,-4.4597 3.0313,-9.4375 1.7718,-8.77257 1.6693,-10.11383 -1.9376,-26.625 -0.4085,-1.8702 0.097,-2.21778 4.0626,-2.8125 4.3449,-0.65156 4.6447,-0.92431 7,-6.25 1.3515,-3.05623 2.4374,-6.19027 2.4374,-6.96875 0,-2.54263 -4.001,-9.34375 -5.5,-9.34375 -1.7145,0 -7.0438,-9.97337 -5.8124,-10.875 0.4601,-0.33687 2.0785,-4.25539 3.625,-8.71875 2.8037,-8.09224 2.8071,-8.1375 1.3124,-16 -1.3413,-7.05457 -1.3396,-8.13805 0.031,-10.25 0.8751,-1.34775 1.3256,-3.49294 1.0313,-5 -0.3531,-1.80888 0.117,-3.35546 1.5312,-4.875 1.9331,-2.0773 1.9958,-2.58001 0.8125,-8.15625 -1.0434,-4.9179 -1.0332,-6.48584 0.094,-9.03125 0.75,-1.69437 1.7093,-3.09375 2.125,-3.09375 0.4158,0 0.75,-1.49213 0.75,-3.3125 0,-3.19103 3.5925,-8.33644 10.75,-15.4375 1.2375,-1.22775 2.25,-2.59174 2.25,-3.03125 0,-0.43951 1.5413,-1.35683 3.4063,-2.03125 2.4717,-0.89383 4.1355,-0.95672 7.375,-0.1875 l 0,-8.3125 16.5625,0 c 0.068,-0.47196 0.1628,-0.90435 0.2188,-1.40625 0.6639,-5.9559 0.5936,-6.27704 -1.7188,-7.15625 -5.9808,-2.27386 -5.8174,-4.21902 1.2188,-13.625 2.057,-2.75 4.9791,-7.25 6.4687,-10 1.4898,-2.75 3.2545,-5.44809 3.9375,-6 0.2589,-0.2092 0.5359,-0.80266 0.8125,-1.625 l -27.5,0 0,-30.15625 z"
     id="rect10" />
</svg>
