<?xml version="1.0" encoding="UTF-8" standalone="no"?>
<!-- Created with Inkscape (http://www.inkscape.org/) -->
<svg id="svg1453" xmlns:rdf="http://www.w3.org/1999/02/22-rdf-syntax-ns#" xmlns="http://www.w3.org/2000/svg" height="599.38" width="769.15" version="1.1" xmlns:cc="http://creativecommons.org/ns#" xmlns:dc="http://purl.org/dc/elements/1.1/">
 <metadata id="metadata1458">
  <rdf:RDF>
   <cc:Work rdf:about="">
    <dc:format>image/svg+xml</dc:format>
    <dc:type rdf:resource="http://purl.org/dc/dcmitype/StillImage"/>
   </cc:Work>
  </rdf:RDF>
 </metadata>
 <g id="layer1" fill-rule="evenodd" transform="translate(-15.425 -.30902)">
  <path id="path2547" d="m493.65 582.09c-4.3299 0.74835-6.3336 10.491-12.579 5.4093-6.9539 6.1977 7.6912 4.7656 8.657 10.468 1.9292-4.5123 4.236-8.3367 7.3656-12.722-0.56139-1.3771-1.2535-3.3746-3.4436-3.1554l0.00001 0.00003" fill="#d40000"/>
  <path id="path2545" d="m656.65 558.9c-1.6983 6.2356-5.2608 1.1407-9.0874 2.7547-5.1446-0.16726-4.334-2.937-9.1352-1.4024 1.43 3.0706-3.322 10.179-7.3656 11.82-4.7396 8.4531 5.3612 17.907 9.9962 19.083 5.2384 3.1348 13.515-2.5964 16.023-6.8117 2.6174-3.6997 3.2835-7.5791 2.2001-8.6148 1.9553-4.097-3.845-6.1038-2.6306-12.271-2.8696-2.1006 2.9814-0.50932 0-4.5578h-0.00001" fill="#d40000"/>
  <path id="path2543" d="m536.99 554.84c-8.5451 2.5954-3.7845 16.678 3.4915 14.525 4.9256 0.90747 11.819-9.0504 3.4436-10.919-0.9904-2.7339-4.4582-2.008-6.9351-3.6062l0.00001-0.00001" fill="#d40000"/>
  <path id="path2541" d="m608.54 527.59c-6.0081 4.0671-8.776-2.3004-12.579 3.1554-4.8212 0.41595-4.8293 7.849-8.657 7.7133-2.3598 2.5896-8.9891 4.2538-11.288 2.7548-4.3432 4.5708-11.074-1.1084-16.023 3.6062 3.8818 3.7642 4.4675 8.161 6.5047 13.173 2.9834 5.3543 5.5585 8.3842 7.796 14.074 5.7663-1.4909 11.459-1.6763 14.301-8.1641 4.2007-3.3823 3.6078-10.152 7.3656-15.877-1.8994-5.8799 7.9006-9.9757 9.0874-12.722 0.88499-0.74618 12.1-6.1279 3.4915-7.7133l0.00003 0.00001" fill="#d40000"/>
  <path id="path2539" d="m755.08 514.87c-5.0791 1.3341-9.0322 2.0592-8.657 8.1641-0.34044 7.0784-6.3968 12.939-8.2743 18.632-3.7256 4.6568-2.1862 12.491-6.9351 17.23-2.98 6.0291-14.17 4.2982-14.731 7.2625-1.5489 1.3189 14.206 6.5721 14.731-2.2539 6.0148-8.6239 14.394-4.2668 22.145-10.468 1.3903-4.6746 4.9246-10.381 3.8741-15.427 0.87535-6.072 3.5898-13.379 0.8609-20.886-2.4876-0.22786-0.82959-1.838-3.0132-2.2539v-0.00002" fill="#d40000"/>
  <path id="path2537" d="m496.24 504.86c-2.8795 2.7877-7.654 6.1722-3.4436 11.82 2.5617 7.8829 6.2719 12.624 7.3656 19.083 4.3238-2.5114 8.0915-13.654 6.0742-16.829 4.3246-4.4048 0.91137-8.5785-1.3392-12.672-3.5992 1.2376-6.5999 0.22163-8.657-1.4024l-0.00001 0.00001" fill="#d40000"/>
  <path id="path2535" d="m781.53 477.61c-3.1113 6.3581-5.6455 10.086-11.718 9.1157-3.2278 3.7258-13.671 4.6241-11.288 14.074-3.3215 3.9413-3.4222 7.5495 2.2001 5.9102 2.2879 0.77181 8.7427-6.8089 14.731-7.2625 5.8612-2.217 8.3595-7.2186 6.5047-13.623 4.0959-2.7474 2.9234-5.9639-0.43045-8.2141" fill="#d40000"/>
  <path id="path2533" d="m606.58 385.82c-2.867-0.12085-4.7938 11.643 0.00001 6.361 9.2487-1.0087 9.8442 1.8078 2.1523-4.5578-1.0864 1.7336-1.2085-1.7108-2.1523-1.8031h-0.00001" fill="#ffe000"/>
  <path id="path2531" d="m610.88 357.67c-3.5521 1.553-5.2456 2.3837-7.796 3.6062-2.8687-0.72278-8.1123 6.9158-4.735 7.7133-2.7512 1.2879-5.8468-0.0381-4.3524 4.1071-2.4046 8.1658 8.3379 2.0447 5.6438 4.5578 3.0847 1.2343 4.6357 2.8442 6.5047-3.2055-0.50766-1.1365 5.9461-2.4754 4.3046-4.1071 1.6744-3.2113 4.281-4.5146 5.6438-6.8117-1.4399-2.5372-2.0028-4.4677-4.735-5.4093l-0.00003-0.45076h-0.47827" fill="#ffe000"/>
  <path id="path2529" d="m691.14 349.01c-1.8932 1.8132-1.891 3.1896 0.8609 2.304-1.3798-1.3032 2.6623-1.7059-0.86091-2.304l0.00001-0.00001" fill="#ffe000"/>
  <path id="path2527" d="m700.23 287.25c-3.8952 3.7002-9.7078 2.0191-8.2265 2.7547-4.2576 3.3754-6.2362 1.2871-9.9962 6.361-2.9399-0.10049-5.7164 2.3018-8.2265 5.4594-2.4872 1.7371-6.1521 7.7603-10.427 9.5164-4.0432 3.494-11.471 8.7514-6.0742 11.37 0.24748 1.8454 5.195-0.92483 4.7828 1.8031-1.0877 2.2557 5.1463 6.0525 3.9219 0 1.364-2.4683 4.7527-2.703 6.0742-5.0086 7.5767 1.3088 4.7119 7.6335 6.9351 12.722 3.022 5.4744 13.722-1.7274 13.87 5.4594 2.9154 3.7185 6.0886 2.2515 8.657-1.3523 2.1384-0.70039 3.4232-3.432 4.7828-3.6563 1.9547-3.4547 2.161-12.982 6.9351-15.427 1.0424-4.0579 4.4319-9.8552 3.8741-9.1157 0.80946-3.8871 1.2086-4.5989-2.1523-5.8601-4.1407-3.8393-5.2346 0.30859-9.0874 1.8031-8.5559 0.30267-8.857-7.6775-4.7828-10.919-1.683 4.5004-9.2386-0.91148-4.3524-0.90155 5.2248-3.2612 4.3188-4.7846 3.4915-5.0086v0.00001" fill="#ffe000"/>
  <path id="path2525" d="m750.06 273.63c0.98096 4.9725-8.1195 1.3966-9.0874 3.6563-3.8995-2.5517-9.1706 4.9203-4.3524 5.0086-0.88049 3.9875 1.1079 6.5478 4.7828 4.5078 7.4574-3.0901 15.453 6.7949 19.514 6.8117 7.1754 0.79858-0.00065-7.8224 2.5827-5.4093 0.70114-1.1654-3.2756-6.459-3.0132-8.2141-2.5736 0.51981-2.6536-1.5715-5.2133-2.2539 0.0785-1.569-1.1163-4.728-2.1523 0.45078-0.22409-5.5602-0.94405 0.98542-3.061-4.5578v-0.00001" fill="#ffe000"/>
  <path id="path2523" d="m559.75 247.33c-3.3502-0.44231-9.3647 2.2309-3.4915 2.7047 1.4258-0.35789 2.9598-1.1417 3.4915-2.7047h-0.00001" fill="#fabd00"/>
  <path id="path2517" d="m106.89 449.98c-0.29882 1.7193-0.85969 3.5116-2.3694 4.8631-2.2906 5.92-8.9762 5.3699-8.7048 12.221-1.0295 3.5905-4.4929 7.9321-5.2133 10.468 2.776 3.1985 3.768 8.8752 3.4915 11.37 1.881 5.8985-1.0622 13.83 3.4437 18.131 5.5948-3.0586 16.837-3.5808 23.013-0.3174 11.717 6.1875 29.835 13.872 33.807 30.77 5.952 1.901-7.0641 3.735-2.1523 8.6148 0.68672 7.2298 6.2183 3.5349 9.0874 8.6148 5.7155-1.0679-3.025 9.4518 3.9219 4.5578 2.6892 1.2646-4.8552 7.5127-4.3524 0.90155-4.5801-6.496 0.67109 4.0045 1.7218 6.361 3.2647 7.3576 7.6116 10.757 10.857 18.632 4.8955-0.58557 11.528 1.8542 13.87 8.6148 3.3635 0.44583 10.211 1.9889 11.718 5.9102 5.7244-1.9405 12.736-4.3385 9.5179-9.1157 0.95321-8.6367 8.5452 3.4058 7.796-7.2625 4.5304-7.55 7.2022-16.08 16.931-17.23 5.8109-3.0159 11.265-4.6312 17.792-1.8031 5.8211 1.3712 6.6662-7.278 12.101-7.2625 4.9156-4.8496 5.5665-13.189 13.44-9.5665 8.4974 2.4121 13.364-4.8958 20.375-0.90155 5.1061-3.0104 11.277-0.7499 13.44 0.45077 3.2183-2.76 9.3878 0.12002 12.579 0.45078 6.6537 5.5327 11.312-4.7456 18.223-2.2539 5.8859 0.59758 12.212 0.0945 17.792 0.90154 4.8322 3.9824 7.5893 5.0509 13.87 3.1554 3.9184-3.316 6.7726-13.92 13.009-9.5164 5.1101-3.9556 11.693 2.2955 15.162 7.2625 3.6794 0.19546 5.3284-3.2847 7.3656-5.0086-0.95412-2.7024 5.0488-4.2705 3.4915-7.2625 2.0841-3.6304 6.8508-3.3818 6.0742-8.6148 3.8764-7.9425 3.1753-17.95 10.379-23.591 3.265-6.8948 9.1381-8.5155 13.44-10.468-1.0703-4.3181 5.8488-6.5133 9.0874-9.9672 2.7718 1.6172 7.5536-3.3888 8.2743 0.90155 4.7694 3.1992 1.4122-0.96711 6.0742-2.7547 2.4286 1.9694 5.1873-1.0584 5.1655-0.90156 0.82851 0.9053 0.72708 4.147 4.7828 2.304 2.7366-2.744 7.9772-0.58176 11.718-5.4594-2.2038-4.0142-1.5317 2.4185-6.5047-1.8031-5.9764-4.778 0.009-8.8525 1.2914-12.271 2.5106 4.3908 0.20872-8.3584 3.4915-9.1157 0.4776-1.4223 1.3092-2.244 2.0775-3.0158" fill="#d40000"/>
  <path id="path2519" d="m106.89 449.98c0.51984-2.991 0.24662-5.761 2.7961-5.6049 4.1072 0.56252 4.5866-0.25444 6.9351-3.1554 2.9577 3.0473 7.1533 2.086 6.9351-4.5578 3.61-3.0478-0.50108-4.2919 3.061-7.7133-2.8494-1.7491-6.4347 2.3958-8.657 2.2539-2.647-4.8962-5.9998-12.626-10.427-19.033-4.9835-1.3912 0.62927-5.1621-1.7218-4.5578-0.55217-4.3877 2.73-7.4787 4.3046-11.37-4.5528-5.6574 5.3918-12.958 9.5657-14.525 4.592-4.3264 1.887-7.4527 7.0563-12.588 4.3358-7.0531-3.356-11.24-9.2564-9.65 3.7482-6.1936-4.6881-5.0684-5.1655-9.0656 2.6491-5.95-5.7626-8.3175-3.061-14.074 3.523-5.8455-4.3961-5.0945-3.8741-9.1157-3.8944-1.8759-7.7431-7.6991-7.8439-11.82 6.6445 2.5484 12.563 2.2774 18.653 1.4024 6.1839 2.9967 13.328-0.38857 12.579-6.8117-1.753-6.1268 7.387-6.0015 4.7828-11.82 1.534-2.457 3.5263-7.3642 1.7218-9.9672-1.5665-2.8224-4.4311-5.8024-6.5047-6.361-2.1055-4.1066 0.83647-9.7453 5.2133-9.5665 3.8476-0.29188 5.8506-4.9548 7.3656-7.2625 0.59816 2.4043-4.2997-9.0824 0.43046-12.722-4.0238-3.7354 0.61477-7.2674 0-13.173-1.1916-2.6622-1.6716-10.081 0.86092-11.319-1.22-3.794-3.3151-9.5581-6.9351-13.623 3.111-0.0466 11.41-2.2682 9.5657-7.7133 2.7788-2.4881 3.9335-6.1633 6.9351-8.164 2.6476-1.5406 5.083-0.53557 7.796-1.8532 2.124-1.784 4.3537-4.7845 6.9351-6.8117-2.4916-3.5432 4.6934-0.90489 3.0132-3.6062 2.2758-1.582 3.0668-7.1367 4.7828-7.2625 4.761-4.5506 2.9538-9.6485-3.4436-12.722-4.8158-4.1374-7.8702 1.8736-11.288-1.3523-2.1712-2.8738-0.9105-6.2488-0.43045-10.017 2.1516-1.883 1.5092-3.3234 0.68657-4.6878-0.82259-1.3644 521.95-0.12616 521.54 0.0891-0.40814 0.21525-0.90333 0.39783-1.5179 0.54174-1.6971 4.9484-8.1021 3.7838-10.857 9.0656-10.238 4.3998-17.441 11.377-26.88 16.328-3.5169 6.4347-5.7139 7.8894-6.5047 12.271-7.0304 5.2476-17.025 5.4417-23.388 9.0656-8.7268 0.96868-15.254 6.8328-23.006 7.7133-2.5451-0.10738-5.0395 5.6366-7.3656 4.5578-10.631-0.70464-14.191 10.835-20.375 17.28-1.5842 1.2177-5.5853 8.0821 1.2914 6.8117-5.4749-6.1334 3.0377 4.953 5.2133 2.2539 0.64751 5.8141-7.2451 7.4188-10.379 8.1641-8.1063 0.0653-8.7081 10.872-12.148 14.525-2.0764 7.454-6.986 12.166-9.9962 18.632-6.4673 2.5828-4.8216 12.785-11.718 13.623-1.042 10.736-11.886 17.229-13.44 29.05-3.7792 3.985-6.9434 14.778-6.5047 18.181-0.85928 5.5784 7.1599 15.773 6.0742 19.083 0.90897 9.7181 5.8352 18.086 14.779 23.591 3.38-0.21393 10.727 2.7799 9.9483 5.0086 4.8744 4.7997 1.8039 3.5459-1.2914 7.2625-3.119 0.88716-4.0396 5.9858-6.9351 4.9585-5.2466-1.508-4.0278 10.199-9.0874 8.2141-5.0046 2.7386-17.595 4.9214-15.209 14.525-5.4499-1.953-8.036 3.7266-6.0742 9.9672-2.1204 4.1087-9.7917 4.3798-7.796 13.173 1.0316 3.6036-0.0784 4.7565-1.3661 6.0498" fill="#ffe000"/>
  <path id="path2521" d="m160.26 149.99c0.84779 1.4062 518.88 1.4945 521.54 0.0891 2.6648-1.4054 1.6186-4.2032 5.8477-6.7208 2.9093-1.6288 4.8755-5.7269 4.7828-8.6649-0.27557-1.2163-2.911-6.5636-1.7697-9.0656-2.043-4.9508-6.1274-1.0332-5.5959-9.5164 0.37926-6.1322 3.3736-4.4601 5.5959-2.7547 2.2742-2.4894 1.4687 0.64473 3.4915-3.1554-0.86873-1.5739-0.10531-1.3175 0.86091-3.6563 0.0316-0.5265-4.4449-1.7207-5.6438-1.8031-2.345 1.3352-4.1851-4.718-2.1523-6.8117-4.1185 2.0126-5.744 0.1005-8.657-1.8031-3.4332 0.17677-7.3146 0.86576-9.9962 2.2539-1.5964 4.7347-7.7432 0.8761-8.657 5.4594 0.0608 1.7042 0.61618 5.1066-4.7828 2.7047-4.1731 5.0964-6.7706-3.1373-11.718-2.7047-4.4241-4.0475-8.1128-0.0573-11.24-0.90155-2.2905 3.3467-8.1186 9.5526-10.427 2.7047-1.194-6.0748-5.0066-2.7239-9.0874-6.8117-5.1936-0.09364-6.3015-0.3349-9.1352 2.2539-3.9681 0.36205-4.438 4.9542-9.9483 2.7548-2.2591-3.6565 1.8111-7.0389-1.7218-8.164 2.4737-3.5264-1.6302-8.9847-4.3524-12.271-1.8816-0.59682-7.0643-1.2972-9.9962 0.90155-2.7439-4.7069-5.8809-6.4272-10.379-5.9102-2.7482 0.07804-5.3943-1.2634-9.0874-3.1554-2.9738-0.01504-9.1593-3.0077-7.8439 1.8031 0.28158 4.2518-1.9328 3.9874 0.90874 7.2625 1.4918 5.0691-7.4197 0.21777-8.7048 2.7046-4.3798 0.66468-5.9643-0.47346-8.657-1.3523-2.0781 3.6301-3.382 2.4136-6.9351 0-3.5723-2.7694-7.1137 2.8273-11.288 1.8031-3.0322 2.7719-6.6821-1.4935-8.2265-4.5078-2.0406-2.308-6.4202-3.3864-8.657-5.4594-3.4389-0.34934-7.5298 6.6753-11.288 1.3523-1.8545 4.0393-2.6435 3.2985-5.2133 1.8031 0.0347-6.0683-8.8556-3.7531-7.3656-10.418-2.0711-3.7715-6.6926 1.8855-9.9483-1.3523-2.2586 2.6777-6.2719-3.7202-9.1352-2.7547-2.466-0.25223-5.5376-3.3881-9.9483-3.6062-1.8962-1.7657-1.3174-9.0013-3.9219-0.45077-0.42465 7.3862-11.317-2.9501-4.3524-4.1071 0.86297-3.0851 4.5255-9.1536 0-11.82-3.6126 0.2266-8.1687-4.59-8.2265 1.8532-3.7674 0.17983-2.4558-8.1352-7.796-3.6563-1.1428-3.3856-5.2032-4.1983-3.9219-7.2625-4.7409 1.8232-6.7705 5.7936-10.809 5.4594-1.135-0.15214-9.7493 4.5928-11.288 1.8031-6.2744 1.6645-12.696-1.4853-16.453-5.4594-4.1946-0.93968-7.545-2.3995-10.857-3.6062-1.8791-4.9598-6.0327 1.6552-9.5179-0.90155-3.9372 0.25466-4.2266 3.0756-6.9351 5.4594 3.4492 6.5348-5.6866-3.2311-4.3524 0.90154-4.9207 0.2817-7.5492-4.9216-11.288-4.5578-0.8228-0.66142-6.3962 0.37891-6.9351-1.3523-2.7368 0.59853-0.47294 0.50237 0.86091-2.7547-5.2859-0.46808-5.4782-5.0054-9.9483-2.7047-2.9066 0.79632-8.0793 3.6315-6.5047 5.0086-1.4919-2.119-1.2585 0.61867-3.9219 2.2539 0.69052-3.2829-2.167-2.922 2.6306-5.0086-2.0322-3.8471-4.2312 0.29776-9.1352 0-5.1257 2.8817-7.7805 2.5901-12.579 4.5578-5.7077 2.2384-10.807-0.26766-15.162 0.90155-5.5205-0.8763-9.2223-0.1889-14.731-2.2539-4.1381-1.8287-6.7075-2.5048-12.579-3.6563-5.6533-0.07214-6.7935-2.5965-12.579-1.3523-2.0016-4.658-7.0471-4.4751-9.5179-5.9102-6.1228-0.90091-12.345-0.35274-15.64-0.45077-2.1421-3.4657-5.22-3.4228-4.735-6.8117-2.3359-0.52121-3.3429-2.4977-5.6438 0.45077-2.4509 1.4205-4.2607 5.1702-7.796 2.7547-5.2013 3.6452-7.8345 0.9178-10.857-0.95163-1.9875 3.1502-9.2704 2.7608-12.579 1.8532-2.608 2.0052-6.4964-0.23896-8.657-0.90155-5.1716 0.8145-5.8431-0.06928-9.9962 0-2.8258-1.2976-7.0021-0.40349-10.809 0 0.21602 0.97857-4.6058-1.3317-7.3656-0.45077-3.6181-2.1662-6.4542 1.5618-3.9219-1.8532-5.4042-2.9987-5.3933-9.6307-10.857-9.9672-0.89392-1.9169-6.4266-1.6177-4.735-2.2539-1.8408 0.91131-2.8878 6.2231-3.4915 1.8031 0.13594-2.501-1.7352-5.4748-3.8741-2.7547-1.2892-1.0673 3.2759-3.2809 0.43045-4.057-2.1 3.9763-9.111 3.5104-7.312 6.8107-3.558-2.6272-0.233 2.5173-3.061 2.2539-2.117-1.4607-0.036-1.2825 0.431-4.057 0.64585 1.5329-0.80862-4.4364 0-4.1071-3.3027 0.5075-5.1154 4.6226-9.9483 4.1071-2.531 2.0518 1.2395 4.494-1.7696 4.057-0.53886-1.2173-4.4951 3.0165-6.0742 2.7047-0.0083 1.7756-5.138 4.8651-6.9351 3.2055 2.2968 2.7023-1.2087 2.9933-0.8609 6.361-2.1937 2.1523 4.604 0.71509 4.7828-0.45077 0.71672 2.6959 3.6946-1.1109 4.7829-1.3523-1.4596 6.7019-8.9839 1.0373-8.7048 4.9585 3.6536 1.7246 4.6971 0.98156 7.4134 2.304-5.8667 0.37199 0.3015 8.9851-4.3524 4.9585 0.42887-3.7669-6.8083-6.3405-5.2133-1.8031-1.0995 4.7425-3.3201-2.0266-3.0132-1.8031-0.55038 0.91795-3.9426 0.54877-6.0742 4.057-4.1144 0.88859-6.2599 0.30537-11.288 1.8532-3.738 0.82789-6.0532-7.2518-7.3656-2.304-2.6114-1.9951-2.8437 3.5085-5.6438 1.8532-2.677 1.5484 4.0271 4.4209-1.2914 4.9585-1.926-2.632-2.4611 2.3902-5.6438 2.304-2.6841-2.978-8.3829 2.0421-6.0742 4.057 3.4422-4.6968 0.6867 6.5404-1.7218 0.90155 0.68013 2.8486-8.4351 3.8548-3.4915 4.5578 1.3249 3.3166 0.42807 6.9134-1.2914 9.5164 1.0293 5.6259 1.2019 0.84054 3.4915-0.90154 2.1848 4.4632 1.779-1.4156 3.0132 0 1.9811 3.6332 1.2601 3.6126 1.2914 6.8117 3.9163 1.3188-0.62808 4.8165-0.43046 4.5578 1.0616 5.1699 5.3373 4.7418 4.3524 0.90155 1.9219-0.82898 3.724 0.76772 5.2133 0.90155 1.097 0.19844 4.8153-4.8129 3.8741-0.90155-2.1146 1.8369-5.5643 3.7477-7.796 7.2625 0.41582 4.052-6.3727 9.9967-1.7218 9.0656-0.26098 4.272 1.296 6.1538 3.0132 1.8532 3.4786-2.4375 2.8273-2.0839 5.2133-5.9102 1.6954 0.35819 1.1643 3.8296 3.4915 0.45078-2.0588-2.9553 1.4295-4.0581 1.7218 0 2.9533-0.58544 6.4247-5.1618 2.5827 0-0.23571 3.2849-4.3652 4.2595-4.3046 6.361-0.79104-1.8846 1.0959 3.5118 0.43046 4.5578-0.80669 0.25206-0.68927 4.9696-3.061 2.2539 1.8711-5.5962-1.6614-1.1483-3.4437-1.3523-0.20807 1.722 4.2076 1.442 3.0132 4.9585 1.8039 3.6485 3.0731 0.97623 6.5047 1.4024 4.6325-5.1178 5.4612 0.8107 1.2914 1.3523-1.4337 4.1246-3.8019 3.8645-6.5047 3.1554 1.7103 0.57328 1.4767 7.6186-1.2914 2.304-2.177 5.4319 1.5407 3.8821 3.9219 4.057 1.944-2.0922 6.4465-0.45245 6.9351-3.6062 1.0654-1.8356 3.9407-4.6696 2.1523 0 1.8098 2.8962-3.3065 1.9212-4.3524 3.6062-2.8058 3.3042-5.9666 3.1045-7.796 7.7133-0.47697-0.0687 1.4221 4.447-1.7218 2.304-4.4603 1.1908-0.14284 8.2352-2.1523 12.221-0.60896 6.6532 0.54214 7.6359 6.0742 3.2055 3.3967-3.2027 5.6757-7.7527 10.379-9.0656 3.9161-2.1242 8.2609-1.0046 12.148-1.8532 3.4978 0.37813 7.079-4.4139 9.9962-3.6062-2.9918 8.9805 7.0506 1.6991 5.1655 9.9672-4.3807 0.79812-10.353 9.4062-4.735 11.82-0.05049 2.5655 0.97162 3.7191 2.7216 3.981 2.7729 0.0242 6.099-2.1312 7.6572-4.4318 5.8728-2.4947 3.8911-4.8242 5.6438 1.8031 3.3471-2.6661 8.7494-4.52 13.009-1.3523 5.1916-1.441-0.7188 3.7095 1.9102 4.0049 0.68053-0.0395 1.2538-0.16486 2.0117-0.39867 1.7501-1.3422 5.5386-3.3358 6.6904 0.27691 0.10442 0.32753 0.18716 0.70115 0.24475 1.1255 0.25456 0.99994 1.8604-0.19051 3.6524-1.0948 1.1158-0.56304 2.3038-1.0151 3.2827-0.75842 6.4725-0.3823 7.8251-4.7286 6.9351-8.6148 3.6688-4.1454 6.9262 5.4485 11.24 0.45078 5.8544 7.115 10.182-2.8776 11.288-0.45078 0.55552 9.4696 12.608-1.7408 12.148 5.0086-1.6308 1.6461-0.59167 2.9716 0.25612 4.3778z" fill="#d40000"/>
 </g>
</svg>
