<?xml version="1.0" encoding="utf-8"?>
<!-- Generator: Adobe Illustrator 16.0.0, SVG Export Plug-In . SVG Version: 6.00 Build 0)  -->
<!DOCTYPE svg PUBLIC "-//W3C//DTD SVG 1.1//EN" "http://www.w3.org/Graphics/SVG/1.1/DTD/svg11.dtd">
<svg version="1.1"
	 id="svg1453" xmlns:dc="http://purl.org/dc/elements/1.1/" xmlns:cc="http://creativecommons.org/ns#" xmlns:rdf="http://www.w3.org/1999/02/22-rdf-syntax-ns#"
	 xmlns="http://www.w3.org/2000/svg" xmlns:xlink="http://www.w3.org/1999/xlink" x="0px" y="0px" width="742px" height="474px"
	 viewBox="19.075 40.19 742 474" enable-background="new 19.075 40.19 742 474" xml:space="preserve">
<g id="layer1" transform="translate(-15.425 -.30902)">
	<path id="path2547" fill="#D40000" d="M459.853,470.979c-2.873,0.497-4.202,6.961-8.346,3.589
		c-4.614,4.111,5.104,3.162,5.742,6.945c1.281-2.993,2.812-5.532,4.887-8.44C461.764,472.16,461.306,470.833,459.853,470.979
		L459.853,470.979"/>
	<path id="path2545" fill="#D40000" d="M567.996,455.593c-1.127,4.139-3.49,0.758-6.028,1.829c-3.414-0.111-2.876-1.948-6.062-0.93
		c0.949,2.036-2.204,6.752-4.887,7.842c-3.145,5.609,3.557,11.879,6.632,12.66c3.476,2.079,8.968-1.723,10.632-4.521
		c1.735-2.453,2.178-5.027,1.459-5.714c1.297-2.718-2.551-4.05-1.746-8.142C566.093,457.224,569.976,458.279,567.996,455.593
		L567.996,455.593"/>
	<path id="path2543" fill="#D40000" d="M488.608,452.9c-5.67,1.721-2.512,11.065,2.315,9.637c3.269,0.602,7.843-6.005,2.285-7.244
		C492.551,453.478,490.25,453.961,488.608,452.9L488.608,452.9"/>
	<path id="path2541" fill="#D40000" d="M536.077,434.821c-3.986,2.698-5.822-1.526-8.346,2.094
		c-3.199,0.275-3.204,5.208-5.744,5.116c-1.564,1.719-5.963,2.822-7.487,1.828c-2.883,3.032-7.349-0.735-10.631,2.394
		c2.575,2.498,2.964,5.415,4.315,8.739c1.978,3.553,3.687,5.563,5.172,9.338c3.825-0.989,7.603-1.114,9.488-5.416
		c2.786-2.244,2.394-6.736,4.887-10.534c-1.261-3.902,5.241-6.619,6.029-8.44C534.348,439.444,541.788,435.872,536.077,434.821
		L536.077,434.821"/>
	<path id="path2539" fill="#D40000" d="M633.302,426.382c-3.37,0.885-5.994,1.366-5.745,5.416
		c-0.226,4.697-4.242,8.586-5.488,12.363c-2.472,3.089-1.451,8.286-4.602,11.43c-1.978,4.001-9.4,2.853-9.774,4.819
		c-1.026,0.874,9.426,4.36,9.774-1.495c3.99-5.723,9.549-2.832,14.691-6.945c0.923-3.102,3.269-6.889,2.57-10.234
		c0.581-4.03,2.383-8.878,0.572-13.857C633.65,427.726,634.75,426.658,633.302,426.382L633.302,426.382"/>
	<path id="path2537" fill="#D40000" d="M461.57,419.74c-1.91,1.849-5.078,4.096-2.284,7.843c1.699,5.23,4.161,8.375,4.887,12.66
		c2.867-1.667,5.368-9.059,4.03-11.165c2.869-2.921,0.604-5.69-0.889-8.406C464.926,421.49,462.937,420.817,461.57,419.74
		L461.57,419.74"/>
	<path id="path2535" fill="#D40000" d="M650.85,401.661c-2.064,4.219-3.745,6.692-7.774,6.048c-2.142,2.472-9.07,3.068-7.489,9.338
		c-2.203,2.615-2.271,5.008,1.459,3.921c1.518,0.512,5.801-4.518,9.773-4.817c3.89-1.472,5.546-4.789,4.316-9.039
		C653.853,405.288,653.074,403.154,650.85,401.661"/>
	<path id="path2533" fill="#FFE000" d="M534.778,340.762c-1.902-0.08-3.181,7.727,0,4.22c6.136-0.668,6.531,1.2,1.428-3.022
		C535.484,343.108,535.404,340.823,534.778,340.762L534.778,340.762"/>
	<path id="path2531" fill="#FFE000" d="M537.63,322.086c-2.356,1.03-3.48,1.581-5.173,2.393c-1.903-0.479-5.382,4.589-3.142,5.116
		c-1.824,0.855-3.878-0.024-2.888,2.727c-1.596,5.418,5.531,1.356,3.746,3.022c2.046,0.82,3.074,1.888,4.314-2.126
		c-0.336-0.753,3.945-1.642,2.856-2.726c1.11-2.129,2.84-2.995,3.744-4.518c-0.955-1.685-1.328-2.965-3.142-3.59v-0.299H537.63"/>
	<path id="path2529" fill="#FFE000" d="M590.88,316.341c-1.257,1.203-1.255,2.116,0.57,1.528
		C590.535,317.004,593.217,316.736,590.88,316.341L590.88,316.341"/>
	<path id="path2527" fill="#FFE000" d="M596.91,275.365c-2.585,2.455-6.441,1.339-5.458,1.827c-2.824,2.24-4.138,0.854-6.632,4.22
		c-1.95-0.066-3.793,1.527-5.458,3.623c-1.651,1.152-4.081,5.148-6.918,6.313c-2.683,2.318-7.611,5.807-4.03,7.544
		c0.164,1.225,3.447-0.614,3.173,1.196c-0.721,1.496,3.414,4.016,2.603,0c0.904-1.639,3.152-1.794,4.03-3.324
		c5.025,0.87,3.126,5.065,4.601,8.44c2.006,3.633,9.104-1.146,9.203,3.623c1.933,2.467,4.039,1.494,5.742-0.896
		c1.419-0.465,2.271-2.278,3.174-2.427c1.297-2.292,1.434-8.613,4.601-10.234c0.691-2.692,2.94-6.539,2.571-6.049
		c0.536-2.579,0.802-3.051-1.428-3.887c-2.748-2.547-3.474,0.205-6.029,1.196c-5.678,0.201-5.877-5.093-3.173-7.244
		c-1.117,2.986-6.129-0.604-2.889-0.599C598.06,276.524,597.458,275.514,596.91,275.365L596.91,275.365"/>
	<path id="path2525" fill="#FFE000" d="M629.971,266.329c0.649,3.299-5.387,0.926-6.029,2.426c-2.588-1.693-6.084,3.264-2.888,3.323
		c-0.585,2.646,0.735,4.344,3.172,2.991c4.948-2.05,10.253,4.508,12.947,4.52c4.76,0.529,0-5.19,1.714-3.59
		c0.465-0.772-2.174-4.284-1.998-5.449c-1.709,0.345-1.762-1.043-3.46-1.495c0.052-1.041-0.74-3.137-1.427,0.299
		C631.853,265.664,631.374,270.007,629.971,266.329L629.971,266.329"/>
	<path id="path2523" fill="#FABD00" d="M503.707,248.88c-2.223-0.293-6.213,1.48-2.316,1.794
		C502.337,250.436,503.354,249.917,503.707,248.88L503.707,248.88"/>
	<path id="path2517" fill="#D40000" d="M203.253,383.329c-0.198,1.143-0.57,2.33-1.572,3.227c-1.52,3.928-5.955,3.563-5.775,8.109
		c-0.683,2.382-2.981,5.263-3.459,6.944c1.842,2.123,2.5,5.889,2.316,7.544c1.248,3.912-0.705,9.176,2.285,12.028
		c3.712-2.028,11.17-2.375,15.268-0.209c7.774,4.104,19.794,9.202,22.43,20.413c3.949,1.264-4.687,2.479-1.428,5.717
		c0.456,4.797,4.126,2.345,6.029,5.715c3.792-0.708-2.007,6.271,2.602,3.022c1.785,0.841-3.221,4.987-2.887,0.6
		c-3.039-4.311,0.445,2.657,1.142,4.222c2.166,4.881,5.05,7.135,7.204,12.36c3.248-0.387,7.648,1.231,9.202,5.716
		c2.231,0.294,6.774,1.32,7.775,3.921c3.798-1.287,8.449-2.879,6.314-6.048c0.632-5.729,5.669,2.26,5.172-4.817
		c3.006-5.01,4.779-10.668,11.234-11.433c3.855-2,7.474-3.071,11.804-1.195c3.862,0.909,4.422-4.83,8.028-4.819
		c3.261-3.218,3.693-8.751,8.917-6.347c5.638,1.6,8.866-3.248,13.518-0.598c3.388-1.999,7.482-0.497,8.917,0.299
		c2.135-1.832,6.229,0.08,8.346,0.299c4.415,3.671,7.505-3.149,12.09-1.495c3.905,0.396,8.103,0.062,11.804,0.599
		c3.206,2.643,5.035,3.351,9.203,2.093c2.599-2.199,4.493-9.235,8.63-6.313c3.391-2.624,7.758,1.521,10.06,4.818
		c2.44,0.129,3.535-2.179,4.887-3.324c-0.634-1.793,3.35-2.833,2.316-4.817c1.382-2.408,4.545-2.243,4.03-5.716
		c2.571-5.269,2.106-11.91,6.886-15.652c2.166-4.574,6.062-5.649,8.916-6.943c-0.711-2.866,3.882-4.321,6.029-6.613
		c1.84,1.072,5.012-2.248,5.49,0.598c3.164,2.123,0.938-0.642,4.029-1.827c1.612,1.307,3.442-0.702,3.428-0.599
		c0.55,0.6,0.482,2.751,3.173,1.529c1.816-1.82,5.293-0.387,7.775-3.623c-1.463-2.663-1.018,1.605-4.316-1.197
		c-3.965-3.168,0.006-5.871,0.856-8.141c1.665,2.914,0.139-5.545,2.316-6.047c0.317-0.943,0.869-1.49,1.379-2.002"/>
	<path id="path2519" fill="#FFE000" d="M203.253,383.329c0.345-1.983,0.164-3.82,1.855-3.718c2.725,0.373,3.043-0.169,4.601-2.094
		c1.962,2.021,4.746,1.385,4.601-3.023c2.395-2.022-0.332-2.849,2.031-5.119c-1.89-1.158-4.269,1.591-5.743,1.496
		c-1.756-3.249-3.98-8.376-6.918-12.628c-3.307-0.922,0.417-3.425-1.142-3.023c-0.366-2.911,1.811-4.961,2.855-7.544
		c-3.02-3.752,3.578-8.596,6.347-9.636c3.046-2.87,1.251-4.944,4.682-8.352c2.876-4.681-2.227-7.457-6.141-6.402
		c2.486-4.109-3.111-3.362-3.427-6.015c1.757-3.946-3.823-5.519-2.031-9.337c2.337-3.879-2.917-3.38-2.571-6.049
		c-2.583-1.244-5.137-5.108-5.204-7.843c4.408,1.692,8.335,1.512,12.375,0.931c4.103,1.988,8.842-0.258,8.345-4.52
		c-1.163-4.064,4.901-3.981,3.173-7.841c1.018-1.63,2.34-4.886,1.142-6.613c-1.039-1.873-2.94-3.849-4.315-4.22
		c-1.396-2.725,0.556-6.466,3.459-6.347c2.552-0.193,3.881-3.288,4.886-4.818c0.397,1.596-2.853-6.026,0.286-8.44
		c-2.67-2.478,0.408-4.821,0-8.74c-0.792-1.767-1.11-6.688,0.571-7.51c-0.81-2.518-2.2-6.342-4.602-9.038
		c2.064-0.031,7.57-1.505,6.347-5.118c1.843-1.65,2.609-4.089,4.601-5.417c1.757-1.022,3.373-0.355,5.173-1.229
		c1.409-1.184,2.889-3.174,4.601-4.52c-1.654-2.351,3.114-0.6,1.999-2.392c1.51-1.05,2.035-4.735,3.173-4.819
		c3.159-3.019,1.96-6.401-2.284-8.44c-3.196-2.745-5.222,1.243-7.489-0.897c-1.44-1.907-0.604-4.146-0.286-6.646
		c1.427-1.25,1.001-2.205,0.455-3.11c-0.546-0.905,346.293-0.084,346.021,0.06c-0.271,0.143-0.6,0.264-1.009,0.359
		c-1.125,3.283-5.373,2.51-7.202,6.015c-6.792,2.919-11.57,7.548-17.834,10.833c-2.333,4.27-3.791,5.235-4.315,8.142
		c-4.664,3.481-11.295,3.61-15.517,6.015c-5.79,0.643-10.12,4.534-15.265,5.118c-1.688-0.071-3.343,3.739-4.886,3.024
		c-7.054-0.468-9.416,7.188-13.518,11.464c-1.05,0.808-3.705,5.363,0.855,4.52c-3.632-4.07,2.016,3.286,3.46,1.495
		c0.43,3.857-4.808,4.922-6.887,5.417c-5.377,0.043-5.777,7.213-8.06,9.637c-1.377,4.946-4.634,8.072-6.632,12.361
		c-4.291,1.714-3.198,8.483-7.775,9.039c-0.69,7.123-7.885,11.43-8.915,19.274c-2.509,2.644-4.607,9.803-4.317,12.062
		c-0.57,3.7,4.751,10.463,4.03,12.659c0.604,6.449,3.873,12.001,9.806,15.652c2.243-0.142,7.116,1.846,6.601,3.323
		c3.233,3.185,1.196,2.353-0.856,4.818c-2.07,0.589-2.681,3.971-4.601,3.29c-3.481-1.001-2.674,6.767-6.029,5.45
		c-3.321,1.816-11.675,3.265-10.091,9.636c-3.617-1.295-5.332,2.473-4.031,6.613c-1.407,2.727-6.496,2.905-5.171,8.739
		c0.683,2.393-0.053,3.156-0.906,4.014"/>
	<path id="path2521" fill="#D40000" d="M238.662,184.298c0.563,0.933,344.255,0.992,346.02,0.06c1.769-0.933,1.074-2.789,3.88-4.459
		c1.931-1.081,3.235-3.799,3.174-5.749c-0.183-0.808-1.931-4.354-1.174-6.015c-1.355-3.285-4.065-0.686-3.713-6.314
		c0.251-4.068,2.239-2.959,3.713-1.828c1.509-1.651,0.974,0.428,2.316-2.093c-0.576-1.044-0.07-0.875,0.571-2.426
		c0.021-0.35-2.949-1.142-3.744-1.196c-1.557,0.886-2.777-3.131-1.429-4.52c-2.731,1.335-3.812,0.067-5.743-1.196
		c-2.278,0.118-4.854,0.574-6.633,1.496c-1.059,3.141-5.138,0.582-5.742,3.622c0.039,1.13,0.407,3.388-3.173,1.795
		c-2.771,3.38-4.493-2.082-7.776-1.795c-2.935-2.686-5.383-0.038-7.457-0.598c-1.52,2.22-5.386,6.338-6.918,1.794
		c-0.791-4.031-3.321-1.807-6.029-4.519c-3.445-0.062-4.181-0.223-6.06,1.495c-2.634,0.24-2.944,3.287-6.602,1.828
		c-1.498-2.426,1.201-4.67-1.142-5.416c1.641-2.34-1.082-5.961-2.888-8.142c-1.248-0.396-4.688-0.861-6.633,0.598
		c-1.819-3.123-3.901-4.264-6.886-3.92c-1.823,0.051-3.578-0.839-6.029-2.094c-1.973-0.01-6.076-1.995-5.203,1.196
		c0.187,2.821-1.282,2.646,0.603,4.818c0.99,3.363-4.922,0.145-5.775,1.794c-2.905,0.441-3.958-0.314-5.744-0.897
		c-1.378,2.408-2.243,1.601-4.6,0c-2.372-1.837-4.722,1.876-7.49,1.196c-2.013,1.84-4.434-0.99-5.458-2.991
		c-1.354-1.531-4.26-2.247-5.743-3.622c-2.281-0.231-4.996,4.429-7.488,0.898c-1.231,2.68-1.755,2.188-3.46,1.196
		c0.023-4.027-5.875-2.49-4.887-6.912c-1.375-2.502-4.44,1.251-6.601-0.897c-1.498,1.777-4.161-2.469-6.062-1.827
		c-1.636-0.168-3.673-2.249-6.6-2.393c-1.258-1.171-0.874-5.973-2.603-0.299c-0.28,4.9-7.507-1.958-2.887-2.725
		c0.573-2.047,3.003-6.073,0-7.842c-2.396,0.15-5.421-3.045-5.458,1.23c-2.499,0.119-1.629-5.397-5.172-2.426
		c-0.758-2.246-3.453-2.786-2.603-4.819c-3.145,1.209-4.493,3.844-7.172,3.623c-0.752-0.101-6.467,3.047-7.488,1.196
		c-4.163,1.104-8.423-0.986-10.917-3.623c-2.783-0.624-5.006-1.591-7.203-2.392c-1.246-3.291-4.003,1.098-6.315-0.599
		c-2.612,0.169-2.804,2.041-4.601,3.623c2.289,4.335-3.772-2.144-2.887,0.598c-3.265,0.187-5.009-3.266-7.49-3.024
		c-0.546-0.439-4.244,0.252-4.601-0.897c-1.816,0.397-0.314,0.333,0.571-1.828c-3.507-0.31-3.634-3.321-6.6-1.795
		c-1.928,0.529-5.36,2.41-4.315,3.323c-0.99-1.406-0.835,0.411-2.603,1.496c0.459-2.178-1.437-1.938,1.747-3.323
		c-1.349-2.553-2.808,0.197-6.062,0c-3.4,1.912-5.162,1.719-8.346,3.023c-3.787,1.486-7.17-0.177-10.06,0.598
		c-3.663-0.581-6.119-0.125-9.773-1.495c-2.745-1.213-4.45-1.662-8.345-2.425c-3.751-0.048-4.508-1.723-8.347-0.897
		c-1.327-3.09-4.675-2.969-6.315-3.921c-4.062-0.598-8.19-0.234-10.376-0.299c-1.421-2.3-3.463-2.271-3.142-4.519
		c-1.55-0.346-2.218-1.658-3.745,0.299c-1.625,0.942-2.826,3.43-5.172,1.827c-3.451,2.419-5.198,0.609-7.203-0.631
		c-1.319,2.09-6.15,1.832-8.346,1.229c-1.73,1.33-4.311-0.159-5.744-0.599c-3.431,0.541-3.877-0.045-6.632,0
		c-1.874-0.861-4.646-0.268-7.171,0c0.144,0.65-3.056-0.883-4.887-0.299c-2.4-1.437-4.282,1.037-2.602-1.229
		c-3.585-1.989-3.578-6.39-7.203-6.613c-0.593-1.271-4.264-1.073-3.141-1.496c-1.221,0.604-1.916,4.129-2.317,1.197
		c0.09-1.66-1.151-3.632-2.57-1.828c-0.855-0.708,2.174-2.177,0.286-2.691c-1.393,2.638-6.045,2.329-4.851,4.519
		c-2.361-1.743-0.155,1.67-2.031,1.495c-1.405-0.969-0.024-0.851,0.285-2.691c0.429,1.017-0.536-2.944,0-2.725
		c-2.19,0.337-3.393,3.067-6.6,2.725c-1.679,1.361,0.823,2.981-1.174,2.691c-0.357-0.808-2.982,2.001-4.03,1.795
		c-0.006,1.178-3.409,3.228-4.601,2.126c1.524,1.793-0.802,1.986-0.572,4.22c-1.455,1.429,3.055,0.476,3.173-0.299
		c0.476,1.789,2.452-0.737,3.173-0.896c-0.968,4.446-5.959,0.688-5.775,3.29c2.424,1.144,3.117,0.651,4.918,1.528
		c-3.892,0.247,0.2,5.961-2.888,3.291c0.284-2.5-4.517-4.207-3.458-1.197c-0.73,3.146-2.203-1.344-2-1.196
		c-0.365,0.609-2.616,0.364-4.03,2.691c-2.73,0.59-4.153,0.204-7.49,1.23c-2.479,0.549-4.016-4.811-4.886-1.528
		c-1.733-1.325-1.887,2.327-3.745,1.229c-1.775,1.027,2.672,2.933-0.856,3.29c-1.278-1.746-1.633,1.586-3.745,1.529
		c-1.781-1.976-5.562,1.355-4.03,2.691c2.284-3.116,0.456,4.34-1.142,0.598c0.451,1.89-5.597,2.558-2.317,3.024
		c0.879,2.2,0.284,4.586-0.857,6.313c0.683,3.733,0.798,0.559,2.317-0.598c1.449,2.961,1.18-0.939,1.999,0
		c1.314,2.41,0.836,2.396,0.857,4.52c2.598,0.875-0.417,3.195-0.286,3.024c0.705,3.43,3.542,3.146,2.888,0.598
		c1.274-0.55,2.47,0.509,3.459,0.599c0.727,0.131,3.194-3.193,2.57-0.599c-1.403,1.219-3.692,2.486-5.172,4.819
		c0.276,2.687-4.228,6.632-1.143,6.014c-0.173,2.834,0.86,4.083,2,1.229c2.308-1.618,1.875-1.383,3.458-3.921
		c1.125,0.238,0.772,2.541,2.316,0.299c-1.366-1.96,0.948-2.692,1.143,0c1.959-0.389,4.263-3.425,1.714,0
		c-0.157,2.18-2.897,2.826-2.856,4.221c-0.525-1.25,0.728,2.33,0.286,3.023c-0.536,0.167-0.457,3.298-2.031,1.496
		c1.241-3.713-1.102-0.762-2.284-0.897c-0.139,1.143,2.792,0.957,1.999,3.29c1.197,2.421,2.039,0.648,4.315,0.931
		c3.073-3.396,3.624,0.538,0.857,0.897c-0.951,2.735-2.522,2.563-4.316,2.093c1.135,0.38,0.98,5.055-0.856,1.529
		c-1.445,3.604,1.022,2.575,2.602,2.692c1.29-1.389,4.277-0.3,4.601-2.393c0.707-1.217,2.614-3.098,1.428,0
		c1.201,1.922-2.194,1.275-2.888,2.393c-1.862,2.192-3.958,2.06-5.172,5.118c-0.316-0.046,0.943,2.95-1.143,1.528
		c-2.959,0.791-0.094,5.464-1.427,8.108c-0.405,4.415,0.359,5.066,4.029,2.127c2.253-2.125,3.766-5.144,6.886-6.015
		c2.598-1.41,5.481-0.666,8.06-1.23c2.321,0.251,4.697-2.928,6.632-2.392c-1.985,5.958,4.678,1.127,3.427,6.613
		c-2.907,0.529-6.87,6.24-3.142,7.842c-0.034,1.702,0.644,2.467,1.806,2.642c1.839,0.016,4.046-1.414,5.08-2.94
		c3.896-1.655,2.582-3.201,3.744,1.196c2.221-1.769,5.805-2.999,8.631-0.897c3.445-0.956-0.477,2.462,1.267,2.658
		c0.452-0.026,0.832-0.11,1.335-0.265c1.161-0.891,3.674-2.213,4.438,0.184c0.069,0.217,0.124,0.465,0.163,0.747
		c0.168,0.663,1.234-0.126,2.423-0.727c0.74-0.374,1.528-0.673,2.178-0.503c4.294-0.253,5.192-3.137,4.601-5.715
		c2.435-2.751,4.596,3.614,7.457,0.299c3.885,4.72,6.755-1.909,7.489-0.299c0.369,6.283,8.365-1.155,8.06,3.323
		c-1.081,1.092-0.392,1.971,0.17,2.904L238.662,184.298z"/>
</g>
</svg>
