<?xml version="1.0"?><svg width="720" height="613.3333333333333" xmlns="http://www.w3.org/2000/svg">

 <g>
  <title>Layer 1</title>
  <path fill="#c42513" fill-rule="evenodd" stroke="#000000" stroke-width="3.125" stroke-linecap="round" stroke-linejoin="round" stroke-miterlimit="4" id="rect921" d="m61.066601,28.800341l13.203121,4.721678l-16.796871,4.72168l-25.546881,-1.528316l-15.546869,5.97168l-6.796881,13.47168l3.20313,18.471676l15.70312,-0.27832l-14.29687,14.72168l19.453122,-4.028313l-6.796871,9.72168l11.953117,12.22168l-15.546867,14.72168l1.953119,12.221672l18.203119,-11.528313l14.453129,-2.77832l-3.046879,12.221672l8.750011,10.546875l14.999996,-4.453125l31.25,3.046875l12.5,-6.953125l18.750008,5.546875l5.9375,11.474609l12.1875,6.474609l5.9375,10.224609l-17.8125,13.974609l-24.062508,12.724609l2.1875,15.224609l3.437508,23.974609l-9.062508,7.724609l11.250008,13.046875l-20.000008,0.546875l12.5,21.79689l-11.25,16.796844l-26.25,1.796906l13.75,15.546875l-2.5,21.796875l20,10.546875l-18.75,16.796875l-2.5,20.546875l5,14.296875l13.75,9.296875l-21.25,11.796875l-13.75,16.796875l1.25,15.546875l1.25,20.546875l25,1.796875l13.75,3.046844l15.000008,20.546906l1.25,14.296844l15,8.046906l-7.5,6.796875l3.75,10.546875l8.75,8.046875l7.5,14.296875l18.945313,2.5l12.695297,-5l6.445328,-22.5l12.695313,-3.75l15.195313,-2.5l11.445313,-1.25l16.445297,-18.75l8.945313,5l17.695313,0l8.945313,-1.25l15.195313,1.25l15.195313,-6.25l25.195313,8.75l6.445343,-15l13.945282,0l1.445313,8.75l13.945313,1.25l6.445313,-13.75l10.195313,-30l7.695313,-1.25l5.195313,2.5l8.945343,-11.25l14.921844,-3.75l11.445313,2.5l6.445343,-10l-2.304718,-8.75l10.195313,-3.75l1.25,-18.046875l8.75,-8.046875l3.75,-16.796906l22.5,-14.296844l8.75,-10.546906l-26.25,-19.296844l-1.25,-21.796906l0,-15.546844l11.25,-29.296875l25,-26.79689l1.25,-13.046875l20,-9.296875l0,-6.796875l-12.5,-0.546875l22.5,-23.046875l12.5,-0.546875l16.25,-6.796875l28.75,-8.046875l7.5,-18.046875l22.5,-5.546875l13.75,-16.796875l6.25,-11.796875l-5,-19.296875l11.25,-9.296875l-21.25,-5.546875l-21.25,10.703125l-13.75,-6.796867l-16.25,0.703117l-27.5,-3.046875l-5,-13.046875l-8.75,3.203125l-8.75,-9.296875l-13.945313,-2.5l-7.695313,12.5l-33.945313,1.25l-1.445313,-13.75l-21.445313,7.5l-8.945313,-8.75l-20.195313,-7.5l-16.445313,-3.75l2.304688,-13.75l-5.195282,-15l-37.695343,12.5l-32.695313,-12.5l-17.695313,10l-10.195313,-5l-12.695313,-5l-11.445313,10l-6.445313,-6.25l-21.445282,2.5l-25.195328,-5l-41.445313,-9.999998l-5.195313,-7.5l-13.945328,8.75l-22.695297,-2.5l-26.445313,3.75l-16.445313,-6.25l-6.445313,-6.250001l-12.69532,-3.75l-8.945313,-5l-11.44532,6.25l-5.390617,7.500001l-6.445309,8.75z"/>
 </g>
</svg>