<?xml version="1.0" encoding="UTF-8" standalone="no"?>
<!-- Created with Inkscape (http://www.inkscape.org/) -->
<svg
   xmlns:dc="http://purl.org/dc/elements/1.1/"
   xmlns:cc="http://web.resource.org/cc/"
   xmlns:rdf="http://www.w3.org/1999/02/22-rdf-syntax-ns#"
   xmlns:svg="http://www.w3.org/2000/svg"
   xmlns="http://www.w3.org/2000/svg"
   xmlns:sodipodi="http://sodipodi.sourceforge.net/DTD/sodipodi-0.dtd"
   xmlns:inkscape="http://www.inkscape.org/namespaces/inkscape"
   width="477"
   height="979"
   id="svg8042"
   sodipodi:version="0.32"
   inkscape:version="0.45.1"
   version="1.0"
   sodipodi:docbase="/home/jens/Desktop"
   sodipodi:docname="sweden.svg"
   inkscape:output_extension="org.inkscape.output.svg.inkscape">
  <defs
     id="defs8044" />
  <sodipodi:namedview
     id="base"
     pagecolor="#ffffff"
     bordercolor="#666666"
     borderopacity="1.0"
     gridtolerance="10000"
     guidetolerance="10"
     objecttolerance="10"
     inkscape:pageopacity="0.0"
     inkscape:pageshadow="2"
     inkscape:zoom="0.25"
     inkscape:cx="386.27044"
     inkscape:cy="600"
     inkscape:document-units="px"
     inkscape:current-layer="layer1"
     inkscape:window-width="822"
     inkscape:window-height="594"
     inkscape:window-x="435"
     inkscape:window-y="50" />
  <metadata
     id="metadata8047">
    <rdf:RDF>
      <cc:Work
         rdf:about="">
        <dc:format>image/svg+xml</dc:format>
        <dc:type
           rdf:resource="http://purl.org/dc/dcmitype/StillImage" />
      </cc:Work>
    </rdf:RDF>
  </metadata>
  <g
     inkscape:label="Layer 1"
     inkscape:groupmode="layer"
     id="layer1"
     transform="translate(-74.5,-62.362182)">
    <path
       style="fill:none;fill-rule:evenodd;stroke:#000000;stroke-width:1px;stroke-linecap:butt;stroke-linejoin:miter;stroke-opacity:1"
       d="M 455,64.362183 L 455,64.362183 z "
       id="path8120" />
    <path
       style="fill:#000000;fill-rule:evenodd;stroke:#000000;stroke-width:1px;stroke-linecap:butt;stroke-linejoin:miter;stroke-opacity:1"
       d="M 440,67.362183 L 445,82.362183 L 439,95.362183 L 433,101.36218 L 437,109.36218 L 435,114.36218 L 414,105.36218 L 400,107.36218 L 393,103.36218 L 385,104.36218 L 387,120.36218 L 382,142.36218 L 361,133.36218 L 348,145.36218 L 339,168.36218 L 329,173.36218 L 328,182.36218 L 334,190.36218 L 333,207.36218 L 318,218.36218 L 309,235.36218 L 297,245.36218 L 297,259.36218 L 297,266.36218 L 284,268.36218 L 270,266.36218 L 269,287.36218 L 260,321.36218 L 262,328.36218 L 257,332.36218 L 255,341.36218 L 226,377.36218 L 241,385.36218 L 240,405.36218 L 235,414.36218 L 231,418.36218 L 207,407.36218 L 194,414.36218 C 194,414.36218 183,426.36218 175,436.36218 C 167,446.36218 168,440.36218 168,440.36218 L 170,451.36218 L 162,463.36218 L 165,482.36218 L 158,488.36218 L 159,500.36218 L 152,510.36218 L 155,530.36218 L 148,576.36218 L 154,588.36218 L 156,589.36218 L 167,605.36218 L 164.5,615.86218 L 160,616.36218 L 157.5,623.86218 L 140.5,624.36218 L 147,657.86218 L 149.5,660.86218 L 149,672.86218 L 142.5,678.86218 L 143.5,689.36218 L 124.5,706.36218 L 117.5,702.86218 L 114,705.36218 L 116,712.86218 L 114.5,719.36218 L 107,720.86218 L 104.5,726.86218 L 107.5,747.86218 L 103.5,752.86218 L 103.5,762.36218 L 99.5,764.36218 L 94.5,773.36218 L 86.5,773.86218 L 88,760.86218 L 86,754.86218 L 76.5,758.36218 L 75,808.36218 L 78,809.86218 L 80.5,803.36218 L 79,811.36218 L 85.5,806.86218 L 89,809.36218 L 81,818.36218 L 77,824.36218 L 81,831.86218 L 83,827.36218 L 87,829.36218 L 92,827.36218 L 84,844.86218 L 88,850.86218 L 91.5,864.86218 L 87,874.86218 L 88.5,885.36218 L 93,879.86218 L 95.5,881.36218 L 94,895.86218 L 100,909.86218 L 104.5,920.36218 L 111,939.36218 L 118,940.36218 L 120,948.36218 L 115,954.86218 L 103.5,954.36218 L 111,969.86218 L 98,963.86218 L 106.5,996.86218 L 109,1000.3622 L 108,1005.3622 L 115,1011.3622 L 114.5,1015.3622 L 104.5,1016.3622 L 108,1032.3622 L 113.5,1032.8622 L 125.5,1040.8622 L 129.5,1036.8622 L 132.5,1037.8622 L 136.5,1034.8622 L 151,1036.8622 L 153.5,1039.8622 L 159.5,1040.3622 L 168,1029.8622 L 162,1016.3622 L 166,1004.8622 L 171,998.86218 L 175,1000.3622 L 179.5,991.86218 L 187,996.36218 L 188.5,992.36218 L 186,987.36218 L 204,989.86218 L 216.5,991.86218 L 227,988.36218 L 230,993.86218 L 231,997.86218 L 239.5,991.86218 L 250,964.86218 L 259.5,951.36218 L 265,930.86218 L 269,928.86218 L 265,921.36218 L 266.5,913.86218 L 272.5,908.36218 L 275,883.86218 L 280.5,877.86218 L 282.5,864.36218 L 286.5,840.36218 L 281,832.86218 L 290.5,829.36218 L 292.5,825.36218 L 288.5,820.36218 L 296.5,820.36218 L 308.5,813.36218 L 329.5,806.86218 L 351.5,800.86218 L 362,786.86218 L 371,773.86218 L 374,758.36218 L 362,758.86218 L 376.5,744.86218 L 385,735.86218 L 375.5,727.86218 L 370.5,707.86218 L 360.5,694.36218 L 347,686.86218 L 345.5,674.86218 L 333,672.86218 L 322,671.86218 L 317,648.86218 L 320,614.86218 L 317.5,605.86218 L 321,598.36218 L 329,600.86218 L 328,586.36218 L 336.5,559.36218 L 333,550.86218 L 331.5,544.86218 L 331.5,536.86218 L 336,543.86218 L 340.5,546.86218 L 344,540.86218 L 353,534.86218 L 367,514.86218 L 370.5,500.36218 L 379.5,485.36218 L 386,489.86218 L 398,479.36218 L 405.5,469.36218 L 410.5,477.86218 L 416.5,471.86218 L 414.5,469.36218 L 427,460.36218 L 446,448.36218 L 457,423.86218 L 475.5,403.36218 L 463.5,388.86218 L 461.5,377.36218 L 479.5,354.86218 L 474,342.86218 L 484.5,334.36218 L 495.5,320.36218 L 504,310.36218 L 519.5,311.36218 L 528,305.36218 L 546.5,304.86218 L 551,301.36218 L 546,283.86218 L 537,273.36218 L 536,258.86218 L 543.5,250.86218 L 542,226.86218 L 531.5,208.36218 L 532,200.36218 L 537.5,198.86218 L 535.5,186.86218 L 528.5,184.86218 L 529,176.86218 L 531,175.36218 L 528.5,161.86218 L 530,153.86218 L 533,150.86218 L 525,135.86218 L 520.5,135.36218 L 518,125.86218 L 501.5,112.86218 L 492.5,112.36218 L 486.5,103.86218 L 482.5,101.36218 L 478.5,96.362182 L 475,95.862182 L 475,89.862182 L 466.5,83.362182 L 459.5,82.362182 L 460.5,76.862182 L 456.5,64.362182 L 454.5,62.862182 L 452,68.362182 L 440,67.362183 z "
       id="path8122" />
  </g>
</svg>
