<?xml version="1.0" encoding="UTF-8" standalone="no"?>
<svg
   xmlns:dc="http://purl.org/dc/elements/1.1/"
   xmlns:cc="http://creativecommons.org/ns#"
   xmlns:rdf="http://www.w3.org/1999/02/22-rdf-syntax-ns#"
   xmlns:svg="http://www.w3.org/2000/svg"
   xmlns="http://www.w3.org/2000/svg"
   xmlns:sodipodi="http://sodipodi.sourceforge.net/DTD/sodipodi-0.dtd"
   xmlns:inkscape="http://www.inkscape.org/namespaces/inkscape"
   width="374.34375"
   height="238.40625"
   viewBox="0 0 374.34375 238.40625"
   id="svg2"
   version="1.1"
   inkscape:version="0.48.1 "
   sodipodi:docname="ZZ1.svg">
  <metadata
     id="metadata20">
    <rdf:RDF>
      <cc:Work
         rdf:about="">
        <dc:format>image/svg+xml</dc:format>
        <dc:type
           rdf:resource="http://purl.org/dc/dcmitype/StillImage" />
      </cc:Work>
    </rdf:RDF>
  </metadata>
  <defs
     id="defs18" />
  <sodipodi:namedview
     pagecolor="#ffffff"
     bordercolor="#666666"
     borderopacity="1"
     objecttolerance="10"
     gridtolerance="10"
     guidetolerance="10"
     inkscape:pageopacity="0"
     inkscape:pageshadow="2"
     inkscape:window-width="1280"
     inkscape:window-height="1004"
     id="namedview16"
     showgrid="false"
     fit-margin-top="0"
     fit-margin-left="0"
     fit-margin-right="0"
     fit-margin-bottom="0"
     inkscape:zoom="1.4142136"
     inkscape:cx="292.29282"
     inkscape:cy="32.439446"
     inkscape:window-x="-8"
     inkscape:window-y="-8"
     inkscape:window-maximized="1"
     inkscape:current-layer="svg2" />
  <path
     style="fill:#e40303"
     d="M 213.21875,0 212.28125,3.3125 206,4.625 200.09375,13.03125 202.375,17.9375 212.5,17.90625 216.0625,15.5625 217.875,18.96875 215.40625,25 209.25,20.75 l -4.71875,3.875 1.15625,3.15625 -7.40625,0.75 -7.65625,-4.34375 -5.90625,-1.34375 -11.71875,7.625 -3.53125,0.875 -7.59375,-0.21875 -2.46875,-3.53125 -5.46875,-0.15625 -1.90625,2.03125 -9.5,4.15625 -3.8125,-2.3125 3.3125,-1.9375 -2.5,-2.65625 -4.8125,-0.28125 -7.46875,6.40625 2.03125,2.78125 -2.625,4 -3.1875,-1.5 -0.90625,1.59375 176.625,0 -3.09375,-0.78125 -2.625,-3.875 -4.6875,-1.125 -17.53125,-14.625 -9.5625,-3.40625 -3.21875,2.78125 -3.59375,-2.78125 -3.90625,4.15625 -12.25,-1.3125 -2.5,-4.0625 1.53125,-2.9375 -5.46875,-4.09375 -2.65625,2.3125 2.6875,3.125 -0.96875,2.15625 -5.28125,-1.875 -1.21875,-4.4375 2.375,-2.375 -5.0625,-4.40625 -3.625,1.71875 L 216.6875,0.21875 213.21875,0 z m -124.875,37 -2.21875,1.125 0.21875,1.59375 16.4375,0 0.59375,-1.6875 L 88.34375,37 z"
     id="rect4"
     inkscape:connector-curvature="0" />
  <path
     style="fill:#ff8c00"
     d="m 86.34375,39.71875 0.5,3.78125 -4.25,1.8125 -4.46875,6.96875 1.15625,2.8125 8.9375,-2.125 3.875,3.4375 -9.625,6.53125 0.65625,5.53125 -6.78125,9.40625 -2.65625,1.59375 216.15625,0 L 289,76.0625 290.3125,67 l 8,-15 4.5,-2.28125 -1.75,-9.53125 -1.875,-0.46875 -176.625,0 -3.15625,5.5 -13.84375,1.53125 -4.40625,-2.40625 1.625,-4.625 -16.4375,0 z"
     id="rect6"
     inkscape:connector-curvature="0" />
  <path
     style="fill:#ffed00"
     d="M 73.6875,79.46875 65.96875,84.125 66.25,86 l -0.65625,0.5625 -2.78125,1.0625 0.5625,0.96875 -1.75,1.09375 2.78125,1.84375 -5.9375,5.40625 -12.375,3.40625 -5.375,5.84375 2.0625,8.96875 -2.125,4.03125 329.28125,0 0.75,-16.125 -4.25,-6.8125 -5.8125,-1.8125 -2.125,7.78125 -6.28125,-0.5 -0.4375,7.90625 -11.78125,3.46875 -3.65625,-4.625 -14.28125,-6.25 -0.53125,-3.125 1.53125,-3.4375 -2.4375,-4.09375 -2.625,1.28125 -12.3125,-5.28125 -17.15625,1.46875 0.65625,-1.65625 1.875,-2.96875 -1.21875,-4.9375 -216.15625,0 z"
     id="rect8"
     inkscape:connector-curvature="0" />
  <path
     style="fill:#008026"
     d="m 40.65625,119.1875 -0.375,0.71875 2.25,2.65625 -7.40625,8 -14.4375,8.75 -7,8.75 3.6875,3.75 -5.125,7.125 261.53125,0 0.625,-1.25 5.9375,-2.75 3.90625,4 0.53125,0 2.5,-3.59375 1.5625,-0.1875 0.21875,3.78125 48.21875,0 2.0625,-7.46875 -1.46875,-1.71875 4.125,-8.15625 10.53125,-3.9375 2.0625,3.4375 -1.3125,3.9375 5.8125,2.96875 9.5,-0.5 2.84375,2.5 2.125,-3.5 0.78125,-6.90625 -4.4375,-3.59375 -3.09375,-0.65625 -2.5,-4.625 5.5,-8.5625 0.125,-2.96875 -329.28125,0 z"
     id="rect10"
     inkscape:connector-curvature="0" />
  <path
     style="fill:#004dff"
     d="m 12.25,158.9375 -1.8125,2.53125 -1.46875,5.625 9.1875,6.34375 -2.6875,3.375 -2.8125,6.71875 1.53125,2.15625 0,1.4375 L 12.125,188.5 9.0625,187.5625 7.71875,189.40625 4.25,190 l -3.375,3.46875 2.5,1.5625 -1.9375,3.625 16.46875,0 0.625,-0.375 0.6875,-2.25 3.3125,-2.71875 5.71875,-2.53125 1.34375,-3.3125 -1.5625,-1.5625 -1.84375,1.8125 -2.5,-3.78125 1.125,-1.875 -1.5625,-3.875 9.5,-7.625 18.625,-6.5625 19.25,7 -0.0312,1.4375 -1.53125,1.21875 -1.0625,4.8125 3.84375,3.34375 1.84375,-0.96875 0.8125,5.90625 -3.5625,3.75 -1.5,3.71875 0.875,1.59375 -1.65625,2.84375 113.40625,0 0.46875,-1.3125 -6.9375,-10.4375 4.28125,-4.53125 1.96875,0.78125 5.15625,-2.9375 0.90625,-2.625 6.5,-4.71875 -1.375,-3.96875 5.53125,-5.125 7,-1.78125 2.125,6.09375 -0.5,10.09375 -3.15625,4.25 2.6875,3.9375 -1.375,2.1875 2.21875,1.9375 5.21875,1.5 3.46875,6.0625 2.65625,0.5625 0,0.0312 45.28125,0 3.96875,-2.96875 0.34375,-2.84375 1.78125,-3.09375 2.1875,-0.46875 3.25,-14.625 -4.1875,-11.15625 2.25,-4.5625 -261.53125,0 z m 272,0 0.3125,0.3125 0.21875,-0.3125 -0.53125,0 z m 4.8125,0 0.6875,12.6875 2.6875,1.15625 4.71875,7.78125 7.4375,1.5 3.65625,-1.875 1.4375,1.21875 1.8125,-0.5625 0,-4.90625 2.09375,-2.09375 3.125,2.03125 4.46875,-3.4375 3.21875,-0.0937 2.5625,-1.875 6.125,2.46875 -0.875,3.21875 2.03125,5.1875 4.8125,1.875 0.875,1.875 -1.1875,2.625 2.0625,1.34375 2.375,-1.4375 3.46875,0.34375 2.78125,-4.03125 -1.53125,-4.25 -3.40625,-2.4375 -0.96875,-3.2188 5.15625,-7.21875 -2.5,-3.53125 -5,0.71875 -3.5625,-1.3125 -0.5625,-3 0.21875,-0.75 -48.21875,0 z"
     id="rect12"
     inkscape:connector-curvature="0" />
  <path
     style="fill:#750787"
     d="M 1.4375,198.65625 0,201.3125 1.59375,201.875 3.375,200.0625 6.6875,201.09375 8,199.15625 l 3.71875,-0.0625 3,1.4375 3.1875,-1.875 -16.46875,0 z m 67.21875,0 L 68.46875,199 69.375,202.59375 72.90625,203.75 77,203.34375 l 0,4.75 -2.1875,4 2.875,0.9375 2.125,-2.34375 1.21875,-0.15625 4,7.1875 3.6875,2.8125 -2.15625,2 2.96875,2.25 2.0625,5.53125 3.75,5.34375 L 97.625,234 l 4.34375,2.21875 7.5625,-6.75 10.46875,1.21875 4.21875,-2.71875 0.4375,-2.3125 16.28125,-3.6875 4.84375,5.6875 3.46875,0 2.84375,2.6875 5.8125,-0.5 0.53125,-6.71875 2.71875,-3 6.71875,-0.25 3.75,-5.75 -1.1875,-3.6875 1.1875,-3.375 9.09375,-4.6875 1.34375,-3.71875 -113.40625,0 z m 150.25,0 -0.90625,1.875 1.625,3 7.34375,2.09375 3.34375,-1.5 3.59375,2.15625 2.4375,-1.4375 3.8125,6.1875 -2.8125,3.8125 -1.59375,-0.0625 -1.3125,3.75 4.1875,0.90625 1,1.4375 2.40625,1.78125 0.96875,-0.0312 0.375,2.5 3,4.28125 0.65625,3.90625 -2.21875,3.21875 0.28125,1.5 3.75,-1.53125 2.6875,1.6875 3.71875,0.21875 1.125,-4.65625 2.9375,-4.125 -2.0625,-2.875 -3.1875,-1 -2.71875,-5.4375 3.15625,-2.15625 -1.71875,-4.6875 0.65625,-2.03125 5.28125,-1.90625 0.59375,-2.625 -1.1875,-3.71875 6.0625,-4.53125 -45.28125,0 z"
     id="rect14"
     inkscape:connector-curvature="0" />
</svg>
